<?xml version="1.0" encoding="utf-8"?>
<!-- Generator: Adobe Illustrator 24.2.3, SVG Export Plug-In . SVG Version: 6.00 Build 0)  -->
<svg version="1.1" xmlns="http://www.w3.org/2000/svg" xmlns:xlink="http://www.w3.org/1999/xlink" x="0px" y="0px"
	 viewBox="0 0 1920 1080" style="enable-background:new 0 0 1920 1080;" xml:space="preserve">
<style type="text/css">
	.st0{fill:#F9834E;}
</style>
<g id="Layer_20">
</g>
<g id="Layer_19">
</g>
<g id="Layer_18">
	<g>
		<path className="st0" d="M1269.1,584.1c-2.26-3.28-4.62-6.58-7.01-9.81l100.52-74.31c3.2,4.33,6.36,8.75,9.39,13.15L1269.1,584.1z"/>
		<path className="st0" d="M588.06,757.37L463.55,746.3c0.95-10.7,2.27-21.48,3.92-32.07l123.5,19.28
			C589.75,741.38,588.76,749.41,588.06,757.37z"/>
		<path className="st0" d="M1331.71,755.14c-0.76-7.95-1.81-15.97-3.09-23.82l123.35-20.22c1.73,10.58,3.14,21.37,4.17,32.06
			L1331.71,755.14z"/>
		<path className="st0" d="M593.17,720.93l-122.75-23.63c2.03-10.54,4.44-21.15,7.17-31.53l120.9,31.75
			C596.46,705.22,594.67,713.1,593.17,720.93z"/>
		<path className="st0" d="M1326.33,718.75c-1.57-7.82-3.42-15.68-5.5-23.36l120.65-32.7c2.81,10.36,5.3,20.96,7.42,31.5L1326.33,718.75
			z"/>
		<path className="st0" d="M601.95,685.23L482.26,649.2c3.1-10.3,6.59-20.62,10.37-30.69l117.02,43.94
			C606.84,669.92,604.25,677.59,601.95,685.23z"/>
		<path className="st0" d="M1317.27,683.12c-2.35-7.61-5-15.24-7.86-22.69l116.68-44.83c3.86,10.03,7.42,20.32,10.59,30.57
			L1317.27,683.12z"/>
		<path className="st0" d="M614.36,650.55l-115.39-48.07c4.13-9.91,8.65-19.82,13.43-29.44l111.94,55.64
			C620.79,635.82,617.43,643.18,614.36,650.55z"/>
		<path className="st0" d="M1304.61,648.59c-3.12-7.34-6.53-14.68-10.14-21.81l111.54-56.42c4.85,9.58,9.43,19.44,13.63,29.3
			L1304.61,648.59z"/>
		<path className="st0" d="M630.24,617.3l-109.91-59.55c5.1-9.42,10.59-18.8,16.32-27.89l105.75,66.65
			C638.13,603.3,634.04,610.29,630.24,617.3z"/>
		<path className="st0" d="M1288.5,615.47c-3.85-6.99-7.99-13.95-12.3-20.69l105.29-67.37c5.79,9.04,11.34,18.38,16.5,27.76
			L1288.5,615.47z"/>
		<path className="st0" d="M649.42,585.81l-103.35-70.32c6.02-8.85,12.42-17.62,19.02-26.08l98.53,76.92
			C658.7,572.66,653.92,579.21,649.42,585.81z"/>
		<path className="st0" d="M671.69,556.37l-95.8-80.3c6.87-8.19,14.1-16.28,21.5-24.02l90.39,86.34
			C682.24,544.2,676.83,550.24,671.69,556.37z"/>
		<path className="st0" d="M1246.26,554.33c-5.19-6.1-10.66-12.11-16.24-17.86l89.73-87.03c7.45,7.68,14.75,15.71,21.68,23.85
			L1246.26,554.33z"/>
		<path className="st0" d="M696.8,529.28l-87.36-89.41c7.64-7.47,15.63-14.79,23.75-21.75l81.4,94.86
			C708.51,518.2,702.52,523.69,696.8,529.28z"/>
		<path className="st0" d="M1220.92,527.41c-5.77-5.56-11.81-11-17.93-16.18l80.69-95.47c8.17,6.91,16.22,14.17,23.93,21.58
			L1220.92,527.41z"/>
		<path className="st0" d="M724.47,504.8l-78.1-97.6c8.34-6.68,17.01-13.17,25.77-19.29l71.65,102.43
			C737.23,494.92,730.73,499.79,724.47,504.8z"/>
		<path className="st0" d="M1193.04,503.11c-6.3-4.96-12.84-9.79-19.45-14.33l70.88-102.96c8.81,6.06,17.54,12.49,25.94,19.12
			L1193.04,503.11z"/>
		<path className="st0" d="M754.42,483.16l-68.1-104.82c8.96-5.82,18.23-11.43,27.54-16.66l61.21,108.99
			C768.09,474.6,761.14,478.8,754.42,483.16z"/>
		<path className="st0" d="M1162.88,481.68c-6.75-4.32-13.74-8.47-20.77-12.34l60.38-109.45c9.37,5.17,18.69,10.71,27.7,16.46
			L1162.88,481.68z"/>
		<path className="st0" d="M786.35,464.59L728.9,353.57c9.49-4.91,19.26-9.57,29.04-13.86l50.18,114.49
			C800.78,457.42,793.46,460.91,786.35,464.59z"/>
		<path className="st0" d="M1130.76,463.32c-7.15-3.63-14.51-7.07-21.88-10.23l49.27-114.88c9.83,4.22,19.66,8.81,29.19,13.65
			L1130.76,463.32z"/>
		<path className="st0" d="M819.92,449.27l-46.23-116.14c9.93-3.95,20.12-7.63,30.29-10.94l38.65,118.88
			C835.01,443.54,827.37,446.3,819.92,449.27z"/>
		<path className="st0" d="M1096.98,448.22c-7.46-2.9-15.13-5.6-22.78-8.02l37.68-119.18c10.21,3.23,20.44,6.83,30.4,10.7
			L1096.98,448.22z"/>
		<path className="st0" d="M854.91,437.3l-34.55-120.13c10.27-2.95,20.77-5.61,31.22-7.9l26.74,122.11
			C870.48,433.1,862.61,435.09,854.91,437.3z"/>
		<path className="st0" d="M1061.87,436.54c-7.73-2.15-15.63-4.09-23.49-5.74l25.76-122.32c10.46,2.2,20.99,4.78,31.29,7.65
			L1061.87,436.54z"/>
		<path className="st0" d="M890.91,428.85L868.37,305.9c10.49-1.92,21.2-3.53,31.82-4.79l14.63,124.14
			C906.83,426.19,898.79,427.4,890.91,428.85z"/>
		<path className="st0" d="M1025.74,428.36c-7.9-1.38-15.97-2.53-23.97-3.41l13.68-124.25c10.63,1.17,21.35,2.7,31.86,4.54
			L1025.74,428.36z"/>
		<path className="st0" d="M927.62,423.97L917.2,299.4c10.61-0.89,21.41-1.45,32.09-1.66l2.52,124.97
			C943.75,422.88,935.61,423.3,927.62,423.97z"/>
		<path className="st0" d="M988.95,423.75c-7.05-0.54-14.22-0.88-21.32-1.03c-0.97-0.02-1.95-0.04-2.93-0.05l1.67-124.99
			c1.28,0.02,2.57,0.04,3.85,0.07c9.39,0.19,18.88,0.65,28.21,1.36L988.95,423.75z"/>
		<path className="st0" d="M1262.09,574.28c-2.38-3.22-4.85-6.44-7.33-9.59l98.04-77.54c3.32,4.2,6.62,8.52,9.81,12.82L1262.09,574.28z"
			/>
		<path className="st0" d="M586.69,782.32C586.69,782.32,586.69,782.32,586.69,782.32c0.08-4.05,0.24-8.15,0.45-12.18l-124.82-6.72
			c-0.29,5.4-0.5,10.88-0.61,16.31c-0.02,0.86-0.03,1.73-0.04,2.59H586.69z"/>
		<path className="st0" d="M1458.32,782.32c-0.12-7.36-0.4-14.74-0.84-22.03l-124.77,7.59c0.29,4.78,0.48,9.61,0.58,14.44H1458.32z"/>
		<g>
			<path className="st0" d="M1306.7,781.51c-6.82-185.41-159.29-333.61-346.36-333.57c-187.02,0.04-339.4,148.22-346.22,333.57H1306.7z"
				/>
		</g>
	</g>
</g>
<g id="Layer_17">
</g>
<g id="Layer_16">
</g>
<g id="Layer_15">
</g>
<g id="Layer_14">
</g>
<g id="Layer_13">
</g>
<g id="Layer_12">
</g>
<g id="Layer_11">
</g>
<g id="Layer_10">
</g>
<g id="Layer_9">
</g>
<g id="Layer_8">
</g>
<g id="Layer_7">
</g>
<g id="Layer_6">
</g>
<g id="Layer_5">
</g>
<g id="Layer_4">
</g>
<g id="Layer_3">
</g>
<g id="Layer_2">
</g>
</svg>
