<svg version="1.1" id="Layer_1" xmlns="http://www.w3.org/2000/svg" xmlns:xlink="http://www.w3.org/1999/xlink" x="0px" y="0px" style="enable-background:new 0 0 1920 1920;" xml:space="preserve" viewBox="229.58 235.98 1459.98 1451.6"> <style type="text/css">   .st0{fill:#FFFFFF;stroke:#F5834F;stroke-width:11.9271;stroke-miterlimit:10;}  .st1{fill:#F5834F;}   .st2{font-family:'MenschBold';}   .st3{font-size:46.8569px;}  .st4{letter-spacing:-4;}  .st5{fill:#FFFFFF;} </style> <path className="st0" d="M1055.76,1455.29l20.04,4.91c19.25,4.71,31.04,24.14,26.32,43.39l-36.88,150.66 &#9;c-4.71,19.25-24.14,31.04-43.39,26.32l-95.82-23.45l10.14-39.12"/> <path className="st0" d="M844.5,267.77l20.66-25.83l100.6,72.88l38.76-1.02l49.45,55.3L930.23,523.85 &#9;c-12.38,15.48-34.96,17.99-50.44,5.62L841,498.44"/> <path className="st0" d="M1441.81,984.28c12.91-1.56,25.96,1.43,36.89,8.47l204.89,131.8l-173.27-182.57 &#9;c-13.07-13.77-31.62-20.94-50.55-19.53l-111.79,8.3c-7.32-19.35-24.04-29.95-24.04-29.95l-141.12-93.1 &#9;c-16.44-9.52-33.22-18.72-50.35-27.2c6.92-6.09,11.12-15.21,10.51-25.29c-0.99-16.25-14.69-29.12-30.97-29.16 &#9;c-17.21-0.04-31.18,13.9-31.18,31.11c0,0.26,0.01,0.52,0.02,0.78c-44.75-16.74-91.78-26.46-141.32-22.82 &#9;c-31.11,2.28-61.95,10.66-91.71,22.23c-3.57-13.24-15.66-22.99-30.03-22.99c-17.18,0-31.11,13.93-31.11,31.1 &#9;c0,6.44,1.96,12.43,5.31,17.39c-15.56,8.04-30.63,16.48-45.09,24.85l-125.77,82.98l-55.26-84.03l82.34-89.92 &#9;c139.49-21.12,174.31-49.73,174.31-49.73c75.57-68.24,47.95-177.68,47.95-177.68c-51.32,50.53-139.6,95.28-205,124.05l0,0 &#9;c-1.4-6.74,0.33-13.76,4.69-19.09L813.6,418.93c-224.45-20.2-245.67,167.55-247.65,207.43L512.33,808c0,0-15.05,29.93,25.65,57.68 &#9;l55.33,46.21c-4.39,4.98-8.96,11.57-11.87,19.64c-0.32-0.03-0.64-0.07-0.96-0.09l-124.58-9.25c-16.74-1.24-33.16,5.1-44.71,17.28 &#9;l-175.65,185.08l204.85-131.77c10.96-7.05,24.04-10.05,36.97-8.49l119.88,14.49l-50.07,25.42c-15.14,7.69-25.97,21.84-29.44,38.47 &#9;l-51.98,249.46l104.67-219.32c5.76-12.06,15.65-21.67,27.88-27.07l31.57-13.95c8.21-3.63,17.78-2.01,24.35,4.1 &#9;c5.9,5.49,12.21,11.17,18.94,16.95l-7.22,3.67c-15.14,7.69-25.97,21.84-29.44,38.46l-51.99,249.46l99.75-208.98l53.53,208.99 &#9;l-2.46-226.76c-0.08-7.64,8.27-12.35,14.78-8.35c59.27,36.37,132.74,65.57,214.73,64.02c81.02,1.53,153.74-26.96,212.64-62.74 &#9;l60.9-44.11l16.52,21.58c14.5,18.94,14.28,45.3-0.53,64l-50.51,63.79c-137.62,31.06-170.3,62.09-170.3,62.09 &#9;c-70.51,73.48-35.12,180.66-35.12,180.66c47.57-54.07,132.42-105.03,195.59-138.41l0,0c1.88,6.63,0.66,13.75-3.31,19.38 &#9;l-130.53,185.16c225.33,4.09,233.05-184.72,232.17-224.63l40.47-185.01c0,0,12.88-30.93-29.71-55.7l-29.85-21.5 &#9;c3.3-3.05,6.49-6.04,9.54-8.96l38.01,16.79c12.23,5.4,22.12,15.01,27.88,27.07l104.67,219.31l-51.98-249.46 &#9;c-3.46-16.63-14.29-30.78-29.44-38.46l-44.64-22.66c1.33-1.61,2.37-2.89,3.08-3.78L1441.81,984.28z"/> <circle className="st1" cx="815.78" cy="761.59" r="11.93"/> <circle className="st1" cx="1112.55" cy="753.18" r="11.93"/> <path className="st0" d="M841,498.44l-82.35-65.84c-15.48-12.38-17.99-34.96-5.62-50.44l91.47-114.39"/> <g>   <text transform="matrix(0.6245 -0.781 0.781 0.6245 854.4947 470.3036)"><tspan x="0" y="0" className="st1 st2 st3">000</tspan><tspan x="56.49" y="0" className="st1 st2 st3 st4">0 0</tspan><tspan x="103.52" y="0" className="st1 st2 st3">000</tspan></text> </g> <polyline className="st0" points="936.19,1617.99 947.89,1572.85 935.19,1546.86 961.91,1432.32 1055.76,1455.29 "/> <g>  <text transform="matrix(0.9713 0.2377 -0.2377 0.9713 972.3123 1574.8041)" className="st1 st2 st3">0000</text> </g> <g>  <path className="st5" d="M692.85,978.98c0,0,189.42-57.5,564.89-33.83"/>   <path className="st1" d="M692.85,978.98c11.04-4.49,22.41-8.06,33.82-11.51c5.71-1.68,11.47-3.2,17.21-4.79 &#9;&#9;c2.87-0.82,5.76-1.51,8.66-2.21l8.68-2.12c11.57-2.89,23.25-5.16,34.92-7.58l4.38-0.89l4.39-0.79l8.8-1.54 &#9;&#9;c5.87-1.01,11.73-2.07,17.61-3.03c47.05-7.46,94.54-11.77,142.06-14.05l35.66-1.31c5.94-0.11,11.89-0.09,17.84-0.15 &#9;&#9;c5.94-0.03,11.89-0.1,17.83-0.07l17.83,0.03c2.97-0.02,5.94,0.04,8.91,0.15l8.91,0.29l17.82,0.59l17.81,0.71l8.9,0.37 &#9;&#9;c2.97,0.17,5.93,0.4,8.89,0.6c5.93,0.42,11.85,0.82,17.78,1.29c11.85,0.89,23.68,1.88,35.51,2.92c11.82,1.23,23.61,2.7,35.4,4.21 &#9;&#9;c11.78,1.5,23.55,3.18,35.29,5.03c-23.79,1.31-47.47,1.67-71.13,2.05c-11.83,0.36-23.65,0.68-35.46,0.9 &#9;&#9;c-11.81,0.3-23.61,0.21-35.41,0.7l-17.69,0.51l-17.68,0.39l-8.84,0.19c-2.95,0.07-5.89,0.08-8.84,0.22l-17.66,0.65l-35.32,1.11 &#9;&#9;l-35.28,1.57c-47.02,2.23-94.01,4.92-140.93,8.97l-35.18,3.25c-5.86,0.61-11.71,1.26-17.58,1.82c-2.93,0.3-5.88,0.54-8.8,0.9 &#9;&#9;l-8.78,1.04C739.71,972.04,716.29,975.04,692.85,978.98z"/> </g> </svg>