<svg version="1.1" id="Layer_1" xmlns="http://www.w3.org/2000/svg" xmlns:xlink="http://www.w3.org/1999/xlink" x="0px" y="0px" style="enable-background:new 0 0 1920 1920;" xml:space="preserve" viewBox="413.82 385.84 1087.49 1140.9"> <style type="text/css"> 	.st0{fill:#F5834F;} 	.st1{font-family:'ComicSansMS';} 	.st2{font-size:109.3396px;} 	.st3{letter-spacing:-5;} </style> <g> 	<path className="st0" d="M1473.8,1219.86c0.02-10.22-16.09-22.77-22.69-25.59c-24.97-10.65-52.22-9.42-78.15-15.81 &#9;&#9;c-1.16-0.28-2.09-0.04-2.78,0.49c-9.48-4.71-21.44-4-30.86,0.42c-1.07,0.5-1.65,1.27-1.85,2.1c-2.02-0.77-4.06-1.48-6.13-2.12 &#9;&#9;c13.17-5.68,37-15.97,45.44-26.07c26.99,2.19,52.89,12.24,80.35,12.45c1.39,0.01,3.45-0.07,5.75-0.29 &#9;&#9;c0.36,0.47,0.84,0.87,1.52,1.13c10.81,4.23,19.22,12.54,29.27,18.14c2.9,1.62,6.87-0.91,5.34-4.4 &#9;&#9;c-4.73-10.74-13.99-18.22-21.08-27.26c-0.37-0.48-0.79-0.8-1.23-1.01c-0.17-0.23-0.33-0.44-0.52-0.67 &#9;&#9;c-13.07-15.36-34.33-19.99-53.66-21.29c-20.07-1.35-42.22-0.96-61.22,6.93c-7.05,1.32-14.31,5.17-19.81,8.11 &#9;&#9;c-15.76,8.42-30.96,21.42-47.95,27.04c-0.84,0.28-1.4,0.74-1.75,1.3c-1.63-0.03-3.26-0.03-4.88-0.02 &#9;&#9;c22.18-12.29,54.28-32.28,48.86-47.73c0.01-0.02,0.01-0.04,0.02-0.04c0.03-0.08,0.06-0.16,0.08-0.25c0.72-1.88,1.05-3.81,1.1-5.74 &#9;&#9;c-0.24-0.19-0.5-0.36-0.74-0.54c-0.08-5.1-0.92-10.33-2.11-15.47c1.23-1.41,1.6-3.62-0.11-5.31c-0.54-0.54-1.1-1.06-1.67-1.54 &#9;&#9;c-0.9-3.18-1.87-6.29-2.81-9.24c-2.9-9.1-8.17-24.71-19.4-26.18c-0.5-0.07-0.94-0.05-1.4-0.06c-16-8.48-35.12-18.65-53.17-11.22 &#9;&#9;c-2.99,1.23-3.73,5.29-0.64,6.99c13.86,7.59,29.75,10.64,43.07,19.29c0.16,0.1,0.31,0.17,0.48,0.25 &#9;&#9;c-0.21,5.73,0.56,12.44,1.71,19.01c-0.33,1.33-0.05,2.76,0.7,3.74c1.84,9.23,4.25,17.74,5.59,22.23 &#9;&#9;c-7.59,4.26-14.71,10.09-19.12,13.39c-12.88,9.62-34.62,24.94-39.9,41.4c-2.55,0.31-5.17,0.58-7.82,0.84 &#9;&#9;c-1.27-0.57-2.9-0.42-4.08,0.41c-0.48,0.05-0.97,0.1-1.45,0.15c19.81-15.81,48.2-40.92,40.26-55.28 &#9;&#9;c3.06-13.76-12.02-27-23.76-30.74c-1.74-0.56-3.58-0.81-5.33-0.71c-0.64-0.8-1.59-1.37-2.88-1.41 &#9;&#9;c-13.02-0.38-29.81,6.26-40.21,13.8c-2.19,1.59-2.45,5.27,0.28,6.56c11.66,5.47,24.19,3.63,35.58-1.2 &#9;&#9;c0.04,0.11,0.08,0.22,0.12,0.33c1.77,4.88,4.29,9.49,7.02,13.92c-6.93,5.51-13.12,12.64-16.99,16.7 &#9;&#9;c-10.76,11.3-28.86,29.27-32.16,45.96c-12.62,5.06-24.49,11.8-33.69,21.83c-16.15,1.88-35.02,14.17-47.17,21.64 &#9;&#9;c-4.77,2.94-13.04,7.52-19.87,13.15c-3.77-3.59-7.76-7.02-12.15-9.76c-0.1-0.07-0.2-0.13-0.3-0.19c7.1-10.14,11.5-22.02,8.57-34.55 &#9;&#9;c-0.68-2.94-4.34-3.45-6.35-1.64c-9.55,8.6-19.52,23.65-21.86,36.45c-0.24,1.27,0.12,2.33,0.78,3.11c-0.46,1.7-0.59,3.54-0.41,5.36 &#9;&#9;c1.23,12.27,11.04,29.77,25.14,29.63c10.59,9.18,34.38-5.95,53.3-20.59c-1.92,4.37-3.83,8.76-5.71,13.18 &#9;&#9;c-0.13,0.2-0.2,0.42-0.27,0.65c-16.91,0.18-37.85,14.06-50.93,22.21c-4.67,2.91-12.69,7.43-19.41,12.96 &#9;&#9;c-3.71-2.88-10.75-8.22-18.69-13.28c-0.64-1.06-1.88-1.85-3.23-2.02c-5.7-3.46-11.67-6.6-17.09-8.5c-0.01-0.18-0.02-0.34-0.05-0.53 &#9;&#9;c-3.22-15.55-0.29-31.47-2.34-47.13c-0.45-3.49-4.51-4.28-6.74-1.94c-13.48,14.12-10.94,35.63-8.85,53.61 &#9;&#9;c-0.16,0.44-0.33,0.84-0.45,1.32c-2.71,11,9.93,21.58,17.35,27.58c2.41,1.95,4.96,3.98,7.6,5.98c0.25,0.71,0.52,1.41,0.83,2.11 &#9;&#9;c0.96,2.21,3.15,2.66,4.91,2.03c4.36,2.97,8.93,5.66,13.65,7.58c0.08,0.29,0.15,0.6,0.23,0.88c1.83,0.66,3.74,1.05,5.76,1.06 &#9;&#9;c0.08,0.01,0.17,0.01,0.26,0.01c0.02,0,0.03,0,0.05,0c12.97,11.12,45.38-14.02,64.69-30.27c-0.18,0.62-0.35,1.23-0.53,1.85 &#9;&#9;c-0.36,0.23-0.71,0.53-1.02,0.96c-11.25,15.37-29.33,26.39-42.99,39.55c-4.77,4.6-11.03,10.67-14.67,17.39 &#9;&#9;c-14.19,16.63-21.85,39.04-27.08,59.93c-5.04,20.12-7.36,43.33,3.83,61.88c0.17,0.28,0.33,0.52,0.5,0.77 &#9;&#9;c0.07,0.51,0.26,1.06,0.61,1.59c6.79,10.32,11.28,22.29,20.55,30.77c3.01,2.75,6.86-0.42,6.19-3.92 &#9;&#9;c-2.35-12.14-7.96-23.54-8.67-35.98c-0.05-0.79-0.29-1.42-0.65-1.94c0.99-2.27,1.74-4.33,2.19-5.75 &#9;&#9;c8.8-28.02,7.18-57.81,13.84-86.02c7.54-3,16.87-11.3,25.34-19.97c-0.09,0.93-0.19,1.86-0.19,2.8c-0.78,0.38-1.4,1.11-1.66,2.28 &#9;&#9;c-5.76,26.08-18.92,49.96-20.42,77.07c-0.4,7.17,3.73,27.17,12.9,31.67c11.83,20.11,23.54,39.82,43.97,52.42 &#9;&#9;c2.9,1.78,6.31-0.75,5.76-4c-3.85-22.69-19.36-42.02-33.09-59.79c3.43-10.37,3.22-24.71,3.71-31.86 &#9;&#9;c1.19-17.36-0.71-36.02,2.05-53.29c3.22-0.82,6.07-2.89,8.57-5.3c-0.19,0.45-0.3,0.97-0.28,1.56c0.25,15.23-4.64,48.17-1.74,63.44 &#9;&#9;c2.61,13.72,16.69,22.85,29.33,25.89c1.59,0.38,3.17,0.56,4.72,0.59c27.26,49.64,110.32,86.59,160.07,49.17 &#9;&#9;c2.37,3.6,8.17-0.36,6.11-4.54c-11.9-24.22-36.66-35.3-58.53-48.91c7.71-4.3,14.67-9.18,20.33-14.21c1.54-1.37,1.17-4.08-0.24-5.36 &#9;&#9;c-13.66-12.37-34.35-14.26-51.94-14.76c-17.7-0.5-38.26,1.38-54.17,10.09c-1.26-13.02-6.01-28.99-9.83-36.58 &#9;&#9;c17.33,1.48,36.45-2.64,52.31-8.65c16.88-6.4,33.12-14.75,48.64-24.39c1.17,1.34,2.29,2.72,3.39,4.12 &#9;&#9;c-11.75,9.39,1.22,27.28,15.97,23.82c8.35-1.95,13.14-11.67,9.98-19.37c-3.3-8.05-12.61-11.69-20.71-9.91 &#9;&#9;c-0.73-0.92-1.46-1.83-2.19-2.75c10.71-6.97,21.05-14.54,30.99-22.46c2.03,2.04,4.12,4.06,6.31,5.94 &#9;&#9;c-2.57,2.83-3.45,6.85-2.18,11.02c2.03,6.63,8.57,10.13,15.18,8.94c8.31-1.51,13.35-10.95,11.19-18.71 &#9;&#9;c-2.31-8.33-11.95-10.97-19.2-7.74c-0.23,0.1-0.44,0.23-0.63,0.36c-1.64-1.46-3.23-3.02-4.78-4.58c3.86-3.17,7.65-6.4,11.38-9.66 &#9;&#9;c18.23-15.94,41.74-39.06,51.69-64.58c10.31,5.6,20.59,8.28,29.77,8.55c-8.11,14.43-11.28,32.56-12.33,48.53 &#9;&#9;c-1.14,17.56-1.17,38.34,9.86,53.09c1.14,1.52,3.81,2.14,5.31,0.74c5.53-5.17,11.04-11.65,16.04-18.92 &#9;&#9;c11.51,23.04,20.24,48.72,43.24,62.82c3.97,2.44,8.45-2.97,5.09-5.66c41.8-45.96,12.95-131.82-33.76-163.74 &#9;&#9;c0.17-1.8,0.16-3.67-0.07-5.64c-2.87-24.03-41.75-25.32-62.42-23.78c-1.77-4.29-4.05-8.13-6.69-11.61 &#9;&#9;c3.58-1.19,7.06-2.93,9.42-5.68c16.71,5.17,32.61,15.14,48.72,21.77c6.62,2.72,19.39,9.25,30.21,10.77 &#9;&#9;c9.86,20.18,20.32,42.64,38.97,56.13c2.67,1.93,6.45-0.01,6.13-3.39C1499.08,1258.59,1486.59,1239.36,1473.8,1219.86z &#9;&#9; M1475.97,1161.82c1.92,2.15,3.91,4.27,5.86,6.43c-2.69-1.85-5.42-3.61-8.27-5.19C1474.44,1162.69,1475.26,1162.29,1475.97,1161.82 &#9;&#9;z M1415.34,1136.81c15.66,0.77,34.22,2.22,47.17,11.91c2.05,1.54,12.71,8.31,5.44,9.34c-3.37,0.48-6.72,0.65-10.12,0.56 &#9;&#9;c-6.07-0.17-12.19-0.49-18.21-1.17c-20.04-2.26-39.75-8.94-59.79-11.04c0-1.77-0.67-3.5-2.25-5.16c-0.55-0.58-1.13-1.08-1.71-1.54 &#9;&#9;C1388.73,1136.59,1402.62,1136.19,1415.34,1136.81z M1299.7,1068.57c-9.68-5.84-20.53-9.11-30.94-13.38 &#9;&#9;c11.05-0.14,22.18,5.25,32.17,10.55C1300.44,1066.58,1300.03,1067.52,1299.7,1068.57z M1236.66,1097.74 &#9;&#9;c-0.3,1.16-0.36,2.37-0.31,3.59c-7.21,3.3-15.26,5.34-23,4.15c7.08-3.82,15.58-6.88,23.35-7.88 &#9;&#9;C1236.69,1097.64,1236.67,1097.69,1236.66,1097.74z M1017.54,1239.86c0.21,11.26-0.69,22.55,1.24,33.7 &#9;&#9;c-1.1-0.07-2.12-0.03-3.09,0.11C1014.38,1262.44,1013.4,1250.11,1017.54,1239.86z M1031.63,1303.49 &#9;&#9;c-6.49-4.84-13.84-10.92-15.83-18.03c-0.22-0.79-0.22-1.39-0.1-1.89c0.26-0.29,0.46-0.62,0.61-1c2.87-2.17,13.9,2.94,20.62,6.47 &#9;&#9;C1033.71,1293.41,1031.9,1298.34,1031.63,1303.49z M1051.74,1482.57c0.7-0.56,1.38-1.26,2.04-2.03c0.66,3.44,1.53,6.83,2.51,10.19 &#9;&#9;C1054.77,1488.01,1053.28,1485.27,1051.74,1482.57z M1059.27,1444.09c-1.29,6.36-2.98,12.69-4.8,18.93 &#9;&#9;c-1.02,3.49-2.29,6.85-3.88,10.11c-3.43,7.05-6.75-6.12-7.63-8.73c-5.51-16.48-0.89-35.87,3.49-52.07 &#9;&#9;c3.55-13.16,8.52-27.15,15.88-39.18c0.27,0.76,0.58,1.52,0.99,2.27c1.15,2.17,2.68,3.44,4.46,4.05 &#9;&#9;C1063.31,1400.58,1063.57,1422.92,1059.27,1444.09z M1095.77,1464.94c-0.51-0.48-1.09-0.78-1.71-0.91c-0.39-0.3-0.8-0.66-1.25-1.11 &#9;&#9;c-7.8-8.02-6.96-20.21-5.65-30.42c2.63-20.53,11.91-39.31,17.41-59.08c0.61,0.65,1.28,1.2,2.02,1.67 &#9;&#9;c-4.18,27.44,1.3,56.09-6.21,83.25C1099.33,1462.15,1098.23,1465.52,1095.77,1464.94z M1131.44,1512.64 &#9;&#9;c-13.39-10.93-22.37-25.46-31.18-40.42c0.13-0.07,0.26-0.11,0.38-0.18c1.5-0.8,2.78-1.97,3.89-3.38 &#9;&#9;C1114.89,1482.05,1126.01,1496.45,1131.44,1512.64z M1096.48,1352.18c-2.02,2.12-13.19,13.77-20.73,17.87 &#9;&#9;c-1.69-1.26-4.53-1.14-5.77,0.99c-0.4-0.28-0.72-0.7-0.93-1.3c-0.7-1.97-0.52-4.14,0.26-6.41c0.3-0.36,0.58-0.73,0.89-1.08 &#9;&#9;c0.75-0.89,1.01-1.84,0.92-2.75c5.69-9.64,19.47-20.02,24.41-24.4c7.58-6.74,16.41-13.06,23.92-20.33 &#9;&#9;c-0.88,4.82-1.51,9.64-1.82,14.48C1110.09,1336.33,1103.63,1344.69,1096.48,1352.18z M1108.62,1364.68 &#9;&#9;c-1.27-8.04,2.59-16.8,8.38-22.47c-0.09,1.02,0.17,2.08,0.78,2.9c0.43,4.73,1.21,9.48,2.41,14.23c0.19,0.75,0.42,1.45,0.63,2.17 &#9;&#9;C1117.28,1365.7,1109.98,1373.28,1108.62,1364.68z M1280.21,1369.85c0.15,0,0.3,0.01,0.44,0.02c-0.17,0.07-0.33,0.16-0.49,0.23 &#9;&#9;C1280.17,1370.02,1280.2,1369.94,1280.21,1369.85z M1279.39,1383.22c-0.28-5.89,6.19-8.5,10.91-6.05c0.46,3.71-3.17,7.35-6.87,7.83 &#9;&#9;c-1.44,0.19-2.85-0.08-4.16-0.63C1279.36,1384.02,1279.41,1383.64,1279.39,1383.22z M1328.31,1349.67 &#9;&#9;c-0.45,2.89-2.91,5.42-5.75,6.35c-0.91,0.29-1.81,0.25-2.64-0.03c0.02-0.47-0.08-0.99-0.31-1.55 &#9;&#9;C1317.32,1349.1,1324.61,1347.67,1328.31,1349.67z M1419.81,1340.91c-0.28,0.31-0.5,0.65-0.65,1.04 &#9;&#9;c-4.44,7.04-9.4,13.38-14.34,18.49c-7.74-13.54-7.3-32.35-5.75-47.09c1.67-15.81,4.53-33.57,13.85-46.93 &#9;&#9;c4.02-0.68,7.7-1.88,10.91-3.57C1443.87,1282.99,1435.11,1316.14,1419.81,1340.91z M1434.96,1251.72 &#9;&#9;c42.09,31.17,68.24,109.41,29.65,151.52c-18.92-14.96-26.37-39.15-37.41-60.11c16.11-27.03,24.05-62.02,2.85-84.69 &#9;&#9;C1432.1,1256.49,1433.76,1254.24,1434.96,1251.72z M1377.01,1221.86c16.51-1.17,48.08-2.12,52.19,15.57 &#9;&#9;c4.76,20.47-26.17,28.22-52.97,13.87C1378.93,1241.67,1379.5,1231.78,1377.01,1221.86z M1332.19,1158.44 &#9;&#9;c5.37-3.15,18.7-12.5,28.95-14.8c0.77,0.34,1.7,0.39,2.71-0.03c0.4-0.17,0.81-0.31,1.22-0.48c2.24-0.04,4.22,0.43,5.76,1.62 &#9;&#9;c0.47,0.36,0.74,0.76,0.86,1.21c-2.25,0.49-3.21,3-2.6,4.88c-5.89,5.56-19.57,12.19-22.05,13.39c-8.79,4.24-18.14,7.6-26.69,12.31 &#9;&#9;c-4.7-0.97-9.41-1.68-14.04-2.18C1315.26,1169.68,1323.73,1163.4,1332.19,1158.44z M1328.43,1114.51 &#9;&#9;c-0.02-0.01-0.03-0.01-0.05-0.01c0.03,0.09,0.05,0.19,0.09,0.28c0.12,1.06,0.21,2.1,0.25,3.14c-4.38-2.27-9.62-1.74-14.98,0.24 &#9;&#9;c-0.17-0.39-0.33-0.81-0.5-1.22c-0.05,0.02-0.1,0.04-0.16,0.07c-1.7-6.05-3.12-12.17-4.36-18.32c6.02-1.75,11.74-1.03,16.89,2.54 &#9;&#9;C1326.76,1105.47,1327.89,1110.03,1328.43,1114.51z M1309,1069.54c0.4,0,0.79-0.07,1.15-0.2c0.51,0.07,1.07,0.28,1.73,0.77 &#9;&#9;c5.91,4.44,8.9,13.49,11.06,21.3c-4.9-1.62-10.16-1.72-15.4-0.32C1306.68,1083.55,1305.93,1071.43,1309,1069.54z M1283.47,1147.76 &#9;&#9;c6.76-5.68,13.88-10.91,21.31-15.67c1.61-1.03,3.9-2.58,6.44-4.04c1.87,0.47,4.05-0.59,4.71-2.41c3.21-1.39,6.43-2.18,8.95-1.4 &#9;&#9;c1.32,0.41,2.23,1,2.81,1.7c0.01,0.77,0.31,1.45,0.8,2c0.61,8.61-25.63,26.92-28.6,28.85c-9.8,6.34-20.18,11.63-30.31,17.37 &#9;&#9;c-4.49,0.33-8.97,0.76-13.45,1.24C1261.79,1164.47,1274.98,1154.9,1283.47,1147.76z M1244.63,1105.39c1.39-1.51,0.8-3.75-0.69-5.05 &#9;&#9;c0.01-0.07-0.01-0.15,0-0.23c0.05-0.43,0.16-0.84,0.28-1.25h0c-0.1,0.35,0.16-0.1,0.08-0.01c0.02-0.02,0.02-0.03,0.03-0.05 &#9;&#9;c0.06-0.03,0.13-0.07,0.24-0.13c0.02-0.02,0.03-0.02,0.03-0.03c0.06-0.01,0.21-0.04,0.58-0.12c-0.75,0.18,1.74,0.12,1.53,0.08 &#9;&#9;c0.87,0.14,2.45,0.58,2.83,0.73c5,1.91,9.69,5.41,13.08,9.54c1.89,2.29,3.37,4.74,4.07,7.29c-4.85-1.8-10.13-0.38-15.28,2.59 &#9;&#9;C1248.8,1114.66,1245.93,1109.77,1244.63,1105.39z M1226.52,1153c5.71-6.73,11.87-13.08,18.4-19.02c1.42-1.29,3.41-3.19,5.67-5.05 &#9;&#9;c1.91,0.14,3.89-1.27,4.25-3.16c2.93-1.91,5.97-3.23,8.59-2.88c1.37,0.19,2.36,0.61,3.06,1.2c0.14,0.77,0.55,1.39,1.13,1.84 &#9;&#9;c2.04,8.39-20.78,30.83-23.38,33.22c-7.94,7.27-16.51,13.72-24.87,20.45c-2.77,0.43-5.52,0.91-8.19,1.53 &#9;&#9;c-0.67-0.24-1.45-0.26-2.32,0.02c-1.26,0.41-2.52,0.82-3.78,1.25C1209.48,1171.5,1219.83,1160.87,1226.52,1153z M1084.78,1207.49 &#9;&#9;c-0.44,7.83-4.12,15.27-8.84,21.64c-1.18-0.31-2.37-0.5-3.57-0.45c-0.05,0.01-0.1,0.01-0.15,0.02 &#9;&#9;C1074.81,1221.3,1079.57,1213.62,1084.78,1207.49z M1084.15,1261.89c-2.35-1.21-4.44-3.18-6.28-5.5 &#9;&#9;c-3.33-4.17-5.79-9.49-6.61-14.78c-0.06-0.41-0.18-2.05-0.13-2.92c-0.01,0.21,0.56-2.21,0.23-1.51c0.16-0.34,0.22-0.48,0.24-0.54 &#9;&#9;c0.01-0.01,0.02-0.01,0.03-0.03c0.08-0.09,0.14-0.15,0.18-0.21c0.02-0.01,0.03-0.01,0.05-0.02c-0.1,0.05,0.39-0.11,0.03-0.08h0 &#9;&#9;c0.42-0.04,0.86-0.06,1.29-0.02c0.07,0.01,0.15,0.03,0.23,0.05c0.95,1.72,3.02,2.77,4.79,1.72c4,2.19,8.19,6.01,11.66,9.43 &#9;&#9;C1085.89,1251.9,1083.41,1256.77,1084.15,1261.89z M1130.86,1248.85c-2.88,2.05-29.57,19.7-37.36,15.96 &#9;&#9;c-0.33-0.66-0.84-1.19-1.56-1.48c-0.44-0.8-0.64-1.86-0.54-3.24c0.19-2.63,2.13-5.33,4.6-7.8c1.93,0.05,3.72-1.59,3.98-3.5 &#9;&#9;c2.3-1.82,4.57-3.38,6.12-4.49c7.17-5.16,14.66-9.86,22.43-14.05c7.57-4.09,17.55-10.26,27.34-13.42c-2.18,5.94-4.63,11.94-7.2,18 &#9;&#9;C1142.86,1239.65,1137.02,1244.45,1130.86,1248.85z M1054.22,1318.51c-0.95-0.42-1.89-0.87-2.83-1.38 &#9;&#9;c-0.08-0.06-0.16-0.11-0.24-0.18c0,0.02,0,0.04-0.01,0.05c-3.98-2.14-7.81-4.84-11.34-7.45c-1.46-6.09-0.05-11.68,3.76-16.66 &#9;&#9;c5.29,3.4,10.47,6.95,15.49,10.72c-0.04,0.04-0.08,0.07-0.12,0.11c0.32,0.3,0.65,0.61,0.96,0.91 &#9;&#9;C1056.1,1308.92,1053.7,1313.61,1054.22,1318.51z M1100.9,1305.78c-2.87,2.06-29.46,19.87-37.27,16.16 &#9;&#9;c-0.33-0.65-0.85-1.18-1.57-1.47c-0.44-0.8-0.66-1.86-0.56-3.24c0.18-2.63,2.09-5.34,4.56-7.82c1.93,0.03,3.71-1.61,3.96-3.52 &#9;&#9;c2.28-1.83,4.55-3.41,6.1-4.53c7.13-5.2,14.6-9.94,22.35-14.17c9.38-5.13,22.44-13.5,34.31-15.26c-1.59,3.92-3.12,7.85-4.56,11.81 &#9;&#9;C1119.14,1291.12,1110.41,1298.92,1100.9,1305.78z M1174.57,1450.51c1.26-2.09,1.88-5.17,2.03-8.81c0.61-0.01,1.25-0.17,1.9-0.55 &#9;&#9;c14.32-8.56,32.75-9.79,49.03-9.98c14.81-0.18,33.58,1.14,46.34,10.11c-5.55,4.45-12.31,8.79-19.74,12.56 &#9;&#9;c-0.4,0.1-0.76,0.29-1.09,0.54c-26.3,13.03-60.45,18.66-78.52-3.79C1174.54,1450.57,1174.56,1450.54,1174.57,1450.51z &#9;&#9; M1254.57,1461.95c19.84,12.95,43.23,22.62,56.36,42.84c-45.64,34.6-121.36,1-148.3-43.98c2.56-0.99,4.92-2.46,7-4.32 &#9;&#9;C1190.17,1480.17,1225.99,1475.55,1254.57,1461.95z M1166.66,1448.54c-0.21,0.26-0.38,0.56-0.51,0.87 &#9;&#9;c-0.12,0.17-0.2,0.41-0.33,0.56c-8.11,10.35-23.26,1.52-30.81-4.34c-13.89-10.79-7.07-46.68-5.39-66.42 &#9;&#9;c7.35,9.32,17.53,14.53,28.95,16.8c-0.34,0.94-0.3,2.04,0.39,3.15C1164.2,1407.56,1172.12,1437.9,1166.66,1448.54z M1369.78,1246.1 &#9;&#9;c-6.94,1.76-14.27,1.39-21.2,3.33c-4.71,1.33-2.45,8.57,2.25,7.25c5.31-1.49,10.87-1.62,16.31-2.38 &#9;&#9;c-3.82,9.76-9.89,19.43-16.91,28.49c-0.6-0.42-1.37-0.65-2.33-0.56c-6.77,0.64-13.18-1.58-19.77-2.74 &#9;&#9;c-4.81-0.84-6.54,6.55-1.71,7.4c6.02,1.05,11.93,2.84,18.02,3.01c-10.77,12.62-22.79,23.69-32.09,31.69 &#9;&#9;c-0.98,0.85-2.01,1.68-3,2.52c-3.54-0.92-7.33-0.48-10.39,1.78c-3.22,2.38-4.21,5.88-3.36,9.4c-7.59,5.9-15.44,11.58-23.53,16.94 &#9;&#9;c-0.22-0.05-0.44-0.1-0.68-0.11c-8.31-0.56-15.62,2.72-17.33,11.24c-7.43,4.25-15,8.19-22.73,11.72l-5.02-16.17 &#9;&#9;c-1.45-4.67-8.7-2.43-7.25,2.25l5.27,16.98c-7.75,3.24-15.63,6.08-23.62,8.42c-3.58,1.05-7.26,1.95-10.98,2.64 &#9;&#9;c0.36-5.34,0.84-10.67,0.47-16.03c-0.34-4.88-7.92-4.64-7.59,0.24c0.39,5.65-0.16,11.27-0.53,16.91 &#9;&#9;c-13.73,1.42-27.51-0.49-38.67-8.8c0.01-0.01,0.01-0.01,0.01-0.02c3.66-6.86,7.98-13.36,12.41-19.75c2.79-4.01-3.96-7.5-6.71-3.53 &#9;&#9;c-4.09,5.88-8.04,11.87-11.51,18.15c-8.13-8.66-11.65-19.59-12.45-31.16c5.26-1.79,10.45-3.78,15.74-5.47 &#9;&#9;c4.66-1.48,2.41-8.73-2.25-7.24c-4.59,1.46-9.11,3.15-13.65,4.76c0.29-10.51,2.38-21.23,4.94-31.04c3.66-0.8,7.34-0.91,11.08-0.16 &#9;&#9;c4.8,0.97,6.51-6.42,1.72-7.39c-3.53-0.72-7.06-0.82-10.56-0.45c0.19-0.64,0.37-1.3,0.56-1.93c2.61-8.68,5.77-17.16,9.14-25.56 &#9;&#9;c0.54-0.58,0.84-1.36,0.88-2.2c0.09-0.23,0.18-0.45,0.27-0.68c2.52-1.05,5.23-0.93,7.86,0.1c1.93,0.75,4.08,0.4,5.12-1.59 &#9;&#9;c0.88-1.67,0.34-4.37-1.59-5.12c-2.67-1.04-5.34-1.6-7.98-1.6c3.43-8.14,6.93-16.25,10.29-24.41c2.31-0.01,4.63,0.09,6.94-0.02 &#9;&#9;c4.89-0.23,4.64-7.81-0.24-7.58c-1.21,0.05-2.42,0.02-3.63,0.01c1.26-3.19,2.48-6.4,3.65-9.62c0.15-0.15,0.31-0.3,0.44-0.48 &#9;&#9;c9.06-12.09,21.72-19.51,35.4-24.93c0.98,0.15,1.96-0.01,2.69-0.61c0-0.15,0.02-0.29,0.04-0.44c1.34-0.5,2.68-0.99,4.04-1.46 &#9;&#9;c0.48,0.05,1,0.01,1.56-0.17c8.25-2.56,17.62-3.21,26.44-4.19c0.04,2.52,0.08,5.03-0.1,7.54c-0.14,2.07,2.01,3.73,3.92,3.67 &#9;&#9;c2.22-0.08,3.53-1.86,3.67-3.92c0.19-2.74,0.13-5.48,0.08-8.23c6.89-0.91,13.78-1.72,20.7-2.35c-0.17,3.6-0.47,7.2-0.56,10.81 &#9;&#9;c-0.13,4.9,7.46,4.62,7.58-0.25c0.1-3.74,0.42-7.46,0.58-11.21c3.18-0.22,6.36-0.42,9.55-0.56c5.45-0.24,11.01-0.28,16.58-0.1 &#9;&#9;c-0.65,3.28-1.45,6.53-2.18,9.79c-1.07,4.78,6.33,6.49,7.4,1.71c0.82-3.68,1.75-7.35,2.43-11.07c8.68,0.72,17.3,2.19,25.48,4.82 &#9;&#9;c-1.78,4.21-3.63,8.38-5.74,12.43c-2.26,4.35,4.45,7.88,6.71,3.53c2.26-4.33,4.22-8.8,6.12-13.3c7.09,3,13.76,6.99,19.69,12.32 &#9;&#9;c0.52,0.46,1,0.94,1.48,1.4c0.33,0.54,0.78,1.01,1.34,1.35c0.35,0.36,0.7,0.72,1.04,1.08c-4.21,3.02-8.41,6.04-12.62,9.06 &#9;&#9;c-3.96,2.84,0.11,9.25,4.1,6.39c4.41-3.16,8.82-6.34,13.24-9.51C1371.85,1222.12,1372.81,1234.07,1369.78,1246.1z M1362.32,1196.58 &#9;&#9;c-4.89-4.71-10.58-8.54-16.77-11.62c7.67-2.75,17.31-2.39,24.01,2.35C1376.25,1192.03,1367.78,1195.13,1362.32,1196.58z &#9;&#9; M1457.18,1221.38c-27.68-5.29-50.94-22.89-77.4-31.29c-0.08-0.87-0.29-1.73-0.6-2.56c20.16,3.82,41.1,3.82,60.68,10.54 &#9;&#9;c9.74,3.35,21.04,7.99,24.77,18.54c0.21,0.61,0.35,1.13,0.44,1.62c-0.16,0.61-0.14,1.27,0.06,1.94 &#9;&#9;C1464.58,1222.63,1461.06,1222.12,1457.18,1221.38z M1464.6,1229.67c1.76-0.37,3.37-1,4.75-2c0.12-0.08,0.21-0.18,0.33-0.26 &#9;&#9;c9.52,14.52,18.57,29.01,22.44,45.86C1480.01,1261.23,1472.02,1244.89,1464.6,1229.67z"/> 	<path className="st0" d="M1177.06,1353.51c-36.13-13.37-7.76-78.42-0.07-102.87c1.47-4.67-5.8-6.84-7.27-2.18 &#9;&#9;c-9.21,29.28-37.78,96.43,5.15,112.32C1179.49,1362.49,1181.63,1355.2,1177.06,1353.51z"/> </g> <path className="st0" d="M824.77,693.05l-9.15,0.37l4.47,60.65c-4.1-7.98-8.53-15.82-12.33-23.94c-5.4-11.54-9.12-23.56-11.08-35.95 &#9;l-8.46,0.34c1.53,9.96,4.16,19.67,7.79,29.36c6.62,17.65,17.78,33.21,24.25,50.89c0.33,0.9,0.86,1.56,1.5,2.01l5.38,72.93 &#9;c-9.38-21.69-22.57-41.48-34.33-62.62c-15.64-28.13-25.75-58.43-26.84-90.25l-13.54,0.55l17.93,441.03c0.35,8.7,9.49,8.32,9.14-0.37 &#9;l-2.99-73.58c0.72-0.32,1.39-0.87,1.89-1.71c5.68-9.37,15.11-15.73,22.48-23.67c7.31-7.88,13.02-17.26,17.89-26.77 &#9;c10.02-19.56,13.23-41.56,9.83-63.16c-7.26-46.09-49.75-77.2-58.43-122.19c-0.4-2.07-1.86-2.93-3.44-2.9l-3.59-88.31 &#9;c3.74,14.6,9.15,28.86,15.84,42.87c17.21,36.07,42.99,66.31,50.44,106.63c0.08,0.46,0.23,0.83,0.41,1.18l17.45,236.55 &#9;c0.62,8.4,9.72,7.42,9.1-0.99L824.77,693.05z M771.79,948.2c2.74,5.86,4.07,12.27,0.71,17.46L771.79,948.2z M772.95,976.82 &#9;c0.15-0.09,0.29-0.15,0.44-0.26c14.15-10.32,10.1-26.63,1.77-39.5c-1.01-1.56-2.5-2.03-3.9-1.83l-1.33-32.81 &#9;c6.72,12.39,15.72,23.8,19.72,37.79c6.27,21.95-2.76,42.57-15.75,59.78L772.95,976.82z M817.27,937.97 &#9;c7.93,23.67,4.41,48.15-5.92,70.41c-4.85,10.45-11.77,19.76-19.57,28.17c-5.13,5.53-10.89,10.04-15.76,15.54l-1.6-39.43 &#9;c0.12-0.11,0.24-0.21,0.35-0.34c14.39-16.91,24.94-35.49,25.24-58.14c0.15-11.3-3.7-22.46-8.3-32.59 &#9;c-5.73-12.63-16.32-23.3-20.1-36.69c-0.42-1.49-1.38-2.33-2.49-2.67l-1.39-34.24C780.36,879.35,806.47,905.74,817.27,937.97z"/> <g> 	<path className="st0" d="M1095.93,514.03c0.49-15.32-0.4-51.99-1.68-53.18c-8.98-8.29-20.7-13.43-32.95-18.37 &#9;&#9;c-2.22-5.68-3.85-11.62-5.43-17.38c-1.21-4.43-2.46-9.01-3.98-13.45c0.1-1.25-0.37-2.54-1.29-3.53l-0.38-1.02 &#9;&#9;c-0.75-1.88-33.67,4.37-48.9,4.99c-12.22,0.5-24.72,0.43-36.8,0.36c-11.61-0.06-23.61-0.13-35.22,0.31 &#9;&#9;c-0.72,0.03-1.39,0.19-1.99,0.47c-6.22-3.72-12.34-7.76-18.25-11.68c-7.75-5.13-15.76-10.43-24.11-15.06 &#9;&#9;c-0.85-0.47-1.71-0.69-2.57-0.65c-1.86,0.08-3.54,1.4-4.18,3.25c-9.13,5.68-18.66,11.13-27.87,16.39 &#9;&#9;c-8.91,5.09-18.11,10.35-26.96,15.82c-1.2,0.32-4.25,32.68-7.45,33.06c-2.2,0.58-20.24-31.48-21.19-30.74l0,0 &#9;&#9;c-0.19,0.01-0.38,0.02-0.59,0.06c-31.59,6.23-64.34,7.57-96.01,8.87c-25.13,1.03-51.12,2.09-76.42,5.59 &#9;&#9;c-0.56-0.37-1.21-0.61-1.93-0.73c-12.17-2.03-34.78-12.38-36.53-12.31l-0.1,0.01c-1.45-0.36-2.9,0.01-4.01,0.99 &#9;&#9;c-7.12,2.05-13.73,5.08-19.14,8.78c-0.35,0.11-28.2,3.59-42.16,4.16c-12.71,0.52-51.46-0.21-52.14,2.15 &#9;&#9;c-5.83,3.28-11.1,7.37-16.2,11.33c-4.83,3.75-9.83,7.63-15.27,10.79c-2.28,1.33-13.62,23.34-17.67,33.32 &#9;&#9;c-1.35,0.64-2.32,1.72-2.63,2.93c-0.2,0.8-0.22,2.03,0.85,3.36c10.36,12.79,23.38,23.68,39.81,33.26c-0.03,0.08,5.5,3.14,5.48,3.23 &#9;&#9;c-2.59,8.61-10.19,32.36-9.55,39.77c0.87,19.93,4.52,39.87,8.05,59.15c1.94,10.61,4.67,33.57,4.51,34.17 &#9;&#9;c-0.6,2.36,0.92,4.62,3.61,5.38c2.62,0.74,5.2,2.61,7.89,5.67c-1.66,5.34-8.86,19.52-8.75,21.45c0.11,2,1.5,3.56,3.62,4.06 &#9;&#9;c21.1,5,42.43,4.92,60.52,4.18c6.78-0.28,13.68-0.68,20.36-1.08c6.67-0.39,13.56-0.8,20.32-1.07c15.68-0.64,34.23-0.82,52.92,2.66 &#9;&#9;c0.1,0.02,0.16-0.01,0.3,0.01c0.3,0.04,0.61,0.07,1.08,0.05c0.14,0,0.29-0.03,0.43-0.06l-0.14-0.73l0.35,0.7 &#9;&#9;c0.15-0.02,0.31-0.04,0.49-0.08c11.97-3.12,23.33-8.13,34.32-12.97l0.04-0.02c4.98,3.48,8.1,7.32,9.5,11.71 &#9;&#9;c0.62,1.96,2.37,3.12,4.55,3.03c1.3-0.05,36.16-4.57,62.78-7.63c41.2-4.74,127.07-11.96,129.78-11.91c1.48,0.02,3.01,0,4.53-0.06 &#9;&#9;c12.95-0.53,24.55-4,31.81-9.52c1.28-0.98,21.06-16.09,26.77-18.58c0.08-0.04,0.16-0.08,0.26-0.13 &#9;&#9;c3.99,1.79,34.66,13.22,36.81,12.88c14.58-2.36,29.61-3.97,44.14-5.53c26.89-2.88,54.71-5.86,80.98-13.74 &#9;&#9;c2.09-0.63-1.8-61.83-1.8-61.83c-0.03-0.73-6.73-14.59-8.51-19.35c2.9-2.55,16.66-14.05,16.66-14.05 &#9;&#9;C1099.81,564.98,1095.46,528.9,1095.93,514.03z M1057.01,450.58c7.32,2.94,14.76,6.04,21.39,10.08c-8,1.78-16.6,2.33-25.3,1.72 &#9;&#9;C1053.94,458.31,1055.23,454.33,1057.01,450.58z M904.37,409.48c6.05,4,12.3,8.13,18.67,11.92c1.57,0.93,3.29,0.93,4.69,0.05 &#9;&#9;c0.62,0.22,1.28,0.32,1.98,0.29c11.62-0.44,23.63-0.41,35.24-0.37c12.11,0.04,24.64,0.08,36.91-0.42 &#9;&#9;c14.61-0.59,26.85-1.86,38.14-3.96c-1.06,3.35-2.13,6.69-3.19,10.04c-1.22,0.16-2.4,0.7-3.27,1.53c-15.64,3-32.35,4.74-54.11,5.62 &#9;&#9;c-10.2,0.41-20.6,0.61-30.66,0.79c-9.68,0.18-19.69,0.36-29.53,0.75c-0.04,0-0.09,0-0.13,0.01c-10.67-7.03-19.35-14.77-25.77-23.01 &#9;&#9;c-0.56-0.72-1.27-1.25-2.07-1.54c-0.18-0.09-0.37-0.17-0.58-0.24c-0.69-4.13-1.71-8.28-2.69-12.01 &#9;&#9;C893.56,402.33,899.04,405.96,904.37,409.48z M855.57,413.02c7.44-4.26,15.12-8.67,22.59-13.17c1.48,5.52,2.82,10.95,3.36,16.43 &#9;&#9;c-11.51,10.5-26.58,16.94-41.16,23.18c-2.18,0.93-4.37,1.87-6.54,2.81c-0.72-3.98-1.83-7.91-2.89-11.73 &#9;&#9;c-0.24-0.88-0.49-1.75-0.73-2.64C838.54,422.78,847.2,417.82,855.57,413.02z M560.08,458.21c1.63-5.35,3.31-10.88,5.64-16.05 &#9;&#9;c4.76-3.19,10.22-5.7,16.23-7.47c9.37,4.96,20.36,8.64,32.67,10.95c0.82,1.46,2.4,2.18,4.41,1.89c26.58-3.9,53.92-5.06,80.36-6.18 &#9;&#9;c30.18-1.28,61.39-2.61,91.64-8.01c0.44,5,1.19,10.38,2.36,16.82c-18.44,4.16-38.81,6.57-64.06,7.6 &#9;&#9;c-15.99,0.65-32.31,0.68-48.09,0.71c-15.35,0.03-31.23,0.06-46.55,0.67c-0.47,0.02-0.93,0.1-1.43,0.26 &#9;&#9;c-2.17,0.12-3.85,1.32-4.51,3.22c-1.13,3.29-3.2,6.35-5.2,9.32l-1.78-0.25c-6.38-0.91-12.99-1.85-19.44-1.59 &#9;&#9;c-1.03,0.04-2.05,0.11-3.02,0.22c-3-5.6-8.53-10.58-15.89-14.35c-1.6-1.31-3.7-1.34-5.44-0.02c-5.93,4.5-12.56,7.66-20.23,9.64 &#9;&#9;C558.57,463.14,559.33,460.64,560.08,458.21z M473.37,456.49c0.4-2.9,0.81-5.81,1.18-8.71c16.02,0.63,30.01,0.68,42.74,0.17 &#9;&#9;c13.34-0.54,25.52-1.7,37.19-3.53c-1.32,3.61-2.47,7.32-3.59,10.91c-1.26,4.04-2.56,8.22-4.09,12.25c-2.56,0.29-5.23,0.49-8.14,0.6 &#9;&#9;c-7.07,0.29-14.44,0.04-21.58-0.2c-7.25-0.25-14.74-0.5-22.05-0.2c-9.16,0.37-16.69,1.54-23.57,3.68 &#9;&#9;C471.99,466.44,472.69,461.39,473.37,456.49z M442.88,468.72c4.16-2.71,8.11-5.77,11.93-8.74c3.01-2.34,6.12-4.75,9.32-6.98 &#9;&#9;c-0.18,1.28-0.36,2.55-0.54,3.82c-0.8,5.59-1.62,11.37-2.15,17.1c-10.67,5.73-21.21,11.12-31.37,16.03 &#9;&#9;C433.55,483.09,442.83,469.63,442.88,468.72z M1086.51,516.22c-0.48,15.23-0.96,30.97,1.86,46.3 &#9;&#9;c-8.06,6.83-16.63,14.25-24.83,22.25c-1.18,1.16,10.01,12.41,17.35,18.74l2.18,50.88c-23.78,6.39-100.01,14.56-113.36,16.61 &#9;&#9;c-0.51-0.32-1.1-0.55-1.75-0.68c-12.81-2.59-25.7-6.9-35.37-11.81c-2.07-1.05-4.41-0.58-5.85,1.08c-0.57,0.06-1.12,0.21-1.68,0.44 &#9;&#9;c-5.85,2.56-30.76,19.59-30.75,21.06c-8.44,4.43-19.79,5.29-29.83,6.05c-1.7,0.13-3.35,0.26-4.93,0.39 &#9;&#9;c-7.97,0.7-16.11,1.15-23.98,1.57c-3.54,0.19-17.61,1.07-17.61,1.07c-0.59,0.04-1.19,0.07-1.77,0.12 &#9;&#9;c-21.06,1.63-42.33,4.34-62.89,6.95c-24.86,3.16-50.56,6.43-76.04,7.82c-2.49-4.53-24.64-26.05-24.8-23.8 &#9;&#9;c-5.13,5.51-31.6,22.21-31.64,22.88c-17.45-2.69-35.08-2.41-48.56-1.86c-6.74,0.27-13.61,0.68-20.25,1.07 &#9;&#9;c-6.63,0.39-13.49,0.79-20.22,1.07c-15.86,0.64-34.57,0.82-53.37-2.71c2.36-5.74,4.24-11.68,6.06-17.44l0.87-2.75 &#9;&#9;c0.41-1.29,0.23-2.55-0.52-3.53c-0.92-1.21-2.59-1.91-4.37-1.86c-2.11-2.09-4.25-3.71-6.52-4.95c-1.54-11.2-3.61-22.52-5.62-33.47 &#9;&#9;c-3.7-20.24-7.53-41.16-8.14-62.05c8.59-13.22,17.57-20.64,23.11-28.22c1.31-1.04,2.05-2.64,1.88-4.13 &#9;&#9;c-0.16-1.43-1.08-2.58-2.61-3.25c-24.65-10.7-42.54-22.88-56.21-38.27c13.53-6.34,27.25-13.24,40.79-20.53 &#9;&#9;c1.06,0.45,2.27,0.44,3.51-0.03c7.93-2.99,16.69-4.59,27.58-5.03c7.22-0.29,14.64-0.05,21.81,0.19c7.11,0.23,14.47,0.48,21.57,0.19 &#9;&#9;c16.61-0.68,28.78-4.22,39.36-11.47c5.97,3.53,9.67,7.84,10.98,12.78c0.53,2,10.22,1.12,11.22,1.08 &#9;&#9;c5.18-0.21,10.89,0.65,15.93,1.41c1.44,0.22,2.85,0.43,4.21,0.61c1.8,0.25,3.34-0.31,4.46-1.47c1.49-0.16,7.53-8.09,9.12-11.46 &#9;&#9;c14.74-0.55,76.73-0.78,92.71-1.43c26-1.06,46.98-3.53,65.97-7.77c0.62,0.8,7.15,12,9.21,17.08c3.01,7.43,6.13,15.11,10.31,22.27 &#9;&#9;c1.14,1.95,3.44,2.64,5.62,1.77c2.2-0.11,13.73-34.07,13.87-48.18c3.53-1.6,7.11-3.14,10.68-4.68 &#9;&#9;c15.43-6.66,31.39-13.54,43.64-24.93c7.38,8.33,16.63,15.93,28.24,23.21c1.99,1.25,4.3,0.87,5.74-0.83 &#9;&#9;c8.54-0.3,17.21-0.48,25.6-0.65c9.91-0.21,20.14-0.42,30.2-0.83c21.97-0.89,38.88-2.57,54.67-5.42 &#9;&#9;c2.19,9.19,9.14,32.58,10.89,32.82c14,1.97,27.8,1.27,40.09-2.03C1087.5,484.18,1087,500.47,1086.51,516.22z"/> </g> <g> 	<text transform="matrix(0.9992 -0.041 0.041 0.9992 501.4115 623.6387)" className="st0 st1 st2 st3">DEBT FREE</text> </g> </svg>