<svg version="1.1" id="Layer_1" xmlns="http://www.w3.org/2000/svg" xmlns:xlink="http://www.w3.org/1999/xlink" x="0px" y="0px" style="enable-background:new 0 0 1920 1920;" xml:space="preserve" viewBox="504.38 367.9 911.23 1185.38"> <style type="text/css">  .st0{fill:#F5834F;} </style> <g>  <path className="st0" d="M1305.21,1391.95c-13.24-10.83-22.62-25.34-27.39-41.74c-0.96-3.31-6.07-1.73-5.11,1.57 &#9;&#9;c5.01,17.24,14.96,32.72,28.88,44.1C1304.25,1398.06,1307.89,1394.14,1305.21,1391.95z"/>
  <path className="st0" d="M1317.56,1299.32c1.33,8.67,1.15,17.43,1.84,26.16c0.27,3.43,5.61,3.28,5.34-0.16 &#9;&#9;c-0.69-8.72-0.51-17.49-1.84-26.16C1322.39,1295.8,1317.05,1295.93,1317.56,1299.32z"/>
  <path className="st0" d="M1315.92,1370.68c-0.21,7.58-0.88,15.13-1.08,22.71c-0.1,3.45,5.25,3.27,5.34-0.16 &#9;&#9;c0.21-7.58,0.87-15.13,1.09-22.71C1321.37,1367.06,1316.02,1367.25,1315.92,1370.68z"/>
  <path className="st0" d="M1344.59,1284.16c1.85,17.57,3.32,35.16,2.71,52.84c-0.64,18.38-3.77,38.94-16.69,52.96 &#9;&#9;c-2.33,2.53,1.6,6.16,3.94,3.62c25.58-27.76,18.98-75.39,15.39-109.58C1349.58,1280.59,1344.23,1280.74,1344.59,1284.16z"/>
  <path className="st0" d="M1366.74,1309.66c0.9,17.38-3.25,33.84-7.12,50.62c-0.78,3.36,4.43,4.58,5.2,1.22 &#9;&#9;c3.98-17.24,8.19-34.18,7.26-52C1371.91,1306.06,1366.56,1306.22,1366.74,1309.66z"/>
  <path className="st0" d="M1376.83,1320.23c1.13,7.9,0.51,15.56-1.23,23.33c-0.76,3.37,4.45,4.58,5.2,1.22 &#9;&#9;c1.84-8.19,2.57-16.37,1.37-24.71C1381.69,1316.69,1376.34,1316.82,1376.83,1320.23z"/>
  <path className="st0" d="M1383.53,1263.59c6.92,16.78,12.32,33.58,10.51,51.95c-0.34,3.43,5.01,3.22,5.35-0.16 &#9;&#9;c1.86-18.84-3.64-36.14-10.74-53.37C1387.34,1258.86,1382.21,1260.41,1383.53,1263.59z"/>
  <path className="st0" d="M1381.91,1268.44c-0.99-3.31-6.09-1.73-5.11,1.57c1.37,4.58,2.23,9.27,3.06,13.97c0.6,3.39,5.7,1.78,5.11-1.57 &#9;&#9;C1384.14,1277.71,1383.28,1273.03,1381.91,1268.44z"/>
  <path className="st0" d="M1397.68,1252.27c-0.38-0.81-0.97-1.2-1.6-1.3c-0.14-0.56-0.29-1.11-0.46-1.68c-0.36-1.19-1.44-1.86-2.63-1.89 &#9;&#9;c-1.88-0.05-3.75,0.05-5.61,0.23c-5.4-7.15-11.44-13.8-17.42-20.47c0.09-0.57-0.01-1.15-0.41-1.67 &#9;&#9;c-6.97-9.01-19.35-11.44-32.07-11.31c6.43-10.59,12.27-21.57,18.03-32.48c9.6,8.3,22.1,11.87,32.89,18.33 &#9;&#9;c1.69,1.01,3.21-0.09,3.67-1.55c5.2-3.88,0.74-7.67-4.01-9.42c-11.24-4.13-21.06-11.22-31.43-16.99c-0.09-0.06-0.19-0.08-0.29-0.13 &#9;&#9;c-0.07-0.06-0.15-0.11-0.22-0.16c-1.8-1.49-4.07-0.14-4.48,1.57c-0.18,0.18-0.34,0.38-0.48,0.63 &#9;&#9;c-7.75,13.98-16.01,27.67-24.97,40.88c-7.15,0.74-13.92,1.93-19.36,2.82c-3.74,0.61-7.44,1.35-11.14,2.15 &#9;&#9;c0.62-5.16,1.57-10.41,2.87-14.91c3.56,3.15,9.19,3.89,13.24,1.52c3.2-1.48,5.14-3.81,5.91-6.51c1.4-3.07,1.07-7.01-1.65-9.8 &#9;&#9;c-0.19-0.33-0.39-0.66-0.62-0.99c-0.54-0.79-1.27-1.12-2-1.13c-5.12-3.47-9.51-3.26-13.2-0.69c-0.74-5.2,3.21-11.13,7.19-14.94 &#9;&#9;c0.11-0.08,0.22-0.18,0.33-0.25c0.02,0.16,0.04,0.32,0.06,0.48c1.58,9.39,14.95,15.19,21.6,7.57c5.64-6.47-1.25-14.84-8.16-17.77 &#9;&#9;c-0.96-0.53-2.05-0.94-3.24-1.22c1.49-4.52,12.71-32.62,14.47-36.84c1.44-3.43,3.99-9.09,0.99-12.3c0,0-0.01-0.01-0.01-0.01 &#9;&#9;c-0.04-0.05-0.09-0.11-0.14-0.16c-0.06-0.06-0.12-0.11-0.19-0.16c-0.06-0.05-0.1-0.1-0.16-0.15c-1.18-0.97-2.53-0.72-3.44,0.06 &#9;&#9;c-0.73,0.08-1.41,0.5-1.8,1.43c-3.45,8.21-17.39,39.76-19.4,48.28c-2.21,1.07-4.54,2.77-6.78,4.9c-2.6,2.04-4.76,4.64-6.33,7.67 &#9;&#9;c-3.6,5.61-5.66,11.92-4.09,16.91c0.32,2.05,0.98,4.08,1.85,6.02c-3.47,7.13-5.75,16.52-6.87,25.18c-4.16,1.03-8.3,2.12-12.43,3.3 &#9;&#9;c-13.08,3.73-29.21,7.66-39.27,17.37c-0.71,0.11-1.38,0.52-1.82,1.35c-5.06,9.6-9.87,19.33-14.88,28.95 &#9;&#9;c-3.78,2.51-7.85,4.64-11.71,7.02c-2.53,1.57-5.85,3.36-8.17,5.72c-0.01,0-0.01,0-0.02,0c-2.21-0.19-2.9,1.95-2.23,3.58 &#9;&#9;c-0.03,0.42,0.03,0.81,0.18,1.16c-6.18,56.5,39.34,102.07,91.88,112.63c6.02,1.76,12.24,2.69,18.61,2.55 &#9;&#9;c0.43-0.01,0.79-0.12,1.11-0.27c6.25,0.18,12.53-0.16,18.75-1.06c31.84-4.58,61.36-25.56,77.72-52.93 &#9;&#9;c8.01-13.42,11.95-28.95,11.76-44.53C1415.39,1287.19,1405.93,1269.61,1397.68,1252.27z M1308.43,1193.07 &#9;&#9;c1.55,1.46,2.46,3.56,2.14,4.74c-0.19,0.26-0.38,0.5-0.57,0.73c-0.55,0.3-1.49,0.23-2.94-0.47c-1.51-0.73-2.82-1.77-3.94-2.99 &#9;&#9;C1304.65,1193.32,1306.42,1192.53,1308.43,1193.07z M1323.05,1172.1c1.02,3.97-6.11,1.15-6.32-2.42c-0.02-0.31-0.01-0.62-0.01-0.93 &#9;&#9;C1319.22,1168.73,1321.46,1169.72,1323.05,1172.1z M1381.25,1248.4c-2.92,0.41-5.84,0.83-8.79,0.98c-0.11,0.01-0.21,0.03-0.32,0.05 &#9;&#9;c-0.44-0.81-1.41-1.35-2.42-1.41c-3.37-4.09-6.72-8.2-9.66-12.62c2.1-1.39,4.19-2.83,6.22-4.35 &#9;&#9;C1371.38,1236.73,1376.53,1242.4,1381.25,1248.4z M1295.15,1225.4c2.9-0.64,5.81-1.25,8.73-1.79c5.97-1.11,11.99-1.98,18.04-2.57 &#9;&#9;c-4.06,5.77-8.25,11.45-12.62,17.01c-0.28,0.35-0.44,0.72-0.53,1.09c-4.43,0.94-8.89,1.7-13.37,2.27 &#9;&#9;C1294.7,1239.01,1294.59,1232.7,1295.15,1225.4z M1239.56,1245.25c9.42-8.1,24.19-11.39,35.71-14.79c3.41-1.01,6.84-1.93,10.28-2.8 &#9;&#9;c-0.46,6.21-0.27,11.54,0.56,14.66c-10.61,0.74-21.32,0.46-32.01-0.95c-3.39-0.44-4.63,4.76-1.22,5.21 &#9;&#9;c21.17,2.78,42.26,1.45,62.56-3.58c0.62,0.12,1.27,0,1.86-0.46c12.19-3.16,24.08-7.65,35.53-13.41c3.08-1.55,0.18-6.05-2.87-4.51 &#9;&#9;c-8.66,4.36-17.63,7.94-26.8,10.76c3.73-4.87,7.22-9.92,10.53-15.1c1.3-0.04,2.59-0.06,3.89-0.07c8.07-0.03,19.35,0.42,25.77,6.37 &#9;&#9;c-20.11,15.02-43.91,23.98-68.84,26.39c-10.22,0.99-20.53,1.35-30.79,0.92c-5.63-0.24-21.86-0.29-23.78-7.61 &#9;&#9;c-0.09-0.37-0.25-0.67-0.44-0.92C1239.52,1245.32,1239.54,1245.28,1239.56,1245.25z M1235.64,1249.88 &#9;&#9;c2.99,5.7,11.15,7.3,16.93,8.27c12,2.01,24.53,1.45,36.61,0.62c23.58-1.62,46.31-8.32,66.37-20.51c3.06,4.61,6.58,8.87,10.09,13.14 &#9;&#9;c-4.62,6.17-10.18,11.58-14.63,17.89c-6.53-0.02-12.74,2.01-19.2,2.9c-0.77-0.62-1.85-0.81-2.93-0.07 &#9;&#9;c-8.04,5.51-14.31,13.16-20.83,20.34c-16.52-6.35-37-10.42-53.37-1.97c-4.04-3.16-7.62-6.89-11.77-9.88 &#9;&#9;c-0.05-1.29-0.9-2.47-2.52-2.33c-0.15-0.08-0.3-0.16-0.47-0.22c-5.58-2-11.49-2.84-17.4-2.67 &#9;&#9;C1226.94,1266.91,1231.22,1258.37,1235.64,1249.88z M1210.84,1283.36c1.88-1.15,3.82-2.24,5.73-3.35c0.43,0.65,1.17,1.08,2.21,0.97 &#9;&#9;c2.99-0.31,5.96-0.34,8.91-0.09c-6.9,1.8-13.75,3.88-20.76,4.67C1208.36,1284.75,1209.76,1284.01,1210.84,1283.36z &#9;&#9; M1201.06,1291.24c1.49,0.02,2.96-0.05,4.42-0.17c-1.79,27.51,13.75,54.72,30.8,75.07c6.37,7.61,13.88,15.15,22.23,21.57 &#9;&#9;C1222.68,1369.41,1196.35,1333.09,1201.06,1291.24z M1399.14,1348.91c-15.19,26.9-45.17,46.07-75.5,50.43 &#9;&#9;c-3.96,0.57-7.95,0.89-11.94,0.97c-0.32-0.44-0.81-0.79-1.48-0.96c-24.98-6.13-43.43-27.3-55.45-49c-1.67-3.01-6.17-0.13-4.51,2.88 &#9;&#9;c10.27,18.56,25.15,36.46,44.41,46.04c-0.35-0.05-0.7-0.11-1.05-0.16c-21.64-4.53-40.55-21.18-54.26-37.55 &#9;&#9;c-16.13-19.26-30.34-45.3-28.47-71.19c9.19-1.6,18.1-4.97,27.4-6.43c4.52,2.81,8.14,6.8,12.27,10.15c-0.02,0.3,0.04,0.61,0.12,0.9 &#9;&#9;c-1.61,10.5-0.65,21.03,1.76,31.36c0.79,3.36,5.89,1.76,5.11-1.57c-2.21-9.47-3.13-19.2-1.62-28.83c0.64-0.37,1.28-0.74,1.94-1.06 &#9;&#9;c0.64,6.19,1.12,12.38,2.39,18.49c0.7,3.38,5.8,1.77,5.11-1.57c-1.29-6.25-1.66-12.61-2.35-18.94c13.86-4.27,30.13-0.51,43.19,4.59 &#9;&#9;c0.89,1.27,2.79,1.89,4.16,0.41c5.49-5.92,10.71-12.43,16.9-17.71c5.6,29.43,4.74,59.77,3.89,89.57c-0.1,3.46,5.25,3.27,5.35-0.16 &#9;&#9;c0.87-30.69,1.61-61.78-4.33-92.05c7.28-1.03,14.31-3.47,21.76-2.73c2.21,0.22,2.9-1.92,2.21-3.56 &#9;&#9;c4.16-5.76,9.18-10.83,13.51-16.45c0.54,0.01,1.07-0.13,1.54-0.37c0.38,0.23,0.85,0.36,1.42,0.33c4.29-0.22,8.51-0.98,12.75-1.5 &#9;&#9;c0.87,0.36,1.86,0.21,2.62-0.27c1.01-0.09,2.02-0.16,3.03-0.19c0.19,0.86,0.34,1.71,0.38,2.68c0.09,1.85,1.67,2.65,3.1,2.47 &#9;&#9;c7.22,15.07,14.45,29.86,15.68,46.82C1411.32,1320.25,1406.71,1335.51,1399.14,1348.91z"/>
 </g> <path className="st0" d="M858.11,1473.36c-3.95-21.06-11.97-42.28-25.15-59.38c-0.32-2.91,0.02-5.89-0.44-8.8 &#9;c-0.6-3.77-2.61-7.33-6.1-9.12c-4.06-2.08-7.27,0.09-9.6,3.23c-0.12-0.06-0.76,0.52-0.95,0.88c-12.04-10.58-22.64-22.74-36.05-31.6 &#9;c0.46-1.39,0.85-2.77,1.15-4.16c0.43-5.01,0.82-10.02,1.31-15.02c-0.12-0.13-0.24-0.26-0.36-0.39c-0.41-7.07-1.6-14.18-2.13-21.32 &#9;c0.01-1.52-0.07-3.03-0.24-4.52c0-0.09,0-0.17-0.01-0.26c0-0.16-0.03-0.31-0.05-0.46c-0.81-6.02-3.2-11.67-7.49-16.43 &#9;c-0.08-0.04-0.16-0.07-0.24-0.11c-0.08-0.08-0.14-0.16-0.23-0.23c-19.86-16.74-45.36-10.05-68.05-1.91 &#9;c-0.13-0.08-0.24-0.17-0.39-0.24c-26.88-13.33-58.65,0.95-69.8,28.08c-0.11,0.26-0.18,0.51-0.22,0.75 &#9;c-7.34,3.47-14.4,7.4-20.93,12.24c-0.23-1.12-0.5-2.23-0.7-3.35l-0.04,0.02c-0.07-0.24-0.02-0.52-0.18-0.71 &#9;c-6.84-8.41-17.48,5.15-27.72,25.2c-28.28,20.45-48.88,49.17-49.61,85.29c-0.02,0.99,0.31,1.76,0.82,2.32 &#9;c2.56,19.38,18.4,36.48,36.73,42.63c24.47,8.22,52.19,1.79,75.86-8.09c1.36,0.29,2.67-0.41,3.4-1.47c2.34-1.02,4.65-2.07,6.88-3.14 &#9;c11.86-5.68,23.06-12.78,33.73-20.66c9.97,17.52,21.3,34.44,35.23,48.81c19.76,20.39,46.73,40.91,76.38,41.82 &#9;c21.51,0.65,44.88-12.45,51.91-33.33c0.16-0.48,0.21-0.93,0.18-1.36C861.43,1504.9,860.75,1487.38,858.11,1473.36z M820.37,1407.75 &#9;c0.12-0.47,0.27-0.93,0.42-1.39c0.5-1.07,1.06-2.1,1.72-3.08c1.07-1.57,1.86-0.46,2.58,1.23c0.04,0.1,0.06,0.21,0.1,0.31 &#9;c0.16,1.72,0.17,3.45,0.32,5.26c0.76,8.99,0.12,17.64,0.77,26.65c0.89,12.41,2.09,24.79,3.29,37.18 &#9;c-1.89-5.84-3.69-11.72-5.24-17.65C820.34,1441.09,816.07,1423.3,820.37,1407.75z M830.72,1497.96c-0.2-0.15-0.41-0.3-0.61-0.46 &#9;c-3.21-3.29-18.27-17.09-38.13-27.23c-16.6-8.48-35.47-10.4-53.94-10.68c-2.96-4.78-6.2-9.42-8.76-14.38 &#9;c30.55-4.89,65.61,6.69,88.55,27.22c3.91,5.01,7.29,10.38,9.89,16.14C828.74,1491.7,829.74,1494.83,830.72,1497.96z M813.25,1406.35 &#9;c-0.17,0.48-1.66,24.45,0.54,34.64c1.46,6.75,4.65,17.72,6.6,24.32c-0.19-0.16-0.39-0.32-0.58-0.48c-3.04-3.56-5.15-4.05-8.96-6.79 &#9;c-24.27-16.44-56.02-24.45-84.39-19.51c-0.29-0.87-0.59-1.74-0.81-2.64c-0.15-0.63-0.43-1.12-0.78-1.5 &#9;c4.26-3.93,8.74-8.12,10.68-10.05c0.06,0.01,0.12,0.02,0.19,0.03c2.02-1.87,32.15-37.66,39.57-51.15 &#9;C789.6,1382.19,800.51,1395.41,813.25,1406.35z M754.84,1393.33c-2.95,3.98-6.04,7.88-9.26,11.7c-1.93-4.15-3.71-8.36-5.73-12.47 &#9;c-0.1-0.2-0.21-0.36-0.33-0.52c0.66-0.72,1.32-1.47,2-2.15c2.62-2.68,5.24-5.35,7.82-8.04c1.5,3.17,2.94,6.36,4.02,9.72 &#9;C753.64,1392.46,754.19,1393.03,754.84,1393.33z M754.01,1376.86c2.93-3.19,5.79-6.44,8.51-9.81c0.96,2.85,1.93,5.7,2.89,8.56 &#9;c0.15,0.42,0.35,0.76,0.59,1.04c-2.27,3.78-4.66,7.5-7.2,11.16c-1.33-3.72-3.03-7.27-4.73-10.84 &#9;C754.06,1376.93,754.03,1376.9,754.01,1376.86z M740.98,1410.21c0.01,0.02,0.03,0.04,0.03,0.06c-3.31,3.71-6.72,7.37-10.25,10.92 &#9;c-2.47-3.96-4.65-8.1-6.75-12.26c3.85-3.69,7.4-7.81,10.92-11.83C736.99,1401.45,738.86,1405.89,740.98,1410.21z M726.1,1425.77 &#9;c-4.17,4-8.45,7.89-12.82,11.65c-0.07-0.1-0.15-0.19-0.22-0.28c-0.7-0.92-6.84-9.62-7.49-10.57c-0.15-0.21-0.3-0.43-0.45-0.65 &#9;c5.32-5.07,10.39-9.9,13.18-12.51c0.03,0.1,0.07,0.2,0.11,0.3c0.22-0.16,0.45-0.3,0.66-0.47 &#9;C721.25,1417.51,723.52,1421.73,726.1,1425.77z M775.41,1360.22c-0.52,0.28-0.98,0.73-1.31,1.42c-1.25,2.64-2.6,5.26-4,7.84 &#9;l-2.89-8.53c1.27-1.75,2.51-3.54,3.7-5.37c1.82-2.81,3.38-5.82,4.7-8.91C776.02,1351.25,776.09,1355.78,775.41,1360.22z &#9; M693.79,1307.33c-0.83,0.31-1.66,0.62-2.48,0.92c-16.34,6.06-32.36,13.05-48.45,19.75C653.05,1310.6,674.51,1301.24,693.79,1307.33 &#9;z M587.88,1376.82c3.74-8.22,6.63-20.14,12.41-27.55c1.99-2.55,6.49-1.53,6.21,1.18c-1.36,16.08-12.43,34.32-21.42,47.16 &#9;c-3.53,5.03-7.25,9.91-11.05,14.74C579.45,1401.14,582.72,1388.15,587.88,1376.82z M629.4,1399.08c19.32-3.56,46.02-5.2,64.75,4.76 &#9;c-6.81,5.31-13.41,10.89-20.27,16.14c-9.71-3.23-19.31-6.65-29.63-7.98c-14.93-1.93-29.9,1.54-43.96,6.34 &#9;c-7.81,2.67-15.35,6.12-22.86,9.51c-4.26,1.92-8.55,4.89-13.03,6.88c2.07-2.67,4.15-5.34,6.25-7.99 &#9;C585.98,1411.19,608.23,1402.99,629.4,1399.08z M549,1471.84c5.66,4.5,12.5,7.59,19.78,9.58c0,0.01,0,0.02,0.01,0.03 &#9;c0.84,2.14,1.22,4.42,1.46,6.71C561.86,1484.51,554.35,1478.94,549,1471.84z M576.9,1490.61c-0.21-2.55-0.47-5.13-1.02-7.64 &#9;c4.82,0.84,9.72,1.31,14.53,1.4c0.81,2.86,1.44,5.76,2.05,8.68C587.25,1492.97,581.98,1492.13,576.9,1490.61z M594.56,1478.13 &#9;c-1.02-0.71-2.42-0.61-3.49,0.04c-19.35-0.16-40.75-6.49-48-24.43c-0.91-2.25-1.49-4.55-1.85-6.89 &#9;c1.82-27.01,15.75-49.39,35.46-66.69c-7.92,17.87-14.98,37.68-18.97,51.43c-0.16,0.54-0.33,1-0.32,1.46 &#9;c-0.7,1.03-1.41,2.06-2.06,3.13c-0.12,0.21-0.22,0.42-0.28,0.63c-3.81,0.13-3.29,6.21,0.7,6.36c8.64,0.32,16.23-5.84,23.76-9.27 &#9;c9.65-4.4,19.38-8.5,29.5-11.69c20.69-6.53,39.15-3.84,58.72,2.3c-0.31,0.22-0.61,0.45-0.92,0.66c-3.73,2.58-0.2,8.73,3.57,6.12 &#9;c13.34-9.23,25.08-20.55,38.6-29.52c3.79-2.51,0.25-8.66-3.57-6.12c-1.83,1.22-3.63,2.48-5.41,3.78 &#9;c-19.72-12.32-50.4-10.14-71.02-6.73c-14.91,2.47-30.13,7.29-43.49,14.95c4.18-5.57,8.22-11.24,11.97-17.14 &#9;c6.46-10.14,13.8-23.93,14.93-37.17c19.14-16.25,45.56-24.15,68.51-33.45c24.13-9.78,62.25-28.94,85.65-9.22 &#9;c0.51,0.43,1.05,0.67,1.59,0.79c10.12,13.44,2.8,34.07-8.21,48.84c-7.49,10.04-16.74,18.77-25.48,27.7 &#9;c-5.88,6-11.23,13.1-17.7,18.63c-0.05-0.06-0.1-0.12-0.15-0.18c-23.59,19.87-53.91,56.63-107.89,70.11 &#9;C604.43,1477.63,599.58,1477.97,594.56,1478.13z M598.92,1492.91c-0.6-2.89-1.21-5.78-1.94-8.64c3.11-0.14,6.15-0.41,9.04-0.8 &#9;c2.93-0.4,5.82-0.92,8.69-1.56c0.31,2.99,0.79,5.97,1.21,8.94C610.29,1491.91,604.61,1492.62,598.92,1492.91z M622.18,1489.53 &#9;c-0.44-2.97-0.91-5.94-1.19-8.91c-0.01-0.1-0.04-0.19-0.05-0.29c6.17-1.73,12.21-3.96,18.11-6.59c0.76,3.16,1.82,6.57,3.49,9.41 &#9;C635.91,1485.76,629.1,1487.9,622.18,1489.53z M648.52,1480.63c-1.92-2.67-2.96-6.64-3.61-9.66c4.48-2.23,8.87-4.7,13.18-7.31 &#9;c2.18,2.9,3.9,6.1,5.65,9.28C658.81,1475.75,653.73,1478.33,648.52,1480.63z M669.4,1469.59c-0.06,0.04-0.13,0.08-0.2,0.12 &#9;c-1.77-3.22-3.51-6.48-5.69-9.44c5.95-3.86,11.73-8,17.32-12.28c1.49,3.65,3.14,7.25,5.18,10.62 &#9;C680.49,1462.46,674.93,1466.14,669.4,1469.59z M691.22,1454.87c-2.07-3.48-3.66-7.23-5.15-10.99c1.11-0.89,7.41-6.86,14.33-13.45 &#9;c2.78,4.06,6.61,9.53,7.99,11.11C702.76,1446.2,697.03,1450.65,691.22,1454.87z M703.44,1470.83c-2.52-3.86-5.01-7.76-7.4-11.76 &#9;c3.31-2.56,6.58-5.18,9.8-7.85c2.22,4.01,4.52,8.05,6.92,12.08c-1.81,1.11-3.43,2.53-5.04,3.91c-1.23,1.06-2.45,2.12-3.7,3.16 &#9;C703.83,1470.53,703.64,1470.68,703.44,1470.83z M718.95,1492.75c-4.04-5.28-8.01-10.76-11.87-16.43c3.2-2.3,5.88-5.93,8.95-7.62 &#9;c3.49,5.63,7.19,11.19,11.1,16.6C724.07,1487.37,721.76,1490.39,718.95,1492.75z M722.87,1497.77c2.76-2.37,5.04-5.32,8.1-7.34 &#9;c3.81,4.95,7.86,9.68,12.11,14.19c-2.38,2.56-4.17,5.52-6.05,8.47C731.98,1508.26,727.24,1503.13,722.87,1497.77z M741.75,1517.41 &#9;c1.76-2.87,3.43-5.92,5.76-8.3c4.43,4.32,9.11,8.33,14.04,11.97c-2.08,2.3-3.97,4.75-5.9,7.18 &#9;C750.81,1524.93,746.16,1521.3,741.75,1517.41z M780.63,1541.77c-6.81-2.74-13.38-6.09-19.64-10c1.86-2.42,3.71-4.85,5.81-7.05 &#9;c2.61,1.71,5.3,3.31,8.06,4.78c2.92,1.55,6.05,3.02,9.34,4.37C782.85,1536.44,781.65,1539.07,780.63,1541.77z M805.09,1546.41 &#9;c-6.27,0.18-12.58-0.63-18.48-2.43c1.04-2.69,2.27-5.3,3.63-7.85c5.32,1.79,10.9,3.19,16.51,3.97 &#9;C806.36,1542.23,805.76,1544.33,805.09,1546.41z M811.93,1545.82c0.51-1.69,0.93-3.39,1.2-5.12c6.63,0.33,13.18-0.3,19.25-2.3 &#9;C826.31,1542.29,819.25,1544.75,811.93,1545.82z M844.22,1523.47c-17.24,18.95-50.69,10.2-69.46-1.36 &#9;c-26.88-16.55-46.03-43.15-61.36-70.34c0.11,0.01,0.21,0.02,0.32,0.03c-1.52-3.66-1.75-7.73,2.17-9.26c0.66-0.58,1.89-1.7,3.43-3.1 &#9;c3.07,10.38,10.02,18.7,15.19,28.1c1.66,3.01,5.52,1.74,6.41-0.78c18.96,0.6,32.64,1.02,49.81,9.64 &#9;c13.33,6.69,28.64,20.39,39.52,29.68c1.76,1.31,3.65,2.38,5.76,3.08c0.53,0.18,1.04,0.21,1.51,0.14c3.32,0.2,4.53-5.09,1.25-6.84 &#9;c-0.23-1.14-0.51-2.25-0.78-3.37c0.16-0.43,0.24-0.92,0.2-1.48c-2.11-24.43-3.82-48.91-5.76-73.35 &#9;c9.04,13.77,15.29,29.86,18.54,45.79C854.38,1486.78,856.79,1509.67,844.22,1523.47z"/>
 <g>  <path className="st0" d="M575.56,477.25c0.19,0.41,1.24,1.7,1.51,1.96c17.86,33.67,64.53,21.64,68.14-14.08 &#9;&#9;c2.27-22.42-22.06-42.6-43.6-37.97C578.33,432.17,565.23,455.34,575.56,477.25z M608.63,433.39c20.28-0.43,33.63,21.13,28.34,39.33 &#9;&#9;c-7.73,26.59-49.61,24.11-56.52-0.83c-0.27-0.96-0.85-1.83-0.87-2.99C574.62,450.67,589.38,433.8,608.63,433.39z"/>
  <path className="st0" d="M576.09,431.14c2.94,3.24,7.71-1.56,4.78-4.78c-18.29-20.13-38.13-38.73-57.79-57.5 &#9;&#9;c-3.15-3.01-7.94,1.77-4.78,4.78C537.96,392.42,557.79,411.01,576.09,431.14z"/>
  <path className="st0" d="M594.67,418.38c1.64,3.97,8.19,2.23,6.52-1.8c-5.54-13.42-9.71-27.3-12.97-41.44c-0.98-4.25-7.5-2.45-6.52,1.8 &#9;&#9;C584.95,391.08,589.13,404.96,594.67,418.38z"/>
  <path className="st0" d="M623.02,418.61c-0.08-10.76,2.05-21.37,1.97-32.13c-0.03-4.36-6.8-4.36-6.77,0 &#9;&#9;c0.08,10.76-2.05,21.37-1.97,32.13C616.28,422.97,623.05,422.97,623.02,418.61z"/>
  <path className="st0" d="M640.35,429.45c4.94-5.45,9.44-11.69,12.93-18.16c2.07-3.84-3.77-7.25-5.84-3.41 &#9;&#9;c-3.23,5.98-7.31,11.75-11.87,16.79C632.65,427.9,637.42,432.69,640.35,429.45z"/>
  <path className="st0" d="M710.12,424.52c-0.79,0-1.43,0.23-1.93,0.59c-8.66,3.55-17.71,5.44-26.68,8.03 &#9;&#9;c-10.69,3.09-21.13,6.73-32.05,8.98c-4.27,0.88-2.46,7.4,1.8,6.52c9.53-1.96,18.76-4.87,28.04-7.76 &#9;&#9;c10.39-3.24,21.09-5.22,31.16-9.43c0.17-0.07,0.3-0.16,0.45-0.24C714.46,430.45,714.2,424.52,710.12,424.52z"/>
  <path className="st0" d="M540.48,435.64c-4.06-1.61-5.8,4.94-1.8,6.52c7.79,3.09,15.45,6.5,23.15,9.81c3.96,1.7,7.41-4.12,3.41-5.84 &#9;&#9;C557.01,442.59,548.81,438.94,540.48,435.64z"/>
  <path className="st0" d="M559.82,465.52c-17.56,3.68-35.24,6.69-52.99,9.3c-4.3,0.63-2.47,7.15,1.8,6.52 &#9;&#9;c17.75-2.61,35.43-5.62,52.99-9.3C565.89,471.15,564.08,464.63,559.82,465.52z"/>
  <path className="st0" d="M569.44,485.31c-9.49,6.89-18.48,14.42-27.46,21.95c-3.35,2.81,1.47,7.57,4.78,4.78 &#9;&#9;c8.54-7.16,17.07-14.34,26.09-20.89C576.35,488.61,572.98,482.74,569.44,485.31z"/>
  <path className="st0" d="M584.3,503.15c-11.89,20.72-24.73,40.83-33.6,63.1c-1.62,4.06,4.93,5.8,6.52,1.8 &#9;&#9;c8.64-21.7,21.34-41.31,32.92-61.49C592.31,502.78,586.47,499.37,584.3,503.15z"/>
  <path className="st0" d="M604.41,510.5c1.3,12.56,1.21,25.18,1.97,37.77c0.26,4.33,7.03,4.36,6.77,0c-0.76-12.59-0.68-25.22-1.97-37.77 &#9;&#9;C610.73,506.21,603.96,506.16,604.41,510.5z"/>
  <path className="st0" d="M630.73,504.85c-2.42-3.6-8.28-0.22-5.84,3.41c11.6,17.26,19.36,36.52,28.19,55.25 &#9;&#9;c1.86,3.94,7.69,0.51,5.84-3.41C650.09,541.36,642.34,522.1,630.73,504.85z"/>
  <path className="st0" d="M673.53,504.98c-8.9-3.5-16.88-8.9-25.69-12.63c-3.97-1.68-7.42,4.15-3.41,5.84 &#9;&#9;c9.35,3.95,17.85,9.59,27.31,13.31C675.79,513.1,677.54,506.56,673.53,504.98z"/>
  <path className="st0" d="M706.79,479.05c-16.44-2.89-32.82-5.96-48.77-10.99c-4.17-1.32-5.94,5.21-1.8,6.52 &#9;&#9;c15.94,5.04,32.33,8.1,48.77,10.99C709.26,486.32,711.08,479.8,706.79,479.05z"/>
 </g> <path className="st0" d="M1200.94,806.35c2.5,1.03,4.25-2.22,3.22-4.19c-11.14-21.3-35.58-44.94-61.52-34.88 &#9;c-16.65,6.46-24.98,24.07-31.96,41.07c1.71-31.23,11.88-71.49,25.45-99.32c0.97-1.99-0.66-5.19-3.22-4.19 &#9;c-41.22,16.13-53.39,74.26-38.74,112.18c-30.05-17.8-71.94-2.3-78.95,35.79c-0.53,2.87,2.53,4.66,4.76,2.78 &#9;c20.31-17.15,45.45-28.26,71.5-23.57c-13.88,1.65-28.64,2.99-37.61,14.83c-10.33,13.64-13.6,35.76-7.62,51.84 &#9;c1.13,3.04,5.61,2.2,5.68-0.45c0.18-0.23,0.34-0.5,0.45-0.81c8.21-22.64,22.88-41.2,42.49-54.29c-8.98,19.3-15.84,41.54-4.26,60.52 &#9;c0.06,1.84,1.8,3.59,3.74,2.69c0.98-0.15,1.88-0.76,2.31-1.6c10.93-8.62,15.77-24.59,16.49-40.51c8.41,28.8,15.93,57.74,21.86,86.79 &#9;c-0.21,0.08-0.41,0.17-0.63,0.25c-0.48,0.17-0.86,0.43-1.15,0.74c-0.37,0.17-0.74,0.34-1.12,0.5c-3.37,1.45-0.46,6.36,2.88,4.93 &#9;c0.4-0.17,0.8-0.36,1.2-0.54c0.17,0.84,0.34,1.68,0.51,2.52c-8.68,17.52-19.58,33.43-30.6,49.55 &#9;c-11.83,17.3-21.59,36.04-35.72,51.67c-0.14,0.16-0.26,0.32-0.36,0.49c-2.63,0.44-5.26,0.88-7.88,1.31 &#9;c-0.52,0.09-0.92,0.28-1.24,0.54c-0.48,0.23-0.88,0.59-1.1,1.09c-1.61,3.71-2.53,7.28-1.88,11.33c0,1.43,0.92,2.83,2.76,2.78 &#9;c0.02,0,0.04,0,0.07,0c-6.79,10.73-17.43,20.44-28.11,28.48c-20.82,5.58-48.04-3.12-66.54-10.99c-22.81-9.7-42.5-25.01-61.47-40.11 &#9;c1.14-0.91,2.12-1.7,2.87-2.34c1.02-0.87,1.13-1.95,0.72-2.86c1.64-6.17-5.12-9.94-10.73-9.69c-0.2-0.02-0.41,0-0.62,0.04 &#9;c-0.34,0.03-0.68,0.08-1.01,0.14c-1.01,0.2-1.6,0.78-1.87,1.49c-0.03,0.02-0.06,0.04-0.09,0.06c-13.42-8.53-23.22-21.43-32.95-33.77 &#9;c-10.47-13.29-21.59-26.23-27.88-42.04c0.91,0.13,1.83,0.25,2.76,0.34c3.66,0.35,3.63-5.36,0-5.7c-1.05-0.1-2.1-0.25-3.13-0.42 &#9;c0.27-1.37,0.55-2.74,0.83-4.1c1.54,0.39,3.11,0.68,4.68,0.88c3.64,0.46,3.6-5.25,0-5.7c-0.14-0.02-0.28-0.05-0.42-0.07 &#9;c-0.25-0.14-0.53-0.25-0.88-0.31c-0.76-0.13-1.5-0.28-2.24-0.46c3.2-15.39,6.79-30.68,10.86-45.79c11.58-43,28.45-84.2,46.97-124.63 &#9;c12.89-28.14,28.46-61.43,53.19-82.12c-4.51,10.67-8.78,21.43-11.93,32.62c-4.14,14.7-4.54,29.74-4.52,44.9 &#9;c0.03,27.95,2.46,59.55,19.64,82.79c1.15,1.56,3.9,2.12,4.92,0c13.16-27.17,19.97-56.25,20.23-86.44 &#9;c0.13-14.92-1.79-29.82-4.76-44.42c-1.88-9.24-3.88-19.27-6.84-28.69c44.02,14.51,70.31,59.64,62.57,105.8 &#9;c-0.46,2.76,3.52,4.47,5.11,2.09c16.67-25.21,34.54-59.72,22.05-90.2c-5.67-13.84-18.04-21.09-32.06-24.03 &#9;c-17.31-3.64-35.82-5.01-53.64-5.64c18.35-12.32,35.28-18.32,57.13-17.71c17.1,0.48,57.01,12.37,77.92,12.38 &#9;c3.27,0,5.11-3.64,2.2-5.21c-27.37-14.75-56.79-55.58-91.24-47.1c-23.55,5.8-34.04,19.37-47.78,38.36 &#9;c4.63-21.8,3.41-46.21-10.29-63.76c-14.9-19.08-39.02-32.01-63.58-28.07c-2.37,0.38-2.86,4.23-0.68,5.21 &#9;c28.29,12.76,40.16,41.75,50.87,70.13c-12.04-14.67-28.76-24.48-49.68-25.14c-14.25-0.45-30.06,4.09-43.58,8.24 &#9;c-13.34,4.09-25.24,11.48-31.82,24.1c-1.34,2.58,1.33,5.22,3.9,3.9c20.58-10.59,47.37-13.51,70.03-7.77 &#9;c18.97,4.81,40.4,14.71,55.6,28.25c-33.95-4.1-78.11-3.13-101.54,23.98c-1.2,1.39-1.08,3.47,0.58,4.48 &#9;c16.7,10.12,37.46,8.8,55.84,4.87c7.16-1.53,14.48-3.7,21.58-6.53c-19.41,20.71-34.2,47.12-48.57,70.15 &#9;c-25.68,41.17-46.16,85.47-62.56,131.08c-2.33,6.49-4.55,13-6.71,19.51c-2.47-0.72-5.12,2.54-2.84,4.73c0.33,0.32,0.67,0.64,1,0.96 &#9;c-0.49,1.52-0.99,3.04-1.48,4.57c-2.36-1.94-6.48,0.69-4.41,3.4c0.78,1.02,1.59,2,2.42,2.96c-23.43,76.26-35.01,154.31-36.2,234.67 &#9;c-0.06,4.01,5.64,4.01,5.7,0c1.19-78.91,12.64-154.92,35.12-229.86c6.34,5.93,13.8,10.36,22.1,12.84c-0.03,0.15-0.08,0.28-0.08,0.45 &#9;c-0.03,1.14-0.04,2.28-0.06,3.43c-4.88,26.54-8.62,53.3-11.7,79.96c-5.02,43.38-7.38,78.82-2.99,122.29 &#9;c0.76,7.53,6.34,6.53,5.61-0.73c-4.23-42.07-1.84-76.05,2.69-118.06c1.94-17.95,4.29-35.95,7.1-53.88 &#9;c1.79,27.25,6.86,54.81,16.51,79.58c0.01,0.02,0.02,0.04,0.03,0.06c-0.21,0.16-0.42,0.31-0.63,0.46c-1.18,0.07-2.09,0.94-2.57,2.08 &#9;c-2.9,6.88,3.31,17.16,11.15,12.73c0.26-0.14,0.46-0.31,0.64-0.49c0.85-0.41,1.88-0.98,3.04-1.66c2.01,2.17,4.08,4.23,6.21,6.22 &#9;c33.63,36.8,81.04,60.06,131.64,54.92c27.41-2.79,53.4-13.14,77.1-26.79c23.75-13.68,48.84-34.36,62.81-57.69 &#9;c0.01-0.02,0.02-0.04,0.03-0.06c2.26-0.49,4.52-1.01,6.75-1.62c1.4-0.38,2-1.48,2.01-2.59c2.24-2.92,3.35-7.17,1.2-10.39 &#9;c-0.17-1.24-1.06-2.29-2.69-2.12c-1.76,0.18-3.51,0.38-5.27,0.58c3.45-11.92,5.77-22.4,7.5-35.11c0.9-6.65,1.35-12.79,1.57-18.54 &#9;c7.52,55.33,7.75,111.05-4.62,167c-1.89,8.56,3.9,8.93,5.89-0.21c14.62-67.23,11.37-134.23-0.88-200.54c3.5-1.32,6.73-3.18,9.7-5.43 &#9;c15.64,68.05,18.37,139.31,18.74,209.78c0.04,7.23,5.74,6.91,5.7-0.47c-0.4-71.73-3.3-144.29-19.57-213.48 &#9;c0.68-0.65,1.34-1.31,1.99-1.98c2.39-2.49-1.02-6.2-3.55-4.44c-0.3-1.2-0.6-2.4-0.9-3.6c0.87-0.79,1.72-1.59,2.56-2.41 &#9;c0.71-0.7,0.92-1.51,0.82-2.26c1.95-2.98-2.9-5.73-4.98-2.78c-0.08,0.12-0.19,0.22-0.27,0.34c-8.1-29.92-18.89-59.13-33.32-87.3 &#9;c20.86,16.86,47.32,25.09,75.04,21.57c0.58-0.07,1.05-0.29,1.45-0.59c1.63,3.01,6.3,0.18,4.81-3.06 &#9;c-14.63-31.92-52.88-50.17-87.11-44.13C1134.26,796.01,1169.72,793.46,1200.94,806.35z M963.71,729.46 &#9;c3.09,14.09,4.44,28.49,4.56,42.9c0.23,27.4-6.12,54.44-17.45,79.29c-13.52-21.3-15.52-48.28-15.91-72.92 &#9;c-0.23-14.47,0.19-28.78,3.48-42.93c3.21-13.82,8.86-26.98,14.51-39.99c0.38,0.59,0.97,1.06,1.81,1.26 &#9;c0.36,0.09,0.71,0.19,1.06,0.28C959.39,707.66,961.45,719.15,963.71,729.46z M1006.36,696.83c17.21,1.73,32.36,5.55,40.5,22.37 &#9;c11.22,23.17-1.8,52.55-14.99,74.42c2.17-45.77-26.69-87.73-71.26-100.84C976,693.32,991.01,695.29,1006.36,696.83z M1013.91,635.13 &#9;c28.31-7.98,55.03,26.82,79.69,41.34c-22.81-0.48-52.97-15.46-72.93-13.09c-24.45,2.9-40.3,6.85-60.53,21.39 &#9;C975.06,661.36,986.03,643,1013.91,635.13z M901.53,581.1c19.73,0.63,38.46,12.88,49.81,28.65c13.21,18.36,11.71,44.87,5.33,66.22 &#9;C941.97,643.08,933.21,601.19,901.53,581.1z M891.29,649.33c-19.8-6.28-44.63-3.64-64.58,3.99c14.06-14.86,39.89-19.26,58.99-21.08 &#9;c31.61-3.02,54.7,20.45,64.99,47.99C934.42,665.08,912.06,655.92,891.29,649.33z M903.69,709.7c-16.82,4.63-37.13,6.7-53.26-1.35 &#9;c23.18-23.37,64.71-23.48,95.91-19.46c-0.61,0.52-1.27,0.99-1.89,1.5c-2.32,1.55-4.58,3.18-6.78,4.9 &#9;C927.29,701.96,915.4,706.48,903.69,709.7z M1127.86,713.42c-13.68,31.5-22.94,75.66-23.4,109.96c-0.17,0.38-0.33,0.75-0.5,1.12 &#9;c-0.08-0.08-0.17-0.16-0.25-0.24C1086.3,790.93,1092.61,732.55,1127.86,713.42z M1049.64,889.01c-2.24-13.98,1.36-30.57,10.42-40.6 &#9;c8.06-8.94,21.18-9.83,33.14-11.03C1073.74,849.93,1058.88,867.63,1049.64,889.01z M1023.01,845.98 &#9;c11.49-31.44,51.13-40.73,76.12-18.17c0.03,0.05,0.05,0.1,0.08,0.15C1071.95,820.29,1045.19,829.56,1023.01,845.98z M1094.57,899.09 &#9;c-10.46-19.57-0.19-42.76,9.24-61.36c0.24-0.13,0.48-0.26,0.71-0.39C1109.71,855.68,1109.21,886.05,1094.57,899.09z &#9; M1107.16,1017.55c9.32-14.4,19.23-28.13,27.77-42.87c-6.75,28.51-16.74,56.57-33.34,80.85c-0.11,0.16-0.19,0.32-0.26,0.47 &#9;c-7.56,1.18-15.11,2.42-22.66,3.68C1089.46,1046.57,1097.93,1031.8,1107.16,1017.55z M853.02,1007.85 &#9;c10.86,13.53,21.25,28.05,35.67,37.96c-5.2,3.43-10.37,6.9-15.52,10.39c-17.92-21.7-31.36-46.57-38.47-73.68 &#9;C840.02,991.44,846.47,999.69,853.02,1007.85z M814.05,918.73c15.33-44.42,35.11-87.27,59.15-127.64 &#9;c10.78-18.1,22.23-36.03,34.35-53.27c0.23-0.32,0.46-0.65,0.69-0.97c-6.46,11.21-12.13,22.78-17.37,33.73 &#9;c-19.48,40.72-36.56,82.89-48.99,126.3c-4.93,17.23-9.12,34.71-12.77,52.33c-2.38-0.99-4.65-2.24-6.84-3.62 &#9;c-4.35-2.89-8.21-6.5-11.1-10.37c-0.6-0.81-1.42-1.16-2.24-1.2C810.59,928.92,812.29,923.82,814.05,918.73z M827.04,959.5 &#9;c-8.32-2.47-15.82-7.2-21.86-13.49c0.55-1.77,1.1-3.55,1.66-5.32c6.33,5.77,13.23,11.2,21.12,14.25 &#9;C827.66,956.46,827.34,957.98,827.04,959.5z M831.33,991.49c7.65,24.83,20.56,47.67,37.12,67.91c-7.14,4.9-14.19,9.93-21.17,15.07 &#9;C837.46,1048.49,832.65,1019.74,831.33,991.49z M847.29,1088.31c-0.22,0.1-0.41,0.22-0.58,0.35c-0.74,0.11-1.13-0.45-1.71-1.57 &#9;c-0.56-1.07-0.71-2.32-0.56-3.5c17.45-13.18,35.61-25.35,53.9-37.34c0.99,0.01,2.08,0.28,2.97,0.74c1.44,0.74,1.65,1.33,1.07,2.81 &#9;c-0.04,0.09-0.05,0.19-0.07,0.28C893.53,1057.32,857.47,1083.6,847.29,1088.31z M864.01,1092.85c-1.52-1.67-3.01-3.36-4.47-5.08 &#9;c11.58-7.42,29.44-20.27,40.32-28.56c20.54,16.35,41.83,32.92,66.81,42.9c16.14,6.45,36.97,12.74,55.9,11.63 &#9;c-0.28,0.19-0.57,0.38-0.84,0.57c-17.61,11.71-36.72,16.51-57.78,15.97C927.22,1129.34,890.7,1117.96,864.01,1092.85z &#9; M1066.23,1120.51c-22.76,13.51-47.9,22.79-74.22,26.02c-34.32,4.21-67.46-6.36-95.36-25.28c20.82,9.32,43.95,13.83,67.3,14.75 &#9;c21.14,0.83,40.11-4.32,58.16-15.14c16.8-10.07,36.12-25.79,45.54-43.12c10.05-0.91,19.99-3.03,29.93-4.67 &#9;c8.82-1.46,17.82-2.43,26.69-3.92C1110.32,1090,1087.66,1107.79,1066.23,1120.51z M1137.3,1056.88c0.18,1.23-0.47,2.51-1.38,3.47 &#9;c-0.2,0.21-0.34,0.43-0.46,0.65c-11.68,3.01-23.91,4.19-35.81,6c-12.09,1.84-24.13,4.69-36.36,5.34c0.05-1.54,0.49-3.08,1.05-4.52 &#9;C1088.62,1063.81,1112.84,1059.5,1137.3,1056.88z M1136.05,1014.53c-2.04,12.47-4.74,25.55-8.3,37.74 &#9;c-6.31,0.78-12.62,1.64-18.91,2.58c13.67-21.06,22.74-44.78,29.17-69.07C1138.15,994.85,1137.72,1004.35,1136.05,1014.53z &#9; M1151.62,952.59c-2.82,2.4-5.9,4.42-9.3,5.85c-0.26-1.36-0.53-2.73-0.8-4.09c3.22-1.63,6.27-3.58,9.14-5.77 &#9;C1150.98,949.91,1151.29,951.25,1151.62,952.59z M1149.06,942.44c-2.63,2.36-5.6,4.34-8.72,6.07 &#9;c-6.45-31.36-14.75-62.55-23.99-93.53C1130.59,883.21,1141.17,912.48,1149.06,942.44z M1194.2,866.1 &#9;c-32.24,3.71-61.96-8.81-83.04-32.72c-0.34-0.59-0.68-1.19-1.02-1.78c0-0.23,0-0.45,0-0.68c0.05-0.09,0.11-0.18,0.16-0.27 &#9;C1141.86,822.51,1178.2,837.68,1194.2,866.1z M1114.21,815.03c5.76-13.84,11.67-27.77,22.97-37.81 &#9;c20.43-18.13,45.29,2.15,57.9,20.91C1165.82,788.49,1134.19,792.33,1114.21,815.03z"/>
 </svg>