<?xml version="1.0" encoding="utf-8"?>
<!-- Generator: Adobe Illustrator 24.2.3, SVG Export Plug-In . SVG Version: 6.00 Build 0)  -->
<svg version="1.1" id="Layer_1" xmlns="http://www.w3.org/2000/svg" xmlns:xlink="http://www.w3.org/1999/xlink" x="0px" y="0px"
	 viewBox="0 0 700 700" style="enable-background:new 0 0 700 700;" xml:space="preserve">
<style type="text/css">
	.st0{fill:#F9834E;}
</style>
<g>
	<path className="st0" d="M147.98,133.31c0.14,0.3,0.9,1.23,1.09,1.41c12.89,24.31,46.58,15.62,49.19-10.16
		c1.64-16.19-15.93-30.75-31.47-27.41C149.98,100.77,140.53,117.5,147.98,133.31z M171.86,101.64
		c14.64-0.31,24.28,15.26,20.46,28.39c-5.58,19.2-35.82,17.41-40.8-0.6c-0.19-0.69-0.61-1.32-0.63-2.16
		C147.3,114.12,157.96,101.94,171.86,101.64z"/>
	<path className="st0" d="M148.36,100.03c2.12,2.34,5.57-1.13,3.45-3.45c-13.21-14.53-27.53-27.96-41.72-41.51
		c-2.28-2.17-5.73,1.27-3.45,3.45C120.83,72.07,135.16,85.49,148.36,100.03z"/>
	<path className="st0" d="M161.77,90.81c1.19,2.87,5.91,1.61,4.71-1.3c-4-9.69-7.01-19.71-9.36-29.91c-0.71-3.07-5.41-1.77-4.71,1.3
		C154.76,71.1,157.77,81.12,161.77,90.81z"/>
	<path className="st0" d="M182.24,90.97c-0.06-7.77,1.48-15.43,1.42-23.2c-0.02-3.15-4.91-3.15-4.88,0c0.06,7.77-1.48,15.43-1.42,23.2
		C177.38,94.12,182.26,94.12,182.24,90.97z"/>
	<path className="st0" d="M194.75,98.8c3.56-3.94,6.81-8.44,9.34-13.11c1.5-2.77-2.72-5.24-4.22-2.46c-2.33,4.32-5.28,8.48-8.57,12.12
		C189.19,97.68,192.64,101.14,194.75,98.8z"/>
	<path className="st0" d="M245.12,95.25c-0.57,0-1.03,0.16-1.39,0.42c-6.25,2.57-12.79,3.93-19.26,5.8c-7.72,2.23-15.25,4.86-23.14,6.49
		c-3.08,0.64-1.78,5.34,1.3,4.71c6.88-1.42,13.54-3.51,20.24-5.6c7.5-2.34,15.23-3.77,22.49-6.81c0.12-0.05,0.22-0.11,0.32-0.17
		C248.26,99.52,248.07,95.25,245.12,95.25z"/>
	<path className="st0" d="M122.66,103.27c-2.93-1.16-4.19,3.56-1.3,4.71c5.63,2.23,11.16,4.69,16.71,7.08c2.86,1.23,5.35-2.98,2.46-4.22
		C134.59,108.29,128.67,105.66,122.66,103.27z"/>
	<path className="st0" d="M136.62,124.84c-12.68,2.66-25.44,4.83-38.26,6.72c-3.11,0.46-1.78,5.16,1.3,4.71
		c12.82-1.88,25.58-4.05,38.26-6.72C141,128.9,139.69,124.2,136.62,124.84z"/>
	<path className="st0" d="M143.57,139.13c-6.85,4.98-13.34,10.41-19.83,15.85c-2.42,2.03,1.06,5.46,3.45,3.45
		c6.17-5.17,12.32-10.35,18.84-15.08C148.55,141.52,146.12,137.28,143.57,139.13z"/>
	<path className="st0" d="M154.29,152.01c-8.59,14.95-17.85,29.48-24.26,45.56c-1.17,2.93,3.56,4.19,4.71,1.3
		c6.24-15.66,15.4-29.82,23.77-44.39C160.08,151.74,155.86,149.28,154.29,152.01z"/>
	<path className="st0" d="M168.81,157.31c0.94,9.06,0.88,18.18,1.42,27.27c0.19,3.13,5.07,3.15,4.88,0c-0.55-9.09-0.49-18.2-1.42-27.27
		C173.37,154.21,168.49,154.18,168.81,157.31z"/>
	<path className="st0" d="M187.81,153.23c-1.75-2.6-5.98-0.16-4.22,2.46c8.38,12.46,13.98,26.36,20.35,39.89
		c1.34,2.85,5.55,0.37,4.22-2.46C201.79,179.6,196.19,165.69,187.81,153.23z"/>
	<path className="st0" d="M218.71,153.33c-6.42-2.53-12.19-6.43-18.55-9.12c-2.86-1.21-5.36,2.99-2.46,4.22
		c6.75,2.85,12.88,6.92,19.71,9.61C220.34,159.2,221.6,154.47,218.71,153.33z"/>
	<path className="st0" d="M242.72,134.61c-11.87-2.09-23.7-4.3-35.21-7.94c-3.01-0.95-4.29,3.76-1.3,4.71
		c11.51,3.64,23.34,5.85,35.21,7.94C244.5,139.86,245.82,135.15,242.72,134.61z"/>
</g>
<path className="st0" d="M599.46,370.89c1.81,0.75,3.07-1.6,2.32-3.02c-8.04-15.38-25.69-32.44-44.42-25.18
	c-12.02,4.66-18.03,17.37-23.08,29.65c1.24-22.55,8.58-51.61,18.37-71.7c0.7-1.44-0.48-3.75-2.32-3.02
	c-29.75,11.65-38.54,53.61-27.97,80.99c-21.69-12.85-51.93-1.66-56.99,25.84c-0.38,2.07,1.83,3.37,3.44,2
	c14.67-12.38,32.81-20.4,51.61-17.01c-10.02,1.19-20.68,2.16-27.15,10.7c-7.46,9.85-9.82,25.82-5.5,37.42
	c0.82,2.19,4.05,1.59,4.1-0.33c0.13-0.17,0.24-0.36,0.33-0.59c5.93-16.35,16.52-29.74,30.67-39.19
	c-6.48,13.93-11.44,29.99-3.07,43.69c0.05,1.33,1.3,2.59,2.7,1.94c0.71-0.11,1.36-0.55,1.67-1.15c7.89-6.22,11.38-17.75,11.9-29.24
	c6.07,20.79,11.5,41.68,15.78,62.66c-0.15,0.06-0.3,0.13-0.45,0.18c-0.35,0.12-0.62,0.31-0.83,0.53c-0.27,0.12-0.54,0.24-0.81,0.36
	c-2.43,1.05-0.34,4.59,2.08,3.56c0.29-0.13,0.57-0.26,0.86-0.39c0.12,0.61,0.25,1.21,0.37,1.82c-6.27,12.65-14.13,24.13-22.09,35.77
	c-8.54,12.49-15.59,26.02-25.79,37.3c-0.1,0.11-0.19,0.23-0.26,0.35c-1.9,0.32-3.79,0.63-5.69,0.95c-0.38,0.06-0.67,0.2-0.9,0.39
	c-0.34,0.17-0.64,0.42-0.79,0.79c-1.16,2.68-1.83,5.26-1.36,8.18c0,1.03,0.66,2.04,1.99,2.01c0.02,0,0.03,0,0.05,0
	c-4.9,7.75-12.59,14.76-20.29,20.56c-15.03,4.03-34.68-2.25-48.04-7.93c-16.46-7-30.68-18.06-44.38-28.95
	c0.82-0.65,1.53-1.23,2.07-1.69c0.74-0.63,0.81-1.41,0.52-2.07c1.19-4.46-3.7-7.18-7.75-6.99c-0.14-0.01-0.29,0-0.45,0.03
	c-0.25,0.02-0.49,0.06-0.73,0.1c-0.73,0.15-1.15,0.57-1.35,1.08c-0.02,0.01-0.04,0.03-0.06,0.04c-9.69-6.16-16.76-15.47-23.79-24.38
	c-7.56-9.59-15.59-18.94-20.13-30.35c0.66,0.1,1.32,0.18,1.99,0.24c2.64,0.25,2.62-3.87,0-4.12c-0.76-0.07-1.51-0.18-2.26-0.3
	c0.2-0.99,0.4-1.97,0.6-2.96c1.11,0.28,2.24,0.49,3.38,0.64c2.63,0.33,2.6-3.79,0-4.12c-0.1-0.01-0.2-0.03-0.31-0.05
	c-0.18-0.1-0.39-0.18-0.63-0.22c-0.55-0.09-1.08-0.21-1.62-0.33c2.31-11.11,4.9-22.15,7.84-33.06
	c8.36-31.05,20.54-60.78,33.91-89.97c9.31-20.32,20.54-44.35,38.4-59.29c-3.26,7.7-6.34,15.47-8.61,23.55
	c-2.99,10.61-3.28,21.47-3.26,32.41c0.02,20.18,1.77,42.99,14.18,59.77c0.83,1.13,2.81,1.53,3.55,0
	c9.5-19.62,14.42-40.61,14.61-62.4c0.09-10.77-1.29-21.53-3.44-32.06c-1.36-6.67-2.8-13.91-4.94-20.72
	c31.78,10.47,50.76,43.05,45.17,76.38c-0.33,1.99,2.54,3.23,3.69,1.51c12.04-18.2,24.93-43.11,15.92-65.12
	c-4.1-9.99-13.02-15.22-23.14-17.35c-12.49-2.63-25.86-3.62-38.72-4.07c13.25-8.9,25.47-13.23,41.24-12.78
	c12.35,0.35,41.16,8.93,56.25,8.94c2.36,0,3.69-2.63,1.59-3.76c-19.76-10.65-41-40.12-65.87-34c-17,4.18-24.57,13.98-34.49,27.69
	c3.35-15.74,2.46-33.36-7.43-46.03c-10.76-13.78-28.17-23.11-45.9-20.27c-1.71,0.27-2.06,3.05-0.49,3.76
	c20.42,9.21,28.99,30.14,36.72,50.63c-8.69-10.59-20.76-17.67-35.87-18.15c-10.28-0.33-21.7,2.95-31.46,5.95
	c-9.63,2.96-18.22,8.29-22.97,17.4c-0.97,1.86,0.96,3.77,2.81,2.82c14.86-7.64,34.2-9.75,50.55-5.61
	c13.69,3.47,29.17,10.62,40.14,20.4c-24.51-2.96-56.39-2.26-73.31,17.32c-0.87,1.01-0.78,2.51,0.42,3.23
	c12.06,7.31,27.04,6.35,40.31,3.51c5.17-1.1,10.45-2.67,15.58-4.72c-14.02,14.95-24.69,34.02-35.06,50.64
	c-18.54,29.72-33.33,61.7-45.17,94.63c-1.68,4.69-3.28,9.38-4.84,14.09c-1.79-0.52-3.7,1.83-2.05,3.41
	c0.24,0.23,0.48,0.46,0.72,0.69c-0.35,1.1-0.72,2.2-1.07,3.3c-1.71-1.4-4.68,0.5-3.18,2.45c0.56,0.74,1.15,1.44,1.75,2.14
	c-16.91,55.05-25.28,111.4-26.13,169.42c-0.04,2.89,4.07,2.89,4.12,0c0.86-56.97,9.12-111.84,25.35-165.94
	c4.58,4.28,9.96,7.48,15.95,9.27c-0.02,0.11-0.06,0.21-0.06,0.33c-0.02,0.82-0.03,1.65-0.04,2.47c-3.52,19.16-6.22,38.48-8.45,57.73
	c-3.62,31.32-5.33,56.9-2.16,88.29c0.55,5.43,4.57,4.72,4.05-0.53c-3.05-30.37-1.33-54.9,1.94-85.23c1.4-12.96,3.1-25.95,5.13-38.9
	c1.3,19.67,4.96,39.57,11.92,57.45c0.01,0.02,0.02,0.03,0.02,0.04c-0.15,0.11-0.3,0.22-0.45,0.33c-0.85,0.05-1.51,0.68-1.85,1.5
	c-2.09,4.97,2.39,12.39,8.05,9.19c0.18-0.1,0.33-0.23,0.46-0.36c0.61-0.3,1.36-0.71,2.19-1.2c1.45,1.56,2.95,3.06,4.48,4.49
	c24.28,26.56,58.51,43.36,95.03,39.65c19.79-2.01,38.55-9.48,55.66-19.34c17.15-9.88,35.26-24.81,45.34-41.65
	c0.01-0.02,0.01-0.03,0.02-0.05c1.63-0.35,3.26-0.73,4.87-1.17c1.01-0.28,1.44-1.07,1.45-1.87c1.61-2.11,2.41-5.18,0.86-7.5
	c-0.12-0.9-0.76-1.65-1.94-1.53c-1.27,0.13-2.54,0.28-3.81,0.42c2.49-8.61,4.17-16.17,5.42-25.35c0.65-4.8,0.98-9.23,1.13-13.38
	c5.43,39.94,5.6,80.17-3.34,120.56c-1.37,6.18,2.82,6.45,4.25-0.15c10.55-48.54,8.21-96.9-0.64-144.77c2.52-0.95,4.86-2.3,7-3.92
	c11.29,49.13,13.26,100.57,13.53,151.44c0.03,5.22,4.14,4.99,4.11-0.34c-0.29-51.79-2.38-104.16-14.13-154.11
	c0.49-0.47,0.97-0.94,1.44-1.43c1.73-1.8-0.73-4.48-2.56-3.2c-0.22-0.87-0.43-1.73-0.65-2.6c0.63-0.57,1.24-1.15,1.85-1.74
	c0.52-0.51,0.67-1.09,0.59-1.63c1.41-2.15-2.09-4.13-3.59-2.01c-0.06,0.09-0.13,0.16-0.2,0.25c-5.85-21.6-13.64-42.69-24.06-63.02
	c15.06,12.17,34.16,18.11,54.17,15.57c0.42-0.05,0.76-0.21,1.05-0.43c1.18,2.18,4.55,0.13,3.48-2.21
	c-10.56-23.05-38.18-36.22-62.88-31.86C551.33,363.43,576.92,361.59,599.46,370.89z M428.2,315.39c2.23,10.17,3.2,20.57,3.29,30.97
	c0.16,19.78-4.42,39.3-12.6,57.24c-9.76-15.37-11.2-34.86-11.49-52.64c-0.17-10.45,0.14-20.78,2.51-31
	c2.32-9.98,6.4-19.47,10.48-28.87c0.28,0.42,0.7,0.77,1.31,0.91c0.26,0.06,0.51,0.14,0.77,0.2
	C425.08,299.65,426.57,307.95,428.2,315.39z M458.99,291.83c12.43,1.25,23.36,4.01,29.24,16.15c8.1,16.73-1.3,37.94-10.82,53.73
	c1.56-33.04-19.27-63.34-51.45-72.8C437.07,289.3,447.9,290.72,458.99,291.83z M464.44,247.29c20.44-5.76,39.73,19.36,57.53,29.85
	c-16.46-0.35-38.24-11.16-52.65-9.45c-17.65,2.09-29.09,4.94-43.7,15.44C436.39,266.23,444.31,252.97,464.44,247.29z M383.31,208.28
	c14.25,0.45,27.77,9.3,35.96,20.69c9.54,13.26,8.45,32.4,3.85,47.81C412.5,253.03,406.18,222.78,383.31,208.28z M375.92,257.54
	c-14.29-4.53-32.22-2.63-46.63,2.88c10.15-10.73,28.8-13.9,42.58-15.22c22.82-2.18,39.49,14.76,46.92,34.64
	C407.05,268.91,390.91,262.29,375.92,257.54z M384.87,301.12c-12.14,3.34-26.8,4.84-38.45-0.98c16.73-16.87,46.72-16.95,69.24-14.05
	c-0.44,0.38-0.91,0.72-1.37,1.08c-1.67,1.12-3.3,2.3-4.89,3.54C401.91,295.53,393.32,298.8,384.87,301.12z M546.7,303.81
	c-9.88,22.74-16.56,54.62-16.89,79.38c-0.12,0.27-0.24,0.54-0.36,0.81c-0.06-0.06-0.12-0.11-0.18-0.17
	C516.7,359.76,521.25,317.62,546.7,303.81z M490.23,430.57c-1.62-10.09,0.98-22.07,7.52-29.31c5.82-6.45,15.29-7.1,23.93-7.97
	C507.63,402.36,496.9,415.13,490.23,430.57z M471,399.5c8.3-22.7,36.91-29.4,54.95-13.12c0.02,0.03,0.04,0.07,0.06,0.11
	C506.34,380.96,487.02,387.65,471,399.5z M522.67,437.85c-7.55-14.13-0.14-30.87,6.67-44.3c0.17-0.09,0.34-0.18,0.51-0.28
	C533.6,406.51,533.24,428.43,522.67,437.85z M531.75,523.36c6.73-10.39,13.88-20.31,20.05-30.95
	c-4.88,20.58-12.09,40.84-24.07,58.37c-0.08,0.11-0.14,0.23-0.19,0.34c-5.46,0.85-10.91,1.75-16.36,2.66
	C518.98,544.32,525.09,533.65,531.75,523.36z M348.29,516.37c7.84,9.77,15.34,20.25,25.75,27.41c-3.75,2.48-7.49,4.98-11.21,7.5
	c-12.94-15.67-22.64-33.62-27.77-53.19C338.9,504.52,343.56,510.47,348.29,516.37z M320.15,452.03c11.07-32.06,25.35-63,42.7-92.15
	c7.78-13.07,16.05-26.01,24.8-38.45c0.16-0.23,0.33-0.47,0.5-0.7c-4.67,8.09-8.76,16.44-12.54,24.35
	c-14.06,29.4-26.39,59.84-35.36,91.18c-3.56,12.44-6.58,25.06-9.22,37.78c-1.72-0.72-3.36-1.62-4.94-2.62
	c-3.14-2.09-5.93-4.69-8.01-7.49c-0.43-0.58-1.02-0.84-1.61-0.87C317.66,459.38,318.88,455.7,320.15,452.03z M329.53,481.46
	c-6-1.78-11.42-5.2-15.78-9.74c0.39-1.28,0.8-2.56,1.2-3.84c4.57,4.16,9.55,8.09,15.25,10.29
	C329.98,479.27,329.74,480.36,329.53,481.46z M332.63,504.55c5.53,17.93,14.84,34.41,26.8,49.03c-5.16,3.54-10.25,7.17-15.28,10.88
	C337.05,545.7,333.58,524.95,332.63,504.55z M344.15,574.45c-0.16,0.07-0.3,0.16-0.42,0.25c-0.53,0.08-0.82-0.32-1.24-1.13
	c-0.4-0.77-0.51-1.68-0.4-2.52c12.6-9.52,25.71-18.3,38.91-26.96c0.71,0.01,1.5,0.2,2.15,0.53c1.04,0.54,1.19,0.96,0.77,2.03
	c-0.03,0.07-0.03,0.14-0.05,0.21C377.54,552.08,351.5,571.05,344.15,574.45z M356.22,577.73c-1.1-1.21-2.18-2.42-3.23-3.66
	c8.36-5.35,21.26-14.63,29.11-20.62c14.83,11.8,30.2,23.77,48.23,30.97c11.65,4.65,26.69,9.2,40.36,8.4
	c-0.2,0.14-0.41,0.28-0.61,0.41c-12.71,8.45-26.51,11.92-41.71,11.53C401.85,604.07,375.49,595.85,356.22,577.73z M502.21,597.7
	c-16.43,9.75-34.58,16.45-53.58,18.78c-24.77,3.04-48.7-4.59-68.84-18.25c15.03,6.73,31.73,9.98,48.59,10.65
	c15.26,0.6,28.96-3.12,41.99-10.93c12.13-7.27,26.07-18.62,32.88-31.13c7.25-0.66,14.43-2.19,21.61-3.37
	c6.37-1.05,12.87-1.75,19.27-2.83C534.04,575.67,517.68,588.51,502.21,597.7z M553.52,551.76c0.13,0.89-0.34,1.81-1,2.51
	c-0.14,0.15-0.25,0.31-0.33,0.47c-8.43,2.17-17.26,3.02-25.85,4.33c-8.72,1.33-17.42,3.39-26.25,3.86c0.04-1.11,0.35-2.22,0.76-3.26
	C518.37,556.76,535.86,553.65,553.52,551.76z M552.62,521.19c-1.47,9-3.42,18.45-5.99,27.25c-4.56,0.56-9.11,1.19-13.65,1.86
	c9.87-15.2,16.42-32.33,21.06-49.86C554.13,506.98,553.82,513.84,552.62,521.19z M563.86,476.47c-2.04,1.73-4.26,3.19-6.72,4.22
	c-0.19-0.98-0.39-1.97-0.58-2.95c2.33-1.18,4.52-2.58,6.59-4.17C563.39,474.54,563.62,475.5,563.86,476.47z M562,469.15
	c-1.9,1.7-4.04,3.13-6.29,4.38c-4.65-22.64-10.65-45.16-17.32-67.52C548.67,426.39,556.31,447.52,562,469.15z M594.6,414.03
	c-23.27,2.68-44.73-6.36-59.95-23.62c-0.25-0.43-0.49-0.86-0.74-1.29c0-0.16,0-0.33,0-0.49c0.04-0.07,0.08-0.13,0.11-0.2
	C556.81,382.56,583.04,393.51,594.6,414.03z M536.85,377.16c4.16-9.99,8.42-20.05,16.58-27.29c14.75-13.09,32.69,1.55,41.8,15.09
	C574.1,358,551.27,360.77,536.85,377.16z"/>
</svg>
