<?xml version="1.0" encoding="utf-8"?>
<!-- Generator: Adobe Illustrator 24.2.3, SVG Export Plug-In . SVG Version: 6.00 Build 0)  -->
<svg version="1.1" id="Layer_1" xmlns="http://www.w3.org/2000/svg" xmlns:xlink="http://www.w3.org/1999/xlink" x="0px" y="0px"
	 viewBox="0 0 700 700" style="enable-background:new 0 0 700 700;" xml:space="preserve">
<style type="text/css">
	.st0{fill:#F9834E;}
</style>
<path className="st0" d="M590.59,339.33c0.49-0.84-4.03-30.03-9.43-42.4c-6.03-13.8-15.32-25.94-20.4-40.17
	c-0.24-0.67-0.59-1.21-1.01-1.63c-3.64-16.83-10.27-33.04-20.37-48.02c-2.51-9.3-7.31-17.52-17.03-23.66
	c-1.25-0.79-2.46-0.78-3.47-0.31c-22.39-20.85-51.38-33.98-81.17-41.98c-0.67-0.47-1.51-0.73-2.47-0.66
	c-9.95-2.57-19.97-4.58-29.85-6.11c-45.46-7.05-94.05-4.33-137.64,10.88c-46.8,16.33-90.36,47-118.52,88.01
	c-12.59,18.34-20.6,38.52-24.41,59.44c-0.27,0.2-0.54,0.44-0.79,0.75c-21.18,25.76-37.43,53.03-32.99,86.29
	c-0.23,0.77-0.27,1.59-0.06,2.35c0.12,0.44,0.35,0.8,0.59,1.15c0.32,1.84,0.66,3.68,1.11,5.55c7.7,32.01,39.84,47.01,66.73,60.33
	c0.05,0.06,0.08,0.12,0.13,0.17c4.38,4.86,8.77,11.57,15.26,13.76c4.08,1.38,7.57,0.48,10.56-1.54
	c18.53,28.29,31.07,60.78,60.59,79.78c26.09,16.78,59.79,18.88,89.73,15.26c30.97-3.75,62.25-15.26,87.89-33.06
	c12.05-8.36,22.22-19,31.43-30.33c11.41-14.03,20.03-33.15,36.75-41.06c1.21,1.01,2.46,1.97,3.8,2.83c1.26,0.81,3.03,0.75,4.3,0
	c5.74-3.4,11.67-7.69,15.02-13.6c0.73-1.28,0.7-2.51,0.27-3.56c34.74-13.49,71.66-35.76,75.58-76.7
	C591.46,353.56,591.36,346.35,590.59,339.33z M569.87,292.81c6.98,12.81,9.38,27.47,12.17,41.66c-0.04,0.01-0.09,0.01-0.13,0.02
	c0.03,0.16,0.07,0.31,0.11,0.46c0.04,0.19,0.06,0.38,0.09,0.57h-5.5c-0.19-4.86-0.66-9.65-1.41-14.3
	c-2.01-12.5-5.58-23.65-12.03-34.03c-0.01-2.18-0.07-4.36-0.16-6.53C565.29,284.69,567.64,288.71,569.87,292.81z M553.82,273.48
	c-6.39-9.85-10.51-19.05-11.15-32.74c-0.18-3.86-0.3-7.72-0.47-11.52C548.78,243.38,552.49,258.3,553.82,273.48z M535.29,250.79
	c1.65,15.57,10.96,26.91,19.05,39.13c-0.61,29-9.13,58.27-22.27,84.4c-10.27-28.48-45.31-45.91-75.17-45.46
	c10.54-16.79,16.13-35.79,13.24-55.98c-0.59-4.09-1.4-7.94-2.37-11.59c0.31-0.43,0.57-0.94,0.71-1.57
	c4.56-19.15,22.76-28.97,41.45-29.94c6.85-0.36,16.64,0.35,24.59,3.49C534.64,239.23,534.69,245.18,535.29,250.79z M252.83,475.15
	c-29.14-8.6-56.16-22.53-77.16-42.67c-0.42-0.78-1.1-1.43-1.91-1.85c-13.84-13.78-24.94-30.35-31.98-50.11
	c0.17-0.63,0.21-1.33,0.03-2.1c-7.9-34.91,47.56-62.48,70.77-36.03c0.08,0.47,0.22,0.95,0.5,1.44
	c16.05,27.75,38.77,43.83,69.9,51.14C259.21,411.37,247.74,447.22,252.83,475.15z M296,397.47c25.04,3.8,51.87,2.2,75.66-5.36
	c4.06-1.29,8.19-2.82,12.35-4.55c27.65,8.82,50.19,59.27,39.23,86.26c-30.01,10.29-63.61,12.85-94.61,12.43
	c-21.97-0.29-44.68-3.03-66.5-8.58C254.82,449.41,268.24,409.55,296,397.47z M356.19,387.56c-23.5,5.55-50.56,3.86-73.88-1.45
	c-25.63-5.84-44.47-19.7-58.31-40.84c0.19-0.89-0.3-1.72-0.71-2.89c-5.24-14.75-3.73-31.66,2.74-47.68
	c14.31-14.22,35.26-9.42,53.93-4.73c18.52,4.66,37.07,7.92,56.27,6.55c19.42-1.38,33.83-12.67,45.97-26.96
	c14.87-17.49,29.93-41.58,54.65-40.16c8.27,6,15.06,14.09,19.59,24.87C483.54,318.68,411.54,374.48,356.19,387.56z M348.48,268.73
	c-18.29,15.5-47.96,4.16-68.54-0.05c-12.05-2.46-25.25-4.4-36.95-1.46c3.22-3.72,6.7-7.25,10.47-10.51
	c31.38-27.08,63.39-38.34,104.38-41.89c14.93-1.29,30.85-1.37,45.68,1.31C382.02,228.07,361.87,257.38,348.48,268.73z
	 M406.57,231.01c-4.18,3.01-8.2,6.53-12.12,10.46c-2.09,2.09-4.06,4.3-5.98,6.55c-1.3-1.22-2.64-2.41-3.98-3.58
	c5.05-5.38,11.61-12.36,18.78-17.56C404.3,228.32,405.4,229.68,406.57,231.01z M383.09,254.62c-4.02,5.09-7.97,10.26-12.3,15.06
	c-2.35,2.61-4.82,4.89-7.39,6.91c-1.39-1.79-2.85-3.53-4.35-5.23c7.09-6.32,13.42-13.93,19.62-20.71
	C380.16,251.95,381.67,253.24,383.09,254.62z M320.58,284.82c8.53,0.52,16.95-0.27,24.49-3.84c2.57-1.21,5.02-2.69,7.38-4.35
	c1.37,1.51,2.7,3.11,3.91,4.64c-8.63,4.76-18.33,6.92-29.12,7.12c-2.07,0.04-4.19-0.03-6.35-0.19c0-0.08,0.02-0.16,0.02-0.25
	C320.89,286.89,320.76,285.85,320.58,284.82z M312.34,287.2c-10.5-1.61-21.64-4.56-32.71-6.92c0.38-0.97,0.67-1.95,0.92-2.94
	c3.78,0.85,7.43,1.73,10.84,2.48c6.33,1.38,13.21,2.99,20.21,4.04c0.02,0.05,0.02,0.07,0.05,0.14c0.19,0.53,0.32,1.08,0.46,1.63
	c0.11,0.44,0.18,0.88,0.26,1.32C312.29,286.58,312.31,286.85,312.34,287.2z M272.26,275.62c-0.26,0.98-0.64,1.96-1.14,3
	c-11.95-2.09-23.59-2.91-33.98,0.1C247.16,272.61,259.97,273.36,272.26,275.62z M410.51,222.45c2.54-1.24,5.11-2.14,7.68-2.56
	c2.09,0.72,4.12,1.52,6.12,2.39c-3.62,0.95-7.08,2.39-10.43,4.17c-0.87-0.91-1.69-1.88-2.48-2.86c-0.26-0.32-0.51-0.64-0.76-0.97
	C410.98,223.07,410.72,222.72,410.51,222.45z M435.79,149.14c38.49,10.43,74.62,30.15,96.73,62.93c0.9,3.91,1.35,8.03,1.62,12.22
	c-8.2-2.43-17.24-3.11-24.58-3.03c-19.31,0.19-37.93,10.64-46.17,27.62c-6.11-13.61-15.41-23.5-26.82-30.41
	c0.12-1.41-0.44-2.86-2.02-3.79c-4.71-2.77-9.49-3.86-14.27-3.72c-4.44-1.5-9.08-2.65-13.85-3.57c0.53-0.86,0.78-1.93,0.49-3.18
	C401.99,182.78,413.79,155.66,435.79,149.14z M374.85,139.82c15.51,0.71,31.66,2.67,47.64,6.1c-19.23,12.1-28.74,38.22-23.85,60.21
	c-30.4-3.97-65.4,1.89-94.99,10.55c0.1-0.5,0.15-1.02,0.07-1.59c-3.1-22.82-13.47-44.3-25.62-63.72
	C309.07,141.94,341.9,138.31,374.85,139.82z M196.59,194.63c22.14-18.21,46.89-31.56,73.13-40.57
	c12.25,19.31,22.69,40.46,25.79,63.31c0.09,0.66,0.29,1.2,0.57,1.64c-4.42,1.4-8.72,2.85-12.8,4.33
	c-8.31,3.02-32.89,16.76-51.38,39.34c-9.99-27.43-35.74-42.81-61.51-42.26C178.11,211.25,186.87,202.62,196.59,194.63z
	 M162.39,230.61c0.36,0.03,0.73,0.03,1.12-0.03c25.17-4.33,53.5,10.92,61.61,39.17c0.14,0.48,0.33,0.88,0.55,1.26
	c-10.92,16.07-18.11,35.81-15.39,58.7c-25.66-15.63-65.63,0.94-75.43,29.01C124.63,311.85,135.53,267.45,162.39,230.61z
	 M122.24,321.25c-0.09,17.97,2.65,36.1,8.05,53.75c0.27,0.88,0.74,1.54,1.31,2.02c6.24,20.52,16.56,38.13,29.84,53.01
	c-20.74-7.59-38.17-21.97-45.63-43.66C109.11,366.88,110.11,339.19,122.24,321.25z M107.08,333.6c-3.63,12.34-3.97,25.95-2.5,38.83
	c-0.59,0.05-1.17,0.23-1.67,0.6c-1.41,1.02-2.88,1.82-4.42,2.45C96.8,360.84,100.58,346.76,107.08,333.6z M110.14,405.04
	c-3.25-4.38-6.01-9.23-8.07-14.72c-0.8-2.12-1.46-4.22-2.01-6.32c2.04-0.7,3.99-1.62,5.81-2.76c0.22,1.23,0.45,2.47,0.7,3.68
	c1.28,6.15,3.55,11.83,6.53,17.08C112.29,403.07,111.22,404.16,110.14,405.04z M117.92,409.36c10.9,14.33,27.56,24.51,44.6,30.05
	c-0.37,0.41-0.71,0.84-1.1,1.24c-16.33-8.04-33.42-16.27-45.79-29.14C116.45,410.84,117.2,410.11,117.92,409.36z M174.37,452.88
	c-2.34-2.01-4.35-4.41-6.35-6.79c1.52-1.62,2.94-3.33,4.28-5.1c3.79,3.47,7.76,6.77,11.89,9.89c-0.12,0.17-0.24,0.32-0.37,0.48
	c-0.93,0.5-1.68,1.28-2.03,2.21C179.64,455.42,177.43,455.52,174.37,452.88z M226.53,511.99c-10.22-13.13-18.15-28.48-26.64-43.04
	c9.21,11.74,17.9,23.9,27.62,35.19C226.93,506.76,226.59,509.37,226.53,511.99z M208.85,466.55c15.98,8.49,33.41,14.98,51.5,19.56
	c51.94,13.15,114.77,13.76,166.59-4.67c0.75,0.01,1.48-0.21,2.11-0.72c3.87-1.42,7.69-2.93,11.43-4.57
	c0.34-0.15,0.68-0.31,1.02-0.47c-12.23,11.78-24.1,23.96-38.23,33.37c-25.22,16.8-61.86,24.02-91.44,24.72
	c-30.06,0.72-53.34-9.13-74.03-31.05C227.2,491.49,218.21,478.86,208.85,466.55z M256.67,537.55c-8.41-4.12-15.49-9.59-21.71-15.91
	c0.61-0.88,0.89-2.01,0.6-3.34c-0.44-1.98-0.56-3.94-0.52-5.89c0.67,0.7,1.31,1.41,1.99,2.09c6.29,6.35,12.97,11.38,20.01,15.35
	c0.05,2.85,0.28,5.65,1.07,8.35C257.63,537.98,257.14,537.78,256.67,537.55z M265.81,541.48c1.24-1.35,1.34-3.29,0.55-5.02
	c-0.33-0.72-0.52-1.51-0.65-2.33c7.15,3.05,14.67,5.16,22.56,6.53c0.04,0.17,0.06,0.34,0.13,0.51c0.96,2.38,2.03,4.7,3.13,7.01
	C282.73,546.86,274.11,544.65,265.81,541.48z M300.92,549.22c-0.01-0.72-0.13-1.44-0.47-2.12c-0.85-1.71-1.68-3.43-2.48-5.16
	c2.9,0.28,5.83,0.5,8.82,0.62c4.65,0.19,9.39,0.13,14.18-0.11c0.14,0.2,0.29,0.4,0.47,0.59c1.92,1.94,3.68,4.04,5.51,6.06
	C318.3,549.85,309.57,549.92,300.92,549.22z M353.33,544.79c-5.75,1.39-11.62,2.5-17.55,3.33c0.13-1.1-0.19-2.27-1.2-3.29
	c-1.03-1.04-1.99-2.15-2.96-3.25c9.71-1.1,19.49-3,29.05-5.57c0.16,0.22,0.33,0.44,0.54,0.64c1.69,1.65,3.61,3.04,5.47,4.5
	C362.24,542.49,357.78,543.71,353.33,544.79z M376.08,538.1c-0.11-0.13-0.19-0.25-0.32-0.38c-1.71-1.66-3.63-3.06-5.5-4.53
	c7.42-2.37,14.62-5.13,21.44-8.21c0.37,0.26,0.78,0.5,1.22,0.68c2.02,0.83,3.98,1.82,5.94,2.78
	C391.5,532.17,383.85,535.37,376.08,538.1z M407.7,523.64c-0.52-0.5-1.15-0.92-1.86-1.22c-1.57-0.65-3.1-1.39-4.62-2.14
	c7.72-4.29,14.71-9.5,21.35-15.17c2.07,1.11,4.06,2.37,6,3.71C422.11,514.41,415.09,519.32,407.7,523.64z M436.95,500.87
	c-0.67,0.7-1.36,1.36-2.05,2.04c-1.82-1.32-3.68-2.6-5.61-3.77c10.43-9.58,20.27-19.95,31.1-29.16
	C452.5,480.6,445.35,492.07,436.95,500.87z M439.3,467.4c-2.05,0.96-4.12,1.86-6.22,2.73c6.39-29.75-12.12-72.5-38.75-87.28
	c21.06-10.47,41.8-26.09,56.38-45.12c29.54-2.95,71.31,15.16,75.43,47.6c-2.66,4.64-5.44,9.17-8.36,13.54
	C498.31,428.08,471.16,452.53,439.3,467.4z M497.9,446.16c-1.92-1.49-3.65-3.22-5.13-5.14c2.54-2.37,5.03-4.82,7.47-7.33
	c1.78,2.09,3.29,4.36,4.91,6.58C503.07,442.57,500.52,444.49,497.9,446.16z M507.88,425.4c9.39-10.69,17.85-22.35,25.17-34.69
	c1.06-0.56,1.8-1.61,1.82-3.14c14.87-25.95,24.7-54.68,27.48-83.39c0.82,1.89,1.59,3.81,2.21,5.82c7.5,24.13,4.98,53.01-7.46,74.74
	C546.18,403.85,526.63,415.9,507.88,425.4z M533.13,420.29c8.7-5.97,16.71-12.87,23.64-21.14c0.18,0.15,0.36,0.29,0.57,0.41
	c0.08,0.04,0.15,0.09,0.23,0.14c0.04,0.04,0.04,0.04,0.14,0.13c0.37,0.35,0.71,0.74,1.04,1.13c0.08,0.1,0.09,0.12,0.14,0.17
	c0.12,0.17,0.25,0.35,0.37,0.52c0.05,0.07,0.09,0.15,0.14,0.23C551.77,409,542.79,415.11,533.13,420.29z M565.45,395.67
	c-1.01-1.29-2.18-2.45-3.49-3.25c0.12-0.18,0.26-0.34,0.38-0.52c3.81-5.51,6.76-11.62,8.99-18.06c2.24,0.78,4.57,1.45,6.91,1.83
	C575.14,383.02,570.77,389.66,565.45,395.67z M581.07,367.44c-0.97-0.09-2.27-0.37-3.58-0.69c-1.26-0.31-2.52-0.68-3.76-1.09
	c1.71-7.03,2.67-14.33,2.9-21.61h6.54C583.81,352.47,583.03,360.25,581.07,367.44z"/>
</svg>
