<?xml version="1.0" encoding="utf-8"?>
<!-- Generator: Adobe Illustrator 24.2.3, SVG Export Plug-In . SVG Version: 6.00 Build 0)  -->
<svg version="1.1" id="Layer_1" xmlns="http://www.w3.org/2000/svg" xmlns:xlink="http://www.w3.org/1999/xlink" x="0px" y="0px"
	 viewBox="0 0 700 700" style="enable-background:new 0 0 700 700;" xml:space="preserve">
<style type="text/css">
	.st0{fill:#F9834E;}
</style>
<g>
	<g>
		<path className="st0" d="M535.73,421.77c-0.99,0-1.82,0.51-2.33,1.44c-1.55,2.83-6.07,6.12-9.56,6.12c-1.95,0-3.33-1.01-4.09-3
			c-0.46-1.22-1.53-1.94-2.85-1.94c-1.03,0-1.99,0.46-2.5,1.21c-0.46,0.66-0.53,1.5-0.2,2.35c1.72,4.5,5.2,6.97,9.79,6.97h0
			c5.56,0,11.63-3.7,14.43-8.8c0.51-0.93,0.51-1.92,0-2.79C537.86,422.4,536.79,421.77,535.73,421.77z"/>
		<path className="st0" d="M483.27,483.61c0.17-1.23-0.39-2.67-2.03-3.12c-2.84-0.79-4.94-3.02-7.17-5.38
			c-1.92-2.04-3.91-4.14-6.45-5.32c-1.83-0.85-3.85-1.24-6.36-1.24c-1.97,0-4,0.25-5.96,0.49c-2.63,0.32-5.46,0.62-7.73,0.38
			c-1.87-0.18-2.76,1.14-2.83,2.46c-0.08,1.46,0.86,3.13,2.74,3.33c0.77,0.08,1.57,0.12,2.45,0.12c1.8,0,3.59-0.18,5.32-0.35
			c1.72-0.17,3.35-0.33,4.97-0.33c2.71,0,6.23,0.4,9.46,3.53c0.79,0.77,1.51,1.55,2.21,2.31c2.16,2.35,4.2,4.58,7.81,5.58
			c0.28,0.08,0.56,0.12,0.83,0.12C482.1,486.19,483.09,484.89,483.27,483.61z"/>
		<path className="st0" d="M531.87,491.38c-0.32,0-0.65,0.01-0.97,0.02c1.03-0.35,1.87-1.24,1.87-2.64l0-0.55c0-3.7-5.79-3.7-5.79,0
			l0,0.55c0,1.53,1.01,2.45,2.17,2.72c-1.49,0.09-2.89,0.24-4.05,0.38c-1.16,0.14-2.29,0.28-3.4,0.43
			c-4.66,0.59-9.06,1.15-13.24,1.15c-7.17,0-13.15-1.7-19.37-5.53c-0.48-0.3-0.98-0.45-1.48-0.45c-1.23,0-2.34,0.92-2.71,2.23
			c-0.36,1.28,0.12,2.51,1.26,3.2c9.27,5.7,17.98,7.86,26.74,6.68c1.51-0.2,3.35-0.58,5.3-0.98c4.07-0.84,8.69-1.79,12.91-1.79
			c5.42,0,8.87,1.61,10.55,4.91c0.48,0.94,1.31,1.48,2.29,1.48c1.04,0,2.08-0.6,2.65-1.53c0.54-0.88,0.57-1.89,0.09-2.84
			C544.11,493.82,539.27,491.38,531.87,491.38z"/>
		<path className="st0" d="M237.32,459.97l-0.54,0.12c-1.75,0.41-3.49,0.81-5.21,1.19c-1.43,0.32-2.25,1.46-2.09,2.92
			c0.15,1.33,1.21,2.75,2.89,2.75c0.23,0,0.46-0.03,0.7-0.08l1.3-0.29c10.96-2.45,22.29-4.98,33.69-4.99c1.99,0,3.97,0.08,5.89,0.23
			c2.79,0.22,5.62,0.57,8.37,0.9c4.75,0.57,9.65,1.17,14.49,1.17h0c3.37,0,6.41-0.28,9.28-0.87c1.42-0.29,2.25-1.41,2.11-2.85
			c-0.15-1.53-1.48-3.17-3.59-2.75c-0.84,0.17-1.74,0.32-2.82,0.45c-1.41-4.61-2.38-9.28-3.33-13.81
			c-2.59-12.4-5.03-24.11-15.76-33.42c-2.07-1.8-4.45-3.26-7.05-4.35c-0.42-1.23-1.64-2.4-3.42-2.12c-0.81,0.13-1.59,0.29-2.32,0.46
			c-1.53-0.26-3.1-0.4-4.66-0.4c-7.79,0-15.14,3.26-20.16,8.95c-0.79,0.89-0.97,2.07-0.49,3.15c0.5,1.11,1.57,1.86,2.67,1.85
			c0.73,0,1.41-0.33,1.95-0.94c1.95-2.21,4.13-3.92,6.5-5.12c-12.18,11.25-15.59,31.34-18.36,47.65L237.32,459.97z M269.46,410.8
			c6.5,1.66,12.63,6.19,16.81,12.46c4.46,6.68,5.86,15.05,7.22,23.14c0.66,3.95,1.35,8.03,2.38,11.84l-0.04,0
			c-5.08,0-10.3-0.68-15.35-1.33c-3.79-0.49-7.7-1-11.49-1.21c-1.04-0.06-2.13-0.09-3.21-0.09c-7.67,0-15.27,1.41-22.37,2.97
			C246.38,440.79,250.59,416.82,269.46,410.8z"/>
		<path className="st0" d="M230.82,480.73c3.23,0,5.68,0.95,7.69,2.98c0.56,0.56,1.23,0.86,1.95,0.86c1.16,0,2.3-0.79,2.77-1.93
			c0.44-1.07,0.21-2.17-0.63-3.02c-3.04-3.06-6.45-4.49-10.72-4.49c-2.86,0-5.72,0.61-8.75,1.26c-3.44,0.73-7,1.5-10.54,1.28
			c-1.89-0.09-2.79,1.32-2.83,2.65c-0.05,1.48,0.9,3.03,2.78,3.15c3.05,0.18,6.41-0.6,9.65-1.35
			C225.08,481.43,228.08,480.73,230.82,480.73z"/>
		<path className="st0" d="M287.83,478.48c-4.23-1.64-8.6-3.33-13.14-4.3c-1.14-0.24-2.32-0.37-3.5-0.37c-4.91,0-9.47,2.1-13.89,4.14
			c-1.97,0.91-4,1.84-6.02,2.57c-1.63,0.59-2.14,2.12-1.92,3.39c0.3,1.74,1.87,2.76,3.52,2.17c2.03-0.73,3.98-1.6,5.87-2.45
			c4.31-1.94,8.38-3.76,13.02-3.76c1.22,0,2.46,0.13,3.67,0.39c3.98,0.85,7.87,2.43,11.63,3.95c3.18,1.29,6.46,2.62,9.81,3.53
			c0.27,0.07,0.55,0.11,0.81,0.11h0c1.59,0,2.59-1.31,2.76-2.61c0.16-1.22-0.41-2.65-2.04-3.09
			C294.81,481.18,291.26,479.8,287.83,478.48z"/>
		<path className="st0" d="M206.75,493.69c-4.25-1.18-8.32-3.02-12.25-4.81c-3.84-1.74-7.81-3.54-11.97-4.74
			c-1.79-0.52-3.66-0.78-5.55-0.78c-4.86,0-9.89,1.63-15.83,5.13c-1.14,0.67-1.64,1.88-1.29,3.15c0.36,1.32,1.52,2.27,2.76,2.27
			c0.49,0,0.99-0.14,1.46-0.42c4.57-2.69,8.6-3.95,12.68-3.95c3.39,0,6.85,0.84,10.91,2.65c1.08,0.48,2.15,0.97,3.21,1.45
			c4.77,2.17,9.28,4.22,14.33,5.63c0.28,0.08,0.56,0.12,0.83,0.12c1.57,0,2.56-1.3,2.74-2.58
			C208.95,495.58,208.38,494.14,206.75,493.69z"/>
		<path className="st0" d="M235.79,490.02c-2.56,0-5.36,0.51-8.1,1.48c-1.63,0.58-2.15,2.11-1.93,3.38c0.3,1.75,1.87,2.78,3.53,2.19
			c4.98-1.76,9.02-1.67,12,0.25c0.49,0.32,0.99,0.48,1.51,0.48c1.18,0,2.28-0.9,2.65-2.18c0.38-1.29-0.08-2.55-1.21-3.28
			C241.86,490.8,239.01,490.02,235.79,490.02z"/>
		<path className="st0" d="M336.29,474.02c0.51-0.51,0.77-1.19,0.77-1.98c-0.01-11.93,1.41-23.95,2.79-35.57
			c1.15-9.72,2.34-19.77,2.69-29.74c0.03-0.79-0.22-1.48-0.71-1.99c-0.51-0.53-1.28-0.84-2.1-0.84c-1.43,0-2.92,0.96-2.98,2.8
			c-0.35,9.93-1.54,19.97-2.69,29.67c-1.38,11.65-2.81,23.7-2.8,35.68c0,1.85,1.46,2.82,2.9,2.82
			C334.98,474.85,335.76,474.55,336.29,474.02z"/>
		<path className="st0" d="M354.72,488.55c3.99,0,8.04-0.26,11.97-0.51l1.22-0.08c6.47-0.41,12.27-0.99,17.74-1.77
			c4.12-0.58,8.17-1.54,11.57-2.39c1.25-0.31,2.71-0.96,4.25-1.64c2.24-0.99,4.56-2.02,6.25-2.02c1.85,0,2.82-1.46,2.82-2.9
			c0-1.44-0.97-2.9-2.82-2.9c-2.38,0-5.19,1.17-7.91,2.31c-1.49,0.62-2.89,1.21-4.13,1.56c-7.41,2.11-15.25,2.98-22.63,3.62
			c-1.08,0.09-2.19,0.19-3.3,0.29c-4.77,0.44-9.7,0.89-14.62,0.89c-7.24,0-12.84-0.97-17.64-3.07c-0.41-0.18-0.82-0.27-1.24-0.27
			c-1.6,0-2.82,1.3-3.09,2.56c-0.25,1.21,0.31,2.23,1.49,2.75C340.24,487.42,346.61,488.55,354.72,488.55L354.72,488.55z"/>
		<path className="st0" d="M433.1,478.28c-0.61-2.78-1.4-5.54-2.54-8.21c-0.03-0.06-0.05-0.11-0.09-0.15c-0.23-0.71-0.69-1.25-1.3-1.51
			c-2.81-1.21-5.65-2.01-8.68-2.43c-1.87-9.09-2.79-18.62-3.68-27.84c-0.32-3.33-0.65-6.78-1.02-10.11l-0.33-2.96
			c-1.51-13.66-3.08-27.78-5.23-41.6c-0.16-1.06-0.73-1.59-1.22-1.85c-4.3-6.11-19.71-7.89-25.52-8.57l-0.53-0.06
			c-9.06-1.06-18.74-0.94-28.9,0.36c-13.57,1.74-22.56,5.51-27.48,11.53c-1.12,0.41-1.74,1.39-1.65,2.64
			c0.78,10.74-0.82,21.6-2.37,32.1c-0.45,3.03-0.91,6.16-1.3,9.23l-0.46,3.57c-0.87,6.73-1.77,13.69-2.51,20.56
			c-0.35,3.21-0.52,6.52-0.69,9.71c-0.14,2.66-0.29,5.4-0.53,8.09c-0.09,0.04-0.19,0.08-0.28,0.13
			c-7.47,3.87-10.54,11.27-9.36,22.54c-6.38,1.97-12.72,5.88-18.41,11.41c-0.1,0.1-0.19,0.2-0.27,0.3
			c-4.83,0.57-9.54,2.05-14.09,3.48c-3.8,1.19-7.74,2.43-11.78,3.16c-1.42,0.25-2.25,1.34-2.13,2.76c0.13,1.4,1.22,2.9,3.02,2.9
			c0.19,0,0.38-0.02,0.58-0.05c3.81-0.69,7.6-1.95,11.26-3.17c5.4-1.8,10.99-3.67,16.69-3.67c1.2,0,2.39,0.08,3.54,0.25
			c0.16,0.02,0.31,0.03,0.46,0.03c1.82,0,3.01-1.54,3.12-3.02c0.09-1.34-0.69-2.35-2.02-2.59c4.06-3.14,8.27-5.33,12.54-6.5
			c0.04-0.01,0.07-0.03,0.1-0.04c6.93,6.29,19.25,10.4,36.7,12.25c9.04,7.12,20.71,12.58,35.29,16.54
			c8.72,2.37,17.19,3.52,25.9,3.52c11.13,0,22.57-1.93,34.99-5.89h0.03c0.71,0,1.37-0.27,1.93-0.78c4.76-4.38,7.44-11.27,8.17-21.07
			c0.44-0.5,0.66-1.14,0.65-1.86C453.56,490.05,443.28,480.93,433.1,478.28z M431.91,496.44c3.06,2.32,8.13,6.34,6.8,9.92
			c-0.18,0.49-0.24,0.97-0.16,1.42c-7.91,4.96-19.08,6.01-27.1,6.02c-5.72,0-10.75-0.52-13.96-0.95c-4.13-0.56-8.14-1.34-12.03-2.31
			c5.44-0.75,11.21-1.8,17.43-3.16C412,505.37,423.12,502.91,431.91,496.44z M359.4,378.54c6.03-0.61,12.41-0.67,18.93-0.19
			c6.03,0.44,11.82,1.33,17.18,2.62c3.86,0.93,7.84,2.84,7.96,4.7c0.07,1.13-1.34,2.29-4.09,3.35c-7.99,3.07-17.12,3.2-25.96,3.32
			c-2.19,0.03-4.35,0.06-6.46,0.14c-1.49,0.05-3.22,0.18-5.06,0.31c-3.13,0.22-6.67,0.47-10.21,0.47c-10.07,0-16.12-2.09-18.98-6.57
			C339.31,380.58,352.35,379.26,359.4,378.54z M313.2,493.51c-0.91-7.04,0.09-11.86,3.13-15.08c0.13,0.46,0.37,0.87,0.71,1.23
			c0.61,0.63,1.48,1.01,2.35,1.01c1.29,0,2.24-0.82,2.48-2.14c1.45-8.2,2.08-16.75,2.69-25.01c0.45-6.12,0.92-12.45,1.72-18.57
			c0.48-3.73,1.07-7.55,1.63-11.24c1.51-9.88,3.06-20.08,3.04-30.15c4.35,3.68,11.06,5.4,20.99,5.4c3.73,0,7.46-0.24,10.74-0.44
			c1.89-0.12,3.68-0.23,5.28-0.29c1.31-0.05,2.62-0.09,3.93-0.13c5.96-0.19,12.12-0.38,18.15-1.19l0.84-0.11
			c4.56-0.6,10.72-1.42,14.85-4.31c1.6,11.44,2.9,23.09,4.15,34.38l0.84,7.57c0.31,2.75,0.59,5.54,0.87,8.35
			c1.12,11.15,2.28,22.69,5.42,33.32c0.37,1.26,1.41,2.04,2.72,2.04c0.98,0,1.94-0.46,2.49-1.19c0.5-0.67,0.63-1.52,0.37-2.4
			c-0.22-0.75-0.41-1.51-0.61-2.27l-0.06-0.23c1.21,0.27,2.45,0.66,3.7,1.15c1.94,4.71,2.66,9.9,3.36,14.92
			c0.14,1,0.28,1.99,0.43,2.99c-7.6,6.16-17.49,8.35-27.06,10.47l-0.96,0.21c-10.38,2.31-20.19,3.67-29.82,4.18
			c-9.06-3.77-17-8.78-23.29-14.83c-0.16-0.15-0.34-0.29-0.55-0.42c-0.7-0.79-1.72-1.12-2.79-0.88c-3.98,0.9-6.94,3.45-8.72,5.43
			c-0.71,0.79-0.94,1.8-0.63,2.79c-0.14,0.85,0.07,1.66,0.61,2.35c0.83,1.06,1.71,2.09,2.62,3.1
			C330.22,502.13,318.12,497.85,313.2,493.51z M441.49,519.48c-11.74,3.76-22.59,5.58-33.17,5.58c-8.12,0-16.21-1.04-24.74-3.19
			c-18.03-4.54-32.5-12.8-41.87-23.89c1.02-0.9,2.12-1.59,3.26-2.06c16.99,15.83,40.04,21.35,56.41,23.19
			c3.05,0.34,6.22,0.52,9.41,0.52c9.2,0,25.8-1.48,35.77-11.14C445.63,513.27,443.96,516.88,441.49,519.48z M444.38,502.56
			c-1.22-4.05-5.01-7.55-9.08-10.74c-0.01-0.04-0.01-0.09-0.02-0.13c0.01-0.21,0-0.41-0.04-0.61c-0.2-1.26-0.39-2.52-0.58-3.77
			c-0.12-0.84-0.25-1.68-0.38-2.53c5.49,2.23,11.01,6.74,12.93,12.57C446.53,499.23,445.58,500.98,444.38,502.56z"/>
		<path className="st0" d="M347.3,322.27c1.45,2.29,3.5,3.49,5.93,3.49h0c3.34,0,7.39-2.31,10.85-6.18c2.88-3.23,4.69-6.77,5.04-9.7
			c0.19-0.37,0.31-0.8,0.32-1.31c0.02-1.16,0.17-3.19,0.36-5.77c0.95-12.69,2.71-36.31-4.05-43.59c-1.66-1.79-3.76-2.48-6.21-2.05
			c-8.82,1.56-10.35,14.17-11.26,21.71c-0.09,0.74-0.18,1.44-0.26,2.08c-2.04,15.31-2.22,27.82-0.58,38.22
			c-0.09,0.12-0.2,0.23-0.28,0.37C346.68,320.41,346.74,321.38,347.3,322.27z M352.88,290.92l0.05-0.74
			c0.04-0.68,0.08-1.54,0.13-2.52c0.33-7.34,1.01-22.6,7.27-24.77c0.32-0.11,0.59-0.03,0.88,0.26c2.46,2.54,3.31,16.92,2.52,42.74
			c-0.01,0.24-0.01,0.45-0.02,0.66c-0.28,0.46-0.4,1.02-0.32,1.65c0.34,3-2.09,5.9-4.25,8.09c-1.23,1.25-4,3.6-5.75,3.6
			c-0.02,0-0.03-0.01-0.05-0.01c0-0.17-0.01-0.34-0.04-0.51C351.63,310.18,352.26,300.39,352.88,290.92z"/>
		<path className="st0" d="M345.26,346.87c-2.69-2.07-5.89-3.16-9.25-3.16c-5.81,0-11.55,3.29-14.74,8.41
			c-2.98-1.88-6.04-2.83-9.11-2.83c-12.17,0-22.42,15.38-23.45,29.13c-0.06,0.79,0.16,1.48,0.64,1.99c0.5,0.54,1.25,0.84,2.07,0.84
			c1.43,0,2.94-0.95,3.08-2.77c0.7-9.35,8.05-23.5,17.51-23.5c2.78,0,5.57,1.2,8.31,3.57c0.59,0.51,1.31,0.79,2.04,0.79
			c1.26,0,2.34-0.81,2.77-2.07c1.55-4.6,5.82-7.69,10.61-7.69c2.36,0,4.61,0.77,6.51,2.23c0.5,0.39,1.03,0.58,1.57,0.58h0
			c1.06,0,2.05-0.81,2.46-2.01C346.64,349.34,346.56,347.86,345.26,346.87z"/>
		<path className="st0" d="M129.82,494.99c-0.97,0.98-1.39,1.92-1.4,3.14c0,0.79,0.26,1.47,0.76,1.98c0.53,0.53,1.3,0.83,2.11,0.83
			c1.2,0,2.53-0.68,2.84-2.18c0.88-1.16,0.79-2.77-0.23-3.78C132.83,493.91,130.89,493.91,129.82,494.99z"/>
		<path className="st0" d="M142.69,491l0,1.65c0,1.85,1.46,2.81,2.9,2.81c1.44,0,2.9-0.97,2.9-2.81l0-1.65
			C148.49,487.3,142.69,487.3,142.69,491z"/>
		<path className="st0" d="M132.96,481.51l-1.1,0c-1.85,0-2.82,1.46-2.82,2.9c0,1.44,0.97,2.9,2.82,2.9l1.1,0c1.85,0,2.82-1.46,2.82-2.9
			C135.78,482.97,134.81,481.51,132.96,481.51z"/>
		<path className="st0" d="M112.65,489.75l-0.55,0c-1.85,0-2.82,1.46-2.82,2.9c0,1.44,0.97,2.9,2.82,2.9l0.55,0
			c1.85,0,2.82-1.46,2.82-2.9C115.47,491.21,114.5,489.75,112.65,489.75z"/>
		<path className="st0" d="M122.38,492.1l0,0.55c0,1.85,1.46,2.81,2.9,2.81c1.44,0,2.9-0.97,2.9-2.81l0-0.55
			C128.17,488.4,122.38,488.4,122.38,492.1z"/>
		<path className="st0" d="M77.91,488.26l0,0.55c0,1.85,1.46,2.81,2.9,2.81c1.44,0,2.9-0.97,2.9-2.81l0-0.55
			C83.71,484.56,77.91,484.56,77.91,488.26z"/>
		<path className="st0" d="M109.81,476.23c-0.39-1.16-1.37-1.85-2.65-1.85c-2.05,0.01-3.43,1.4-3.44,3.44c0,0.79,0.26,1.47,0.76,1.98
			c0.53,0.53,1.3,0.83,2.12,0.83c0.93,0,1.8-0.4,2.33-1.06C109.86,478.83,110.22,477.46,109.81,476.23z"/>
		<path className="st0" d="M89.04,474.93c-2.05,0.01-3.43,1.4-3.44,3.44c0,0.79,0.26,1.47,0.76,1.98c0.53,0.53,1.3,0.84,2.12,0.84
			c0.93,0,1.8-0.39,2.32-1.06c0.94-0.75,1.3-2.12,0.89-3.35C91.3,475.63,90.32,474.93,89.04,474.93z"/>
		<path className="st0" d="M100.57,482.07l-0.7,0c-1.85,0-2.82,1.46-2.81,2.9c0,1.44,0.97,2.9,2.82,2.9l0.7,0c1.85,0,2.82-1.46,2.82-2.9
			C103.39,483.52,102.42,482.07,100.57,482.07z"/>
		<path className="st0" d="M296.56,525.72l0.55,0c1.85,0,2.82-1.46,2.82-2.9c0-1.44-0.97-2.9-2.82-2.9l-0.55,0
			c-1.85,0-2.82,1.46-2.82,2.9S294.71,525.72,296.56,525.72z"/>
		<path className="st0" d="M312.48,519.92l-0.7,0c-1.85,0-2.82,1.46-2.82,2.9s0.97,2.9,2.82,2.9l0.7,0c1.85,0,2.82-1.46,2.82-2.9
			C315.3,521.38,314.33,519.92,312.48,519.92z"/>
		<path className="st0" d="M311.87,514.37c0.5-0.51,0.77-1.19,0.76-1.98c-0.01-2.05-1.39-3.43-3.46-3.44c-1.25,0-2.24,0.69-2.63,1.85
			c-0.42,1.23-0.05,2.6,0.89,3.35c0.53,0.66,1.39,1.06,2.33,1.06C310.57,515.21,311.34,514.9,311.87,514.37z"/>
		<path className="st0" d="M270.21,527.37c1.85,0,2.82-1.46,2.82-2.9c0-1.44-0.97-2.9-2.82-2.9l-0.55,0c-1.85,0-2.82,1.46-2.82,2.9
			c0,1.44,0.97,2.9,2.82,2.9L270.21,527.37z"/>
		<path className="st0" d="M291.77,532.16l0-0.55c0-3.7-5.79-3.7-5.79,0l0,0.55c0,1.85,1.46,2.82,2.9,2.82
			C290.32,534.97,291.77,534,291.77,532.16z"/>
		<ellipse className="st0" cx="283.39" cy="518.98" rx="2.82" ry="2.9"/>
		<path className="st0" d="M175.7,521.11c-1.57,0.33-2.27,1.81-2.16,3.12c0.11,1.29,1.01,2.59,2.78,2.59h0.02
			c1.23-0.01,2.17-0.43,3.14-1.4c0.54-0.54,0.84-1.26,0.84-2.04c0-0.78-0.3-1.51-0.84-2.05
			C178.51,520.36,176.81,520.27,175.7,521.11z"/>
		<path className="st0" d="M191.56,524.48l0,0.55c0,1.85,1.46,2.81,2.9,2.81c1.44,0,2.9-0.97,2.9-2.81l0-0.55
			C197.35,520.78,191.56,520.78,191.56,524.48z"/>
		<path className="st0" d="M177.83,515.7l0,0.55c0,1.85,1.46,2.82,2.9,2.82c1.44,0,2.9-0.97,2.9-2.82l0-0.55
			C183.62,512,177.83,512,177.83,515.7z"/>
		<path className="st0" d="M157.67,513.35c-1.85,0-2.82,1.46-2.82,2.9c0,1.44,0.97,2.9,2.82,2.9c1.85,0,2.82-1.46,2.82-2.9
			C160.49,514.81,159.52,513.35,157.67,513.35z"/>
		<path className="st0" d="M171.39,507.86l-0.55,0c-1.85,0-2.82,1.46-2.82,2.9c0,1.44,0.97,2.9,2.82,2.9l0.55,0
			c1.85,0,2.82-1.46,2.82-2.9C174.21,509.32,173.24,507.86,171.39,507.86z"/>
		<path className="st0" d="M504.63,512.77c-1.85,0-2.82,1.46-2.82,2.9c0,1.44,0.97,2.9,2.82,2.9c1.85,0,2.82-1.46,2.82-2.9
			C507.44,514.23,506.47,512.77,504.63,512.77z"/>
		<path className="st0" d="M527.13,516.06c-1.15,0-2.09,0.62-2.58,1.71l-0.04,0.05c-0.09,0.1-0.17,0.2-0.23,0.29
			c-0.42,0.57-0.5,1.2-0.59,1.89c-0.08,0.66,0.14,1.32,0.63,1.88c0.58,0.66,1.45,1.07,2.27,1.07c1.18,0,2.13-0.65,2.61-1.75
			c0.09-0.1,0.18-0.21,0.24-0.3c0.42-0.57,0.5-1.2,0.59-1.89c0.08-0.65-0.14-1.32-0.62-1.88
			C528.82,516.47,527.95,516.06,527.13,516.06z"/>
		<path className="st0" d="M557.33,514.41l-0.7,0c-1.85,0-2.82,1.46-2.82,2.9c0,1.44,0.97,2.9,2.82,2.9l0.7,0c1.85,0,2.82-1.46,2.82-2.9
			C560.14,515.87,559.18,514.41,557.33,514.41z"/>
		<path className="st0" d="M594.66,505.62l-0.55,0c-1.85,0-2.82,1.46-2.82,2.9c0,1.44,0.97,2.9,2.82,2.9l0.55,0
			c1.85,0,2.82-1.46,2.82-2.9C597.47,507.08,596.51,505.62,594.66,505.62z"/>
		<path className="st0" d="M579.99,503.58l0-1.1c0-3.69-5.79-3.69-5.79,0l0,1.1c0,1.85,1.46,2.81,2.9,2.81
			C578.53,506.39,579.99,505.43,579.99,503.58z"/>
		<ellipse className="st0" cx="580.39" cy="519.5" rx="2.82" ry="2.9"/>
		<path className="st0" d="M583.13,507.82c-1.85,0-2.82,1.46-2.82,2.9c0,1.44,0.97,2.9,2.82,2.9c1.85,0,2.82-1.46,2.82-2.9
			C585.95,509.28,584.98,507.82,583.13,507.82z"/>
		<path className="st0" d="M607.83,497.93l-1.1,0c-1.85,0-2.82,1.46-2.82,2.9c0,1.44,0.97,2.9,2.82,2.9l1.1,0c1.85,0,2.82-1.46,2.82-2.9
			C610.65,499.39,609.68,497.93,607.83,497.93z"/>
		<path className="st0" d="M595.28,489.85c0-1.44-0.97-2.9-2.82-2.9c-1.85,0-2.82,1.46-2.82,2.9c0,1.44,0.97,2.9,2.82,2.9
			C594.31,492.75,595.28,491.29,595.28,489.85z"/>
		<path className="st0" d="M617.89,481.01c-2.85-0.46-5.7-1-8.52-1.55c0.26-0.57,0.32-1.22,0.16-1.89c-1.37-5.58-3.52-11.52-9.07-13.37
			c-2.17-0.72-4.3-0.96-6.36-1.18c-4.13-0.45-7.7-0.84-10.69-4.85c-0.92-1.23-1.48-2.84-2.07-4.55c-0.86-2.48-1.75-5.04-3.85-6.4
			c-2.09-1.35-5.01-2-8.95-2c-2.88,0-5.93,0.34-8.63,0.65c-0.54,0.06-1.07,0.12-1.58,0.18c1.67-2.65,3.18-5.42,4.39-8.29
			c1.11-0.04,2.16-0.68,2.66-1.6c0.45-0.84,0.38-1.79-0.21-2.66c-0.18-0.27-0.38-0.53-0.57-0.79l-0.26-0.35
			c-0.13-0.75-0.61-1.4-1.32-1.81c-4.59-5.83-10.68-10.88-18.58-15.45c2.6-5.55,5.06-11.26,7.45-16.79c1.51-3.5,3.02-7,4.58-10.49
			c3.23-7.25,7.25-14.28,11.13-21.08c1.67-2.93,3.4-5.95,5.04-8.95c0.43-0.78,0.89-1.61,1.37-2.47
			c6.55-11.77,16.45-29.55,3.55-39.45c-1.54-1.18-3.39-1.78-5.5-1.78c-5.03,0-9.54,3.27-10.8,4.28c-4.58,3.64-6.57,10.34-8.32,16.25
			c-0.37,1.25-0.73,2.45-1.09,3.56c-6.05,18.44-14.35,37.38-25.28,57.6c-3.66-5.62-8.81-9.68-16.93-13.45
			c-2.28-1.06-4.31-2.12-6.22-3.26l-0.4-0.11l-0.03,0.04c-1.87-0.74-3.81-1.11-5.78-1.11c-5.54,0-10.48,2.92-13.21,7.81
			c-1.69,3.02-3.29,4.62-4.64,4.62c-2.34,0-4.51-4.85-5.81-12.98c-0.36-2.23-0.53-4.57-0.7-6.84c-0.3-3.96-0.61-8.05-1.88-11.85
			c-0.82-2.45-2.75-3.87-5.9-4.33c-2.03-0.3-3.33-7.66-3.39-19.18l0.02-0.39c0.82-12.7,2.31-35.9-8.11-38.61
			c0.05-11.55-0.21-13.75-0.52-16.26c-0.3-2.5-0.65-5.32-0.74-18.44c-0.01-1.85-1.47-2.81-2.91-2.81c-0.48,0-0.93,0.11-1.34,0.31
			c-0.74-0.05-1.49-0.1-2.26-0.1c-3.94,0-7.85,0.67-11.63,1.32c-4.28,0.74-8.69,1.5-13.14,1.27l-0.12,0c-1.01,0-1.99,0.65-2.51,1.66
			c-0.48,0.94-0.43,1.96,0.13,2.74c5.85,8.06,16.53,13.47,26.56,13.47c0.7,0,1.39-0.05,2.08-0.1c0.03,0.27,0.06,0.54,0.09,0.79
			c0.3,2.51,0.57,4.71,0.51,16.61c-7.13,2.76-12.52,12.97-14.79,19.38c-2.31,6.53-2.85,13.73-3.38,20.69
			c-0.56,7.47-1.15,15.15-3.94,21.98c-3.34-1.8-6.99-2.93-10.93-3.27c-0.72-6.6,0.02-13.09,0.82-19.96
			c0.13-1.08,0.25-2.17,0.37-3.25c0.65-5.97,1.47-13.39-1.64-19.55c-2.48-4.9-8.5-5.52-13.46-5.52c-1.98,0-3.94,0.12-5.83,0.22
			c-1.02,0.06-2,0.12-2.92,0.15c-0.43-8.78-0.19-17.81,0.04-26.55c0.54-20.14,1.1-40.96-6.52-60.29
			c-3.23-8.21-10.09-17.6-20.03-21.89c-0.41-9.43-1.2-18.84-1.97-28.03c-1.07-12.69-2.18-25.8-2.27-38.75
			c-0.01-1.85-1.47-2.81-2.91-2.81c-0.82,0-1.59,0.3-2.12,0.83c-0.5,0.51-0.77,1.19-0.76,1.98c0.02,3.14,0.11,6.3,0.23,9.45
			c-4.85,0.8-9.79,1.32-14.59,1.81c-7.18,0.73-14.61,1.48-21.79,3.24c-1,0.24-1.84,1.16-2.09,2.28c-0.23,1.02,0.08,1.99,0.83,2.59
			c4.72,3.78,9.53,6.6,14.7,8.6c-2.35,2.3-4.67,4.68-6.93,6.99c-1.23,1.25-2.45,2.51-3.69,3.75c-0.82,0.83-1.03,2.1-0.56,3.25
			c0.44,1.06,1.36,1.7,2.45,1.7c0,0,0,0,0,0c0.06,0,0.12,0,0.18-0.01c5.6-0.35,11.31-0.47,16.83-0.57c5.57-0.11,11.32-0.23,17-0.6
			c0.62,7.41,1.22,14.94,1.59,22.49c-1.35-0.26-2.73-0.46-4.16-0.53c-3.73-0.17-6.44,0.7-8.39,2.65
			c-3.68,3.69-3.67,10.52-3.66,17.13c0.01,4.17,0.01,8.1-0.88,11.07c-0.27,0.88-0.1,1.57,0.14,2.04l-0.62,0.82
			c-4.39,5.76-8.93,11.72-9.86,19.04c-0.11,0.83-0.17,1.68-0.21,2.55c-2.19,1.29-4.4,2.47-6.55,3.61
			c-5.81,3.07-11.29,5.96-16.06,10.99c-6.69,7.05-11.03,16.02-14.72,24.67c-3.22,7.54-5.43,15.48-7.57,23.16l-0.21,0.74
			c-1.42,5.09-3.14,9.39-5.25,13.16c-1.02,1.83-7.26,8.82-11.12,8.82c-1.36,0-2.28-0.87-2.81-2.67c-0.36-1.21-1.35-1.96-2.58-2.02
			c-2.71-4.46-6.37-7.06-10.14-7.06c-3.23,0-6.33,1.91-8.98,5.52c-7.49,10.2-15.96,25.48-13.8,40.33c0.08,0.54,0.28,1.01,0.6,1.36
			c-1.19,1.34-2.39,2.67-3.6,3.99c-2.27,2.49-4.57,5.03-6.68,7.61c-1.99-1.73-3.94-2.6-5.81-2.6c-5.2,0-8.72,6.76-9.64,13.67
			c-1.17-1.06-1.62-2.94-2.1-4.93c-0.78-3.26-1.67-6.95-6.17-7.34c-7.21-0.63-8.99,3.93-10.9,8.76c-0.88,2.23-1.79,4.54-3.29,6.4
			c-1.59,1.97-2.96,2.97-4.05,2.97c-1.63,0-2.79-2.21-4.02-4.55c-0.72-1.37-1.46-2.78-2.37-3.88c-2.93-3.58-7.56-2.46-13.14,3.24
			c-1.95,1.99-2.66,4.96-3.29,7.58c-0.13,0.55-0.26,1.09-0.4,1.61c-0.26,0.98-0.64,1.55-1.05,1.55c-0.77,0-1.92-1.74-1.96-3.37
			c-0.05-1.93-0.21-4.02-0.97-6.17c-1.06-2.98-3.89-4.76-7.58-4.76c-2.69,0-5.38,0.95-7.21,2.53
			c-11.26,9.75-11.11,43.22-11.04,57.52l0,0.25c-5.11,2.54-9.9,5.86-14.6,9.12c-2.75,1.91-5.59,3.88-8.41,5.62
			c-1.13,0.7-1.61,1.94-1.25,3.22c0.37,1.31,1.48,2.22,2.71,2.22c0.5,0,1.01-0.15,1.49-0.45c2.66-1.65,5.36-3.6,8.21-5.66
			c7.86-5.69,16-11.57,24.81-12.2c4.15-0.29,8.21,2.01,12.13,4.24c1.44,0.82,2.81,1.59,4.15,2.23c3.09,1.45,6.27,2.16,9.74,2.16h0
			c0.17,0,0.34-0.02,0.51-0.02c-0.7,1.53-1.5,3.01-2.41,4.43c-3.33,0.77-6.69,1.74-10.15,2.73c-7.8,2.25-15.87,4.58-24.04,4.59
			c0,0,0,0-0.01,0c-1.38,0-2.75-0.07-4.08-0.2c-1.87-0.18-2.76,1.16-2.83,2.48c-0.07,1.46,0.86,3.12,2.74,3.31
			c1.17,0.12,2.39,0.18,3.62,0.18c7.83,0,15.86-2.39,23.62-4.71c7.52-2.24,15.29-4.56,22.63-4.56c7.06,0,13.09,2.16,18.42,6.61
			c0.56,0.47,1.22,0.71,1.9,0.71c1.29,0,2.53-0.87,2.97-2.07c0.37-1.02,0.07-2.04-0.83-2.79c-6.4-5.35-13.42-7.95-21.44-7.94
			c-1.72,0-3.43,0.12-5.14,0.32c2.72-5.54,4.39-11.6,5.99-17.5c0.72-2.66,1.47-5.41,2.3-8.05c1.99-6.32,4.76-13.24,12.36-15.36
			c1.27-0.36,2.69-0.54,4.21-0.54c4.32,0,9.06,1.44,13.24,2.71c1.53,0.47,2.97,0.9,4.36,1.27c1.6,0.42,3.1-0.55,3.5-2.15
			c2.52-2.09,3.59-4.58,3.57-8.3c-0.01-2.13-0.62-4.3-1.22-6.39c-0.18-0.65-0.37-1.3-0.53-1.93c-1.18-4.68-0.38-9.69,2.45-15.33
			c3.21-6.4,8.19-11.79,13.01-17c5.69-6.16,11.57-12.52,14.6-20.61c0.32-0.85,0.24-1.69-0.22-2.36c-0.52-0.74-1.47-1.21-2.5-1.21
			c-1.32,0-2.39,0.73-2.84,1.95c-1.36,3.64-3.52,7.31-6.76,11.49c-0.29-7.61,2.78-13.73,6.31-20.75l0.45-0.9
			c0.31-0.63,0.66-1.37,1.04-2.18c2.19-4.69,5.49-11.78,10.01-12.36c3.78-0.51,6.32,4,7.72,13.31l0.06,0.41l0.23-0.03
			c0.59,2.4,1.66,4.69,3.2,6.74c0.59,0.79,1.45,1.23,2.42,1.23c1.19,0,2.36-0.68,2.84-1.65c0.42-0.83,0.3-1.75-0.32-2.58
			c-1.39-1.86-2.27-3.72-2.65-5.62c0.38,0.05,0.76,0.09,1.17,0.09h0c2.07,0,4.46-0.64,7.09-1.89c8.05-3.82,11.97-13.25,14.74-21.98
			c0.73-2.3,1.43-4.6,2.13-6.88c2.89-9.44,5.62-18.36,10.11-27.21c3.35-6.61,7.7-12.52,12.93-17.56c3.15-3.05,7.42-5.03,11.55-6.95
			c1.21-0.56,2.43-1.13,3.63-1.73l0.04,0.38l0.38-0.35c-0.11,0.67-0.25,1.33-0.52,1.94c-0.43,0.98-0.35,2.01,0.23,2.89
			c0.59,0.91,1.61,1.49,2.6,1.49c0.97,0,1.78-0.56,2.22-1.55c1.21-2.74,1.23-5.55,1.26-8.26c0.01-1.42,0.03-2.9,0.21-4.35
			c0.06-0.49,0-0.93-0.15-1.32c0.67-3.23,1.97-6.32,4.01-9.47c1.44-2.23,3.07-4.39,4.64-6.47c2.16-2.86,4.4-5.83,6.21-9.07
			c0.52-0.93,0.52-1.92,0.02-2.78c-0.75-1.27-2.55-1.89-3.79-1.31c0.14-2.78,0.08-5.61,0-8.71c-0.01-0.3-0.02-0.63-0.04-0.98
			c-0.13-2.85-0.3-6.75,2.33-7.84c0.71-0.29,1.58-0.44,2.57-0.44c1.72,0,3.62,0.44,5.47,1.04c0.11,3.37,0.16,6.74,0.13,10.1
			c-0.01,0.79,0.26,1.47,0.76,1.98c0.53,0.53,1.3,0.83,2.12,0.83c1.44,0,2.9-0.97,2.91-2.81c0.02-2.57-0.02-5.15-0.07-7.73
			c8.75,4.51,14.65,14.17,17.99,29.46c3.34,15.31,2.93,31.14,2.52,46.45c-0.31,11.57-0.62,23.52,0.68,35.2
			c0.2,1.8,1.74,2.74,3.17,2.74c0.83,0,1.57-0.31,2.05-0.84c0.46-0.51,0.65-1.2,0.57-1.99c-0.11-1.02-0.21-2.04-0.3-3.07
			c0.98-0.03,1.97-0.07,2.96-0.12c1.41-0.07,2.87-0.14,4.25-0.14c6.2,0,10.44,1.47,10.96,8.62c0.42,5.74-0.21,11.44-0.81,16.96
			c-0.92,8.37-1.87,17.02,0.88,25.8c0.39,1.25,1.44,2.02,2.75,2.02c0.99,0,1.95-0.46,2.49-1.2c0.49-0.67,0.61-1.52,0.34-2.39
			c-0.16-0.51-0.3-1.01-0.43-1.52c6.32,0.95,11.57,4.3,15.61,9.97c7.98,11.19,9.19,28.42,6.96,40.16c-2.13-3.21-3.75-7-5.06-10.09
			l-0.31-0.73c-0.42-0.99-1.23-1.56-2.2-1.56c-0.98,0-2,0.58-2.59,1.48c-0.59,0.89-0.68,1.92-0.26,2.9
			c4.21,9.84,9.79,19.26,22.02,21.62c2.42,0.47,4.82,0.67,7.14,0.87c4.74,0.4,9.22,0.78,13.63,3.27c3.84,2.16,6.31,6.87,8.49,11.02
			l0.54,1.03c0.03,0.41,0.15,0.82,0.35,1.2c0.47,0.89,0.94,1.79,1.42,2.71c4.09,7.88,8.72,16.8,17.88,19.49
			c0.29,0.08,0.58,0.13,0.86,0.13c1.6,0,2.52-1.32,2.7-2.54c0.18-1.23-0.38-2.69-2.01-3.17c-2.78-0.81-5.27-2.55-7.58-5.3
			c3.94,1.37,8.52,1.9,13.47,1.58l0.28-0.02c2.1-0.14,4.09-0.27,5.97-0.27c6.61,0,11.56,1.67,14.25,9.81l0.04,0.13
			c0.1,0.31,0.2,0.61,0.3,0.91c-0.67,0.74-0.87,1.75-0.71,2.63c0.25,1.4,1.29,2.29,2.54,2.29c1.03,2.41,2.32,4.65,4.29,6.78
			c0.55,0.6,1.23,0.91,1.95,0.91c1.11,0,2.23-0.78,2.71-1.89c0.46-1.07,0.26-2.22-0.55-3.09c-1.17-1.26-2.09-2.6-2.85-3.98
			c0.73-0.09,1.47-0.15,2.22-0.15c6.4,0,12.04,3.22,18,6.63c5.97,3.41,12.14,6.94,19.27,7.09h0.07c1.87,0,2.73-1.45,2.75-2.81
			c0.02-1.45-0.94-2.94-2.8-2.98c-7.22-0.16-13.22-3.64-19.01-7c-3.98-2.31-8.09-4.7-12.5-5.91c3.33-3.34,7.29-7.55,10.97-12.35
			c0.13,0.01,0.25,0.04,0.39,0.04l0.12,0c1.66-0.06,3.32-0.16,4.97-0.26c2.39-0.15,4.86-0.3,7.28-0.3c2.87,0,5.29,0.21,7.59,0.67
			c0.36,0.49,1.57,3.03,2.55,5.09c1.62,3.4,2.63,5.49,3.06,5.95c3.11,3.28,6.58,5,10.9,5.41c7.53,0.7,10.69,1.77,12.81,9.7
			c-2.23-0.43-4.48-0.84-6.72-1.2c-2.07-0.33-3.46,1.33-3.59,2.92c-0.11,1.4,0.73,2.46,2.14,2.68c3.48,0.56,7,1.25,10.4,1.91
			c3.42,0.67,6.96,1.37,10.46,1.93c0.18,0.03,0.35,0.04,0.52,0.04c1.77,0,2.95-1.51,3.07-2.96
			C620.14,482.29,619.3,481.24,617.89,481.01z M445.43,273.47c-6.26,0-13.05-2.47-17.97-6.51c2.32-0.25,4.63-0.65,6.88-1.04
			c3.74-0.64,7.62-1.31,11.48-1.31c0.25,0,0.49,0.03,0.74,0.03c0.05,3.86,0.12,6.66,0.2,8.76
			C446.32,273.43,445.88,273.47,445.43,273.47z M341.05,169.24c-3.14,0.06-6.37,0.13-9.58,0.24c3.06-3.12,5.87-5.96,8.81-8.71
			c0.73-0.68,1.01-1.68,0.77-2.68c-0.26-1.05-1.04-1.88-2.04-2.17c-4.25-1.2-8.12-2.9-11.81-5.18c5.09-0.87,10.3-1.4,15.34-1.92
			c4.44-0.45,9-0.93,13.5-1.63c0.4,7.22,0.96,14.4,1.56,21.48C352.09,169.01,346.49,169.13,341.05,169.24z M213.77,402.03
			c-0.17,1.7,0.25,4.24,0.69,6.94c0.85,5.19,1.8,11.05-0.74,13.28c-5.7-1.52-11.59-3.08-17.18-3.08c-7.21,0-12.66,2.69-16.67,8.23
			c-4.4,6.09-6.28,13.51-8.09,20.69c-0.74,2.94-1.51,5.92-2.44,8.83c-0.64,0.08-1.29,0.14-1.94,0.14c-4.68,0-8.97-2.21-13.12-4.35
			c-4.19-2.16-8.53-4.39-13.31-4.39c-1.1,0-2.2,0.12-3.28,0.35c-1.45,0.32-2.87,0.75-4.26,1.23c0.25-6.79,1.3-18.94,1.97-26.6
			c0.16-1.79,0.29-3.33,0.39-4.5c0.35-4.25,1.11-8.4,2.25-12.33c0.45-1.56,4.87-9.36,7.91-9.36c0.96,0,1.74,0.84,2.33,2.5
			c0.58,1.63,0.67,3.49,0.75,5.28c0.18,3.91,0.37,7.95,5.98,9.02c0.43,0.08,0.84,0.12,1.24,0.12c4.71,0,6.2-5.52,7.4-9.96
			c0.43-1.58,0.83-3.07,1.32-4.06c1.2-2.45,2.33-3.69,3.38-3.69c1.52,0,2.95,2.58,4.2,4.85c0.52,0.94,1,1.82,1.49,2.52
			c2.35,3.37,6.25,3.97,10.45,1.68c2.46-1.35,4.71-3.58,6.18-6.13c0.15-0.26,0.41-0.86,0.76-1.69c1.12-2.63,4.08-9.62,6.19-9.62
			c0.71,0,1.25,0.96,1.58,1.76c0.66,1.61,1.08,3.15,1.45,4.5c1.19,4.34,2.05,7.47,9.16,7.47c0.77,0,1.54-0.33,2.1-0.91
			c0.54-0.56,0.82-1.27,0.8-2c-0.08-2.65,0.61-8.72,2.59-10.77c1.03-1.06,2.25-0.84,3.77,0.55
			C216.79,391.91,214.3,396.7,213.77,402.03z M574.68,482.71L574.68,482.71L574.68,482.71L574.68,482.71z M547.61,364.55l1.29-3.14
			c2.91-7.06,5.92-14.36,8.5-21.66c0.46-1.29,0.88-2.66,1.3-3.98c2.03-6.5,4.12-13.21,11.16-15.6c0.72-0.24,1.41-0.37,2.06-0.37
			c4.35,0,6.08,5.68,6.18,9.5c0.11,4.08-2.25,8.97-4.15,12.9c-0.43,0.88-0.84,1.73-1.2,2.53c-2.98,6.56-6.63,12.95-10.15,19.13
			c-0.67,1.17-1.34,2.34-2,3.52c-5.51,9.73-10.08,20.05-14.49,30.03c-2.18,4.91-4.42,9.99-6.76,14.95c-3.79-1.9-7.96-3.7-12.38-5.36
			C534.95,392.83,541.7,378.95,547.61,364.55z M438.53,371.99c0.3-0.23,0.58-0.52,0.79-0.89c1.52-2.69,3.11-4.05,4.72-4.05
			c2.99,0,5.87,4.88,7.28,9.42c0.63,2.02,0.52,4.51,0.42,6.71c-0.02,0.47-0.04,0.94-0.05,1.39c-0.14,4.84-1.61,18.12-5.13,18.12
			c-0.35,0-0.72-0.13-1.12-0.39c-0.09-0.06-0.19-0.09-0.28-0.13C445.38,392.04,443.41,380.93,438.53,371.99z M479.22,430.05
			c-3.15-4.06-7-7.29-13.15-8.99c-0.32-0.09-0.64-0.14-0.96-0.22c-0.28-1.65,0.02-3.22,0.93-4.49c1.12-1.56,2.96-2.5,4.94-2.5
			c1.84,0,3.6,0.83,4.95,2.33c2.11,2.35,4.13,6.91,3.89,11.07C479.76,428.3,479.55,429.23,479.22,430.05z M487.03,441.97
			c-0.47-0.62-0.94-1.26-1.37-1.96c-0.45-0.73-0.89-1.46-1.32-2.17c-0.52-0.86-1.04-1.71-1.55-2.54c2.14-2.59,3.11-6.28,2.74-10.59
			c-0.53-6.26-3.76-12.23-8.02-14.86c-1.99-1.23-4.14-1.85-6.38-1.85c-3.9,0-7.59,1.91-9.87,5.1c-1.47,2.06-2.17,4.41-2.11,6.85
			c-0.8-0.07-1.59-0.12-2.38-0.18c-3.88-0.27-7.9-0.55-11.7-2.15c-0.65-0.27-1.29-0.63-1.92-1.06c0-0.01,0.01-0.02,0.01-0.04
			c0.69-2.49,1.2-5.22,1.54-8.11c0.84,0.32,1.66,0.49,2.43,0.49c9.17,0,10.24-21.32,10.36-25.59c0.21-7.24-1.65-13.1-5.84-18.44
			c-2.07-2.63-4.55-4.02-7.18-4.02c-3.33,0-6.79,2.26-9.33,5.98c-1.46-1.89-3.05-3.55-4.77-4.99c3.15-7.42,4.01-15.69,4.83-23.71
			c1.36-13.18,2.64-25.63,13.09-34.87c1.03-0.91,1.95-1.37,2.74-1.37c2.67,0,4.25,5.29,4.7,15.71l0.03,0.6
			c0.23,4.87,0.1,9.83-0.03,14.62c-0.07,2.53-0.13,5.15-0.15,7.72c0,0.64,0.24,1.29,0.69,1.84c0.31,3.64,0.78,7.47,1.42,11.71
			c0.5,3.33,3.89,5.52,6.97,5.98c2.24,0.33,3.04,12.33,3.39,17.45c0.13,1.98,0.23,3.42,0.34,4.07c0.75,4.23,2.3,13.02,8.69,14.87
			c0.76,0.22,1.51,0.33,2.23,0.33c3.98,0,6.51-3.42,8.95-6.73c2.42-3.27,4.92-6.66,8.78-6.66c1.3,0,2.68,0.36,4.21,1.11
			c0.38,0.19,0.78,0.29,1.2,0.31c0.72,0.4,1.45,0.79,2.18,1.18c7.51,4.06,14.61,7.9,18.66,15.68c-0.62,1.12-1.21,2.22-1.85,3.34
			c-4.58-1.54-9.63-3.03-15.41-4.57c-0.51-1-1.62-1.68-2.77-1.68c-0.98,0-1.82,0.49-2.36,1.38
			C492.75,413.55,489.17,428.46,487.03,441.97z M535.93,463.38c-0.09,0.08-0.17,0.17-0.24,0.26c-1.01,0.06-2.01,0.21-3.01,0.41
			c-0.12-0.31-0.23-0.62-0.34-0.93c-2-5.41-3.89-10.53-10.98-13.38c-1.69-0.68-3.67-1.01-6.07-1.01c-2.25,0-4.56,0.28-6.78,0.56
			c-1.45,0.18-2.82,0.35-4.11,0.43c-4.66,0.29-8.79-0.76-12.27-3c1.88-12.98,4.9-27.66,12.08-40.77c4.33,1.15,10.7,2.89,17.1,5.09
			c0.36,0.21,0.76,0.35,1.1,0.39c5.4,1.9,10.37,3.99,14.78,6.2c0.02,0.7,0.3,1.38,0.81,1.93c1,1.08,2.7,1.34,3.74,0.53
			c6.87,3.98,12.37,8.53,16.37,13.54C554.03,444.95,544.62,455.01,535.93,463.38z"/>
		<path className="st0" d="M462.75,518.41l0,0.55c0,1.85,1.46,2.81,2.9,2.81c1.44,0,2.9-0.97,2.9-2.81l0-0.55
			C468.54,514.72,462.75,514.72,462.75,518.41z"/>
		<ellipse className="st0" cx="471.69" cy="515.12" rx="2.82" ry="2.9"/>
		<path className="st0" d="M464.62,507.43c0-1.44-0.97-2.9-2.82-2.9c-1.85,0-2.82,1.46-2.82,2.9c0,1.44,0.97,2.9,2.82,2.9
			C463.65,510.33,464.62,508.87,464.62,507.43z"/>
		<path className="st0" d="M494.6,519.11c-1.08-1.08-3.01-1.08-4.1,0c-1.13,1.13-1.13,2.96,0,4.09l0.55,0.55
			c0.54,0.54,1.27,0.84,2.05,0.84c0.78,0,1.51-0.3,2.05-0.84c1.11-1.11,1.11-2.98,0-4.09L494.6,519.11z"/>
		<path className="st0" d="M482.67,497.4c-1.85,0-2.82,1.46-2.82,2.9s0.97,2.9,2.82,2.9c1.85,0,2.82-1.46,2.82-2.9
			S484.51,497.4,482.67,497.4z"/>
		<path className="st0" d="M276.83,533.99c-0.37-1.32-1.49-2.23-2.71-2.23c-0.5,0-1,0.15-1.48,0.45c-6.22,3.82-12.2,5.53-19.37,5.53
			c-4.18,0-8.58-0.56-13.24-1.15c-1.11-0.14-2.24-0.28-3.4-0.43c-1.16-0.14-2.56-0.29-4.05-0.38c1.16-0.27,2.17-1.19,2.17-2.72
			l0-0.55c0-3.7-5.79-3.7-5.79,0l0,0.55c0,1.4,0.84,2.29,1.87,2.64c-0.32-0.01-0.64-0.02-0.97-0.02c-7.4,0-12.24,2.44-14.79,7.47
			c-0.48,0.95-0.45,1.96,0.09,2.84c0.57,0.93,1.61,1.53,2.65,1.53c0.98,0,1.81-0.54,2.29-1.48c1.68-3.31,5.13-4.91,10.55-4.92
			c4.22,0,8.84,0.95,12.91,1.79c1.95,0.4,3.8,0.78,5.3,0.98c8.76,1.18,17.47-0.99,26.74-6.69
			C276.71,536.49,277.19,535.26,276.83,533.99z"/>
		<path className="st0" d="M257.09,557.06c-1.85,0-2.82,1.46-2.82,2.9c0,1.44,0.97,2.9,2.82,2.9c1.85,0,2.82-1.46,2.82-2.9
			C259.91,558.51,258.94,557.06,257.09,557.06z"/>
		<path className="st0" d="M237.43,562.4c-0.06-0.09-0.14-0.19-0.23-0.29l-0.04-0.05c-0.49-1.09-1.43-1.71-2.58-1.71
			c-0.82,0-1.69,0.41-2.27,1.08c-0.49,0.55-0.71,1.22-0.62,1.88c0.09,0.69,0.17,1.33,0.59,1.89c0.06,0.09,0.15,0.2,0.24,0.3
			c0.48,1.1,1.43,1.75,2.61,1.75c0.82,0,1.69-0.41,2.27-1.07c0.49-0.56,0.71-1.22,0.62-1.88
			C237.94,563.6,237.85,562.97,237.43,562.4z"/>
		<path className="st0" d="M293.17,562.69l0,0.55c0,1.85,1.46,2.81,2.9,2.81c1.44,0,2.9-0.97,2.9-2.81l0-0.55
			C298.97,558.99,293.17,559,293.17,562.69z"/>
		<ellipse className="st0" cx="290.03" cy="559.4" rx="2.82" ry="2.9"/>
		<path className="st0" d="M299.91,548.82c-1.85,0-2.82,1.46-2.82,2.9c0,1.44,0.97,2.9,2.82,2.9c1.85,0,2.82-1.46,2.82-2.9
			S301.76,548.82,299.91,548.82z"/>
		<path className="st0" d="M267.12,563.39l-0.55,0.55c-1.11,1.11-1.11,2.98,0,4.09c0.54,0.54,1.27,0.84,2.05,0.84
			c0.78,0,1.51-0.3,2.05-0.84l0.55-0.55c1.13-1.13,1.13-2.97,0-4.09C270.13,562.31,268.2,562.31,267.12,563.39z"/>
		<path className="st0" d="M279.05,541.68c-1.85,0-2.82,1.46-2.81,2.9s0.97,2.9,2.82,2.9c1.85,0,2.82-1.46,2.82-2.9
			C281.86,543.14,280.9,541.68,279.05,541.68z"/>
		<path className="st0" d="M507.3,483.82c0,1.44,0.97,2.9,2.82,2.9c1.85,0,2.82-1.46,2.82-2.9c0-1.44-0.97-2.9-2.82-2.9
			C508.26,480.93,507.3,482.38,507.3,483.82z"/>
		<path className="st0" d="M516.3,473.39l0-0.55c0-3.7-5.79-3.7-5.79,0l0,0.55c0,1.85,1.46,2.81,2.9,2.81
			C514.85,476.21,516.3,475.24,516.3,473.39z"/>
		<path className="st0" d="M489.8,477.39c1.85,0,2.82-1.46,2.82-2.9c0-1.44-0.97-2.9-2.82-2.9c-1.85,0-2.82,1.46-2.82,2.9
			C486.98,475.93,487.95,477.39,489.8,477.39z"/>
		<path className="st0" d="M559.52,486.96l-0.55,0c-1.85,0-2.82,1.46-2.82,2.9c0,1.44,0.97,2.9,2.82,2.9l0.55,0
			c1.85,0,2.82-1.46,2.82-2.9C562.34,488.42,561.37,486.96,559.52,486.96z"/>
	</g>
</g>
</svg>
