<?xml version="1.0" encoding="utf-8"?>
<!-- Generator: Adobe Illustrator 24.2.3, SVG Export Plug-In . SVG Version: 6.00 Build 0)  -->
<svg version="1.1" id="Layer_1" xmlns="http://www.w3.org/2000/svg" xmlns:xlink="http://www.w3.org/1999/xlink" x="0px" y="0px"
	 viewBox="0 0 700 700" style="enable-background:new 0 0 700 700;" xml:space="preserve">
<style type="text/css">
	.st0{fill:#F9834E;}
</style>
<g>
	<path className="st0" d="M352.97,617.76c-26.52-21.68-45.3-50.75-54.85-83.59c-1.93-6.64-12.16-3.47-10.24,3.15
		c10.04,34.52,29.96,65.53,57.84,88.32C351.04,629.99,358.33,622.14,352.97,617.76z"/>
	<path className="st0" d="M377.71,432.23c2.67,17.37,2.31,34.92,3.69,52.39c0.54,6.87,11.24,6.56,10.7-0.32
		c-1.38-17.47-1.03-35.02-3.69-52.39C387.38,425.17,376.67,425.43,377.71,432.23z"/>
	<path className="st0" d="M374.42,575.15c-0.42,15.18-1.75,30.31-2.17,45.48c-0.19,6.92,10.51,6.55,10.7-0.32
		c0.43-15.18,1.75-30.31,2.17-45.48C385.32,567.91,374.61,568.29,374.42,575.15z"/>
	<path className="st0" d="M431.83,401.88c3.71,35.19,6.65,70.42,5.42,105.84c-1.28,36.81-7.55,77.99-33.44,106.07
		c-4.68,5.07,3.2,12.33,7.89,7.24c51.24-55.59,38.02-151,30.83-219.46C441.83,394.72,431.12,395.01,431.83,401.88z"/>
	<path className="st0" d="M476.19,452.94c1.81,34.8-6.5,67.77-14.27,101.39c-1.56,6.74,8.87,9.16,10.42,2.44
		c7.97-34.52,16.4-68.45,14.54-104.15C486.54,445.72,475.83,446.05,476.19,452.94z"/>
	<path className="st0" d="M496.4,474.1c2.27,15.83,1.03,31.17-2.47,46.72c-1.53,6.75,8.91,9.18,10.42,2.45
		c3.69-16.4,5.14-32.78,2.75-49.48C506.13,467.02,495.42,467.28,496.4,474.1z"/>
	<path className="st0" d="M509.82,360.68c13.86,33.6,24.67,67.25,21.04,104.05c-0.68,6.87,10.04,6.45,10.71-0.32
		c3.72-37.74-7.29-72.39-21.51-106.89C517.44,351.2,507.18,354.29,509.82,360.68z"/>
	<path className="st0" d="M506.58,370.39c-1.97-6.62-12.2-3.46-10.23,3.15c2.74,9.18,4.47,18.56,6.13,27.98
		c1.19,6.79,11.42,3.56,10.23-3.15C511.05,388.95,509.31,379.57,506.58,370.39z"/>
	<path className="st0" d="M538.15,338.01c-0.77-1.61-1.94-2.4-3.21-2.6c-0.28-1.11-0.57-2.23-0.91-3.35c-0.71-2.38-2.88-3.72-5.27-3.78
		c-3.77-0.1-7.5,0.11-11.23,0.46c-10.81-14.32-22.92-27.63-34.89-40.99c0.17-1.13-0.02-2.3-0.83-3.34
		c-13.97-18.04-38.75-22.91-64.23-22.64c12.87-21.21,24.57-43.2,36.11-65.04c19.24,16.62,44.25,23.78,65.88,36.71
		c3.38,2.03,6.43-0.18,7.35-3.1c10.41-7.78,1.48-15.36-8.04-18.86c-22.5-8.27-42.18-22.48-62.95-34.03
		c-0.19-0.11-0.38-0.17-0.57-0.25c-0.15-0.12-0.29-0.21-0.44-0.33c-3.61-2.99-8.16-0.28-8.98,3.15c-0.35,0.35-0.67,0.76-0.96,1.26
		c-15.53,27.99-32.06,55.41-50.01,81.88c-14.32,1.49-27.88,3.87-38.77,5.65c-7.49,1.22-14.91,2.71-22.31,4.3
		c1.23-10.32,3.14-20.85,5.75-29.86c7.13,6.31,18.41,7.79,26.51,3.04c6.42-2.96,10.29-7.63,11.84-13.03
		c2.79-6.15,2.15-14.04-3.3-19.63c-0.39-0.67-0.79-1.33-1.23-1.98c-1.08-1.58-2.54-2.24-4.01-2.27
		c-10.25-6.95-19.05-6.52-26.44-1.38c-1.48-10.41,6.43-22.29,14.41-29.91c0.22-0.16,0.43-0.35,0.66-0.51
		c0.04,0.32,0.07,0.64,0.12,0.96c3.16,18.82,29.95,30.42,43.26,15.16c11.3-12.96-2.5-29.72-16.34-35.59
		c-1.93-1.06-4.1-1.88-6.49-2.45c2.98-9.06,25.45-65.34,28.99-73.78c2.88-6.88,7.99-18.21,1.98-24.63
		c-0.01-0.01-0.01-0.02-0.02-0.02c-0.09-0.11-0.17-0.22-0.27-0.32c-0.11-0.12-0.25-0.21-0.38-0.31c-0.11-0.1-0.2-0.2-0.31-0.3
		c-2.37-1.95-5.07-1.43-6.89,0.13c-1.46,0.16-2.83,1-3.61,2.86c-6.91,16.43-34.83,79.63-38.86,96.69c-4.42,2.14-9.1,5.56-13.57,9.81
		c-5.22,4.08-9.53,9.29-12.67,15.37c-7.2,11.23-11.33,23.87-8.2,33.87c0.65,4.1,1.96,8.18,3.71,12.05
		c-6.95,14.28-11.52,33.08-13.76,50.44c-8.32,2.07-16.63,4.25-24.9,6.61c-26.19,7.47-58.49,15.34-78.64,34.8
		c-1.42,0.22-2.77,1.04-3.64,2.7c-10.13,19.23-19.77,38.7-29.81,57.98c-7.57,5.04-15.71,9.29-23.45,14.06
		c-5.07,3.14-11.71,6.74-16.36,11.46c-0.01-0.01-0.03,0-0.04-0.01c-4.42-0.37-5.81,3.91-4.46,7.17c-0.07,0.83,0.05,1.63,0.36,2.33
		C121.44,527.73,212.6,619,317.83,640.14c12.05,3.52,24.51,5.39,37.28,5.1c0.87-0.02,1.59-0.24,2.23-0.55
		c12.53,0.35,25.09-0.32,37.55-2.12c63.77-9.17,122.9-51.19,155.66-106.02c16.05-26.87,23.93-57.99,23.54-89.18
		C573.62,407.94,554.69,372.73,538.15,338.01z M359.4,219.43c3.1,2.93,4.92,7.12,4.28,9.5c-0.38,0.53-0.75,1.01-1.13,1.47
		c-1.11,0.6-2.99,0.46-5.88-0.93c-3.03-1.46-5.64-3.55-7.89-5.99C351.85,219.94,355.38,218.35,359.4,219.43z M388.7,177.44
		c2.05,7.96-12.24,2.31-12.65-4.84c-0.04-0.63-0.03-1.25-0.03-1.87C381.03,170.69,385.51,172.67,388.7,177.44z M505.25,330.26
		c-5.85,0.83-11.69,1.66-17.6,1.96c-0.22,0.01-0.42,0.06-0.64,0.09c-0.88-1.62-2.82-2.71-4.84-2.83
		c-6.75-8.2-13.46-16.42-19.35-25.28c4.21-2.79,8.38-5.67,12.45-8.71C485.48,306.88,495.81,318.23,505.25,330.26z M332.82,284.18
		c5.81-1.28,11.63-2.5,17.49-3.59c11.95-2.22,24.01-3.96,36.12-5.14c-8.13,11.55-16.53,22.93-25.27,34.06
		c-0.55,0.71-0.89,1.45-1.06,2.18c-8.87,1.88-17.8,3.4-26.79,4.55C331.92,311.44,331.68,298.81,332.82,284.18z M221.49,323.94
		c18.86-16.22,48.45-22.81,71.52-29.62c6.84-2.02,13.71-3.86,20.59-5.61c-0.93,12.44-0.54,23.11,1.12,29.37
		c-21.24,1.49-42.7,0.92-64.11-1.9c-6.79-0.89-9.28,9.53-2.45,10.43c42.39,5.57,84.63,2.9,125.3-7.16c1.24,0.25,2.54,0,3.72-0.93
		c24.41-6.33,48.23-15.32,71.16-26.85c6.16-3.1,0.36-12.11-5.75-9.03c-17.35,8.72-35.31,15.9-53.67,21.55
		c7.46-9.76,14.45-19.88,21.09-30.23c2.59-0.08,5.19-0.13,7.78-0.14c16.17-0.06,38.75,0.84,51.61,12.75
		c-40.28,30.08-87.94,48.02-137.87,52.86c-20.47,1.98-41.12,2.71-61.67,1.84c-11.27-0.48-43.78-0.58-47.63-15.24
		c-0.19-0.74-0.5-1.34-0.88-1.85C221.41,324.09,221.44,324.01,221.49,323.94z M213.62,333.22c5.99,11.42,22.33,14.62,33.92,16.56
		c24.04,4.02,49.12,2.91,73.32,1.25c47.22-3.24,92.74-16.66,132.92-41.08c6.14,9.24,13.17,17.77,20.2,26.32
		c-9.24,12.35-20.39,23.19-29.29,35.83c-13.08-0.04-25.51,4.02-38.45,5.81c-1.55-1.25-3.71-1.62-5.87-0.14
		c-16.1,11.04-28.67,26.36-41.72,40.74c-33.08-12.72-74.09-20.88-106.88-3.95c-8.1-6.33-15.25-13.8-23.58-19.8
		c-0.1-2.59-1.8-4.95-5.05-4.67c-0.3-0.17-0.59-0.32-0.94-0.44c-11.17-4.01-23.01-5.69-34.84-5.34
		C196.21,367.33,204.79,350.21,213.62,333.22z M163.95,400.27c3.77-2.3,7.65-4.48,11.47-6.72c0.86,1.31,2.33,2.17,4.43,1.95
		c5.99-0.63,11.95-0.67,17.85-0.18c-13.83,3.6-27.53,7.76-41.58,9.36C159,403.04,161.8,401.58,163.95,400.27z M144.38,416.05
		c2.98,0.03,5.92-0.1,8.85-0.34c-3.58,55.09,27.54,109.59,61.68,150.35c12.76,15.24,27.79,30.34,44.52,43.2
		C187.68,572.61,134.94,499.86,144.38,416.05z M541.09,531.55c-30.42,53.87-90.47,92.26-151.21,101
		c-7.94,1.14-15.92,1.78-23.92,1.95c-0.64-0.88-1.61-1.59-2.97-1.92c-50.04-12.28-86.98-54.67-111.05-98.13
		c-3.35-6.04-12.36-0.26-9.03,5.76c20.58,37.16,50.38,73.02,88.94,92.21c-0.7-0.1-1.4-0.21-2.1-0.32
		c-43.35-9.07-81.22-42.43-108.66-75.2c-32.3-38.57-60.76-90.72-57.01-142.59c18.41-3.2,36.24-9.95,54.88-12.89
		c9.05,5.62,16.3,13.63,24.57,20.32c-0.04,0.61,0.07,1.21,0.24,1.81c-3.23,21.03-1.3,42.12,3.52,62.8
		c1.58,6.73,11.79,3.53,10.23-3.15c-4.42-18.96-6.26-38.45-3.25-57.75c1.29-0.74,2.57-1.47,3.89-2.12
		c1.28,12.4,2.25,24.8,4.79,37.04c1.39,6.76,11.62,3.55,10.23-3.15c-2.59-12.51-3.32-25.25-4.71-37.92
		c27.76-8.54,60.35-1.03,86.5,9.19c1.78,2.54,5.58,3.79,8.33,0.83c11-11.86,21.45-24.9,33.85-35.48
		c11.21,58.94,9.49,119.7,7.78,179.4c-0.2,6.92,10.52,6.54,10.71-0.32c1.75-61.46,3.22-123.74-8.68-184.35
		c14.58-2.07,28.66-6.95,43.58-5.47c4.42,0.44,5.8-3.84,4.43-7.12c8.32-11.53,18.38-21.69,27.06-32.95
		c1.09,0.02,2.15-0.25,3.09-0.75c0.76,0.45,1.7,0.72,2.85,0.67c8.58-0.44,17.04-1.97,25.54-3c1.75,0.73,3.72,0.42,5.24-0.54
		c2.02-0.18,4.04-0.32,6.06-0.38c0.39,1.72,0.67,3.43,0.76,5.36c0.18,3.71,3.35,5.31,6.21,4.94c14.45,30.17,28.94,59.81,31.41,93.76
		C565.47,474.16,556.24,504.72,541.09,531.55z"/>
</g>
</svg>
