<?xml version="1.0" encoding="utf-8"?>
<!-- Generator: Adobe Illustrator 24.2.3, SVG Export Plug-In . SVG Version: 6.00 Build 0)  -->
<svg version="1.1" id="Layer_1" xmlns="http://www.w3.org/2000/svg" xmlns:xlink="http://www.w3.org/1999/xlink" x="0px" y="0px"
	 viewBox="0 0 700 700" style="enable-background:new 0 0 700 700;" xml:space="preserve">
<style type="text/css">
	.st0{fill:#F9834E;}
</style>
<g>
	<path className="st0" d="M398.68,561c5.19-46.73,9.67-93.5,13.58-140.31c2.06-24.6,4.28-49.26,6.16-73.92
		c18.62,10.04,46.12-12.72,56.72-26.03c18.3-22.98,13.48-54.26-9.86-71.88c-23.47-17.71-56.96-21.91-82.56-4.1
		c-5.31,3.69-10.23,8.1-14.26,12.92c-13.68-1.65-27.68-1.89-41.4-1.35c-12.54,0.5-25.14,1.88-37.45,4.56
		c-0.73-1.67-1.48-3.33-2.19-5c-15.2-35.22-44.79-107.48-60.68-142.43c-0.76-1.67-2.47-1.98-3.9-1.48
		c-6.26-0.06-11.85,3.92-15.76,8.38c-1.46,0.66-2.5,2.17-1.71,3.93c4.36,9.71,9.77,22.23,15.65,36.02
		c-0.37,1.59,0.39,2.92,1.56,3.67c15.2,35.72,33.09,78.81,43.97,103.68c-6.75,2.75-13.14,6.49-16.55,11.92
		c-1.49-0.14-3.13,0.86-2.97,2.73c0.11,1.27,0.26,2.53,0.39,3.8c-1.14,4.99-0.5,8.99,1.41,12.2c2.62,19.76,6.63,39.44,10.05,59.01
		c4.13,23.65,8.4,47.28,12.68,70.91c8.54,47.12,17.16,94.23,24.68,141.52c0.29,1.86,1.9,2.62,3.48,2.51
		c7.54,14.26,36.32,14.06,50.22,12.44c14.23-1.64,41.96-6.77,47.92-21.95C398.29,562.33,398.6,561.75,398.68,561z M217.14,125.04
		c-1.69,0.38-2.73-0.09-4.34-0.47c-0.07-0.02-0.14-0.02-0.22-0.04c-0.13-0.28-0.25-0.57-0.38-0.85c1.38-1.52,2.86-2.94,4.66-4.06
		c0.93-0.58,1.92-1.02,2.92-1.43c0.85,1.5,1.57,2.84,0.05,4.77C219.2,123.79,218.25,124.79,217.14,125.04z M215.64,131.37
		c3.81-0.18,7.75-2.31,9.57-5.29c0.7,1.6,2.59,6,5,11.63c-0.73,0.49-1.32,1.23-1.58,2.27c-1.01,4.04-2.54,7.99-4.16,11.89
		C220.5,142.58,217.07,134.61,215.64,131.37z M231.46,168.24c0.35-0.42,0.62-0.93,0.77-1.55c1.11-4.46,3.26-8.78,4.7-13.22
		c5.08,11.92,10.12,23.74,11.35,26.62c-2.37,2.58-2.83,7.43-3.73,10.48c-0.36,1.22-1.05,2.86-1.64,4.57
		C241.22,191.16,236.53,180.13,231.46,168.24z M248.36,208.01c2.38-2.41,2.69-6.55,3.48-9.58c0.49-1.89,1.15-3.96,1.67-6.05
		c2.36,5.58,4.72,11.17,7.06,16.76c-0.08,0.12-0.18,0.2-0.24,0.32c-2.34,4.68-3.54,9.69-5.25,14.56
		C252.84,218.69,250.6,213.35,248.36,208.01z M260.76,237.57c0.27-0.24,0.52-0.53,0.71-0.89c2.09-3.76,4.17-8.52,5.1-13.26
		c1.8,4.29,3.61,8.57,5.42,12.86c-1.72,2.93-2.25,6.54-3,9.73c-0.53,2.29-1.17,4.55-1.83,6.79
		C265.01,247.73,262.89,242.65,260.76,237.57z M419.04,338.51c1.05-14.49,1.94-28.98,2.61-43.46c3.81,4.53,7.54,9.12,11.13,13.8
		c5.48,7.15,10.24,15.36,16.49,21.95C441.09,337.59,430.89,339.3,419.04,338.51z M456.36,322.86c-0.97,1.45-2,2.76-3.06,3.98
		c-3.79-7.84-10.1-15.05-15.42-21.89c-4.89-6.27-9.91-12.43-15.12-18.45c13.22,1.52,27.45,0.87,40.51,0.09
		C465.17,298.83,463.51,312.22,456.36,322.86z M391.53,279.72c2.58,0.38,5.18,0.86,7.8,1.31c-9.8,2.18-19.55,5.42-28.97,8.64
		c-0.6-4.82,0.27-9.44,2.24-13.72c0.12,0.08,0.21,0.16,0.35,0.22C378.42,278.62,385.54,278.83,391.53,279.72z M375.47,270.96
		c7-10.01,20-17.61,33.23-20.64c-1.64,8.49-0.21,17.23-0.27,25.85c-4.46-1.07-9.16-1.62-13.61-2.31
		C388.65,272.89,381.8,270.97,375.47,270.96z M409.5,284.04c-8.52,9.66-21.07,14.21-34.82,16.37c-0.19-0.5-0.5-0.99-1.01-1.41
		c-0.19-0.16-0.35-0.32-0.54-0.49c-0.48-0.95-0.9-1.91-1.26-2.87C384.36,291.64,397.23,288.52,409.5,284.04z M413.79,249.38
		c4.33-0.6,8.61-0.69,12.62-0.17c4.03,0.53,7.81,1.57,11.31,3.01c-4.28,5.51-8.86,10.84-13.44,16.14c-2.55,2.96-6.58,6.54-9.09,10.2
		c-0.09-0.08-0.23-0.15-0.34-0.22C415.26,268.71,414.26,258.96,413.79,249.38z M429.15,271.6c4.38-5.48,8.69-11,12.66-16.74
		c0.12-0.18,0.21-0.36,0.28-0.53c9.6,5.33,16.52,14.13,19.56,24.81c0.22,0.77,0.42,1.56,0.61,2.35c-12.91-1.22-26.07-1.09-39.1-1.71
		C425.34,276.99,427.31,273.9,429.15,271.6z M392.48,246.54c22.16-11.59,50.01-7.56,68.55,7.7c19.27,15.87,25.27,42.54,8.36,62.68
		c-2.07,2.47-4.59,5.22-7.42,7.97c9.34-16.34,10.88-38.84,3.56-54.24c-8.58-18.07-26.64-28.97-48.36-27.8
		c-19.01,1.01-41.7,13.46-50.41,30.09C370.96,262.18,381.78,252.14,392.48,246.54z M296.2,266.28c11.78-2.15,23.53-3.48,35.5-3.71
		c10.77-0.21,21.66-0.01,32.41,1.03c-7.77,12.21-9.31,26.15,2.13,37.86c-16.35,1.53-33.53,0.6-47.13,1.43
		c-3.21,0.2-6.44,0.43-9.68,0.64c-5.94-12.05-11.66-24.22-17.13-36.52C293.63,266.75,294.93,266.52,296.2,266.28z M293.65,291.39
		c0.17-1.6,0.3-3.21,0.37-4.81c2.46,5.41,4.96,10.8,7.53,16.17c-0.58,0.28-1.08,0.73-1.39,1.29c-3.24,0.15-6.49,0.24-9.73,0.24
		c-0.22-0.46-0.45-0.92-0.67-1.39C292.71,300.24,293.31,294.56,293.65,291.39z M299.9,310.59c-0.01,4.06-0.15,8.09-0.37,12.13
		c-2.01-3.98-3.99-7.97-5.94-11.98C295.75,310.72,297.86,310.67,299.9,310.59z M282.9,261.58c0.89,2.02,1.77,4.05,2.67,6.07
		c-0.13,0.21-0.24,0.45-0.29,0.71c-0.96,4.58-1.75,9.2-2.98,13.74c-0.26,1-0.58,1.99-0.91,2.98c-2.96-6.42-5.86-12.87-8.69-19.38
		c2.36-2.12,2.61-6.93,3.11-9.4c0.51-2.51,1.04-5.03,1.51-7.57C279.17,253.02,281.02,257.3,282.9,261.58z M253.61,287.77
		c0.41-2.05,1.69-4.31,4.11-6.72c3.16-3.16,7.09-5.59,11.41-7.52c4.48,10.18,9.02,20.4,13.75,30.55c-2.41-0.14-4.81-0.32-7.21-0.61
		c-6.83-0.84-17.16-4.27-20.85-9.88C254.43,291.64,254.03,289.7,253.61,287.77z M351.1,578.01c-17.89,1.97-34.13,0.75-47.02-10.99
		c-0.41-0.38-0.95-0.61-1.51-0.74c-7.47-46.48-16-92.78-24.37-139.11c-4.5-24.87-8.97-49.75-13.32-74.66
		c-2.73-15.64-5.01-31.45-7.82-47.13c7.58,3.7,18.38,5.02,28.96,5.31c4.93,10.34,10.09,20.57,15.64,30.61
		c-6.73,0.98-15.66,3.64-19.37,9.31c-1.17,0.52-2.03,1.56-1.69,2.9c0.07,0.26,0.12,0.52,0.19,0.78c-0.19,0.91-0.29,1.86-0.22,2.89
		c0.19,2.74,1.19,5.19,2.7,7.34c9.78,42.68,12.27,86.09,15.75,129.52c-0.32,0.82-0.26,1.73,0.21,2.46
		c1.47,18.19,3.14,36.37,5.63,54.52c0.04,0.31,0.14,0.58,0.26,0.84c-0.01,0.83,0.34,1.69,1.2,2.4
		c19.81,16.39,65.62,21.08,77.86-6.67c0.22-0.37,0.36-0.82,0.38-1.36c1.28-34.88,3.32-69.74,5.58-104.6
		c1.22-18.95,2.51-37.9,4.12-56.82c0.55-6.58,1.18-13.15,1.89-19.71c0.23-2.16,0.8-4.48,0.7-6.65c-0.07-1.51,0.25-1.98-0.02-1.85
		c0.04-0.27,0.06-0.54,0.07-0.81c0.14-0.5,0.12-1.01-0.07-1.45c-0.6-3.97-4.23-7.26-8.41-9.19c-17.64-8.13-42.13-9.49-62.01-8.54
		c-4.75-8.86-9.36-17.76-13.85-26.72c0.92-0.06,1.79-0.12,2.58-0.17c31.02-2.03,78.21,4.19,100.25-21.91
		c0.24,0.26,0.46,0.53,0.7,0.79c-1.56,16.62-2.86,33.25-4.07,49.89c-0.54,0.83-0.71,1.86-0.21,2.78
		c-1.9,26.28-3.63,52.59-5.89,78.85c-4.03,46.79-8.55,93.57-13.79,140.28c-0.02,0.18-0.01,0.34,0,0.5
		C382.11,571.91,366.1,576.35,351.1,578.01z M311.88,327.33c0.01-1.26,0.02-2.57,0.01-3.88c6.13,11.7,12.71,23.17,19.95,34.24
		c-3.27,1.57-8.47,1.36-13.56,0.47c-3.16-5.72-6.29-11.44-9.34-17.19C311.61,337.16,311.86,331.54,311.88,327.33z M303.55,347.11
		c0.46-0.08,0.85-0.22,1.2-0.4c1.84,3.23,3.74,6.41,5.67,9.59c-2.64-0.78-4.84-1.59-6.13-2.17c-3.36-1.53-6.42,3.64-3.23,5.42
		c6.51,3.65,26.68,8.12,35.65,2.55c0.82-0.23,1.56-0.81,1.91-1.53c1.51-1.55,2.43-3.61,2.48-6.29c0.06-3.31-4.45-4.06-5.75-1.33
		c-1.99-3.57-3.96-7.15-5.9-10.73c14.1,0.68,28.32,1.26,42.08,4.11c3.73,0.77,20.2,3.61,18.94,9.43
		c-1.31,6.03-13.81,8.26-18.91,9.33c-18.57,3.89-38.16,5.4-57.06,4.88c-7.84-0.22-16.48-0.79-22.61-5.77
		c-0.91-0.74-1.65-1.46-2.27-2.16c-0.61-2.08-1.25-4.15-1.93-6.21C289.07,351.22,296.9,348.16,303.55,347.11z M315.74,488.65
		c0.2-6.18-4.72-11.35-11.24-12.31c-0.6-9.11-1.21-18.22-1.93-27.32c-2.03-25.62-4.16-52.02-10.33-77.23
		c2.87,1.43,5.98,2.45,8.97,3.05c10,1.97,20.74,1.4,30.95,0.91c13.44-0.64,27.16-1.69,40.34-4.7c4.84-1.1,11.2-2.41,16.25-5.06
		c-0.35,4.04-0.33,7.81-0.47,9.26c-1.83,19.16-3.11,38.37-4.37,57.56c-2.46,37.59-4.69,75.17-6.05,112.78
		c-0.01,0.28,0.02,0.53,0.07,0.78c-13.31,23.37-47.5,14.17-66.6,3.44c-2.57-17.25-4.11-34.63-5.36-52.04
		C310.91,496.95,315.58,493.66,315.74,488.65z M305.52,491.52c-0.2-2.91-0.4-5.83-0.59-8.75c2.34,1.05,4.6,2.63,4.3,5.28
		C308.98,490.27,307.41,491.15,305.52,491.52z"/>
	<path className="st0" d="M363.97,428.27c-1.24-5.84-7.28-8.03-13.24-6.54c-5.41,1.36-9.5,6.31-7.9,11.56
		c1.64,5.35,6.07,8.96,12.04,9.81c1.85,0.26,3.04-0.79,3.44-2.09C362.15,438.13,364.93,432.82,363.97,428.27z M355.15,436.89
		c-2.57-0.47-5.3-2.12-5.89-4.62c-0.62-2.66,0.86-4.7,3.99-4.95C359.76,426.8,357.87,433.4,355.15,436.89z"/>
	<path className="st0" d="M331.44,458.78c0.4-1.46,0.24-3.26-0.57-4.57c-0.25-0.41-0.59-0.82-0.93-1.25c0.96-1.55,0.3-3.67-1.62-4.35
		c-1.29-0.45-2.73-0.06-3.96,0.41c-2.28,0.87-5.05,2.13-6.07,4.36c-0.62,1.36,0,2.68,1.09,3.56c1,0.82,1.97,2.07,3.19,2.88
		c1.53,1.01,3.5,1.26,5.3,1.63C329.72,461.82,331.06,460.21,331.44,458.78z"/>
	<path className="st0" d="M321.81,396.03c-1.73-0.17-2.79,1.04-2.86,2.34c-4.23,2.11-7.64,5.49-7.51,10.23c0.1,3.61,2.87,7.54,6.69,8.62
		c5.59,1.59,9.56-2.17,11.63-6.81C332.56,404.12,329.72,396.82,321.81,396.03z M322.48,410.12c-1.09,1.43-1.25,1.85-2.47,1.03
		c-4.4-2.93-0.05-6.56,3.71-8.04c0.42,0.45,0.73,0.95,0.8,1.54C324.75,406.61,323.68,408.53,322.48,410.12z"/>
	<path className="st0" d="M349.63,497.31c-4.13,4.37-3.55,13.22,2.06,16.19c2.82,1.49,6.03,2,9.28,1.31c2.81-0.59,6.94-1.73,8.51-4.18
		c0.66-1.03,0.65-2.24,0.14-3.17c0.78-4.37-0.56-8.77-5.03-11.32C359.98,493.51,353.57,493.14,349.63,497.31z M354.52,500.94
		c1.95-1.53,4.85-1.09,6.74,0.24c2,1.42,2.76,3.56,2.57,5.76c-2.55,1.12-5.13,2.7-7.93,1.61
		C353.3,507.53,352.14,502.81,354.52,500.94z"/>
	<path className="st0" d="M356.86,475.34c2.28,2.15,6.17,4.03,9.51,3.6c1.03-0.13,1.74-0.75,2.13-1.51c0.1-0.06,0.2-0.1,0.3-0.18
		c1.85-1.42,2.87-4.05,3.38-6.16c0.37-1.53,0.31-3.02-0.16-4.51c-0.88-2.75-3.93-3.77-6.77-3.65c-3.78,0.15-8.35,2.76-9.68,6.17
		C354.72,471.26,355.13,473.71,356.86,475.34z M361.92,470.32c0.02-0.02,0.04-0.04,0.06-0.06c0.15-0.12,0.3-0.24,0.44-0.35
		c0.16-0.11,0.31-0.22,0.48-0.32c0-0.01,0,0,0.01-0.01c0.33-0.18,0.68-0.35,1.03-0.5c0.18-0.07,0.36-0.14,0.54-0.21
		c0.35-0.09,0.69-0.17,1.04-0.21c0.08-0.01,0.16-0.01,0.24-0.02c0.02,0,0.04,0,0.07,0.01c0.13,0,0.26,0.02,0.39,0.04
		c0.01,0.01,0.01,0.02,0.02,0.04c0.02,0.14,0.04,0.29,0.05,0.44c0,0.08-0.01,0.17-0.01,0.23c-0.02,0.25-0.06,0.5-0.11,0.74
		c-0.04,0.2-0.22,0.93-0.11,0.54c-0.08,0.27-0.17,0.59-0.19,0.67c-0.01,0.03-0.03,0.07-0.03,0.1c-0.11,0.34-0.23,0.67-0.34,1.02
		c-0.07,0.21-0.14,0.4-0.21,0.61c-0.63-0.18-1.26-0.37-1.9-0.61c-0.28-0.11-0.57-0.22-0.85-0.34c-0.02-0.02-0.03-0.02-0.07-0.05
		c-0.26-0.16-0.51-0.33-0.75-0.51c-0.1-0.1-0.24-0.23-0.35-0.36c-0.01-0.01-0.01-0.03-0.02-0.05c0-0.01,0-0.01,0-0.02
		c0.03-0.07,0.05-0.15,0.08-0.22C361.58,470.72,361.74,470.51,361.92,470.32z"/>
	<path className="st0" d="M323.66,533.25c0.05,0.98,0.5,1.92,1.37,2.51c0.99,0.66,2.11,0.64,3.22,0.27c0.28-0.1,0.41-0.15,1.11-0.26
		c2.07-0.33,4.29-0.13,6.32-0.67c2.63-0.69,4.75-2.26,4.91-4.98c0.19-3.05-1.48-7.19-4.8-8.04c-0.93-0.98-2.07-1.76-3.4-2.07
		c-2.41-0.55-4.88,0.33-6.19,2.39C324.2,525.55,323.46,529.64,323.66,533.25z M331.14,526c0.82,0.79,1.62,1.6,2.43,2.41
		c0.02,0.02,0.05,0.03,0.07,0.05c0.08,0.24,0.16,0.49,0.21,0.73c-1.23,0.21-2.45,0.32-3.66,0.47c0.06-0.45,0.11-0.9,0.2-1.35
		c0.06-0.29,0.13-0.57,0.2-0.85c0.03-0.09,0.19-0.61,0.22-0.68C330.9,526.51,331.02,526.26,331.14,526z"/>
	<path className="st0" d="M358.48,412.66c7.76,1.79,18.72-3.29,19.17-11.49c0.34-6.13-4.23-14.42-11.22-16
		c-0.62-0.62-1.51-1.03-2.64-0.98C348.17,384.82,342.49,408.97,358.48,412.66z M363.73,390.25c3.65,2.28,7.85,4.85,7.49,9.56
		c-0.38,4.76-6.72,8.73-11.66,6.73c-3.6-1.46-4.52-5.71-3.8-9.05C356.66,393.36,359.54,390.98,363.73,390.25z"/>
</g>
</svg>
