<?xml version="1.0" encoding="utf-8"?>
<!-- Generator: Adobe Illustrator 24.2.3, SVG Export Plug-In . SVG Version: 6.00 Build 0)  -->
<svg version="1.1" id="Layer_1" xmlns="http://www.w3.org/2000/svg" xmlns:xlink="http://www.w3.org/1999/xlink" x="0px" y="0px"
	 viewBox="0 0 700 700" style="enable-background:new 0 0 700 700;" xml:space="preserve">
<style type="text/css">
	.st0{fill:#F9834E;}
</style>
<g>
	<path className="st0" d="M611.25,250.29c-8.19-10.62-27.25-5.84-39.23-7.1c-4.23-4.05-9.11-7.4-14.37-9.97
		c-0.79-29.16-21.38-57.06-48.21-67.79c-29.72-11.9-66.66-5.59-92.23,13.16c-32.94,24.15-37.03,72.8-17.82,105.79
		c-64.9-19.78-136.42-19.92-201.27-0.48c-34.04,10.2-77.49,30.57-93.9,64.72c-0.21-0.01-0.41-0.03-0.63,0
		c-8.79,0.76-15.75,6.18-16.9,15.18c-0.75,5.91,2.59,10.05,7.24,11.68c-4.68,8.77,0.92,19.38,9.89,20.34
		c-1.96,4.88-2,10.27,1.82,14.84c1.07,1.28,2.19,2.3,3.35,3.11c11.22,31.33,42.85,51.71,71.89,65.51
		c36.97,17.58,76.73,25.28,117.59,25.57c48.3,0.34,97.51-9.02,142.08-27.38c15.14-6.24,29.32-15.15,42.31-25.01
		c6.18-4.69,15.79-14.65,20.99-24.83c1.16-0.51,2.3-1.09,3.39-1.8c7.19-4.72,9.05-12.57,6.95-20.01
		c15.18-0.74,23.55-21.29,13.43-33.96c6.82-18.98,7.16-39.44-4.29-56.17c9.44-5.76,17.66-13.62,22.29-23.73
		c14.29,2.71,27.75,5.23,42.56,1.94c4.32-0.96,8.39-2.81,10.16-7.05c1.61-3.84-1.78-7.41-5.15-9.96c1.15-0.53,2.11-0.99,2.79-1.35
		C603.52,271.59,619.26,260.69,611.25,250.29z M94.05,363.89c0.28-3.8,3.53-6.36,6.98-7.41c-1.35,4.01-2.33,8.19-2.9,12.54
		C95.19,369.08,93.81,367.08,94.05,363.89z M101.04,377.59c1.83,3.56,3.89,6.93,6.15,10.13
		C100.99,388.98,95.78,383.09,101.04,377.59z M112.82,394.9c3.44,3.95,7.2,7.62,11.23,11.03
		C114.49,412.14,106.89,403.63,112.82,394.9z M471.06,451.9c-12.61,8.78-25.85,15.92-40.15,21.59
		c-41.72,16.55-87.57,23.82-132.36,24.02c-38.52,0.17-75.84-7.53-110.94-23.18c-26.91-11.99-57.17-30.4-69.65-58.17
		c2.96-0.28,5.93-1.41,8.74-3.12c1.95,8.37,5.72,16.13,12.71,21.54c2.44,1.89,6.61,2.81,9.61,2.24c2.59-0.51,3.61-0.94,6.08-1.99
		c0.94-0.4,1.6-0.76,2.07-1.08c4.01,15.33,20.97,22.21,32.26,12.8c5.85,15.67,24.15,26.31,36.59,15.35
		c5.1,13.61,24.43,18.8,34.42,8.81c7.1,15.81,31.76,14.6,44.17,1.53c3.09,6.4,9.5,10.52,17.64,10.79
		c8.94,0.3,15.93-4.84,19.51-12.11c4.54,5.82,11.12,9.66,19.06,9.76c9.19,0.12,14.91-6.23,17.52-13.95
		c13.39,12.41,40.19,9.21,42.82-9.22c13.74,5.56,31.46,2.7,33.62-12.35c13.25,4.82,29.94-1.78,31.5-16.83
		c2.17,0.74,4.43,1.14,6.7,1.27C486.57,439.72,476.52,448.1,471.06,451.9z M134.6,413.89c6.47,4.4,13.36,8.29,20.47,11.79
		C144.28,434.1,137.72,424.13,134.6,413.89z M163.72,429.71c7.63,3.37,15.4,6.35,23.06,9.06c-7.16,9.02-18.92,4.51-22.47-6.25
		C163.97,431.48,163.82,430.55,163.72,429.71z M195.49,441.78c0.44,0.15,0.89,0.3,1.33,0.45c9.31,3.1,18.76,6.15,28.28,8.98
		C216.04,467.26,198.77,455.73,195.49,441.78z M232.19,453.28c8.67,2.46,17.4,4.69,26.15,6.56
		C253.58,475.79,231.27,468.39,232.19,453.28z M265.86,461.35c0.57,0.11,1.14,0.23,1.71,0.34c10.91,2.02,21.97,3.18,33.08,3.68
		C290.89,477.38,266.43,480.83,265.86,461.35z M310.17,465.62c8.75,0.09,17.51-0.21,26.23-0.83
		C332.62,478.02,312.49,479.44,310.17,465.62z M345.89,463.99c3.87-0.38,7.72-0.81,11.56-1.29c4.92-0.62,9.88-1.29,14.86-2
		C369.92,476.61,352.95,475.79,345.89,463.99z M381.72,459.3c10.63-1.67,21.29-3.65,31.86-6.1c0.03,0.03,0.06,0.06,0.09,0.08
		c0.14,0.11,0.28,0.2,0.42,0.3C415.45,470.34,390.99,470.01,381.72,459.3z M424.19,450.55c7.99-2.14,15.86-4.59,23.56-7.45
		C447.37,454.5,433.94,454.27,424.19,450.55z M458.38,438.85c6.98-3.01,13.77-6.38,20.31-10.21
		C476.71,437.38,466.77,441.48,458.38,438.85z M489.76,421.52c0.85-0.6,1.73-1.15,2.57-1.77c4.99-3.65,9.86-8.13,14.39-13.19
		C510.93,417.54,499.73,423.87,489.76,421.52z M513.4,398.33c4.09-5.58,7.72-11.64,10.69-17.98
		C526.91,388.33,521.84,398.06,513.4,398.33z M508.65,314.92c-4.36,1.82-0.7,8.21,3.63,6.4c1.55-0.65,3.09-1.36,4.61-2.1
		c12.88,17.69,7.15,46.17-2,64.3c-7.47,14.78-20.06,26.12-33.83,35.07c-0.43,0.16-0.82,0.42-1.17,0.75c-2.24,1.43-4.51,2.8-6.8,4.11
		c-38.5,22.07-86.99,29.45-130.44,33.48c-50.09,4.64-96.59-6.35-143.79-21.76c-35.78-11.68-77.16-28.76-93.46-65.4
		c5.74-45.93,62.62-69.53,101.34-80.74c64.22-18.59,136.21-15.99,199.51,5.28c10.37,12.57,24.95,21.45,43.31,23.43
		c4.72,0.51,4.77-6.85,0.1-7.36c-15.47-1.67-27.77-9.21-36.84-19.97c-0.24-0.91-0.83-1.72-1.81-2.23
		c-6.74-8.74-11.51-19.32-14.2-30.55c-6.76-28.13,3.15-57.36,26.55-74.51c21.28-15.61,52.87-20.43,77.95-12.91
		c26.51,7.95,47.81,34.56,48.95,62.4c-0.56,0.55-0.98,1.28-1.11,2.21c-2.17,15.19-10,28.83-20.69,39.64c-0.01,0-0.01,0.01-0.01,0.01
		c-1.01,0.55-1.79,1.53-1.92,2.97c-0.77,8.43,4.1,12.15,11.58,13.11C531.87,302.14,520.67,309.88,508.65,314.92z M586.31,286.78
		c-4,1.07-8.22,1.32-12.34,1.53c-3.82,0.18-7.57-0.08-11.3-0.57c8.13-2.1,16.2-4.95,22.5-7.45c0.12,0.1,0.23,0.2,0.37,0.28
		C590.59,283.77,592.68,285.08,586.31,286.78z M592.35,269.14c-5.75,3.2-55.51,22.42-58.34,10.15
		c10.69-10.95,18.28-24.19,21.5-39.05c3.72,1.92,7.2,4.4,10.3,7.2c0.12,1.26,0.91,2.36,2.6,2.63c9.09,1.48,18.42,0.45,27.58,1.31
		C613.53,253.01,600.67,264.51,592.35,269.14z"/>
	<path className="st0" d="M479.35,219.61c-11.82,7.12-11.63,26.68-0.39,34.49c8.16,5.66,23.89,7.96,30.53,0.09
		c8.97-4.59,10.06-19.41,5.17-28.29C509.37,212.75,490.37,209.41,479.35,219.61z M485.92,227.08c0.54-1.16,1.67-1.9,2.92-2.26
		l1.86,0.02c1.92,0.03,6.94,1.21,3.87,7.76C492.6,236.83,482.25,235.05,485.92,227.08z M506.33,245.66
		c-2.39,3.61-4.31,6.53-15.96,4.89c-4.59-0.64-4.52-7.13,0.09-7.18c1.69-0.02,7.77-0.65,8.72-2.09c1.08-1.63,2.29-7.51,7.26-5.17
		C509.17,237.38,507.41,244.04,506.33,245.66z"/>
	<path className="st0" d="M416.45,344.94c-2.22,9.88-7.28,17.68-14.16,23.84c-9.33-11.76-27.03-17.1-40.91-21.01
		c-18.81-5.3-38.66-7.37-58.14-7.81c-32.88-0.74-74.45,3.89-97.46,30.25c-8.3-6.05-14.62-14.01-17.68-24.56
		c-1.32-4.55-8.44-2.71-7.12,1.86c13.86,47.84,83.09,48.41,123.06,50.28c39.4,1.84,108.66-2.77,119.47-50.81
		C424.56,342.37,417.49,340.32,416.45,344.94z M304.15,390.45c-25.22-1.07-65.78-1.34-92.19-16.27
		c20.69-23.48,59.02-26.82,88.11-26.89c17.33-0.04,34.71,1.91,51.62,5.64c13.96,3.07,35.69,8.36,44.83,20.37
		C371.48,390.42,329.96,391.55,304.15,390.45z"/>
	<path className="st0" d="M213.2,323c6.06-4.94,14.55-6.07,21.98-7.56c4.65-0.94,2.78-8.05-1.86-7.12c-8.91,1.79-18.03,3.52-25.25,9.41
		C204.39,320.73,209.55,325.98,213.2,323z"/>
	<path className="st0" d="M257.72,310.63c17.59-4.03,35.02-2.87,52.78-1.03c4.72,0.49,4.78-6.87,0.09-7.36
		c-18.42-1.91-36.54-2.9-54.74,1.26C251.24,304.56,253.1,311.68,257.72,310.63z"/>
</g>
</svg>
