<svg width="112" height="112" viewBox="0 0 112 112" fill="none" xmlns="http://www.w3.org/2000/svg">
<g filter="url(#filter0_d_85_1822)">
<rect x="26" y="9" width="60" height="60" rx="30" fill="#FF5B0D"/>
<path d="M58.5716 33.5707C59.3294 33.5707 60.0561 33.8718 60.5919 34.4076C61.1278 34.9434 61.4288 35.6701 61.4288 36.4279M58.5716 27.8564C60.8449 27.8564 63.0251 28.7595 64.6326 30.367C66.24 31.9744 67.1431 34.1546 67.1431 36.4279M44.2859 29.285H50.0002L52.8574 36.4279L49.2859 38.5707C50.8159 41.6729 53.3266 44.1836 56.4288 45.7136L58.5716 42.1422L65.7145 44.9993V50.7136C65.7145 51.4713 65.4135 52.1981 64.8777 52.7339C64.3418 53.2697 63.6151 53.5707 62.8574 53.5707C57.2849 53.2321 52.029 50.8657 48.0814 46.9181C44.1338 42.9705 41.7674 37.7146 41.4288 32.1422C41.4288 31.3844 41.7298 30.6577 42.2656 30.1219C42.8014 29.586 43.5282 29.285 44.2859 29.285Z" stroke="white" stroke-width="2.85714" stroke-linecap="round" stroke-linejoin="round"/>
</g>
<defs>
<filter id="filter0_d_85_1822" x="0.285713" y="0.42857" width="111.429" height="111.429" filterUnits="userSpaceOnUse" color-interpolation-filters="sRGB">
<feFlood flood-opacity="0" result="BackgroundImageFix"/>
<feColorMatrix in="SourceAlpha" type="matrix" values="0 0 0 0 0 0 0 0 0 0 0 0 0 0 0 0 0 0 127 0" result="hardAlpha"/>
<feOffset dy="17.1429"/>
<feGaussianBlur stdDeviation="12.8571"/>
<feComposite in2="hardAlpha" operator="out"/>
<feColorMatrix type="matrix" values="0 0 0 0 0.976471 0 0 0 0 0.52982 0 0 0 0 0.305882 0 0 0 0.6 0"/>
<feBlend mode="normal" in2="BackgroundImageFix" result="effect1_dropShadow_85_1822"/>
<feBlend mode="normal" in="SourceGraphic" in2="effect1_dropShadow_85_1822" result="shape"/>
</filter>
</defs>
</svg>
