<?xml version="1.0" encoding="utf-8"?>
<!-- Generator: Adobe Illustrator 24.2.3, SVG Export Plug-In . SVG Version: 6.00 Build 0)  -->
<svg version="1.1" id="Layer_1" xmlns="http://www.w3.org/2000/svg" xmlns:xlink="http://www.w3.org/1999/xlink" x="0px" y="0px"
	 viewBox="0 0 700 700" style="enable-background:new 0 0 700 700;" xml:space="preserve">
<style type="text/css">
	.st0{fill:#F9834E;}
</style>
<g>
	<path className="st0" d="M378.66,341.32c-0.47-1.05-1.3-1.62-2.34-1.63c-1.07,0-2.17,0.63-2.8,1.61c-0.61,0.95-0.69,2.04-0.22,3.08
		c5.17,11.41,9.68,22.11,13.81,32.71c0.5,1.29,1.65,2.07,3.07,2.07c1.11,0,2.14-0.49,2.68-1.28c0.34-0.49,0.64-1.31,0.19-2.47
		C388.73,364.31,384.02,353.15,378.66,341.32z"/>
	<path className="st0" d="M363.2,309.05c4.3-2.47,8.87-3.77,13.2-3.76c6.3,0.01,11.98,2.7,16.42,7.78c2.67,3.06,4.81,6.65,6.88,10.12
		c1.64,2.74,3.33,5.58,5.27,8.15c5.21,6.86,12.1,10.35,20.48,10.37c0,0,0,0,0,0c5.02,0.01,10.38-1.24,15.92-3.73
		c13.43-6.03,27.81-21.13,29.32-38.34c1.68-19.23-6.16-43.74-18.65-58.27c-0.57-0.67-1.29-1.02-2.06-1.02
		c-0.87,0-1.75,0.45-2.36,1.22c-74.99,23.78-147.54,47.75-211.02,79.44c-1.47,0.73-1.74,2.06-1.49,3.1
		c-0.4,0.67-0.49,1.45-0.27,2.27c3.45,12.96,7.74,29.08,15.57,41.91c8.93,14.63,20.64,21.91,35.79,22.25
		c0.32,0.01,0.64,0.02,0.95,0.01c16.17,0.03,33.63-8.46,43.46-21.13c6.71-8.64,9.3-17.66,11.11-26.11
		C344.97,328.28,349.85,316.71,363.2,309.05z M456.96,316.26c-0.46,0.65-0.63,1.34-0.52,2.01c-7.1,9.14-18.34,16.89-29.11,17.54
		c10.7-3.39,22.14-12.98,29.38-25.29c1.93-3.28,3.44-6.55,4.54-9.76C461.36,306.82,459.94,312.01,456.96,316.26z M449.17,247.54
		c6.96,8.9,12.71,22.15,14.76,35.36c-3.46-10.13-9.44-21.58-17.99-34.34C447.02,248.23,448.1,247.88,449.17,247.54z M241.06,325.68
		c11.58-5.75,23.57-11.27,35.78-16.56c-1.51,3.05-3.04,6.12-4.64,9.06c-5.49,10.04-11.32,20.1-16.97,29.83
		c-1.45,2.51-2.9,5.01-4.35,7.52C246.34,345.4,243.38,334.4,241.06,325.68z M259.38,370.16c-1.91-2.48-3.64-5.17-5.21-8.01
		c1.96-3.41,3.93-6.83,5.91-10.24c5.18-8.96,10.54-18.23,15.67-27.43c2.54-4.56,4.92-9.41,7.23-14.11c0.81-1.65,1.62-3.3,2.45-4.94
		c4.1-1.73,8.21-3.43,12.34-5.11c-3.47,5.66-6.44,11.74-9.35,17.67c-1.98,4.05-4.03,8.23-6.18,12.17
		c-5.49,10.05-11.34,20.12-16.99,29.87C263.29,363.4,261.33,366.78,259.38,370.16z M269.96,364.19
		c5.24-9.06,10.65-18.43,15.85-27.73c2.54-4.54,4.91-9.38,7.21-14.06c4.11-8.38,8.36-17.05,13.79-24.55
		c0.32-0.45,0.51-0.92,0.56-1.39c46.2-18.3,93.4-33.54,132.52-45.97c0.07,0.14,0.12,0.28,0.21,0.41
		c4.35,6.43,10.23,15.62,14.72,25.57c-0.36,0.83-0.33,1.75,0.16,2.62c4.05,7.25,2.77,17.53-3.51,28.21
		c-8.06,13.71-21.45,23.65-31.84,23.63c-5.2-0.01-9.34-2.44-12.3-7.21c-0.41-0.67-0.99-1.11-1.66-1.32
		c-0.99-1.55-1.93-3.15-2.86-4.73c-2.46-4.17-5-8.48-8.11-11.65c-1.58-1.61-3.31-2.92-5.18-3.97c-0.24-0.89-0.81-1.71-1.9-2.13
		c-6.79-2.63-13.58-3.97-20.19-3.98c-10.9-0.02-21.14,3.51-30.41,10.49c-0.93,0.7-1.21,1.59-1.28,2.24
		c-3.13,4.12-4.27,9.95-5.27,15.1c-0.13,0.66-0.26,1.3-0.38,1.92c-0.47,2.3-0.87,4.62-1.25,6.86c-1.3,7.58-2.52,14.74-6.38,21.61
		c-7.17,12.75-22.7,20.65-40.53,20.61c-5.81-0.01-11.46-0.89-16.61-2.54C266.86,369.55,268.41,366.86,269.96,364.19z M335.15,344.68
		c-4.25,19.84-18.57,33.93-39.3,38.67c-3.3,0.75-6.5,1.13-9.51,1.12c-6.44-0.01-11.93-1.76-16.66-4.72
		c3.87,0.82,7.78,1.25,11.72,1.26c12.36,0.02,24.5-4.05,35.1-11.78c7.69-5.61,12.91-13.09,15.96-22.89
		c1.03-3.31,1.51-7.61,2.02-12.15c0.97-8.7,2.07-18.56,7.54-23.22c0.38-0.32,0.66-0.7,0.84-1.13c6.36-4.22,13.11-6.69,20.13-7.42
		c-0.96,0.4-1.91,0.82-2.87,1.28C343.45,311.82,338.64,328.4,335.15,344.68z"/>
	<path className="st0" d="M344.36,384.51c1.12,6.48,4.83,12.16,11.05,16.9c8.1,6.17,20.66,13.54,34.55,13.57c0.4,0,0.8-0.01,1.2-0.02
		c11.23-0.32,32.12-5.04,40.39-16.41c3.34-4.59,4.2-9.74,2.58-15.28c-0.02-0.3-0.07-0.58-0.17-0.85c-2.74-7.7-7.37-14.08-13.48-21.2
		c0.59,0.02,1.19,0.04,1.78,0.04c0,0,0,0,0,0c23.05,0.05,44.65-16.22,55.03-41.43c5.99-14.54,3.76-29.87,1.21-43.09
		c-3.37-17.39-9.61-34.59-18.05-49.74c-0.1-0.94-0.58-1.8-1.29-2.34c-0.49-0.84-1.23-1.32-2.1-1.43c-0.33-0.58-0.82-1.09-1.6-1.39
		c-4-1.55-8.28-2.66-12.55-3.3c-0.08-0.56-0.32-1.1-0.72-1.59c-6.25-7.54-14.03-11.35-24.85-12.14c-0.32-0.32-0.64-0.64-0.96-0.97
		c-3.4-3.41-6.92-6.93-9.81-10.97c-0.16-0.22-0.28-0.45-0.42-0.67c0.49-0.43,0.81-1.06,0.88-1.83
		c1.27-12.83,25.94-32.67,36.47-40.43c8.04-5.92,16.35-12.05,20.41-20.85c4.24-9.2,4.04-20.37-0.54-30.64
		c-4.48-10.03-12.4-17.44-21.72-20.31c-0.32-0.1-0.63-0.15-0.92-0.15c-0.53,0-0.95,0.19-1.31,0.43c-3.54-0.93-7.42-1.44-11.6-1.45
		c-11.93-0.02-24.68,3.73-33.99,6.47c-41.63,12.26-81.87,30.7-119.15,48.8c-5.54,2.69-11.13,5.3-17.04,8.06
		c-35.4,16.55-90.24,47.81-112.12,82.25c-5.01,7.88-8.38,16.87-10.14,26.41c-0.87,0.47-1.55,1.31-1.68,2.51
		c-2.34,22.12-3.67,50.68,6.99,75.45c5.02,11.67,11.84,20.87,20.28,27.33c5.15,3.95,10.47,7.01,15.82,9.09
		c2.96,1.15,5.95,2.15,9.14,3.03c1.03,0.29,3.13,0.58,5.16,0.87c1.96,0.28,4.39,0.62,4.68,0.84c0.54,0.44,1.18,0.66,1.84,0.7
		c0.9,2.36,1.82,4.67,2.77,6.86c5.66,12.98,16.5,18.69,27.97,24.75c2.5,1.32,5.08,2.68,7.61,4.13c0.5,0.28,1.01,0.43,1.53,0.42
		c0.4,0.01,0.77-0.08,1.11-0.23c8,4.54,16.91,6.85,26.65,6.87c4.07,0,8.34-0.41,12.68-1.21c2.48,0.12,5.02,0.13,7.63,0
		C305.55,409.41,331.38,401,344.36,384.51z M427.12,381.79c0.06,0.31,0.14,0.56,0.25,0.79c2.02,4.29,1.99,8.23-0.09,11.73
		c-5.58,9.37-25.12,13.85-36.13,14.48c-0.57,0.03-1.15,0.05-1.73,0.05c-9.13-0.02-17.63-4.3-24.75-8.48
		c-7.21-4.23-12.01-9.13-14.27-14.55c-1.39-3.34-1.08-7.89,0.94-13.9c0.3-0.79,0.6-1.62,0.91-2.53c0.28-0.74,0.56-1.45,0.84-2.12
		c0.17-0.43,0.25-0.84,0.23-1.24c0.85-2.84,1.62-5.77,2.35-8.6c1.05-4.04,2.14-8.22,3.5-12.15c2.8-8.1,7.03-14.92,12.23-19.74
		c2.42-2.24,5.03-3.38,7.75-3.37c1.76,0,3.58,0.49,5.37,1.43c-1.25-0.21-2.53,0.68-3.02,2.13c-0.37,1.12-0.28,2.69,1.11,3.74
		c9.09,6.87,16.41,15.79,23.49,24.4l0.41,0.5c1.84,2.24,3.83,4.48,5.75,6.65C417.92,367.39,423.77,373.99,427.12,381.79z
		 M435.72,224.08c4.3,0.09,8.82,0.81,13.28,2.1c-72.43,18.74-143.36,46.01-212.01,72.42c-6.45,2.48-12.89,4.96-19.34,7.43
		c-0.23-0.08-0.47-0.13-0.71-0.15c-1.81-0.53-3.6-1.56-5.23-2.5l-0.72-0.41c-2.32-1.32-4.36-2.79-6.06-4.38
		c0-0.17-0.01-0.34-0.04-0.49c11.18-9.35,25.34-14.5,39.03-19.48c2.93-1.07,5.97-2.17,8.89-3.29c9.2-3.52,18.36-7.57,27.21-11.49
		c9.29-4.11,18.9-8.37,28.58-12.02c16.95-6.39,34.78-10.84,52.03-15.14c3.73-0.93,7.45-1.86,11.17-2.81
		c18.59-4.74,40.26-9.83,62.38-10.21C434.64,223.92,435.16,224.07,435.72,224.08z M433.97,217.5c-1.98,0.03-3.96,0.09-5.93,0.19
		c-1.15-1.92-2.43-3.72-3.81-5.42C427.93,213.41,431.15,215.16,433.97,217.5z M409.83,204.72c-1.77,0.07-3.65,0.19-5.72,0.37
		c-3.41,0.3-6.88,0.71-10.38,1.18c-3.08-2.15-5.84-5.49-6.17-8.71l0.01-0.06c0.02-0.08,0.03-0.16,0.04-0.25
		c0.69-7.6,3.7-15.79,8.47-23.5C394.82,187.9,401.89,196.26,409.83,204.72z M381.61,197.97c0.34,3.27,1.88,6.58,4.34,9.45
		c-13.69,2.24-28.14,5.67-43.76,10.41c-17.55,5.33-35.74,12.36-58.99,22.78c-21.23,9.51-41.64,17.18-62.4,23.47
		c-11.07,3.35-26.58,9.51-33.5,24.31c-6.13,13.11-3.3,29.47,0.12,45.09c0.43,1.97,0.87,3.89,1.32,5.78
		c-19.09-5.71-33.01-20.72-40.93-38.84c0.65-29.51,15.98-56.9,45.59-81.41c27.23-22.55,76.13-51.12,99.46-61.25
		c14.96-6.49,30.29-12.74,45.13-18.78c18.63-7.6,37.9-15.45,56.6-23.85c11.95-5.37,22.04-9.55,33.83-10.48
		c2.76-0.22,5.4-0.32,7.84-0.32c7.82,0.02,12.59,1.19,13.79,3.39c0.55,1.02,0.34,2.3-0.63,3.82c-0.48,0.75-0.6,1.54-0.39,2.29
		c-3.24,4.65-7.73,8.74-11.64,12.3l-1.01,0.92c-1.8,1.64-18.45,15.8-20.33,17.39c-4.03,3.44-8.13,6.93-11.56,10.88
		c-0.1-0.01-0.21-0.06-0.31-0.06c-0.69,0-1.35,0.3-1.91,0.87c-10.96,11.1-18.39,24.75-20.39,37.38l-0.02,0.07
		c-0.01,0.02-0.01,0.05-0.02,0.1l-0.03,0.22c-0.14,0.66-0.22,1.35-0.25,2.04l-0.04,0.27c-0.02,0.15-0.04,0.31-0.06,0.46
		C381.42,197.16,381.47,197.62,381.61,197.97z M458.47,107.66c0.23-0.65,0.42-1.3,0.58-1.95c0.54,2.14,0.94,4.38,1.16,6.73
		c1,10.72-3.35,19.71-13.69,28.29c-2.56,2.12-5.36,4.18-8.07,6.18c-8.86,6.52-32.67,25.75-36.14,36.18
		c-2.03-10.36,3-20.82,10.07-27.49c2.62-2.47,20.19-17.4,22.94-19.76C444.62,127.88,454.25,119.65,458.47,107.66z M141.7,247.91
		c10.5-52.39,114.07-99.69,117.44-101.36c50.57-24.9,90.03-41.74,127.96-54.63c13.57-4.61,26.84-8.74,40-8.72
		c4.35,0.01,8.48,0.5,12.27,1.46c7.38,1.87,14.37,8.46,14.07,17.34c-4.55-2.82-12.5-3.52-19.11-3.54
		c-5.66-0.01-11.19,0.48-14.21,0.91c-11.86,1.68-23.5,7.4-34.75,12.94c-3.35,1.65-6.52,3.21-9.68,4.66
		c-15.91,7.29-32.47,13.83-48.48,20.16c-5.79,2.29-11.78,4.66-17.66,7.03c-32.74,13.2-85.4,42.84-118.53,69.79
		c-19.37,15.75-42.12,40.44-47.98,72.54C139.79,273.72,139.23,260.25,141.7,247.91z M191.48,361.12c-1.41-0.19-2.74-0.36-3.92-0.65
		c-6.06-1.48-12.2-4.11-18.26-7.79c-9.25-5.63-16.8-14.66-22.44-26.86c-4.56-9.87-6.95-20.53-8-31.36c0.76,2.28,1.57,4.55,2.51,6.78
		c9.83,23.46,27.65,39.66,49.01,44.69c1.46,5.61,3,10.85,4.63,15.73C193.87,361.43,192.67,361.27,191.48,361.12z M205.73,372.63
		c-4.94-10.21-7.83-22.1-10.63-33.59c-0.37-1.53-0.74-3.05-1.11-4.54c-3.85-15.59-6.57-31.84-0.43-44.97
		c6.32-13.5,23.13-18.07,36.64-21.75c0.91-0.25,1.82-0.49,2.7-0.74c19.76-5.46,38.83-13.92,57.28-22.11
		c14.19-6.3,28.86-12.82,43.75-17.92c17.55-6.01,35.63-10.59,53.74-13.62l2.14-0.36c7.19-1.22,14.62-2.48,21.88-2.46
		c1.27,0,2.49,0.06,3.68,0.15c2.1,2.35,4.13,4.8,5.94,7.46c-15.12,1.36-30.41,4.57-47.66,8.86l-4.94,1.22
		c-21.53,5.33-43.79,10.84-64.96,18.82c-9.77,3.68-19.47,7.97-28.85,12.12c-9.38,4.15-19.09,8.44-28.85,12.12
		c-1.72,0.65-3.46,1.29-5.19,1.93c-14.63,5.43-29.76,11.04-41.65,21.57c-0.85,0.75-1.18,1.72-0.91,2.73
		c-0.57,1.12-0.46,2.36,0.29,3.35c-2.22,27.72,3.88,64.68,22.13,88.09C214.68,385.04,209.39,380.18,205.73,372.63z M229.52,390.1
		c-20.12-21.03-26.08-58.14-25.09-83.75c2.92,2.18,5.98,3.83,8.89,4.86c-0.76,33.99,8.54,64.38,25.13,81.61
		c4.57,4.76,9.69,8.56,15.3,11.41C244.63,402.12,236.51,397.4,229.52,390.1z M315.55,396.86c-11.01,4.87-22.6,7.43-33.52,7.41
		c-0.96,0-1.92-0.03-2.87-0.07c-0.21-0.05-0.43-0.07-0.67-0.07c-0.07,0-0.14,0.02-0.22,0.02c-14.94-0.86-27.85-6.65-37.52-16.91
		c-14.86-15.77-22.01-40.97-21.28-74.87c0.85-0.13,1.44-0.57,1.83-1.15c5.82-2.23,11.64-4.47,17.47-6.71
		c70.16-26.99,142.7-54.9,216.77-73.64c6.16,11.28,11.04,23.83,14.91,38.36c3.4,12.77,6.43,27.73,3.18,41.86
		c-5.7,24.76-28.26,44.12-51.38,44.07c-2.55,0-5.11-0.24-7.68-0.71c-1.97-2.26-3.92-4.58-5.81-6.82c-2.1-2.49-4.27-5.07-6.45-7.55
		c0.34-0.52,0.61-1.32,0.28-2.39c-3.18-10.26-11.64-22.33-24.85-21.54c-8.52,0.51-15.87,7.85-22.48,22.44
		c-2.58,5.69-4.21,11.79-5.79,17.69c-1.58,5.92-3.22,12.04-5.81,17.73C338.16,386.04,326.76,391.9,315.55,396.86z"/>
	<path className="st0" d="M287.29,360.74c1.04,0,1.9-0.56,2.41-1.58c2.47-4.96,4.95-10.02,7.35-14.91
		c5.36-10.95,10.91-22.28,16.82-33.19c0.54-1,0.54-2.06-0.01-2.99c-0.59-0.99-1.74-1.66-2.86-1.66c-1.05,0-1.92,0.54-2.46,1.54
		c-5.93,10.94-11.49,22.3-16.87,33.28c-2.38,4.87-4.85,9.9-7.31,14.84c-0.51,1.02-0.47,2.1,0.11,3.04
		C285.08,360.1,286.18,360.74,287.29,360.74z"/>
	<path className="st0" d="M420.04,307.53c1.41,0,2.5-0.8,2.91-2.16c1.75-5.78,3.89-11.54,5.96-17.11c1.87-5.03,3.8-10.23,5.44-15.44
		c0.38-1.19,0.02-2.04-0.35-2.54c-0.58-0.79-1.6-1.28-2.67-1.28c-1.41,0-2.5,0.8-2.93,2.15c-1.64,5.2-3.57,10.4-5.44,15.43
		c-2.07,5.57-4.21,11.34-5.97,17.13c-0.36,1.2,0,2.05,0.38,2.55C417.96,307.04,418.98,307.53,420.04,307.53z"/>
	<path className="st0" d="M423.89,321.34c-0.36,1.2,0.01,2.04,0.37,2.55c0.58,0.79,1.6,1.28,2.66,1.28c1.41,0,2.5-0.81,2.91-2.16
		c1.75-5.78,3.89-11.53,5.95-17.1c1.87-5.04,3.8-10.24,5.44-15.45c0.38-1.19,0.02-2.04-0.35-2.54c-0.58-0.79-1.6-1.28-2.67-1.28
		c-1.41,0-2.5,0.8-2.93,2.15c-1.64,5.2-3.57,10.4-5.43,15.42C427.79,309.78,425.65,315.55,423.89,321.34z"/>
	<path className="st0" d="M569.4,404.64c0.08-5.02-2.01-10.12-5.6-13.68l0.02-0.02c0.06-0.1,0.13-0.19,0.19-0.3
		c0.45-0.75,0.56-1.53,0.33-2.25c0.37-0.54,0.53-1.18,0.47-1.91c-1.48-17.89-3.2-35.83-4.53-49.51c1.47-0.1,3.03-0.22,4.61-0.38
		c0.07-0.01,0.13-0.02,0.2-0.02c1.84-0.29,2.54-1.8,2.57-3c0.05-1.43-0.75-2.64-1.96-3.01l-1.66-26.33
		c-0.02-0.24-0.06-0.48-0.14-0.74c0.04-1.18-0.55-2.66-2.37-3.03c-1.59-0.32-3.26-0.63-4.97-0.91c-3.4-33.81-7.25-72.11-9.79-109.86
		c0.03-1.62-0.08-3.08-0.32-4.44l-0.02-0.27c-0.01-0.15-0.02-0.29-0.03-0.45c-0.06-0.89-0.42-1.63-1.05-2.13
		c-0.68-0.54-1.61-0.77-2.54-0.62c-0.83,0.13-1.53,0.54-2,1.14c-9.04,3.03-16.7,10.13-22.15,20.54c-4.54,8.66-7.43,19.31-8.15,29.98
		c-0.11,1.7,0.94,2.52,2.02,2.74c4.23,17.36,4.5,35.6,4.77,53.24c0.04,2.95,0.09,5.9,0.15,8.85l-0.17,0.01
		c-0.68-0.44-1.58-0.62-2.42-0.49c-0.7,0.11-1.32,0.43-1.79,0.91c-1.17,0.21-2.03,0.97-2.39,2.1c-0.36,1.14-0.11,2.41,0.64,3.21
		c-0.48,2.29-0.81,4.75-0.98,7.29c-8.66,3.54-10.32,9.43-10.19,13.76c0.34,10.96,11.84,22.9,21.96,26.35
		c1.09,7.69,2.31,15.48,3.49,23.02c0.64,4.11,1.28,8.21,1.9,12.31c-1.11,2.18-2.27,4.14-3.39,6.04c-0.62,1.05-1.22,2.07-1.77,3.07
		c-0.73,0.5-1.2,1.39-1.27,2.39c-1.87,3.81-3.25,8.12-0.89,13.75c-0.59,0.43-1.04,1.06-1.26,1.78c-3.25,1.27-5.58,3.32-6.74,5.93
		c-1.09,2.46-1.08,5.36,0.03,8.38c-5.43,2.44-7.81,7.65-6.4,14.02c-0.97,0.41-1.74,1.34-1.98,2.4c-4.44,3.35-6.46,9-5.55,15.55
		c-1.2,0-2.04,0.43-2.5,1.29c-3.01,1.15-4.29,3.4-5.9,6.23c-0.97,1.7-2.06,3.62-3.73,5.61c-1.14,1.37-2.8,2.15-4.4,2.91
		c-1.69,0.81-3.44,1.63-4.64,3.15c-2.45,3.08-2.75,6.07-2.35,9.54c-0.46-0.21-0.97-0.3-1.53-0.24c-3.65,0.31-6.41,2.62-7.81,6.44
		c-5.07,0.26-8.61,3.08-10.52,8.3c-2.64-0.26-5.11,0.46-7.33,2.14c-1.21,0.16-2.13,0.91-2.51,2.05c-0.21,0.1-0.39,0.21-0.56,0.33
		c-9.74,7.23-19.86,12.5-29.31,15.25c-1.98-6.74-4.54-13.39-7.01-19.83c-0.8-2.09-1.61-4.18-2.39-6.28
		c-0.46-1.24-1.49-1.97-2.78-1.98c-0.01-0.82-0.37-1.53-1.05-1.99c4.49-7.86,4.26-18.65-0.59-25.74c-3.96-5.8-10.33-7.99-17.71-6.06
		c-1.73,0.45-2.3,2.35-1.94,3.91c1.94,8.51,0.85,16.39-3.07,22.18c-3.44,5.09-8.94,8.38-15.91,9.48c-0.47,0.08-0.95,0.14-1.44,0.19
		c-5.92,0.68-14.18-0.46-19.29-4.5c-1.41-1.12-2.77-2.38-4.07-3.6c-2.07-1.94-4.22-3.93-6.68-5.46c-2.1-1.3-3.99-1.82-5.62-1.56
		c-2.95,0.47-4.83,3.61-5.03,8.39c-0.42,10.28,5,19.34,13.81,23.14c-0.05,0.49,0.06,1,0.32,1.47c0.47,2.43,0.91,4.88,1.37,7.32
		c1.83,9.97,3.73,20.27,6.78,30.14c-5.78,4.29-12.19,8.02-17.86,11.32c-1.18,0.68-1.66,1.83-1.32,3.08
		c-4.42,7.9-4.99,18.6-1.56,29.38c3.74,11.74,11.38,21.3,20.41,25.54c0.3,0.23,0.64,0.39,0.96,0.45c0.72,0.3,1.38,0.56,2.03,0.77
		c0.48,0.16,0.95,0.21,1.38,0.14c1.16-0.19,2.02-1.22,2.16-2.59c44.48-17.76,91.44-37.36,133.76-64.23c1.56-0.99,1.57-2.55,1.1-3.63
		c0.4-1.43,0.46-2.76,0.2-4.05c-0.07-0.35-0.19-0.71-0.34-1.1c1.3-0.94,2.69-1.91,4.23-2.6c1.36-0.61,2.17-1.92,2.03-3.26
		c7.27-1.58,11.33-5.36,11.77-10.97c4.56-1.23,7.9-4.42,9.43-9.02c9.16-2.73,14.87-12.23,17.17-20.23c0.02-0.08,0.04-0.16,0.05-0.24
		c6.31-4.39,9.27-11.13,7.79-17.68c3.12-0.21,5.76-1.86,7.62-4.72c2.44-3.74,3.21-9,2-13.77c6.46-3.9,9.53-12.46,7.36-20.53
		c0.01,0,0.02,0,0.03-0.01c8.49-1.35,7.69-14.19,7.19-18.38c3.18-2.05,4.57-5.68,3.83-9.97c0.07-0.04,0.13-0.09,0.19-0.15
		C567.58,413.02,569.33,409.04,569.4,404.64z M541.93,208.49c2.23,28.91,4.98,56.81,8.34,90.16c-8.61-1.02-17.63-1.3-26.79-0.81
		c-0.11-3.71-0.17-7.47-0.24-11.12c-0.3-16.65-0.62-33.87-4.37-50.47c0.19-0.02,0.38-0.05,0.56-0.08
		c8.37-1.33,14.27-11.9,17.45-17.58C538.84,215.08,540.53,211.68,541.93,208.49z M516.93,230.13c1.64-14.61,8.79-33.81,23.6-40.47
		c-0.24,6.83-3.54,14.18-6.19,20.12l-0.35,0.79c-2.26,5.04-8.26,18.43-15.27,19.54C518.12,230.22,517.52,230.22,516.93,230.13z
		 M506.08,325.13c-0.04-2.9,1.36-5.24,4.16-6.94c0.19,4.62,0.84,9.56,1.94,14.69c-0.67,0.95-0.74,2.35-0.17,3.43
		c0.55,1.05,1.57,1.61,2.8,1.55c1.6-0.08,3.34-0.15,5.46-0.21c0.26,2.19,0.54,4.35,0.82,6.43
		C513.83,340.08,506.17,331.64,506.08,325.13z M525.86,331.28l-0.25,0.02c-0.22,0.02-0.44,0.04-0.65,0.06
		c-0.21,0.02-0.43,0.04-0.62,0.06c-1.71,0.02-3.93,0.06-6.18,0.13c-2.18-9.99-2.39-19.11-0.62-27.12
		c14.05-1.27,27.65-0.72,40.42,1.64l1.56,24.77c-1.7,0.12-3.5,0.22-5.66,0.31l-0.09,0c-6.24,0.25-12.58,0.24-18.72,0.24
		c-3.01,0-6.12-0.01-9.19,0.02L525.86,331.28z M526.69,338.02l-0.06-0.47c2.92-0.02,5.9-0.02,8.77-0.01
		c6.13,0.01,12.47,0.02,18.7-0.22c1.34,13.71,3.07,31.68,4.55,49.57c0.02,0.21,0.05,0.4,0.11,0.6c-0.09,0.11-0.17,0.22-0.25,0.35
		c-0.95,1.6-2.57,2.56-4.95,2.94c-4.61,0.73-11.11-0.96-16.34-2.31c-1.2-0.31-2.34-0.61-3.38-0.86c-0.48-3.15-0.96-6.3-1.44-9.46
		c-1.36-8.92-2.77-18.14-4.04-27.24c0.5-0.76,0.69-1.7,0.51-2.57c-0.15-0.72-0.53-1.3-1.11-1.69
		C527.38,343.78,527.03,340.85,526.69,338.02z M339.05,508.46c-7.72-1.97-11.74-8.06-12.3-18.63c-0.04-0.81,0.28-0.86,0.4-0.89
		c1.67-0.26,7.06,4.77,8.83,6.42c0.32,0.3,0.56,0.52,0.72,0.66c5.88,5.22,14.28,7.59,24.97,7.06c1.23-0.06,2.45-0.19,3.62-0.37
		c18.91-3.01,25.11-20.78,22.9-36.13c5.3-0.4,7.91,2.78,9.18,5.54c2.99,6.5,1.27,16.69-3.6,21.36c-0.78,0.75-1.07,1.67-0.82,2.61
		c0.26,0.98,1.09,1.84,2.12,2.21c-4.86,7.71-16.79,14.07-30.53,16.25c-9.37,1.49-17.83,0.62-23.24-2.38
		C341.6,510.66,340.94,508.95,339.05,508.46z M344.21,615.67c-7.74-3.93-14.44-13.54-17.11-24.51c-2.21-9.1-1.15-17.5,2.89-23.05
		c0.1-0.15,0.2-0.3,0.29-0.48c5.2-3.03,10.7-6.31,15.92-10.17c0.31,0.04,0.64,0.04,0.97-0.01c0.98-0.16,1.86-0.72,2.33-1.51
		c0.44-0.73,0.52-1.59,0.21-2.47c-3.54-10.46-5.56-21.46-7.52-32.09l-0.43-2.34c6.55,2.45,15.03,3.02,23.94,1.6
		c15.47-2.46,29.09-10.23,34.92-19.87c0.57,1.51,1.15,3.01,1.73,4.51c2.89,7.53,5.89,15.32,7.96,23.28c0.39,1.48,1.6,2.28,3.09,2.04
		c0.85-0.13,1.63-0.58,2.17-1.24c9.22-2.44,19.21-7.28,28.93-14c1.08,10.62,8.19,22.25,14.01,30.2c3.43,4.67,9.28,9.84,14.48,9.01
		c0.38-0.06,0.76-0.15,1.12-0.28C433.36,579.39,389.4,597.66,344.21,615.67z M477.41,552.24c-0.27,0.17-0.55,0.34-0.82,0.51
		c0.47-0.45,0.91-0.98,1.32-1.58C477.78,551.54,477.59,551.9,477.41,552.24z M480.87,542.16c-0.45,0.33-0.9,0.66-1.36,0.98
		c-0.65-0.19-1.41-0.1-2.09,0.24c-0.34-0.04-0.68-0.03-1.01,0.02c-1.26,0.2-2.19,1.01-2.58,2.22c-0.55,1.75-1.36,2.73-2.38,2.89
		c-2.67,0.43-7.27-4.58-12.61-13.74c-4.22-7.26-8.97-16.53-8.17-23.95c0.73-0.59,1.55-0.95,2.42-1.09
		c9.09-1.45,23.45,21.36,28.9,30.01c0.07,0.46,0.24,0.89,0.49,1.25C481.94,541.38,481.4,541.77,480.87,542.16z M486.88,535.8
		l-0.1,0.02c-5.56-8.78-15.8-24.89-26.05-30.57c0.88-2.09,2.44-3.32,4.63-3.67c8.93-1.42,26.59,12.6,29.78,23.55
		c-0.9,0.35-1.48,1.18-1.58,2.25c-0.12,1.32,0.54,2.64,1.62,3.28C494.17,533.35,491.37,535.09,486.88,535.8z M506.04,516.21
		c-0.18,2.3-0.65,4.92-2.68,6.98c-0.58,0.59-1.33,1.02-2.3,1.31c-3.41-11.56-17.24-25.08-29.31-28.67c0.14-0.22,0.27-0.39,0.41-0.55
		l0.06-0.06c0.14-0.11,0.29-0.2,0.45-0.29c0.04-0.01,0.11-0.02,0.38-0.13c0.09-0.01,0.3-0.05,0.45-0.08l0.1-0.03
		c1.23-0.11,2.14-0.81,2.56-1.88c3.61,2.89,7.58,5.65,11.42,8.32c6.45,4.48,13.12,9.11,18.52,14.67
		C506.07,515.91,506.04,516.05,506.04,516.21z M512.81,513.97c-6.02-6.77-13.67-12.16-21.07-17.37c-3.59-2.53-7.31-5.14-10.75-7.86
		c-0.3-4.66,2.23-6.25,5.43-8.27c0.37-0.23,0.75-0.48,1.14-0.73c8.17,7.65,18.11,13.4,27.73,18.96c2.07,1.2,4.2,2.43,6.28,3.67
		C519.63,507.42,516.46,511.63,512.81,513.97z M524.03,496.66c-1.87-1.11-3.76-2.2-5.66-3.29c-9.06-5.24-18.43-10.66-26.2-17.78
		c0.85-1.19,1.4-2.41,1.94-3.58c1.18-2.58,2.11-4.62,5.6-5.17c0.09-0.02,0.19-0.03,0.29-0.04c0.99,0.48,1.96,1,2.9,1.5
		c3.17,1.7,6.32,3.55,9.36,5.35l0.34,0.2c2.64,1.56,5.31,3.17,7.88,4.73c3.01,1.82,6.12,3.7,9.21,5.51c0.17,0.1,0.33,0.17,0.48,0.24
		C531.45,488.93,528.99,493.85,524.03,496.66z M538.9,475.43c-1.28,1.94-3.33,2.36-5.9,1.23c-0.57-0.26-1.15-0.33-1.72-0.25
		c-0.49,0.08-0.97,0.29-1.39,0.62c-2.44-1.45-4.88-2.91-7.31-4.37c-4.19-2.53-8.53-5.13-12.85-7.62c-0.19-0.1-0.46-0.27-0.81-0.48
		c-0.92-0.56-2.3-1.4-3.84-2.21c-1.77-5.49-0.96-10.11,2.22-12.73c8.02,6.5,18.23,9.86,28.12,13.09c0.76,0.25,1.51,0.49,2.26,0.75
		c0.04,1.37,0.95,2.66,2.21,3.1C540.64,469.79,540.23,473.42,538.9,475.43z M543.07,459.29c-0.19-0.14-0.39-0.26-0.61-0.35
		c-0.35-0.34-0.77-0.59-1.23-0.75c-1.41-0.48-2.84-0.95-4.29-1.42c-8.43-2.76-17.14-5.61-24.2-10.75c0.33-0.75,0.35-1.54,0.04-2.24
		c-2-3.25-1.34-6.28,2.02-9.25c4.76,1.41,9.54,3.04,14.17,4.62c5.83,1.99,11.86,4.05,17.9,5.68
		C548.82,450.42,547.22,456.44,543.07,459.29z M554.56,434.39c-0.31,2.44-1.06,3.59-2.51,3.82c-0.56,0.09-1.23,0.04-2.03-0.14
		c-0.41-0.09-0.81-0.11-1.18-0.06c-0.49,0.08-0.93,0.29-1.32,0.61c-5.82-1.59-11.64-3.58-17.27-5.51c-3.5-1.2-7.11-2.43-10.69-3.56
		c-0.06-0.47-0.22-0.92-0.48-1.35c-1.71-2.74-2.23-4.92-1.52-6.46c0.68-1.48,2.44-2.43,5.4-2.9c0.42-0.07,0.84-0.12,1.25-0.16
		c4.51,1.64,9.25,2.83,13.84,3.99c5.48,1.38,11.15,2.81,16.41,4.99C554.77,430.31,554.81,432.46,554.56,434.39z M558.16,419.61
		c-0.33,0.76-0.99,1.31-2.01,1.67c-0.19,0.06-0.33,0.15-0.47,0.24c-4.85-1.86-9.99-3.16-14.97-4.41c-4.16-1.05-8.46-2.13-12.56-3.54
		c-2.9-4.04-3.64-7.55-2.38-11.34l1.97,0.56c10.07,2.82,20.48,5.73,29.4,10.8c0.04,0.21,0.09,0.45,0.21,0.72
		C558.07,415.98,558.81,418.11,558.16,419.61z M561.83,409.19c-9.6-5.98-21.25-9.23-32.51-12.37l-0.68-0.19
		c0.31-0.49,0.64-0.99,0.96-1.5c0.41-0.63,0.82-1.26,1.23-1.91c2.05,0.33,4.31,0.87,6.7,1.43c5.62,1.34,11.99,2.85,17.31,2
		c1.67-0.27,3.18-0.76,4.49-1.46c0.04,0.04,0.08,0.08,0.12,0.13C563.35,399.03,564.33,404.82,561.83,409.19z"/>
	<path className="st0" d="M412.97,544.33c-0.67,0.1-1.27,0.47-1.76,1.06c-7.41,9.03-16.78,14.5-27.83,16.25
		c-6.48,1.03-13.6,0.79-21.17-0.72c-0.4-0.08-0.78-0.09-1.14-0.03c-1.6,0.25-2.47,1.76-2.49,3.11c-0.03,1.51,0.91,2.67,2.38,2.96
		c8.28,1.65,16.16,1.9,23.42,0.75c12.58-2,23.17-8.14,31.47-18.26c0.84-1.03,0.96-2.33,0.31-3.46
		C415.48,544.83,414.17,544.14,412.97,544.33z"/>
</g>
</svg>
