<svg width="172" height="330" viewBox="0 0 172 330" fill="none" xmlns="http://www.w3.org/2000/svg">
<path d="M147.714 45.4851C143.355 42.556 138.355 40.0802 133.11 38.2251C138.724 12.5606 100.485 0.111885 80.2258 0.000300012C60.9077 -0.104311 25.7235 27.1712 39.2044 46.315C21.2183 51.0364 7.26323 67.8021 2.08848 85.6975C-4.06962 106.989 3.68553 127.395 21.4624 137.208C39.1695 197.868 39.7554 262.092 58.7876 322.425C58.8712 322.683 58.9828 322.913 59.1084 323.129C58.0344 324.859 58.6829 327.704 61.3331 327.893C64.7852 328.144 68.3211 328.283 71.578 329.538C72.8263 330.02 73.8724 329.664 74.5838 328.939C74.9464 328.632 75.2533 328.234 75.4625 327.69C78.1754 320.598 80.9999 313.547 83.8663 306.517C83.9918 306.433 84.1173 306.357 84.2429 306.273C85.6865 305.338 85.9655 303.741 85.547 302.437C91.6423 287.596 97.9469 272.846 104.237 258.082C105.221 257.392 105.842 256.067 105.639 254.783C115.403 231.825 124.971 208.79 133.326 185.287C133.075 187.526 132.81 189.716 132.636 191.787C131.548 204.521 130.237 217.242 129.477 230.005C128.967 238.513 124.616 272.804 140.035 272.79C156.487 272.77 153.07 230.57 153 221.413C152.777 190.518 146.221 157.363 153.586 127.116C153.628 126.942 153.642 126.768 153.656 126.6C181.58 106.682 176.049 64.5033 147.714 45.4851ZM57.051 15.2944C65.6082 8.02046 74.4304 5.51678 85.4773 6.28393C100.939 7.3649 130.286 17.2192 127.161 36.4188C108.045 31.6067 87.5695 35.7911 83.0363 58.2058C75.7833 51.8315 66.5357 47.3402 56.1583 45.5688C52.7689 44.9899 49.4563 44.8644 46.2412 45.1155C36.5403 35.5819 48.7867 22.3173 57.051 15.2944ZM7.39573 89.317C11.5802 71.0101 25.8839 54.5304 44.6302 51.6641C44.8046 51.7896 44.951 51.9291 45.1323 52.0547C46.7434 53.1775 48.3962 52.487 49.261 51.2387C49.6376 51.2247 50.0072 51.1759 50.3908 51.1759C77.9592 51.169 97.6958 76.8056 92.0887 103.084C88.6574 119.166 77.5268 132.075 63.4532 136.964C62.7558 136.894 62.0514 137.145 61.4586 137.598C53.8639 139.788 45.509 139.677 37.0843 136.517C36.8611 136.406 36.617 136.308 36.3311 136.245C36.073 136.148 35.8359 136.085 35.5988 136.05C13.0866 130.785 2.2698 111.753 7.39573 89.317ZM88.6993 182.553C95.5478 190.915 103.268 198.224 112.495 203.113C103.533 213.644 93.1208 223.045 81.7601 231.058C74.6675 223.212 68.091 214.906 61.9468 206.272C71.7942 200.016 80.7628 191.626 88.6993 182.553ZM58.5016 201.334C51.9809 191.808 45.9204 181.953 40.1877 171.939C49.6725 165.634 58.3203 158.332 66.4869 150.473C72.3591 159.316 78.2661 168.884 84.9124 177.706C77.1154 186.786 68.2374 195.218 58.5016 201.334ZM70.8457 146.183C73.9631 143.059 77.0247 139.865 80.0514 136.643C81.3765 144.858 85.1495 154.58 93.0302 157.691C95.22 158.555 97.2704 158.918 99.2092 158.918C96.0499 163.57 92.5629 168.34 88.783 173.041C82.3041 164.309 76.5365 154.824 70.8457 146.183ZM36.7007 165.781C36.1567 164.804 35.3199 164.344 34.4481 164.232C32.7255 156.233 30.8076 148.276 28.6108 140.374C30.431 141.009 32.321 141.553 34.2947 141.978C43.9049 145.779 53.3548 146.128 61.9607 143.847C62.3234 144.363 62.686 144.886 63.0487 145.402C55.0285 153.199 46.5341 160.459 37.2028 166.666C37.0424 166.373 36.8681 166.08 36.7007 165.781ZM37.4818 179.359C42.4683 187.86 47.6988 196.222 53.2502 204.347C49.7562 206.174 46.1645 207.681 42.4822 208.79C40.9409 198.956 39.316 189.137 37.4818 179.359ZM46.4435 234.489C45.4392 227.94 44.4419 221.385 43.4237 214.829C47.9917 213.483 52.4272 211.621 56.7093 209.313C62.9232 218.065 69.5625 226.49 76.7178 234.461C68.9766 239.531 60.8589 243.981 52.5109 247.74C50.6907 243.716 48.9262 239.671 47.2385 235.605C47.0363 235.131 46.7643 234.761 46.4435 234.489ZM50.3141 258.529C54.6729 268.139 59.8895 277.937 66.4381 285.741C62.9511 287.15 59.4292 287.938 55.97 287.868C53.8429 278.14 51.9948 268.355 50.3141 258.529ZM70.769 322.962C68.8441 322.502 66.8635 322.244 64.8829 322.069C64.8759 321.804 64.841 321.532 64.7434 321.232C64.4156 320.2 64.1157 319.161 63.8019 318.122C63.8995 318.087 63.9902 318.066 64.0809 318.024C67.8747 316.274 71.5082 314.223 75.072 312.061C73.6144 315.688 72.1708 319.314 70.769 322.962ZM78.9496 302.479C73.4749 306.001 67.9515 309.446 62.0584 312.236C60.3428 306.175 58.7736 300.08 57.3509 293.964C61.8492 293.81 66.3893 292.513 70.8038 290.442C73.8794 293.392 77.213 295.903 80.8674 297.772C80.2258 299.341 79.5912 300.91 78.9496 302.479ZM83.1968 292.157C80.7977 290.874 78.6078 289.2 76.5853 287.276C81.258 284.347 85.6865 280.692 89.6687 276.801C87.4997 281.913 85.3308 287.032 83.1968 292.157ZM97.7795 257.727C97.5842 257.901 97.3959 258.096 97.2285 258.347C91.991 266.172 82.6946 276.584 72.4358 282.729C68.3838 277.707 65.0781 271.891 62.149 266.807C59.6035 262.399 57.2881 257.859 55.0843 253.256C63.9972 249.26 72.659 244.476 80.9093 239.008C86.4815 244.901 92.3537 250.522 98.6024 255.795C98.3235 256.443 98.0515 257.085 97.7795 257.727ZM101.071 249.971C95.757 245.417 90.7287 240.598 85.9306 235.563C97.9259 227.027 108.889 216.998 118.241 205.763C118.513 205.867 118.778 206 119.05 206.105C113.318 220.827 107.243 235.417 101.071 249.971ZM127.475 183.488C126.882 183.655 126.324 184.046 125.899 184.743C123.019 189.444 119.831 193.956 116.421 198.315C107.153 193.705 99.4323 186.389 92.5978 177.957C98.2746 171.032 103.366 163.863 107.766 157.049C108.045 156.617 108.199 156.177 108.255 155.759C110.856 153.841 113.143 151.212 115.173 148.234C116.344 146.511 117.418 144.789 118.897 143.296C120.306 141.874 122.851 150.5 122.781 151.888C122.586 155.891 122 159.741 122.349 163.758C122.851 169.54 127.057 171.437 131.673 171.416C130.313 175.461 128.898 179.471 127.475 183.488ZM144.499 125.059C141.186 126.733 143.411 131.712 146.64 130.722C142.148 154.65 145.475 179.492 146.472 203.678C146.947 215.296 147.135 226.929 146.675 238.555C146.368 246.24 146.988 260.279 141.088 266.256C137.023 270.371 135.258 252.322 135.188 250.969C134.616 240.033 135.53 228.993 136.395 218.1C137.218 207.709 138.299 197.331 139.122 186.94C139.624 180.621 140.712 173.389 139.177 167.127C138.808 165.599 137.253 164.302 135.6 164.741C124.727 167.629 128.974 156.087 128.905 149.608C128.856 145.284 125.508 138.861 121.191 137.333C116.651 135.722 113.527 139.928 111.26 143.157C107.104 149.078 102.096 156.282 93.7973 151.072C87.695 147.244 86.0212 138.003 85.547 131.426C85.4912 130.631 85.1913 130.059 84.7589 129.669C90.4707 123.413 94.8643 115.63 97.375 106.927C102.222 90.0912 97.7237 74.1973 87.5625 62.6901C88.1483 62.2438 88.5877 61.5882 88.7272 60.6816C91.7888 40.408 109.273 38.0996 125.55 42.4026C125.564 44.9272 129.267 46.1407 130.997 44.0903C135.865 45.8338 140.447 48.0725 144.289 50.4925C155.392 57.4874 161.564 67.83 164.982 80.3693C170.128 99.3109 161.676 116.383 144.499 125.059Z" fill="#FF5B0D"/>
<path d="M121.952 120.987C115.542 119.836 109.203 118.141 103.631 114.661C100.304 112.59 96.8659 117.597 100.193 119.675C106.72 123.748 114.008 125.701 121.512 127.047C125.369 127.737 125.766 121.67 121.952 120.987Z" fill="#FF5B0D"/>
<path d="M151.375 73.6326C153.893 81.9038 154.039 90.4889 149.415 98.0627C147.379 101.403 152.386 104.848 154.43 101.501C159.876 92.5811 160.351 82.3153 157.338 72.447C156.208 68.7368 150.231 69.8805 151.375 73.6326Z" fill="#FF5B0D"/>
<path d="M75.1209 113.845C80.2817 103.475 83.3851 92.7136 78.1407 81.7504C76.4529 78.2145 70.9922 80.8925 72.6869 84.4284C77.2061 93.8782 73.754 103.035 69.3882 111.809C67.6447 115.323 73.3983 117.304 75.1209 113.845Z" fill="#FF5B0D"/>
</svg>
