<svg width="231" height="293" viewBox="0 0 231 293" fill="none" xmlns="http://www.w3.org/2000/svg">
<path d="M108.433 254.961C108.18 254.176 107.396 253.65 106.436 253.626C105.842 253.611 105.277 253.796 104.887 254.147C102.909 255.925 101.053 257.879 99.2556 259.759C97.2973 261.815 95.2707 263.939 93.0883 265.838C92.4307 264.523 91.812 263.164 91.2129 261.849C90.638 260.582 90.0486 259.282 89.4153 258.01C89.0305 257.236 88.3338 256.778 87.5008 256.758C86.6483 256.734 85.8104 257.172 85.3671 257.864C84.9677 258.492 84.9433 259.238 85.2989 259.954C85.9322 261.22 86.5217 262.526 87.0868 263.788C88.0708 265.965 89.0889 268.221 90.3457 270.335C91.1008 271.596 92.684 271.957 93.8288 271.09C96.9368 268.737 99.6404 265.897 102.256 263.149C103.216 262.146 104.2 261.108 105.204 260.105C105.803 262.438 106.295 264.83 106.772 267.144C106.982 268.172 107.196 269.205 107.42 270.228C107.644 271.26 108.614 272.084 109.632 272.113C109.992 272.123 110.333 272.035 110.655 271.855C112.944 270.549 114.596 268.698 116.408 266.667L116.5 266.564C117.319 265.653 119.228 263.515 120.173 263.539C120.276 263.544 120.344 263.573 120.407 263.641C120.539 263.783 120.748 264.202 120.695 265.42L120.617 267.081C120.573 267.909 120.534 268.742 120.5 269.575C120.476 270.208 120.729 270.856 121.192 271.348C121.888 272.093 122.916 272.288 123.759 271.806C128.46 269.136 132.333 265.351 135.255 260.558C135.699 259.832 135.728 258.994 135.333 258.259C134.919 257.494 134.096 256.968 133.287 256.943C132.566 256.924 131.938 257.289 131.524 257.966C129.717 260.923 127.671 263.33 125.293 265.288C125.313 263.003 125.011 258.687 121.44 258.38C117.665 258.054 115.268 260.889 112.969 263.622C112.369 264.333 111.756 265.069 111.122 265.726C110.382 262.195 109.588 258.536 108.433 254.961Z" fill="#FF5B0D"/>
<path d="M152.271 161.384C151.253 161.355 150.094 161.969 149.957 163.387C149.889 164.069 149.85 164.809 149.821 165.574C149.733 167.644 149.636 169.788 148.842 171.395C148.36 172.365 147.799 172.827 147.122 172.808C145.685 172.769 143.956 170.64 143.123 169.612L143.011 169.476C142.416 168.745 141.842 167.995 141.267 167.245C139.649 165.14 137.979 162.958 135.874 161.219C135.548 160.946 135.119 160.795 134.642 160.785C133.711 160.761 132.639 161.272 132.396 162.3L132.313 162.661C130.759 169.563 129.785 169.817 129.585 169.851C128.577 169.622 127.481 168.506 126.682 167.693L126.204 167.211C124.183 165.199 122.093 163.119 119.793 161.302C119.443 161.029 119.019 160.878 118.566 160.863C117.577 160.834 116.656 161.448 116.325 162.344L116.213 162.646C115.463 164.702 113.709 169.515 112.082 169.471C111.434 169.456 110.742 168.609 110.085 167.025C109.851 166.465 109.627 165.895 109.403 165.32C108.404 162.773 107.366 160.137 105.413 158.111C104.955 157.633 104.317 157.346 103.659 157.331C102.899 157.312 102.232 157.658 101.823 158.281C101.789 158.335 101.711 158.457 101.608 158.632C98.4176 163.956 97.4044 164.375 97.1462 164.371C97.1462 164.371 97.1462 164.371 97.1413 164.371C95.6214 163.133 94.4182 161.496 93.2588 159.918L92.6401 159.075C92.2699 158.578 91.6025 158.257 90.901 158.237C90.3018 158.223 89.766 158.423 89.4006 158.798C87.681 160.561 86.3024 161.404 85.182 161.37C83.2578 161.316 82.074 158.496 80.8367 155.095C80.5444 154.306 79.7893 153.8 78.854 153.77C78.0453 153.746 77.3 154.111 76.9005 154.725C76.3793 155.534 73.9143 158.686 72.7208 158.651C72.2532 158.642 72.0827 157.896 72.0242 157.268C71.8391 155.714 71.8927 154.15 72.1899 152.596C72.2629 151.992 72.0876 151.408 71.6881 150.95C70.9087 150.039 69.3888 149.863 68.4681 150.638C67.3428 151.583 66.6998 151.768 66.3539 151.763C65.0776 151.729 65.1604 148.495 65.2189 146.132C65.2432 145.153 65.2627 144.227 65.2042 143.531C65.1019 142.293 64.0643 141.709 63.0803 141.684C62.5103 141.67 61.9599 141.83 61.5312 142.137C60.7274 142.717 55.968 145.518 53.7613 145.46C53.0208 145.44 52.8941 145.114 52.86 144.758C52.6895 142.702 52.7772 141.139 53.1328 139.979C53.8246 139.122 53.8246 138.031 53.1182 137.183L53.0111 137.047C52.5921 136.54 52.0173 136.253 51.3937 136.233C50.4633 136.209 49.5621 136.784 49.1431 137.67C47.4138 141.343 47.6574 146.833 50.7702 149.152C52.9672 150.789 56.3967 150.38 60.7664 147.968C60.7323 150.857 60.7712 153.804 62.525 156.094C63.6162 157.531 65.2919 157.794 67.4354 156.82C67.6302 160.181 68.8578 162.31 71.1035 163.153C73.4272 164.03 75.8434 163.148 78.2207 160.542C80.14 164.351 82.3419 166.236 84.9238 166.309C86.6434 166.358 88.5238 165.554 90.5211 163.927C92.5671 166.782 94.8566 169.344 97.5992 168.994C100.274 168.653 102.154 166.363 103.766 163.805C104.239 164.775 104.648 165.827 105.048 166.85C106.446 170.435 107.893 174.143 112.189 174.815C115.906 175.385 118.04 171.171 119.448 167.264C119.647 167.483 119.857 167.707 120.066 167.936C122.677 170.767 125.931 174.289 128.971 174.372H129.166C133.049 174.289 134.724 170.85 135.699 167.595C136.23 168.273 136.756 168.989 137.306 169.739C140.029 173.451 142.845 177.29 147.351 177.411L147.585 177.416C153.45 177.411 154.015 169.875 154.351 165.374C154.395 164.799 154.434 164.268 154.478 163.801C154.541 163.158 154.371 162.588 153.986 162.149C153.577 161.681 152.953 161.404 152.271 161.384Z" fill="#FF5B0D"/>
<path d="M195.057 47.9005C193.713 47.1697 192.047 47.9735 191.637 49.3862C188.091 52.1337 158.565 69.515 145.89 76.9829L143.347 78.4784C143.293 78.2105 143.24 77.9426 143.181 77.6941C142.796 76.0427 142.095 74.3669 141.013 72.5499C140.526 71.8825 139.908 71.0836 139.211 70.1872C135.728 65.6909 130.462 58.8904 130.296 53.7657C130.277 53.2444 130.058 52.7037 129.678 52.2458L129.551 52.1435C128.976 51.8609 128.396 51.5881 127.807 51.3202L127.71 51.2764L127.602 51.2861C127.179 51.3348 126.584 51.554 126.156 52.3188C126.029 52.5478 125.834 52.9083 125.595 53.3565C124.684 55.0615 122.984 58.2328 121.45 60.4493C119.121 64.5413 115.75 70.7036 113.378 76.9439C112.14 79.8522 109.715 90.4767 110.479 93.5019C108.765 94.0962 102.578 96.4442 101.535 96.9022C98.3787 96.5076 91.661 95.9181 87.9636 95.6405C84.8215 86.3555 80.8757 75.2535 78.4156 66.3047C82.1179 64.9358 84.6851 63.7813 88.2461 62.2371C89.9706 61.4869 91.7 60.7367 93.4342 60.0108C93.7265 59.889 93.9701 59.7185 94.16 59.5042C96.3376 61.5843 98.6271 63.8057 100.732 66.1781L101.073 66.5726C101.784 67.4008 102.3 67.9951 103.494 68.4092C104.375 68.7161 105.272 68.453 105.871 67.7369C105.871 67.7369 110.772 63.3429 110.099 62.7096C107.318 60.1034 104.526 57.4387 102.13 55.1345C105.71 52.9083 108.643 49.7808 111.478 46.7508L112.189 45.9957C114.942 47.7153 117.358 49.3521 119.56 50.9889C119.716 51.101 119.881 51.1935 120.081 51.2666C120.208 51.3689 120.359 51.4858 120.563 51.5638C121.464 51.9243 125.844 46.78 125.815 45.8106C126.107 45.0068 125.8 43.9887 125.089 43.4626C124.602 43.1021 124.027 42.9901 123.462 43.1216C121.338 41.6261 119.014 40.3595 116.963 39.3024C118.493 36.5208 120.178 33.7782 121.81 31.1184C122.346 30.2464 122.882 29.3695 123.418 28.4927C125.211 28.6486 127.174 28.975 129.575 29.5059C129.931 30.1928 132.678 30.4364 133.097 29.9249C134.072 28.7314 135.031 24.3617 134.836 23.7918C134.646 23.251 134.203 22.8613 133.575 22.6957C131.553 22.155 129.322 21.6191 126.589 21.0199C127.071 19.7826 127.632 18.2578 128.012 16.6649C130.506 16.8646 133.131 16.8207 135.85 16.5479C136.644 16.47 138.164 14.4678 138.198 13.9369C138.198 13.9369 137.896 10.863 137.121 10.4976C136.809 10.2005 136.415 10.03 135.933 9.991C131.88 9.65487 127.841 9.28952 123.808 8.92416C113.709 8.00833 58.3891 5.13906 57.181 5.37289C56.5624 4.25246 55.9437 3.1369 55.3007 2.03596C55.2568 1.28089 54.8379 0.418644 53.9708 0.204301C52.6506 -0.122085 51.3986 -0.058756 50.2441 0.40403C49.6157 0.345573 48.9532 0.598888 48.4904 1.06167C48.1007 1.45139 47.8863 1.95802 47.8863 2.48413C47.7353 3.10767 47.9253 3.80916 48.3881 4.33527C48.7388 5.4898 48.9873 6.67356 49.2211 7.89141C49.2065 7.90603 49.187 7.92551 49.1724 7.945C43.692 14.3704 38.2068 20.9858 32.897 27.3917C22.5013 39.9308 11.7452 52.8985 0.526317 65.0333C0.117117 65.4717 -0.0631259 65.9929 0.0196884 66.5142C0.00507413 66.7578 0.0245595 66.9867 0.0878881 67.2108C0.492217 68.6625 1.07679 69.6173 2.10466 70.5088C2.88896 71.2005 4.39423 70.9569 4.99829 70.0898L5.36365 69.5734C6.76662 67.5664 8.21831 65.5009 10.0548 63.8787C10.844 64.6436 11.6721 65.1892 12.5149 65.5204C10.6589 68.4433 9.1731 71.181 7.9796 73.87C7.65809 74.6056 7.76526 75.351 8.29137 75.9307C8.97337 76.7247 13.9763 77.621 13.9763 76.9829C16.412 73.8652 17.2353 71.181 20.1777 68.4725C23.0469 69.4224 26.0282 70.0898 28.9219 70.7328C30.5782 71.1031 32.288 71.4879 33.9638 71.9166C33.121 74.44 32.3562 76.5006 31.5719 78.3712C31.3381 78.9363 31.3722 79.5453 31.6694 80.0811C31.986 80.6559 40.2041 82.0784 40.4087 80.8459C40.8764 78.1715 41.4171 75.3948 42.0211 72.5889L43.7115 72.6668C45.1242 72.735 46.5321 72.8032 47.9302 72.8422C51.5448 72.9396 55.7927 72.8811 60.0357 71.7217L60.1477 73.1004C60.3669 75.7504 60.5862 78.3956 60.8151 81.0213C60.8882 81.8982 61.7212 82.6922 62.637 82.7604L66.5098 83.0478L66.6121 83.0527C67.1626 83.0673 67.6595 82.8822 68.0395 82.5217C68.8091 82.6581 69.6178 82.3804 70.0757 81.8348C70.329 81.5328 70.5969 81.0067 70.4362 80.2321C69.7591 76.9293 69.0673 73.4121 68.3317 69.4906C68.3366 69.4906 68.3366 69.4906 68.3415 69.4906L68.4243 69.4663C68.512 69.6757 70.3047 68.945 70.4021 69.174C71.8587 72.4963 77.1977 90.9688 78.8297 94.8415L79.5945 96.6586C78.8102 96.7852 77.9723 96.9119 77.0906 97.0434C69.2281 98.2369 58.4573 99.8689 54.1218 104.594C53.7077 105.047 51.7153 106.192 51.1892 106.591C48.1835 108.891 34.8455 123.948 38.2945 130.422C34.1976 138.11 31.9373 145.314 31.1822 153.065C31.1238 153.684 31.3089 154.273 31.7132 154.731C32.0445 155.101 32.4878 155.359 32.9749 155.466C32.5754 156.105 32.1662 156.738 31.757 157.371C29.7062 160.552 27.5871 163.84 26.7395 167.47C26.0039 170.617 25.2488 173.871 25.0296 177.135C24.825 180.34 25.7116 182.766 27.3143 183.482C26.8418 185.163 26.301 186.853 25.7798 188.49C23.5536 195.456 21.2494 202.651 23.8799 210.319C24.1333 211.059 24.8201 211.473 25.5216 211.605C24.6009 219.803 24.0212 229.225 28.0255 237.93C28.3763 238.685 29.1947 239.211 30.0715 239.236C30.3736 239.245 30.661 239.192 30.9192 239.089C39.4831 267.967 61.4338 288.042 88.2997 291.535C90.8377 291.866 93.3611 292.066 95.792 292.134C107.415 292.451 117.489 289.786 125.732 284.218C134.174 278.504 141.218 270.374 147.887 258.634C148.384 258.575 148.856 258.375 149.154 258.103C160.334 252.276 162.764 235.709 164.533 223.608L164.718 222.356C164.913 222.41 165.117 222.439 165.327 222.449C166.155 222.473 166.861 222.108 167.222 221.479C171.138 214.62 172.619 205.662 171.411 196.192C172.756 196.343 173.686 195.261 173.876 194.165C175.357 185.664 172.629 177.67 169.677 170.924C170.69 170.743 171.436 169.974 171.567 168.912C172.522 161.108 169.794 154.132 166.89 148.286C170.422 148.271 175.615 149.733 178.786 148.827C179.537 148.612 180.136 148.12 180.433 147.472C180.696 146.893 180.686 146.24 180.404 145.631C179.512 143.707 176.809 139.62 175.844 137.33C172.249 128.771 167.797 118.181 160.865 112.681C165.098 111.185 168.055 107.673 170.914 104.273C173.861 100.77 176.911 97.1457 181.368 95.6599C182.162 95.3969 182.645 94.788 182.703 93.9793C182.776 92.9807 182.162 91.9041 181.286 91.4705C176.229 88.9812 168.06 86.1168 159.832 85.2935C160.996 84.6408 162.16 83.9977 163.334 83.3742C172.502 78.4541 182.211 72.9445 191.15 65.9491C191.516 66.3437 192.061 66.5726 192.68 66.5921C193.449 66.6116 194.156 66.3145 194.633 65.7932C198.214 70.3675 201.619 75.1902 204.917 79.857C209.291 86.0583 213.817 92.474 218.825 98.3782C219.594 99.2843 220.988 99.3476 222.016 98.5828C223.54 97.4526 225.236 96.5514 226.877 95.6794C228.051 95.0559 229.245 94.3885 230.409 93.6578C230.399 93.3168 230.409 92.9709 230.424 92.625C225.908 85.9561 200.64 50.9305 195.057 47.9005ZM104.502 63.0165L103.771 63.8787C102.427 62.8509 100.897 61.029 99.5381 59.4116C98.6223 58.3107 97.7503 57.278 97.0342 56.6008C92.6937 52.5186 88.0902 47.8858 82.9509 42.4396C82.3955 41.8453 81.8256 41.2363 81.2459 40.6128C83.6183 42.9024 85.9858 45.1968 88.3484 47.4864C93.6193 52.6014 99.0705 57.882 104.502 63.0165ZM108.034 44.4758C105.384 47.3208 102.641 50.268 99.275 52.1045C99.2166 52.1386 99.163 52.1727 99.1045 52.2117C97.4385 50.5992 95.7725 48.9819 94.1065 47.3646C90.6672 44.0228 87.2231 40.681 83.7595 37.3636C81.543 35.2445 79.2096 33.1985 76.735 31.0307C72.4335 27.2602 68.0005 23.3777 64.3079 19.1201C71.0451 23.2072 77.9869 27.1043 86.1612 31.5909C88.8112 33.0475 91.5051 34.4748 94.2039 35.907C98.973 38.4401 103.903 41.0561 108.623 43.8426L108.034 44.4758ZM118.361 28.9701C116.681 31.7273 114.942 34.5771 113.344 37.4659C112.633 37.1054 111.931 36.74 111.23 36.3698C107.22 34.2458 103.211 31.9465 99.3384 29.7252C96.6104 28.1614 93.785 26.5441 90.979 24.995C87.34 22.988 83.2188 21.3268 79.234 19.7241C76.0481 18.4429 72.7745 17.1276 69.6909 15.6126C78.0015 16.8597 86.5899 18.2188 95.2464 19.6705C97.9987 20.1333 100.771 20.5717 103.552 21.015C109.393 21.9406 115.429 22.9003 121.318 24.0694C120.349 25.7111 119.36 27.343 118.361 28.9701ZM55.817 11.4865C55.8122 11.4963 55.8073 11.5109 55.7927 11.5206C55.4565 10.7217 54.643 10.2248 53.8733 10.1761C53.5713 9.07517 53.3472 7.93039 53.128 6.8197C53.089 6.63459 53.0549 6.44947 53.016 6.25949C53.9951 8.00346 54.9353 9.7523 55.817 11.4865ZM14.254 61.784C13.4405 61.6817 12.4126 60.7026 11.414 59.095C19.9195 49.4837 28.2545 39.4437 36.3167 29.7252C37.7245 28.0299 39.147 26.3152 40.5792 24.5907C38.1289 28.2199 35.8052 31.9124 33.5205 35.5416C31.9324 38.065 30.2907 40.6761 28.6345 43.2141C26.2231 46.9116 23.4902 50.4921 20.8499 53.9556C18.8672 56.5619 16.8115 59.2509 14.9068 61.9789C14.707 61.8815 14.4927 61.8181 14.254 61.784ZM41.7483 46.0493C40.1067 50.6723 38.7768 55.4609 37.4907 60.0936C36.7697 62.7047 36.0147 65.4035 35.2206 68.0438C33.5984 67.6297 31.9422 67.2595 30.3346 66.9039C26.7687 66.1147 23.0908 65.2915 19.6369 63.9372C19.3982 63.8446 19.1547 63.7911 18.916 63.7862C18.7942 63.7813 18.6773 63.7911 18.5603 63.8105C20.4894 61.0484 22.5452 58.3643 24.5571 55.7386C27.0561 52.4699 29.6428 49.094 31.9519 45.6255C33.9346 42.6393 35.8783 39.5606 37.7538 36.5793C41.5535 30.5484 45.4701 24.3276 49.947 18.6086C48.3832 27.3869 45.2947 36.0726 42.3037 44.4905L41.7483 46.0493ZM48.7096 68.8281C47.292 68.7891 45.8744 68.7112 44.4569 68.6333C43.9551 68.604 43.4582 68.5797 42.9565 68.5504C44.4422 62.1396 46.1716 55.6801 47.8376 49.4252L48.7291 46.0834C50.1321 40.8077 51.3256 35.9898 52.3778 31.3473C52.7919 29.5254 53.1085 27.7084 53.4008 25.8719C57.0885 39.5411 58.5499 53.9508 59.7142 67.5956C55.8804 68.8379 52.0027 68.9158 48.7096 68.8281ZM60.0259 9.26516C60.0016 9.24567 59.9821 9.22132 59.9577 9.20183C60.6008 9.16286 113.753 12.0906 122.999 12.9528L124.285 13.0697C124.134 13.2695 124.022 13.5082 123.949 13.7664C123.803 14.3022 123.866 14.8868 124.119 15.3593C123.754 17.0643 123.121 18.7206 122.531 20.1723C116.924 19.0616 111.191 18.1312 105.637 17.2348C103.036 16.811 100.439 16.3921 97.8526 15.9536C85.7373 13.893 73.3834 11.9591 61.1171 10.2102C60.7469 9.90331 60.3767 9.59154 60.0259 9.26516ZM67.6497 65.4571C67.6351 65.462 67.6205 65.462 67.601 65.4668C65.9009 56.1575 64.3225 46.6729 62.7929 37.4951C61.9355 32.3509 61.083 27.2115 60.2013 22.077C66.617 30.3487 73.6806 38.5814 81.2215 46.5706C84.2613 49.7857 87.5057 53.0544 91.1154 56.5472C89.5127 57.2244 87.9246 57.921 86.3317 58.6225C80.3495 61.2384 74.158 63.9567 67.6497 65.4571ZM91.7389 100.497C92.8691 100.58 94.0919 100.668 94.9833 100.741L93.8531 101.428L93.7216 101.457V101.671L93.137 101.964C92.2602 102.402 91.3931 102.836 90.526 103.259L89.5468 100.337C90.0827 100.38 90.8767 100.439 91.7389 100.497ZM55.5881 111.468C55.8073 109.149 57.1762 107.317 59.6557 106.036C63.8695 103.849 71.6346 102.587 77.8749 101.574C79.1366 101.369 80.3252 101.174 81.4018 100.989C81.7135 101.769 82.9119 104.901 83.2091 105.676L83.326 105.963C82.6196 106.124 77.568 108.457 77.4657 108.9C76.2576 108.253 74.7425 108.954 74.2944 110.303C73.9777 111.244 74.2944 112.194 75.1128 112.783L75.3709 112.968C82.7609 118.263 95.1246 127.129 105.739 127.417C107.157 127.456 108.526 127.344 109.807 127.076C109.417 128.888 109.203 130.837 108.989 132.722L108.969 132.902C108.886 133.608 108.799 134.334 108.701 135.065L108.594 135.932C94.881 133.954 84.12 129.891 76.6132 123.851C69.0868 117.801 64.9023 112.885 65.4137 110.688C65.5648 110.05 66.1396 109.631 67.1723 109.407C68.5266 109.11 69.0381 107.946 68.9407 106.928C68.8091 105.544 67.6644 104.648 66.3344 104.94C63.1875 105.627 61.3169 107.001 60.7713 109.017C59.3829 114.186 67.3477 121.785 68.9553 123.257C79.0537 132.478 91.8802 138.105 108.165 140.453C108.112 141.763 108.151 142.932 108.277 143.999C105.437 143.887 102.656 142.806 99.9765 141.753C98.6954 141.252 88.6164 138.066 86.1563 137.247C78.4205 134.661 70.9769 131.957 65.0094 127.246C60.7956 123.919 55.0766 116.821 55.5881 111.468ZM167.222 166.232C167.071 166.208 166.92 166.184 166.788 166.159C166.7 166.13 166.627 166.12 166.525 166.106C164.952 164.834 163.334 163.514 162.19 161.814C161.819 161.263 161.288 160.952 160.679 160.937C159.91 160.918 159.13 161.38 158.736 162.096C158.365 162.769 158.409 163.534 158.853 164.196C160.231 166.247 162.126 167.801 163.972 169.306C167.124 176 170.115 183.161 169.687 190.809C168.474 189.177 167.465 187.384 166.491 185.625C165.458 183.769 164.387 181.85 163.076 180.121C162.604 179.502 162.048 179.361 161.663 179.346C160.899 179.327 160.129 179.814 159.744 180.564C159.369 181.3 159.442 182.103 159.949 182.766C161.23 184.451 162.277 186.342 163.3 188.168C164.27 189.917 165.273 191.705 166.486 193.356C166.472 193.561 166.467 193.766 166.506 193.975C168.055 202.188 167.382 210.397 164.664 216.593C164.479 216.437 164.275 216.311 164.036 216.203C163.495 215.531 162.945 214.859 162.399 214.187C160.246 211.551 158.02 208.823 156.091 205.964C155.745 205.457 155.082 205.131 154.356 205.111C153.747 205.097 153.187 205.301 152.836 205.676L151.896 206.67C150.211 208.463 146.367 211.917 146.314 212.009C145.008 212.993 143.425 212.706 142.567 211.308C141.009 208.775 136.936 210.981 138.505 213.534C139.635 215.37 141.959 217.962 144.906 217.874C145.992 217.845 146.849 216.978 147.741 216.418C148.364 216.135 148.978 215.794 149.558 215.331C149.806 215.132 149.982 214.917 150.118 214.693C151.507 213.549 152.797 212.267 154.069 210.933C155.647 213.076 157.347 215.171 158.989 217.197C159.515 217.845 160.041 218.493 160.572 219.151C160.597 219.18 160.616 219.204 160.64 219.229C160.446 220.466 160.26 221.801 160.066 223.204C159.569 226.774 158.999 230.818 158.146 234.783C158.073 234.842 157.995 234.91 157.922 234.983C157.498 235.421 157.079 235.86 156.651 236.298C155.623 232.596 154.415 228.713 152.369 225.089C152.072 224.558 151.438 224.217 150.722 224.197C150.23 224.183 149.777 224.329 149.46 224.612C147.799 226.053 146.353 227.758 144.945 229.4C144.185 230.292 143.396 231.217 142.587 232.084C141.842 232.883 141.306 233.283 140.994 233.273C140.565 233.263 140.185 232.216 139.898 231.3C139.61 230.374 139.386 229.405 139.162 228.475C138.943 227.534 138.714 226.56 138.422 225.615C138.173 224.801 137.545 224.305 136.736 224.28C136.03 224.261 135.324 224.602 134.89 225.177C134.481 225.712 134.374 226.375 134.578 227.042C134.695 227.417 134.832 228.075 134.987 228.835C135.713 232.328 136.926 238.169 140.064 238.252C140.288 238.261 140.521 238.237 140.755 238.178C144.039 237.409 146.304 234.535 148.501 231.748C149.061 231.037 149.602 230.355 150.147 229.712C151.507 232.757 152.383 236.045 153.231 239.236L153.704 240.989C153.918 241.788 154.566 242.275 155.428 242.3C155.637 242.305 155.847 242.285 156.052 242.236C154.308 247.054 152.072 250.479 149.251 252.666C149.066 251.887 148.866 251.117 148.666 250.342C148.126 248.233 147.57 246.051 147.259 243.854C147.093 242.66 146.026 242.012 145.057 241.983C144.501 241.968 143.966 242.154 143.561 242.499C142.28 243.591 141.091 244.804 139.937 245.973C138.675 247.249 137.384 248.574 135.981 249.719L135.947 249.573C135.002 245.408 134.116 241.472 130.822 238.217C129.77 237.175 128.231 237.238 127.276 238.354C126.492 239.27 125.732 240.195 124.967 241.126C123.062 243.459 121.255 245.676 119.058 247.6C118.405 246.202 117.899 244.706 117.411 243.259C116.871 241.662 116.31 240.01 115.555 238.461C115.175 237.682 114.484 237.224 113.656 237.199C112.808 237.175 111.97 237.608 111.522 238.305C111.118 238.934 111.088 239.679 111.444 240.4C112.238 242.012 112.837 243.712 113.422 245.354C114.269 247.741 115.146 250.201 116.608 252.457C116.949 252.973 117.504 253.27 118.176 253.29C118.732 253.304 119.34 253.119 119.808 252.798C123.291 250.376 125.912 247.161 128.45 244.049L129.059 243.308C130.433 245.539 130.983 248.067 131.568 250.737C131.797 251.784 132.035 252.866 132.323 253.933C132.61 254.98 133.555 255.784 134.525 255.813C134.885 255.823 135.226 255.73 135.553 255.54C138.339 253.894 140.59 251.658 142.767 249.495C143.035 249.227 143.308 248.959 143.576 248.696C143.771 249.5 143.975 250.308 144.18 251.112C144.467 252.247 144.76 253.387 145.013 254.527C132.508 277.077 116.077 288.232 96.1671 287.692C94.3987 287.643 92.5866 287.502 90.7695 287.263C84.8995 286.503 79.2096 284.968 73.8413 282.698C75.0738 281.71 75.8094 280.258 76.3793 278.84C77.7092 281.081 79.5896 283.546 82.4735 284.55C84.4416 285.236 86.3706 284.701 88.1487 282.971C88.9963 284.462 90.5698 285.246 92.835 285.305C97.0001 285.417 102.953 282.952 106.782 280.799C107.542 280.37 107.878 279.644 107.683 278.85C107.444 277.905 106.538 277.164 105.564 277.14C105.184 277.13 104.804 277.228 104.453 277.423C102.076 278.762 99.655 279.883 97.2534 280.764C95.9381 281.247 94.5985 281.534 93.1517 281.646C92.494 281.7 92.0605 281.554 91.7974 281.208C91.13 280.341 91.6123 278.309 91.8754 277.218L91.8997 277.111C92.0751 276.37 91.8364 275.859 91.6025 275.557C91.2372 275.084 90.6283 274.792 89.9658 274.773C89.1133 274.748 88.3874 275.167 87.9879 275.951C87.1257 277.647 85.6789 280.482 83.8424 280.433C83.3406 280.419 82.8096 280.195 82.2689 279.761C80.5493 278.387 79.3801 276.005 78.3474 273.905L77.9625 273.126C77.5874 272.376 76.8519 271.894 76.0432 271.869C75.2492 271.845 74.5623 272.283 74.2018 273.038C73.6075 274.295 73.1544 275.601 72.7112 276.867L72.4042 277.754C71.8781 279.24 71.0549 279.946 69.8906 279.912C67.9566 279.858 65.5355 277.866 64.0887 276.672C63.85 276.478 63.6405 276.302 63.4603 276.161C62.8952 275.703 62.2083 275.591 61.5653 275.815C56.7475 272.356 52.3827 268.221 48.5732 263.495C49.7716 263.895 50.9505 263.218 51.3012 261.941C51.613 260.796 51.8419 259.593 52.0222 258.161C54.1656 261.907 57.0105 266.423 60.742 267.022C62.9975 267.392 64.7756 265.77 66.2468 262.185C66.7924 259.949 67.489 257.752 68.2246 255.555C68.2148 255.555 68.2148 255.55 68.2051 255.545C68.2928 255.155 68.3756 254.78 68.4535 254.43C68.6143 253.689 68.7556 253.056 68.8773 252.593C69.0771 251.848 68.8481 251.336 68.6289 251.034C68.283 250.571 67.6887 250.289 67.0311 250.269C65.9691 250.24 65.1166 250.868 64.8535 251.857C64.2982 253.938 63.6649 256.29 62.9244 258.56C62.7881 258.965 62.6663 259.379 62.5493 259.783C62.1645 261.094 61.765 262.448 61.1659 262.428C60.9272 262.424 60.479 262.234 59.6996 261.366C57.8971 259.364 56.4406 257.026 55.0279 254.775C54.1315 253.333 53.2059 251.853 52.1976 250.459C51.8322 249.958 51.2428 249.656 50.5802 249.636C49.6303 249.612 48.6171 250.191 48.505 251.356C48.4417 252.106 48.3832 252.846 48.3296 253.587C48.2079 255.253 48.091 256.841 47.8474 258.439C44.8466 256.271 42.2014 252.218 39.9703 246.367C39.6293 245.466 38.7622 244.969 37.8366 245.11C36.7746 242.49 35.8539 239.82 35.0988 237.16C36.9987 236.249 38.2507 234.325 39.2639 232.45C39.8582 233.478 40.4866 234.491 41.1053 235.475C42.1673 237.185 43.2682 238.958 44.1841 240.799C44.7248 241.89 46.196 242.441 47.2238 241.871L48.4807 241.179C51.1015 239.737 53.5908 238.368 55.968 236.698C56.9228 241.433 59.227 245.003 62.8221 247.322C63.1924 247.561 63.66 247.702 64.1326 247.712C64.9558 247.736 65.6573 247.371 65.9983 246.738C67.2357 244.467 68.4145 242.314 70.3631 240.673C72.0876 243.216 74.2554 245.374 77.1636 247.429C77.529 247.692 77.9528 247.834 78.3912 247.843C79.3022 247.868 80.1644 247.322 80.5639 246.474L84.2126 243.362C84.2272 243.357 84.237 243.347 84.2516 243.337C85.4353 246.026 87.0575 248.477 89.8537 249.164C95.2561 250.489 98.5151 243.751 101.735 240.77C103.932 238.744 100.746 235.377 98.5492 237.409C96.2548 239.533 94.3403 243.717 91.2128 244.653C89.123 245.276 86.848 237.194 86.2732 235.743C85.1771 232.971 81.1241 235.226 82.2104 237.969C82.3566 238.339 82.4979 238.729 82.644 239.133C80.4762 239.84 78.9661 240.78 77.8261 242.217C75.7558 240.492 74.2846 238.705 73.0911 236.469C72.5017 235.373 71.0646 234.846 70.0562 235.407C66.8313 237.199 64.9217 239.713 63.5042 242.007C61.2584 239.728 60.0795 236.547 60.0016 232.552C59.9724 231.246 58.9299 230.116 57.7218 230.082C57.2005 230.068 56.6939 230.267 56.2652 230.657C53.4252 233.224 50.1126 235.09 47.1459 236.727C46.5126 235.621 45.8355 234.535 45.1778 233.478C43.8138 231.281 42.406 229.015 41.3879 226.584C41.0663 225.81 40.2626 225.294 39.3467 225.269C38.5478 225.25 37.8415 225.61 37.4566 226.234C37.2033 226.648 36.8867 227.32 36.5262 228.099C35.7224 229.824 34.524 232.377 33.4864 232.951C32.7216 232.338 31.6499 232.216 30.9094 232.679C28.6832 225.581 29.3213 218.079 30.2518 210.387C30.3151 210.319 30.3736 210.246 30.432 210.163C30.9338 209.427 31.3966 208.672 31.8593 207.922C32.5219 206.845 33.1551 205.818 33.8859 204.853C34.2804 206.134 34.5825 207.464 34.8748 208.755C35.2986 210.64 35.7419 212.589 36.4872 214.43C36.7941 215.195 37.6271 215.726 38.5624 215.755C39.3662 215.78 40.0726 215.409 40.4331 214.776C41.5389 212.798 42.9224 210.967 44.2864 209.198C44.7053 212.715 45.4652 217.017 48.8314 218.284C49.2893 218.454 49.7618 218.547 50.2295 218.561C53.167 218.644 55.705 215.619 57.9361 212.954C58.2284 212.608 58.5109 212.267 58.7935 211.941C59.1004 215.307 59.5973 218.961 63.3872 219.95C63.8208 220.062 64.2592 220.125 64.6976 220.135C69.6227 220.271 73.4711 213.924 75.5366 210.518L75.6437 210.343C76.087 209.612 76.1114 208.775 75.712 208.034C75.293 207.264 74.4892 206.748 73.6708 206.729C72.9499 206.709 72.3214 207.074 71.9074 207.752C71.1182 209.052 66.1347 215.711 64.381 215.663C64.2836 215.633 64.0985 215.658 63.9718 215.244C63.5334 213.875 63.4116 212.457 63.2801 210.957C63.168 209.627 63.0511 208.253 62.6857 206.928C62.4081 205.886 61.4581 205.082 60.4936 205.058C60.138 205.048 59.7921 205.136 59.4657 205.321C57.8435 206.246 56.5088 207.898 55.2227 209.5C53.698 211.39 52.256 213.178 50.4779 213.802C49.679 213.446 48.6804 207.182 48.3491 205.121C48.1786 204.049 48.052 203.275 47.9692 202.963C47.6866 201.93 46.7221 201.156 45.6747 201.126C44.944 201.107 44.3058 201.448 43.8772 202.091C42.9467 203.484 41.9042 204.838 40.9007 206.139C40.3746 206.821 39.8436 207.508 39.3321 208.2C39.2347 207.79 39.1421 207.381 39.0544 206.972C38.5186 204.561 37.9584 202.067 36.7064 199.748C36.0244 198.486 34.3097 198.096 33.2087 198.983C31.0117 200.761 29.6234 202.963 28.1571 205.287L27.8404 205.788C27.6894 205.813 27.5384 205.852 27.402 205.9C26.4033 200.201 28.3714 194.36 30.2713 188.709C30.6902 187.467 31.1091 186.225 31.494 184.992C31.6791 184.851 31.8399 184.69 31.9763 184.495C32.858 185.007 33.7641 185.275 34.675 185.304C38.1727 185.401 41.2076 181.933 43.8966 178.767C43.5946 181.826 43.4436 184.773 44.4617 187.93C44.7102 188.724 45.4701 189.235 46.42 189.26C47.0095 189.274 47.5843 189.094 47.9886 188.753C50.5023 186.658 52.8503 184.198 55.1496 181.256C56.3285 184.734 57.8484 187.92 60.6056 188.636C60.8882 188.709 61.1805 188.753 61.463 188.758C64.0108 188.826 65.896 186.215 67.1626 183.969C67.2698 184.149 67.3721 184.335 67.4792 184.525C69.2573 187.652 71.2692 191.194 74.0021 192.066C74.572 192.246 75.1469 192.348 75.7071 192.358C78.6104 192.441 80.8903 190.322 82.7512 188.1C83.1409 188.889 83.4673 189.781 83.8083 190.711C84.8751 193.615 86.0881 196.913 89.6637 197.01C90.0291 197.02 90.4139 196.995 90.8183 196.942C94.3695 196.435 96.5324 193.926 98.0231 191.588C98.0864 191.749 98.1546 191.914 98.2179 192.08C99.7427 195.875 101.633 200.595 105.394 200.698C105.929 200.712 106.49 200.629 107.064 200.454C110.362 199.436 112.511 197.068 114.386 194.482C118.03 188.602 118.673 186.205 117.66 185.392C117.377 185.25 117.075 185.158 116.749 185.148C116.023 185.129 115.322 185.455 114.825 186.049C114.601 186.322 114.25 186.838 113.768 187.545C111.985 190.171 108.277 195.631 105.774 195.563C105.077 195.544 104.517 195.066 104.054 194.107C103.572 193.103 103.158 192.051 102.758 191.038C101.988 189.089 101.204 187.072 99.9035 185.309C99.5089 184.773 98.973 184.481 98.3495 184.466C97.4434 184.442 96.4935 185.031 96.0356 185.903C94.4767 188.884 92.0702 191.876 90.2191 191.822C89.1814 191.793 88.3338 190.775 87.6908 188.792C86.9114 186.381 86.1514 184.388 84.1541 182.566C83.3065 181.797 81.7038 182.099 80.9536 183.058C80.8903 183.141 80.7977 183.263 80.6857 183.419C79.7455 184.7 76.5596 189.06 75.2151 187.447C74.3772 186.444 73.7195 185.435 72.9839 184.227C71.8245 182.313 70.407 180.067 68.6825 177.977C68.2587 177.461 67.7082 177.178 67.0944 177.164C66.1981 177.139 65.2871 177.709 64.8292 178.591C64.7074 178.82 64.5856 179.069 64.4492 179.327C63.6844 180.832 62.5299 183.102 61.614 183.078C61.2 183.068 60.7372 182.483 60.3134 181.446C59.7239 179.975 59.1588 178.499 58.5937 177.018L57.9751 175.415C57.6682 174.626 56.9131 174.124 56.0021 174.1C55.1984 174.075 54.4676 174.431 54.0487 175.04C52.0027 178.026 50.0882 180.408 48.0812 182.469C48.0617 180.822 48.2809 179.132 48.5001 177.495C48.695 175.965 48.9045 174.377 48.9191 172.828C48.924 171.489 47.9789 170.456 46.7172 170.417C46.196 170.402 45.6845 170.568 45.2217 170.885C44.3984 171.459 43.2244 172.833 41.8701 174.426C39.3321 177.407 35.7078 181.602 34.071 180.457C33.8664 180.316 33.6569 180.213 33.4328 180.145C33.6423 179.185 33.8177 178.211 33.9833 177.261C34.3633 175.147 34.7481 172.965 35.5665 170.948C35.8442 170.256 35.7955 169.564 35.4204 168.99C35.0014 168.351 34.2415 167.947 33.4377 167.923C32.4731 167.898 31.6791 168.424 31.3137 169.331C30.7584 170.695 30.3979 172.122 30.1056 173.544C30.3443 172.127 30.6464 170.529 31.0361 168.931C31.8837 165.492 33.9346 162.286 35.9221 159.188C37.4664 156.772 39.0642 154.278 40.1115 151.652C40.3746 150.999 40.2918 150.269 39.8875 149.66C39.1275 148.505 37.481 148.193 36.5116 149.119C36.4434 149.187 36.3703 149.251 36.2923 149.314C37.3689 143.239 39.5367 137.364 42.8931 131.387C43.2585 130.739 43.3559 130.081 43.1757 129.477C42.9906 128.864 42.5424 128.347 41.9042 128.031C41.4755 127.027 46.6246 119.204 51.1989 113.402C51.4766 117.372 53.3862 121.737 56.4357 125.293C63.6795 133.725 74.4746 138.105 83.0678 140.969C84.8702 141.568 86.7165 142.138 88.5043 142.689C91.3833 143.575 94.3646 144.486 97.2193 145.568L97.4434 145.651C101.326 147.117 105.355 148.627 109.559 148.466C109.861 149.119 110.192 149.772 110.523 150.425C111.678 152.685 112.871 155.028 112.647 157.371C112.589 157.965 112.808 158.589 113.256 159.096C113.977 159.909 115.088 160.143 115.916 159.617C117.791 158.438 119.871 157.435 122.068 156.373C126.847 154.068 131.787 151.686 134.739 147.224C136.147 147.058 137.569 147.015 138.948 146.976C142.577 146.868 146.333 146.751 149.675 144.34C153.202 146.147 157.323 147.385 161.629 147.93C164.445 153.279 167.368 159.471 167.222 166.232ZM137.374 142.698C137.886 141.661 138.349 140.604 138.743 139.547C140.049 139.522 141.208 139.269 142.197 138.792C143.171 139.834 144.233 140.803 145.364 141.666C143.069 142.659 140.497 142.674 137.789 142.694L137.374 142.698ZM175.352 93.838C173.058 95.6064 171.08 97.969 169.165 100.263C165.278 104.916 161.59 109.324 155.647 108.896L155.535 108.891C155.145 108.881 154.795 108.988 154.473 109.149C153.255 109.056 152.037 108.964 150.825 108.827C149.568 108.686 148.476 109.899 148.447 111.078C148.413 112.423 149.446 113.314 150.698 113.455C151.219 113.514 151.74 113.548 152.262 113.592C162.16 115.146 167.704 128.878 171.786 139.084C172.346 140.492 174.685 143.765 175.206 145.017C172.673 145.509 168.24 143.795 165.575 143.721C154.941 143.429 142.051 138.28 140.711 124.708C140.604 123.612 139.839 122.881 138.753 122.852C138.281 122.838 137.798 122.964 137.379 123.208C136.683 123.252 136.049 123.563 135.669 124.06C135.411 124.401 135.148 124.981 135.358 125.819C136.741 131.368 135.577 138.105 132.386 143.035C132.376 143.039 132.362 143.039 132.352 143.044C131.485 144.71 130.262 146.152 128.684 147.107C126.039 149.231 122.984 150.795 120.013 152.29C118.985 152.807 117.952 153.323 116.939 153.869C116.695 152.924 116.31 152.008 115.775 151.087C113.763 147.623 112.491 144.384 112.837 139.839C112.891 139.103 112.925 138.251 112.964 137.311C113.134 133.297 113.363 127.807 115.438 124.591C116.281 123.987 117.095 123.257 117.869 122.428L117.913 122.409C118.079 122.331 118.244 122.248 118.434 122.195C119.111 121.99 119.643 121.532 119.925 120.899C120.212 120.246 120.212 119.447 119.925 118.799C119.755 117.732 118.736 116.846 117.621 116.817C116.905 116.797 116.267 117.133 115.828 117.762C115.56 118.137 115.287 118.492 114.995 118.838C113.953 119.452 113.071 120.217 112.321 121.176C110.382 122.409 108.083 123.003 105.481 122.935C97.0391 122.706 86.848 115.628 80.9098 111.351C85.6643 110.718 90.5162 107.819 95.2172 105.003C97.268 103.776 99.3871 102.509 101.457 101.457C101.477 101.457 101.501 101.457 101.521 101.462C102.256 101.481 102.87 101.174 103.27 100.595C107.449 98.7192 110.713 98.2467 113.743 99.0407C114.995 100.302 116.578 101.286 118.464 101.964C118.707 102.051 118.956 102.1 119.209 102.11H119.248C120.324 102.641 121.615 102.007 122.093 100.785C122.468 99.8104 122.219 98.7874 121.44 98.1151C119.837 96.7219 118.152 95.6697 116.432 94.9779C111.23 87.1983 122.39 67.7369 127.174 59.587C128.479 62.695 130.559 65.4863 132.576 68.19C133.058 68.833 133.541 69.4809 134.013 70.1337C136.741 73.8993 140.668 82.1758 139.591 88.3723C139.162 90.8275 137.988 92.7322 136.103 94.0231C135.328 94.5493 135.017 95.3677 135.26 96.2104C135.557 97.2091 136.522 97.9544 137.564 97.9836C138.052 97.9982 138.529 97.8521 138.958 97.5598C139.157 97.4185 139.347 97.2626 139.537 97.1019C140.4 97.2967 141.194 96.9216 141.637 96.0838C144.068 91.5533 149.061 89.3563 156.48 89.5609C164.041 89.7753 171.796 92.4448 175.352 93.838ZM159.325 80.3978C156.125 82.1125 152.973 83.9295 150.303 85.4787C147.858 85.883 145.695 86.5893 143.868 87.5734C144 86.263 144.029 84.86 143.961 83.3937C146.45 81.9079 149.022 80.466 151.516 79.0727C154.196 77.5723 156.962 76.0183 159.637 74.4108C163.783 71.9166 167.948 69.3153 171.986 66.7967C174.597 65.1648 177.218 63.5329 179.844 61.9204C181.057 61.1751 182.313 60.4541 183.424 59.8306C183.575 60.1083 183.726 60.3859 183.877 60.6636C184.52 61.8571 185.188 63.0847 185.967 64.2392C177.461 70.5234 168.147 75.6676 159.325 80.3978ZM189.854 61.2189L189.547 61.4576C188.89 60.4736 188.33 59.4116 187.779 58.3789C187.638 58.1158 187.497 57.8528 187.355 57.5849C188.524 56.9126 189.752 56.1916 190.975 55.4073C190.98 55.9627 190.989 56.5131 190.999 57.0636C191.019 58.1353 191.038 59.2022 191.028 60.2739C190.644 60.6003 190.249 60.9072 189.854 61.2189ZM195.583 59.8306C195.583 58.9683 195.569 58.1061 195.549 57.2439C195.525 56.0893 195.505 54.9007 195.525 53.7267C196.402 54.4428 197.259 55.2612 198.121 56.2111C197.483 57.2098 196.587 58.5591 195.583 59.8306ZM224.105 92.1574C223.087 92.703 222.045 93.2632 221.032 93.8721C216.545 88.4259 212.409 82.5655 208.405 76.9001C205.238 72.4135 201.965 67.7759 198.526 63.3624C199.388 62.3345 200.245 61.1995 201.088 59.967C202.14 61.4625 222.162 86.1412 224.958 91.7043C224.671 91.8554 224.393 92.0064 224.105 92.1574Z" fill="#FF5B0D"/>
<path d="M150.43 98.1629C150.128 98.1532 149.826 98.2067 149.524 98.3139C146.606 99.3856 143.805 100.808 141.091 102.187C140.575 102.45 140.064 102.708 139.542 102.971C137.618 100.706 134.583 99.5513 131.47 99.902C131.246 98.7913 130.973 97.6904 130.71 96.6187C130.311 94.9819 129.892 93.2963 129.663 91.6011C129.507 90.5148 128.713 89.7938 127.622 89.7646C126.891 89.7451 126.17 90.0471 125.707 90.5683C125.269 91.0555 125.084 91.6839 125.181 92.3805C125.42 94.0953 125.839 95.7905 126.238 97.4322C126.54 98.6549 126.847 99.9166 127.081 101.173C124.465 102.386 122.38 104.296 121.177 106.566C121.011 106.883 120.86 107.224 120.729 107.584C115.794 106.527 111.483 108.208 108.024 112.543C107.498 113.201 107.386 113.985 107.717 114.692C108.092 115.5 108.964 116.061 109.88 116.085C110.591 116.104 111.239 115.793 111.702 115.213C114.104 112.202 116.822 111.233 120.271 112.159C120.646 114.833 122.049 117.098 124.149 118.399C124.806 118.808 125.547 119.159 126.346 119.446C126.195 120.055 126.039 120.664 125.893 121.273C125.225 123.986 124.533 126.792 123.432 129.413C123.15 130.1 123.194 130.792 123.559 131.367C123.968 132.005 124.728 132.409 125.542 132.433C126.501 132.458 127.3 131.937 127.675 131.04C128.791 128.371 129.488 125.54 130.165 122.803C130.374 121.96 130.579 121.112 130.803 120.269C134.008 120.352 137.038 119.397 139.172 117.649C142.421 119.207 145.544 120.825 148.126 123.226C148.52 123.587 148.968 123.787 149.422 123.801C150.25 123.826 151.049 123.231 151.419 122.325C151.823 121.336 151.599 120.289 150.844 119.583C148.822 117.707 146.513 116.294 144.194 115.081C143.644 115.013 143.206 114.774 142.845 114.443C143.931 111.988 143.654 109.012 142.338 106.644C142.597 106.513 142.85 106.386 143.113 106.254C145.773 104.905 148.53 103.507 151.375 102.464C152.359 102.104 152.866 101.256 152.705 100.258C152.564 99.2687 151.701 98.197 150.43 98.1629Z" fill="#FF5B0D"/>
<path d="M125.761 209.346C125.055 212.322 123.696 214.977 122.015 217.52C117.762 223.97 113.797 214.734 112.93 211.314C112.433 209.346 109.802 208.971 108.716 210.646C105.988 214.841 101.024 222.099 98.4713 212.98C97.6675 210.111 93.1663 211.202 93.975 214.091C95.1149 218.173 96.6981 222.392 101.453 222.796C104.76 223.078 107.722 220.068 109.963 217.052C111.756 221.403 114.83 226.03 119.438 224.9C125.396 223.434 128.898 216.205 130.199 210.705C130.876 207.802 126.448 206.438 125.761 209.346Z" fill="#FF5B0D"/>
<path d="M147.916 189.06C146.874 190.673 144.531 195.237 142.046 193.79C139.601 192.363 137.764 189.313 135.903 187.238C133.901 185.012 130.545 188.198 132.537 190.424C135.134 193.318 137.579 197.249 141.432 198.574C146.099 200.177 149.772 194.721 151.848 191.51C153.475 188.992 149.534 186.556 147.916 189.06Z" fill="#FF5B0D"/>
</svg>
