<svg width="400" height="644" viewBox="0 0 400 644" fill="none" xmlns="http://www.w3.org/2000/svg">
<path d="M184.911 23.1859C172.738 39.1694 158.56 53.4731 146.187 69.2937C144.57 71.3622 147.453 74.3207 149.083 72.2271C161.669 56.1308 176.06 41.5513 188.446 25.292C190.063 23.1734 186.49 21.1049 184.911 23.1859Z" fill="#FF5B0D"/>
<path d="M234.515 59.2526C250.925 79.5736 267.022 100.133 280.937 122.259C282.341 124.503 285.926 122.447 284.509 120.203C270.406 97.7761 254.072 76.941 237.449 56.3568C235.769 54.2758 232.848 57.1967 234.515 59.2526Z" fill="#FF5B0D"/>
<path d="M210.898 72.3016C211.437 74.9091 215.411 73.8185 214.872 71.2235C211.562 55.24 208.365 39.2439 203.088 23.7618C202.235 21.2671 198.249 22.3202 199.101 24.8399C204.404 40.322 207.588 56.3181 210.898 72.3016Z" fill="#FF5B0D"/>
<path d="M242.802 121.857C236.145 105.347 231.356 88.1724 224.298 71.8128C223.245 69.3808 219.685 71.4618 220.726 73.8687C227.645 89.8898 232.296 106.751 238.828 122.922C239.793 125.367 243.792 124.327 242.802 121.857Z" fill="#FF5B0D"/>
<path d="M184.121 126.583C186.139 91.5576 192.608 57.0582 197.948 22.446C198.349 19.8511 194.388 18.7103 193.974 21.3303C188.571 56.3061 182.027 91.1815 179.996 126.571C179.846 129.216 183.958 129.229 184.121 126.583Z" fill="#FF5B0D"/>
<path d="M79.7947 123.061C87.9306 114.373 96.6307 106.1 104.829 97.4121C100.993 102 97.1823 106.614 93.4214 111.277C91.7667 113.32 94.65 116.279 96.3173 114.211C110.044 97.1739 124.436 80.6889 138.702 64.1162C145.584 56.1307 152.592 48.2079 159.186 39.9968C164.84 32.9515 170.305 25.7683 177.15 19.8136C179.156 18.0711 176.248 15.1502 174.254 16.8927C166.745 23.4366 160.966 31.4847 154.61 39.0942C147.841 47.1925 140.971 55.2031 134.089 63.2011C129.287 68.7671 124.486 74.3332 119.697 79.9117C120.675 77.9185 117.416 76.176 115.936 78.1692C104.528 93.4632 89.9113 106.25 76.8989 120.153C75.0811 122.071 77.977 125.004 79.7947 123.061Z" fill="#FF5B0D"/>
<path d="M399.904 626.649C391.58 599.583 320.827 369.859 299.077 277.794C311.65 277.831 324.224 278.07 336.685 279.022C339.154 279.21 339.531 276.302 337.826 275.262C338.189 273.669 338.515 272.04 338.615 270.435C340.759 270.548 342.915 270.673 345.059 270.824C347.215 270.974 347.942 269.207 347.228 267.94C349.083 262.625 349.296 256.533 347.591 251.167C347.378 250.478 346.902 250.051 346.363 249.863C346.024 249.688 345.623 249.562 345.147 249.525C326.017 248.209 306.698 248.171 287.393 248.234C289.411 227.888 287.293 207.19 287.568 186.794C287.731 174.371 288.007 161.948 288.258 149.524C288.734 149.487 289.211 149.474 289.674 149.437C289.687 149.437 289.7 149.437 289.712 149.437C289.725 149.437 289.75 149.437 289.762 149.437C290.991 149.449 291.68 148.496 291.831 147.381C292.031 145.964 292.119 144.548 292.157 143.131C292.483 143.432 292.808 143.733 293.134 144.034C294.401 145.212 296.707 144.472 296.657 142.592C296.557 138.944 296.018 135.459 294.927 132.099C298.111 133.817 301.408 135.283 304.818 136.449C305.169 137.026 305.533 137.603 305.884 138.179C306.874 139.821 309.018 139.195 309.607 137.866C311.161 138.254 312.728 138.58 314.333 138.831C315.637 139.032 316.94 138.317 316.953 136.85C316.966 135.296 315.875 134.356 314.947 133.152C314.508 132.601 314.082 132.036 313.656 131.485C313.117 130.57 312.578 129.667 312.039 128.765C313.694 129.379 315.361 129.993 316.978 130.745C318.921 131.648 320.651 129.868 319.811 127.937C316.64 120.666 310.911 115.389 304.73 110.637C302.624 109.02 300.556 112.593 302.624 114.185C306.711 117.332 310.497 120.767 313.38 124.941C311.049 124.064 308.767 123.098 306.724 121.644C304.743 120.227 302.699 123.211 304.204 124.866C304.216 124.878 304.241 124.903 304.254 124.929C304.279 125.217 304.367 125.518 304.567 125.831C304.994 126.521 306.423 128.175 307.965 130.018C308.065 130.181 308.178 130.357 308.278 130.532C308.366 130.595 308.454 130.658 308.541 130.72C309.494 131.848 310.434 133.014 311.199 134.042C309.945 133.741 308.717 133.378 307.488 133.002C288.145 101.649 264.665 73.2046 240.182 45.763C238.414 43.7698 235.493 46.6907 237.248 48.6589C260.34 74.5459 282.516 101.298 301.12 130.595C297.823 129.128 294.651 127.373 291.567 125.38C289.775 124.214 287.769 126.433 288.734 128.188C290.402 131.222 291.442 134.28 291.994 137.502C288.672 134.531 285.249 131.685 281.576 129.103C280.561 128.401 278.743 129.053 278.542 130.319C278.304 131.798 278.016 133.227 277.665 134.644C276.135 132.563 274.606 130.482 273.052 128.426C272.249 127.361 270.933 127.373 270.03 127.9C269.115 128.226 268.351 129.103 268.589 130.332C268.676 130.745 268.714 131.159 268.727 131.585C267.486 130.332 266.32 128.978 265.179 127.624C265.016 127.436 264.803 127.298 264.577 127.198C245.259 86.6934 219.385 49.5364 202.285 7.9416C210.446 17.5693 218.871 26.9714 226.643 36.9125C228.273 39.0061 231.181 36.0852 229.576 34.0167C224.487 27.4979 219.109 21.2173 213.718 14.9618C252.091 47.6058 283.532 87.5835 319.485 122.772C321.391 124.64 324.036 121.481 322.143 119.626C303.878 101.749 286.791 82.6442 269.366 63.8902C282.516 75.599 295.667 87.3202 308.416 99.4802C310.334 101.311 313.267 98.4147 311.349 96.5844C291.981 78.1187 271.698 60.6559 251.853 42.7042C250.975 41.9019 249.897 42.0523 249.158 42.6165C234.541 27.6985 219.309 13.4324 202.649 0.670652C202.035 0.19428 201.37 0.14414 200.793 0.332181C200.066 -0.106582 199.114 -0.181801 198.311 0.545293C156.278 38.2915 125.439 86.1418 88.4575 128.464C86.7149 130.457 89.6108 133.403 91.3533 131.397C127.257 90.3163 157.406 44.0456 197.584 6.83842C197.572 7.10168 197.609 7.39001 197.735 7.70341C214.997 50.2635 241.423 88.1476 261.117 129.517C260.127 131.259 258.936 132.814 257.482 134.193C257.457 134.143 257.432 134.105 257.406 134.067C257.394 134.08 257.381 134.092 257.369 134.117C254.824 131.234 251.602 129.178 248.669 126.521C247.666 125.605 246.174 125.756 245.435 126.922C244.256 128.777 242.764 130.369 241.448 132.099C239.116 129.68 236.383 127.624 234.566 124.816C233.538 123.224 231.444 123.637 230.792 125.292C229.426 128.752 227.871 132.062 225.841 135.108C222.656 119.638 220.187 104.031 217.429 88.4735C216.965 85.8535 212.991 86.9441 213.442 89.5517C215.711 102.338 217.78 115.15 220.199 127.9C219.623 127.173 219.021 126.433 218.419 125.693C217.592 124.69 215.762 124.991 215.185 126.094C213.167 129.943 210.898 133.629 208.541 137.264C206.623 134.97 204.479 132.839 203.401 130.018C204.391 121.97 205.256 113.922 205.382 105.798C205.419 103.141 201.307 103.128 201.257 105.773C201.082 117.307 199.427 128.677 197.998 140.097C197.672 142.73 201.796 142.73 202.122 140.122C202.285 138.856 202.448 137.59 202.599 136.324C204.028 138.117 205.582 139.834 206.861 141.877C207.701 143.231 209.556 143.194 210.421 141.902C212.828 138.292 215.16 134.619 217.291 130.833C219.648 133.829 221.679 136.813 222.468 140.787C222.681 141.84 223.785 142.391 224.775 142.266C224.825 142.266 224.875 142.253 224.925 142.253C224.951 142.253 224.988 142.241 225.013 142.241C225.803 142.103 226.543 141.551 226.768 140.724C229.564 137.414 231.607 133.704 233.35 129.78C235.518 132.036 238.038 133.955 239.881 136.549C240.721 137.74 242.639 138.029 243.441 136.562C244.544 134.519 246.137 132.814 247.578 130.983C250.512 133.328 253.658 135.409 255.677 138.681C256.454 139.947 258.485 140.11 259.237 138.693C259.375 138.442 259.538 138.204 259.676 137.954C259.65 137.916 259.625 137.866 259.6 137.828C261.368 136.324 262.86 134.594 264.076 132.651C265.63 134.368 267.26 135.998 269.128 137.414C270.218 138.242 271.823 137.364 272.162 136.198C272.312 135.685 272.437 135.158 272.525 134.644C273.879 136.487 275.233 138.33 276.612 140.147C277.715 141.602 279.721 141.451 280.385 139.671C281.037 137.941 281.513 136.236 281.902 134.481C284.033 136.111 286.089 137.828 288.107 139.596C288.057 139.784 288.02 139.984 288.007 140.198C287.995 141.965 287.97 143.72 287.832 145.463C250.624 147.907 213.317 148.735 176.022 148.572C175.608 148.572 175.27 148.672 174.969 148.822C174.668 148.81 174.355 148.81 174.054 148.797C173.064 144.873 173.39 140.611 173.791 136.562C174.606 137.264 175.345 138.041 175.972 138.969C176.724 140.085 178.191 140.348 179.206 139.395C180.823 137.878 182.378 136.399 183.769 134.757C185.499 137.226 187.43 138.756 189.436 139.445C189.398 142.003 193.422 141.99 193.56 139.37C195.152 108.632 198.65 78.0435 200.881 47.3551C201.082 44.6975 196.957 44.6975 196.757 47.33C194.613 76.7021 191.341 105.986 189.661 135.384C187.844 134.067 186.803 132.062 185.763 130.043C185.023 128.614 183.005 128.79 182.202 130.031C180.986 131.924 179.52 133.428 177.953 134.92C176.285 133.177 174.317 131.886 172.387 130.256C171.334 129.366 169.942 129.492 169.152 130.658C167.874 132.538 166.056 133.842 164.539 135.434C164.351 135.258 164.15 135.095 163.962 134.932C167.548 124.339 171.66 113.934 174.43 103.078C175.082 100.508 171.121 99.3925 170.469 101.962C166.846 116.203 160.866 129.68 156.867 143.795C156.14 146.353 160.114 147.468 160.841 144.911C161.38 143.018 161.957 141.138 162.558 139.257C162.797 139.495 163.047 139.734 163.26 139.997C164.125 141.025 165.868 140.674 166.495 139.596C167.322 138.179 168.538 137.076 169.754 135.948C169.353 140.135 169.002 144.522 169.817 148.659C150.511 148.233 131.155 149.274 111.95 146.904C111.624 144.711 111.511 142.492 111.499 140.26C112.238 140.373 113.041 140.072 113.605 139.32C115.235 137.151 117.792 136.073 119.911 134.443C121.39 136.198 122.869 137.903 123.784 140.06C124.248 141.175 125.953 141.363 126.868 140.649C127.583 141.877 129.538 142.391 130.428 140.774C131.243 139.295 132.083 137.816 132.923 136.349C134.101 137.502 135.242 138.693 136.145 140.11C136.784 141.125 138.514 141.627 139.379 140.536C140.495 139.132 141.748 137.878 142.952 136.537C144.419 137.74 145.898 138.568 147.352 139.019C147.101 139.671 146.838 140.323 146.575 140.975C145.61 143.457 149.596 144.535 150.536 142.09C160.716 115.928 172.061 90.2411 181.839 63.9278C182.767 61.4332 178.793 60.3425 177.877 62.8121C168.826 87.1698 158.434 111.001 148.869 135.171C147.44 134.857 145.898 133.867 144.231 132.149C143.516 131.41 142.012 131.259 141.322 132.137C140.294 133.428 139.153 134.594 138.038 135.81C137.098 134.719 136.07 133.729 135.042 132.713C142.4 120.303 150.536 108.368 157.782 95.8949C159.123 93.5883 155.563 91.4947 154.234 93.8014C147.177 105.936 139.291 117.545 132.096 129.592C132.02 129.504 131.945 129.429 131.87 129.341C131.093 128.376 129.125 128.577 128.636 129.742C127.833 131.61 126.63 133.19 125.539 134.845C124.323 133.165 122.882 131.673 121.565 129.968C120.675 128.827 119.033 129.429 118.331 130.369C117.804 131.071 117.19 131.648 116.513 132.174C131.757 109.359 148.706 87.7464 165.479 66.0464C167.109 63.9404 163.536 61.8845 161.932 63.9529C144.519 86.4678 126.931 108.882 111.248 132.663C110.408 131.234 109.543 129.805 108.841 128.263C108.804 128.188 108.753 128.15 108.716 128.088C115.247 119.789 121.49 111.252 128.56 103.392C130.328 101.423 127.445 98.4773 125.665 100.458C116.689 110.437 109.054 121.494 100.455 131.773C99.7525 132.137 99.063 132.5 98.4362 132.964C97.6088 133.578 97.4208 134.494 97.6213 135.296C96.8566 137.201 99.3388 139.395 100.906 137.59C101.696 136.687 102.46 135.76 103.225 134.845C104.403 134.205 105.544 133.604 106.585 132.801C107.086 133.641 107.6 134.469 108.089 135.308C107.65 135.634 107.349 136.148 107.349 136.863C107.337 140.837 107.349 144.811 108.051 148.747C108.264 149.926 109.18 150.339 110.082 150.226C110.421 150.602 110.897 150.891 111.524 150.966C111.825 151.004 112.126 151.029 112.426 151.066C112.84 184.036 111.536 217.031 108.102 249.838C101.971 250.001 96.8817 249.926 84.2328 249.174C82.741 249.086 81.9637 249.964 81.876 250.941C81.7506 251.054 81.6253 251.18 81.525 251.33C78.4411 255.643 78.3283 263.44 81.8384 267.828C81.5751 268.968 82.3398 270.372 84.1325 270.473C84.6716 270.51 85.1855 270.535 85.687 270.56C85.7496 270.586 85.8123 270.611 85.875 270.636C86.3263 270.774 86.74 270.761 87.091 270.636C88.5954 270.723 89.9743 270.799 91.2154 270.861C91.1527 272.466 91.3783 274.046 91.7795 275.6C90.8393 276.753 91.4786 278.859 93.6975 278.985C98.5114 279.273 101.558 279.436 103.689 279.524C80.3215 373.043 8.61501 597.966 0.102996 624.693C-0.573954 626.824 2.25921 628.04 3.55042 626.749C3.90144 628.491 6.8098 629.143 7.51182 627.062C11.6738 614.764 28.6226 564.557 48.4422 504.309C62.6832 503.77 106.56 505.587 144.406 507.092C144.231 511.943 144.055 516.745 143.88 521.458C143.792 521.458 143.717 521.446 143.629 521.433C142.613 521.007 141.209 521.245 140.645 522.549C139.429 525.357 139.091 528.253 139.705 531.249C139.805 531.75 140.043 532.114 140.344 532.377C140.395 533.154 140.896 533.831 141.987 533.919C142.463 533.957 142.939 533.994 143.416 534.032C142.914 547.257 142.413 559.768 141.949 571.252C141.535 571.364 141.147 571.64 140.846 572.091C140.821 572.129 140.808 572.167 140.783 572.204C140.407 572.58 140.169 573.057 140.094 573.533C139.091 575.915 138.978 578.698 139.341 581.193C139.392 581.519 139.492 581.794 139.642 582.02C139.492 582.935 139.931 583.838 141.197 584.001C141.272 584.013 141.347 584.013 141.423 584.026C140.307 610.966 139.442 630.522 139.141 637.43C139.041 639.661 142.099 640.1 143.002 638.508C143.804 640.1 146.775 639.962 146.913 637.781C147.352 630.648 148.543 611.43 150.097 585.066C160.916 586.332 171.735 587.574 182.516 589.178C183.067 615.404 183.519 634.396 183.694 641.83C183.757 644.312 186.715 644.575 187.568 642.808C188.408 644.638 191.479 644.262 191.467 641.729C191.416 634.734 191.266 616.244 191.116 590.557C191.805 590.67 192.495 590.783 193.184 590.908C195.014 591.234 196.117 589.542 195.817 588.25C196.456 586.144 197.008 584.001 197.008 581.782C197.008 581.092 196.719 580.578 196.306 580.227C196.318 579.412 195.854 578.623 194.739 578.435C193.51 578.222 192.269 578.021 191.028 577.808C190.953 565.811 190.877 552.472 190.827 538.206C191.956 538.344 193.084 538.482 194.212 538.633C196.531 538.946 197.559 536.138 196.18 535.022C196.456 533.167 196.619 531.324 196.644 529.456C197.496 528.528 197.522 526.961 196.356 526.347C195.679 525.106 193.861 524.893 192.983 525.783C192.256 525.695 191.517 525.608 190.79 525.52C190.777 519.929 190.752 514.225 190.74 508.433C193.222 508.483 195.415 508.508 197.208 508.496C209.356 508.471 221.491 508.408 233.638 508.333C239.041 565.648 242.342 596.623 243.571 608.645C243.834 611.215 247.921 610.776 247.658 608.219C246.492 596.736 243.14 565.773 237.687 508.308C238.414 508.308 239.141 508.295 239.868 508.295C244.269 564.946 246.743 595.257 247.758 607.191C247.971 609.761 252.071 609.397 251.857 606.827C250.88 595.432 248.368 565.121 243.918 508.27C280.297 508.019 316.665 507.681 353.032 507.844C353.12 507.844 353.182 507.831 353.27 507.819C372.212 567.353 388.346 616.72 392.345 628.93C393.022 631.011 395.943 630.397 396.307 628.654C397.711 629.983 400.556 628.792 399.904 626.649ZM199.352 5.24633C199.502 5.10844 199.64 4.98307 199.778 4.84518C199.891 4.98307 200.004 5.12097 200.117 5.24633C199.866 5.20872 199.603 5.20872 199.352 5.24633ZM388.797 604.472C366.771 536.903 307.864 354.69 288.534 277.819C290.665 277.806 292.796 277.806 294.927 277.806C313.481 356.144 368.113 536.715 388.797 604.472ZM114.445 279.173C93.7979 357.085 34.0006 536.025 11.5484 602.667C32.6467 535.937 88.0563 359.103 107.964 279.574C109.643 279.524 110.922 279.361 114.445 279.173ZM50.9369 497.125C76.2723 419.941 105.557 328.427 118.657 278.997C119.71 278.96 120.888 278.935 122.205 278.897C123.22 288.462 126.555 297.864 132.71 306.564C136.684 312.18 142.676 317.859 149.345 322.598C149.295 328.465 149.22 334.52 149.132 340.75C148.493 340.7 147.841 340.65 147.202 340.6C144.782 340.412 143.729 343.533 145.447 344.411C145.07 346.203 144.857 348.021 144.782 349.851C143.992 350.729 143.892 352.12 144.807 352.772C145.196 354.703 148.004 354.954 148.719 353.336C148.794 353.336 148.869 353.349 148.932 353.349C148.794 361.209 148.643 369.257 148.455 377.481C147.352 377.393 146.249 377.305 145.133 377.218C144.87 377.193 144.619 377.23 144.394 377.28C143.579 377.28 142.739 377.669 142.325 378.584C141.084 381.355 141.184 384.764 141.034 387.735C140.946 389.34 142.425 390.004 143.629 389.704C143.666 389.704 143.692 389.716 143.742 389.729C145.208 389.842 146.688 389.954 148.154 390.067C147.954 398.529 147.728 407.091 147.49 415.729C145.898 415.465 144.293 415.19 142.701 414.926C140.883 414.613 139.68 416.293 139.931 417.559C139.204 419.865 138.777 422.335 139.279 424.704C138.777 425.745 139.041 427.049 140.545 427.299C142.739 427.675 144.933 428.039 147.126 428.403C146.738 441.904 146.312 455.455 145.86 468.832C144.368 468.806 142.864 468.781 141.372 468.756C139.417 468.719 138.489 470.762 139.116 471.966C138.539 474.172 138.577 476.466 139.179 478.722C139.254 478.998 139.379 479.224 139.517 479.412C139.429 480.365 139.956 481.28 141.26 481.305C142.651 481.33 144.055 481.355 145.447 481.38C145.284 486.269 145.108 491.121 144.945 495.935C111.173 496.173 68.1866 496.561 50.9369 497.125ZM135.618 152.52C135.719 152.621 135.819 152.721 135.957 152.821C145.823 160.067 155.388 167.589 164.702 175.299C164.702 176.226 164.702 177.166 164.715 178.107C154.698 169.958 143.654 161.308 134.54 154.489C134.528 153.824 134.528 153.16 134.515 152.483C134.879 152.508 135.242 152.508 135.618 152.52ZM174.881 152.897C174.982 167.789 175.107 186.719 174.982 204.395C172.863 204.784 170.782 205.272 168.726 205.887C168.902 187.659 168.789 168.015 168.701 152.721C170.757 152.759 172.813 152.809 174.881 152.897ZM211.462 152.47C203.639 159.315 193.874 168.291 185.048 176.74C185.048 175.813 185.048 174.897 185.036 173.982C192.595 166.611 200.355 159.44 208.328 152.52C209.381 152.495 210.421 152.483 211.462 152.47ZM180.936 203.568C182.34 203.417 183.707 203.304 184.998 203.254C185.048 196.372 185.061 189.339 185.061 182.444C195.528 172.328 207.851 160.995 216.827 153.248C217.141 152.972 217.316 152.683 217.416 152.37C223.17 152.27 228.912 152.144 234.666 151.994C243.629 160.707 255.702 173.13 265.254 183.572C265.204 186.443 265.154 189.301 265.129 192.172C264.928 210.738 266.345 229.63 265.693 248.284C260.127 248.271 254.573 248.234 249.02 248.133C242.539 229.455 226.906 214.374 208.353 207.504C198.6 203.893 188.608 202.703 179.031 203.781C179.181 186.105 179.068 167.351 178.993 152.633C179.607 152.633 180.222 152.633 180.836 152.633C180.924 167.326 181.062 185.979 180.936 203.568ZM277.276 248.271C274.769 248.284 272.249 248.284 269.742 248.284C270.344 229.63 269.002 210.801 269.241 192.185C269.253 190.806 269.278 189.439 269.303 188.06C270.193 189.051 271.058 190.029 271.861 190.956C272.625 191.834 273.591 191.708 274.268 191.132C275.02 190.919 275.684 190.304 275.81 189.264C276.098 186.631 275.86 183.999 275.847 181.366C275.847 181.228 275.835 181.103 275.81 180.977C275.985 180.363 275.885 179.649 275.358 179.047C273.44 176.853 271.51 174.697 269.567 172.528C269.692 165.207 269.83 157.898 269.968 150.577C272.701 150.439 275.433 150.289 278.179 150.139C277.928 162.035 277.665 173.932 277.527 185.829C277.276 206.513 279.595 227.649 277.276 248.271ZM265.505 168.09C260.302 162.437 254.987 156.908 249.571 151.505C254.987 151.305 260.415 151.066 265.831 150.791C265.718 156.557 265.618 162.324 265.505 168.09ZM272.086 181.266C272.086 181.291 272.086 181.303 272.086 181.328C272.086 182.67 272.149 184.011 272.187 185.34C263.085 175.136 250.211 161.722 240.157 151.806C241.498 151.768 242.852 151.718 244.193 151.681C253.809 161.17 263.11 171.036 272.086 181.266ZM253.182 269.545C280.185 270.047 307.501 269.031 334.516 270.247C334.428 271.751 334.09 273.243 333.751 274.71C307.037 272.917 279.934 274.121 253.169 273.632C253.194 272.265 253.207 270.899 253.182 269.545ZM189.511 331.624C188.596 331.699 187.681 331.737 186.778 331.749C186.828 321.796 186.966 311.829 188.521 301.976C194.3 301.838 200.004 300.434 204.955 297.626C207.112 296.41 209.055 294.968 210.822 293.351C221.202 294.216 228.824 305.185 233.237 313.81C221.816 325.807 205.507 330.358 189.511 331.624ZM184.183 469.734C183.995 458.213 183.807 446.542 183.644 434.871C184.735 435.097 185.838 435.322 186.929 435.548C186.878 447.031 186.841 458.514 186.828 469.859C185.938 469.822 185.061 469.784 184.183 469.734ZM154.523 429.656C153.896 442.781 153.257 455.957 152.58 468.957C151.677 468.944 150.774 468.932 149.884 468.919C150.311 455.744 150.724 442.393 151.113 429.092C152.254 429.28 153.394 429.468 154.523 429.656ZM158.497 430.321C165.554 431.499 172.612 432.715 179.645 434.069C179.795 445.941 179.984 457.825 180.172 469.559C172.324 469.258 164.464 469.12 156.604 469.02C157.243 456.208 157.882 443.245 158.497 430.321ZM190.639 432.151C174.969 428.729 159.086 426.334 143.265 423.651C143.052 422.172 143.303 420.705 143.717 419.276C159.525 421.946 175.383 424.353 191.04 427.813C191.128 429.255 190.978 430.722 190.639 432.151ZM156.278 390.719C155.914 399.394 155.526 408.182 155.112 417.02C153.896 416.819 152.68 416.619 151.464 416.418C151.702 407.668 151.928 398.98 152.141 390.406C153.52 390.506 154.899 390.606 156.278 390.719ZM179.194 392.599C179.269 402.052 179.369 411.629 179.482 421.257C172.7 419.978 165.893 418.812 159.086 417.684C159.5 408.721 159.888 399.808 160.252 391.02C166.57 391.496 172.888 391.998 179.194 392.599ZM183.481 422.022C183.368 412.269 183.255 402.566 183.18 392.988C184.534 393.126 185.876 393.264 187.229 393.414C187.129 403.08 187.054 412.883 187.004 422.724C185.825 422.486 184.659 422.26 183.481 422.022ZM145.233 385.767C145.284 384.301 145.396 382.796 145.747 381.392C162.069 382.683 178.429 383.674 194.663 385.767C194.488 387.209 194.337 388.651 194.212 390.105C177.953 388.049 161.581 387.071 145.233 385.767ZM157.719 354.038C157.444 361.886 157.13 369.934 156.804 378.133C155.35 378.02 153.896 377.92 152.442 377.807C152.617 369.596 152.78 361.535 152.918 353.675C154.51 353.8 156.115 353.913 157.719 354.038ZM179.006 355.743C179.018 363.641 179.056 371.714 179.106 379.938C173.001 379.374 166.896 378.885 160.778 378.421C161.104 370.223 161.418 362.174 161.693 354.327C167.46 354.778 173.239 355.217 179.006 355.743ZM183.08 380.327C183.03 372.103 182.992 364.03 182.98 356.132C184.547 356.282 186.126 356.445 187.693 356.621C187.568 364.506 187.455 372.567 187.355 380.778C185.938 380.615 184.509 380.465 183.08 380.327ZM148.957 349.275C149.044 347.808 149.245 346.341 149.571 344.9C165.379 346.128 181.225 347.118 196.945 349.174C197.12 350.641 197.145 352.108 197.058 353.587C181.087 351.519 165.015 350.528 148.957 349.275ZM164.715 183.886C164.727 191.683 164.702 199.619 164.639 207.266C153.708 211.415 143.93 218.837 136.558 229.329C134.766 231.887 133.124 234.519 131.619 237.214C133.788 211.566 134.753 185.829 134.603 160.092C144.08 167.275 155.087 175.963 164.715 183.886ZM184.722 207.002C186.64 207.015 188.546 207.128 190.451 207.328C186.578 214.461 187.154 223.801 187.618 231.749C180.059 231.185 172.362 232.752 165.855 236.751C161.681 239.32 158.434 242.868 156.102 246.98C151 241.514 143.88 236.613 136.345 236.462C146.612 219.413 163.799 206.814 184.722 207.002ZM209.318 289.39C209.005 289.553 208.766 289.791 208.603 290.079C206.548 291.997 204.141 293.614 201.395 294.805C198.85 295.896 196.055 296.698 193.134 297.162C193.397 290.067 193.673 283.423 193.986 277.305C197.409 277.28 200.819 277.267 204.241 277.267C208.265 277.267 212.289 277.292 216.313 277.305C214.972 281.83 212.64 286.03 209.318 289.39ZM162.12 341.753C162.245 337.829 162.37 333.993 162.483 330.207C164.865 331.273 167.234 332.175 169.528 332.827C172.813 333.768 175.947 334.444 179.018 334.908C179.006 337.616 179.006 340.349 179.006 343.119C173.377 342.605 167.748 342.179 162.12 341.753ZM183.356 297.501C183.481 290.317 183.644 283.573 183.857 277.38C185.888 277.355 187.931 277.33 189.962 277.317C189.649 283.56 189.373 290.342 189.122 297.588C187.204 297.701 185.274 297.676 183.356 297.501ZM177.589 247.908C177.877 244.698 178.103 240.887 178.304 236.625C178.956 236.5 179.607 236.412 180.259 236.324C180.071 240.712 179.833 244.611 179.557 247.87C178.893 247.895 178.241 247.895 177.589 247.908ZM173.502 247.995C171.421 248.046 169.34 248.083 167.259 248.133C167.472 245.827 167.648 243.207 167.811 240.323C168.363 240.01 168.927 239.709 169.516 239.433C171.033 238.719 172.612 238.155 174.204 237.653C174.016 241.59 173.791 245.087 173.502 247.995ZM163.173 248.246C162.007 248.271 160.853 248.309 159.7 248.334C160.753 246.554 162.032 244.912 163.574 243.47C163.448 245.2 163.323 246.792 163.173 248.246ZM157.719 252.534C171.559 252.145 185.374 251.819 199.151 251.806C203.99 251.806 208.817 251.819 213.655 251.844C215.887 255.818 217.191 260.318 217.567 264.907C211.274 264.882 204.981 264.869 198.687 264.882C184.446 264.907 170.18 265.145 155.889 265.446C155.714 260.97 156.265 256.545 157.719 252.534ZM202.586 268.993C207.613 268.993 212.64 269.019 217.655 269.044C217.604 270.423 217.466 271.802 217.253 273.155C211.612 273.143 205.983 273.118 200.342 273.13C185.926 273.155 171.484 273.406 157.005 273.707C156.691 272.353 156.441 270.974 156.253 269.583C171.735 269.257 187.179 268.993 202.586 268.993ZM158.171 277.831C165.391 277.681 172.612 277.543 179.833 277.443C179.645 283.46 179.495 289.991 179.369 296.936C171.622 295.382 164.589 291.295 160.866 284.2C159.826 282.219 158.923 280.075 158.171 277.831ZM196.005 247.695C191.88 247.707 187.756 247.757 183.632 247.82C183.907 244.435 184.133 240.436 184.321 235.998C194.45 235.748 204.517 239.621 210.985 247.695C205.983 247.682 200.994 247.67 196.005 247.695ZM133.976 240.649C134.051 240.649 134.114 240.649 134.189 240.637C141.774 239.358 149.433 245.538 154.172 250.967C149.972 261.472 150.774 274.434 156.165 284.413C147.653 287.196 140.971 293.915 134.227 299.644C128.836 290.794 125.702 280.915 125.953 271.125C126.204 260.745 129.062 250.164 133.976 240.649ZM158.409 288.036C164.288 296.247 174.204 301.036 184.396 301.863C182.93 311.717 182.716 321.645 182.654 331.599C164.878 330.232 147.264 318.586 136.483 303.104C143.19 297.4 149.847 290.568 158.409 288.036ZM158.547 328.289C158.421 332.589 158.296 336.977 158.146 341.452C156.466 341.327 154.798 341.201 153.119 341.076C153.194 335.673 153.257 330.395 153.307 325.256C155.037 326.346 156.792 327.362 158.547 328.289ZM182.98 343.483C182.98 340.75 182.992 338.055 182.992 335.372C184.697 335.523 186.389 335.585 188.082 335.585C188.019 338.356 187.969 341.151 187.919 343.972C186.277 343.809 184.622 343.633 182.98 343.483ZM236.12 310.475C231.432 301.725 223.998 292.235 214.169 289.778C220.55 281.843 223.095 271.137 221.303 261.046C224.211 250.001 241.222 251.706 247.729 258.526C247.867 258.676 248.03 258.789 248.18 258.877C251.652 277.142 247.691 296.021 236.12 310.475ZM219.673 254.978C219.096 253.411 218.407 251.894 217.592 250.415C217.554 250.189 217.479 249.951 217.354 249.713C212.076 240.248 202.298 234.181 191.767 232.275C191.279 224.365 190.414 214.75 194.902 207.943C218.432 212.017 239.517 229.141 246.224 252.27C237.875 247.557 225.264 247.582 219.673 254.978ZM127.207 154.551C128.247 155.316 129.325 156.118 130.428 156.946C130.704 187.408 129.501 217.884 126.492 248.209C126.367 248.56 126.241 248.898 126.116 249.249C125.038 249.274 124.035 249.299 123.07 249.337C126.279 217.846 127.532 186.192 127.207 154.551ZM149.471 481.468C150.298 481.48 151.113 481.493 151.94 481.505C151.69 486.357 151.439 491.158 151.176 495.922C150.448 495.922 149.709 495.935 148.969 495.935C149.132 491.158 149.308 486.332 149.471 481.468ZM150.95 500.046C150.9 501.099 150.837 502.152 150.774 503.206C150.085 503.18 149.395 503.155 148.706 503.118C148.744 502.102 148.781 501.074 148.819 500.059C149.546 500.059 150.248 500.059 150.95 500.046ZM154.987 500.034C165.366 499.971 174.355 499.934 180.698 499.909C180.723 501.388 180.748 502.854 180.786 504.321C173.189 504.07 164.313 503.745 154.811 503.368C154.861 502.265 154.924 501.137 154.987 500.034ZM180.861 508.446C180.961 513.874 181.074 519.214 181.187 524.467C172.073 523.564 162.934 522.887 153.796 522.198C154.059 517.371 154.322 512.457 154.598 507.48C164.201 507.869 173.176 508.207 180.861 508.446ZM180.623 495.784C174.33 495.809 165.454 495.847 155.2 495.909C155.45 491.171 155.701 486.395 155.952 481.568C164.1 481.681 172.236 481.819 180.372 482.145C180.46 486.721 180.535 491.271 180.623 495.784ZM143.052 477.281C142.676 475.827 142.739 474.322 143.152 472.906C159.136 473.169 175.132 473.182 191.078 474.247C191.178 475.689 191.216 477.13 191.203 478.572C175.182 477.557 159.111 477.569 143.052 477.281ZM190.827 482.671C191.028 482.684 191.228 482.696 191.429 482.709C192.307 484.138 194.751 484.276 195.115 482.471C196.318 481.656 196.506 479.763 195.29 479.048C195.328 477.168 195.29 475.275 195.14 473.382C195.917 472.216 195.604 470.424 193.786 470.286C192.808 470.21 191.818 470.16 190.84 470.098C190.852 458.966 190.877 447.683 190.928 436.401C191.329 436.488 191.73 436.576 192.131 436.664C194.325 437.165 195.604 434.658 194.55 433.379C195.014 431.486 195.215 429.531 195.14 427.588C196.105 426.56 196.092 424.704 194.287 424.291C193.184 424.04 192.081 423.814 190.99 423.576C191.04 413.597 191.116 403.681 191.216 393.891C192.118 394.004 193.021 394.104 193.924 394.217C193.911 394.367 193.899 394.505 193.899 394.643C193.798 397.3 197.923 397.426 198.023 394.768C198.036 394.38 198.073 393.991 198.098 393.602C198.625 392.888 198.725 391.897 198.249 391.221C198.487 388.438 198.825 385.68 199.151 382.909C199.414 380.703 196.581 380.276 195.453 381.731C194.087 381.555 192.72 381.392 191.354 381.242C191.454 373.031 191.554 364.957 191.68 357.072C193.66 357.298 195.629 357.549 197.597 357.812C197.96 358.075 198.387 358.238 198.788 358.251C200.016 358.288 200.731 357.36 200.906 356.245C201.358 353.474 201.307 350.666 200.931 347.896C201.32 346.83 200.919 345.551 199.427 345.351C196.92 345.012 194.413 344.712 191.905 344.423C191.968 341.402 192.018 338.418 192.081 335.472C199.038 335.009 206.096 333.366 214.069 330.671C215.561 330.17 217.003 329.593 218.407 328.979C222.092 380.201 227.583 442.255 232.648 496.486C218.331 495.96 204.291 495.559 190.84 495.421C190.827 491.208 190.827 486.959 190.827 482.671ZM222.268 327.123C224.023 326.183 225.715 325.155 227.332 324.052C230.191 376.491 234.816 440.901 239.116 496.724C238.314 496.699 237.524 496.662 236.722 496.637C231.545 441.754 225.953 378.76 222.268 327.123ZM231.156 321.156C243.98 310.563 251.364 294.504 252.894 277.756C263.349 277.944 273.866 277.882 284.384 277.831C296.845 327.299 326.042 421.671 351.089 500.548C351.001 500.535 350.926 500.523 350.838 500.523C317.517 500.372 279.771 498.342 243.165 496.875C238.753 440.024 234.002 374.171 231.156 321.156ZM343.981 253.587C345.034 257.874 344.746 262.425 343.354 266.599C313.418 264.668 282.98 265.972 252.956 265.396C252.743 262.838 252.417 260.281 251.928 257.761C251.828 257.247 251.59 256.896 251.276 256.67C251.001 255.204 250.675 253.75 250.299 252.308C281.413 252.91 312.941 251.531 343.981 253.587ZM283.331 248.246C282.679 248.246 282.027 248.246 281.376 248.259C283.557 227.599 281.376 206.564 281.651 185.854C281.814 173.869 282.078 161.872 282.328 149.888C282.943 149.85 283.544 149.813 284.159 149.775C283.908 162.111 283.62 174.446 283.482 186.782C283.231 207.128 285.475 227.938 283.331 248.246ZM202.035 152.571C196.255 157.685 190.589 162.925 185.023 168.278C184.998 162.75 184.973 157.485 184.948 152.646C190.639 152.646 196.343 152.621 202.035 152.571ZM164.577 152.658C164.614 157.861 164.652 163.552 164.677 169.519C157.619 163.753 150.423 158.099 143.065 152.608C150.235 152.646 157.406 152.583 164.577 152.658ZM116.689 151.505C118.82 151.706 120.951 151.881 123.082 152.019C123.496 184.55 122.242 217.094 118.933 249.462C116.413 249.55 114.282 249.625 112.376 249.7C115.774 217.081 117.077 184.287 116.689 151.505ZM124.737 253.411C123.458 257.724 122.581 262.099 122.167 266.499C103.513 266.938 104.554 267.502 86.7024 266.486C82.3774 264.631 82.9666 256.57 85.2106 253.424C85.2231 253.399 85.2357 253.373 85.2482 253.348C105.544 254.527 104.328 253.887 124.737 253.411ZM121.891 270.636C121.841 272.015 121.854 273.394 121.904 274.773C104.002 275.186 112.953 275.964 96.0167 274.986C95.6532 273.682 95.4275 272.391 95.4526 271.037C104.742 271.4 106.986 270.974 121.891 270.636ZM82.5655 500.648C101.721 500.397 124.862 500.222 144.795 500.097C144.757 501.062 144.732 502.015 144.694 502.98C123.834 502.14 101.131 501.225 82.5655 500.648ZM148.568 507.255C149.232 507.28 149.897 507.305 150.549 507.33C150.286 512.257 150.01 517.121 149.746 521.897C149.182 521.859 148.606 521.809 148.042 521.759C148.217 517.008 148.393 512.156 148.568 507.255ZM149.057 534.471C148.305 547.834 147.578 560.458 146.901 572.029C146.638 572.004 146.387 571.966 146.124 571.941C146.587 560.358 147.076 547.721 147.578 534.358C148.067 534.395 148.568 534.433 149.057 534.471ZM181.45 537.141C181.751 551.269 182.052 564.495 182.328 576.441C171.898 574.925 161.418 573.746 150.95 572.505C151.627 560.884 152.341 548.198 153.094 534.771C162.558 535.473 172.023 536.175 181.45 537.141ZM144.431 613.335C144.77 605.187 145.183 595.471 145.622 584.527C145.798 584.552 145.973 584.565 146.161 584.59C145.509 595.521 144.92 605.224 144.431 613.335ZM187.28 614.175C187.117 607.067 186.929 598.881 186.74 589.818C186.878 589.843 187.016 589.868 187.142 589.88C187.179 598.906 187.229 607.067 187.28 614.175ZM192.144 586.558C176.01 583.8 159.725 582.133 143.478 580.152C143.29 578.761 143.341 577.169 143.779 575.765C160.202 577.758 176.674 579.45 192.958 582.296C192.883 583.763 192.557 585.167 192.144 586.558ZM187.066 577.169C186.853 577.131 186.64 577.106 186.427 577.068C186.139 565.084 185.825 551.795 185.512 537.58C185.976 537.63 186.427 537.68 186.891 537.73C186.929 551.921 186.991 565.184 187.066 577.169ZM192.281 534.245C176.185 532.227 159.976 531.249 143.792 529.958C143.541 528.416 143.666 526.987 144.08 525.557C160.289 526.836 176.524 527.826 192.645 529.895C192.607 531.349 192.482 532.803 192.281 534.245ZM185.236 524.893C184.948 511.254 184.672 496.963 184.409 482.308C185.211 482.345 186.013 482.396 186.816 482.433C186.803 497.1 186.816 511.404 186.853 525.056C186.314 525.006 185.775 524.956 185.236 524.893ZM197.346 504.396C195.541 504.396 193.334 504.371 190.84 504.321C190.84 502.729 190.84 501.125 190.84 499.532C204.404 499.658 218.582 500.072 233.036 500.598C233.149 501.814 233.262 503.043 233.375 504.246C221.365 504.321 209.356 504.384 197.346 504.396ZM237.424 504.233C237.311 503.08 237.211 501.927 237.098 500.761C237.875 500.786 238.64 500.824 239.417 500.849C239.505 501.977 239.593 503.105 239.68 504.221C238.928 504.221 238.176 504.221 237.424 504.233ZM243.479 501.012C265.743 501.902 288.408 503.005 310.246 503.757C288.07 503.845 265.893 504.033 243.717 504.183C243.642 503.13 243.567 502.065 243.479 501.012Z" fill="#FF5B0D"/>
</svg>
