<svg width="88" height="86" viewBox="0 0 88 86" fill="none" xmlns="http://www.w3.org/2000/svg">
<path d="M29.9711 46.0308C30.0528 46.2058 30.496 46.7481 30.6068 46.8531C38.124 61.0302 57.7714 55.9624 59.2935 40.928C60.25 31.4862 50.0035 22.9951 40.9408 24.9429C31.1375 27.0541 25.6264 36.8107 29.9711 46.0308ZM43.8975 27.5614C52.4353 27.3806 58.0572 36.4608 55.8294 44.118C52.5753 55.3151 34.9399 54.2712 32.0356 43.768C31.9248 43.3657 31.6799 42.9983 31.6682 42.5084C29.5746 34.8395 35.7913 27.7364 43.8975 27.5614Z" fill="#FF5B0D"/>
<path d="M30.193 26.6228C31.4294 27.9875 33.4414 25.9638 32.205 24.6109C24.5012 16.1372 16.15 8.30509 7.87466 0.402975C6.54501 -0.86253 4.53303 1.14362 5.86269 2.41495C14.138 10.3171 22.495 18.1434 30.193 26.6228Z" fill="#FF5B0D"/>
<path d="M38.0136 21.2448C38.7076 22.9185 41.4602 22.1837 40.7604 20.4867C38.4276 14.8356 36.6723 8.99215 35.3018 3.0437C34.8877 1.25333 32.1468 2.01147 32.555 3.80184C33.9255 9.75029 35.6809 15.5938 38.0136 21.2448Z" fill="#FF5B0D"/>
<path d="M49.9514 21.3392C49.9164 16.8079 50.8145 12.3407 50.7795 7.80941C50.7679 5.97238 47.9161 5.97238 47.9336 7.80941C47.9686 12.3407 47.0705 16.8079 47.1055 21.3392C47.1172 23.1763 49.9631 23.1763 49.9514 21.3392Z" fill="#FF5B0D"/>
<path d="M57.2467 25.9055C59.3229 23.6077 61.2182 20.9834 62.6937 18.26C63.5684 16.6445 61.1074 15.2041 60.2326 16.8253C58.8738 19.3447 57.1534 21.7707 55.2348 23.8935C54.0042 25.2523 56.0162 27.2701 57.2467 25.9055Z" fill="#FF5B0D"/>
<path d="M86.6216 23.835C86.2891 23.835 86.0209 23.9283 85.8109 24.0799C82.166 25.5787 78.352 26.3718 74.5789 27.4624C70.0767 28.7629 65.6853 30.2966 61.084 31.2472C59.2878 31.6204 60.046 34.3614 61.8422 33.994C65.8545 33.1659 69.7384 31.947 73.6458 30.7282C78.0196 29.3635 82.5276 28.5296 86.7615 26.7567C86.8315 26.7275 86.8898 26.6926 86.9481 26.6576C88.4527 26.3251 88.3419 23.835 86.6216 23.835Z" fill="#FF5B0D"/>
<path d="M15.2058 28.5124C13.497 27.8359 12.7622 30.5885 14.4476 31.2592C17.7309 32.5597 20.9559 33.9943 24.1926 35.3881C25.8605 36.1054 27.3126 33.6502 25.6272 32.9271C22.1631 31.44 18.7107 29.9062 15.2058 28.5124Z" fill="#FF5B0D"/>
<path d="M23.3465 41.0905C15.9518 42.6418 8.51037 43.9073 1.03398 45.0095C-0.779721 45.2777 -0.00408698 48.0187 1.79211 47.7563C9.26851 46.6599 16.7099 45.3944 24.1047 43.8373C25.9009 43.4582 25.1369 40.7173 23.3465 41.0905Z" fill="#FF5B0D"/>
<path d="M27.3999 49.4249C23.4051 52.3292 19.6202 55.4958 15.8354 58.6684C14.4241 59.8522 16.4535 61.8525 17.8473 60.6803C21.4456 57.6653 25.0321 54.6444 28.8345 51.886C30.3041 50.8187 28.887 48.346 27.3999 49.4249Z" fill="#FF5B0D"/>
<path d="M33.6511 56.9365C28.6416 65.6551 23.2413 74.1287 19.5031 83.5063C18.8208 85.215 21.5793 85.9498 22.2499 84.2644C25.889 75.1318 31.2309 66.874 36.1122 58.377C37.0278 56.7791 34.5667 55.3445 33.6511 56.9365Z" fill="#FF5B0D"/>
<path d="M42.1191 60.0275C42.6673 65.3111 42.6323 70.6298 42.9473 75.9309C43.0581 77.7562 45.904 77.7679 45.7932 75.9309C45.4724 70.6298 45.5074 65.317 44.9651 60.0275C44.7785 58.2196 41.9325 58.2021 42.1191 60.0275Z" fill="#FF5B0D"/>
<path d="M53.1992 57.6486C52.1786 56.1323 49.7117 57.5553 50.7381 59.0832C55.6252 66.3497 58.891 74.4559 62.6059 82.3463C63.3873 84.0084 65.8425 82.5621 65.0669 80.9117C61.352 73.0271 58.0862 64.915 53.1992 57.6486Z" fill="#FF5B0D"/>
<path d="M71.2201 57.7056C67.4761 56.2302 64.1112 53.9558 60.4021 52.387C58.7342 51.6814 57.2763 54.1307 58.9675 54.848C62.904 56.5101 66.4789 58.8837 70.462 60.4524C72.1707 61.1289 72.9055 58.3705 71.2201 57.7056Z" fill="#FF5B0D"/>
<path d="M85.2225 46.7888C78.3001 45.57 71.4011 44.2811 64.6886 42.1583C62.9333 41.6043 62.1868 44.3511 63.9305 44.9051C70.6429 47.0279 77.542 48.3168 84.4643 49.5356C86.2605 49.8505 87.0303 47.1037 85.2225 46.7888Z" fill="#FF5B0D"/>
</svg>
