<svg width="723" height="590" viewBox="0 0 723 590" fill="none" xmlns="http://www.w3.org/2000/svg">
<path d="M7.99457 504.345C10.5655 502.755 13.4481 501.369 16.2371 500.029C19.1353 498.642 22.1113 497.193 24.7134 495.541C26.7858 494.232 27.8297 492.97 27.8297 491.802C27.8297 489.854 24.9939 487.797 21.9399 485.849C15.2711 481.627 8.96057 476.937 7.94775 471.296C7.41803 468.383 8.35291 465.391 10.7057 462.399C18.2159 452.848 32.0211 446.086 45.8262 440.196C47.7427 439.386 50.0332 440.367 50.4072 442.003C50.5941 442.814 50.2825 443.904 48.849 444.527C40.7 448.002 15.8788 458.582 14.8192 469.286C14.4764 472.745 16.6735 476.064 21.3478 479.149C22.2828 479.773 23.3734 480.427 24.5264 481.097C29.2476 483.902 34.592 487.096 34.9348 491.209C35.2932 495.65 30.5876 498.642 25.4302 501.228C24.1213 501.883 22.7346 502.537 21.3167 503.192C16.4865 505.435 11.5004 507.757 8.66455 510.904C6.76361 513.008 6.09357 515.532 6.77917 518.025C7.72961 521.406 10.955 524.258 15.645 525.831C22.4697 528.122 29.7929 529.197 38.7055 529.197C44.6108 529.197 50.6565 528.73 56.4996 528.278C63.6047 527.732 70.9747 527.171 78.3135 527.389C80.5573 527.467 82.7698 527.592 84.9512 527.732C87.8806 527.904 90.9033 528.091 93.9417 528.122C97.5098 528.137 100.377 528.418 103.633 529.727C105.784 530.584 107.56 532.531 108.152 534.682C108.573 536.162 108.355 537.533 107.544 538.53C106.687 539.59 105.503 540.306 104.35 541.008C103.851 541.319 103.337 541.631 102.854 541.974C102.543 542.192 102.371 542.457 102.325 542.784C102.106 544.186 103.867 546.414 104.911 547.754L105.223 548.144C108.37 552.211 112.935 554.844 119.184 556.231C131.15 558.88 145.064 560.157 161.736 560.157C169.138 560.157 177.006 559.908 186.48 559.394C210.023 558.1 232.835 554.236 254.898 550.512C281.994 545.931 315.728 540.229 348.62 540.229C364.248 540.229 378.552 541.444 392.357 543.953C393.308 544.124 394.118 544.669 394.507 545.386C394.803 545.947 394.835 546.57 394.57 547.1C393.51 549.235 393.479 550.98 394.461 552.444C396.268 555.14 402.625 558.365 422.694 558.365C431.498 558.365 440.114 557.758 445.256 557.399L447.406 557.244C458.937 556.48 470.592 555.405 481.857 554.361C485.004 554.065 488.152 553.784 491.299 553.488C492.826 553.348 494.353 553.208 495.911 553.052C502.72 552.398 509.748 551.743 516.697 551.728C516.962 551.556 517.289 551.416 517.71 551.369C521.854 550.824 529.38 549.671 532.045 554.003C534.288 557.649 533.416 563.164 529.894 565.891C526.747 568.306 522.135 568.119 518.38 568.945C514.921 569.724 524.005 575.365 525.36 575.77C530.175 577.172 535.66 577.016 540.646 577.048C550.368 577.094 559.203 574.554 568.739 573.51C573.787 572.965 578.914 573.121 583.993 572.887C586.393 572.778 590.054 573.635 591.161 576.004C592.703 579.307 591.644 582.782 596.256 584.012C603.408 585.913 611.323 583.748 618.21 581.862C628.899 578.933 638.419 576.222 649.622 576.222C652.801 576.222 652.801 580.896 649.622 580.896C637.983 580.896 627.98 584.059 616.932 587.066C609.765 589.03 598.764 591.289 591.784 587.581C589.712 586.49 588.823 585.337 588.044 583.218C587.187 580.927 588.59 577.967 584.009 577.546C581.656 577.328 578.992 577.889 576.623 577.998C565.716 578.497 555.199 581.582 544.214 581.691C533.338 581.815 516.463 582.704 512.63 570.098C511.711 567.107 514.5 565.221 517.087 564.427C519.143 563.788 521.449 563.71 523.568 563.336C524.815 563.118 526.139 562.791 527.152 562.011C529.053 559.518 528.258 557.368 524.799 555.53C524.192 555.498 523.6 555.53 523.007 555.53C522.493 556.122 521.636 556.558 520.421 556.558H520.218C510.729 556.2 500.975 557.228 491.564 558.21C488.853 558.49 486.142 558.77 483.477 559.02L481.499 559.207C466.291 560.625 450.569 562.089 434.941 562.65C432.183 562.744 428.506 562.868 424.377 562.868C404.713 562.868 392.684 560.188 388.649 554.906C387.137 552.928 386.717 550.59 387.418 547.957C375.202 545.931 362.534 544.95 348.714 544.95C321.914 544.95 295.176 548.752 270.292 552.85L262.689 554.112C229.796 559.565 198.711 564.738 164.806 564.738C163.528 564.738 162.235 564.738 160.942 564.723L158.418 564.691C143.428 564.536 122.892 564.318 109.804 558.381C104.911 556.168 101.218 553.161 98.8655 549.453C98.6629 549.126 98.4136 548.767 98.1487 548.393C96.4814 545.947 93.9417 542.239 96.7931 539.637C97.4631 539.029 98.3513 538.515 99.2082 538.032C100.159 537.486 101.14 536.925 101.639 536.318C101.997 535.881 102.371 535.258 102.153 534.853C101.296 533.186 94.1287 533.092 90.6852 533.046C89.1583 533.03 87.9584 533.014 87.2417 532.921C83.9852 532.5 80.5884 532.298 76.8645 532.298C71.224 532.298 65.7705 532.765 59.9898 533.248C58.2135 533.404 56.4373 533.544 54.6454 533.684C49.7216 534.058 45.0005 534.245 40.6221 534.245C25.3055 534.245 14.118 531.986 7.37128 527.53C2.55658 524.351 -0.0610352 520.269 0.00128174 516.015C0.0480347 511.637 2.89941 507.492 7.99457 504.345Z" fill="#FF5B0D"/>
<path d="M113.153 508.178C112.327 508.178 111.548 507.991 110.909 507.633C106.843 505.342 100.844 504.267 92.0246 504.267C87.132 504.267 82.1616 504.595 77.3469 504.891C73.9502 505.109 70.756 505.311 67.9046 505.389C67.2813 505.405 66.6581 505.405 66.0348 505.405C59.7399 505.405 51.6064 504.657 48.568 501.104C47.524 499.873 47.1657 498.424 47.5241 496.804C48.7082 491.397 51.918 488.234 58.618 485.897L59.4594 485.616C60.7526 485.18 63.7911 484.183 64.0871 483.342C63.1211 481.705 60.628 481.534 57.7611 481.332L56.2029 481.222C53.6632 481.035 50.1729 480.771 48.4278 479.602C43.1457 476.096 36.5236 470.783 39.9047 465.142C43.1301 459.767 50.9831 455.731 58.5712 451.836C59.4438 451.384 60.3164 450.932 61.1734 450.496C61.7188 450.215 62.3576 450.06 63.0276 450.06C64.4455 450.06 66.0815 450.745 66.3931 451.883C66.4711 452.148 66.5957 453.067 65.3648 453.721C64.3364 454.251 63.1833 454.828 61.9836 455.435C55.7043 458.567 47.0878 462.852 45.6855 467.215C45.3427 468.29 45.4517 469.318 46.0282 470.347C47.8045 473.494 50.6559 476.782 58.4467 477.421C61.5941 477.685 64.1806 478.028 66.5801 478.916C70.0548 480.194 70.6158 482.111 70.6313 483.139C70.6781 484.931 69.1978 486.66 66.7671 487.673C65.7854 488.078 64.6325 488.468 63.4015 488.873C60.6748 489.777 57.5897 490.789 56.7015 492.083L56.5146 492.348C55.2836 494.155 54.0059 496.04 54.0215 497.848C54.0371 500.372 58.1038 501.65 66.0815 501.65C70.0236 501.65 74.3241 501.338 77.7832 501.089C79.6218 500.964 81.289 500.839 82.6135 500.777C85.6674 500.652 88.955 500.528 92.196 500.528C98.9116 500.528 108.619 500.964 115.334 504.766C116.534 505.436 116.441 506.277 116.347 506.605C116.036 507.633 114.509 508.178 113.153 508.178Z" fill="#FF5B0D"/>
<path d="M149.006 534.821C150.33 534.931 151.733 534.993 153.166 534.993C161.315 534.993 169.979 533.17 177.613 531.549C179.031 531.253 180.434 530.957 181.805 530.677C196.997 527.592 208.013 526.672 221.132 527.342C222.737 527.42 224.358 527.514 225.994 527.592C232.289 527.934 238.802 528.277 245.174 528.277C249.132 528.277 252.669 528.153 255.972 527.872C266.537 527 276.758 524.88 285.515 522.948C285.842 522.87 286.169 522.839 286.481 522.839C288.21 522.839 289.254 523.93 289.379 525.005C289.504 526.033 288.834 527.233 287.042 527.623C274.888 530.287 263.872 532.531 252.046 532.858C244.146 533.076 236.137 532.718 228.393 532.375C224.171 532.188 219.824 531.986 215.539 531.892C203.042 531.596 193.335 533.466 182.023 535.647C179.826 536.068 177.598 536.504 175.292 536.925C174.31 537.112 173.173 537.33 171.942 537.579C166.582 538.654 159.243 540.119 152.886 540.119C148.897 540.119 145.859 539.558 143.584 538.405C140.53 536.847 139.345 534.447 140.343 531.83C140.981 530.147 142.119 528.417 143.724 526.735C143.786 526.672 143.833 526.61 143.895 526.563C143.35 526.423 142.602 526.174 141.761 525.644C140.452 524.818 140.592 523.821 140.717 523.447C141.059 522.387 142.477 521.593 144.02 521.593C144.83 521.593 145.609 521.811 146.248 522.216C146.575 522.419 147.105 522.481 147.682 522.559C148.679 522.683 149.941 522.824 150.782 523.883C152.496 526.002 151.032 527.545 149.972 528.682L149.754 528.916C148.772 529.944 146.17 532.687 146.669 533.918C146.856 534.385 147.682 534.712 149.006 534.821Z" fill="#FF5B0D"/>
<path d="M261.722 511.808C287.415 511.808 314.402 509.829 322.427 508.411C324.795 507.991 326.151 509.175 326.26 510.312C326.338 511.138 325.777 512.213 323.907 512.54C315.259 514.067 289.098 516.186 262.485 516.186C236.838 516.186 204.725 514.254 197.37 505.061C196.077 503.441 195.563 501.633 195.859 499.701C193.537 499.888 191.153 500.106 188.738 500.34C182.194 500.948 175.416 501.587 168.794 501.587C163.185 501.587 158.401 501.119 154.147 500.169C141.449 497.333 140.389 491.739 139.361 486.317C138.924 483.995 138.473 481.611 137.101 479.383C135.309 476.469 132.162 475.129 128.516 473.571C126.849 472.854 125.135 472.138 123.39 471.187C118.98 468.803 116.674 464.814 117.671 461.262C120.024 452.879 129.856 445.712 140.155 439.198C140.763 438.809 141.573 438.606 142.477 438.606C143.957 438.606 145.718 439.199 146.061 440.289C146.154 440.601 146.263 441.364 145.235 442.034C139.968 445.369 136.011 448.236 132.785 451.056L131.928 451.804C128.422 454.858 123.623 459.034 124.06 462.586C124.543 466.404 127.067 467.51 132.084 469.676L133.814 470.439C137.522 472.075 140.233 474.054 142.337 476.656C144.253 479.025 144.674 481.892 145.079 484.681C145.858 489.994 146.59 495.027 157.716 496.491C161.175 496.959 164.821 497.177 168.872 497.177C175.167 497.177 181.555 496.632 187.725 496.086C191.574 495.759 195.563 495.416 199.443 495.214C201.094 495.12 202.559 495.681 203.12 496.554C203.431 497.037 203.447 497.613 203.151 498.127C202.216 499.795 202.169 501.259 203.011 502.584C206.797 508.52 227.645 511.808 261.722 511.808Z" fill="#FF5B0D"/>
<path d="M542.048 521.687C540.303 522.216 538.542 522.777 536.766 523.338C524.129 527.296 509.794 531.799 495.444 532.547C494.275 532.609 493.107 532.64 491.923 532.64C484.989 532.64 479.333 531.487 475.126 529.213C473.739 528.465 472.399 527.67 471.09 526.875C466.135 523.915 461.461 521.126 454.169 521.11C450.632 521.11 446.939 521.344 443.044 521.578C439.086 521.827 434.988 522.076 430.999 522.076C423.52 522.076 414 521.313 406.786 515.423C403.56 512.774 401.675 509.705 400.834 505.762C400.724 505.248 400.631 504.703 400.537 504.158C400.039 501.337 399.525 498.408 396.814 496.46C389.521 491.225 375.685 490.945 366.539 490.758C364.794 490.726 363.049 490.711 361.303 490.711C351.472 490.711 340.923 491.256 329.019 492.394C323.3 492.939 317.473 493.593 311.832 494.217C297.155 495.853 281.978 497.536 266.802 497.645H266.163C264.948 497.66 263.655 497.66 262.315 497.66C251.486 497.66 239.535 497.021 232.99 492.269C230.404 490.384 229.064 488.187 229.033 485.74C228.939 480.443 234.704 475.223 240.36 470.829C240.999 470.33 241.856 470.065 242.807 470.065C244.178 470.065 245.861 470.689 246.297 471.842C246.422 472.185 246.609 473.041 245.565 473.867L244.599 474.615C240.547 477.732 233.769 482.936 235.748 486.94C236.932 489.324 240.843 490.945 247.715 491.895C252.966 492.627 258.56 492.97 264.823 492.97C274.562 492.97 284.316 492.098 292.683 491.287C298.152 490.758 303.605 490.15 309.074 489.558C324.983 487.813 341.437 486.005 357.907 485.912L359.667 485.896C361.132 485.881 362.706 485.881 364.357 485.881C377.648 485.881 393.884 486.706 401.441 493.126C404.963 496.118 405.695 499.499 406.396 502.771C406.973 505.466 407.534 508.022 409.606 510.359C413.299 514.504 422.274 517.651 430.625 517.682C434.022 517.682 437.606 517.308 441.065 516.95C444.617 516.576 448.279 516.202 451.878 516.202C453.608 516.202 455.182 516.28 456.693 516.467C463.595 517.262 469.361 519.256 474.316 522.544C480.844 526.891 487.903 528.558 496.098 527.67C510.714 526.112 524.348 521.905 537.529 517.838L539.243 517.308C541.316 516.669 543.653 517.776 543.918 519.381C544.011 520.175 543.606 521.204 542.048 521.687Z" fill="#FF5B0D"/>
<path d="M437.107 459.876C439.148 416.716 453.794 374.334 467.179 333.604C471.993 318.927 477.089 304.327 482.402 289.805C482.417 289.369 482.417 288.948 482.433 288.512C482.916 287.546 483.415 286.595 483.913 285.645C494.088 258.206 505.166 231.11 517.32 204.481C533.524 168.94 550.025 133.102 569.346 99.135C584.834 71.9142 603.283 45.94 626.873 25.279C630.784 21.9134 633.884 18.6569 637.842 18.2518C642.049 17.8155 644.682 21.3525 645.711 24.9674C645.789 25.2478 645.804 25.4971 645.789 25.7464C645.835 25.762 645.898 25.7776 645.944 25.7776C647.518 34.6123 648.562 43.5248 649.232 52.4997C657.973 38.2116 670.968 19.2334 681.735 5.94245C681.766 5.49058 681.922 5.02313 682.265 4.58684C685.926 -0.149909 691.349 -2.01967 695.774 2.88848C699.155 6.6436 700.962 12.1438 701.975 17.0987C712.088 50.4274 715.609 85.8907 717.479 120.497C719.816 163.658 718.367 206.927 717.276 250.103C715.671 313.847 703.907 378.681 679.413 437.969C693.842 436.504 707.803 439.527 721.063 445.495C723.805 446.725 721.436 450.761 718.71 449.53C705.808 443.734 691.769 440.789 677.653 442.846C677.559 442.861 677.466 442.861 677.372 442.861C674.396 449.826 671.233 456.713 667.899 463.507C671.997 461.839 675.845 459.689 679.304 456.853C681.61 454.968 684.945 458.24 682.623 460.157C666.668 473.245 644.324 473.463 624.707 472.715C602.581 471.874 580.035 467.262 557.894 469.677C554.902 470.004 554.918 465.33 557.878 465.002C559.873 464.784 561.883 464.644 563.877 464.535C563.254 457.243 562.833 446.429 562.631 437.486C551.428 456.682 538.838 475.037 524.799 492.239C524.674 492.94 524.269 493.548 523.521 493.813C523.506 493.844 523.474 493.875 523.459 493.906C522.446 495.137 520.981 494.872 520.093 494.015C507.41 493.968 494.945 489.496 483.119 485.352C467.023 479.711 452.891 471.328 437.761 463.647C436.125 462.805 436.203 460.936 437.107 459.876ZM486.702 324.816C486.858 352.505 488.323 380.177 490.006 407.803C490.785 420.58 491.314 433.388 492.857 446.102C494.431 459.082 496.55 472.03 496.643 485.118C499.806 486.115 503.016 487.003 506.226 487.72C507.893 485.928 509.529 484.121 511.134 482.267C510.994 481.955 510.931 481.597 510.931 481.192C511.399 466 508.625 450.886 506.802 435.85C505.26 423.12 504.855 410.218 504.076 397.426C502.393 369.862 501.068 342.268 500.803 314.657C500.601 293.451 500.928 271.793 502.642 250.259C497.204 263.628 492.031 277.09 487.061 290.646C486.733 302.083 486.64 313.504 486.702 324.816ZM512.739 226.279C511.43 229.287 510.121 232.309 508.844 235.332C505.836 261.914 505.275 288.901 505.462 315.203C505.649 343.156 507.145 371.109 508.859 399C509.654 411.901 510.199 424.834 511.757 437.673C513.347 450.73 515.497 463.772 515.637 476.938C518.535 473.385 521.324 469.739 524.004 466.015C523.989 450.683 521.246 435.429 519.33 420.237C517.631 406.743 517.07 393.063 516.136 379.507C514.11 350.276 512.443 321.03 511.851 291.753C511.414 270.188 511.461 248.187 512.739 226.279ZM521.574 206.46C520.483 208.828 519.439 211.228 518.364 213.596C516.182 239.851 516.042 266.417 516.51 292.36C517.039 321.996 518.878 351.616 520.919 381.206C521.87 394.87 522.571 408.598 524.3 422.2C525.874 434.65 527.9 447.084 528.507 459.611C541.689 440.166 552.409 418.959 562.101 397.722C563.207 395.307 564.251 392.86 565.326 390.43C565.077 390.025 564.921 389.526 564.968 388.949C566.09 373.836 563.971 358.675 562.786 343.623C561.789 330.893 561.945 318.023 561.711 305.262C561.213 277.745 561.072 250.212 561.992 222.711C563.503 177.743 567.476 130.843 582.154 87.8384C578.524 93.1361 575.189 98.3403 572.385 103.264C553.469 136.499 537.529 171.713 521.574 206.46ZM582.855 347.145C583.011 335.443 581.796 323.71 581.11 312.04C580.378 299.372 580.799 286.595 580.83 273.896C580.892 246.551 581.313 219.205 582.809 191.891C585.302 146.238 590.381 98.6208 606.804 55.4291C602.207 61.0072 597.346 67.1151 592.578 73.3944C572.93 120.326 568.442 173.069 566.619 223.412C565.607 251.256 565.903 279.147 566.417 306.991C566.651 319.861 566.651 332.778 567.648 345.618C568.552 357.023 569.86 368.429 569.907 379.85C574.472 369.068 578.773 358.145 582.855 347.145ZM641.254 26.3541C641.239 26.3074 641.223 26.2762 641.208 26.2294C640.631 24.1571 639.727 22.599 637.375 23.0041C636.845 23.0976 633.339 25.8088 629.646 29.3302C628.4 30.5143 623.414 35.9211 616.698 43.7118C595.897 90.0666 590.288 142.576 587.421 192.748C585.847 220.39 585.566 248.093 585.489 275.782C585.457 288.574 585.193 301.397 585.925 314.174C586.33 321.155 586.906 328.135 587.234 335.1C593.466 317.524 599.185 299.777 604.467 281.936C627.309 204.933 640.413 125.234 643.841 45.0362C643.187 38.7881 642.345 32.5399 641.254 26.3541ZM637.593 198.763C653.953 204.372 660.435 168.535 642.968 170.062C642.688 170.093 642.439 170.062 642.205 169.999C640.803 179.597 639.244 189.18 637.593 198.763ZM655.418 112.021C658.363 114.748 661.9 116.695 665.499 118.425C670.189 120.668 683.729 122.585 678.884 112.909C675.066 105.29 661.993 100.646 654.156 99.3064C652.068 98.948 652.006 96.0031 653.595 95.037C660.949 90.534 668.319 83.8028 672.277 76.09C673.524 73.6593 673.757 70.9326 671.934 68.7356C668.538 64.6221 663.536 67.9409 660.607 70.5119C656.228 74.3761 652.426 80.4996 651.289 86.2491C651.118 87.1217 650.603 87.6203 649.98 87.8228C649.513 106.022 647.892 124.221 645.882 142.124C645.602 144.648 645.259 147.173 644.947 149.697C659.36 152.143 656.711 123.115 651.756 114.872C650.338 112.535 653.501 110.244 655.418 112.021ZM700.978 42.0758C681.828 48.1214 684.353 81.6993 704.811 82.1824C703.923 68.7512 702.754 55.32 701.321 41.9355C701.212 41.9823 701.103 42.0446 700.978 42.0758ZM695.493 170.856C693.764 167.724 692.034 164.639 690.056 161.648C688.856 159.825 687.485 158.266 685.942 156.739C682.545 153.343 679.476 157.145 680.566 160.791C682.67 167.802 689.214 173.614 693.966 178.943C695.026 180.127 694.792 182.542 692.938 182.854C685.132 184.178 665.515 189.834 668.055 200.554C670.298 210.012 690.975 200.336 695.322 197.282C697.348 195.849 699.56 198.544 698.532 200.477C694.138 208.61 690.242 216.837 689.463 226.186C689.058 231.032 689.993 238.043 694.309 241.144C698.843 244.401 702.022 234.132 702.63 231.904C702.77 231.375 703.035 230.985 703.378 230.72C706.338 196.379 707.444 161.897 706.759 127.462C695.322 134.941 696.101 158.048 699.747 169.064C700.604 171.589 696.756 173.162 695.493 170.856ZM712.68 247.548C713.724 206.117 714.908 164.67 712.96 123.255C712.228 107.627 711.106 91.8117 709.189 76.1056C714.066 138.93 713.537 201.879 706.026 264.719C701.196 305.121 694.169 347.939 683.948 387.345C676.687 415.344 666.107 441.677 652.52 467.464C655.605 467.044 658.659 466.452 661.619 465.641C695.54 398.47 710.794 322.401 712.68 247.548ZM681.766 342.408C674.412 341.785 662.258 340.071 656.244 345.228C650.292 350.339 667.369 352.863 669.021 352.988C672.916 353.268 676.858 353.097 680.738 352.785C682.717 352.629 683.916 355.481 682.405 356.774C678.806 359.828 675.425 363.006 672.339 366.59C670.298 368.959 668.74 371.654 667.618 374.552C666.045 378.619 670.049 391.661 676.188 382C676.796 381.05 677.746 380.785 678.619 380.956C682.732 365.048 686.285 348.983 689.37 332.81C689.323 332.638 689.292 332.451 689.276 332.233C689.074 328.478 687.625 324.785 686.113 321.388C684.914 318.724 678.027 307.272 675.487 315.078C673.212 322.09 680.504 332.965 683.776 338.855C684.571 340.32 683.605 342.564 681.766 342.408ZM648.609 467.901H646.988C650.276 461.824 653.268 455.607 656.057 449.281C655.885 448.86 655.87 448.361 656.119 447.785C659.142 440.446 661.51 432.515 661.9 424.553C662.087 420.642 660.575 416.248 656.649 414.659C654.031 413.599 652.177 418.835 651.538 420.471C647.44 431.004 645.898 444.435 645.913 455.716C645.913 458.723 641.239 458.739 641.239 455.732C641.223 447.458 630.332 427.576 620.453 429.851C608.487 432.593 627.932 457.165 631.984 460.827C634.103 462.743 631.423 465.501 629.163 464.504C619.144 460.094 603.08 456.744 594.759 465.61C602.628 466.342 610.481 467.184 618.256 467.682C627.73 468.29 638.325 468.882 648.609 467.901ZM589.228 465.127C590.771 462.837 592.609 460.998 594.682 459.596C594.65 459.502 594.604 459.409 594.573 459.284C591.659 447.91 578.757 440.54 567.399 442.69C567.632 450.465 568.006 458.302 568.536 464.317C575.407 464.192 582.326 464.566 589.228 465.127ZM567.274 438C580.549 436.005 595.087 444.232 598.873 457.368C605.978 454.563 614.657 455.186 622.51 457.29C614.579 447.208 605.651 430.926 617.991 425.846C627.496 421.935 637.141 432.219 642.221 442.69C642.672 439.278 643.233 435.865 643.763 432.562C644.807 426.064 646.131 415.422 652.068 411.231C657.194 407.616 664.081 412.727 665.655 417.978C666.076 419.364 666.325 420.798 666.481 422.247C670.314 410.982 673.664 399.56 676.733 388.17C671.685 391.785 665.639 389.136 662.819 381.985C659.438 373.384 667.244 364.222 674.116 357.849C664.595 358.098 650.775 356.992 650.837 347.612C650.915 336.44 667.649 336.658 677.559 337.391C672.62 328.4 665.328 313.208 675.783 308.222C682.795 304.888 688.342 313.598 691.38 321.825C694.714 303.034 697.488 284.149 699.794 265.249C700.713 257.692 701.523 250.103 702.271 242.531C698.89 246.379 694.278 248.047 689.385 242.983C679.99 233.275 685.256 217.04 690.897 205.167C681.875 209.358 669.488 211.913 664.284 203.531C656.54 191.081 676.702 182.2 687.827 179.224C681.626 172.695 671.794 162.115 676.032 154.465C680.894 145.692 687.718 151.333 692.891 158.126C691.738 144.461 694.621 127.867 706.073 122.46C706.26 122.367 706.447 122.32 706.634 122.273C706.338 110.463 705.808 98.6519 705.076 86.8568C678.962 87.0749 675.596 45.1921 699.7 37.5883C700.106 37.4637 700.479 37.4481 700.807 37.5104C700.339 33.319 699.841 29.1276 699.326 24.9518C698.875 23.3313 698.438 21.7264 697.955 20.1215C697.815 19.9034 697.69 19.6385 697.644 19.3113C697.581 19.0152 697.503 18.7192 697.441 18.4076C696.6 15.6497 695.712 12.9229 694.792 10.1962C694.465 9.495 694.138 8.80941 693.764 8.13941C692.985 6.73708 691.879 5.05429 690.274 4.5401C689.791 4.38429 689.308 4.44663 688.84 4.64918C677.777 17.7687 658.425 46.7502 649.731 61.0851C649.98 66.4451 650.105 71.8051 650.105 77.1807C656.244 66.6632 669.021 54.1825 676.359 66.8502C682.327 77.1496 669.831 89.2563 660.498 96.0031C671.373 99.1349 686.347 106.863 684.041 118.394C681.719 129.971 667.743 125.281 658.628 119.967C662.289 134.442 660.17 157.643 644.324 154.449C643.857 158.111 643.358 161.757 642.828 165.403C642.859 165.403 642.891 165.387 642.922 165.387C667.307 163.268 659.298 210.589 636.751 203.406C634.632 215.45 632.373 227.479 630.067 239.492C636.284 232.06 646.443 223.755 652.224 234.023C657.35 243.092 644.76 254.513 637.172 261.384C646.256 263.722 657.802 269.923 656.976 279.412C656.509 284.725 651.32 287.514 646.568 287.748C642.454 287.951 638.201 285.987 634.461 283.51C636.627 291.94 637.375 301.164 630.846 307.537C625.174 313.068 619.69 309.609 616.418 304.374C613.005 317.696 609.11 330.94 604.716 344.028C613.146 340.99 624.956 339.541 628.119 349.825C631.064 359.423 620.329 363.957 611.993 365.406C620.578 374.132 633.417 386.986 627.465 398.563C624.489 404.36 617.025 404.391 612.631 400.433C607.739 396.023 604.887 390.227 601.522 384.743C598.92 396.32 592.22 413.334 579.412 406.712C579.318 406.666 579.24 406.603 579.147 406.541C575.345 414.332 571.325 422.029 567.118 429.601C567.165 432.25 567.212 435.086 567.274 438ZM631.859 275.673C634.196 277.651 636.674 279.303 639.338 280.783C643.561 283.136 656.026 284.445 651.632 275.657C648.64 269.689 638.465 265.778 632.264 265.108C630.347 264.906 629.023 262.678 630.597 261.119C636.128 255.697 642.018 250.664 646.241 244.073C647.581 242.001 648.734 239.461 648.375 236.922C647.596 231.406 641.114 235.27 638.917 236.999C635.411 239.773 632.451 243.544 630.083 247.314C629.646 248.015 629.007 248.343 628.369 248.389C626.982 255.541 625.58 262.709 624.193 269.861C622.432 278.945 620.438 288.029 618.241 297.066C619.176 302.457 623.024 308.596 629.132 302.644C631.61 300.229 631.36 296.084 631.267 292.952C631.095 287.873 629.537 282.731 627.964 277.916C627.184 275.563 630.192 274.255 631.859 275.673ZM607.007 361.261C612.444 361.105 625.081 359.376 623.632 351.071C622.12 342.501 607.895 347.487 603.501 349.513C603.251 349.622 603.018 349.684 602.768 349.715C596.52 367.665 589.322 385.288 581.157 402.427C581.359 402.474 581.578 402.536 581.796 402.646C592.235 408.037 597.112 384.805 598.047 378.042C598.359 375.768 601.273 376.11 602.316 377.466C605.293 381.393 607.474 385.911 610.123 390.056C611.899 392.845 613.925 395.556 616.605 397.55C620.594 400.542 624.208 396.553 624.333 392.596C624.645 382.327 611.743 372.059 605.386 365.219C603.968 363.754 604.934 361.324 607.007 361.261ZM521.137 489.309C566.604 433.621 596.349 366.232 613.488 296.583C613.442 296.224 613.395 295.882 613.364 295.539C613.301 294.682 613.644 294.074 614.174 293.7C616.34 284.694 618.319 275.673 620.064 266.62C627.403 228.772 634.835 190.941 639.821 152.704C638.761 151.52 639.104 149.51 640.32 148.871C640.522 147.282 640.74 145.692 640.943 144.103C642.844 128.319 644.371 112.286 645.056 96.2056C639.307 160.027 627.886 224.098 609.967 285.162C598.515 324.193 584.865 362.695 568.255 399.856C557.411 424.132 544.572 447.193 528.679 468.275C528.679 468.493 528.679 468.695 528.679 468.913C528.647 470.394 527.65 471.064 526.591 471.033C521.901 477.094 516.93 482.983 511.695 488.686C514.827 489.154 517.974 489.387 521.137 489.309ZM480.999 479.633C484.599 480.927 488.26 482.282 492 483.56C491.782 470.394 489.523 457.305 487.933 444.264C486.406 431.658 486.017 418.881 485.253 406.214C483.602 378.915 482.293 351.585 482.059 324.24C481.997 317.664 482.012 311.058 482.106 304.42C478.756 313.847 475.499 323.289 472.352 332.778C458.687 373.836 443.838 416.856 441.75 460.437C454.76 467.168 467.116 474.663 480.999 479.633Z" fill="#FF5B0D"/>
<path d="M680.567 263.987C681.751 263.94 682.468 264.641 682.717 265.514C685.662 267.227 687.345 270.375 687.485 273.943C687.625 277.932 685.148 281.469 681.096 281.89C676.235 282.388 671.841 277.807 671.483 273.258C671.078 268.116 675.783 264.174 680.567 263.987ZM681.081 277.2C682.67 277.184 682.826 274.598 682.795 273.538C682.717 271.481 681.393 269.674 679.445 269.097C679.32 269.066 679.211 269.004 679.102 268.957C677.497 269.549 676.297 270.936 676.157 272.774C675.97 275.314 678.744 277.231 681.081 277.2Z" fill="#FF5B0D"/>
<path d="M593.481 414.582C594.167 414.208 594.821 414.192 595.382 414.41C595.803 414.239 596.286 414.192 596.847 414.333C600.587 415.299 604.03 418.54 604.794 422.388C605.728 427.14 601.475 430.568 597.096 430.88C593.232 431.145 590.287 427.748 589.43 424.289C588.464 420.518 590.038 416.483 593.481 414.582ZM596.473 426.174C598.156 426.642 600.54 425.037 600.181 423.214C599.761 421.095 597.595 419.365 595.6 418.851C595.569 418.851 595.554 418.836 595.523 418.82C593.045 420.581 593.248 425.302 596.473 426.174Z" fill="#FF5B0D"/>
<path d="M640.413 375.332C640.756 374.677 641.41 374.194 642.361 374.163C647.565 373.992 652.193 377.622 653.58 382.593C655.091 387.984 650.604 392.238 645.493 392.721C635.63 393.655 631.766 378.978 640.413 375.332ZM640.148 383.59C640.491 385.834 642.127 387.968 644.496 388.108C647.378 388.28 649.747 386.254 648.936 383.387C648.313 381.159 646.319 379.57 644.137 379.04C643.95 379.134 643.748 379.227 643.498 379.274C641.239 379.741 639.774 381.144 640.148 383.59Z" fill="#FF5B0D"/>
<path d="M640.818 310.762C641.176 310.155 641.815 309.734 642.75 309.765C647.642 309.937 652.442 313.458 652.878 318.584C653.33 323.789 648.359 327.886 643.373 327.637C639.213 327.435 635.785 323.851 635.131 319.862C634.414 315.53 636.969 312.149 640.818 310.762ZM642.765 322.822C644.916 323.555 648.032 321.903 648.235 319.55C648.453 317.073 646.225 315.219 643.981 314.642C643.794 314.736 643.607 314.829 643.373 314.876C641.176 315.39 639.571 316.434 639.68 318.849C639.758 320.579 641.192 322.277 642.765 322.822Z" fill="#FF5B0D"/>
</svg>
