<svg width="184" height="246" viewBox="0 0 184 246" fill="none" xmlns="http://www.w3.org/2000/svg">
<path d="M91.5702 233.931C80.5455 224.919 72.7384 212.834 68.7683 199.182C67.966 196.422 63.7132 197.739 64.5114 200.491C68.6852 214.842 76.9662 227.733 88.5563 237.207C90.7679 239.016 93.7985 235.752 91.5702 233.931Z" fill="#FF5B0D"/>
<path d="M101.855 156.805C102.965 164.026 102.815 171.322 103.389 178.584C103.613 181.44 108.061 181.312 107.837 178.451C107.263 171.189 107.409 163.893 106.303 156.672C105.875 153.87 101.422 153.978 101.855 156.805Z" fill="#FF5B0D"/>
<path d="M100.487 216.217C100.313 222.528 99.7597 228.817 99.5851 235.124C99.5062 238.001 103.954 237.847 104.033 234.991C104.212 228.68 104.761 222.39 104.935 216.084C105.019 213.207 100.566 213.365 100.487 216.217Z" fill="#FF5B0D"/>
<path d="M124.354 144.188C125.896 158.817 127.118 173.462 126.607 188.187C126.075 203.489 123.468 220.608 112.705 232.282C110.76 234.389 114.036 237.407 115.985 235.292C137.286 212.182 131.791 172.519 128.802 144.059C128.511 141.211 124.058 141.332 124.354 144.188Z" fill="#FF5B0D"/>
<path d="M142.794 165.414C143.546 179.881 140.092 193.587 136.862 207.563C136.213 210.365 140.549 211.371 141.194 208.577C144.507 194.227 148.011 180.122 147.238 165.281C147.097 162.412 142.644 162.549 142.794 165.414Z" fill="#FF5B0D"/>
<path d="M151.196 174.21C152.139 180.791 151.624 187.168 150.169 193.632C149.533 196.439 153.873 197.449 154.501 194.651C156.035 187.833 156.637 181.024 155.644 174.081C155.241 171.267 150.788 171.375 151.196 174.21Z" fill="#FF5B0D"/>
<path d="M156.775 127.06C162.536 141.028 167.03 155.017 165.521 170.315C165.239 173.171 169.695 172.997 169.974 170.182C171.52 154.493 166.943 140.089 161.032 125.747C159.942 123.119 155.677 124.404 156.775 127.06Z" fill="#FF5B0D"/>
<path d="M155.428 131.096C154.609 128.344 150.357 129.658 151.175 132.406C152.315 136.222 153.034 140.121 153.724 144.037C154.219 146.86 158.471 145.517 157.977 142.728C157.286 138.812 156.563 134.912 155.428 131.096Z" fill="#FF5B0D"/>
<path d="M168.552 117.636C168.232 116.966 167.746 116.638 167.218 116.555C167.101 116.093 166.981 115.628 166.839 115.162C166.544 114.173 165.642 113.616 164.649 113.591C163.081 113.549 161.531 113.636 159.98 113.782C155.486 107.829 150.452 102.296 145.476 96.7419C145.546 96.2721 145.467 95.7857 145.131 95.3534C139.323 87.8539 129.022 85.8294 118.429 85.9416C123.78 77.1243 128.644 67.9828 133.441 58.9036C141.439 65.8127 151.836 68.7892 160.828 74.1644C162.233 75.0083 163.501 74.0896 163.884 72.8757C168.211 69.6415 164.499 66.4903 160.541 65.0353C151.188 61.5974 143.006 55.6901 134.372 50.8886C134.293 50.8429 134.214 50.8179 134.135 50.7847C134.073 50.7348 134.015 50.6974 133.952 50.6475C132.451 49.4045 130.56 50.5311 130.219 51.957C130.074 52.1025 129.941 52.2729 129.82 52.4808C123.364 64.1166 116.492 75.5155 109.03 86.5195C103.077 87.1389 97.44 88.1283 92.9129 88.8682C89.7992 89.3754 86.7146 89.9948 83.6383 90.6558C84.1496 86.3656 84.9437 81.9882 86.0287 78.2426C88.9927 80.8657 93.682 81.481 97.0492 79.5064C99.7181 78.2758 101.327 76.3345 101.971 74.0896C103.131 71.533 102.865 68.253 100.599 65.9291C100.437 65.6506 100.271 65.3762 100.088 65.106C99.6391 64.4492 99.0322 64.1748 98.4211 64.1623C94.16 61.2731 90.5018 61.4519 87.4296 63.5887C86.8144 59.2611 90.1027 54.3224 93.4201 51.1546C93.5115 51.0881 93.5988 51.0091 93.6944 50.9426C93.7111 51.0757 93.7235 51.2087 93.7443 51.3417C95.058 59.1655 106.195 63.9877 111.728 57.6439C116.426 52.2563 110.689 45.2889 104.935 42.8487C104.133 42.408 103.231 42.0671 102.237 41.8302C103.476 38.0638 112.817 14.6674 114.289 11.1588C115.486 8.29865 117.61 3.58861 115.112 0.919725C115.108 0.915568 115.108 0.911411 115.104 0.911411C115.066 0.865682 115.033 0.819954 114.991 0.778382C114.946 0.728496 114.888 0.691082 114.834 0.64951C114.788 0.607939 114.75 0.566368 114.705 0.524796C113.719 -0.285847 112.597 -0.0696748 111.84 0.578839C111.233 0.645354 110.664 0.994554 110.34 1.76778C107.467 8.59797 95.8603 34.8711 94.185 41.9632C92.3475 42.8528 90.402 44.2746 88.5437 46.0414C86.3737 47.7375 84.582 49.9033 83.2766 52.4309C80.2835 57.0994 78.5666 62.354 79.8678 66.5111C80.138 68.2156 80.6826 69.9117 81.4101 71.5205C78.5209 77.4569 76.621 85.2723 75.6898 92.4891C72.2311 93.3496 68.7765 94.2559 65.3386 95.237C54.451 98.3424 41.0234 101.614 32.6468 109.704C32.0565 109.795 31.4953 110.136 31.1336 110.826C26.9224 118.82 22.9149 126.914 18.7412 134.929C15.5942 137.025 12.2103 138.791 8.99265 140.774C6.88498 142.08 4.12464 143.576 2.19157 145.538C2.18741 145.534 2.17909 145.538 2.17494 145.534C0.337479 145.38 -0.240361 147.16 0.320854 148.515C0.291754 148.86 0.34164 149.193 0.470511 149.484C-4.68019 196.505 33.2163 234.447 76.9619 243.235C81.9713 244.699 87.1511 245.476 92.4598 245.356C92.8214 245.347 93.1208 245.256 93.3868 245.127C98.5957 245.272 103.817 244.994 108.997 244.246C135.507 240.434 160.088 222.965 173.707 200.172C180.379 189.001 183.655 176.064 183.493 163.098C183.298 146.707 175.428 132.069 168.552 117.636ZM94.2432 68.3403C95.5319 69.5583 96.2885 71.3002 96.0224 72.2896C95.8645 72.5099 95.7106 72.7094 95.5527 72.9007C95.0912 73.1501 94.3097 73.0919 93.1083 72.514C91.8487 71.9071 90.7636 71.0383 89.8283 70.0239C91.1045 68.5523 92.572 67.8913 94.2432 68.3403ZM106.424 50.8844C107.276 54.1935 101.335 51.8447 101.165 48.8724C101.148 48.6105 101.152 48.3527 101.152 48.095C103.235 48.0784 105.097 48.9015 106.424 50.8844ZM154.875 114.414C152.443 114.759 150.015 115.104 147.559 115.229C147.467 115.233 147.384 115.254 147.292 115.266C146.927 114.593 146.12 114.14 145.28 114.09C142.474 110.681 139.685 107.264 137.236 103.58C138.987 102.421 140.72 101.223 142.412 99.9595C146.656 104.694 150.951 109.413 154.875 114.414ZM83.1935 95.2578C85.6088 94.7257 88.0283 94.2185 90.4643 93.7654C95.4321 92.8425 100.446 92.1191 105.48 91.6286C102.1 96.4301 98.6082 101.161 94.9748 105.788C94.7462 106.083 94.6049 106.391 94.5342 106.694C90.8468 107.476 87.1345 108.107 83.3972 108.586C82.8194 106.59 82.7196 101.34 83.1935 95.2578ZM36.912 111.787C44.7524 105.044 57.0534 102.304 66.6439 99.4731C69.4874 98.6334 72.3434 97.8685 75.2035 97.141C74.8169 102.312 74.979 106.748 75.6691 109.35C66.8393 109.97 57.9181 109.733 49.0176 108.561C46.1949 108.191 45.1598 112.522 47.9991 112.897C65.6213 115.212 83.181 114.102 100.088 109.92C100.604 110.024 101.144 109.92 101.635 109.533C111.782 106.902 121.684 103.165 131.217 98.3715C133.778 97.0828 131.366 93.3372 128.826 94.6176C121.614 98.2426 114.148 101.227 106.515 103.576C109.616 99.5188 112.522 95.3118 115.282 91.0092C116.359 90.9759 117.44 90.9551 118.517 90.951C125.239 90.926 134.626 91.3002 139.972 96.2513C123.227 108.756 103.414 116.214 82.6572 118.226C74.1476 119.049 65.563 119.353 57.0201 118.991C52.335 118.791 38.8201 118.75 37.2197 112.655C37.1407 112.348 37.0118 112.098 36.8538 111.886C36.8788 111.849 36.8912 111.816 36.912 111.787ZM33.6404 115.644C36.1305 120.392 42.9232 121.722 47.7414 122.529C57.7351 124.2 68.1613 123.738 78.2215 123.048C97.8516 121.701 116.775 116.122 133.478 105.971C136.031 109.812 138.953 113.358 141.876 116.912C138.035 122.046 133.399 126.553 129.699 131.807C124.262 131.791 119.095 133.479 113.715 134.223C113.071 133.703 112.173 133.549 111.275 134.164C104.582 138.754 99.3565 145.123 93.9314 151.101C80.1796 145.813 63.1311 142.421 49.4999 149.459C46.1326 146.827 43.1602 143.722 39.6973 141.227C39.6557 140.151 38.949 139.17 37.5979 139.286C37.4732 139.215 37.3527 139.153 37.2072 139.103C32.5636 137.436 27.6416 136.738 22.7237 136.883C26.4028 129.824 29.9696 122.707 33.6404 115.644ZM12.9918 143.518C14.5591 142.562 16.172 141.656 17.7601 140.724C18.1176 141.269 18.7287 141.627 19.6017 141.535C22.0918 141.273 24.5695 141.257 27.0222 141.46C21.2729 142.957 15.5776 144.686 9.73678 145.351C10.934 144.67 12.098 144.063 12.9918 143.518ZM4.8563 150.078C6.09513 150.09 7.31732 150.036 8.53537 149.937C7.04711 172.838 19.9841 195.495 34.1766 212.439C39.4811 218.775 45.7293 225.052 52.6842 230.398C22.8567 215.162 0.931956 184.919 4.8563 150.078ZM169.774 198.093C157.128 220.488 132.165 236.447 106.914 240.08C103.613 240.554 100.296 240.82 96.9703 240.891C96.7042 240.525 96.301 240.23 95.7356 240.093C74.9333 234.988 59.5768 217.366 49.5705 199.299C48.1779 196.788 44.4323 199.191 45.8166 201.693C54.372 217.141 66.7603 232.049 82.7903 240.026C82.4993 239.985 82.2083 239.939 81.9173 239.893C63.896 236.123 48.1529 222.254 36.7457 208.631C23.3182 192.597 11.4869 170.918 13.0459 149.355C20.6992 148.024 28.1114 145.218 35.8603 143.996C39.6225 146.332 42.6364 149.662 46.0744 152.443C46.0577 152.697 46.1035 152.946 46.1741 153.196C44.8314 161.938 45.6337 170.706 47.6374 179.303C48.2943 182.1 52.5387 180.77 51.8902 177.993C50.0527 170.111 49.2878 162.009 50.5391 153.986C51.0754 153.678 51.6075 153.375 52.1563 153.104C52.6884 158.259 53.0916 163.414 54.1475 168.502C54.7254 171.313 58.9781 169.978 58.4003 167.193C57.3236 161.992 57.0201 156.696 56.4423 151.429C67.9825 147.879 81.5306 151.001 92.4016 155.249C93.1415 156.305 94.7212 156.825 95.8645 155.595C100.437 150.664 104.782 145.243 109.936 140.845C114.597 165.347 113.882 190.606 113.171 215.424C113.088 218.301 117.544 218.143 117.623 215.291C118.35 189.741 118.962 163.851 114.015 138.654C120.076 137.794 125.929 135.765 132.131 136.38C133.969 136.563 134.543 134.784 133.973 133.42C137.432 128.627 141.614 124.404 145.222 119.723C145.675 119.731 146.116 119.619 146.507 119.411C146.823 119.598 147.213 119.71 147.692 119.689C151.258 119.506 154.775 118.87 158.309 118.442C159.036 118.746 159.855 118.617 160.487 118.218C161.327 118.143 162.167 118.085 163.006 118.06C163.169 118.775 163.285 119.486 163.322 120.288C163.397 121.83 164.715 122.495 165.904 122.342C171.911 134.884 177.935 147.205 178.962 161.319C179.909 174.235 176.072 186.939 169.774 198.093Z" fill="#FF5B0D"/>
</svg>
