<svg width="127" height="167" viewBox="0 0 127 167" fill="none" xmlns="http://www.w3.org/2000/svg">
<path d="M59.6981 145.646C59.5586 145.198 59.1268 144.897 58.5985 144.883C58.2713 144.875 57.9601 144.981 57.7456 145.181C56.6567 146.197 55.6349 147.313 54.6452 148.387C53.5671 149.561 52.4514 150.774 51.2499 151.86C50.8878 151.108 50.5472 150.332 50.2173 149.581C49.9009 148.857 49.5763 148.114 49.2277 147.388C49.0158 146.945 48.6323 146.684 48.1737 146.673C47.7043 146.659 47.243 146.909 46.999 147.304C46.7791 147.663 46.7656 148.089 46.9614 148.498C47.3101 149.222 47.6346 149.967 47.9457 150.688C48.4875 151.932 49.048 153.221 49.7399 154.428C50.1556 155.149 51.0273 155.355 51.6575 154.86C53.3686 153.516 54.8571 151.893 56.2973 150.324C56.8257 149.75 57.3674 149.158 57.9199 148.584C58.2498 149.917 58.5207 151.284 58.7835 152.606C58.8988 153.193 59.0168 153.783 59.1402 154.367C59.2636 154.957 59.7973 155.427 60.3578 155.444C60.5563 155.45 60.744 155.399 60.921 155.297C62.1816 154.551 63.0907 153.493 64.0884 152.333L64.1394 152.274C64.59 151.754 65.6413 150.532 66.1616 150.546C66.2179 150.549 66.2554 150.566 66.2903 150.605C66.3627 150.685 66.478 150.925 66.4485 151.62L66.4056 152.569C66.3815 153.042 66.36 153.518 66.3413 153.994C66.3279 154.356 66.4673 154.726 66.7221 155.007C67.1056 155.433 67.6715 155.544 68.1355 155.269C70.7236 153.744 72.8558 151.581 74.4649 148.843C74.709 148.429 74.7251 147.95 74.5078 147.53C74.2799 147.093 73.8266 146.792 73.3814 146.778C72.9845 146.767 72.6385 146.976 72.4105 147.363C71.4155 149.052 70.2891 150.427 68.9803 151.545C68.991 150.24 68.8248 147.775 66.8589 147.599C64.7804 147.413 63.4608 149.032 62.195 150.594C61.8651 151 61.5272 151.42 61.1785 151.796C60.7708 149.778 60.3337 147.688 59.6981 145.646Z" fill="#FF5B0D"/>
<path d="M83.8325 92.1932C83.2719 92.1765 82.6336 92.5272 82.5585 93.337C82.521 93.7266 82.4995 94.1495 82.4835 94.5864C82.4352 95.7691 82.3815 96.9936 81.9444 97.9119C81.6789 98.4657 81.3704 98.73 80.9976 98.7189C80.2065 98.6966 79.2544 97.4806 78.7958 96.8934L78.7341 96.8155C78.4069 96.398 78.0904 95.9695 77.7739 95.5409C76.8835 94.3388 75.9636 93.0921 74.805 92.0986C74.6253 91.9428 74.3893 91.8565 74.1265 91.8509C73.6142 91.837 73.0242 92.1292 72.8901 92.7164L72.8445 92.9223C71.9889 96.8656 71.4525 97.0103 71.3426 97.0297C70.7874 96.899 70.184 96.2617 69.7441 95.797L69.4813 95.5215C68.3683 94.3722 67.2177 93.1839 65.9518 92.1459C65.7587 91.9901 65.5254 91.9038 65.276 91.8955C64.7316 91.8788 64.2247 92.2294 64.0423 92.7414L63.9806 92.914C63.5676 94.0883 62.6021 96.8377 61.7063 96.8127C61.3496 96.8043 60.9688 96.3201 60.6067 95.4157C60.478 95.0957 60.3546 94.7701 60.2312 94.4417C59.6814 92.9863 59.1102 91.4808 58.0347 90.3232C57.7826 90.0505 57.4313 89.8863 57.0692 89.8779C56.6508 89.8668 56.2834 90.0644 56.0581 90.4206C56.0393 90.4512 55.9964 90.5208 55.9401 90.6209C54.1834 93.6625 53.6256 93.9019 53.4834 93.8991C53.4834 93.8991 53.4834 93.8991 53.4807 93.8991C52.644 93.1923 51.9815 92.2572 51.3432 91.3556L51.0026 90.8742C50.7988 90.5903 50.4313 90.4067 50.0451 90.3955C49.7153 90.3872 49.4203 90.5013 49.2191 90.7156C48.2724 91.7229 47.5134 92.2044 46.8965 92.1849C45.8372 92.1543 45.1854 90.543 44.5042 88.6006C44.3433 88.1498 43.9276 87.8604 43.4127 87.8437C42.9675 87.8298 42.5571 88.0385 42.3372 88.3891C42.0502 88.8511 40.6932 90.6516 40.0361 90.6321C39.7786 90.6265 39.6847 90.2007 39.6526 89.8418C39.5506 88.954 39.5801 88.0608 39.7437 87.1731C39.784 86.828 39.6874 86.4941 39.4675 86.2325C39.0384 85.7121 38.2016 85.6119 37.6947 86.0544C37.0752 86.5942 36.7212 86.7 36.5308 86.6972C35.8281 86.6777 35.8737 84.8299 35.9059 83.4803C35.9193 82.9209 35.93 82.3922 35.8978 81.9943C35.8415 81.2874 35.2702 80.9535 34.7285 80.9396C34.4147 80.9312 34.1116 81.0231 33.8756 81.1984C33.4331 81.5295 30.8128 83.1296 29.5979 83.0963C29.1902 83.0851 29.1205 82.8987 29.1017 82.6955C29.0079 81.5212 29.0561 80.6279 29.2519 79.9656C29.6328 79.4758 29.6328 78.8525 29.2439 78.3683L29.1849 78.2903C28.9542 78.0009 28.6377 77.8368 28.2945 77.8256C27.7822 77.8117 27.286 78.1401 27.0554 78.6465C26.1033 80.7448 26.2374 83.881 27.9512 85.2056C29.1607 86.1406 31.0488 85.9069 33.4545 84.5294C33.4358 86.1796 33.4572 87.8632 34.4227 89.1711C35.0235 89.992 35.9461 90.1423 37.1261 89.5857C37.2334 91.5059 37.9093 92.722 39.1457 93.2034C40.425 93.7043 41.7552 93.2006 43.064 91.7118C44.1207 93.888 45.3329 94.9649 46.7544 95.0066C47.7011 95.0345 48.7363 94.5753 49.836 93.6459C50.9624 95.2766 52.2229 96.7403 53.7328 96.54C55.2052 96.3452 56.2405 95.0373 57.1282 93.5763C57.3884 94.1301 57.6136 94.7311 57.8336 95.3155C58.6033 97.3637 59.3998 99.4814 61.7653 99.8654C63.8116 100.191 64.9863 97.7839 65.7614 95.5521C65.8714 95.6773 65.9867 95.8053 66.102 95.9361C67.5396 97.5529 69.3311 99.5649 71.0047 99.6122H71.1119C73.2495 99.5649 74.1721 97.6002 74.7084 95.7413C75.0008 96.1281 75.2904 96.5372 75.5935 96.9657C77.0927 99.0862 78.6429 101.279 81.1237 101.349L81.2524 101.351C84.4815 101.349 84.7926 97.0437 84.9777 94.4723C85.0018 94.144 85.0233 93.8407 85.0474 93.5735C85.0823 93.2062 84.9884 92.8806 84.7765 92.6301C84.5512 92.363 84.208 92.2044 83.8325 92.1932Z" fill="#FF5B0D"/>
<path d="M107.388 27.3631C106.648 26.9457 105.731 27.4049 105.506 28.2119C103.553 29.7814 87.2979 39.7104 80.3194 43.9765L78.9194 44.8308C78.8899 44.6777 78.8604 44.5247 78.8283 44.3828C78.6164 43.4394 78.2302 42.4821 77.6348 41.4441C77.3666 41.0629 77.026 40.6065 76.6425 40.0945C74.7249 37.5259 71.8257 33.6411 71.7345 30.7136C71.7237 30.4159 71.6031 30.107 71.3939 29.8454L71.3241 29.787C71.0077 29.6255 70.6885 29.4697 70.364 29.3167L70.3103 29.2916L70.2514 29.2972C70.018 29.325 69.6908 29.4502 69.4548 29.8871C69.3851 30.0179 69.2778 30.2239 69.1464 30.4799C68.6449 31.4539 67.7089 33.2655 66.864 34.5316C65.5821 36.8692 63.7262 40.3894 62.42 43.9542C61.7388 45.6155 60.4032 51.6848 60.8243 53.4129C59.8802 53.7525 56.4741 55.0938 55.9002 55.3553C54.1623 55.1299 50.4639 54.7932 48.4282 54.6346C46.6984 49.3306 44.526 42.9886 43.1716 37.8766C45.2099 37.0946 46.6233 36.4351 48.5838 35.5529C49.5332 35.1244 50.4853 34.6958 51.4401 34.2812C51.601 34.2116 51.7351 34.1142 51.8397 33.9918C53.0385 35.18 54.2991 36.449 55.4577 37.8042L55.6454 38.0296C56.037 38.5027 56.3213 38.8422 56.9783 39.0787C57.4638 39.254 57.9573 39.1038 58.2871 38.6947C58.2871 38.6947 60.9852 36.1846 60.6151 35.8228C59.0837 34.334 57.5469 32.8119 56.2274 31.4956C58.1986 30.2239 59.8132 28.4373 61.3741 26.7064L61.7656 26.2751C63.2809 27.2574 64.6112 28.1924 65.8234 29.1274C65.9093 29.1914 66.0004 29.2443 66.1104 29.286C66.1801 29.3445 66.2633 29.4113 66.3759 29.4558C66.8721 29.6617 69.2832 26.7231 69.2671 26.1693C69.428 25.7101 69.259 25.1285 68.8675 24.828C68.5993 24.6221 68.2828 24.5581 67.9717 24.6332C66.8024 23.7789 65.5231 23.0553 64.394 22.4515C65.2361 20.8625 66.164 19.2958 67.0625 17.7764C67.3575 17.2783 67.6525 16.7773 67.9475 16.2764C68.9345 16.3655 70.0153 16.5519 71.3375 16.8553C71.5333 17.2476 73.046 17.3868 73.2766 17.0946C73.813 16.4128 74.3413 13.9166 74.2341 13.591C74.1295 13.2821 73.8854 13.0595 73.5394 12.9649C72.4264 12.656 71.1981 12.3499 69.6935 12.0076C69.959 11.3008 70.2674 10.4298 70.4766 9.5198C71.8498 9.63389 73.2954 9.60885 74.7919 9.45301C75.2291 9.40849 76.0658 8.26475 76.0846 7.96143C76.0846 7.96143 75.9183 6.20548 75.4919 5.99677C75.3203 5.82702 75.103 5.72962 74.8375 5.70736C72.6061 5.51535 70.3828 5.30663 68.1621 5.09792C62.6024 4.57476 32.1461 2.93569 31.4809 3.06926C31.1403 2.42922 30.7997 1.79195 30.4457 1.16304C30.4216 0.731707 30.1909 0.23915 29.7135 0.116707C28.9867 -0.0697408 28.2975 -0.0335644 27.6618 0.230802C27.3159 0.197408 26.9511 0.342115 26.6963 0.606481C26.4818 0.829105 26.3638 1.11852 26.3638 1.41906C26.2806 1.77526 26.3852 2.17598 26.64 2.47652C26.8331 3.13605 26.9699 3.81227 27.0986 4.50797C27.0906 4.51632 27.0799 4.52745 27.0718 4.53858C24.0546 8.2091 21.0347 11.9881 18.1114 15.6475C12.3881 22.8105 6.46632 30.2183 0.289763 37.1502C0.0644789 37.4007 -0.0347539 37.6985 0.0108394 37.9962C0.00279356 38.1354 0.0135212 38.2662 0.0483867 38.3942C0.270989 39.2234 0.592824 39.7689 1.15872 40.2781C1.59051 40.6733 2.41924 40.5341 2.7518 40.0388L2.95295 39.7438C3.72535 38.5973 4.52458 37.4174 5.53568 36.4907C5.97015 36.9276 6.42608 37.2393 6.89006 37.4285C5.86824 39.0982 5.05024 40.6621 4.39316 42.1983C4.21615 42.6185 4.27515 43.0442 4.56481 43.3754C4.94028 43.829 7.69465 44.341 7.69465 43.9765C9.03563 42.1955 9.48888 40.6621 11.1088 39.1149C12.6885 39.6576 14.3298 40.0388 15.9229 40.4061C16.8348 40.6176 17.7761 40.8375 18.6987 41.0824C18.2348 42.5238 17.8137 43.701 17.3819 44.7696C17.2532 45.0924 17.2719 45.4402 17.4355 45.7463C17.6099 46.0747 22.1343 46.8873 22.247 46.1832C22.5044 44.6555 22.8021 43.0693 23.1347 41.4664L24.0653 41.5109C24.8431 41.5499 25.6182 41.5888 26.3879 41.6111C28.3779 41.6667 30.7166 41.6333 33.0526 40.971L33.1143 41.7586C33.235 43.2724 33.3556 44.7835 33.4817 46.2834C33.5219 46.7843 33.9805 47.2379 34.4847 47.2769L36.6169 47.4411L36.6732 47.4438C36.9763 47.4522 37.2498 47.3464 37.459 47.1405C37.8828 47.2184 38.328 47.0598 38.5801 46.7481C38.7196 46.5756 38.8671 46.2751 38.7786 45.8326C38.4058 43.9459 38.0249 41.9367 37.62 39.6965C37.6226 39.6965 37.6226 39.6965 37.6253 39.6965L37.6709 39.6826C37.7192 39.8023 38.7062 39.3848 38.7598 39.5156C39.5617 41.4135 42.5011 51.9659 43.3996 54.1782L43.8206 55.2162C43.3889 55.2886 42.9276 55.3609 42.4421 55.436C38.1134 56.1178 32.1836 57.0501 29.7967 59.7494C29.5687 60.0082 28.4718 60.6622 28.1821 60.8903C26.5274 62.2038 19.1842 70.8055 21.083 74.5038C18.8275 78.8951 17.583 83.0108 17.1673 87.4383C17.1351 87.7917 17.2371 88.1284 17.4597 88.39C17.642 88.6015 17.8861 88.749 18.1543 88.8102C17.9344 89.1747 17.7091 89.5365 17.4838 89.8983C16.3547 91.7154 15.188 93.5938 14.7214 95.667C14.3164 97.4647 13.9007 99.3236 13.78 101.188C13.6674 103.019 14.1555 104.405 15.0379 104.814C14.7777 105.774 14.48 106.74 14.193 107.675C12.9674 111.654 11.6988 115.764 13.1471 120.145C13.2865 120.568 13.6647 120.804 14.0509 120.879C13.544 125.563 13.2249 130.945 15.4294 135.917C15.6225 136.349 16.0731 136.649 16.5558 136.663C16.7221 136.669 16.8804 136.638 17.0225 136.58C21.7374 153.076 33.8223 164.544 48.6133 166.539C50.0106 166.729 51.3999 166.843 52.7382 166.882C59.1373 167.063 64.6836 165.54 69.2215 162.36C73.8693 159.095 77.7474 154.451 81.419 147.744C81.6926 147.711 81.9527 147.597 82.1163 147.441C88.2714 144.113 89.6097 134.649 90.5833 127.736L90.6852 127.021C90.7925 127.051 90.9051 127.068 91.0204 127.074C91.4764 127.088 91.8653 126.879 92.0637 126.52C94.22 122.602 95.0353 117.484 94.3702 112.074C95.1104 112.161 95.6227 111.543 95.7273 110.917C96.5426 106.061 95.0407 101.494 93.4154 97.64C93.9733 97.5371 94.3836 97.0974 94.456 96.4907C94.9817 92.0327 93.4798 88.0477 91.8813 84.7084C93.8258 84.7 96.6847 85.5348 98.4307 85.0172C98.8437 84.8948 99.1736 84.6137 99.3372 84.2436C99.482 83.9125 99.4767 83.5396 99.3211 83.1917C98.8303 82.0925 97.3418 79.7577 96.8108 78.4498C94.8315 73.5604 92.3802 67.5106 88.5638 64.3688C90.8944 63.5145 92.5223 61.5081 94.0966 59.5657C95.7192 57.5649 97.3981 55.4945 99.8521 54.6457C100.289 54.4955 100.555 54.1476 100.587 53.6857C100.627 53.1152 100.289 52.5002 99.8065 52.2525C97.0227 50.8305 92.525 49.1942 87.9952 48.7239C88.6362 48.351 89.2772 47.9837 89.9235 47.6275C94.971 44.8169 100.316 41.6695 105.238 37.6734C105.439 37.8988 105.739 38.0296 106.08 38.0407C106.503 38.0519 106.892 37.8821 107.155 37.5844C109.126 40.1974 111.001 42.9524 112.817 45.6183C115.225 49.1608 117.717 52.8258 120.474 56.1985C120.897 56.7161 121.665 56.7523 122.23 56.3154C123.07 55.6698 124.003 55.155 124.907 54.6569C125.553 54.3007 126.21 53.9194 126.851 53.502C126.846 53.3072 126.851 53.1096 126.859 52.912C124.373 49.1024 110.462 29.094 107.388 27.3631ZM57.5335 35.9982L57.1312 36.4907C56.391 35.9036 55.5489 34.8628 54.8006 33.9389C54.2964 33.31 53.8163 32.72 53.4221 32.3332C51.0324 30.0012 48.498 27.3548 45.6685 24.2436C45.3628 23.9041 45.049 23.5563 44.7298 23.2001C46.0359 24.508 47.3394 25.8187 48.6401 27.1266C51.542 30.0485 54.5431 33.0651 57.5335 35.9982ZM59.4779 25.4068C58.0189 27.032 56.509 28.7156 54.6558 29.7647C54.6236 29.7842 54.5941 29.8036 54.5619 29.8259C53.6447 28.9048 52.7274 27.9809 51.8102 27.057C49.9167 25.148 48.0206 23.239 46.1137 21.3439C44.8934 20.1334 43.6088 18.9646 42.2463 17.7263C39.8782 15.5724 37.4376 13.3545 35.4047 10.9223C39.1138 13.2571 42.9356 15.4833 47.4359 18.0463C48.8949 18.8784 50.378 19.6937 51.8638 20.5119C54.4895 21.9589 57.2036 23.4533 59.8024 25.0451L59.4779 25.4068ZM65.1637 16.5492C64.2384 18.1242 63.2809 19.7522 62.4013 21.4024C62.0097 21.1964 61.6235 20.9877 61.2373 20.7762C59.03 19.5629 56.8228 18.2495 54.6906 16.9805C53.1887 16.0872 51.6332 15.1633 50.0884 14.2784C48.085 13.1319 45.816 12.1829 43.6222 11.2674C41.8682 10.5355 40.0659 9.78416 38.3682 8.91871C42.9436 9.63111 47.6719 10.4075 52.4378 11.2368C53.9531 11.5012 55.4791 11.7516 57.0105 12.0048C60.2262 12.5336 63.5491 13.0818 66.7916 13.7497C66.2579 14.6875 65.7135 15.6197 65.1637 16.5492ZM30.73 6.56168C30.7273 6.56725 30.7246 6.57559 30.7166 6.58116C30.5315 6.12478 30.0836 5.84093 29.6599 5.8131C29.4936 5.18419 29.3702 4.53023 29.2496 3.89575C29.2281 3.79001 29.2093 3.68426 29.1879 3.57573C29.7269 4.57197 30.2446 5.571 30.73 6.56168ZM7.84753 35.2941C7.39964 35.2357 6.83374 34.6763 6.28394 33.758C10.9666 28.2675 15.5555 22.5322 19.9941 16.9805C20.7692 16.0121 21.5523 15.0325 22.3408 14.0474C20.9918 16.1206 19.7125 18.23 18.4547 20.3032C17.5804 21.7447 16.6765 23.2362 15.7647 24.6861C14.4371 26.7982 12.9325 28.8436 11.4789 30.8222C10.3873 32.311 9.25555 33.8471 8.20691 35.4054C8.09695 35.3498 7.97894 35.3136 7.84753 35.2941ZM22.9845 26.3057C22.0807 28.9465 21.3485 31.682 20.6405 34.3285C20.2435 35.8201 19.8278 37.3617 19.3907 38.87C18.4976 38.6335 17.5857 38.422 16.7007 38.2188C14.7375 37.768 12.7126 37.2977 10.8111 36.5241C10.6797 36.4712 10.5456 36.4406 10.4142 36.4379C10.3471 36.4351 10.2827 36.4406 10.2184 36.4518C11.2804 34.8739 12.4122 33.3406 13.5199 31.8407C14.8957 29.9734 16.3198 28.0449 17.5911 26.0636C18.6826 24.3577 19.7527 22.599 20.7853 20.8959C22.8772 17.4508 25.0335 13.8971 27.4982 10.6301C26.6373 15.6447 24.937 20.6065 23.2902 25.4152L22.9845 26.3057ZM26.817 39.3181C26.0366 39.2958 25.2561 39.2513 24.4757 39.2067C24.1994 39.19 23.9259 39.1761 23.6496 39.1594C24.4676 35.4973 25.4197 31.8073 26.337 28.2341L26.8278 26.3251C27.6002 23.3114 28.2572 20.5592 28.8365 17.9072C29.0645 16.8664 29.2388 15.8284 29.3997 14.7793C31.43 22.5878 32.2346 30.8194 32.8756 38.614C30.7649 39.3236 28.63 39.3681 26.817 39.3181ZM33.0472 5.29272C33.0338 5.28159 33.0231 5.26768 33.0097 5.25654C33.3637 5.23428 62.6265 6.90675 67.7169 7.3993L68.4249 7.46609C68.3418 7.58018 68.2801 7.71654 68.2399 7.86403C68.1594 8.17014 68.1943 8.50408 68.3338 8.77401C68.1326 9.74799 67.784 10.6941 67.4594 11.5234C64.3725 10.8889 61.2158 10.3574 58.1584 9.84539C56.7262 9.60328 55.2967 9.36396 53.8726 9.11351C47.2026 7.93638 40.4011 6.83161 33.648 5.83258C33.4441 5.65727 33.2403 5.47917 33.0472 5.29272ZM37.2445 37.3923C37.2364 37.3951 37.2284 37.3951 37.2177 37.3979C36.2817 32.08 35.4127 26.6619 34.5706 21.4191C34.0985 18.4804 33.6292 15.5446 33.1438 12.6115C36.6759 17.3367 40.5647 22.0396 44.7164 26.6034C46.39 28.4401 48.1761 30.3073 50.1635 32.3026C49.2811 32.6894 48.4068 33.0874 47.5298 33.4881C44.2363 34.9824 40.8276 36.5352 37.2445 37.3923ZM50.5068 57.409C51.129 57.4564 51.8022 57.5064 52.293 57.5482L51.6707 57.9406L51.5983 57.9573V58.0797L51.2765 58.2467C50.7937 58.4971 50.3164 58.7448 49.839 58.9869L49.2999 57.3172C49.5949 57.3423 50.0321 57.3757 50.5068 57.409ZM30.604 63.6759C30.7246 62.3513 31.4783 61.305 32.8434 60.5731C35.1633 59.3236 39.4383 58.6029 42.8739 58.0241C43.5685 57.9072 44.2229 57.7959 44.8157 57.6901C44.9873 58.1354 45.6471 59.9247 45.8107 60.3672L45.875 60.5314C45.4861 60.6232 42.705 61.9562 42.6486 62.2094C41.9835 61.8393 41.1494 62.24 40.9027 63.0108C40.7283 63.5479 40.9027 64.0906 41.3532 64.4273L41.4954 64.533C45.5639 67.5579 52.3707 72.6226 58.2147 72.7868C58.9952 72.8091 59.7488 72.7451 60.4542 72.592C60.2396 73.6272 60.1216 74.7404 60.0036 75.8173L59.9929 75.9203C59.9473 76.3238 59.899 76.7384 59.8454 77.1558L59.7864 77.6512C52.2366 76.5213 46.3122 74.2005 42.1793 70.7498C38.0357 67.2936 35.7319 64.4857 36.0135 63.2307C36.0966 62.8661 36.4131 62.6268 36.9817 62.4988C37.7272 62.329 38.0088 61.664 37.9552 61.0824C37.8828 60.292 37.2525 59.78 36.5204 59.947C34.7878 60.3393 33.7579 61.1241 33.4576 62.2762C32.6932 65.2287 37.0782 69.5699 37.9632 70.4103C43.5229 75.6782 50.5845 78.8923 59.5503 80.2336C59.5208 80.9822 59.5423 81.6501 59.612 82.2595C58.0484 82.1955 56.517 81.5777 55.042 80.9766C54.3366 80.69 48.7876 78.87 47.4332 78.4025C43.1743 76.9249 39.0763 75.3804 35.7909 72.6894C33.471 70.7888 30.3223 66.7342 30.604 63.6759ZM92.0637 94.9602C91.9806 94.9463 91.8974 94.9324 91.825 94.9184C91.7768 94.9018 91.7365 94.8962 91.6802 94.8878C90.8139 94.1615 89.9235 93.4074 89.2933 92.4362C89.0894 92.1217 88.7971 91.9436 88.4619 91.9353C88.0381 91.9242 87.609 92.1885 87.3918 92.5976C87.1879 92.9816 87.2121 93.4185 87.4561 93.797C88.2151 94.9685 89.2584 95.8563 90.2749 96.7161C92.0101 100.54 93.6568 104.63 93.4208 108.999C92.753 108.067 92.1978 107.043 91.6614 106.039C91.0929 104.978 90.5028 103.882 89.7814 102.894C89.5212 102.541 89.2155 102.46 89.0036 102.451C88.5825 102.44 88.1588 102.719 87.9469 103.147C87.7404 103.567 87.7806 104.027 88.0596 104.405C88.7649 105.368 89.3415 106.448 89.9047 107.491C90.4385 108.49 90.9909 109.511 91.6588 110.455C91.6507 110.572 91.648 110.689 91.6695 110.808C92.5223 115.5 92.1522 120.189 90.6557 123.729C90.5538 123.64 90.4411 123.567 90.3097 123.506C90.012 123.122 89.709 122.738 89.4086 122.354C88.2232 120.849 86.9975 119.29 85.9354 117.657C85.745 117.367 85.3803 117.181 84.9807 117.17C84.6454 117.161 84.337 117.278 84.1439 117.493L83.6263 118.06C82.6983 119.084 80.5823 121.057 80.5528 121.11C79.834 121.672 78.9623 121.508 78.4903 120.709C77.6321 119.262 75.39 120.523 76.2536 121.981C76.8758 123.03 78.1551 124.511 79.7777 124.461C80.3757 124.444 80.8478 123.949 81.3386 123.629C81.6819 123.467 82.0198 123.272 82.3389 123.008C82.4757 122.894 82.5723 122.772 82.6474 122.644C83.4117 121.99 84.1224 121.258 84.8224 120.495C85.6914 121.72 86.6274 122.916 87.5312 124.074C87.8209 124.444 88.1105 124.814 88.4028 125.19C88.4163 125.206 88.427 125.22 88.4404 125.234C88.3331 125.941 88.2312 126.704 88.1239 127.505C87.8504 129.545 87.5366 131.855 87.0672 134.12C87.027 134.153 86.9841 134.192 86.9439 134.234C86.7105 134.484 86.4799 134.735 86.2439 134.985C85.678 132.87 85.0128 130.652 83.8864 128.582C83.7228 128.279 83.3742 128.084 82.9799 128.073C82.7091 128.064 82.4596 128.148 82.2853 128.309C81.3708 129.133 80.5742 130.107 79.7991 131.045C79.3807 131.554 78.9463 132.083 78.5011 132.578C78.0907 133.035 77.7957 133.263 77.6241 133.257C77.388 133.252 77.1789 132.653 77.0206 132.13C76.8624 131.601 76.739 131.048 76.6156 130.516C76.4949 129.979 76.3689 129.422 76.208 128.883C76.0712 128.418 75.7252 128.134 75.28 128.12C74.8911 128.109 74.5023 128.304 74.2636 128.632C74.0383 128.938 73.9793 129.317 74.0919 129.698C74.1563 129.912 74.2314 130.288 74.3172 130.722C74.7168 132.717 75.3846 136.054 77.1118 136.101C77.2352 136.107 77.3639 136.093 77.4926 136.059C79.3003 135.62 80.5474 133.978 81.757 132.386C82.0654 131.98 82.3631 131.59 82.6635 131.223C83.4117 132.962 83.8945 134.841 84.3611 136.663L84.6213 137.665C84.7393 138.121 85.096 138.4 85.5707 138.414C85.686 138.416 85.8013 138.405 85.914 138.377C84.9538 141.13 83.7228 143.086 82.17 144.335C82.0681 143.89 81.9581 143.451 81.8481 143.008C81.5504 141.803 81.2447 140.556 81.0731 139.301C80.9819 138.62 80.3945 138.249 79.8608 138.233C79.5551 138.224 79.2601 138.33 79.0375 138.528C78.3321 139.151 77.6777 139.844 77.0421 140.512C76.3474 141.241 75.6367 141.998 74.8643 142.652L74.8455 142.568C74.3252 140.189 73.8371 137.941 72.0241 136.082C71.4448 135.486 70.5973 135.522 70.0717 136.16C69.6399 136.683 69.2215 137.212 68.8004 137.743C67.7518 139.076 66.7568 140.342 65.5472 141.441C65.1878 140.643 64.9089 139.788 64.6407 138.962C64.343 138.049 64.0346 137.106 63.6189 136.221C63.4097 135.776 63.0288 135.514 62.5729 135.5C62.1062 135.486 61.645 135.734 61.3982 136.132C61.1756 136.491 61.1595 136.917 61.3553 137.328C61.7925 138.249 62.1223 139.221 62.4442 140.158C62.9108 141.522 63.3936 142.927 64.1982 144.216C64.3859 144.511 64.6917 144.681 65.0618 144.692C65.3675 144.7 65.7028 144.594 65.9602 144.411C67.8778 143.028 69.3207 141.191 70.718 139.413L71.0533 138.99C71.8096 140.264 72.1126 141.708 72.4345 143.233C72.5605 143.832 72.6919 144.45 72.8502 145.059C73.0084 145.657 73.5287 146.116 74.0624 146.133C74.2609 146.139 74.4486 146.086 74.6283 145.977C76.1624 145.037 77.4015 143.759 78.6003 142.524C78.7478 142.371 78.898 142.218 79.0455 142.067C79.1528 142.527 79.2654 142.989 79.3781 143.448C79.5363 144.096 79.6972 144.747 79.8367 145.398C72.9521 158.28 63.9058 164.653 52.9447 164.344C51.9711 164.316 50.9734 164.235 49.9731 164.099C46.7413 163.665 43.6088 162.788 40.6533 161.491C41.3318 160.927 41.7368 160.097 42.0506 159.287C42.7827 160.568 43.818 161.976 45.4057 162.549C46.4892 162.941 47.5513 162.635 48.5302 161.647C48.9968 162.499 49.8631 162.947 51.1102 162.98C53.4033 163.044 56.6806 161.636 58.7887 160.406C59.207 160.161 59.3921 159.747 59.2848 159.293C59.1534 158.753 58.6546 158.33 58.1182 158.316C57.909 158.311 57.6998 158.366 57.5067 158.478C56.1979 159.243 54.865 159.883 53.5427 160.387C52.8186 160.662 52.0811 160.826 51.2845 160.89C50.9225 160.921 50.6838 160.837 50.539 160.64C50.1715 160.145 50.437 158.984 50.5819 158.361L50.5953 158.3C50.6918 157.877 50.5604 157.584 50.4317 157.412C50.2305 157.142 49.8953 156.975 49.5305 156.964C49.0612 156.95 48.6616 157.189 48.4417 157.637C47.9669 158.606 47.1704 160.225 46.1593 160.197C45.8831 160.189 45.5907 160.061 45.293 159.813C44.3463 159.029 43.7026 157.668 43.1341 156.468L42.9222 156.023C42.7157 155.595 42.3107 155.319 41.8655 155.305C41.4283 155.291 41.0502 155.542 40.8517 155.973C40.5245 156.691 40.2751 157.437 40.031 158.16L39.8621 158.667C39.5724 159.516 39.1192 159.919 38.4782 159.9C37.4134 159.869 36.0805 158.731 35.284 158.049C35.1526 157.938 35.0372 157.838 34.938 157.757C34.6269 157.495 34.2487 157.431 33.8947 157.559C31.2423 155.584 28.8392 153.221 26.7419 150.522C27.4017 150.75 28.0507 150.363 28.2438 149.634C28.4155 148.98 28.5415 148.293 28.6408 147.474C29.8208 149.614 31.3871 152.194 33.4415 152.536C34.6832 152.748 35.6621 151.821 36.4721 149.773C36.7725 148.496 37.156 147.241 37.561 145.986C37.5556 145.986 37.5556 145.983 37.5502 145.98C37.5985 145.757 37.6441 145.543 37.687 145.343C37.7755 144.92 37.8533 144.558 37.9203 144.294C38.0303 143.868 37.9042 143.576 37.7836 143.403C37.5931 143.139 37.2659 142.977 36.9039 142.966C36.3192 142.95 35.8499 143.309 35.705 143.874C35.3993 145.062 35.0506 146.406 34.643 147.703C34.5679 147.934 34.5008 148.17 34.4365 148.401C34.2246 149.15 34.0047 149.923 33.6748 149.912C33.5434 149.909 33.2966 149.801 32.8675 149.306C31.8752 148.162 31.0733 146.826 30.2955 145.54C29.802 144.717 29.2925 143.871 28.7373 143.075C28.5362 142.788 28.2116 142.616 27.8469 142.605C27.3239 142.591 26.7661 142.922 26.7044 143.587C26.6695 144.015 26.6373 144.438 26.6078 144.861C26.5408 145.813 26.4764 146.72 26.3423 147.633C24.6902 146.395 23.2339 144.079 22.0056 140.737C21.8178 140.222 21.3405 139.939 20.8309 140.019C20.2462 138.522 19.7393 136.997 19.3236 135.478C20.3696 134.957 21.0589 133.858 21.6167 132.787C21.9439 133.374 22.2899 133.953 22.6305 134.515C23.2151 135.492 23.8213 136.505 24.3255 137.557C24.6232 138.18 25.4331 138.494 25.999 138.169L26.691 137.774C28.1339 136.95 29.5043 136.168 30.8131 135.213C31.3388 137.918 32.6074 139.958 34.5867 141.283C34.7905 141.419 35.048 141.5 35.3081 141.505C35.7614 141.519 36.1476 141.311 36.3353 140.949C37.0165 139.652 37.6655 138.422 38.7383 137.484C39.6877 138.937 40.8812 140.17 42.4824 141.344C42.6835 141.494 42.9168 141.575 43.1582 141.58C43.6597 141.594 44.1344 141.283 44.3544 140.799L46.3631 139.02C46.3712 139.018 46.3766 139.012 46.3846 139.006C47.0363 140.543 47.9294 141.942 49.4689 142.335C52.4431 143.092 54.2374 139.243 56.0101 137.54C57.2197 136.382 55.4657 134.459 54.2562 135.62C52.993 136.833 51.9389 139.223 50.2171 139.758C49.0666 140.114 47.8141 135.497 47.4976 134.668C46.8942 133.085 44.6628 134.373 45.2609 135.94C45.3413 136.151 45.4191 136.374 45.4996 136.605C44.3061 137.008 43.4747 137.545 42.8471 138.366C41.7073 137.381 40.8973 136.36 40.2402 135.083C39.9157 134.457 39.1245 134.156 38.5694 134.476C36.7939 135.5 35.7426 136.936 34.9621 138.247C33.7258 136.944 33.0767 135.127 33.0338 132.845C33.0177 132.099 32.4438 131.454 31.7786 131.434C31.4917 131.426 31.2128 131.54 30.9767 131.763C29.4132 133.229 27.5894 134.295 25.9561 135.23C25.6075 134.598 25.2347 133.978 24.8726 133.374C24.1217 132.119 23.3466 130.825 22.786 129.436C22.609 128.994 22.1665 128.699 21.6623 128.685C21.2225 128.674 20.8336 128.88 20.6217 129.236C20.4822 129.473 20.3079 129.857 20.1094 130.302C19.6669 131.287 19.0072 132.745 18.4359 133.073C18.0148 132.723 17.4248 132.653 17.0171 132.918C15.7915 128.863 16.1428 124.578 16.6551 120.184C16.6899 120.145 16.7221 120.103 16.7543 120.056C17.0306 119.635 17.2853 119.204 17.5401 118.775C17.9049 118.16 18.2535 117.573 18.6558 117.022C18.8731 117.754 19.0393 118.514 19.2003 119.251C19.4336 120.328 19.6776 121.441 20.088 122.493C20.2569 122.93 20.7156 123.233 21.2305 123.25C21.673 123.264 22.0619 123.053 22.2604 122.691C22.8692 121.561 23.6309 120.515 24.3818 119.505C24.6124 121.514 25.0308 123.971 26.8841 124.694C27.1362 124.792 27.3963 124.845 27.6538 124.853C29.271 124.9 30.6683 123.172 31.8967 121.65C32.0576 121.452 32.2131 121.258 32.3687 121.071C32.5376 122.994 32.8112 125.081 34.8978 125.646C35.1365 125.71 35.3778 125.746 35.6192 125.752C38.3307 125.83 40.4494 122.204 41.5866 120.259L41.6456 120.158C41.8896 119.741 41.903 119.262 41.6831 118.839C41.4525 118.4 41.01 118.105 40.5594 118.094C40.1625 118.083 39.8165 118.291 39.5885 118.678C39.154 119.421 36.4104 123.225 35.4449 123.197C35.3912 123.181 35.2893 123.195 35.2196 122.958C34.9782 122.176 34.9112 121.366 34.8388 120.509C34.7771 119.749 34.7127 118.965 34.5116 118.208C34.3587 117.612 33.8357 117.153 33.3047 117.139C33.1089 117.134 32.9185 117.184 32.7388 117.289C31.8457 117.818 31.1108 118.762 30.4028 119.677C29.5633 120.757 28.7695 121.778 27.7906 122.134C27.3507 121.931 26.8009 118.352 26.6186 117.175C26.5247 116.563 26.455 116.121 26.4094 115.943C26.2538 115.353 25.7228 114.91 25.1462 114.893C24.7439 114.882 24.3925 115.077 24.1565 115.444C23.6443 116.24 23.0703 117.014 22.5178 117.757C22.2282 118.147 21.9359 118.539 21.6542 118.934C21.6006 118.7 21.5497 118.467 21.5014 118.233C21.2064 116.855 20.8979 115.43 20.2087 114.106C19.8332 113.385 18.8892 113.163 18.283 113.669C17.0735 114.685 16.3091 115.943 15.5018 117.27L15.3275 117.557C15.2444 117.57 15.1612 117.593 15.0861 117.621C14.5363 114.365 15.6198 111.028 16.6658 107.8C16.8965 107.09 17.1271 106.381 17.339 105.677C17.4409 105.596 17.5294 105.504 17.6045 105.393C18.0899 105.685 18.5888 105.838 19.0903 105.855C21.0159 105.911 22.6868 103.929 24.1672 102.12C24.001 103.868 23.9178 105.552 24.4784 107.355C24.6151 107.808 25.0335 108.101 25.5565 108.115C25.881 108.123 26.1975 108.02 26.4201 107.825C27.804 106.628 29.0967 105.223 30.3626 103.542C31.0116 105.529 31.8484 107.349 33.3664 107.758C33.5219 107.8 33.6828 107.825 33.8384 107.828C35.2411 107.867 36.279 106.375 36.9763 105.092C37.0353 105.195 37.0916 105.301 37.1506 105.41C38.1295 107.196 39.2372 109.219 40.7418 109.717C41.0555 109.82 41.372 109.879 41.6804 109.884C43.2789 109.932 44.534 108.721 45.5586 107.452C45.7731 107.903 45.9528 108.412 46.1405 108.944C46.7279 110.602 47.3957 112.486 49.3643 112.542C49.5654 112.548 49.7773 112.534 49.9999 112.503C51.955 112.214 53.1458 110.78 53.9665 109.445C54.0014 109.537 54.0389 109.631 54.0738 109.726C54.9132 111.894 55.9538 114.59 58.0243 114.649C58.3193 114.657 58.6277 114.61 58.9442 114.509C60.7599 113.928 61.9426 112.575 62.9752 111.098C64.9813 107.739 65.3353 106.37 64.7775 105.905C64.6219 105.824 64.4556 105.771 64.2759 105.766C63.8763 105.755 63.4901 105.941 63.2166 106.281C63.0932 106.436 62.9001 106.731 62.6346 107.135C61.653 108.635 59.612 111.754 58.2335 111.715C57.85 111.704 57.5415 111.432 57.2868 110.883C57.0212 110.31 56.7933 109.709 56.5734 109.13C56.1496 108.017 55.7178 106.865 55.0017 105.858C54.7845 105.552 54.4895 105.385 54.1462 105.376C53.6473 105.362 53.1244 105.699 52.8723 106.197C52.014 107.9 50.6891 109.609 49.67 109.578C49.0987 109.562 48.6321 108.98 48.2781 107.847C47.8489 106.47 47.4306 105.332 46.331 104.291C45.8643 103.851 44.9819 104.024 44.5689 104.572C44.534 104.619 44.4831 104.689 44.4214 104.778C43.9038 105.51 42.1498 108 41.4096 107.079C40.9483 106.506 40.5862 105.93 40.1812 105.24C39.5429 104.146 38.7625 102.863 37.8131 101.67C37.5797 101.375 37.2767 101.213 36.9387 101.205C36.4453 101.191 35.9437 101.516 35.6916 102.02C35.6246 102.151 35.5575 102.293 35.4824 102.44C35.0614 103.3 34.4257 104.597 33.9215 104.583C33.6936 104.578 33.4388 104.244 33.2054 103.651C32.8809 102.81 32.5698 101.967 32.2587 101.121L31.9181 100.206C31.7491 99.755 31.3334 99.4683 30.8319 99.4544C30.3894 99.4405 29.9871 99.6437 29.7565 99.9915C28.63 101.697 27.576 103.058 26.4711 104.235C26.4603 103.295 26.581 102.329 26.7017 101.394C26.809 100.52 26.9243 99.613 26.9323 98.7281C26.935 97.9628 26.4147 97.3729 25.7201 97.3506C25.4331 97.3423 25.1515 97.4369 24.8967 97.6178C24.4435 97.9461 23.7971 98.7309 23.0516 99.6409C21.6543 101.344 19.6589 103.74 18.7577 103.086C18.6451 103.005 18.5298 102.947 18.4064 102.908C18.5217 102.36 18.6183 101.803 18.7095 101.26C18.9187 100.053 19.1305 98.806 19.5811 97.654C19.734 97.2588 19.7071 96.8636 19.5006 96.5353C19.27 96.1707 18.8516 95.9397 18.4091 95.9258C17.8781 95.9119 17.4409 96.2125 17.2397 96.7301C16.934 97.5092 16.7355 98.3246 16.5746 99.1372C16.706 98.3274 16.8723 97.4146 17.0869 96.5019C17.5535 94.5372 18.6826 92.7061 19.7769 90.9363C20.6271 89.556 21.5067 88.1312 22.0834 86.6313C22.2282 86.2584 22.1826 85.841 21.96 85.4931C21.5416 84.8336 20.6351 84.6555 20.1014 85.1842C20.0638 85.2232 20.0236 85.2593 19.9807 85.2955C20.5734 81.8254 21.7669 78.4693 23.6148 75.0548C23.8159 74.6847 23.8695 74.309 23.7703 73.964C23.6684 73.6133 23.4217 73.3183 23.0703 73.1375C22.8343 72.5642 25.6691 68.095 28.1875 64.7807C28.3404 67.0487 29.3917 69.5421 31.0706 71.5735C35.0587 76.3906 41.0019 78.8923 45.7329 80.5286C46.7252 80.8709 47.7417 81.1965 48.726 81.5109C50.311 82.0174 51.9523 82.5378 53.524 83.1555L53.6473 83.2029C55.7849 84.0405 58.0028 84.9031 60.3174 84.8113C60.4837 85.1842 60.666 85.5571 60.8484 85.93C61.484 87.2212 62.1411 88.5597 62.0177 89.8983C61.9856 90.2378 62.1062 90.594 62.353 90.8834C62.7499 91.3481 63.3614 91.4817 63.8173 91.1812C64.8499 90.5077 65.9951 89.9345 67.2047 89.3278C69.8357 88.0115 72.5552 86.6507 74.1804 84.1017C74.9555 84.0071 75.7386 83.982 76.4976 83.9598C78.4957 83.8986 80.5635 83.8318 82.4033 82.4543C84.345 83.4867 86.614 84.1935 88.9848 84.5052C90.535 87.5607 92.1442 91.0977 92.0637 94.9602ZM75.6314 81.5165C75.913 80.9237 76.1677 80.3199 76.385 79.716C77.1038 79.7021 77.7421 79.5574 78.2865 79.2847C78.8229 79.8802 79.4076 80.434 80.0298 80.9265C78.7666 81.4942 77.3505 81.5026 75.8593 81.5137L75.6314 81.5165ZM96.5399 53.605C95.2767 54.6151 94.1878 55.9648 93.1338 57.2755C90.9936 59.9331 88.9634 62.4515 85.6914 62.2066L85.6297 62.2038C85.4151 62.1983 85.222 62.2595 85.045 62.3513C84.3745 62.2984 83.7041 62.2456 83.0363 62.1676C82.3443 62.0869 81.7435 62.7799 81.7275 63.4533C81.7087 64.2214 82.2773 64.7306 82.9665 64.8113C83.2535 64.8447 83.5405 64.8642 83.8274 64.8892C89.2772 65.7769 92.3292 73.6217 94.5767 79.4516C94.8851 80.2559 96.1725 82.1259 96.4595 82.8411C95.0648 83.1222 92.6243 82.1426 91.1572 82.1009C85.3025 81.9339 78.206 78.9925 77.4685 71.2396C77.4095 70.6135 76.9884 70.196 76.3904 70.1793C76.1302 70.171 75.8647 70.2433 75.634 70.3825C75.2505 70.4075 74.9019 70.5856 74.6927 70.8695C74.5505 71.0643 74.4057 71.3954 74.521 71.8741C75.2827 75.0437 74.6417 78.8923 72.885 81.7085C72.8797 81.7113 72.8716 81.7113 72.8663 81.7141C72.3889 82.6658 71.7157 83.4895 70.8467 84.0349C69.3904 85.2482 67.7089 86.1415 66.0729 86.9958C65.507 87.2908 64.9384 87.5858 64.3805 87.8974C64.2465 87.3576 64.0346 86.8344 63.7396 86.3085C62.6319 84.3299 61.9319 82.4793 62.1223 79.883C62.1518 79.4628 62.1706 78.9758 62.1921 78.4387C62.2859 76.1457 62.412 73.0095 63.5545 71.1728C64.0185 70.8277 64.4664 70.4103 64.8928 69.9372L64.9169 69.9261C65.0081 69.8816 65.0993 69.8343 65.2039 69.8037C65.5767 69.6868 65.869 69.4252 66.0246 69.0634C66.1828 68.6905 66.1828 68.2342 66.0246 67.864C65.9307 67.2546 65.3702 66.7481 64.756 66.7314C64.3618 66.7203 64.0104 66.9123 63.7691 67.2713C63.6216 67.4856 63.4714 67.6887 63.3104 67.8863C62.7365 68.2369 62.2511 68.6738 61.838 69.2221C60.7706 69.9261 59.5047 70.2656 58.0726 70.2266C53.4247 70.0958 47.8141 66.0524 44.5448 63.6091C47.1624 63.2474 49.8336 61.5916 52.4217 59.9831C53.5508 59.2819 54.7174 58.5583 55.8573 57.9573C55.868 57.9573 55.8814 57.9573 55.8921 57.96C56.2971 57.9712 56.6351 57.7959 56.855 57.4647C59.1561 56.3933 60.953 56.1234 62.6212 56.577C63.3104 57.2977 64.1821 57.8599 65.22 58.2467C65.3541 58.2968 65.4909 58.3246 65.6303 58.3302H65.6518C66.2445 58.6335 66.9552 58.2717 67.2181 57.5732C67.4246 57.0167 67.2878 56.4323 66.8587 56.0483C65.9763 55.2524 65.0484 54.6513 64.1016 54.2561C61.2373 49.812 67.3817 38.6947 70.0153 34.0391C70.7341 35.8145 71.8793 37.409 72.9896 38.9535C73.2551 39.3208 73.5207 39.6909 73.7808 40.0638C75.2827 42.215 77.4444 46.9429 76.8517 50.4827C76.6156 51.8852 75.9693 52.9733 74.9314 53.7107C74.5049 54.0112 74.3333 54.4788 74.4674 54.9602C74.631 55.5307 75.162 55.9564 75.736 55.9731C76.0042 55.9815 76.267 55.898 76.503 55.731C76.613 55.6503 76.7176 55.5613 76.8222 55.4694C77.2969 55.5808 77.734 55.3665 77.9781 54.8878C79.3164 52.2998 82.0654 51.0448 86.15 51.1617C90.3124 51.2841 94.5821 52.8091 96.5399 53.605ZM87.7163 45.9272C85.9542 46.9068 84.219 47.9447 82.7493 48.8297C81.4029 49.0606 80.2122 49.4642 79.2064 50.0263C79.2788 49.2777 79.2949 48.4763 79.2574 47.6386C80.6279 46.7899 82.0439 45.9662 83.4171 45.1703C84.8922 44.3132 86.4155 43.4255 87.8879 42.5071C90.1703 41.0823 92.4633 39.5963 94.6867 38.1576C96.1242 37.2254 97.5671 36.2931 99.0127 35.372C99.6805 34.9463 100.372 34.5344 100.984 34.1782C101.067 34.3368 101.15 34.4955 101.233 34.6541C101.587 35.3359 101.955 36.0371 102.384 36.6967C97.7012 40.2865 92.5733 43.2251 87.7163 45.9272ZM104.524 34.9713L104.355 35.1077C103.993 34.5455 103.685 33.9389 103.382 33.3489C103.304 33.1987 103.226 33.0484 103.148 32.8953C103.792 32.5113 104.468 32.0995 105.141 31.6514C105.144 31.9687 105.149 32.2831 105.154 32.5976C105.165 33.2098 105.176 33.8192 105.17 34.4314C104.959 34.6179 104.741 34.7932 104.524 34.9713ZM107.678 34.1782C107.678 33.6857 107.67 33.1931 107.659 32.7005C107.646 32.041 107.635 31.362 107.646 30.6914C108.129 31.1004 108.601 31.5679 109.075 32.1106C108.724 32.6811 108.231 33.4519 107.678 34.1782ZM123.381 52.6449C122.82 52.9566 122.246 53.2766 121.689 53.6244C119.219 50.5133 116.942 47.1656 114.737 43.9292C112.994 41.3662 111.191 38.717 109.298 36.1957C109.773 35.6086 110.245 34.9602 110.709 34.2561C111.288 35.1105 122.311 49.2081 123.85 52.3861C123.692 52.4724 123.539 52.5586 123.381 52.6449Z" fill="#FF5B0D"/>
<path d="M82.8192 56.0764C82.6529 56.0708 82.4866 56.1014 82.3203 56.1626C80.7138 56.7749 79.1717 57.5874 77.6779 58.375C77.3936 58.5252 77.112 58.6727 76.825 58.823C75.7656 57.529 74.0948 56.8695 72.381 57.0698C72.2576 56.4354 72.1074 55.8064 71.9626 55.1942C71.7427 54.2592 71.512 53.2964 71.386 52.3279C71.3002 51.7074 70.863 51.2955 70.2622 51.2788C69.8599 51.2677 69.463 51.4402 69.2082 51.738C68.9669 52.0163 68.8649 52.3753 68.9186 52.7732C69.05 53.7527 69.2806 54.7212 69.5006 55.659C69.6668 56.3574 69.8358 57.0782 69.9645 57.7962C68.5243 58.4891 67.3764 59.5799 66.714 60.8767C66.6228 61.0576 66.5397 61.2524 66.4673 61.4583C63.7504 60.8545 61.3769 61.8145 59.4727 64.2912C59.1831 64.6669 59.1214 65.1149 59.3037 65.5184C59.5103 65.9804 59.9903 66.3004 60.4945 66.3143C60.8861 66.3254 61.2428 66.1473 61.4976 65.8162C62.8198 64.0964 64.3163 63.5426 66.2152 64.0714C66.4217 65.5991 67.1941 66.8931 68.35 67.6361C68.7121 67.8699 69.1197 68.0703 69.5596 68.2344C69.4764 68.5823 69.3906 68.9302 69.3101 69.278C68.9427 70.828 68.5619 72.4309 67.9558 73.9281C67.8002 74.3204 67.8243 74.7156 68.0255 75.044C68.2508 75.4085 68.6692 75.6395 69.117 75.6534C69.6454 75.6673 70.0852 75.3696 70.2917 74.8575C70.9059 73.3325 71.2894 71.7157 71.6622 70.1518C71.7775 69.6704 71.8902 69.1862 72.0136 68.7047C73.7783 68.752 75.4465 68.2066 76.6212 67.2076C78.41 68.0981 80.1292 69.022 81.5506 70.3939C81.7678 70.5998 82.0146 70.7139 82.264 70.7223C82.7199 70.7362 83.1598 70.3967 83.3636 69.8791C83.5862 69.3142 83.4628 68.7159 83.0471 68.3124C81.9341 67.241 80.6629 66.434 79.3863 65.7411C79.0832 65.7021 78.8418 65.5657 78.6434 65.3765C79.2414 63.974 79.0886 62.2737 78.3644 60.9212C78.5066 60.8461 78.646 60.7737 78.7909 60.6986C80.2552 59.9278 81.7732 59.1291 83.3395 58.5336C83.8812 58.3277 84.1601 57.8435 84.0716 57.273C83.9939 56.7081 83.5192 56.0959 82.8192 56.0764Z" fill="#FF5B0D"/>
<path d="M69.2376 119.589C68.8488 121.289 68.1005 122.806 67.1752 124.258C64.8339 127.943 62.6507 122.667 62.1734 120.713C61.8998 119.589 60.4515 119.375 59.8535 120.332C58.3516 122.728 55.6187 126.874 54.2133 121.665C53.7708 120.026 51.2927 120.649 51.7379 122.299C52.3654 124.631 53.2371 127.041 55.8547 127.272C57.6757 127.434 59.3063 125.714 60.54 123.991C61.527 126.476 63.2193 129.12 65.7565 128.474C69.0365 127.637 70.9648 123.507 71.6809 120.365C72.0537 118.707 69.6158 117.927 69.2376 119.589Z" fill="#FF5B0D"/>
<path d="M81.4351 108C80.8612 108.921 79.5711 111.528 78.2033 110.702C76.857 109.887 75.8459 108.145 74.8214 106.959C73.7191 105.687 71.8712 107.507 72.9681 108.779C74.3976 110.432 75.744 112.678 77.8654 113.435C80.4347 114.35 82.4569 111.233 83.5994 109.4C84.4952 107.961 82.3255 106.569 81.4351 108Z" fill="#FF5B0D"/>
</svg>
