<svg width="184" height="179" viewBox="0 0 184 179" fill="none" xmlns="http://www.w3.org/2000/svg">
<path d="M10.2571 64.1535C10.2482 60.3492 16.2454 55.6748 18.7047 54.6272C28.0002 50.6631 38.1435 51.1203 47.7985 48.741C48.2291 48.6389 48.5754 48.7232 48.8329 48.923C52.362 47.1695 56.8144 47.4314 60.3212 49.0828C60.7208 49.2692 60.9339 49.5533 61.0093 49.864C61.7595 49.5799 62.523 49.3136 63.291 49.0739C58.3902 46.9609 49.5165 43.1299 46.3736 39.37C36.3279 40.1824 26.6862 43.9245 16.4629 44.0044C15.9436 44.0044 15.18 43.9778 14.3233 43.8935C14.1901 44.0666 14.0081 44.2175 13.7551 44.3152C9.73326 45.8911 6.59924 48.9807 2.85707 51.067C1.77837 51.6708 0.300171 50.7252 0.872803 49.429C2.63513 45.4294 6.07988 42.6461 8.72113 39.2812C8.85875 39.1037 9.01413 38.9838 9.17838 38.9084C9.24052 38.824 9.30267 38.7441 9.3737 38.6598C14.239 32.9378 22.1539 31.2154 29.3496 30.736C36.8206 30.2343 45.0685 30.3764 52.14 33.3151C54.7635 33.8078 57.4669 35.2372 59.5133 36.3337C65.3774 39.4677 71.0372 44.3063 77.363 46.4016C77.6737 46.5081 77.8823 46.6768 78.0111 46.8854C78.6148 46.8721 79.2229 46.8765 79.8267 46.8765C71.5699 42.3043 59.6199 34.8599 61.6397 29.1068C61.6352 29.1024 61.6352 29.0935 61.6308 29.0891C61.6219 29.058 61.6086 29.0269 61.5997 28.9958C61.3334 28.2945 61.2091 27.5798 61.1869 26.8562C61.2757 26.7852 61.3733 26.723 61.4621 26.652C61.4932 24.7565 61.8039 22.8077 62.2478 20.8945C61.7906 20.3707 61.653 19.545 62.2878 18.9191C62.4875 18.7193 62.6962 18.524 62.9092 18.3464C63.2466 17.1612 63.6062 16.0026 63.9569 14.9061C65.0356 11.5191 66.9977 5.70387 71.1793 5.15786C71.3657 5.13123 71.53 5.14011 71.6987 5.13567C77.6559 1.97947 84.7718 -1.80709 91.4926 0.958471C92.6024 1.4157 92.8776 2.92943 91.7323 3.55978C86.5741 6.38749 80.6568 7.51947 75.6983 10.7423C75.6406 10.7822 75.5829 10.8044 75.5207 10.8355C75.5962 12.9662 75.3121 15.4655 74.8859 17.9114C75.0102 18.4041 74.9037 18.9413 74.624 19.3053C73.9404 22.7411 73.0393 25.9107 72.5421 27.5842C75.3698 29.169 78.0155 31.3397 79.658 32.5693C84.4522 36.1517 92.5447 41.8559 94.5112 47.9819C95.4612 48.0973 96.4333 48.1994 97.4188 48.297C97.8894 48.084 98.4975 48.1417 98.937 48.448C99.1146 48.4657 99.2966 48.4835 99.4786 48.5012C92.1008 42.615 81.5357 33.2663 84.4877 27.9216C83.3469 22.7989 88.9623 17.8715 93.3349 16.4776C93.983 16.2689 94.6666 16.1757 95.3191 16.2112C95.5544 15.9094 95.914 15.7007 96.3934 15.6874C101.241 15.5498 107.491 18.0179 111.362 20.8279C112.174 21.4227 112.272 22.79 111.256 23.2694C106.914 25.3069 102.253 24.6189 98.0092 22.821C97.9959 22.861 97.9781 22.9054 97.9648 22.9453C97.3078 24.7609 96.3668 26.4789 95.3502 28.1302C97.9293 30.1811 100.233 32.8357 101.676 34.345C105.68 38.5532 112.419 45.243 113.648 51.4533C118.345 53.3354 122.766 55.8435 126.189 59.5812C132.199 60.2782 139.226 64.8549 143.745 67.6382C145.521 68.7347 148.602 70.4348 151.141 72.5345C152.544 71.1984 154.026 69.9199 155.664 68.8989C155.7 68.8723 155.74 68.8501 155.775 68.8279C153.134 65.0502 151.496 60.6333 152.584 55.9634C152.837 54.8669 154.199 54.676 154.945 55.3552C158.501 58.5558 162.212 64.158 163.086 68.9255C163.175 69.4005 163.042 69.7912 162.798 70.0842C162.967 70.7189 163.015 71.4026 162.949 72.0818C162.492 76.6496 158.838 83.1662 153.591 83.1129C149.649 86.531 140.793 80.8978 133.748 75.4466C134.463 77.0713 135.173 78.7093 135.875 80.3562C135.924 80.4317 135.95 80.5116 135.977 80.5959C142.271 80.6625 150.067 85.8297 154.936 88.866C156.672 89.9491 159.659 91.6315 162.163 93.6869C163.544 92.6126 166.167 90.6283 169.119 88.7417C169.359 88.3466 169.821 88.0536 170.322 87.9915C172.444 86.7042 174.668 85.5322 176.683 84.8308C176.688 84.7643 176.688 84.7021 176.706 84.6311C177.904 78.8425 176.812 72.9163 177.576 67.0833C177.744 65.7827 179.254 65.4897 180.084 66.3597C185.1 71.6156 184.154 79.6238 183.378 86.3179C183.435 86.4822 183.502 86.6331 183.546 86.8107C184.554 90.9035 179.853 94.841 177.087 97.0783C176.191 97.8019 175.241 98.5565 174.26 99.3023C174.166 99.5642 174.064 99.8261 173.953 100.088C173.598 100.909 172.781 101.078 172.124 100.843C170.5 101.948 168.8 102.947 167.042 103.666C167.011 103.777 166.988 103.888 166.953 103.994C166.274 104.239 165.559 104.385 164.809 104.39C164.778 104.394 164.747 104.394 164.711 104.394C164.707 104.394 164.698 104.394 164.693 104.394C159.864 108.536 147.803 99.1736 140.611 93.1275C140.678 93.3584 140.74 93.5892 140.807 93.8156C140.94 93.8999 141.069 94.0154 141.188 94.1752C145.374 99.8972 152.109 103.999 157.191 108.9C158.967 110.609 161.297 112.873 162.656 115.376C167.938 121.569 170.788 129.91 172.737 137.687C174.61 145.176 175.476 153.819 171.312 160.722C171.25 160.824 171.188 160.913 171.126 161.006C171.099 161.197 171.028 161.401 170.895 161.596C168.369 165.436 166.695 169.893 163.246 173.049C162.128 174.075 160.689 172.894 160.942 171.589C161.817 167.07 163.903 162.826 164.17 158.196C164.187 157.903 164.276 157.668 164.409 157.472C164.041 156.629 163.761 155.861 163.597 155.328C160.321 144.896 160.925 133.807 158.443 123.305C155.633 122.186 152.162 119.096 149.01 115.869C149.041 116.215 149.081 116.562 149.081 116.908C149.37 117.05 149.605 117.321 149.698 117.756C151.842 127.464 156.743 136.355 157.302 146.446C157.453 149.113 155.913 156.558 152.499 158.236C148.096 165.725 143.736 173.062 136.128 177.75C135.049 178.412 133.779 177.47 133.984 176.263C135.418 167.815 141.193 160.624 146.302 154.005C145.028 150.143 145.104 144.803 144.922 142.144C144.482 135.681 145.184 128.734 144.158 122.306C142.96 121.999 141.899 121.227 140.966 120.33C141.037 120.499 141.077 120.694 141.073 120.912C140.98 126.581 142.8 138.846 141.721 144.532C140.749 149.637 135.506 153.038 130.801 154.17C130.206 154.312 129.62 154.378 129.043 154.387C118.895 172.867 87.9724 186.624 69.4525 172.694C68.5735 174.035 66.4117 172.561 67.1752 171.003C71.6054 161.987 80.821 157.863 88.9623 152.793C86.0902 151.191 83.5022 149.375 81.3937 147.507C80.8166 146.996 80.9586 145.988 81.4824 145.509C86.5697 140.906 94.2671 140.2 100.819 140.013C107.407 139.827 115.06 140.524 120.986 143.769C121.457 138.921 123.223 132.977 124.644 130.154C118.194 130.705 111.074 129.173 105.169 126.936C98.8837 124.556 92.8377 121.445 87.0624 117.858C86.6274 118.355 86.2101 118.87 85.8017 119.389C90.1742 122.887 85.3489 129.546 79.8577 128.259C76.7504 127.531 74.9658 123.917 76.1422 121.045C77.3718 118.049 80.8388 116.69 83.8529 117.356C84.1237 117.014 84.3945 116.673 84.6697 116.331C80.6834 113.734 76.8347 110.919 73.1325 107.972C72.3734 108.731 71.601 109.481 70.7842 110.183C71.7386 111.235 72.0671 112.731 71.5966 114.284C70.8419 116.752 68.4049 118.058 65.9456 117.614C62.8515 117.05 60.9738 113.539 61.7817 110.649C62.6429 107.55 66.2297 106.565 68.9287 107.768C69.013 107.803 69.0885 107.852 69.1639 107.901C69.7765 107.359 70.3669 106.778 70.944 106.196C69.5102 105.015 68.0941 103.812 66.7091 102.601C59.9217 96.6655 51.1723 88.0625 47.4701 78.5584C43.6302 80.6448 39.8082 81.6436 36.3901 81.7412C39.4086 87.1125 40.5894 93.86 40.9801 99.8084C41.4062 106.347 41.4151 114.08 37.3089 119.571C36.8872 120.139 35.8929 120.37 35.3336 119.846C33.2738 117.924 31.2229 115.509 29.363 112.806C25.0792 121.382 21.8298 130.944 13.2623 136.191C11.7841 137.097 10.115 135.086 11.3669 134.087C-4.1922 116.979 6.54599 85.0128 23.9339 73.1294C23.8718 72.4591 23.8718 71.7621 23.9606 71.0297C25.0304 62.0849 39.5019 61.6055 47.1948 62.1737C47.8518 60.5756 48.6997 59.1462 49.6852 57.85C48.3534 57.4061 47.0572 56.7624 46.1783 55.737C39.9591 57.6636 34.0373 61.3746 28.0445 63.8383C25.5808 64.8505 20.8266 67.2831 16.7959 67.8468C13.1247 75.3578 9.23164 83.7211 2.28888 88.7417C1.29453 89.4608 -0.112671 88.7373 0.00718689 87.481C0.846176 78.5717 5.49393 71.4159 10.2571 64.1535ZM9.44472 42.5484C8.73001 43.3475 7.98869 44.1376 7.26068 44.9411C8.25948 44.253 9.28047 43.6005 10.3414 43.0101C10.0174 42.8725 9.71106 42.7215 9.44472 42.5484ZM32.0175 33.2352C26.1846 33.5193 19.2773 34.0608 14.4609 37.6698C13.6974 38.2425 9.72881 40.7639 12.4367 41.1501C13.6885 41.3277 14.9403 41.3898 16.201 41.3587C18.4605 41.2966 20.7378 41.1767 22.9795 40.9237C30.4372 40.0847 37.7751 37.5944 45.2372 36.8131C45.2372 36.1517 45.4858 35.508 46.0717 34.891C46.2759 34.6779 46.489 34.4914 46.711 34.3183C41.9212 33.1597 36.7541 33.0043 32.0175 33.2352ZM75.0679 7.83464C78.6725 5.65948 82.7121 4.44317 86.5874 2.85397C82.4724 2.8007 78.3307 4.80717 74.6107 6.77813C74.7927 7.09775 74.9436 7.444 75.0679 7.83464ZM98.533 18.6927C98.644 19.1277 98.6707 19.5761 98.6485 20.0289C101.334 21.254 104.33 22.0176 107.211 21.5737C104.575 20.1531 101.41 19.0123 98.5197 18.6394C98.5242 18.6572 98.5286 18.6749 98.533 18.6927ZM180.106 71.6023C180.026 75.7928 180.363 79.9967 179.644 84.1472C180.053 84.1206 180.434 84.1384 180.794 84.1872C181.282 80.0055 181.646 75.4155 180.106 71.6023ZM174.863 95.2894C177.278 93.4871 180.017 91.2231 180.759 88.5774C180.838 88.2845 180.838 88.0581 180.794 87.8716C180.696 87.7651 180.621 87.6408 180.568 87.4987C179.498 86.6908 175.392 88.5908 172.892 89.9047C174.087 91.5383 174.761 93.3717 174.863 95.2894ZM167.375 161.956C167.113 161.747 166.86 161.485 166.616 161.201C166.371 162.484 166.047 163.745 165.683 164.997C166.247 163.98 166.802 162.959 167.375 161.956ZM164.574 147.626C165.057 149.997 165.683 152.35 166.363 154.671C166.744 155.972 167.215 157.219 167.805 158.436C169.084 161.059 170.318 156.158 170.646 155.186C172.697 149.051 170.975 141.833 169.35 135.801C168.027 130.9 166.176 125.693 163.437 121.214C163.335 121.498 163.22 121.777 163.069 122.062C162.638 122.87 162.074 123.34 161.408 123.571C163.069 131.433 162.971 139.751 164.574 147.626ZM150.985 155.39C151.176 155.213 151.394 155.102 151.62 155.053C151.767 154.942 151.918 154.809 152.086 154.64C154.99 151.657 154.679 147.116 154.19 143.316C153.209 135.672 149.756 128.68 147.709 121.325C147.483 121.564 147.234 121.773 146.955 121.946C148.513 132.161 146.471 142.823 149.268 152.936C149.658 154.352 150.067 155.608 150.985 155.39ZM137.704 173.151C142.689 169.081 146.031 163.674 149.312 158.103C149.263 158.076 149.219 158.063 149.17 158.036C148.611 157.739 148.136 157.304 147.718 156.775C143.865 161.76 139.728 167.118 137.704 173.151ZM150.719 113.414C151.469 114.204 155.629 118.541 158.434 120.064C159.065 119.593 160.121 119.638 160.583 120.432C160.729 120.326 160.854 120.175 160.929 119.949C161.187 119.212 161.124 118.408 160.831 117.565C160.72 117.432 160.614 117.294 160.503 117.161C160.223 116.832 160.13 116.473 160.161 116.135C158.044 112.549 152.912 108.682 151.074 107.053C148.251 104.545 144.966 102.192 142.169 99.4843C142.498 101.278 142.729 103.071 142.849 104.878C145.654 107.51 148.06 110.626 150.719 113.414ZM146.2 118.066C146.675 115.074 145.237 111.812 143.079 109.703C143.115 110.085 143.017 110.48 142.791 110.782C142.631 112.544 142.338 114.311 141.894 116.078C141.823 116.357 141.739 116.619 141.659 116.886C142.977 118.448 145.694 121.267 146.2 118.066ZM82.3259 119.993C82.2726 119.993 82.2149 119.997 82.1616 120.002C82.2238 120.028 82.2859 120.06 82.3436 120.086C82.3392 120.055 82.3259 120.024 82.3259 119.993ZM82.6277 124.969C82.7343 122.776 80.3238 121.804 78.566 122.714C78.3928 124.095 79.7468 125.449 81.1229 125.631C81.66 125.702 82.1838 125.604 82.6721 125.395C82.6411 125.267 82.6189 125.125 82.6277 124.969ZM64.4185 112.482C64.5872 113.561 65.5017 114.497 66.5582 114.844C66.8956 114.955 67.2329 114.937 67.5392 114.835C67.5348 114.657 67.5703 114.466 67.6546 114.258C68.507 112.264 65.7947 111.736 64.4185 112.482ZM30.3529 109.219C30.4594 109.335 30.5393 109.459 30.5926 109.605C32.2439 112.229 34.0906 114.586 35.9328 116.486C38.8138 111.448 38.6496 104.443 38.0725 98.9561C37.451 93.0698 36.3856 86.46 32.9187 81.4882C31.4227 81.2352 30.051 80.7868 28.8569 80.1609C21.3992 87.6586 24.6575 99.9948 30.3529 109.219ZM24.7152 76.0148C9.0452 87.6186 -0.689743 116.744 13.6752 132.422C20.72 126.856 23.49 117.849 27.6051 110.045C21.6078 99.9815 18.6514 86.9572 26.5441 78.5185C25.7762 77.7904 25.1591 76.9514 24.7152 76.0148ZM46.2892 64.8993C40.1411 64.4642 28.3908 64.1091 26.8593 70.6967C25.0881 78.3142 36.5987 81.1997 46.5778 75.8594C45.5746 72.2771 45.357 68.5926 46.2892 64.8993ZM62.9714 41.2877C60.9738 40.1113 56.0109 36.6355 52.1933 35.7788C51.9047 35.9031 51.5629 35.9253 51.1856 35.7655C51.0347 35.7033 50.8837 35.65 50.7328 35.5879C49.8983 35.5701 49.1613 35.7477 48.5887 36.1916C48.4156 36.3248 48.3135 36.4757 48.2691 36.64C49.1081 36.822 49.4632 37.7586 49.2368 38.4556C51.4297 40.5242 56.5214 42.9968 57.4447 43.4407C60.7163 45.0165 64.1966 46.2684 67.3794 48.0218C69.1329 47.6578 70.8819 47.3959 72.6042 47.2095C69.2749 45.4738 66.1232 43.1388 62.9714 41.2877ZM64.3697 24.9341C64.3742 24.9341 64.383 24.9296 64.3875 24.9296C64.3741 24.9651 64.3697 25.0006 64.3564 25.0362C64.312 25.4312 64.2809 25.8174 64.2632 26.2081C65.8968 25.3647 67.8455 25.56 69.8431 26.2969C69.9053 26.1504 69.9674 25.995 70.0296 25.8441C70.0473 25.853 70.0695 25.8618 70.0873 25.8707C70.7176 23.6201 71.2503 21.3428 71.712 19.0522C69.4747 18.3997 67.3395 18.666 65.4262 19.9978C64.9912 21.5737 64.5739 23.2694 64.3697 24.9341ZM71.6054 8.19421C71.4545 8.19421 71.3125 8.16757 71.1749 8.11874C70.984 8.14538 70.7753 8.22528 70.5312 8.40728C68.3338 10.0586 67.2196 13.4279 66.4161 16.34C68.2406 15.7362 70.1982 15.7007 72.147 16.2201C72.4666 13.4102 72.7463 8.90002 71.6054 8.19421ZM81.1051 37.3147C78.5882 35.2017 75.938 33.2529 73.1724 31.4817C72.5732 31.0955 71.7209 30.5229 70.7753 29.9769C70.0828 30.15 69.2705 29.7549 69.0219 29.0802C67.8278 28.5608 66.6292 28.2678 65.6926 28.5564C65.1998 28.7117 64.8625 28.9292 64.6449 29.1867C64.6449 29.4753 64.5295 29.7283 64.3475 29.9325C64.1211 33.1375 73.8871 39.956 74.9925 40.6707C78.6414 43.0323 82.5034 44.9988 86.2767 47.134C87.9502 47.2583 89.6193 47.4137 91.284 47.5957C89.1798 43.5339 84.2702 39.9737 81.1051 37.3147ZM95.5677 21.5426C95.0483 20.9788 95.2703 20.1487 95.8252 19.6648C95.8207 19.6382 95.8296 19.6071 95.8252 19.5805C95.8074 19.4207 95.7675 19.2698 95.7187 19.1144C95.7586 19.2476 95.6609 19.0789 95.6876 19.11C95.6787 19.1011 95.6787 19.0966 95.6743 19.0922C95.6521 19.0833 95.6254 19.0656 95.5855 19.0434C95.5766 19.0389 95.5766 19.0345 95.5722 19.0345C95.55 19.0301 95.4923 19.0212 95.3591 18.9901C95.6387 19.0567 94.711 19.0345 94.7909 19.0212C94.4668 19.07 93.8764 19.2387 93.7344 19.292C91.8744 20.0022 90.1254 21.3073 88.8647 22.8432C88.1633 23.6955 87.6084 24.6056 87.3509 25.5555C89.1577 24.8852 91.1242 25.4179 93.0374 26.5188C94.0185 24.9918 95.0839 23.1717 95.5677 21.5426ZM102.311 39.2635C100.184 36.7598 97.8894 34.3938 95.4612 32.1831C94.9329 31.7037 94.1916 30.9979 93.3482 30.3009C92.6335 30.3542 91.901 29.8304 91.7679 29.1246C90.6758 28.4143 89.5439 27.9216 88.5717 28.0503C88.0612 28.1213 87.6927 28.2767 87.4353 28.4987C87.3865 28.7828 87.2311 29.0136 87.0136 29.1823C86.2545 32.3074 94.7465 40.6618 95.7187 41.5496C98.6751 44.2575 101.862 46.659 104.979 49.1627C106.008 49.3225 107.034 49.5045 108.028 49.7309C108.277 49.6421 108.57 49.6332 108.894 49.7398C109.364 49.8907 109.835 50.046 110.301 50.2059C108.654 46.153 104.801 42.1977 102.311 39.2635ZM155.074 59.5502C155.238 62.4622 156.605 65.2322 158.363 67.6071C158.803 67.4917 159.247 67.4207 159.691 67.4384C159.708 67.4384 159.726 67.4429 159.748 67.4429C158.785 64.6906 157.014 61.8319 155.074 59.5502ZM155.309 79.8013C156.184 79.3486 156.96 78.6161 157.649 77.7549C158.887 76.2012 159.802 74.2214 160.108 72.2549C160.13 72.1039 160.174 71.4913 160.157 71.1673C160.161 71.2472 159.948 70.3461 160.068 70.6035C160.01 70.4792 159.988 70.4215 159.979 70.4038C159.975 70.4038 159.975 70.3993 159.966 70.3949C159.935 70.3594 159.912 70.3372 159.899 70.3194C159.89 70.315 159.89 70.3194 159.881 70.315C159.921 70.3372 159.735 70.275 159.873 70.2839C159.713 70.2706 159.553 70.2617 159.393 70.275C159.366 70.2795 159.335 70.2883 159.309 70.2928C158.954 70.9365 158.186 71.3227 157.524 70.932C156.033 71.7488 154.475 73.1693 153.183 74.4433C154.661 76.0814 155.584 77.897 155.309 79.8013ZM137.921 74.9494C138.995 75.7129 148.93 82.2828 151.829 80.8889C151.949 80.6448 152.144 80.445 152.41 80.3385C152.575 80.0411 152.65 79.646 152.615 79.1355C152.544 78.1544 151.824 77.1512 150.901 76.2323C150.182 76.2501 149.516 75.6419 149.423 74.9316C148.566 74.2569 147.723 73.6754 147.141 73.2581C144.473 71.336 141.686 69.587 138.791 68.0289C135.972 66.5062 132.261 64.2068 128.612 63.0349C129.425 65.2455 130.335 67.4784 131.294 69.7335C133.455 71.5224 135.626 73.3114 137.921 74.9494ZM166.451 100.878C166.806 100.723 167.157 100.554 167.503 100.368C167.534 100.345 167.565 100.323 167.592 100.301C167.592 100.31 167.592 100.314 167.597 100.323C169.079 99.5287 170.504 98.5255 171.818 97.5489C172.36 95.2805 171.836 93.1986 170.415 91.3475C168.449 92.6126 166.518 93.931 164.649 95.3382C164.662 95.3515 164.68 95.3648 164.693 95.3826C164.574 95.4936 164.449 95.609 164.338 95.72C165.75 97.3092 166.642 99.0537 166.451 100.878ZM149.077 96.1417C150.146 96.9096 160.046 103.537 162.949 102.161C163.069 101.917 163.264 101.722 163.53 101.615C163.695 101.318 163.775 100.923 163.739 100.412C163.672 99.4355 162.958 98.4234 162.043 97.5C161.324 97.5134 160.663 96.9008 160.569 96.1905C159.722 95.5069 158.878 94.9209 158.301 94.5036C155.647 92.5682 152.868 90.8059 149.982 89.2256C146.489 87.3167 141.628 84.2005 137.211 83.5435C137.801 84.9995 138.37 86.4689 138.907 87.9382C142.285 90.6816 145.534 93.5848 149.077 96.1417ZM121.647 150.019C121.181 149.238 120.95 148.097 120.893 146.739C120.666 146.734 120.427 146.676 120.187 146.534C114.856 143.347 107.997 142.89 101.933 142.819C96.42 142.752 89.4329 143.245 84.683 146.583C86.7472 148.239 89.2686 149.855 92.0342 151.258C92.1807 151.293 92.3183 151.369 92.4426 151.462C102.231 156.314 114.944 158.409 121.674 150.05C121.661 150.041 121.652 150.032 121.647 150.019ZM91.8655 154.276C84.4833 159.097 75.7738 162.697 70.8819 170.226C87.8703 183.104 116.063 170.599 126.091 153.854C125.137 153.486 124.262 152.94 123.485 152.247C115.841 161.059 102.506 159.337 91.8655 154.276ZM124.595 149.282C124.675 149.38 124.737 149.491 124.786 149.606C124.83 149.668 124.861 149.757 124.91 149.815C127.929 153.668 133.571 150.379 136.381 148.199C141.552 144.182 139.009 130.82 138.387 123.473C135.648 126.945 131.862 128.88 127.614 129.728C127.742 130.079 127.725 130.487 127.467 130.9C125.509 134.029 122.557 145.322 124.595 149.282ZM48.9749 73.924C51.5585 74.5765 54.2885 74.4434 56.8676 75.1669C58.6211 75.6597 57.7821 78.3586 56.0286 77.8659C54.0532 77.311 51.9846 77.2666 49.9559 76.9781C51.3765 80.6137 53.6404 84.2138 56.2506 87.5831C56.4725 87.4277 56.7611 87.3434 57.1162 87.3745C59.6376 87.6142 62.0214 86.7885 64.4762 86.3579C66.2652 86.0427 66.9089 88.795 65.1155 89.1101C62.8737 89.5008 60.6764 90.1666 58.408 90.2332C62.4165 94.9298 66.8911 99.0537 70.3536 102.028C70.7221 102.343 71.1038 102.654 71.4723 102.965C72.7907 102.623 74.2023 102.783 75.3387 103.626C76.5373 104.514 76.9057 105.814 76.5906 107.124C79.4138 109.321 82.3392 111.434 85.3489 113.432C85.4288 113.414 85.5132 113.396 85.6019 113.392C88.696 113.183 91.4172 114.404 92.0519 117.578C94.8175 119.163 97.6363 120.628 100.513 121.937L102.382 115.918C102.923 114.178 105.622 115.017 105.081 116.757L103.119 123.078C106.004 124.286 108.938 125.342 111.912 126.212C113.244 126.603 114.616 126.936 116.001 127.198C115.868 125.209 115.69 123.225 115.828 121.227C115.952 119.411 118.775 119.5 118.651 121.316C118.505 123.42 118.713 125.511 118.846 127.61C123.956 128.139 129.087 127.428 133.242 124.334C133.242 124.33 133.238 124.33 133.238 124.33C131.875 121.773 130.268 119.354 128.617 116.979C127.578 115.483 130.091 114.187 131.116 115.665C132.639 117.853 134.112 120.086 135.4 122.421C138.427 119.198 139.737 115.128 140.034 110.822C138.077 110.156 136.146 109.415 134.175 108.784C132.439 108.234 133.273 105.535 135.014 106.085C136.723 106.631 138.405 107.257 140.096 107.856C139.99 103.946 139.209 99.9504 138.259 96.3015C136.896 96.0041 135.524 95.9597 134.135 96.2438C132.346 96.6033 131.711 93.8555 133.495 93.4915C134.809 93.2252 136.123 93.1852 137.424 93.3228C137.353 93.0831 137.286 92.839 137.215 92.6037C136.243 89.372 135.067 86.2159 133.815 83.0907C133.611 82.8776 133.504 82.5847 133.487 82.2695C133.451 82.1851 133.42 82.1008 133.384 82.0164C132.448 81.6258 131.44 81.6702 130.459 82.052C129.74 82.3316 128.941 82.1985 128.55 81.4616C128.222 80.8401 128.426 79.8324 129.141 79.5528C130.135 79.1666 131.129 78.9579 132.115 78.9579C130.841 75.9305 129.536 72.9119 128.284 69.8711C127.423 69.8666 126.562 69.9021 125.7 69.8666C123.88 69.7823 123.974 66.959 125.794 67.0434C126.242 67.0611 126.695 67.0523 127.143 67.0434C126.677 65.8581 126.22 64.664 125.785 63.461C125.727 63.4077 125.669 63.35 125.62 63.279C122.247 58.7778 117.532 56.0166 112.445 54.0013C112.081 54.059 111.713 53.9969 111.446 53.7749C111.446 53.7172 111.438 53.6684 111.433 53.6107C110.936 53.4242 110.434 53.2422 109.933 53.0691C109.755 53.0868 109.56 53.0691 109.351 53.0069C106.279 52.0525 102.79 51.8084 99.5096 51.4444C99.4919 52.381 99.4786 53.3177 99.5452 54.2499C99.5984 55.0178 98.7994 55.6393 98.0891 55.6171C97.259 55.5905 96.7751 54.9246 96.7219 54.1567C96.6508 53.1401 96.6731 52.1147 96.6908 51.0937C94.1294 50.7519 91.5592 50.4545 88.9845 50.2192C89.0467 51.5598 89.1577 52.9004 89.1932 54.241C89.242 56.0655 86.4187 55.9589 86.3699 54.1478C86.3344 52.7583 86.2145 51.3689 86.1524 49.975C84.9671 49.8907 83.7819 49.8197 82.5967 49.7664C80.568 49.6776 78.4994 49.6599 76.4219 49.7309C76.666 50.9516 76.959 52.1635 77.2342 53.3754C77.6337 55.1555 74.8815 55.7903 74.482 54.0146C74.1757 52.6429 73.8339 51.2757 73.5764 49.8951C70.3447 50.1615 67.1353 50.7119 64.0945 51.6885C64.7559 53.2555 65.4484 54.8092 66.2297 56.3185C67.0731 57.9388 64.5739 59.2527 63.7305 57.6325C62.8915 56.0211 62.159 54.3564 61.4532 52.6784C58.812 53.7971 56.3305 55.2798 54.1243 57.264C53.9334 57.4372 53.7514 57.6147 53.5738 57.7878C53.4495 57.992 53.2808 58.1652 53.0766 58.2895C52.9479 58.4271 52.8147 58.5558 52.6904 58.6934C54.2574 59.8165 55.8244 60.944 57.387 62.0671C58.8608 63.1236 57.3471 65.5119 55.8644 64.4465C54.2219 63.2701 52.5795 62.0893 50.937 60.9085C48.2069 64.9969 47.8518 69.4449 48.9749 73.924ZM51.7538 55.4884C53.5738 53.735 55.6957 52.3056 57.9996 51.1603C55.1408 50.1348 51.554 50.2725 49.0592 52.0348C46.5733 53.7927 49.7207 54.9513 51.7538 55.4884ZM16.4407 64.7217C26.7439 62.7508 35.4046 56.1987 45.2505 53.0735C45.2816 52.7495 45.3615 52.4299 45.4769 52.1191C37.9704 53.5441 30.1753 53.5396 22.8863 56.0433C19.2596 57.2907 15.0557 59.0175 13.6663 62.9461C13.5864 63.1725 13.5376 63.3678 13.5021 63.5454C13.5598 63.7718 13.5553 64.0159 13.4799 64.2689C13.6885 65.1878 14.998 64.9969 16.4407 64.7217ZM13.6796 67.8069C13.0271 67.6693 12.4278 67.434 11.9084 67.0656C11.864 67.0345 11.8285 66.999 11.7841 66.9679C8.24173 72.3747 4.87245 77.7682 3.42973 84.0407C7.94431 79.5527 10.9185 73.4712 13.6796 67.8069Z" fill="#FF5B0D"/>
</svg>
