<svg width="86" height="151" viewBox="0 0 86 151" fill="none" xmlns="http://www.w3.org/2000/svg">
<path d="M73.463 21.1095C71.2952 19.7734 68.8083 18.6441 66.2001 17.7979C68.9922 6.09121 49.9748 0.412852 39.899 0.361953C30.2914 0.314236 12.7932 12.7557 19.4977 21.488C10.5526 23.6417 3.61224 31.2892 1.03867 39.452C-2.02396 49.1641 1.83294 58.4721 10.674 62.948C19.4803 90.6177 19.7717 119.913 29.237 147.433C29.2786 147.551 29.3341 147.656 29.3966 147.754C28.8624 148.543 29.185 149.841 30.503 149.927C32.2199 150.042 33.9784 150.105 35.5981 150.678C36.219 150.897 36.7392 150.735 37.093 150.404C37.2734 150.264 37.426 150.083 37.53 149.835C38.8793 146.6 40.284 143.384 41.7095 140.177C41.7719 140.139 41.8344 140.104 41.8968 140.066C42.6148 139.639 42.7535 138.911 42.5454 138.316C45.5768 131.546 48.7122 124.818 51.8408 118.084C52.3298 117.769 52.6385 117.164 52.5379 116.579C57.3937 106.107 62.1524 95.5994 66.3076 84.8789C66.1827 85.9001 66.0509 86.8989 65.9642 87.8437C65.4231 93.6525 64.7711 99.455 64.393 105.276C64.1398 109.157 61.9755 124.799 69.6442 124.793C77.8263 124.783 76.1267 105.534 76.092 101.357C75.9811 87.2648 72.7207 72.1415 76.3834 58.3449C76.4042 58.2654 76.4111 58.1858 76.4181 58.1095C90.3057 49.0241 87.5552 29.7845 73.463 21.1095ZM28.3734 7.33823C32.6291 4.02028 37.0167 2.87825 42.5107 3.22818C50.2002 3.72125 64.7954 8.21623 63.2415 16.9739C53.7345 14.779 43.5512 16.6876 41.2967 26.9119C37.6896 24.0043 33.0904 21.9556 27.9294 21.1476C26.2438 20.8836 24.5962 20.8263 22.9973 20.9409C18.1727 16.5922 24.2633 10.5416 28.3734 7.33823ZM3.67814 41.103C5.7592 32.7525 12.873 25.2354 22.1961 23.928C22.2828 23.9852 22.3556 24.0488 22.4458 24.1061C23.247 24.6183 24.0691 24.3033 24.4991 23.7339C24.6864 23.7275 24.8703 23.7053 25.061 23.7053C38.7717 23.7021 48.5874 35.396 45.7988 47.3826C44.0923 54.7184 38.5567 60.6067 31.5574 62.8367C31.2106 62.8049 30.8602 62.9194 30.5654 63.1262C26.7883 64.125 22.6331 64.0741 18.4433 62.6331C18.3323 62.5822 18.2109 62.5376 18.0687 62.509C17.9403 62.4645 17.8224 62.4358 17.7045 62.4199C6.50839 60.0182 1.12885 51.3368 3.67814 41.103ZM44.1131 83.6319C47.5191 87.4461 51.3587 90.7799 55.9474 93.0099C51.4905 97.8135 46.3121 102.102 40.662 105.757C37.1346 102.178 33.8639 98.3893 30.8082 94.451C35.7056 91.5975 40.166 87.7706 44.1131 83.6319ZM29.0948 92.1987C25.8518 87.8533 22.8378 83.3583 19.9867 78.7902C24.7038 75.9144 29.0046 72.5837 33.0662 68.9986C35.9866 73.0323 38.9243 77.3968 42.2298 81.421C38.3521 85.5629 33.9367 89.4089 29.0948 92.1987ZM35.2339 67.0422C36.7843 65.617 38.307 64.16 39.8123 62.6903C40.4713 66.4377 42.3477 70.8723 46.267 72.2911C47.3561 72.6855 48.3758 72.851 49.34 72.851C47.7688 74.9728 46.0346 77.1487 44.1547 79.2928C40.9326 75.31 38.0642 70.9836 35.2339 67.0422ZM18.2525 75.9812C17.982 75.5358 17.5657 75.3259 17.1322 75.275C16.2755 71.6262 15.3217 67.9965 14.2291 64.3923C15.1344 64.6817 16.0743 64.9299 17.0559 65.1239C21.8354 66.8577 26.5351 67.0167 30.8151 65.9765C30.9955 66.2119 31.1759 66.4505 31.3562 66.6859C27.3675 70.2424 23.143 73.554 18.5022 76.3852C18.4224 76.2516 18.3357 76.118 18.2525 75.9812ZM18.641 82.1749C21.1209 86.0527 23.7222 89.867 26.4831 93.573C24.7454 94.4065 22.9592 95.0936 21.1278 95.5994C20.3613 91.114 19.5532 86.6349 18.641 82.1749ZM23.0979 107.322C22.5984 104.335 22.1025 101.345 21.5961 98.3543C23.8679 97.7403 26.0738 96.8909 28.2034 95.838C31.2938 99.8303 34.5957 103.673 38.1544 107.309C34.3044 109.622 30.2671 111.652 26.1154 113.366C25.2102 111.531 24.3327 109.686 23.4933 107.831C23.3927 107.615 23.2574 107.446 23.0979 107.322ZM25.0229 118.287C27.1906 122.671 29.785 127.141 33.0419 130.7C31.3077 131.343 29.5561 131.702 27.8358 131.671C26.7779 127.233 25.8588 122.77 25.0229 118.287ZM35.1958 147.678C34.2385 147.468 33.2535 147.35 32.2684 147.271C32.265 147.15 32.2476 147.026 32.199 146.889C32.036 146.418 31.8869 145.944 31.7308 145.47C31.7794 145.454 31.8245 145.445 31.8696 145.426C33.7564 144.627 35.5634 143.692 37.3358 142.706C36.6109 144.36 35.8929 146.014 35.1958 147.678ZM39.2643 138.335C36.5415 139.942 33.7945 141.513 30.8637 142.785C30.0105 140.021 29.2301 137.241 28.5225 134.451C30.7597 134.381 33.0176 133.789 35.2131 132.844C36.7427 134.19 38.4006 135.335 40.2181 136.188C39.899 136.904 39.5833 137.619 39.2643 138.335ZM41.3765 133.627C40.1834 133.042 39.0943 132.278 38.0884 131.4C40.4123 130.064 42.6148 128.397 44.5952 126.622C43.5165 128.954 42.4379 131.289 41.3765 133.627ZM48.629 117.922C48.5319 118.001 48.4382 118.09 48.355 118.205C45.7502 121.774 41.1268 126.523 36.0247 129.326C34.0096 127.036 32.3655 124.382 30.9088 122.063C29.6428 120.053 28.4913 117.982 27.3953 115.882C31.8279 114.06 36.1357 111.877 40.2389 109.383C43.0102 112.071 45.9306 114.635 49.0383 117.04C48.8995 117.336 48.7643 117.629 48.629 117.922ZM50.2661 114.384C47.6232 112.307 45.1224 110.109 42.7361 107.812C48.7018 103.918 54.1542 99.3436 58.8054 94.2188C58.9407 94.2665 59.0725 94.3269 59.2077 94.3746C56.3567 101.09 53.3357 107.745 50.2661 114.384ZM63.3976 84.0582C63.1028 84.1345 62.8253 84.3127 62.6137 84.6308C61.1813 86.7749 59.5962 88.8331 57.9001 90.8213C53.2906 88.7186 49.451 85.3815 46.052 81.5355C48.8753 78.3766 51.4072 75.1064 53.5958 71.9984C53.7345 71.8012 53.8108 71.6008 53.8386 71.4099C55.1323 70.5351 56.27 69.3358 57.2793 67.9774C57.862 67.1917 58.3961 66.4059 59.1314 65.7252C59.832 65.0762 61.098 69.0113 61.0633 69.6443C60.9662 71.4703 60.6749 73.2263 60.8483 75.0587C61.098 77.6959 63.1895 78.5611 65.4856 78.5516C64.8092 80.3967 64.1051 82.2258 63.3976 84.0582ZM71.864 57.4064C70.2165 58.1699 71.323 60.4413 72.9288 59.9895C70.6952 70.9041 72.3496 82.2354 72.8456 93.2676C73.0814 98.5674 73.1751 103.874 72.9462 109.177C72.7936 112.682 73.1023 119.086 70.168 121.812C68.1459 123.689 67.2684 115.456 67.2337 114.839C66.9493 109.851 67.4036 104.815 67.8337 99.8462C68.243 95.1063 68.7806 90.3728 69.1899 85.6328C69.4396 82.7507 69.9807 79.4518 69.2176 76.5952C69.0338 75.8985 68.2603 75.3068 67.4383 75.5072C62.031 76.8242 64.1433 71.5594 64.1086 68.6041C64.0843 66.6318 62.4195 63.702 60.2725 63.0053C58.0146 62.2704 56.4607 64.1887 55.3335 65.6615C53.2663 68.3623 50.776 71.6485 46.6485 69.2721C43.6137 67.5257 42.7812 63.3107 42.5454 60.3108C42.5176 59.9482 42.3685 59.6873 42.1535 59.5092C44.9941 56.6557 47.1792 53.1055 48.4278 49.1354C50.8384 41.4561 48.6013 34.2063 43.5478 28.9574C43.8391 28.7538 44.0576 28.4547 44.127 28.0412C45.6496 18.7936 54.345 17.7406 62.4403 19.7034C62.4472 20.855 64.289 21.4085 65.1491 20.4732C67.5701 21.2685 69.8489 22.2897 71.76 23.3935C77.2817 26.5842 80.3513 31.3019 82.0508 37.0216C84.6105 45.6616 80.4068 53.4491 71.864 57.4064Z" fill="#FF5B0D"/>
<path d="M60.6507 55.5483C57.4633 55.0234 54.3105 54.2503 51.5392 52.6629C49.8847 51.7181 48.1748 54.0022 49.8292 54.9502C53.0757 56.808 56.7002 57.6987 60.4322 58.3127C62.3503 58.6276 62.548 55.86 60.6507 55.5483Z" fill="#FF5B0D"/>
<path d="M75.284 33.9486C76.5361 37.7214 76.6089 41.6374 74.3094 45.0921C73.2966 46.6159 75.7869 48.1874 76.8032 46.6605C79.512 42.5918 79.7479 37.9091 78.2495 33.4078C77.6876 31.7154 74.7152 32.2371 75.284 33.9486Z" fill="#FF5B0D"/>
<path d="M37.36 52.2913C39.9266 47.5609 41.4701 42.6524 38.8618 37.6516C38.0224 36.0388 35.3066 37.2603 36.1495 38.8732C38.397 43.1836 36.6801 47.3605 34.5089 51.3624C33.6418 52.9657 36.5033 53.8691 37.36 52.2913Z" fill="#FF5B0D"/>
</svg>
