<svg width="96" height="94" viewBox="0 0 96 94" fill="none" xmlns="http://www.w3.org/2000/svg">
<path d="M5.35152 33.4714C5.34689 31.4865 8.47587 29.0477 9.75896 28.5012C14.6088 26.4329 19.901 26.6715 24.9384 25.4301C25.163 25.3768 25.3437 25.4208 25.478 25.525C27.3193 24.6102 29.6423 24.7468 31.472 25.6084C31.6804 25.7057 31.7916 25.8539 31.8309 26.016C32.2224 25.8678 32.6207 25.7288 33.0214 25.6038C30.4645 24.5013 25.8347 22.5026 24.1949 20.5409C18.9537 20.9647 13.9232 22.9171 8.58936 22.9588C8.31838 22.9588 7.92001 22.9449 7.47301 22.9009C7.40353 22.9913 7.30859 23.07 7.17657 23.121C5.07822 23.9432 3.44308 25.5551 1.49065 26.6437C0.927849 26.9587 0.156609 26.4653 0.455383 25.789C1.37486 23.7023 3.17211 22.2501 4.55016 20.4946C4.62196 20.4019 4.70303 20.3394 4.78872 20.3C4.82114 20.256 4.85357 20.2143 4.89062 20.1703C7.42902 17.1849 11.5585 16.2863 15.3129 16.0362C19.2108 15.7744 23.514 15.8486 27.2035 17.3818C28.5723 17.6389 29.9827 18.3846 31.0504 18.9567C34.1099 20.5918 37.0629 23.1163 40.3633 24.2095C40.5254 24.2651 40.6343 24.3531 40.7014 24.462C41.0164 24.455 41.3337 24.4573 41.6487 24.4573C37.3408 22.0718 31.106 18.1878 32.1598 15.1862C32.1575 15.1838 32.1575 15.1792 32.1552 15.1769C32.1506 15.1607 32.1436 15.1445 32.139 15.1283C32 14.7623 31.9352 14.3894 31.9236 14.0119C31.9699 13.9749 32.0209 13.9424 32.0672 13.9054C32.0834 12.9164 32.2455 11.8997 32.4771 10.9015C32.2386 10.6282 32.1668 10.1974 32.498 9.87082C32.6022 9.7666 32.711 9.66469 32.8222 9.57205C32.9982 8.95366 33.1858 8.34917 33.3688 7.77711C33.9316 6.00996 34.9553 2.97593 37.137 2.69106C37.2343 2.67716 37.32 2.68179 37.408 2.67948C40.5161 1.03276 44.2288 -0.942829 47.7353 0.500072C48.3143 0.738625 48.4579 1.5284 47.8603 1.85728C45.1691 3.3326 42.0818 3.9232 39.4948 5.60465C39.4647 5.6255 39.4346 5.63708 39.4021 5.65329C39.4415 6.76499 39.2933 8.06893 39.0709 9.34508C39.1358 9.60216 39.0802 9.8824 38.9343 10.0723C38.5776 11.8649 38.1075 13.5186 37.8481 14.3918C39.3234 15.2186 40.7037 16.3511 41.5607 16.9927C44.062 18.8617 48.2842 21.8379 49.3102 25.034C49.8058 25.0942 50.313 25.1475 50.8272 25.1985C51.0727 25.0873 51.39 25.1174 51.6193 25.2772C51.7119 25.2865 51.8069 25.2957 51.9019 25.305C48.0526 22.2339 42.5404 17.3563 44.0805 14.5678C43.4853 11.8951 46.4151 9.32423 48.6964 8.59699C49.0346 8.48814 49.3913 8.4395 49.7317 8.45803C49.8545 8.30054 50.0421 8.19168 50.2922 8.18474C52.8213 8.11294 56.0823 9.40066 58.1019 10.8667C58.5258 11.1771 58.5767 11.8904 58.0463 12.1406C55.7812 13.2036 53.3494 12.8446 51.1353 11.9066C51.1283 11.9275 51.119 11.9506 51.1121 11.9715C50.7693 12.9187 50.2783 13.8151 49.7479 14.6766C51.0936 15.7466 52.2956 17.1316 53.0483 17.9191C55.1374 20.1147 58.6532 23.605 59.2947 26.8452C61.7451 27.8272 64.0519 29.1357 65.8375 31.0859C68.9735 31.4495 72.6398 33.8373 74.9975 35.2895C75.924 35.8616 77.5313 36.7486 78.8561 37.8441C79.588 37.147 80.3615 36.4799 81.2161 35.9473C81.2347 35.9334 81.2555 35.9218 81.274 35.9102C79.896 33.9392 79.0414 31.6348 79.6088 29.1983C79.7408 28.6262 80.4518 28.5266 80.8409 28.881C82.6961 30.5509 84.6323 33.4737 85.0886 35.9612C85.1349 36.209 85.0654 36.4128 84.938 36.5656C85.026 36.8968 85.0515 37.2535 85.0168 37.6079C84.7782 39.9911 82.8721 43.391 80.1345 43.3633C78.0779 45.1466 73.4574 42.2076 69.7818 39.3634C70.1547 40.2111 70.5252 41.0657 70.8912 41.925C70.9167 41.9644 70.9305 42.0061 70.9444 42.0501C74.2286 42.0848 78.2956 44.7807 80.8363 46.3649C81.7419 46.93 83.3006 47.8078 84.6068 48.8801C85.3271 48.3196 86.6959 47.2843 88.2361 46.3C88.3612 46.0939 88.602 45.941 88.8637 45.9086C89.9708 45.2369 91.1312 44.6255 92.1826 44.2596C92.185 44.2248 92.185 44.1924 92.1942 44.1553C92.8196 41.1352 92.2498 38.0433 92.6482 35C92.7362 34.3214 93.5236 34.1685 93.9567 34.6225C96.5739 37.3647 96.0806 41.5428 95.6753 45.0354C95.7054 45.1211 95.7401 45.1999 95.7633 45.2925C96.289 47.4279 93.8363 49.4823 92.3934 50.6496C91.9256 51.0271 91.4299 51.4208 90.9181 51.8099C90.8694 51.9465 90.8162 52.0832 90.7583 52.2198C90.573 52.6483 90.1468 52.7363 89.8041 52.6136C88.9564 53.1903 88.0693 53.7114 87.1522 54.0866C87.136 54.1445 87.1244 54.2024 87.1059 54.258C86.7515 54.3854 86.3786 54.4618 85.9872 54.4641C85.971 54.4664 85.9548 54.4664 85.9363 54.4664C85.9339 54.4664 85.9293 54.4664 85.927 54.4664C83.4071 56.6273 77.1144 51.7427 73.3624 48.5883C73.3971 48.7087 73.4296 48.8291 73.4643 48.9473C73.5338 48.9913 73.601 49.0515 73.6635 49.1349C75.8475 52.1203 79.361 54.2603 82.0129 56.8172C82.9393 57.7089 84.1552 58.8901 84.8639 60.1963C87.62 63.4272 89.1069 67.7791 90.1237 71.8368C91.1011 75.744 91.5527 80.2533 89.3802 83.8548C89.3478 83.9081 89.3154 83.9544 89.283 84.003C89.2691 84.1026 89.232 84.2092 89.1625 84.3111C87.8447 86.3145 86.9715 88.6398 85.172 90.2865C84.5883 90.8215 83.8379 90.2054 83.9699 89.5245C84.4262 87.1668 85.5147 84.9526 85.6537 82.537C85.663 82.3841 85.7093 82.2614 85.7788 82.1595C85.5865 81.7194 85.4406 81.3187 85.3549 81.0408C83.6457 75.5981 83.9607 69.8126 82.666 64.3328C81.1999 63.7492 79.3888 62.1372 77.7444 60.4534C77.7606 60.6341 77.7814 60.8147 77.7814 60.9954C77.932 61.0695 78.0547 61.2108 78.1034 61.4377C79.222 66.5029 81.7789 71.142 82.0708 76.4064C82.1495 77.7983 81.3458 81.6824 79.5648 82.5578C77.2673 86.465 74.9929 90.2934 71.0232 92.7392C70.4604 93.0843 69.798 92.5933 69.9045 91.9633C70.6526 87.5559 73.6658 83.8039 76.3316 80.3506C75.6669 78.3357 75.7062 75.5494 75.6113 74.1621C75.382 70.79 75.7479 67.1653 75.2129 63.8117C74.5876 63.6519 74.0341 63.2489 73.5477 62.781C73.5847 62.8691 73.6056 62.971 73.6033 63.0845C73.5546 66.0421 74.5042 72.4413 73.9414 75.4082C73.4342 78.0716 70.6989 79.8457 68.2439 80.4363C67.9336 80.5104 67.6279 80.5452 67.3268 80.5498C62.0323 90.1915 45.8987 97.369 36.2361 90.1012C35.7775 90.8007 34.6496 90.0317 35.0479 89.2188C37.3594 84.5149 42.1675 82.3633 46.4151 79.7183C44.9166 78.8822 43.5664 77.935 42.4663 76.9599C42.1652 76.6936 42.2393 76.1678 42.5126 75.9177C45.1668 73.516 49.1828 73.1477 52.6013 73.0504C56.0383 72.9532 60.0312 73.3168 63.1231 75.0098C63.3686 72.4807 64.2904 69.3795 65.0316 67.9065C61.6663 68.1937 57.9514 67.3946 54.871 66.2273C51.5915 64.9859 48.437 63.3624 45.4239 61.491C45.1969 61.7504 44.9792 62.0191 44.7661 62.29C47.0474 64.1151 44.5299 67.5892 41.6649 66.9175C40.0437 66.5377 39.1126 64.6524 39.7264 63.1539C40.3679 61.5906 42.1768 60.8819 43.7494 61.2293C43.8906 61.051 44.0319 60.8726 44.1755 60.6943C42.0957 59.3394 40.0877 57.871 38.1561 56.3332C37.76 56.7292 37.357 57.1206 36.9309 57.4865C37.4288 58.0355 37.6002 58.816 37.3547 59.6266C36.961 60.9143 35.6895 61.5952 34.4064 61.3636C32.7921 61.0695 31.8124 59.2375 32.2339 57.7297C32.6833 56.1131 34.5546 55.599 35.9628 56.2266C36.0068 56.2451 36.0462 56.2706 36.0855 56.2961C36.4052 56.0135 36.7132 55.7101 37.0143 55.4067C36.2662 54.7907 35.5274 54.163 34.8048 53.5307C31.2635 50.4342 26.6986 45.9457 24.767 40.987C22.7636 42.0755 20.7695 42.5966 18.9861 42.6476C20.561 45.45 21.1771 48.9704 21.3809 52.0739C21.6033 55.4855 21.6079 59.52 19.4655 62.385C19.2455 62.6815 18.7267 62.8019 18.4349 62.5286C17.3603 61.5257 16.2902 60.2658 15.3198 58.8553C13.0848 63.33 11.3895 68.3187 6.91948 71.0563C6.14823 71.5288 5.2774 70.4796 5.93053 69.9585C-2.18723 61.0324 3.4153 44.3545 12.4873 38.1545C12.4548 37.8047 12.4548 37.4411 12.5012 37.059C13.0593 32.3921 20.6097 32.142 24.6234 32.4384C24.9662 31.6047 25.4085 30.8589 25.9227 30.1826C25.2279 29.951 24.5516 29.6152 24.093 29.0802C20.8482 30.0853 17.7586 32.0215 14.6319 33.307C13.3465 33.835 10.866 35.1042 8.76306 35.3984C6.84769 39.3171 4.81651 43.6806 1.1942 46.3C0.675407 46.6752 -0.0587845 46.2977 0.00374603 45.6423C0.441483 40.9939 2.86639 37.2605 5.35152 33.4714ZM4.92768 22.1992C4.55479 22.6161 4.16801 23.0283 3.78819 23.4475C4.3093 23.0885 4.84199 22.7481 5.39552 22.44C5.22646 22.3682 5.06664 22.2895 4.92768 22.1992ZM16.7048 17.3401C13.6615 17.4883 10.0577 17.7709 7.54482 19.6538C7.14645 19.9526 5.0759 21.2681 6.48869 21.4696C7.14182 21.5623 7.79494 21.5947 8.45271 21.5785C9.63158 21.546 10.8197 21.4835 11.9893 21.3515C15.8803 20.9138 19.7087 19.6145 23.602 19.2068C23.602 18.8617 23.7317 18.5259 24.0374 18.204C24.144 18.0928 24.2551 17.9955 24.3709 17.9052C21.8719 17.3007 19.176 17.2197 16.7048 17.3401ZM39.1659 4.08764C41.0465 2.95277 43.1541 2.31817 45.176 1.48903C43.0291 1.46123 40.8682 2.50809 38.9273 3.53642C39.0223 3.70317 39.101 3.88383 39.1659 4.08764ZM51.4085 9.7527C51.4664 9.97968 51.4803 10.2136 51.4688 10.4498C52.87 11.0891 54.4333 11.4874 55.9364 11.2558C54.5607 10.5147 52.9093 9.91946 51.4016 9.72491C51.4039 9.73417 51.4062 9.74344 51.4085 9.7527ZM93.9683 37.3577C93.9266 39.5441 94.1027 41.7374 93.7275 43.9029C93.9405 43.889 94.1397 43.8983 94.3273 43.9237C94.5821 41.742 94.772 39.3472 93.9683 37.3577ZM91.2331 49.7162C92.493 48.7759 93.922 47.5947 94.3088 46.2143C94.3505 46.0615 94.3505 45.9433 94.3273 45.8461C94.2764 45.7905 94.237 45.7256 94.2092 45.6515C93.651 45.23 91.5087 46.2213 90.2047 46.9068C90.8278 47.7591 91.1798 48.7157 91.2331 49.7162ZM87.3259 84.4987C87.1892 84.3898 87.0572 84.2532 86.9298 84.1049C86.8025 84.7743 86.6334 85.432 86.4435 86.0852C86.7376 85.5548 87.0271 85.0221 87.3259 84.4987ZM85.8645 77.0225C86.1169 78.2592 86.4435 79.4867 86.7978 80.698C86.997 81.3766 87.2425 82.0275 87.5505 82.662C88.2176 84.0308 88.8614 81.4739 89.0328 80.9667C90.1028 77.7659 89.2042 74 88.3565 70.8525C87.6663 68.2956 86.7006 65.5788 85.2715 63.2419C85.2183 63.3902 85.1581 63.5361 85.0793 63.6843C84.8547 64.1058 84.5605 64.3513 84.2131 64.4718C85.0793 68.5735 85.0284 72.9138 85.8645 77.0225ZM78.775 81.0732C78.8746 80.9806 78.9881 80.9227 79.1062 80.8972C79.1826 80.8393 79.2614 80.7698 79.3494 80.6818C80.8641 79.1254 80.702 76.7561 80.4472 74.7736C79.9354 70.7853 78.1335 67.1375 77.0658 63.2998C76.9477 63.4249 76.818 63.5338 76.672 63.6241C77.485 68.9533 76.4196 74.5165 77.8787 79.7925C78.0825 80.5313 78.2956 81.1867 78.775 81.0732ZM71.8454 90.3398C74.4463 88.2159 76.1903 85.395 77.9019 82.4883C77.8764 82.4744 77.8532 82.4675 77.8278 82.4536C77.5359 82.2984 77.2881 82.0714 77.0704 81.7958C75.0601 84.3968 72.9015 87.1922 71.8454 90.3398ZM78.6361 59.1726C79.0275 59.5849 81.1976 61.8477 82.6614 62.6421C82.9902 62.3966 83.5415 62.4197 83.7823 62.8343C83.8588 62.7787 83.9236 62.7 83.963 62.5819C84.0973 62.1974 84.0649 61.7782 83.912 61.3382C83.8541 61.2687 83.7985 61.1969 83.7406 61.1274C83.5947 60.956 83.5461 60.7684 83.5623 60.5924C82.4575 58.721 79.7802 56.7037 78.8213 55.8537C77.3483 54.5452 75.6345 53.3177 74.1753 51.9049C74.3467 52.8405 74.4672 53.7762 74.5297 54.7189C75.9934 56.0923 77.2487 57.7182 78.6361 59.1726ZM76.2783 61.5999C76.5261 60.0388 75.7757 58.3365 74.6501 57.2364C74.6687 57.4356 74.6177 57.6417 74.4996 57.7992C74.4162 58.7187 74.2633 59.6405 74.0317 60.5623C73.9947 60.7082 73.9507 60.8448 73.909 60.9838C74.5969 61.799 76.0143 63.2697 76.2783 61.5999ZM42.9526 62.605C42.9248 62.605 42.8947 62.6073 42.8669 62.6097C42.8994 62.6236 42.9318 62.6398 42.9619 62.6537C42.9596 62.6375 42.9526 62.6212 42.9526 62.605ZM43.1101 65.2013C43.1657 64.0572 41.9081 63.55 40.9909 64.0248C40.9006 64.7451 41.607 65.4515 42.325 65.5464C42.6052 65.5835 42.8785 65.5325 43.1333 65.4237C43.1171 65.3565 43.1055 65.2824 43.1101 65.2013ZM33.6097 58.6863C33.6977 59.2491 34.1748 59.7378 34.726 59.9184C34.902 59.9763 35.0781 59.967 35.2379 59.9138C35.2355 59.8211 35.2541 59.7215 35.2981 59.6127C35.7428 58.5728 34.3277 58.2972 33.6097 58.6863ZM15.8363 56.984C15.8919 57.0442 15.9336 57.109 15.9614 57.1855C16.8229 58.5543 17.7864 59.7841 18.7476 60.7754C20.2507 58.1466 20.165 54.4919 19.8639 51.6292C19.5396 48.5582 18.9838 45.1096 17.175 42.5156C16.3945 42.3836 15.6788 42.1496 15.0558 41.8231C11.1648 45.7349 12.8648 52.1712 15.8363 56.984ZM12.8949 39.6599C4.71923 45.7141 -0.359863 60.9097 7.13488 69.09C10.8105 66.1856 12.2557 61.4864 14.4026 57.4148C11.2737 52.1643 9.73117 45.369 13.8491 40.9661C13.4484 40.5863 13.1265 40.1486 12.8949 39.6599ZM24.1509 33.8605C20.9432 33.6335 14.8126 33.4482 14.0136 36.8853C13.0894 40.8596 19.095 42.365 24.3015 39.5788C23.778 37.7098 23.6645 35.7874 24.1509 33.8605ZM32.8546 21.5414C31.8124 20.9277 29.2231 19.1142 27.2313 18.6672C27.0807 18.732 26.9024 18.7436 26.7055 18.6602C26.6268 18.6278 26.548 18.6 26.4693 18.5676C26.0339 18.5583 25.6494 18.651 25.3506 18.8826C25.2603 18.9521 25.207 19.0308 25.1839 19.1165C25.6216 19.2115 25.8069 19.7001 25.6888 20.0638C26.8329 21.1431 29.4894 22.4331 29.9712 22.6647C31.6781 23.4869 33.4939 24.14 35.1545 25.0549C36.0693 24.8649 36.9818 24.7283 37.8805 24.631C36.1434 23.7255 34.499 22.5072 32.8546 21.5414ZM33.5842 13.0091C33.5865 13.0091 33.5911 13.0068 33.5935 13.0068C33.5865 13.0253 33.5842 13.0438 33.5773 13.0623C33.5541 13.2685 33.5379 13.47 33.5286 13.6738C34.3809 13.2337 35.3977 13.3356 36.4399 13.7201C36.4723 13.6437 36.5047 13.5626 36.5372 13.4839C36.5464 13.4885 36.558 13.4931 36.5673 13.4978C36.8962 12.3235 37.1741 11.1354 37.4149 9.9403C36.2477 9.59984 35.1336 9.73881 34.1354 10.4336C33.9084 11.2558 33.6907 12.1406 33.5842 13.0091ZM37.3594 4.27524C37.2806 4.27524 37.2065 4.26134 37.1347 4.23587C37.0351 4.24976 36.9263 4.29145 36.7989 4.38641C35.6524 5.24798 35.0711 7.00587 34.6519 8.5252C35.6038 8.21021 36.6252 8.19168 37.6419 8.46266C37.8087 6.9966 37.9546 4.64349 37.3594 4.27524ZM42.3157 19.4685C41.0025 18.3661 39.6198 17.3494 38.1769 16.4252C37.8643 16.2238 37.4196 15.925 36.9263 15.6401C36.565 15.7304 36.1411 15.5243 36.0114 15.1723C35.3884 14.9013 34.7631 14.7484 34.2744 14.899C34.0173 14.98 33.8413 15.0935 33.7278 15.2279C33.7278 15.3784 33.6676 15.5104 33.5726 15.6169C33.4545 17.2891 38.5498 20.8466 39.1265 21.2195C41.0303 22.4516 43.0453 23.4776 45.0139 24.5917C45.8871 24.6565 46.7579 24.7376 47.6264 24.8325C46.5286 22.7133 43.9671 20.8559 42.3157 19.4685ZM49.8614 11.2396C49.5904 10.9455 49.7062 10.5124 49.9957 10.2599C49.9934 10.246 49.9981 10.2298 49.9957 10.2159C49.9865 10.1325 49.9656 10.0538 49.9402 9.97273C49.961 10.0422 49.9101 9.9542 49.924 9.97041C49.9193 9.96578 49.9193 9.96346 49.917 9.96115C49.9054 9.95652 49.8915 9.94725 49.8707 9.93567C49.866 9.93336 49.866 9.93104 49.8637 9.93104C49.8521 9.92872 49.822 9.92409 49.7526 9.90788C49.8985 9.94262 49.4144 9.93104 49.4561 9.92409C49.287 9.94957 48.979 10.0376 48.9049 10.0654C47.9345 10.4359 47.0219 11.1169 46.3642 11.9182C45.9982 12.3629 45.7087 12.8377 45.5744 13.3333C46.517 12.9836 47.543 13.2615 48.5413 13.8359C49.0531 13.0392 49.609 12.0896 49.8614 11.2396ZM53.3795 20.4853C52.2701 19.179 51.0727 17.9446 49.8058 16.7912C49.5302 16.5411 49.1434 16.1728 48.7034 15.8092C48.3305 15.837 47.9484 15.5637 47.8789 15.1954C47.3091 14.8249 46.7185 14.5678 46.2113 14.6349C45.945 14.672 45.7527 14.7531 45.6184 14.8689C45.5929 15.0171 45.5119 15.1375 45.3984 15.2255C45.0023 16.856 49.4329 21.2148 49.9402 21.6781C51.4827 23.0909 53.1456 24.3438 54.7714 25.6501C55.3088 25.7335 55.8438 25.8284 56.3626 25.9465C56.4923 25.9002 56.6451 25.8956 56.8142 25.9512C57.0597 26.0299 57.3052 26.111 57.5484 26.1944C56.6891 24.0798 54.6788 22.0162 53.3795 20.4853ZM80.9081 31.0697C80.9938 32.589 81.7071 34.0342 82.6243 35.2733C82.8536 35.2131 83.0852 35.176 83.3168 35.1853C83.3261 35.1853 83.3353 35.1876 83.3469 35.1876C82.8443 33.7516 81.9202 32.2601 80.9081 31.0697ZM81.0309 41.6355C81.4871 41.3992 81.8924 41.0171 82.2514 40.5678C82.8976 39.7572 83.3747 38.7242 83.5345 37.6982C83.5461 37.6194 83.5692 37.2998 83.56 37.1308C83.5623 37.1724 83.4511 36.7023 83.5137 36.8366C83.4836 36.7718 83.472 36.7417 83.4673 36.7324C83.465 36.7324 83.465 36.7301 83.4604 36.7278C83.4442 36.7092 83.4326 36.6977 83.4257 36.6884C83.421 36.6861 83.421 36.6884 83.4164 36.6861C83.4372 36.6977 83.34 36.6652 83.4118 36.6699C83.3284 36.6629 83.245 36.6583 83.1616 36.6652C83.1477 36.6676 83.1315 36.6722 83.1176 36.6745C82.9323 37.0103 82.5317 37.2118 82.1866 37.008C81.4084 37.4342 80.5954 38.1753 79.9215 38.84C80.6927 39.6946 81.1744 40.6419 81.0309 41.6355ZM71.9589 39.104C72.5194 39.5024 77.7027 42.9302 79.2151 42.2029C79.2776 42.0755 79.3795 41.9713 79.5185 41.9157C79.6042 41.7605 79.6435 41.5544 79.625 41.2881C79.588 40.7762 79.2128 40.2528 78.731 39.7734C78.3558 39.7826 78.0084 39.4653 77.9598 39.0948C77.5128 38.7427 77.0727 38.4393 76.7693 38.2216C75.3774 37.2188 73.9229 36.3062 72.4128 35.4933C70.9421 34.6989 69.0059 33.4992 67.1021 32.8878C67.526 34.0411 68.0007 35.2061 68.501 36.3827C69.6289 37.316 70.7615 38.2494 71.9589 39.104ZM86.8441 52.6321C87.0294 52.551 87.2124 52.463 87.3931 52.3658C87.4093 52.3542 87.4255 52.3426 87.4394 52.331C87.4394 52.3356 87.4394 52.338 87.4417 52.3426C88.2153 51.928 88.9587 51.4046 89.6443 50.8951C89.9268 49.7116 89.6535 48.6253 88.9124 47.6595C87.8864 48.3196 86.8789 49.0075 85.9038 49.7417C85.9108 49.7486 85.92 49.7556 85.927 49.7648C85.8645 49.8227 85.7996 49.8829 85.7417 49.9409C86.4782 50.77 86.9437 51.6802 86.8441 52.6321ZM77.7791 50.1609C78.3373 50.5616 83.5021 54.0194 85.0168 53.3014C85.0793 53.1741 85.1812 53.0722 85.3202 53.0166C85.4059 52.8614 85.4476 52.6553 85.429 52.3889C85.3943 51.8794 85.0214 51.3513 84.5443 50.8696C84.1691 50.8765 83.824 50.5569 83.7754 50.1864C83.333 49.8297 82.893 49.524 82.5919 49.3062C81.2069 48.2965 79.757 47.377 78.2516 46.5525C76.4289 45.5566 73.8928 43.9307 71.5883 43.5879C71.8963 44.3476 72.1928 45.1142 72.473 45.8808C74.2356 47.3121 75.9309 48.8268 77.7791 50.1609ZM63.4682 78.2708C63.225 77.8632 63.1046 77.268 63.0745 76.5592C62.9564 76.5569 62.8313 76.5268 62.7062 76.4527C59.9247 74.7898 56.3464 74.5512 53.1826 74.5142C50.3061 74.4794 46.6606 74.7365 44.1825 76.4782C45.2594 77.3421 46.5749 78.1851 48.0178 78.917C48.0943 78.9355 48.1661 78.9749 48.2309 79.0235C53.3378 81.555 59.971 82.6481 63.4821 78.287C63.4752 78.2824 63.4705 78.2778 63.4682 78.2708ZM47.9298 80.4919C44.0782 83.0071 39.5341 84.8855 36.9818 88.8135C45.8454 95.5323 60.5546 89.008 65.7866 80.2719C65.2886 80.0797 64.8324 79.7948 64.4271 79.4335C60.4388 84.0308 53.4814 83.1322 47.9298 80.4919ZM65.0061 77.8863C65.0478 77.9373 65.0802 77.9952 65.1057 78.0554C65.1288 78.0878 65.145 78.1342 65.1705 78.1643C66.7454 80.1746 69.6891 78.4584 71.1552 77.3212C73.8534 75.2252 72.5263 68.2539 72.2021 64.4208C70.7731 66.232 68.7975 67.2418 66.581 67.6841C66.6482 67.8671 66.6389 68.0802 66.5046 68.2956C65.4832 69.9284 63.943 75.8204 65.0061 77.8863ZM25.5521 38.569C26.9001 38.9095 28.3244 38.84 29.6701 39.2175C30.5849 39.4746 30.1472 40.8828 29.2323 40.6257C28.2017 40.3362 27.1224 40.313 26.064 40.1625C26.8051 42.0593 27.9863 43.9376 29.3481 45.6955C29.4639 45.6145 29.6145 45.5705 29.7998 45.5867C31.1153 45.7117 32.359 45.2809 33.6398 45.0563C34.5732 44.8918 34.909 46.3278 33.9733 46.4922C32.8037 46.6961 31.6572 47.0435 30.4737 47.0782C32.5651 49.5286 34.8997 51.6802 36.7062 53.232C36.8985 53.3964 37.0977 53.5585 37.2899 53.7206C37.9778 53.5423 38.7143 53.6257 39.3072 54.0657C39.9325 54.529 40.1247 55.2076 39.9603 55.8908C41.4333 57.0372 42.9596 58.1397 44.5299 59.1819C44.5716 59.1726 44.6156 59.1634 44.6619 59.1611C46.2762 59.0522 47.6959 59.6891 48.0271 61.3451C49.47 62.1719 50.9407 62.9362 52.4415 63.6195L53.4166 60.4789C53.6991 59.571 55.1073 60.0087 54.8247 60.9166L53.801 64.2147C55.3065 64.8447 56.8374 65.3959 58.3891 65.8498C59.0839 66.0536 59.7996 66.2273 60.5222 66.364C60.4527 65.3264 60.3601 64.2911 60.4319 63.2489C60.4967 62.3016 61.9697 62.3479 61.9049 63.2952C61.8285 64.393 61.9373 65.4839 62.0068 66.5794C64.6726 66.855 67.3499 66.4844 69.5178 64.8701C69.5178 64.8678 69.5154 64.8678 69.5154 64.8678C68.8044 63.5338 67.966 62.2715 67.1044 61.0324C66.5625 60.2519 67.8734 59.5756 68.4084 60.3469C69.2028 61.4887 69.9717 62.6537 70.6434 63.8719C72.2229 62.1905 72.9061 60.0666 73.0613 57.8201C72.0399 57.4727 71.0325 57.0859 70.0041 56.757C69.0985 56.4698 69.534 55.0616 70.4419 55.3488C71.3335 55.6337 72.2113 55.9603 73.0937 56.2729C73.0382 54.2325 72.6305 52.148 72.1349 50.2443C71.4239 50.0891 70.7082 50.0659 69.9833 50.2141C69.0499 50.4017 68.7187 48.9681 69.6498 48.7782C70.3353 48.6392 71.0209 48.6184 71.6995 48.6902C71.6624 48.5651 71.6277 48.4377 71.5906 48.315C71.0834 46.6289 70.4697 44.9822 69.8165 43.3517C69.71 43.2405 69.6544 43.0876 69.6451 42.9232C69.6266 42.8792 69.6104 42.8352 69.5919 42.7912C69.1032 42.5874 68.5774 42.6105 68.0656 42.8097C67.6904 42.9556 67.2735 42.8862 67.0697 42.5017C66.8983 42.1774 67.0048 41.6517 67.3777 41.5058C67.8965 41.3043 68.4153 41.1954 68.9295 41.1954C68.2648 39.6159 67.5838 38.041 66.9307 36.4545C66.4814 36.4522 66.0321 36.4707 65.5828 36.4522C64.6332 36.4081 64.6818 34.9351 65.6314 34.9791C65.8653 34.9884 66.1016 34.9838 66.3355 34.9791C66.0923 34.3608 65.8538 33.7377 65.6268 33.1101C65.5967 33.0823 65.5666 33.0522 65.5411 33.0151C63.7809 30.6667 61.3212 29.2261 58.667 28.1746C58.4771 28.2047 58.2849 28.1723 58.1459 28.0565C58.1459 28.0264 58.1413 28.0009 58.139 27.9708C57.8796 27.8735 57.6179 27.7785 57.3562 27.6882C57.2635 27.6975 57.1616 27.6882 57.0528 27.6558C55.4501 27.1578 53.6296 27.0305 51.9181 26.8405C51.9088 27.3292 51.9019 27.8179 51.9366 28.3043C51.9644 28.705 51.5475 29.0292 51.1769 29.0176C50.7438 29.0037 50.4914 28.6563 50.4636 28.2557C50.4265 27.7253 50.4381 27.1903 50.4474 26.6576C49.111 26.4792 47.77 26.3241 46.4267 26.2013C46.4591 26.9008 46.517 27.6002 46.5356 28.2997C46.561 29.2516 45.088 29.196 45.0626 28.251C45.044 27.5261 44.9815 26.8012 44.9491 26.0739C44.3307 26.0299 43.7123 25.9929 43.0939 25.9651C42.0355 25.9188 40.9562 25.9095 39.8723 25.9465C39.9997 26.5835 40.1525 27.2157 40.2961 27.848C40.5046 28.7768 39.0686 29.108 38.8602 28.1815C38.7004 27.4659 38.522 26.7525 38.3877 26.0322C36.7016 26.1712 35.0271 26.4584 33.4406 26.9679C33.7857 27.7855 34.147 28.5961 34.5546 29.3836C34.9947 30.2289 33.6907 30.9145 33.2507 30.0691C32.813 29.2284 32.4308 28.3599 32.0626 27.4844C30.6845 28.068 29.3898 28.8416 28.2387 29.8769C28.1392 29.9672 28.0442 30.0599 27.9516 30.1502C27.8867 30.2567 27.7987 30.347 27.6922 30.4119C27.625 30.4837 27.5555 30.5509 27.4907 30.6227C28.3082 31.2086 29.1258 31.7969 29.941 32.3829C30.71 32.9341 29.9202 34.1801 29.1466 33.6243C28.2897 33.0105 27.4328 32.3944 26.5758 31.7784C25.1515 33.9114 24.9662 36.2321 25.5521 38.569ZM27.002 28.9505C27.9516 28.0356 29.0586 27.2899 30.2607 26.6923C28.7691 26.1573 26.8978 26.2291 25.5961 27.1486C24.2991 28.0657 25.9412 28.6702 27.002 28.9505ZM8.57778 33.7679C13.9533 32.7395 18.472 29.321 23.609 27.6905C23.6252 27.5215 23.6669 27.3547 23.7271 27.1926C19.8106 27.936 15.7436 27.9337 11.9407 29.24C10.0485 29.8908 7.85517 30.7917 7.13025 32.8414C7.08855 32.9595 7.06308 33.0615 7.04456 33.1541C7.07466 33.2722 7.07235 33.3996 7.03297 33.5316C7.14183 34.011 7.82507 33.9114 8.57778 33.7679ZM7.13718 35.3775C6.79673 35.3057 6.48406 35.183 6.21308 34.9907C6.18993 34.9745 6.1714 34.956 6.14824 34.9398C4.30003 37.7607 2.54214 40.5747 1.78943 43.8473C4.14485 41.5058 5.6966 38.3328 7.13718 35.3775Z" fill="#FF5B0D"/>
<path d="M62.9838 59.4317C70.0014 56.8354 64.4892 44.2013 62.9977 39.4511C62.7105 38.5432 64.1256 38.1217 64.4081 39.0273C66.1961 44.7155 71.7454 57.7572 63.4076 60.8422C62.5136 61.1734 62.099 59.7583 62.9838 59.4317Z" fill="#FF5B0D"/>
</svg>
