<svg width="200" height="132" viewBox="0 0 200 132" fill="none" xmlns="http://www.w3.org/2000/svg">
<path d="M199.16 34.5093C196.051 30.478 188.816 32.2925 184.268 31.8142C182.663 30.2768 180.81 29.0052 178.814 28.0296C178.514 16.9607 170.698 6.37001 160.513 2.29697C149.232 -2.2202 135.21 0.175041 125.503 7.29243C113 16.4596 111.447 34.9269 118.739 47.4497C94.1034 39.9413 66.9548 39.8882 42.3382 47.2675C29.4168 51.1393 12.9234 58.8716 6.69429 71.8348C6.61457 71.831 6.53865 71.8234 6.45514 71.8348C3.11851 72.1233 0.476541 74.1807 0.0400083 77.597C-0.244687 79.8404 1.02316 81.4119 2.78827 82.0307C1.01177 85.3597 3.13749 89.3872 6.54245 89.7516C5.79845 91.604 5.78326 93.65 7.23331 95.3848C7.63948 95.8707 8.06462 96.2578 8.50495 96.5653C12.764 108.458 24.7706 116.194 35.794 121.433C49.8275 128.106 64.9202 131.029 80.4304 131.139C98.7648 131.268 117.445 127.715 134.363 120.745C140.11 118.377 145.493 114.995 150.424 111.252C152.77 109.472 156.418 105.691 158.391 101.826C158.832 101.633 159.264 101.413 159.678 101.143C162.407 99.3515 163.114 96.3717 162.316 93.5475C168.079 93.2666 171.256 85.466 167.414 80.6565C170.003 73.4518 170.132 65.6854 165.786 59.3347C169.369 57.1483 172.49 54.1647 174.247 50.327C179.671 51.3557 184.781 52.3123 190.403 51.0634C192.042 50.699 193.587 49.9967 194.259 48.3873C194.87 46.9296 193.584 45.5745 192.304 44.6065C192.741 44.4053 193.105 44.2307 193.363 44.0941C196.226 42.5947 202.2 38.4571 199.16 34.5093ZM2.83382 77.6312C2.94011 76.1887 4.17378 75.217 5.48338 74.8184C4.97093 76.3406 4.59893 77.9273 4.38256 79.5785C3.26655 79.6013 2.74272 78.8421 2.83382 77.6312ZM5.48718 82.8316C6.18184 84.183 6.9638 85.4622 7.82168 86.6769C5.4682 87.1552 3.49052 84.9194 5.48718 82.8316ZM9.9588 89.4024C11.2646 90.9018 12.6919 92.2949 14.2216 93.5893C10.5927 95.9466 7.7078 92.7162 9.9588 89.4024ZM145.945 111.039C141.158 114.372 136.132 117.082 130.704 119.235C114.867 125.517 97.4628 128.277 80.4608 128.353C65.8388 128.417 51.6724 125.494 38.3486 119.554C28.1338 115.002 16.6472 108.014 11.9099 97.4725C13.0335 97.3663 14.1609 96.9373 15.2276 96.2882C15.9678 99.4654 17.3988 102.411 20.0522 104.465C20.9784 105.182 22.5613 105.531 23.7001 105.315C24.6832 105.121 25.0704 104.958 26.008 104.56C26.3648 104.408 26.6154 104.271 26.7938 104.15C28.316 109.969 34.7539 112.58 39.0395 109.008C41.2601 114.957 48.2067 118.996 52.9288 114.835C54.8647 120.001 62.2023 121.972 65.9944 118.179C68.6896 124.181 78.0503 123.721 82.7611 118.76C83.934 121.19 86.3672 122.753 89.4571 122.856C92.8507 122.97 95.5041 121.019 96.863 118.259C98.5864 120.468 101.084 121.926 104.098 121.964C107.587 122.009 109.758 119.599 110.749 116.669C115.831 121.379 126.004 120.165 127.003 113.169C132.218 115.279 138.945 114.194 139.765 108.481C144.794 110.31 151.13 107.805 151.722 102.092C152.546 102.373 153.404 102.525 154.265 102.574C151.832 106.416 148.017 109.597 145.945 111.039ZM18.2264 96.6109C20.6823 98.2811 23.2977 99.7577 25.9966 101.086C21.9008 104.282 19.4107 100.498 18.2264 96.6109ZM29.2801 102.616C32.1764 103.895 35.1259 105.026 38.0336 106.055C35.3157 109.479 30.8516 107.767 29.5041 103.683C29.375 103.288 29.3181 102.935 29.2801 102.616ZM41.3398 107.198C41.5068 107.255 41.6777 107.312 41.8447 107.369C45.3787 108.545 48.9659 109.703 52.5796 110.777C49.1405 116.87 42.5849 112.493 41.3398 107.198ZM55.2709 111.563C58.562 112.497 61.8758 113.343 65.1973 114.053C63.3904 120.108 54.9217 117.299 55.2709 111.563ZM68.0518 114.626C68.2682 114.668 68.4846 114.714 68.701 114.755C72.8423 115.522 77.0406 115.963 81.2579 116.152C77.5531 120.711 68.2682 122.021 68.0518 114.626ZM84.8717 116.247C88.1931 116.281 91.5183 116.168 94.8284 115.932C93.3935 120.954 85.7523 121.493 84.8717 116.247ZM98.4307 115.629C99.8998 115.484 101.361 115.321 102.819 115.139C104.686 114.903 106.569 114.649 108.46 114.38C107.552 120.419 101.111 120.108 98.4307 115.629ZM112.032 113.848C116.067 113.214 120.113 112.463 124.125 111.533C124.137 111.544 124.148 111.555 124.16 111.563C124.213 111.605 124.266 111.639 124.319 111.677C124.835 118.039 115.55 117.914 112.032 113.848ZM128.153 110.527C131.186 109.714 134.173 108.784 137.096 107.699C136.952 112.026 131.854 111.939 128.153 110.527ZM141.131 106.086C143.781 104.943 146.358 103.664 148.841 102.21C148.089 105.528 144.316 107.084 141.131 106.086ZM153.043 99.5072C153.366 99.2794 153.7 99.0706 154.018 98.8353C155.913 97.4498 157.761 95.7492 159.481 93.8284C161.079 97.9964 156.827 100.399 153.043 99.5072ZM162.017 90.7044C163.569 88.5862 164.947 86.2859 166.074 83.8793C167.145 86.9084 165.22 90.6019 162.017 90.7044ZM160.213 59.0425C158.558 59.7333 159.948 62.1589 161.591 61.4719C162.18 61.2251 162.764 60.9556 163.341 60.6747C168.23 67.3897 166.055 78.2006 162.582 85.0826C159.747 90.693 154.967 94.9976 149.74 98.395C149.577 98.4557 149.429 98.5544 149.296 98.6796C148.446 99.2225 147.584 99.7425 146.715 100.24C132.101 108.617 113.694 111.419 97.2009 112.949C78.187 114.71 60.5359 110.538 42.6191 104.689C29.0372 100.255 13.3296 93.7715 7.14221 79.8632C9.32108 62.4284 30.9124 53.47 45.6103 49.2148C69.9878 42.1581 97.3147 43.1451 121.343 51.219C125.279 55.9905 130.814 59.3613 137.783 60.1129C139.575 60.3065 139.594 57.5127 137.821 57.3191C131.949 56.6852 127.28 53.823 123.837 49.7386C123.746 49.3932 123.522 49.0857 123.15 48.8921C120.591 45.5745 118.781 41.5584 117.76 37.2955C115.194 26.6176 118.955 15.522 127.838 9.01199C135.916 3.08653 147.907 1.25689 157.427 4.11143C167.49 7.1292 175.576 17.2302 176.008 27.7981C175.796 28.0069 175.636 28.284 175.587 28.637C174.763 34.403 171.791 39.5807 167.733 43.6841C167.729 43.6841 167.729 43.6879 167.729 43.6879C167.346 43.8967 167.05 44.2687 167.001 44.8153C166.708 48.0153 168.557 49.4273 171.396 49.7918C169.028 54.1912 164.776 57.1293 160.213 59.0425ZM189.693 48.3607C188.174 48.7669 186.572 48.8618 185.008 48.9415C183.558 49.0098 182.135 48.9111 180.719 48.7251C183.805 47.9279 186.869 46.8461 189.26 45.8971C189.306 45.9351 189.347 45.973 189.4 46.0034C191.317 47.2181 192.111 47.7154 189.693 48.3607ZM191.985 41.6647C189.803 42.8794 170.914 50.1752 169.84 45.5175C173.898 41.361 176.779 36.3352 178.001 30.6944C179.413 31.4232 180.734 32.3646 181.911 33.4275C181.957 33.9058 182.256 34.3233 182.898 34.4258C186.348 34.9876 189.89 34.5966 193.367 34.9231C200.025 35.5418 195.144 39.9071 191.985 41.6647Z" fill="#FF5B0D"/>
<path d="M149.091 22.8631C144.605 25.5658 144.677 32.9906 148.943 35.9553C152.041 38.1038 158.012 38.9768 160.532 35.9894C163.937 34.2471 164.351 28.6215 162.495 25.2507C160.487 20.2591 153.275 18.9912 149.091 22.8631ZM151.585 25.6986C151.79 25.2583 152.219 24.9774 152.694 24.8408L153.4 24.8484C154.129 24.8597 156.034 25.3077 154.869 27.794C154.121 29.3997 150.192 28.724 151.585 25.6986ZM159.333 32.7515C158.426 34.1218 157.697 35.2303 153.275 34.6077C151.532 34.3648 151.559 31.9012 153.309 31.8822C153.95 31.8746 156.258 31.6355 156.619 31.0889C157.029 30.4701 157.488 28.2381 159.375 29.1264C160.411 29.6085 159.743 32.1366 159.333 32.7515Z" fill="#FF5B0D"/>
<path d="M125.215 70.4386C124.372 74.189 122.451 77.1499 119.84 79.4882C116.298 75.0241 109.579 72.9971 104.311 71.5129C97.1705 69.501 89.6356 68.7153 82.2411 68.5483C69.76 68.2674 53.9803 70.0249 45.2458 80.031C42.0952 77.7344 39.6962 74.7129 38.5346 70.7082C38.0336 68.981 35.3309 69.6795 35.8319 71.4142C41.0931 89.574 67.3724 89.7903 82.5447 90.5002C97.5007 91.1986 123.791 89.4487 127.895 71.213C128.293 69.4631 125.61 68.6849 125.215 70.4386ZM82.5865 87.714C73.0131 87.3078 57.6168 87.2053 47.5917 81.538C55.4455 72.6251 69.9954 71.3573 81.0378 71.3307C87.6161 71.3155 94.2135 72.0557 100.632 73.4716C105.932 74.6369 114.18 76.645 117.65 81.2039C108.145 87.7026 92.3838 88.1315 82.5865 87.714Z" fill="#FF5B0D"/>
<path d="M48.0624 62.1091C50.3627 60.2339 53.5855 59.8049 56.4058 59.2393C58.1709 58.8825 57.4611 56.1836 55.6998 56.5366C52.3176 57.2161 48.8557 57.8728 46.115 60.1086C44.7181 61.2474 46.6768 63.2403 48.0624 62.1091Z" fill="#FF5B0D"/>
<path d="M64.962 57.4141C71.6391 55.8844 78.2554 56.3247 84.997 57.0232C86.7887 57.2092 86.8114 54.4153 85.0312 54.2293C78.039 53.5043 71.1608 53.1285 64.2522 54.7076C62.5023 55.11 63.2083 57.8127 64.962 57.4141Z" fill="#FF5B0D"/>
</svg>
