<svg width="168" height="163" viewBox="0 0 168 163" fill="none" xmlns="http://www.w3.org/2000/svg">
<path d="M57.2183 87.8768C57.3742 88.2108 58.2203 89.2462 58.4319 89.4466C72.7829 116.512 110.292 106.837 113.197 78.135C115.023 60.1099 95.4618 43.8996 78.1604 47.6182C59.445 51.6485 48.9239 70.2748 57.2183 87.8768ZM83.8051 52.6171C100.104 52.2719 110.837 69.6068 106.584 84.225C100.372 105.601 66.704 103.608 61.1596 83.557C60.948 82.7888 60.4804 82.0874 60.4582 81.1522C56.4612 66.5117 68.3295 52.9511 83.8051 52.6171Z" fill="#FF5B0D"/>
<path d="M57.6413 50.8254C60.0016 53.4307 63.8426 49.5673 61.4823 46.9844C46.775 30.8074 30.8319 15.8552 15.0335 0.769316C12.4951 -1.64665 8.65401 2.18327 11.1924 4.61037C26.9908 19.6962 42.9451 34.6374 57.6413 50.8254Z" fill="#FF5B0D"/>
<path d="M72.5711 40.5594C73.896 43.7547 79.151 42.3519 77.815 39.1121C73.3616 28.3237 70.0104 17.168 67.394 5.81185C66.6036 2.39387 61.3708 3.84123 62.1502 7.25921C64.7665 18.6154 68.1177 29.7711 72.5711 40.5594Z" fill="#FF5B0D"/>
<path d="M95.3618 40.7383C95.295 32.0876 97.0096 23.5593 96.9428 14.9086C96.9205 11.4016 91.4762 11.4016 91.5096 14.9086C91.5764 23.5593 89.8619 32.0876 89.9287 40.7383C89.9509 44.2453 95.3841 44.2453 95.3618 40.7383Z" fill="#FF5B0D"/>
<path d="M109.29 49.456C113.253 45.0694 116.871 40.0593 119.688 34.86C121.358 31.776 116.66 29.0261 114.99 32.1212C112.396 36.9308 109.111 41.5623 105.449 45.6149C103.099 48.209 106.94 52.0612 109.29 49.456Z" fill="#FF5B0D"/>
<path d="M165.369 45.5039C164.734 45.5039 164.222 45.682 163.821 45.9715C156.863 48.8328 149.581 50.347 142.378 52.4289C133.783 54.9117 125.4 57.8398 116.615 59.6546C113.186 60.3671 114.634 65.5998 118.063 64.8984C125.722 63.3175 133.137 60.9906 140.597 58.6637C148.947 56.0584 157.553 54.4664 165.636 51.0818C165.77 51.0261 165.881 50.9593 165.992 50.8925C168.865 50.2579 168.653 45.5039 165.369 45.5039Z" fill="#FF5B0D"/>
<path d="M29.0283 54.4331C25.7662 53.1416 24.3633 58.3966 27.5809 59.677C33.8491 62.1597 40.0059 64.8986 46.185 67.5595C49.3691 68.9289 52.1414 64.2417 48.9238 62.8611C42.3105 60.0221 35.7195 57.094 29.0283 54.4331Z" fill="#FF5B0D"/>
<path d="M44.5706 78.4474C30.4534 81.4089 16.2471 83.8248 1.97395 85.9291C-1.48856 86.4412 -0.00780242 91.6739 3.42131 91.1729C17.6944 89.0798 31.9007 86.6639 46.018 83.6912C49.4471 82.9676 47.9886 77.7348 44.5706 78.4474Z" fill="#FF5B0D"/>
<path d="M52.3083 94.3578C44.6819 99.9023 37.4563 105.948 30.2307 112.004C27.5364 114.264 31.4108 118.083 34.0717 115.845C40.9411 110.089 47.7881 104.322 55.0472 99.0562C57.8528 97.0187 55.1474 92.2981 52.3083 94.3578Z" fill="#FF5B0D"/>
<path d="M64.2435 108.698C54.6798 125.342 44.3703 141.519 37.2337 159.422C35.9311 162.684 41.1972 164.087 42.4776 160.869C49.4249 143.434 59.6231 127.669 68.9418 111.448C70.6898 108.397 65.9915 105.658 64.2435 108.698Z" fill="#FF5B0D"/>
<path d="M80.4094 114.598C81.4559 124.685 81.3891 134.839 81.9903 144.959C82.2018 148.444 87.635 148.466 87.4234 144.959C86.8111 134.839 86.8779 124.696 85.8425 114.598C85.4862 111.147 80.0531 111.113 80.4094 114.598Z" fill="#FF5B0D"/>
<path d="M101.563 110.056C99.6146 107.161 94.9051 109.878 96.8646 112.795C106.194 126.667 112.429 142.142 119.521 157.206C121.013 160.379 125.7 157.618 124.22 154.467C117.128 139.415 110.893 123.928 101.563 110.056Z" fill="#FF5B0D"/>
<path d="M135.965 110.166C128.818 107.35 122.394 103.007 115.313 100.013C112.128 98.6654 109.345 103.341 112.574 104.711C120.089 107.884 126.914 112.415 134.518 115.41C137.78 116.702 139.183 111.436 135.965 110.166Z" fill="#FF5B0D"/>
<path d="M162.697 89.3248C149.481 86.9979 136.31 84.5374 123.496 80.4848C120.145 79.4271 118.719 84.671 122.048 85.7287C134.863 89.7813 148.034 92.2418 161.249 94.5687C164.678 95.1699 166.148 89.926 162.697 89.3248Z" fill="#FF5B0D"/>
</svg>
