<svg width="660" height="563" viewBox="0 0 660 563" fill="none" xmlns="http://www.w3.org/2000/svg">
<path d="M557.333 383.342C556.128 383.342 555.118 383.963 554.497 385.095C552.61 388.54 547.108 392.545 542.859 392.545C540.485 392.545 538.805 391.316 537.88 388.893C537.32 387.408 536.017 386.531 534.41 386.531C533.157 386.531 531.988 387.091 531.367 388.004C530.807 388.808 530.722 389.83 531.124 390.865C533.217 396.343 537.454 399.35 543.042 399.35C549.81 399.35 557.199 394.846 560.608 388.637C561.229 387.505 561.229 386.3 560.608 385.241C559.926 384.109 558.624 383.342 557.333 383.342Z" fill="#FF5B0D"/>
<path d="M493.47 458.624C493.677 457.126 492.996 455.373 490.999 454.825C487.542 453.864 484.985 451.149 482.271 448.276C479.933 445.793 477.511 443.236 474.419 441.8C472.191 440.765 469.732 440.29 466.676 440.29C464.278 440.29 461.807 440.594 459.421 440.887C456.219 441.276 452.774 441.641 450.01 441.349C447.734 441.13 446.651 442.737 446.565 444.344C446.468 446.121 447.612 448.154 449.901 448.398C450.838 448.495 451.812 448.544 452.883 448.544C455.075 448.544 457.254 448.325 459.36 448.118C461.454 447.911 463.438 447.716 465.41 447.716C468.709 447.716 472.994 448.203 476.926 452.013C477.888 452.951 478.765 453.9 479.617 454.825C482.246 457.686 484.73 460.401 489.124 461.618C489.465 461.716 489.806 461.764 490.135 461.764C492.046 461.764 493.251 460.182 493.47 458.624Z" fill="#FF5B0D"/>
<path d="M552.634 468.083C552.245 468.083 551.843 468.095 551.454 468.107C552.708 467.681 553.73 466.598 553.73 464.893V464.224C553.73 459.72 546.682 459.72 546.682 464.224V464.893C546.682 466.756 547.911 467.876 549.323 468.205C547.509 468.314 545.805 468.497 544.393 468.667C542.981 468.838 541.605 469.008 540.254 469.191C534.581 469.909 529.225 470.591 524.136 470.591C515.407 470.591 508.128 468.521 500.556 463.859C499.971 463.493 499.363 463.311 498.754 463.311C497.257 463.311 495.905 464.431 495.455 466.026C495.017 467.584 495.601 469.081 496.989 469.921C508.274 476.86 518.877 479.49 529.541 478.053C531.379 477.81 533.619 477.347 535.993 476.86C540.948 475.838 546.572 474.681 551.709 474.681C558.307 474.681 562.507 476.641 564.552 480.658C565.137 481.803 566.147 482.46 567.34 482.46C568.606 482.46 569.872 481.73 570.566 480.597C571.224 479.526 571.26 478.297 570.676 477.14C567.535 471.053 561.643 468.083 552.634 468.083Z" fill="#FF5B0D"/>
<path d="M194.059 429.844L193.402 429.99C191.272 430.489 189.153 430.976 187.06 431.439C185.319 431.828 184.321 433.216 184.515 434.994C184.698 436.613 185.988 438.341 188.033 438.341C188.313 438.341 188.593 438.305 188.886 438.244L190.468 437.891C203.811 434.908 217.603 431.828 231.481 431.816C233.904 431.816 236.314 431.914 238.652 432.096C242.048 432.364 245.493 432.79 248.841 433.192C254.623 433.886 260.588 434.616 266.48 434.616C270.583 434.616 274.284 434.275 277.778 433.557C279.506 433.204 280.517 431.841 280.346 430.088C280.164 428.225 278.544 426.229 275.976 426.74C274.953 426.947 273.858 427.129 272.543 427.288C270.826 421.676 269.646 415.991 268.489 410.476C265.336 395.381 262.366 381.125 249.303 369.792C246.784 367.6 243.886 365.823 240.721 364.496C240.21 362.999 238.725 361.574 236.558 361.915C235.572 362.074 234.622 362.268 233.733 362.475C231.871 362.159 229.96 361.988 228.06 361.988C218.577 361.988 209.63 365.957 203.518 372.884C202.557 373.967 202.338 375.404 202.922 376.718C203.531 378.07 204.833 378.983 206.172 378.971C207.061 378.971 207.889 378.569 208.546 377.826C210.92 375.136 213.574 373.054 216.459 371.593C201.631 385.289 197.48 409.745 194.108 429.601L194.059 429.844ZM233.186 369.986C241.098 372.007 248.561 377.522 253.649 385.155C259.079 393.287 260.783 403.476 262.439 413.325C263.242 418.133 264.082 423.1 265.336 427.738H265.287C259.103 427.738 252.749 426.91 246.601 426.119C241.987 425.523 237.227 424.902 232.613 424.646C231.347 424.573 230.02 424.536 228.706 424.536C219.368 424.536 210.116 426.253 201.473 428.152C205.089 406.495 210.214 377.315 233.186 369.986Z" fill="#FF5B0D"/>
<path d="M186.147 455.119C190.079 455.119 193.061 456.275 195.508 458.747C196.19 459.428 197.006 459.794 197.882 459.794C199.294 459.794 200.682 458.832 201.254 457.444C201.79 456.142 201.51 454.802 200.487 453.768C196.787 450.043 192.635 448.302 187.437 448.302C183.956 448.302 180.474 449.044 176.785 449.836C172.598 450.724 168.264 451.662 163.954 451.394C161.653 451.284 160.558 453.001 160.509 454.62C160.448 456.422 161.605 458.308 163.893 458.455C167.606 458.674 171.697 457.724 175.641 456.811C179.159 455.971 182.811 455.119 186.147 455.119Z" fill="#FF5B0D"/>
<path d="M255.549 452.377C250.4 450.381 245.08 448.324 239.553 447.143C238.165 446.851 236.729 446.692 235.292 446.692C229.315 446.692 223.764 449.249 218.383 451.732C215.985 452.84 213.513 453.972 211.054 454.861C209.07 455.579 208.449 457.442 208.717 458.988C209.082 461.106 210.994 462.348 213.002 461.629C215.473 460.741 217.847 459.682 220.148 458.647C225.395 456.285 230.35 454.07 235.998 454.07C237.483 454.07 238.993 454.228 240.466 454.544C245.311 455.579 250.047 457.503 254.624 459.353C258.495 460.923 262.488 462.542 266.566 463.65C266.895 463.735 267.236 463.784 267.552 463.784C269.488 463.784 270.705 462.189 270.912 460.607C271.107 459.122 270.413 457.381 268.429 456.845C264.046 455.664 259.725 453.984 255.549 452.377Z" fill="#FF5B0D"/>
<path d="M156.845 470.895C151.671 469.458 146.717 467.218 141.932 465.039C137.258 462.921 132.425 460.73 127.361 459.269C125.182 458.636 122.905 458.319 120.604 458.319C114.688 458.319 108.565 460.304 101.333 464.564C99.9456 465.38 99.3369 466.853 99.763 468.399C100.201 470.006 101.613 471.163 103.123 471.163C103.719 471.163 104.328 470.992 104.9 470.651C110.464 467.377 115.37 465.843 120.336 465.843C124.463 465.843 128.675 466.865 133.618 469.069C134.933 469.653 136.235 470.25 137.526 470.834C143.332 473.476 148.823 475.971 154.97 477.688C155.311 477.785 155.652 477.834 155.981 477.834C157.892 477.834 159.097 476.251 159.316 474.693C159.523 473.196 158.829 471.443 156.845 470.895Z" fill="#FF5B0D"/>
<path d="M192.197 466.427C189.081 466.427 185.672 467.048 182.337 468.228C180.352 468.935 179.719 470.797 179.987 472.343C180.352 474.474 182.263 475.727 184.284 475.009C190.347 472.867 195.265 472.976 198.893 475.314C199.489 475.703 200.098 475.898 200.731 475.898C202.167 475.898 203.506 474.802 203.957 473.244C204.42 471.674 203.86 470.14 202.484 469.251C199.587 467.376 196.117 466.427 192.197 466.427Z" fill="#FF5B0D"/>
<path d="M314.542 446.948C315.163 446.328 315.48 445.5 315.48 444.538C315.468 430.015 317.196 415.382 318.876 401.236C320.276 389.404 321.725 377.169 322.151 365.032C322.187 364.07 321.883 363.23 321.287 362.609C320.666 361.964 319.728 361.587 318.73 361.587C316.989 361.587 315.175 362.756 315.102 364.996C314.676 377.084 313.228 389.306 311.828 401.115C310.148 415.297 308.407 429.966 308.419 444.55C308.419 446.802 310.196 447.983 311.949 447.983C312.948 447.959 313.897 447.594 314.542 446.948Z" fill="#FF5B0D"/>
<path d="M336.979 464.638C341.836 464.638 346.766 464.321 351.55 464.017L353.036 463.919C360.912 463.42 367.973 462.714 374.632 461.765C379.647 461.059 384.578 459.89 388.717 458.855C390.238 458.478 392.016 457.686 393.89 456.859C396.617 455.653 399.442 454.4 401.499 454.4C403.751 454.4 404.932 452.622 404.932 450.869C404.932 449.116 403.751 447.339 401.499 447.339C398.602 447.339 395.181 448.763 391.87 450.151C390.056 450.906 388.351 451.624 386.842 452.05C377.821 454.619 368.277 455.678 359.293 456.457C357.978 456.566 356.627 456.688 355.276 456.81C349.469 457.346 343.467 457.893 337.478 457.893C328.664 457.893 321.847 456.713 316.003 454.156C315.504 453.937 315.005 453.827 314.494 453.827C312.546 453.827 311.061 455.41 310.732 456.944C310.428 458.417 311.11 459.659 312.546 460.292C319.351 463.262 327.106 464.638 336.979 464.638Z" fill="#FF5B0D"/>
<path d="M432.395 452.135C431.652 448.751 430.691 445.391 429.303 442.141C429.266 442.068 429.242 442.007 429.193 441.958C428.913 441.094 428.353 440.437 427.611 440.12C424.19 438.647 420.733 437.673 417.044 437.162C414.768 426.096 413.648 414.495 412.564 403.271C412.175 399.217 411.773 395.017 411.322 390.963L410.921 387.36C409.082 370.73 407.171 353.541 404.554 336.717C404.359 335.427 403.665 334.782 403.069 334.465C397.834 327.027 379.074 324.86 372.002 324.032L371.356 323.959C360.327 322.669 348.543 322.815 336.175 324.397C319.655 326.516 308.711 331.105 302.721 338.434C301.358 338.933 300.603 340.126 300.713 341.648C301.662 354.722 299.714 367.943 297.828 380.725C297.28 384.414 296.72 388.224 296.245 391.961L295.685 396.307C294.626 404.5 293.53 412.973 292.629 421.336C292.203 425.244 291.996 429.273 291.789 433.157C291.619 436.395 291.436 439.731 291.144 443.005C291.035 443.054 290.913 443.103 290.803 443.164C281.71 447.875 277.972 456.883 279.409 470.603C271.642 473.001 263.924 477.761 256.997 484.493C256.875 484.615 256.766 484.736 256.668 484.858C250.789 485.552 245.055 487.354 239.516 489.095C234.89 490.543 230.093 492.053 225.175 492.941C223.447 493.246 222.436 494.573 222.582 496.301C222.741 498.006 224.067 499.832 226.259 499.832C226.49 499.832 226.721 499.807 226.965 499.771C231.603 498.931 236.217 497.397 240.672 495.912C247.246 493.721 254.051 491.444 260.99 491.444C262.451 491.444 263.9 491.542 265.3 491.748C265.494 491.773 265.677 491.785 265.86 491.785C268.075 491.785 269.524 489.91 269.658 488.109C269.767 486.477 268.818 485.248 267.199 484.956C272.141 481.133 277.266 478.467 282.464 477.043C282.513 477.031 282.55 477.006 282.586 476.994C291.023 484.651 306.02 489.655 327.263 491.907C338.268 500.574 352.475 507.221 370.224 512.042C380.84 514.927 391.151 516.327 401.754 516.327C415.303 516.327 429.23 513.978 444.35 509.157H444.386C445.25 509.157 446.054 508.828 446.736 508.207C452.53 502.875 455.793 494.488 456.681 482.557C457.217 481.949 457.485 481.17 457.473 480.293C457.302 466.464 444.788 455.361 432.395 452.135ZM430.946 474.243C434.671 477.067 440.843 481.961 439.224 486.319C439.005 486.916 438.932 487.5 439.03 488.048C429.4 494.086 415.802 495.364 406.039 495.376C399.076 495.376 392.952 494.743 389.045 494.22C384.017 493.538 379.135 492.588 374.4 491.408C381.022 490.495 388.046 489.216 395.618 487.561C406.709 485.114 420.246 482.119 430.946 474.243ZM342.675 330.716C350.016 329.973 357.783 329.9 365.72 330.484C373.061 331.02 380.109 332.103 386.634 333.674C391.333 334.806 396.178 337.131 396.324 339.395C396.41 340.771 394.693 342.183 391.345 343.474C381.619 347.211 370.504 347.369 359.743 347.515C357.077 347.552 354.447 347.588 351.879 347.686C350.065 347.747 347.959 347.905 345.719 348.063C341.908 348.331 337.599 348.635 333.289 348.635C321.031 348.635 313.665 346.091 310.184 340.637C318.218 333.199 334.093 331.592 342.675 330.716ZM286.433 470.676C285.325 462.106 286.543 456.238 290.243 452.318C290.402 452.878 290.694 453.377 291.108 453.815C291.85 454.582 292.909 455.045 293.969 455.045C295.539 455.045 296.695 454.047 296.988 452.44C298.753 442.457 299.52 432.049 300.262 421.994C300.81 414.543 301.382 406.837 302.356 399.387C302.94 394.846 303.659 390.196 304.34 385.704C306.179 373.676 308.066 361.259 308.041 349C313.337 353.48 321.505 355.574 333.594 355.574C338.134 355.574 342.675 355.282 346.668 355.039C348.969 354.892 351.148 354.759 353.096 354.686C354.691 354.625 356.285 354.576 357.88 354.527C365.136 354.296 372.635 354.065 379.975 353.079L380.998 352.945C386.549 352.214 394.048 351.216 399.076 347.698C401.024 361.624 402.606 375.807 404.128 389.551L405.15 398.766C405.528 402.114 405.869 405.51 406.209 408.931C407.573 422.505 408.985 436.553 412.808 449.494C413.258 451.028 414.524 451.977 416.119 451.977C417.312 451.977 418.48 451.417 419.15 450.529C419.759 449.713 419.917 448.678 419.6 447.607C419.333 446.694 419.101 445.769 418.858 444.843L418.785 444.563C420.258 444.892 421.767 445.367 423.289 445.963C425.651 451.697 426.527 458.015 427.379 464.127C427.55 465.344 427.72 466.549 427.903 467.766C418.651 475.265 406.611 477.931 394.961 480.512L393.792 480.768C381.156 483.58 369.214 485.236 357.491 485.856C346.461 481.267 336.795 475.168 329.138 467.803C328.943 467.62 328.724 467.45 328.469 467.292C327.616 466.33 326.375 465.928 325.072 466.22C320.227 467.316 316.624 470.42 314.457 472.831C313.592 473.792 313.312 475.022 313.69 476.227C313.519 477.262 313.775 478.248 314.432 479.088C315.443 480.378 316.514 481.632 317.622 482.862C307.153 481.17 292.422 475.959 286.433 470.676ZM442.609 502.291C428.317 506.868 415.108 509.084 402.229 509.084C392.344 509.084 382.495 507.818 372.111 505.2C350.162 499.674 332.547 489.618 321.14 476.118C322.382 475.022 323.721 474.182 325.109 473.61C345.792 492.881 373.852 499.6 393.78 501.84C397.493 502.254 401.352 502.473 405.236 502.473C416.435 502.473 436.644 500.672 448.781 488.912C447.649 494.731 445.616 499.126 442.609 502.291ZM446.127 481.693C444.642 476.763 440.028 472.502 435.073 468.619C435.061 468.57 435.061 468.509 435.049 468.46C435.061 468.205 435.049 467.961 435 467.718C434.757 466.184 434.525 464.65 434.294 463.128C434.148 462.106 433.99 461.083 433.831 460.048C440.515 462.763 447.235 468.253 449.572 475.351C448.744 477.639 447.588 479.77 446.127 481.693Z" fill="#FF5B0D"/>
<path d="M327.945 262.212C329.711 265 332.206 266.461 335.164 266.461C339.23 266.461 344.161 263.649 348.373 258.938C351.879 255.005 354.082 250.696 354.508 247.129C354.74 246.679 354.886 246.155 354.898 245.534C354.922 244.122 355.105 241.651 355.336 238.51C356.493 223.062 358.635 194.308 350.406 185.445C348.385 183.266 345.829 182.426 342.846 182.95C332.109 184.849 330.246 200.2 329.138 209.379C329.029 210.28 328.919 211.132 328.822 211.911C326.338 230.549 326.119 245.778 328.116 258.438C328.006 258.585 327.872 258.718 327.775 258.889C327.191 259.948 327.264 261.129 327.945 262.212ZM334.738 224.048L334.799 223.147C334.848 222.319 334.897 221.272 334.957 220.079C335.359 211.144 336.187 192.567 343.808 189.925C344.197 189.791 344.526 189.889 344.879 190.242C347.874 193.334 348.908 210.84 347.947 242.272C347.935 242.564 347.935 242.82 347.922 243.075C347.581 243.635 347.435 244.317 347.533 245.084C347.947 248.736 344.989 252.266 342.359 254.932C340.862 256.454 337.49 259.315 335.359 259.315C335.335 259.315 335.323 259.303 335.298 259.303C335.298 259.096 335.286 258.889 335.25 258.682C333.217 247.494 333.984 235.576 334.738 224.048Z" fill="#FF5B0D"/>
<path d="M325.462 292.16C322.187 289.64 318.292 288.313 314.201 288.313C307.129 288.313 300.141 292.319 296.258 298.552C292.63 296.263 288.905 295.106 285.167 295.106C270.352 295.106 257.874 313.829 256.62 330.568C256.547 331.53 256.815 332.37 257.399 332.991C258.008 333.648 258.921 334.013 259.919 334.013C261.66 334.013 263.498 332.857 263.669 330.641C264.521 319.259 273.469 302.033 284.985 302.033C288.369 302.033 291.765 303.494 295.101 306.379C295.819 307 296.696 307.341 297.584 307.341C299.118 307.341 300.433 306.355 300.957 304.821C302.843 299.221 308.042 295.459 313.873 295.459C316.746 295.459 319.485 296.397 321.798 298.174C322.407 298.649 323.052 298.88 323.709 298.88C325 298.88 326.205 297.894 326.704 296.433C327.142 295.167 327.045 293.366 325.462 292.16Z" fill="#FF5B0D"/>
<path d="M63.1936 472.476C62.0127 473.669 61.5014 474.813 61.4893 476.298C61.4893 477.26 61.8058 478.088 62.4144 478.709C63.0597 479.354 63.997 479.719 64.9831 479.719C66.4439 479.719 68.063 478.891 68.4404 477.065C69.5117 475.653 69.4021 473.693 68.1604 472.464C66.8578 471.161 64.4962 471.161 63.1936 472.476Z" fill="#FF5B0D"/>
<path d="M78.8613 467.62V469.629C78.8613 471.881 80.6387 473.05 82.3917 473.05C84.1447 473.05 85.922 471.869 85.922 469.629V467.62C85.922 463.116 78.8613 463.116 78.8613 467.62Z" fill="#FF5B0D"/>
<path d="M67.0162 456.067H65.6771C63.425 456.067 62.2441 457.845 62.2441 459.598C62.2441 461.351 63.425 463.128 65.6771 463.128H67.0162C69.2683 463.128 70.4492 461.351 70.4492 459.598C70.4492 457.845 69.2683 456.067 67.0162 456.067Z" fill="#FF5B0D"/>
<path d="M42.291 466.098H41.6214C39.3693 466.098 38.1885 467.875 38.1885 469.628C38.1885 471.381 39.3693 473.158 41.6214 473.158H42.291C44.5431 473.158 45.724 471.381 45.724 469.628C45.724 467.875 44.5431 466.098 42.291 466.098Z" fill="#FF5B0D"/>
<path d="M54.1357 468.958V469.628C54.1357 471.88 55.9131 473.049 57.6661 473.049C59.4191 473.049 61.1964 471.868 61.1964 469.628V468.958C61.1843 464.454 54.1357 464.454 54.1357 468.958Z" fill="#FF5B0D"/>
<path d="M0 464.284V464.954C0 467.206 1.77734 468.375 3.53035 468.375C5.28335 468.375 7.0607 467.194 7.0607 464.954V464.284C7.0607 459.78 0 459.78 0 464.284Z" fill="#FF5B0D"/>
<path d="M38.8337 449.639C38.3589 448.227 37.1659 447.387 35.6077 447.387C33.1121 447.399 31.4321 449.091 31.4199 451.574C31.4199 452.536 31.7364 453.364 32.3451 453.985C32.9903 454.63 33.9277 454.995 34.9259 454.995C36.0581 454.995 37.1172 454.508 37.7624 453.705C38.8945 452.804 39.3328 451.136 38.8337 449.639Z" fill="#FF5B0D"/>
<path d="M13.5492 448.058C11.0537 448.07 9.37368 449.762 9.36151 452.245C9.36151 453.207 9.67803 454.035 10.2867 454.656C10.9319 455.301 11.8693 455.678 12.8675 455.678C13.9997 455.678 15.0588 455.204 15.6918 454.388C16.8361 453.475 17.2744 451.807 16.7753 450.31C16.3005 448.91 15.1075 448.058 13.5492 448.058Z" fill="#FF5B0D"/>
<path d="M27.5854 456.748H26.7332C24.4811 456.748 23.3002 458.525 23.3124 460.278C23.3124 462.031 24.4933 463.809 26.7454 463.809H27.5975C29.8497 463.809 31.0305 462.031 31.0305 460.278C31.0183 458.513 29.8375 456.748 27.5854 456.748Z" fill="#FF5B0D"/>
<path d="M266.177 509.887H266.846C269.098 509.887 270.279 508.11 270.279 506.357C270.279 504.604 269.098 502.826 266.846 502.826H266.177C263.924 502.826 262.744 504.604 262.744 506.357C262.744 508.11 263.924 509.887 266.177 509.887Z" fill="#FF5B0D"/>
<path d="M285.557 502.826H284.705C282.453 502.826 281.272 504.604 281.272 506.357C281.272 508.11 282.453 509.887 284.705 509.887H285.557C287.809 509.887 288.99 508.11 288.99 506.357C288.99 504.604 287.809 502.826 285.557 502.826Z" fill="#FF5B0D"/>
<path d="M284.814 496.07C285.423 495.449 285.752 494.621 285.74 493.659C285.727 491.164 284.047 489.484 281.527 489.472C280.006 489.472 278.801 490.312 278.326 491.724C277.814 493.221 278.265 494.889 279.409 495.802C280.054 496.605 281.101 497.092 282.246 497.092C283.232 497.092 284.169 496.715 284.814 496.07Z" fill="#FF5B0D"/>
<path d="M234.099 511.895C236.351 511.895 237.532 510.117 237.532 508.364C237.532 506.611 236.351 504.834 234.099 504.834H233.429C231.177 504.834 229.996 506.611 229.996 508.364C229.996 510.117 231.177 511.895 233.429 511.895H234.099Z" fill="#FF5B0D"/>
<path d="M260.345 517.725V517.056C260.345 512.552 253.297 512.552 253.297 517.056V517.725C253.297 519.978 255.074 521.158 256.827 521.158C258.58 521.146 260.345 519.965 260.345 517.725Z" fill="#FF5B0D"/>
<path d="M250.144 505.212C252.04 505.212 253.577 503.631 253.577 501.682C253.577 499.732 252.04 498.151 250.144 498.151C248.248 498.151 246.711 499.732 246.711 501.682C246.711 503.631 248.248 505.212 250.144 505.212Z" fill="#FF5B0D"/>
<path d="M119.045 504.275C117.134 504.676 116.282 506.478 116.416 508.073C116.55 509.643 117.646 511.226 119.8 511.226H119.825C121.322 511.214 122.466 510.702 123.647 509.521C124.304 508.864 124.67 507.988 124.67 507.038C124.67 506.088 124.304 505.2 123.647 504.542C122.466 503.362 120.397 503.252 119.045 504.275Z" fill="#FF5B0D"/>
<path d="M138.353 508.376V509.046C138.353 511.298 140.131 512.467 141.884 512.467C143.637 512.467 145.414 511.286 145.414 509.046V508.376C145.402 503.872 138.353 503.872 138.353 508.376Z" fill="#FF5B0D"/>
<path d="M121.639 497.69V498.359C121.639 500.611 123.416 501.792 125.169 501.792C126.922 501.792 128.699 500.611 128.699 498.359V497.69C128.687 493.185 121.639 493.185 121.639 497.69Z" fill="#FF5B0D"/>
<path d="M97.097 494.828C94.8449 494.828 93.6641 496.606 93.6641 498.359C93.6641 500.112 94.8449 501.889 97.097 501.889C99.3491 501.889 100.53 500.112 100.53 498.359C100.53 496.606 99.3491 494.828 97.097 494.828Z" fill="#FF5B0D"/>
<path d="M113.8 488.145H113.13C110.878 488.145 109.697 489.922 109.697 491.675C109.697 493.428 110.878 495.205 113.13 495.205H113.8C116.052 495.205 117.233 493.428 117.233 491.675C117.233 489.922 116.052 488.145 113.8 488.145Z" fill="#FF5B0D"/>
<path d="M519.474 494.122C517.221 494.122 516.041 495.899 516.041 497.652C516.041 499.405 517.221 501.183 519.474 501.183C521.726 501.183 522.906 499.405 522.906 497.652C522.894 495.899 521.713 494.122 519.474 494.122Z" fill="#FF5B0D"/>
<path d="M546.864 498.125C545.464 498.125 544.32 498.88 543.723 500.207L543.675 500.268C543.565 500.389 543.468 500.511 543.395 500.621C542.883 501.314 542.786 502.081 542.676 502.921C542.579 503.725 542.847 504.528 543.443 505.21C544.149 506.014 545.209 506.513 546.207 506.513C547.643 506.513 548.8 505.721 549.384 504.382C549.494 504.261 549.603 504.127 549.676 504.017C550.188 503.323 550.285 502.556 550.395 501.716C550.492 500.925 550.224 500.109 549.64 499.428C548.921 498.624 547.862 498.125 546.864 498.125Z" fill="#FF5B0D"/>
<path d="M583.629 496.118H582.776C580.524 496.118 579.344 497.896 579.344 499.649C579.344 501.402 580.524 503.179 582.776 503.179H583.629C585.881 503.179 587.062 501.402 587.062 499.649C587.049 497.896 585.881 496.118 583.629 496.118Z" fill="#FF5B0D"/>
<path d="M629.073 485.417H628.403C626.151 485.417 624.97 487.194 624.97 488.947C624.97 490.7 626.151 492.478 628.403 492.478H629.073C631.325 492.478 632.506 490.7 632.506 488.947C632.494 487.194 631.325 485.417 629.073 485.417Z" fill="#FF5B0D"/>
<path d="M611.214 482.934V481.595C611.214 477.103 604.166 477.103 604.166 481.595V482.934C604.166 485.186 605.943 486.355 607.696 486.355C609.437 486.355 611.214 485.186 611.214 482.934Z" fill="#FF5B0D"/>
<path d="M611.701 505.845C613.597 505.845 615.134 504.264 615.134 502.315C615.134 500.365 613.597 498.784 611.701 498.784C609.805 498.784 608.268 500.365 608.268 502.315C608.268 504.264 609.805 505.845 611.701 505.845Z" fill="#FF5B0D"/>
<path d="M615.036 488.095C612.784 488.095 611.604 489.872 611.604 491.625C611.604 493.378 612.784 495.155 615.036 495.155C617.289 495.155 618.469 493.378 618.469 491.625C618.469 489.872 617.289 488.095 615.036 488.095Z" fill="#FF5B0D"/>
<path d="M645.105 476.056H643.766C641.514 476.056 640.333 477.833 640.333 479.586C640.333 481.339 641.514 483.116 643.766 483.116H645.105C647.357 483.116 648.538 481.339 648.538 479.586C648.538 477.833 647.357 476.056 645.105 476.056Z" fill="#FF5B0D"/>
<path d="M629.827 466.219C629.827 464.466 628.647 462.688 626.394 462.688C624.142 462.688 622.961 464.466 622.961 466.219C622.961 467.972 624.142 469.749 626.394 469.749C628.647 469.749 629.827 467.972 629.827 466.219Z" fill="#FF5B0D"/>
<path d="M657.352 455.458C653.882 454.898 650.413 454.241 646.98 453.571C647.296 452.877 647.37 452.086 647.175 451.27C645.507 444.477 642.89 437.246 636.133 434.994C633.492 434.118 630.898 433.825 628.391 433.558C623.363 433.01 619.017 432.535 615.377 427.653C614.257 426.156 613.575 424.196 612.857 422.114C611.81 419.095 610.727 415.979 608.17 414.323C605.626 412.68 602.071 411.889 597.275 411.889C593.769 411.889 590.056 412.302 586.769 412.68C586.112 412.753 585.467 412.826 584.846 412.899C586.879 409.673 588.717 406.301 590.19 402.807C591.541 402.758 592.819 401.979 593.428 400.859C593.976 399.837 593.891 398.68 593.172 397.621C592.953 397.292 592.71 396.976 592.478 396.659L592.162 396.233C592.004 395.32 591.419 394.529 590.555 394.03C584.967 386.933 577.554 380.785 567.936 375.222C571.102 368.465 574.096 361.514 577.006 354.782C578.844 350.521 580.682 346.26 582.581 342.012C586.513 333.186 591.407 324.628 596.131 316.35C598.164 312.783 600.27 309.107 602.266 305.454C602.79 304.505 603.35 303.494 603.934 302.448C611.908 288.119 623.96 266.474 608.256 254.423C606.381 252.986 604.129 252.256 601.56 252.256C595.437 252.256 589.946 256.236 588.412 257.466C582.837 261.897 580.414 270.053 578.284 277.248C577.834 278.77 577.395 280.231 576.957 281.582C569.592 304.03 559.488 327.087 546.182 351.702C541.727 344.861 535.457 339.918 525.572 335.329C522.797 334.038 520.325 332.748 518 331.36L517.513 331.226L517.477 331.275C515.2 330.374 512.839 329.923 510.44 329.923C503.696 329.923 497.682 333.478 494.359 339.431C492.302 343.108 490.354 345.055 488.71 345.055C485.862 345.055 483.22 339.151 481.638 329.254C481.199 326.539 480.992 323.691 480.785 320.927C480.42 316.106 480.043 311.127 478.497 306.501C477.499 303.519 475.149 301.79 471.314 301.23C468.843 300.865 467.26 291.905 467.187 277.881L467.212 277.406C468.21 261.946 470.024 233.703 457.339 230.404C457.4 216.343 457.083 213.665 456.706 210.61C456.341 207.566 455.915 204.133 455.805 188.161C455.793 185.909 454.016 184.741 452.263 184.741C451.678 184.741 451.13 184.875 450.631 185.118C449.73 185.057 448.817 184.996 447.88 184.996C443.084 184.996 438.324 185.812 433.722 186.603C428.512 187.504 423.143 188.429 417.726 188.149H417.58C416.35 188.149 415.157 188.941 414.524 190.17C413.94 191.314 414.001 192.556 414.682 193.506C421.804 203.318 434.806 209.904 447.016 209.904C447.868 209.904 448.708 209.843 449.548 209.782C449.584 210.111 449.621 210.439 449.657 210.743C450.023 213.799 450.351 216.477 450.278 230.964C441.598 234.324 435.037 246.753 432.273 254.556C429.461 262.506 428.804 271.271 428.159 279.744C427.477 288.837 426.759 298.187 423.362 306.501C419.296 304.31 414.853 302.935 410.057 302.521C409.18 294.486 410.081 286.585 411.055 278.222C411.213 276.907 411.359 275.58 411.505 274.266C412.296 266.998 413.295 257.965 409.509 250.466C406.49 244.501 399.161 243.746 393.123 243.746C390.713 243.746 388.327 243.892 386.026 244.014C384.784 244.087 383.591 244.16 382.471 244.197C381.948 233.508 382.24 222.515 382.52 211.876C383.177 187.358 383.859 162.012 374.583 138.481C370.65 128.486 362.299 117.055 350.199 111.833C349.7 100.353 348.738 62.0371 347.801 50.8495C346.498 35.4012 345.147 19.4415 345.037 3.67667C345.025 1.42454 343.248 0.255859 341.495 0.255859C340.496 0.255859 339.559 0.621071 338.914 1.26627C338.305 1.88713 337.976 2.71495 337.989 3.67667C338.013 7.49919 338.122 11.3461 338.269 15.1808C332.364 16.1546 326.351 16.7877 320.507 17.3842C311.767 18.2729 302.722 19.1859 293.981 21.3284C292.764 21.6206 291.741 22.7406 291.437 24.104C291.157 25.3457 291.534 26.5266 292.447 27.257C298.193 31.8586 304.048 35.2916 310.342 37.7263C307.481 40.5263 304.657 43.4236 301.906 46.2357C300.409 47.7574 298.923 49.2913 297.414 50.8008C296.416 51.8112 296.16 53.3573 296.732 54.7572C297.268 56.0477 298.388 56.8268 299.715 56.8268C299.788 56.8268 299.861 56.8268 299.934 56.8146C306.751 56.3885 313.702 56.2424 320.422 56.1207C327.203 55.9868 334.203 55.8407 341.117 55.3903C341.872 64.4109 342.602 100.438 343.053 109.629C341.409 109.313 339.729 109.069 337.989 108.984C333.448 108.777 330.149 109.836 327.775 112.21C323.295 116.702 323.307 125.017 323.319 133.064C323.332 138.14 323.331 142.924 322.248 146.54C321.919 147.611 322.126 148.451 322.419 149.023L321.664 150.021C316.319 157.033 310.793 164.289 309.66 173.2C309.527 174.21 309.454 175.245 309.405 176.304C306.739 177.875 304.048 179.311 301.431 180.699C294.358 184.436 287.687 187.954 281.88 194.078C273.736 202.66 268.453 213.58 263.961 224.11C260.041 233.289 257.35 242.955 254.745 252.304L254.49 253.205C252.761 259.402 250.667 264.636 248.098 269.226C246.857 271.453 239.26 279.963 234.561 279.963C232.906 279.963 231.786 278.904 231.141 276.712C230.702 275.239 229.497 274.326 228 274.253C224.701 268.824 220.245 265.659 215.656 265.659C211.724 265.659 207.95 267.984 204.724 272.379C195.606 284.796 185.295 303.397 187.924 321.475C188.022 322.132 188.265 322.704 188.655 323.131C187.206 324.762 185.745 326.381 184.272 327.988C181.509 331.019 178.709 334.111 176.14 337.252C173.717 335.146 171.344 334.087 169.067 334.087C162.737 334.087 158.452 342.316 157.332 350.728C155.907 349.438 155.36 347.149 154.775 344.727C153.826 340.758 152.742 336.266 147.264 335.791C138.487 335.024 136.32 340.575 133.995 346.455C132.924 349.17 131.816 351.982 129.99 354.246C128.054 356.645 126.386 357.862 125.059 357.862C123.075 357.862 121.663 355.172 120.166 352.323C119.289 350.655 118.388 348.939 117.281 347.6C113.714 343.241 108.077 344.605 101.284 351.544C98.9105 353.966 98.0462 357.582 97.2792 360.771C97.121 361.441 96.9627 362.098 96.7923 362.731C96.4757 363.924 96.0132 364.618 95.514 364.618C94.5767 364.618 93.1767 362.5 93.128 360.516C93.0671 358.166 92.8724 355.622 91.9472 353.005C90.6568 349.377 87.2116 347.21 82.7195 347.21C79.4448 347.21 76.1701 348.367 73.9423 350.29C60.2348 362.159 60.4174 402.904 60.5027 420.313V420.617C54.2819 423.709 48.4508 427.751 42.7291 431.719C39.3814 434.045 35.9241 436.443 32.4911 438.561C31.1155 439.413 30.5312 440.923 30.9694 442.481C31.4198 444.076 32.7711 445.183 34.2685 445.183C34.8771 445.183 35.498 445.001 36.0823 444.636C39.3205 442.627 42.6074 440.253 46.0769 437.745C55.6454 430.819 65.5547 423.66 76.2797 422.894C81.3318 422.541 86.2742 425.34 91.0463 428.055C92.7993 429.053 94.4671 429.991 96.0984 430.77C99.86 432.535 103.731 433.399 107.955 433.399C108.162 433.399 108.369 433.375 108.576 433.375C107.724 435.238 106.75 437.039 105.643 438.768C101.589 439.705 97.4983 440.886 93.2863 442.091C83.7908 444.83 73.9667 447.667 64.0208 447.679C64.0208 447.679 64.0208 447.679 64.0087 447.679C62.3287 447.679 60.6609 447.594 59.0418 447.436C56.7653 447.216 55.6819 448.848 55.5967 450.455C55.5115 452.232 56.6436 454.253 58.9322 454.484C60.3566 454.63 61.8418 454.703 63.3391 454.703C72.8711 454.703 82.6465 451.794 92.0932 448.969C101.248 446.243 110.707 443.418 119.642 443.418C128.237 443.418 135.577 446.048 142.066 451.465C142.748 452.037 143.551 452.329 144.379 452.329C145.949 452.329 147.459 451.27 147.995 449.809C148.445 448.568 148.08 447.326 146.984 446.413C139.193 439.9 130.647 436.735 120.884 436.747C118.79 436.747 116.708 436.893 114.627 437.137C117.938 430.392 119.971 423.015 121.919 415.833C122.795 412.595 123.708 409.247 124.719 406.033C127.141 398.339 130.513 389.915 139.765 387.334C141.311 386.896 143.04 386.677 144.89 386.677C150.149 386.677 155.92 388.43 161.008 389.976C162.871 390.548 164.624 391.072 166.316 391.522C168.264 392.033 170.09 390.853 170.577 388.905C173.644 386.36 174.947 383.329 174.923 378.801C174.911 376.208 174.168 373.566 173.438 371.022C173.218 370.23 172.987 369.439 172.792 368.672C171.356 362.975 172.33 356.876 175.775 350.01C179.683 342.219 185.745 335.657 191.613 329.315C198.54 321.816 205.698 314.073 209.386 304.225C209.776 303.19 209.678 302.168 209.118 301.352C208.485 300.451 207.329 299.879 206.075 299.879C204.468 299.879 203.166 300.768 202.618 302.253C200.962 306.684 198.333 311.152 194.388 316.24C194.035 306.976 197.773 299.526 202.07 290.98L202.618 289.884C202.995 289.117 203.421 288.217 203.884 287.23C206.55 281.521 210.567 272.89 216.07 272.184C220.671 271.563 223.763 277.053 225.468 288.387L225.541 288.886L225.821 288.85C226.539 291.771 227.841 294.559 229.716 297.055C230.434 298.016 231.481 298.552 232.662 298.552C234.111 298.552 235.535 297.724 236.12 296.543C236.631 295.533 236.485 294.413 235.73 293.403C234.038 291.138 232.967 288.874 232.504 286.561C232.967 286.622 233.429 286.671 233.928 286.671C236.448 286.671 239.358 285.891 242.559 284.37C252.359 279.719 257.131 268.24 260.503 257.612C261.392 254.812 262.244 252.012 263.096 249.237C266.615 237.745 269.938 226.886 275.404 216.112C279.482 208.065 284.778 200.871 291.144 194.735C294.979 191.022 300.177 188.612 305.205 186.275C306.678 185.593 308.163 184.899 309.624 184.168L309.673 184.631L310.135 184.205C310.001 185.021 309.831 185.824 309.502 186.567C308.979 187.76 309.076 189.014 309.782 190.085C310.5 191.193 311.742 191.899 312.947 191.899C314.128 191.899 315.114 191.217 315.65 190.012C317.123 186.676 317.147 183.255 317.184 179.956C317.196 178.228 317.22 176.426 317.439 174.661C317.513 174.064 317.439 173.529 317.257 173.054C318.072 169.122 319.655 165.36 322.138 161.525C323.891 158.811 325.876 156.181 327.787 153.649C330.417 150.167 333.143 146.552 335.347 142.608C335.98 141.476 335.98 140.27 335.371 139.223C334.458 137.677 332.267 136.923 330.757 137.629C330.928 134.244 330.855 130.799 330.757 127.025C330.745 126.66 330.733 126.258 330.709 125.832C330.55 122.363 330.344 117.615 333.545 116.288C334.41 115.935 335.469 115.753 336.674 115.753C338.768 115.753 341.081 116.288 343.333 117.019C343.467 121.121 343.528 125.224 343.491 129.314C343.479 130.276 343.808 131.104 344.416 131.724C345.061 132.37 345.999 132.735 346.997 132.735C348.75 132.735 350.527 131.554 350.54 129.314C350.564 126.185 350.515 123.045 350.454 119.904C361.106 125.394 368.289 137.154 372.355 155.767C376.421 174.405 375.922 193.676 375.423 212.314C375.045 226.399 374.668 240.946 376.25 255.165C376.494 257.356 378.369 258.501 380.109 258.501C381.12 258.501 382.021 258.123 382.605 257.478C383.165 256.857 383.396 256.017 383.299 255.056C383.165 253.814 383.043 252.572 382.934 251.318C384.127 251.282 385.332 251.233 386.537 251.172C388.254 251.087 390.031 251.002 391.711 251.002C399.259 251.002 404.42 252.791 405.053 261.495C405.564 268.483 404.797 275.422 404.067 282.142C402.947 292.331 401.791 302.861 405.138 313.55C405.613 315.072 406.891 316.009 408.486 316.009C409.691 316.009 410.86 315.449 411.517 314.548C412.114 313.733 412.26 312.698 411.931 311.639C411.736 311.018 411.566 310.409 411.408 309.788C419.102 310.945 425.493 315.023 430.411 321.925C440.125 335.548 441.598 356.523 438.884 370.815C436.291 366.907 434.319 362.293 432.724 358.532L432.346 357.643C431.835 356.438 430.849 355.744 429.668 355.744C428.475 355.744 427.234 356.45 426.515 357.545C425.797 358.629 425.688 359.883 426.199 361.076C431.324 373.055 438.117 384.522 453.005 387.395C455.951 387.967 458.873 388.211 461.697 388.454C467.467 388.941 472.921 389.404 478.29 392.435C482.964 395.065 485.971 400.798 488.625 405.85L489.283 407.104C489.319 407.603 489.465 408.103 489.709 408.565C490.281 409.649 490.853 410.744 491.437 411.864C496.416 421.457 502.053 432.316 513.204 435.591C513.557 435.688 513.91 435.749 514.251 435.749C516.198 435.749 517.318 434.142 517.538 432.657C517.757 431.159 517.075 429.382 515.091 428.798C511.706 427.812 508.675 425.693 505.863 422.346C510.659 424.014 516.235 424.659 522.261 424.269L522.602 424.245C525.158 424.074 527.581 423.916 529.869 423.916C537.916 423.916 543.942 425.949 547.217 435.858L547.266 436.017C547.387 436.394 547.509 436.759 547.631 437.125C546.815 438.025 546.572 439.255 546.766 440.326C547.071 442.03 548.337 443.114 549.859 443.114C551.113 446.048 552.683 448.775 555.081 451.368C555.751 452.098 556.578 452.475 557.455 452.475C558.806 452.475 560.17 451.526 560.754 450.175C561.314 448.872 561.07 447.472 560.084 446.413C558.66 444.879 557.54 443.248 556.615 441.568C557.504 441.458 558.404 441.385 559.318 441.385C567.109 441.385 573.975 445.305 581.23 449.456C588.498 453.608 596.009 457.905 604.689 458.088H604.774C607.05 458.088 608.097 456.322 608.122 454.667C608.146 452.902 606.977 451.088 604.713 451.039C595.924 450.844 588.62 446.608 581.571 442.517C576.726 439.705 571.722 436.796 566.354 435.323C570.408 431.257 575.228 426.132 579.708 420.288C579.867 420.301 580.013 420.337 580.183 420.337H580.329C582.35 420.264 584.371 420.142 586.38 420.021C589.289 419.838 592.296 419.655 595.242 419.655C598.736 419.655 601.682 419.911 604.482 420.471C604.92 421.067 606.393 424.16 607.586 426.667C609.558 430.806 610.788 433.351 611.311 433.911C615.097 437.904 619.321 439.997 624.58 440.497C633.747 441.349 637.594 442.651 640.175 452.305C637.46 451.782 634.721 451.282 631.994 450.844C629.474 450.442 627.782 452.463 627.624 454.399C627.49 456.103 628.512 457.394 630.229 457.661C634.465 458.343 638.751 459.183 642.89 459.987C647.053 460.802 651.362 461.654 655.623 462.336C655.842 462.373 656.049 462.385 656.256 462.385C658.411 462.385 659.847 460.547 659.993 458.781C660.091 457.016 659.068 455.738 657.352 455.458ZM447.405 202.806C439.785 202.806 431.519 199.799 425.529 194.881C428.354 194.577 431.166 194.09 433.905 193.615C438.458 192.836 443.181 192.02 447.88 192.02C448.184 192.02 448.477 192.057 448.781 192.057C448.842 196.756 448.927 200.165 449.024 202.721C448.489 202.758 447.953 202.806 447.405 202.806ZM320.337 49.06C316.514 49.133 312.582 49.2182 308.674 49.3521C312.4 45.554 315.82 42.0967 319.399 38.7489C320.288 37.9211 320.629 36.7037 320.337 35.4864C320.02 34.2081 319.071 33.1977 317.853 32.8447C312.68 31.3839 307.968 29.3144 303.476 26.5388C309.673 25.4797 316.015 24.8345 322.151 24.2014C327.556 23.6536 333.107 23.0693 338.585 22.2171C339.072 31.0065 339.754 39.7472 340.484 48.3661C333.777 48.78 326.959 48.9261 320.337 49.06ZM165.391 359.311C165.184 361.38 165.695 364.472 166.231 367.759C167.265 374.077 168.422 381.211 165.33 383.926C158.391 382.075 151.221 380.176 144.416 380.176C135.638 380.176 129.004 383.451 124.122 390.195C118.766 397.609 116.477 406.642 114.274 415.382C113.373 418.961 112.435 422.589 111.303 426.132C110.524 426.229 109.733 426.302 108.942 426.302C103.244 426.302 98.0218 423.612 92.9697 421.007C87.869 418.377 82.5856 415.662 76.7666 415.662C75.4275 415.662 74.0884 415.808 72.7737 416.088C71.0085 416.478 69.2798 417.001 67.5877 417.586C67.892 409.32 69.1703 394.529 69.9859 385.204C70.1807 383.025 70.3389 381.15 70.4607 379.726C70.8868 374.552 71.812 369.5 73.1997 364.716C73.7476 362.817 79.1283 353.321 82.8291 353.321C83.9978 353.321 84.9473 354.344 85.6656 356.365C86.3716 358.349 86.4812 360.613 86.5786 362.792C86.7977 367.552 87.029 372.47 93.8584 373.773C94.3819 373.87 94.881 373.919 95.368 373.919C101.102 373.919 102.916 367.199 104.376 361.794C104.9 359.871 105.387 358.057 105.983 356.852C107.444 353.869 108.82 352.359 110.098 352.359C111.948 352.359 113.689 355.5 115.211 358.264C115.844 359.408 116.428 360.479 117.025 361.331C119.886 365.434 124.633 366.164 129.746 363.377C132.741 361.733 135.48 359.018 137.27 355.914C137.452 355.598 137.769 354.867 138.195 353.857C139.558 350.655 143.162 342.146 145.73 342.146C146.595 342.146 147.252 343.314 147.654 344.288C148.457 346.248 148.968 348.123 149.419 349.766C150.868 355.05 151.915 358.86 160.57 358.86C161.507 358.86 162.445 358.458 163.126 357.752C163.784 357.071 164.125 356.206 164.1 355.318C164.003 352.092 164.843 344.702 167.253 342.207C168.507 340.916 169.992 341.184 171.843 342.876C169.067 346.991 166.036 352.822 165.391 359.311ZM571.795 313.684L573.366 309.861C576.908 301.267 580.573 292.38 583.714 283.493C584.273 281.923 584.785 280.255 585.296 278.648C587.767 270.735 590.312 262.567 598.882 259.657C599.758 259.365 600.598 259.207 601.39 259.207C606.685 259.207 608.791 266.121 608.913 270.772C609.047 275.739 606.174 281.691 603.861 286.476C603.337 287.547 602.838 288.582 602.4 289.556C598.772 297.542 594.329 305.32 590.044 312.844C589.228 314.268 588.412 315.692 587.609 317.129C580.901 328.974 575.338 341.537 569.969 353.686C567.316 359.664 564.589 365.848 561.74 371.886C557.126 369.573 552.05 367.382 546.669 365.361C556.384 348.111 564.601 331.214 571.795 313.684ZM439.005 322.741C439.371 322.461 439.712 322.108 439.967 321.658C441.818 318.383 443.753 316.727 445.713 316.727C449.353 316.727 452.859 322.668 454.576 328.195C455.342 330.654 455.209 333.685 455.087 336.363C455.062 336.935 455.038 337.508 455.026 338.055C454.856 343.947 453.066 360.114 448.781 360.114C448.355 360.114 447.904 359.956 447.417 359.639C447.308 359.566 447.186 359.53 447.077 359.481C447.344 347.149 444.946 333.624 439.005 322.741ZM488.54 393.421C484.705 388.479 480.018 384.547 472.532 382.477C472.142 382.367 471.753 382.307 471.363 382.209C471.022 380.201 471.387 378.289 472.495 376.743C473.859 374.844 476.099 373.7 478.509 373.7C480.749 373.7 482.891 374.71 484.535 376.536C487.103 379.397 489.563 384.948 489.27 390.013C489.197 391.291 488.942 392.423 488.54 393.421ZM498.048 407.932C497.475 407.177 496.903 406.398 496.38 405.546C495.832 404.657 495.296 403.769 494.773 402.904C494.14 401.857 493.507 400.823 492.886 399.812C495.491 396.659 496.672 392.167 496.222 386.92C495.576 379.3 491.644 372.032 486.458 368.83C484.036 367.333 481.418 366.578 478.691 366.578C473.944 366.578 469.452 368.903 466.676 372.787C464.887 375.295 464.034 378.155 464.107 381.126C463.134 381.041 462.172 380.98 461.21 380.907C456.487 380.578 451.593 380.237 446.967 378.289C446.176 377.961 445.397 377.522 444.63 376.999C444.63 376.987 444.642 376.975 444.642 376.95C445.482 373.919 446.103 370.596 446.517 367.077C447.539 367.467 448.537 367.674 449.475 367.674C460.638 367.674 461.941 341.72 462.087 336.522C462.342 327.708 460.078 320.574 454.977 314.073C452.457 310.872 449.438 309.18 446.237 309.18C442.183 309.18 437.971 311.931 434.879 316.459C433.101 314.159 431.166 312.138 429.072 310.385C432.906 301.352 433.953 291.284 434.952 281.521C436.607 265.476 438.165 250.32 450.887 239.072C452.141 237.964 453.261 237.404 454.223 237.404C457.473 237.404 459.396 243.844 459.944 256.529L459.981 257.259C460.261 263.188 460.102 269.226 459.944 275.057C459.859 278.137 459.786 281.326 459.761 284.455C459.761 285.234 460.054 286.025 460.601 286.695C460.979 291.126 461.551 295.789 462.33 300.95C462.939 305.004 467.066 307.67 470.815 308.23C473.542 308.632 474.516 323.24 474.942 329.473C475.1 331.883 475.222 333.636 475.356 334.428C476.269 339.577 478.156 350.278 485.935 352.53C486.86 352.798 487.773 352.932 488.65 352.932C493.495 352.932 496.575 348.768 499.545 344.739C502.491 340.758 505.534 336.631 510.233 336.631C511.816 336.631 513.496 337.069 515.359 337.982C515.821 338.214 516.308 338.335 516.819 338.36C517.696 338.847 518.585 339.322 519.473 339.796C528.616 344.739 537.259 349.413 542.189 358.885C541.434 360.248 540.716 361.587 539.937 362.951C534.362 361.076 528.214 359.262 521.177 357.387C520.557 356.17 519.205 355.342 517.805 355.342C516.612 355.342 515.59 355.939 514.932 357.022C505.011 373.335 500.653 391.486 498.048 407.932ZM557.577 433.996C557.467 434.093 557.37 434.203 557.285 434.312C556.055 434.385 554.838 434.568 553.62 434.811C553.474 434.434 553.34 434.057 553.206 433.679C550.772 427.093 548.471 420.861 539.84 417.391C537.782 416.563 535.372 416.162 532.45 416.162C529.711 416.162 526.899 416.502 524.197 416.843C522.431 417.062 520.764 417.269 519.193 417.367C513.52 417.72 508.493 416.441 504.256 413.715C506.545 397.913 510.221 380.042 518.962 364.083C524.233 365.483 531.988 367.601 539.779 370.279C540.217 370.535 540.704 370.705 541.118 370.754C547.692 373.067 553.742 375.611 559.111 378.302C559.135 379.154 559.476 379.981 560.097 380.651C561.314 381.966 563.383 382.282 564.65 381.296C573.013 386.141 579.708 391.68 584.578 397.779C579.611 411.56 568.156 423.807 557.577 433.996Z" fill="#FF5B0D"/>
<path d="M468.49 500.987V501.657C468.49 503.909 470.267 505.078 472.02 505.078C473.773 505.078 475.551 503.897 475.551 501.657V500.987C475.539 496.495 468.49 496.495 468.49 500.987Z" fill="#FF5B0D"/>
<path d="M479.374 500.513C481.27 500.513 482.807 498.932 482.807 496.983C482.807 495.033 481.27 493.452 479.374 493.452C477.478 493.452 475.941 495.033 475.941 496.983C475.941 498.932 477.478 500.513 479.374 500.513Z" fill="#FF5B0D"/>
<path d="M470.767 487.62C470.767 485.867 469.586 484.09 467.334 484.09C465.082 484.09 463.901 485.867 463.901 487.62C463.901 489.373 465.082 491.151 467.334 491.151C469.586 491.151 470.767 489.373 470.767 487.62Z" fill="#FF5B0D"/>
<path d="M507.263 501.841C505.948 500.526 503.599 500.526 502.272 501.841C500.896 503.216 500.896 505.444 502.272 506.82L502.941 507.489C503.599 508.147 504.488 508.512 505.437 508.512C506.387 508.512 507.275 508.147 507.933 507.489C509.284 506.138 509.284 503.861 507.933 502.51L507.263 501.841Z" fill="#FF5B0D"/>
<path d="M492.74 475.41C490.488 475.41 489.307 477.188 489.307 478.941C489.307 480.694 490.488 482.471 492.74 482.471C494.992 482.471 496.173 480.694 496.173 478.941C496.173 477.188 494.98 475.41 492.74 475.41Z" fill="#FF5B0D"/>
<path d="M242.157 519.953C241.707 518.346 240.344 517.239 238.858 517.239C238.25 517.239 237.641 517.421 237.057 517.786C229.485 522.437 222.205 524.518 213.476 524.518C208.388 524.518 203.031 523.837 197.358 523.118C196.007 522.948 194.632 522.778 193.219 522.595C191.807 522.425 190.103 522.242 188.289 522.132C189.701 521.804 190.931 520.684 190.931 518.821V518.152C190.931 513.647 183.882 513.647 183.882 518.152V518.821C183.882 520.525 184.905 521.609 186.159 522.035C185.769 522.023 185.38 522.011 184.978 522.011C175.969 522.011 170.077 524.981 166.973 531.104C166.389 532.261 166.425 533.49 167.083 534.562C167.776 535.694 169.043 536.424 170.309 536.424C171.502 536.424 172.512 535.767 173.096 534.623C175.142 530.593 179.341 528.645 185.94 528.633C191.077 528.633 196.701 529.79 201.656 530.812C204.03 531.299 206.282 531.762 208.108 532.005C218.772 533.442 229.375 530.8 240.66 523.861C242.011 522.997 242.596 521.499 242.157 519.953Z" fill="#FF5B0D"/>
<path d="M218.127 548.038C215.875 548.038 214.694 549.815 214.694 551.568C214.694 553.321 215.875 555.099 218.127 555.099C220.379 555.099 221.56 553.321 221.56 551.568C221.56 549.803 220.379 548.038 218.127 548.038Z" fill="#FF5B0D"/>
<path d="M194.193 554.539C194.12 554.429 194.023 554.307 193.913 554.186L193.865 554.125C193.268 552.798 192.124 552.043 190.724 552.043C189.726 552.043 188.666 552.542 187.96 553.358C187.364 554.027 187.096 554.843 187.206 555.646C187.315 556.486 187.413 557.266 187.924 557.947C187.997 558.057 188.106 558.191 188.216 558.312C188.8 559.652 189.957 560.443 191.393 560.443C192.392 560.443 193.451 559.944 194.157 559.14C194.753 558.458 195.021 557.655 194.912 556.852C194.814 555.999 194.705 555.233 194.193 554.539Z" fill="#FF5B0D"/>
<path d="M262.05 554.893V555.563C262.05 557.815 263.827 558.983 265.58 558.983C267.333 558.983 269.11 557.803 269.11 555.563V554.893C269.11 550.389 262.05 550.401 262.05 554.893Z" fill="#FF5B0D"/>
<path d="M258.227 554.417C260.123 554.417 261.66 552.837 261.66 550.887C261.66 548.937 260.123 547.356 258.227 547.356C256.331 547.356 254.794 548.937 254.794 550.887C254.794 552.837 256.331 554.417 258.227 554.417Z" fill="#FF5B0D"/>
<path d="M270.255 538.008C268.003 538.008 266.822 539.785 266.822 541.538C266.822 543.291 268.003 545.069 270.255 545.069C272.507 545.069 273.688 543.291 273.688 541.538C273.688 539.785 272.507 538.008 270.255 538.008Z" fill="#FF5B0D"/>
<path d="M230.337 555.745L229.668 556.414C228.317 557.766 228.317 560.042 229.668 561.393C230.325 562.051 231.214 562.416 232.163 562.416C233.113 562.416 234.002 562.051 234.659 561.393L235.329 560.724C236.704 559.348 236.704 557.108 235.329 555.745C234.002 554.43 231.652 554.43 230.337 555.745Z" fill="#FF5B0D"/>
<path d="M244.86 529.315C242.608 529.315 241.427 531.093 241.44 532.846C241.452 534.599 242.621 536.376 244.873 536.376C247.125 536.376 248.306 534.599 248.306 532.846C248.281 531.093 247.113 529.315 244.86 529.315Z" fill="#FF5B0D"/>
<path d="M522.724 458.878C522.724 460.631 523.905 462.408 526.157 462.408C528.409 462.408 529.59 460.631 529.59 458.878C529.59 457.125 528.409 455.348 526.157 455.348C523.893 455.36 522.724 457.125 522.724 458.878Z" fill="#FF5B0D"/>
<path d="M533.68 446.182V445.512C533.68 441.008 526.632 441.008 526.632 445.512V446.182C526.632 448.434 528.409 449.602 530.162 449.602C531.915 449.615 533.68 448.434 533.68 446.182Z" fill="#FF5B0D"/>
<path d="M501.42 451.052C503.672 451.052 504.853 449.275 504.853 447.522C504.853 445.769 503.672 443.991 501.42 443.991C499.168 443.991 497.987 445.769 497.987 447.522C497.987 449.275 499.168 451.052 501.42 451.052Z" fill="#FF5B0D"/>
<path d="M586.294 462.701H585.625C583.373 462.701 582.192 464.479 582.192 466.232C582.192 467.985 583.373 469.762 585.625 469.762H586.294C588.547 469.762 589.727 467.985 589.727 466.232C589.727 464.479 588.547 462.701 586.294 462.701Z" fill="#FF5B0D"/>
</svg>
