<svg width="96" height="141" viewBox="0 0 96 141" fill="none" xmlns="http://www.w3.org/2000/svg">
<path d="M88.1805 67.3495C88.013 66.9663 87.7586 66.7783 87.4824 66.7307C87.4215 66.4665 87.3584 66.1999 87.2845 65.9334C87.1301 65.3669 86.6581 65.048 86.1383 65.0337C85.3184 65.0099 84.5072 65.0599 83.6959 65.1432C81.3449 61.7349 78.7111 58.567 76.1078 55.3873C76.1448 55.1183 76.1035 54.8398 75.9273 54.5923C72.889 50.2987 67.4997 49.1396 61.9581 49.2038C64.7572 44.1557 67.3018 38.9219 69.8116 33.7238C73.996 37.6795 79.4354 39.3836 84.1396 42.4611C84.8747 42.9442 85.538 42.4182 85.7381 41.7233C88.0022 39.8716 86.06 38.0675 83.9895 37.2344C79.0961 35.2661 74.8159 31.884 70.2987 29.135C70.2574 29.1089 70.2161 29.0946 70.1748 29.0755C70.1421 29.047 70.1117 29.0256 70.0791 28.997C69.2939 28.2854 68.3044 28.9304 68.126 29.7467C68.0499 29.83 67.9803 29.9276 67.9172 30.0466C64.5397 36.7084 60.9446 43.2346 57.0407 49.5347C53.9263 49.8893 50.9772 50.4557 48.6087 50.8794C46.9798 51.1698 45.366 51.5244 43.7566 51.9028C44.0241 49.4466 44.4395 46.9404 45.0072 44.7959C46.5578 46.2978 49.0111 46.65 50.7727 45.5195C52.169 44.815 53.0107 43.7035 53.3478 42.4182C53.9546 40.9545 53.8154 39.0766 52.6301 37.7462C52.5453 37.5867 52.4583 37.4296 52.3626 37.2749C52.1277 36.8988 51.8102 36.7418 51.4905 36.7346C49.2612 35.0805 47.3473 35.1828 45.7401 36.4062C45.4182 33.9285 47.1385 31.101 48.8741 29.2874C48.9219 29.2493 48.9676 29.2041 49.0176 29.166C49.0263 29.2421 49.0328 29.3183 49.0437 29.3945C49.731 33.8738 55.5575 36.6347 58.4522 33.0027C60.9098 29.9181 57.9085 25.9291 54.8985 24.532C54.4787 24.2797 54.0068 24.0845 53.487 23.9489C54.1351 21.7925 59.022 8.39747 59.7919 6.38869C60.4183 4.7512 61.5297 2.05457 60.2226 0.526567C60.2204 0.524187 60.2204 0.521806 60.2182 0.521806C60.1986 0.495626 60.1812 0.469445 60.1595 0.445644C60.1356 0.417083 60.1051 0.395662 60.0768 0.371862C60.0529 0.348061 60.0333 0.32426 60.0094 0.30046C59.494 -0.163655 58.9068 -0.0398907 58.5109 0.331401C58.1934 0.369482 57.8954 0.569408 57.7258 1.0121C56.223 4.92256 50.1507 19.9646 49.2743 24.025C48.313 24.5344 47.2951 25.3483 46.323 26.3599C45.1877 27.3309 44.2503 28.571 43.5674 30.0181C42.0015 32.6909 41.1033 35.6993 41.784 38.0794C41.9254 39.0552 42.2103 40.0263 42.5909 40.9474C41.0793 44.3461 40.0854 48.8206 39.5983 52.9524C37.7888 53.4451 35.9814 53.964 34.1828 54.5257C28.4868 56.3036 21.462 58.1767 17.0796 62.8083C16.7708 62.8607 16.4772 63.0559 16.288 63.4509C14.0849 68.0278 11.9883 72.6618 9.80471 77.2506C8.15833 78.4502 6.38799 79.4617 4.70464 80.597C3.60198 81.3443 2.15787 82.2012 1.14655 83.3246C1.14438 83.3222 1.14002 83.3246 1.13785 83.3222C0.176557 83.2341 -0.125748 84.2528 0.167859 85.0287C0.152635 85.2262 0.178734 85.4166 0.246155 85.5832C-2.44851 112.504 17.3776 134.227 40.2638 139.259C42.8845 140.096 45.5944 140.542 48.3717 140.472C48.5609 140.468 48.7175 140.415 48.8567 140.342C51.5818 140.425 54.3134 140.265 57.0233 139.837C70.8925 137.654 83.7525 127.653 90.8773 114.603C94.368 108.208 96.0818 100.801 95.997 93.378C95.8948 83.9934 91.7777 75.6131 88.1805 67.3495ZM49.3047 39.1266C49.9789 39.824 50.3747 40.8212 50.2355 41.3877C50.1529 41.5138 50.0724 41.6281 49.9898 41.7375C49.7484 41.8803 49.3395 41.847 48.711 41.5162C48.052 41.1687 47.4843 40.6713 46.995 40.0905C47.6627 39.248 48.4304 38.8695 49.3047 39.1266ZM55.6771 29.1327C56.1229 31.0272 53.015 29.6825 52.9259 27.9807C52.9172 27.8308 52.9193 27.6832 52.9193 27.5356C54.0089 27.5261 54.9833 27.9974 55.6771 29.1327ZM81.0252 65.505C79.7529 65.7025 78.4828 65.9 77.1974 65.9714C77.1496 65.9738 77.1061 65.9857 77.0582 65.9929C76.8668 65.6073 76.4449 65.3479 76.0056 65.3193C74.5376 63.3676 73.0782 61.4112 71.7972 59.3025C72.7128 58.6384 73.6198 57.953 74.5049 57.2294C76.7255 59.9403 78.9721 62.6417 81.0252 65.505ZM43.5239 54.5376C44.7875 54.2329 46.0533 53.9426 47.3277 53.6831C49.9267 53.1547 52.5496 52.7406 55.1834 52.4598C53.4152 55.2088 51.5883 57.9173 49.6875 60.5663C49.5679 60.7353 49.4939 60.9114 49.4569 61.0852C47.5278 61.5326 45.5857 61.8944 43.6305 62.1681C43.3282 61.0256 43.276 58.0196 43.5239 54.5376ZM19.3111 64.0007C23.4129 60.1403 29.8483 58.5718 34.8657 56.951C36.3534 56.4702 37.8475 56.0323 39.3438 55.6157C39.1415 58.5766 39.2264 61.1161 39.5874 62.606C34.968 62.9606 30.3007 62.825 25.6443 62.1538C24.1676 61.942 23.626 64.422 25.1114 64.6362C34.3307 65.9619 43.5174 65.3264 52.3626 62.9321C52.6323 62.9916 52.915 62.9321 53.1716 62.7107C58.4805 61.2042 63.661 59.0645 68.648 56.3202C69.9877 55.5824 68.7263 53.438 67.3974 54.171C63.624 56.2465 59.718 57.9554 55.7249 59.3001C57.3474 56.9771 58.8676 54.5685 60.3117 52.1051C60.875 52.0861 61.4405 52.0742 62.0038 52.0718C65.5205 52.0575 70.4314 52.2717 73.2283 55.1064C64.4679 62.2657 54.1025 66.5355 43.2433 67.6875C38.7914 68.1587 34.3003 68.3325 29.8309 68.1254C27.3798 68.0112 20.3093 67.9874 19.472 64.4982C19.4307 64.3221 19.3633 64.1792 19.2806 64.0579C19.2937 64.0364 19.3002 64.0174 19.3111 64.0007ZM17.5994 66.2094C18.9022 68.9275 22.4559 69.6891 24.9766 70.1508C30.205 71.1076 35.6596 70.8435 40.9228 70.4484C51.1925 69.6772 61.0925 66.4832 69.8311 60.671C71.1665 62.8702 72.6954 64.9004 74.2244 66.9354C72.2148 69.8748 69.7898 72.4548 67.8542 75.4632C65.0094 75.4537 62.3061 76.42 59.4918 76.846C59.1547 76.5485 58.6849 76.4604 58.2151 76.8127C54.7136 79.4403 51.9798 83.0865 49.1416 86.5091C41.9471 83.4816 33.028 81.5395 25.8966 85.569C24.1349 84.0624 22.5799 82.2845 20.7682 80.8564C20.7465 80.24 20.3768 79.6783 19.6699 79.7449C19.6047 79.7045 19.5416 79.6688 19.4655 79.6402C17.0362 78.6858 14.4611 78.2859 11.8882 78.3692C13.813 74.3279 15.679 70.2532 17.5994 66.2094ZM6.79686 82.1678C7.61679 81.6204 8.46064 81.1016 9.29144 80.5684C9.47848 80.8802 9.79819 81.0849 10.2549 81.0325C11.5577 80.8826 12.8539 80.8731 14.137 80.9897C11.1292 81.8465 8.14963 82.8366 5.09394 83.2175C5.7203 82.8271 6.32927 82.4796 6.79686 82.1678ZM2.54064 85.9236C3.18876 85.9307 3.82816 85.8998 4.4654 85.8427C3.6868 98.9545 10.455 111.926 17.88 121.627C20.6551 125.254 23.924 128.848 27.5625 131.909C11.9578 123.186 0.487566 105.871 2.54064 85.9236ZM88.8199 113.413C82.204 126.235 69.1439 135.372 55.9337 137.452C54.2069 137.724 52.4713 137.876 50.7314 137.916C50.5922 137.707 50.3813 137.538 50.0855 137.459C39.2024 134.537 31.1685 124.447 25.9335 114.104C25.205 112.666 23.2454 114.042 23.9696 115.475C28.4455 124.319 34.9266 132.854 43.3129 137.421C43.1607 137.397 43.0085 137.371 42.8562 137.345C33.4282 135.186 25.1919 127.246 19.2241 119.447C12.1992 110.267 6.00956 97.8549 6.82514 85.5095C10.8291 84.7478 14.7069 83.1413 18.7608 82.4416C20.7291 83.7792 22.3059 85.6856 24.1045 87.2779C24.0958 87.423 24.1197 87.5658 24.1567 87.7086C23.4542 92.7139 23.8739 97.7335 24.9222 102.656C25.2659 104.257 27.4864 103.496 27.1471 101.906C26.1858 97.3932 25.7857 92.7544 26.4403 88.1609C26.7208 87.9847 26.9992 87.811 27.2863 87.6563C27.5647 90.6076 27.7757 93.5589 28.3281 96.4721C28.6304 98.081 30.8553 97.317 30.553 95.7224C29.9897 92.7449 29.8309 89.7127 29.5286 86.6971C35.566 84.6645 42.6539 86.452 48.3412 88.8844C48.7284 89.4889 49.5548 89.7865 50.1529 89.082C52.5453 86.2592 54.818 83.1556 57.5148 80.6375C59.9529 94.6656 59.5788 109.127 59.2069 123.336C59.1634 124.983 61.4949 124.893 61.5362 123.26C61.9168 108.632 62.2365 93.8088 59.6484 79.3832C62.8193 78.8905 65.8816 77.729 69.1265 78.0813C70.0878 78.186 70.3879 77.1673 70.0899 76.3866C71.8994 73.6424 74.0873 71.2243 75.9751 68.5443C76.2122 68.5491 76.4427 68.4848 76.6472 68.3658C76.8125 68.4729 77.0169 68.5372 77.267 68.5253C79.133 68.4205 80.973 68.0564 82.8216 67.8112C83.2022 67.985 83.6307 67.9112 83.9613 67.6827C84.4006 67.6399 84.8399 67.6066 85.2792 67.5923C85.3641 68.0016 85.4249 68.4086 85.4445 68.868C85.4837 69.751 86.1731 70.1318 86.7951 70.0437C89.9378 77.2244 93.0892 84.279 93.6264 92.3593C94.1223 99.7542 92.1149 107.028 88.8199 113.413Z" fill="#FF5B0D"/>
</svg>
