<svg width="312" height="266" viewBox="0 0 312 266" fill="none" xmlns="http://www.w3.org/2000/svg">
<path d="M263.467 181.094C262.897 181.094 262.419 181.388 262.126 181.923C261.234 183.552 258.633 185.445 256.624 185.445C255.502 185.445 254.708 184.864 254.27 183.718C254.006 183.016 253.39 182.602 252.63 182.602C252.038 182.602 251.485 182.867 251.192 183.298C250.927 183.678 250.887 184.162 251.077 184.651C252.066 187.24 254.069 188.662 256.711 188.662C259.91 188.662 263.403 186.533 265.015 183.598C265.308 183.062 265.308 182.493 265.015 181.992C264.692 181.457 264.077 181.094 263.467 181.094Z" fill="#FF5B0D"/>
<path d="M233.277 216.683C233.375 215.976 233.052 215.147 232.109 214.888C230.474 214.433 229.266 213.15 227.982 211.792C226.878 210.618 225.732 209.409 224.271 208.73C223.217 208.241 222.055 208.017 220.611 208.017C219.477 208.017 218.309 208.16 217.181 208.299C215.667 208.483 214.039 208.655 212.732 208.517C211.656 208.414 211.144 209.173 211.104 209.933C211.058 210.773 211.599 211.734 212.68 211.849C213.124 211.895 213.584 211.918 214.09 211.918C215.126 211.918 216.156 211.815 217.152 211.717C218.142 211.619 219.08 211.527 220.012 211.527C221.572 211.527 223.597 211.757 225.456 213.558C225.911 214.002 226.325 214.45 226.728 214.888C227.971 216.24 229.145 217.524 231.222 218.099C231.384 218.145 231.545 218.168 231.7 218.168C232.604 218.168 233.173 217.42 233.277 216.683Z" fill="#FF5B0D"/>
<path d="M261.245 221.155C261.061 221.155 260.871 221.161 260.687 221.167C261.28 220.965 261.763 220.453 261.763 219.647V219.331C261.763 217.202 258.431 217.202 258.431 219.331V219.647C258.431 220.528 259.012 221.057 259.68 221.213C258.822 221.264 258.017 221.351 257.349 221.431C256.682 221.512 256.031 221.592 255.393 221.679C252.711 222.018 250.179 222.341 247.773 222.341C243.647 222.341 240.206 221.362 236.626 219.158C236.35 218.986 236.062 218.899 235.774 218.899C235.067 218.899 234.428 219.429 234.215 220.183C234.008 220.919 234.284 221.627 234.94 222.024C240.275 225.304 245.287 226.547 250.328 225.868C251.197 225.753 252.256 225.535 253.378 225.304C255.721 224.821 258.379 224.274 260.808 224.274C263.927 224.274 265.912 225.201 266.879 227.1C267.155 227.641 267.633 227.952 268.197 227.952C268.796 227.952 269.394 227.606 269.722 227.071C270.033 226.565 270.05 225.983 269.774 225.437C268.289 222.559 265.504 221.155 261.245 221.155Z" fill="#FF5B0D"/>
<path d="M91.7373 203.077L91.4266 203.146C90.4195 203.382 89.4182 203.613 88.4283 203.831C87.6054 204.015 87.1335 204.671 87.2256 205.512C87.3119 206.277 87.9219 207.094 88.8887 207.094C89.0211 207.094 89.1534 207.077 89.2915 207.048L90.0397 206.881C96.3469 205.471 102.867 204.015 109.428 204.01C110.573 204.01 111.712 204.056 112.817 204.142C114.423 204.269 116.051 204.47 117.634 204.66C120.368 204.988 123.187 205.333 125.973 205.333C127.912 205.333 129.662 205.172 131.313 204.833C132.13 204.666 132.608 204.021 132.527 203.192C132.441 202.312 131.676 201.368 130.461 201.61C129.978 201.708 129.46 201.794 128.839 201.869C128.027 199.216 127.469 196.528 126.922 193.921C125.432 186.785 124.028 180.047 117.853 174.689C116.661 173.653 115.292 172.813 113.796 172.186C113.554 171.478 112.852 170.804 111.827 170.966C111.361 171.04 110.912 171.132 110.492 171.23C109.612 171.081 108.708 171 107.811 171C103.328 171 99.0977 172.876 96.2088 176.151C95.7542 176.663 95.6506 177.342 95.9268 177.963C96.2146 178.602 96.8303 179.034 97.4634 179.028C97.8835 179.028 98.2748 178.838 98.5856 178.487C99.7078 177.215 100.962 176.231 102.326 175.541C95.3168 182.015 93.3544 193.576 91.7604 202.962L91.7373 203.077ZM110.233 174.781C113.974 175.736 117.502 178.343 119.907 181.951C122.474 185.796 123.279 190.612 124.062 195.268C124.442 197.541 124.839 199.889 125.432 202.082H125.409C122.485 202.082 119.481 201.69 116.575 201.316C114.394 201.034 112.144 200.741 109.963 200.62C109.364 200.586 108.737 200.568 108.116 200.568C103.702 200.568 99.3279 201.38 95.242 202.277C96.9512 192.04 99.374 178.245 110.233 174.781Z" fill="#FF5B0D"/>
<path d="M87.9969 215.025C89.8557 215.025 91.2656 215.572 92.4223 216.74C92.7446 217.062 93.1302 217.235 93.5445 217.235C94.2121 217.235 94.8681 216.78 95.1386 216.124C95.3918 215.508 95.2595 214.875 94.7761 214.386C93.0266 212.625 91.0642 211.802 88.6069 211.802C86.961 211.802 85.3152 212.153 83.5715 212.527C81.5918 212.947 79.5431 213.391 77.5059 213.264C76.4182 213.212 75.9003 214.024 75.8773 214.789C75.8485 215.641 76.3952 216.533 77.4771 216.602C79.2323 216.705 81.1659 216.256 83.0305 215.825C84.6936 215.428 86.4201 215.025 87.9969 215.025Z" fill="#FF5B0D"/>
<path d="M120.805 213.73C118.371 212.786 115.856 211.814 113.243 211.255C112.587 211.117 111.908 211.042 111.229 211.042C108.403 211.042 105.779 212.251 103.236 213.425C102.102 213.949 100.934 214.484 99.7712 214.904C98.8331 215.243 98.5397 216.124 98.6663 216.855C98.8389 217.856 99.7424 218.443 100.692 218.104C101.86 217.684 102.982 217.183 104.07 216.694C106.55 215.577 108.893 214.53 111.563 214.53C112.265 214.53 112.978 214.605 113.675 214.754C115.965 215.243 118.204 216.153 120.368 217.027C122.198 217.77 124.085 218.535 126.013 219.059C126.168 219.099 126.33 219.122 126.479 219.122C127.394 219.122 127.97 218.368 128.068 217.62C128.16 216.918 127.832 216.095 126.894 215.842C124.822 215.284 122.779 214.49 120.805 213.73Z" fill="#FF5B0D"/>
<path d="M74.1449 222.483C71.6991 221.804 69.3569 220.745 67.0953 219.715C64.8854 218.714 62.6008 217.678 60.2068 216.987C59.1767 216.688 58.1005 216.539 57.0129 216.539C54.216 216.539 51.3213 217.477 47.903 219.491C47.2469 219.876 46.9592 220.573 47.1606 221.304C47.3678 222.063 48.0353 222.61 48.7489 222.61C49.0309 222.61 49.3187 222.529 49.5892 222.368C52.2191 220.82 54.5383 220.095 56.8862 220.095C58.8371 220.095 60.8283 220.578 63.1647 221.62C63.7863 221.896 64.402 222.178 65.012 222.455C67.7571 223.703 70.3525 224.883 73.2587 225.694C73.4198 225.741 73.5809 225.764 73.7363 225.764C74.6398 225.764 75.2096 225.015 75.3131 224.279C75.411 223.571 75.083 222.742 74.1449 222.483Z" fill="#FF5B0D"/>
<path d="M90.857 220.372C89.3838 220.372 87.7724 220.666 86.1956 221.224C85.2576 221.558 84.9583 222.438 85.0849 223.169C85.2576 224.176 86.1611 224.769 87.1164 224.429C89.9823 223.416 92.3072 223.468 94.0222 224.573C94.3041 224.757 94.5919 224.849 94.8911 224.849C95.5702 224.849 96.2032 224.331 96.4162 223.595C96.6348 222.852 96.3701 222.127 95.7198 221.707C94.3502 220.821 92.7101 220.372 90.857 220.372Z" fill="#FF5B0D"/>
<path d="M148.693 211.165C148.986 210.871 149.136 210.48 149.136 210.025C149.13 203.16 149.947 196.243 150.741 189.555C151.403 183.962 152.088 178.178 152.289 172.441C152.307 171.986 152.163 171.589 151.881 171.295C151.587 170.99 151.144 170.812 150.672 170.812C149.849 170.812 148.992 171.364 148.957 172.423C148.756 178.138 148.071 183.916 147.409 189.498C146.615 196.202 145.792 203.137 145.798 210.031C145.798 211.096 146.638 211.654 147.467 211.654C147.939 211.642 148.388 211.47 148.693 211.165Z" fill="#FF5B0D"/>
<path d="M159.299 219.526C161.595 219.526 163.926 219.376 166.187 219.232L166.89 219.186C170.613 218.95 173.951 218.616 177.099 218.168C179.47 217.834 181.8 217.281 183.757 216.792C184.476 216.614 185.316 216.24 186.203 215.848C187.492 215.279 188.827 214.686 189.799 214.686C190.864 214.686 191.422 213.846 191.422 213.017C191.422 212.188 190.864 211.348 189.799 211.348C188.43 211.348 186.813 212.021 185.247 212.678C184.39 213.034 183.584 213.374 182.871 213.575C178.606 214.79 174.095 215.29 169.847 215.658C169.226 215.71 168.587 215.768 167.948 215.825C165.203 216.079 162.366 216.338 159.535 216.338C155.368 216.338 152.146 215.779 149.383 214.571C149.147 214.467 148.912 214.415 148.67 214.415C147.749 214.415 147.047 215.164 146.892 215.889C146.748 216.585 147.07 217.172 147.749 217.471C150.966 218.875 154.632 219.526 159.299 219.526Z" fill="#FF5B0D"/>
<path d="M204.405 213.616C204.054 212.016 203.599 210.428 202.943 208.891C202.926 208.857 202.914 208.828 202.891 208.805C202.759 208.397 202.494 208.086 202.143 207.936C200.526 207.24 198.892 206.779 197.148 206.538C196.072 201.307 195.543 195.822 195.03 190.516C194.846 188.6 194.656 186.615 194.443 184.698L194.253 182.995C193.385 175.134 192.481 167.008 191.244 159.055C191.152 158.445 190.824 158.14 190.542 157.99C188.067 154.474 179.199 153.45 175.855 153.058L175.55 153.024C170.336 152.414 164.766 152.483 158.919 153.231C151.11 154.232 145.936 156.402 143.105 159.866C142.46 160.102 142.103 160.666 142.155 161.386C142.604 167.566 141.683 173.816 140.791 179.858C140.532 181.602 140.268 183.403 140.043 185.17L139.778 187.225C139.278 191.098 138.76 195.103 138.334 199.057C138.133 200.904 138.035 202.809 137.937 204.644C137.856 206.175 137.77 207.752 137.632 209.3C137.58 209.323 137.523 209.346 137.471 209.375C133.172 211.602 131.405 215.861 132.084 222.346C128.413 223.48 124.764 225.73 121.49 228.912C121.432 228.97 121.38 229.028 121.334 229.085C118.555 229.413 115.844 230.265 113.226 231.088C111.039 231.773 108.772 232.486 106.447 232.906C105.629 233.05 105.152 233.677 105.221 234.495C105.296 235.3 105.923 236.164 106.959 236.164C107.068 236.164 107.177 236.152 107.293 236.135C109.485 235.738 111.666 235.013 113.772 234.31C116.88 233.275 120.097 232.198 123.377 232.198C124.068 232.198 124.753 232.244 125.414 232.342C125.507 232.354 125.593 232.36 125.679 232.36C126.727 232.36 127.411 231.473 127.475 230.622C127.526 229.85 127.078 229.269 126.312 229.131C128.649 227.324 131.071 226.064 133.529 225.391C133.552 225.385 133.569 225.373 133.586 225.367C137.574 228.987 144.664 231.352 154.706 232.417C159.909 236.515 166.625 239.657 175.015 241.936C180.033 243.299 184.908 243.961 189.92 243.961C196.325 243.961 202.909 242.851 210.056 240.572H210.073C210.482 240.572 210.862 240.416 211.184 240.123C213.923 237.602 215.466 233.637 215.886 227.997C216.139 227.71 216.266 227.341 216.26 226.927C216.179 220.39 210.263 215.141 204.405 213.616ZM203.72 224.067C205.481 225.402 208.399 227.715 207.633 229.776C207.53 230.058 207.495 230.334 207.541 230.593C202.989 233.447 196.561 234.051 191.946 234.057C188.654 234.057 185.759 233.758 183.912 233.511C181.535 233.188 179.228 232.739 176.989 232.181C180.12 231.75 183.44 231.145 187.02 230.363C192.262 229.206 198.662 227.79 203.72 224.067ZM161.992 156.218C165.462 155.867 169.134 155.832 172.886 156.108C176.356 156.362 179.688 156.874 182.773 157.616C184.994 158.151 187.284 159.25 187.353 160.321C187.394 160.971 186.582 161.639 185 162.249C180.402 164.015 175.148 164.09 170.06 164.159C168.8 164.177 167.557 164.194 166.343 164.24C165.485 164.269 164.49 164.343 163.431 164.418C161.629 164.545 159.592 164.689 157.555 164.689C151.76 164.689 148.278 163.486 146.632 160.908C150.431 157.392 157.935 156.632 161.992 156.218ZM135.405 222.381C134.881 218.329 135.457 215.556 137.206 213.702C137.281 213.967 137.419 214.203 137.615 214.41C137.966 214.773 138.466 214.992 138.967 214.992C139.709 214.992 140.256 214.52 140.394 213.76C141.229 209.041 141.591 204.121 141.942 199.367C142.201 195.845 142.472 192.203 142.932 188.681C143.208 186.534 143.548 184.336 143.87 182.212C144.739 176.526 145.631 170.657 145.62 164.861C148.123 166.979 151.984 167.969 157.699 167.969C159.845 167.969 161.992 167.831 163.88 167.716C164.967 167.647 165.997 167.583 166.918 167.549C167.672 167.52 168.426 167.497 169.18 167.474C172.61 167.365 176.155 167.255 179.625 166.789L180.108 166.726C182.732 166.381 186.277 165.909 188.654 164.246C189.575 170.829 190.323 177.534 191.042 184.031L191.526 188.387C191.704 189.97 191.865 191.575 192.026 193.192C192.671 199.609 193.338 206.25 195.145 212.367C195.358 213.092 195.957 213.541 196.711 213.541C197.275 213.541 197.827 213.277 198.144 212.857C198.431 212.471 198.506 211.982 198.357 211.475C198.23 211.044 198.121 210.606 198.006 210.169L197.971 210.037C198.667 210.192 199.381 210.416 200.1 210.698C201.217 213.409 201.631 216.396 202.034 219.285C202.115 219.86 202.195 220.43 202.281 221.005C197.908 224.55 192.216 225.811 186.709 227.031L186.156 227.151C180.183 228.481 174.538 229.263 168.996 229.557C163.782 227.387 159.212 224.504 155.593 221.023C155.501 220.936 155.397 220.856 155.276 220.781C154.873 220.326 154.286 220.136 153.671 220.274C151.38 220.792 149.677 222.26 148.652 223.399C148.244 223.854 148.111 224.435 148.29 225.005C148.209 225.494 148.33 225.96 148.641 226.357C149.119 226.967 149.625 227.56 150.149 228.141C145.199 227.341 138.236 224.878 135.405 222.381ZM209.233 237.326C202.477 239.49 196.233 240.537 190.145 240.537C185.472 240.537 180.816 239.939 175.907 238.701C165.531 236.089 157.204 231.335 151.812 224.953C152.399 224.435 153.032 224.038 153.688 223.768C163.465 232.878 176.73 236.054 186.151 237.113C187.906 237.309 189.73 237.412 191.566 237.412C196.86 237.412 206.413 236.561 212.151 231.001C211.616 233.752 210.655 235.83 209.233 237.326ZM210.896 227.589C210.194 225.258 208.013 223.244 205.671 221.408C205.665 221.385 205.665 221.356 205.66 221.333C205.665 221.213 205.66 221.097 205.636 220.982C205.521 220.257 205.412 219.532 205.303 218.813C205.234 218.329 205.159 217.846 205.084 217.357C208.243 218.64 211.42 221.236 212.525 224.591C212.134 225.672 211.587 226.68 210.896 227.589Z" fill="#FF5B0D"/>
<path d="M155.029 123.835C155.863 125.153 157.043 125.843 158.441 125.843C160.363 125.843 162.694 124.514 164.685 122.287C166.343 120.428 167.384 118.391 167.586 116.705C167.695 116.492 167.764 116.244 167.77 115.951C167.781 115.283 167.868 114.115 167.977 112.63C168.524 105.327 169.537 91.7345 165.646 87.545C164.691 86.5149 163.483 86.1178 162.073 86.3653C156.997 87.263 156.116 94.5198 155.593 98.859C155.541 99.2848 155.489 99.6877 155.443 100.056C154.269 108.867 154.166 116.066 155.109 122.051C155.058 122.12 154.994 122.183 154.948 122.264C154.672 122.764 154.706 123.323 155.029 123.835ZM158.24 105.794L158.269 105.368C158.292 104.976 158.315 104.481 158.344 103.917C158.533 99.6934 158.925 90.9116 162.527 89.6628C162.711 89.5995 162.867 89.6455 163.034 89.8124C164.449 91.2741 164.939 99.5496 164.484 114.408C164.478 114.547 164.478 114.667 164.472 114.788C164.311 115.053 164.242 115.375 164.288 115.738C164.484 117.464 163.085 119.133 161.842 120.393C161.135 121.113 159.541 122.465 158.533 122.465C158.522 122.465 158.516 122.459 158.505 122.459C158.505 122.362 158.499 122.264 158.482 122.166C157.521 116.877 157.883 111.243 158.24 105.794Z" fill="#FF5B0D"/>
<path d="M153.855 137.991C152.307 136.8 150.465 136.172 148.531 136.172C145.188 136.172 141.885 138.066 140.049 141.012C138.334 139.93 136.573 139.384 134.806 139.384C127.803 139.384 121.904 148.234 121.311 156.147C121.277 156.602 121.403 156.999 121.68 157.293C121.967 157.603 122.399 157.776 122.871 157.776C123.694 157.776 124.563 157.229 124.643 156.182C125.046 150.801 129.276 142.658 134.72 142.658C136.32 142.658 137.925 143.349 139.502 144.712C139.842 145.006 140.256 145.167 140.676 145.167C141.401 145.167 142.023 144.701 142.27 143.976C143.162 141.329 145.62 139.55 148.376 139.55C149.734 139.55 151.029 139.994 152.122 140.834C152.41 141.058 152.715 141.168 153.026 141.168C153.636 141.168 154.206 140.701 154.442 140.011C154.649 139.412 154.603 138.561 153.855 137.991Z" fill="#FF5B0D"/>
<path d="M29.8733 223.231C29.3151 223.795 29.0734 224.336 29.0676 225.038C29.0676 225.493 29.2172 225.884 29.505 226.177C29.81 226.482 30.2531 226.655 30.7192 226.655C31.4098 226.655 32.1752 226.264 32.3536 225.401C32.86 224.733 32.8082 223.807 32.2212 223.225C31.6055 222.61 30.489 222.609 29.8733 223.231Z" fill="#FF5B0D"/>
<path d="M37.2796 220.936V221.886C37.2796 222.95 38.1198 223.503 38.9485 223.503C39.7772 223.503 40.6174 222.945 40.6174 221.886V220.936C40.6174 218.807 37.2796 218.807 37.2796 220.936Z" fill="#FF5B0D"/>
<path d="M31.6801 215.476H31.0471C29.9824 215.476 29.4242 216.316 29.4242 217.144C29.4242 217.973 29.9824 218.813 31.0471 218.813H31.6801C32.7448 218.813 33.303 217.973 33.303 217.144C33.303 216.316 32.7448 215.476 31.6801 215.476Z" fill="#FF5B0D"/>
<path d="M19.9922 220.216H19.6757C18.6111 220.216 18.0529 221.056 18.0529 221.885C18.0529 222.713 18.6111 223.554 19.6757 223.554H19.9922C21.0569 223.554 21.6151 222.713 21.6151 221.885C21.6151 221.056 21.0569 220.216 19.9922 220.216Z" fill="#FF5B0D"/>
<path d="M25.5918 221.569V221.885C25.5918 222.95 26.432 223.502 27.2607 223.502C28.0894 223.502 28.9296 222.944 28.9296 221.885V221.569C28.9238 219.439 25.5918 219.439 25.5918 221.569Z" fill="#FF5B0D"/>
<path d="M0 219.359V219.675C0 220.74 0.840198 221.292 1.66889 221.292C2.49758 221.292 3.33779 220.734 3.33779 219.675V219.359C3.33779 217.229 0 217.229 0 219.359Z" fill="#FF5B0D"/>
<path d="M18.3578 212.436C18.1334 211.768 17.5694 211.371 16.8328 211.371C15.6531 211.377 14.8589 212.177 14.8531 213.351C14.8531 213.805 15.0028 214.197 15.2905 214.49C15.5955 214.795 16.0386 214.968 16.5105 214.968C17.0457 214.968 17.5464 214.738 17.8514 214.358C18.3866 213.932 18.5938 213.144 18.3578 212.436Z" fill="#FF5B0D"/>
<path d="M6.40516 211.688C5.22543 211.693 4.43126 212.493 4.42551 213.667C4.42551 214.122 4.57513 214.513 4.86287 214.807C5.16788 215.112 5.611 215.29 6.08289 215.29C6.61809 215.29 7.11876 215.066 7.41801 214.68C7.95896 214.248 8.16613 213.46 7.93019 212.752C7.70575 212.09 7.14178 211.688 6.40516 211.688Z" fill="#FF5B0D"/>
<path d="M13.0402 215.796H12.6374C11.5727 215.796 11.0145 216.636 11.0202 217.465C11.0202 218.293 11.5785 219.134 12.6431 219.134H13.0459C14.1106 219.134 14.6688 218.293 14.6688 217.465C14.663 216.63 14.1048 215.796 13.0402 215.796Z" fill="#FF5B0D"/>
<path d="M125.829 240.917H126.145C127.21 240.917 127.768 240.077 127.768 239.248C127.768 238.419 127.21 237.579 126.145 237.579H125.829C124.764 237.579 124.206 238.419 124.206 239.248C124.206 240.077 124.764 240.917 125.829 240.917Z" fill="#FF5B0D"/>
<path d="M134.991 237.579H134.588C133.523 237.579 132.965 238.419 132.965 239.248C132.965 240.077 133.523 240.917 134.588 240.917H134.991C136.055 240.917 136.613 240.077 136.613 239.248C136.613 238.419 136.055 237.579 134.991 237.579Z" fill="#FF5B0D"/>
<path d="M134.639 234.385C134.927 234.091 135.083 233.7 135.077 233.245C135.071 232.066 134.277 231.271 133.086 231.266C132.366 231.266 131.797 231.663 131.572 232.33C131.33 233.038 131.543 233.827 132.084 234.258C132.389 234.638 132.884 234.868 133.425 234.868C133.891 234.868 134.334 234.69 134.639 234.385Z" fill="#FF5B0D"/>
<path d="M110.665 241.866C111.73 241.866 112.288 241.025 112.288 240.197C112.288 239.368 111.73 238.528 110.665 238.528H110.349C109.284 238.528 108.726 239.368 108.726 240.197C108.726 241.025 109.284 241.866 110.349 241.866H110.665Z" fill="#FF5B0D"/>
<path d="M123.072 244.622V244.305C123.072 242.176 119.74 242.176 119.74 244.305V244.622C119.74 245.687 120.581 246.245 121.409 246.245C122.238 246.239 123.072 245.681 123.072 244.622Z" fill="#FF5B0D"/>
<path d="M118.25 238.707C119.146 238.707 119.873 237.96 119.873 237.038C119.873 236.116 119.146 235.369 118.25 235.369C117.354 235.369 116.627 236.116 116.627 237.038C116.627 237.96 117.354 238.707 118.25 238.707Z" fill="#FF5B0D"/>
<path d="M56.2761 238.263C55.3726 238.453 54.9697 239.305 55.033 240.059C55.0964 240.801 55.6143 241.549 56.6329 241.549H56.6444C57.3522 241.544 57.8932 241.302 58.4514 240.744C58.7622 240.433 58.9348 240.018 58.9348 239.57C58.9348 239.121 58.7622 238.701 58.4514 238.39C57.8932 237.832 56.9149 237.78 56.2761 238.263Z" fill="#FF5B0D"/>
<path d="M65.4033 240.202V240.518C65.4033 241.583 66.2435 242.136 67.0722 242.136C67.9009 242.136 68.7411 241.577 68.7411 240.518V240.202C68.7354 238.073 65.4033 238.073 65.4033 240.202Z" fill="#FF5B0D"/>
<path d="M57.502 235.152V235.468C57.502 236.533 58.3422 237.091 59.1708 237.091C59.9995 237.091 60.8397 236.533 60.8397 235.468V235.152C60.834 233.022 57.502 233.022 57.502 235.152Z" fill="#FF5B0D"/>
<path d="M45.9002 233.798C44.8356 233.798 44.2774 234.639 44.2774 235.467C44.2774 236.296 44.8356 237.136 45.9002 237.136C46.9649 237.136 47.5231 236.296 47.5231 235.467C47.5231 234.639 46.9649 233.798 45.9002 233.798Z" fill="#FF5B0D"/>
<path d="M53.796 230.639H53.4794C52.4148 230.639 51.8566 231.479 51.8566 232.308C51.8566 233.136 52.4148 233.976 53.4794 233.976H53.796C54.8606 233.976 55.4188 233.136 55.4188 232.308C55.4188 231.479 54.8606 230.639 53.796 230.639Z" fill="#FF5B0D"/>
<path d="M245.569 233.465C244.505 233.465 243.946 234.305 243.946 235.134C243.946 235.962 244.505 236.803 245.569 236.803C246.634 236.803 247.192 235.962 247.192 235.134C247.186 234.305 246.628 233.465 245.569 233.465Z" fill="#FF5B0D"/>
<path d="M258.517 235.355C257.856 235.355 257.315 235.712 257.033 236.34L257.01 236.368C256.958 236.426 256.912 236.483 256.877 236.535C256.636 236.863 256.59 237.226 256.538 237.623C256.492 238.003 256.618 238.383 256.9 238.705C257.234 239.085 257.735 239.321 258.207 239.321C258.886 239.321 259.432 238.946 259.709 238.313C259.76 238.256 259.812 238.193 259.847 238.141C260.089 237.813 260.135 237.45 260.186 237.053C260.232 236.679 260.106 236.294 259.83 235.971C259.49 235.591 258.989 235.355 258.517 235.355Z" fill="#FF5B0D"/>
<path d="M275.897 234.408H275.494C274.43 234.408 273.871 235.248 273.871 236.077C273.871 236.905 274.43 237.746 275.494 237.746H275.897C276.962 237.746 277.52 236.905 277.52 236.077C277.514 235.248 276.962 234.408 275.897 234.408Z" fill="#FF5B0D"/>
<path d="M297.38 229.35H297.063C295.999 229.35 295.44 230.19 295.44 231.019C295.44 231.847 295.999 232.687 297.063 232.687H297.38C298.444 232.687 299.003 231.847 299.003 231.019C298.997 230.19 298.444 229.35 297.38 229.35Z" fill="#FF5B0D"/>
<path d="M288.937 228.175V227.542C288.937 225.419 285.605 225.419 285.605 227.542V228.175C285.605 229.24 286.446 229.792 287.274 229.792C288.097 229.792 288.937 229.24 288.937 228.175Z" fill="#FF5B0D"/>
<path d="M289.168 239.005C290.064 239.005 290.791 238.258 290.791 237.336C290.791 236.414 290.064 235.667 289.168 235.667C288.271 235.667 287.545 236.414 287.545 237.336C287.545 238.258 288.271 239.005 289.168 239.005Z" fill="#FF5B0D"/>
<path d="M290.745 230.615C289.68 230.615 289.122 231.455 289.122 232.284C289.122 233.112 289.68 233.953 290.745 233.953C291.809 233.953 292.367 233.112 292.367 232.284C292.367 231.455 291.809 230.615 290.745 230.615Z" fill="#FF5B0D"/>
<path d="M304.959 224.924H304.326C303.261 224.924 302.703 225.764 302.703 226.593C302.703 227.421 303.261 228.262 304.326 228.262H304.959C306.023 228.262 306.582 227.421 306.582 226.593C306.582 225.764 306.023 224.924 304.959 224.924Z" fill="#FF5B0D"/>
<path d="M297.736 220.272C297.736 219.444 297.178 218.604 296.114 218.604C295.049 218.604 294.491 219.444 294.491 220.272C294.491 221.101 295.049 221.941 296.114 221.941C297.178 221.941 297.736 221.101 297.736 220.272Z" fill="#FF5B0D"/>
<path d="M310.748 215.186C309.108 214.922 307.468 214.611 305.845 214.294C305.995 213.966 306.029 213.592 305.937 213.207C305.149 209.996 303.912 206.577 300.718 205.513C299.469 205.098 298.243 204.96 297.058 204.833C294.681 204.575 292.626 204.35 290.906 202.042C290.376 201.335 290.054 200.408 289.714 199.424C289.22 197.997 288.707 196.524 287.499 195.741C286.296 194.964 284.616 194.59 282.348 194.59C280.691 194.59 278.936 194.786 277.382 194.964C277.071 194.998 276.766 195.033 276.473 195.068C277.434 193.543 278.303 191.948 278.999 190.297C279.638 190.274 280.242 189.906 280.53 189.376C280.789 188.893 280.748 188.346 280.409 187.845C280.305 187.69 280.19 187.54 280.081 187.391L279.931 187.189C279.856 186.758 279.58 186.384 279.172 186.148C276.53 182.793 273.025 179.886 268.479 177.256C269.975 174.063 271.391 170.777 272.767 167.594C273.635 165.58 274.504 163.566 275.402 161.557C277.261 157.385 279.574 153.339 281.807 149.426C282.768 147.74 283.764 146.002 284.708 144.276C284.955 143.827 285.22 143.349 285.496 142.854C289.266 136.081 294.963 125.849 287.539 120.151C286.653 119.472 285.588 119.127 284.374 119.127C281.479 119.127 278.884 121.009 278.159 121.59C275.523 123.685 274.378 127.541 273.371 130.942C273.158 131.661 272.951 132.352 272.743 132.99C269.262 143.602 264.485 154.502 258.195 166.138C256.089 162.904 253.125 160.567 248.452 158.398C247.14 157.788 245.972 157.178 244.873 156.522L244.643 156.459L244.625 156.482C243.549 156.056 242.433 155.843 241.299 155.843C238.111 155.843 235.268 157.523 233.697 160.337C232.725 162.075 231.804 162.996 231.027 162.996C229.68 162.996 228.431 160.205 227.683 155.526C227.476 154.243 227.378 152.896 227.281 151.59C227.108 149.311 226.929 146.957 226.199 144.771C225.727 143.361 224.616 142.543 222.803 142.279C221.635 142.106 220.887 137.871 220.852 131.241L220.864 131.017C221.336 123.708 222.193 110.357 216.197 108.797C216.226 102.15 216.076 100.884 215.897 99.4399C215.725 98.0012 215.523 96.3783 215.472 88.828C215.466 87.7634 214.626 87.2109 213.797 87.2109C213.521 87.2109 213.262 87.2742 213.026 87.3893C212.6 87.3606 212.168 87.3318 211.725 87.3318C209.458 87.3318 207.208 87.7174 205.032 88.0914C202.569 88.5173 200.031 88.9546 197.471 88.8223H197.402C196.82 88.8223 196.256 89.1963 195.957 89.7776C195.681 90.3185 195.71 90.9055 196.032 91.3544C199.398 95.9928 205.545 99.1061 211.317 99.1061C211.719 99.1061 212.117 99.0774 212.514 99.0486C212.531 99.204 212.548 99.3593 212.565 99.5032C212.738 100.948 212.893 102.214 212.859 109.062C208.756 110.65 205.654 116.526 204.348 120.215C203.018 123.973 202.707 128.116 202.402 132.121C202.08 136.42 201.741 140.84 200.135 144.771C198.213 143.735 196.112 143.084 193.845 142.889C193.431 139.091 193.857 135.356 194.317 131.402C194.392 130.781 194.461 130.153 194.53 129.532C194.904 126.096 195.376 121.826 193.586 118.281C192.159 115.461 188.694 115.104 185.84 115.104C184.701 115.104 183.573 115.174 182.485 115.231C181.898 115.266 181.334 115.3 180.805 115.317C180.557 110.265 180.695 105.068 180.828 100.038C181.138 88.4482 181.461 76.4667 177.076 65.3427C175.217 60.618 171.269 55.2142 165.549 52.7454C165.313 47.3186 164.858 29.2057 164.415 23.917C163.799 16.6141 163.16 9.06959 163.109 1.61711C163.103 0.552469 162.263 0 161.434 0C160.962 0 160.519 0.172645 160.214 0.47765C159.926 0.771145 159.771 1.16248 159.777 1.61711C159.788 3.42412 159.84 5.24264 159.909 7.0554C157.118 7.51579 154.275 7.81503 151.513 8.09702C147.381 8.51712 143.105 8.94874 138.973 9.96158C138.397 10.0997 137.914 10.6291 137.77 11.2737C137.638 11.8607 137.816 12.4189 138.248 12.7642C140.964 14.9395 143.732 16.5623 146.707 17.7133C145.355 19.0369 144.02 20.4066 142.719 21.7359C142.011 22.4553 141.309 23.1804 140.596 23.894C140.124 24.3716 140.003 25.1025 140.274 25.7643C140.527 26.3743 141.056 26.7426 141.683 26.7426C141.718 26.7426 141.753 26.7426 141.787 26.7368C145.01 26.5354 148.296 26.4664 151.472 26.4088C154.678 26.3455 157.987 26.2765 161.256 26.0635C161.612 30.3278 161.958 47.3589 162.171 51.7038C161.394 51.5541 160.6 51.439 159.777 51.3988C157.63 51.3009 156.07 51.8016 154.948 52.9238C152.831 55.0473 152.836 58.9778 152.842 62.7818C152.848 65.1815 152.848 67.4432 152.336 69.1523C152.18 69.6588 152.278 70.0558 152.416 70.3263L152.059 70.7982C149.533 74.113 146.92 77.5429 146.385 81.7554C146.322 82.233 146.287 82.7222 146.264 83.2229C145.004 83.9652 143.732 84.6443 142.495 85.3003C139.151 87.0671 135.998 88.7302 133.253 91.6249C129.403 95.682 126.905 100.844 124.782 105.822C122.929 110.161 121.657 114.73 120.425 119.15L120.304 119.576C119.487 122.505 118.497 124.98 117.283 127.149C116.696 128.202 113.105 132.225 110.884 132.225C110.101 132.225 109.572 131.724 109.267 130.689C109.059 129.992 108.49 129.561 107.782 129.526C106.222 126.959 104.116 125.463 101.946 125.463C100.088 125.463 98.3037 126.562 96.7787 128.64C92.4683 134.51 87.594 143.303 88.837 151.849C88.8831 152.16 88.9982 152.43 89.1823 152.632C88.4975 153.403 87.8069 154.168 87.1106 154.928C85.8043 156.361 84.4807 157.822 83.2664 159.307C82.1212 158.312 80.999 157.811 79.9228 157.811C76.9303 157.811 74.9046 161.701 74.3752 165.678C73.7019 165.068 73.4429 163.986 73.1667 162.841C72.7178 160.965 72.2056 158.841 69.616 158.617C65.4668 158.254 64.4424 160.878 63.3432 163.658C62.8368 164.941 62.3131 166.27 61.4499 167.341C60.5349 168.475 59.7465 169.05 59.1192 169.05C58.1812 169.05 57.5136 167.778 56.8058 166.432C56.3914 165.643 55.9656 164.832 55.4419 164.199C53.7557 162.139 51.0912 162.783 47.8801 166.063C46.7579 167.209 46.3493 168.918 45.9867 170.425C45.9119 170.742 45.8371 171.053 45.7565 171.352C45.6069 171.916 45.3882 172.244 45.1523 172.244C44.7092 172.244 44.0474 171.243 44.0243 170.305C43.9956 169.194 43.9035 167.991 43.4661 166.754C42.8561 165.039 41.2275 164.015 39.104 164.015C37.5559 164.015 36.0079 164.561 34.9548 165.471C28.4748 171.082 28.5612 190.343 28.6014 198.572V198.716C25.6607 200.178 22.9042 202.088 20.1994 203.964C18.6169 205.064 16.9825 206.197 15.3596 207.199C14.7093 207.602 14.4331 208.315 14.6403 209.052C14.8532 209.806 15.492 210.329 16.1998 210.329C16.4876 210.329 16.7811 210.243 17.0573 210.07C18.5881 209.121 20.1419 207.999 21.782 206.813C26.3053 203.539 30.9897 200.155 36.0597 199.792C38.4479 199.625 40.7844 200.949 43.0403 202.232C43.869 202.704 44.6574 203.147 45.4285 203.516C47.2068 204.35 49.0368 204.759 51.0337 204.759C51.1315 204.759 51.2294 204.747 51.3272 204.747C50.9244 205.628 50.464 206.479 49.9403 207.297C48.0239 207.74 46.0903 208.298 44.0991 208.868C39.6104 210.162 34.9663 211.503 30.2646 211.509C30.2646 211.509 30.2646 211.509 30.2588 211.509C29.4647 211.509 28.6763 211.469 27.9109 211.394C26.8347 211.29 26.3225 212.062 26.2823 212.821C26.242 213.661 26.7772 214.617 27.8591 214.726C28.5324 214.795 29.2345 214.83 29.9423 214.83C34.4483 214.83 39.0694 213.454 43.5352 212.119C47.8628 210.83 52.3343 209.495 56.5583 209.495C60.6212 209.495 64.0914 210.738 67.1587 213.299C67.4809 213.569 67.8608 213.707 68.2521 213.707C68.9945 213.707 69.708 213.207 69.9613 212.516C70.1742 211.929 70.0015 211.342 69.4836 210.911C65.8005 207.832 61.7607 206.335 57.1453 206.341C56.1555 206.341 55.1714 206.41 54.1873 206.525C55.7526 203.337 56.7137 199.85 57.6345 196.454C58.0488 194.924 58.4804 193.341 58.9581 191.822C60.1033 188.185 61.6974 184.202 66.071 182.982C66.8019 182.775 67.6191 182.672 68.4938 182.672C70.9799 182.672 73.7076 183.5 76.1132 184.231C76.9936 184.502 77.8223 184.749 78.6222 184.962C79.543 185.204 80.4062 184.646 80.6364 183.725C82.0866 182.522 82.7024 181.089 82.6909 178.948C82.6852 177.723 82.3341 176.474 81.9888 175.271C81.8852 174.897 81.7759 174.523 81.6838 174.16C81.0047 171.467 81.4651 168.584 83.0937 165.338C84.941 161.655 87.8069 158.553 90.5807 155.555C93.8552 152.01 97.2391 148.35 98.9828 143.694C99.1669 143.205 99.1209 142.722 98.8562 142.336C98.5569 141.91 98.0102 141.64 97.4175 141.64C96.6578 141.64 96.0421 142.06 95.7831 142.762C95.0004 144.857 93.7574 146.969 91.8928 149.374C91.7259 144.995 93.4927 141.473 95.5241 137.433L95.7831 136.915C95.9615 136.553 96.1629 136.127 96.3816 135.661C97.6419 132.962 99.541 128.882 102.142 128.548C104.317 128.254 105.779 130.85 106.585 136.207L106.619 136.443L106.752 136.426C107.091 137.807 107.707 139.125 108.593 140.305C108.933 140.759 109.428 141.013 109.986 141.013C110.671 141.013 111.344 140.621 111.62 140.063C111.862 139.585 111.793 139.056 111.436 138.578C110.636 137.508 110.13 136.438 109.911 135.344C110.13 135.373 110.349 135.396 110.584 135.396C111.776 135.396 113.151 135.028 114.665 134.308C119.297 132.11 121.553 126.683 123.147 121.659C123.567 120.336 123.97 119.012 124.373 117.7C126.036 112.267 127.607 107.134 130.191 102.041C132.119 98.2372 134.622 94.8361 137.632 91.9356C139.445 90.1804 141.902 89.041 144.279 87.9361C144.975 87.6138 145.677 87.2858 146.368 86.9405L146.391 87.1591L146.61 86.9577C146.546 87.3433 146.466 87.7231 146.31 88.0742C146.063 88.6381 146.109 89.2309 146.443 89.7373C146.782 90.261 147.369 90.5948 147.939 90.5948C148.497 90.5948 148.963 90.2725 149.217 89.7028C149.913 88.1259 149.924 86.5089 149.942 84.9493C149.947 84.1321 149.959 83.2804 150.062 82.446C150.097 82.164 150.062 81.9108 149.976 81.6863C150.362 79.8275 151.11 78.0493 152.284 76.2365C153.113 74.9532 154.051 73.7102 154.954 72.5132C156.197 70.8673 157.486 69.1581 158.528 67.2936C158.827 66.7584 158.827 66.1886 158.539 65.6937C158.108 64.9628 157.072 64.606 156.358 64.9398C156.439 63.34 156.404 61.7114 156.358 59.9274C156.352 59.7547 156.347 59.5648 156.335 59.3634C156.26 57.7233 156.163 55.4789 157.676 54.8516C158.085 54.6848 158.585 54.5984 159.155 54.5984C160.145 54.5984 161.238 54.8517 162.303 55.1969C162.366 57.1363 162.395 59.0757 162.378 61.0093C162.372 61.4639 162.527 61.8553 162.815 62.1488C163.12 62.4538 163.563 62.6264 164.035 62.6264C164.864 62.6264 165.704 62.0682 165.71 61.0093C165.721 59.5303 165.698 58.0456 165.67 56.5608C170.705 59.1562 174.1 64.7154 176.022 73.5145C177.945 82.3251 177.709 91.435 177.473 100.246C177.294 106.904 177.116 113.781 177.864 120.503C177.979 121.538 178.865 122.079 179.688 122.079C180.166 122.079 180.592 121.901 180.868 121.596C181.133 121.302 181.242 120.905 181.196 120.451C181.133 119.864 181.075 119.277 181.023 118.684C181.587 118.667 182.157 118.644 182.727 118.615C183.538 118.575 184.378 118.534 185.173 118.534C188.741 118.534 191.181 119.38 191.48 123.495C191.722 126.798 191.359 130.079 191.014 133.255C190.484 138.072 189.938 143.05 191.52 148.103C191.745 148.822 192.349 149.265 193.103 149.265C193.672 149.265 194.225 149 194.536 148.574C194.818 148.189 194.887 147.7 194.731 147.199C194.639 146.906 194.559 146.618 194.484 146.324C198.121 146.871 201.142 148.799 203.467 152.062C208.059 158.502 208.756 168.417 207.472 175.173C206.247 173.326 205.314 171.145 204.561 169.367L204.382 168.946C204.14 168.377 203.674 168.049 203.116 168.049C202.552 168.049 201.965 168.383 201.626 168.9C201.286 169.413 201.234 170.005 201.476 170.569C203.899 176.232 207.11 181.653 214.148 183.011C215.541 183.282 216.922 183.397 218.257 183.512C220.985 183.742 223.563 183.961 226.101 185.394C228.311 186.637 229.732 189.347 230.987 191.736L231.297 192.328C231.315 192.564 231.384 192.8 231.499 193.019C231.769 193.531 232.04 194.049 232.316 194.578C234.67 199.113 237.334 204.246 242.606 205.795C242.772 205.841 242.939 205.869 243.1 205.869C244.021 205.869 244.551 205.11 244.654 204.408C244.758 203.7 244.436 202.86 243.498 202.583C241.898 202.117 240.465 201.116 239.135 199.533C241.403 200.322 244.038 200.627 246.887 200.443L247.048 200.431C248.257 200.35 249.402 200.276 250.484 200.276C254.288 200.276 257.136 201.237 258.684 205.921L258.708 205.996C258.765 206.174 258.823 206.347 258.88 206.52C258.495 206.945 258.379 207.527 258.472 208.033C258.615 208.839 259.214 209.351 259.933 209.351C260.526 210.738 261.268 212.027 262.402 213.253C262.719 213.598 263.11 213.776 263.524 213.776C264.163 213.776 264.808 213.328 265.084 212.689C265.349 212.073 265.233 211.411 264.767 210.911C264.094 210.185 263.565 209.414 263.127 208.62C263.547 208.568 263.973 208.534 264.405 208.534C268.088 208.534 271.334 210.387 274.763 212.349C278.199 214.312 281.75 216.343 285.853 216.429H285.893C286.969 216.429 287.464 215.595 287.476 214.812C287.487 213.978 286.935 213.12 285.864 213.097C281.71 213.005 278.257 211.003 274.925 209.069C272.634 207.74 270.269 206.364 267.731 205.668C269.647 203.746 271.926 201.323 274.044 198.561C274.119 198.566 274.188 198.584 274.269 198.584H274.338C275.293 198.549 276.248 198.492 277.198 198.434C278.573 198.348 279.995 198.261 281.387 198.261C283.039 198.261 284.432 198.382 285.755 198.647C285.962 198.929 286.659 200.391 287.223 201.576C288.155 203.533 288.736 204.736 288.984 205C290.773 206.888 292.77 207.878 295.256 208.114C299.59 208.517 301.408 209.132 302.628 213.696C301.345 213.448 300.05 213.212 298.761 213.005C297.57 212.815 296.77 213.771 296.695 214.686C296.632 215.491 297.115 216.101 297.927 216.228C299.929 216.55 301.955 216.947 303.912 217.327C305.88 217.713 307.917 218.116 309.931 218.438C310.035 218.455 310.132 218.461 310.23 218.461C311.249 218.461 311.928 217.592 311.997 216.757C312.043 215.923 311.56 215.319 310.748 215.186ZM211.501 95.7511C207.898 95.7511 203.991 94.3296 201.159 92.0047C202.495 91.8608 203.824 91.6306 205.119 91.4062C207.271 91.0379 209.504 90.6523 211.725 90.6523C211.869 90.6523 212.007 90.6696 212.151 90.6696C212.18 92.8909 212.22 94.5023 212.266 95.7108C212.013 95.7281 211.76 95.7511 211.501 95.7511ZM151.432 23.071C149.625 23.1056 147.766 23.1458 145.919 23.2091C147.68 21.4136 149.297 19.7793 150.989 18.1967C151.409 17.8054 151.57 17.2299 151.432 16.6544C151.282 16.0502 150.834 15.5725 150.258 15.4056C147.812 14.715 145.585 13.7367 143.462 12.4246C146.391 11.924 149.389 11.619 152.29 11.3197C154.845 11.0608 157.469 10.7845 160.059 10.3817C160.289 14.5367 160.611 18.6686 160.956 22.743C157.785 22.9387 154.563 23.0077 151.432 23.071ZM78.1849 169.735C78.0871 170.713 78.3288 172.175 78.582 173.729C79.0711 176.715 79.6178 180.088 78.1561 181.371C74.8759 180.496 71.4863 179.599 68.2693 179.599C64.1201 179.599 60.9838 181.147 58.6761 184.335C56.144 187.84 55.0621 192.11 54.0204 196.242C53.5946 197.933 53.1515 199.648 52.6163 201.323C52.248 201.369 51.8739 201.404 51.4998 201.404C48.8066 201.404 46.3378 200.132 43.9495 198.9C41.5383 197.657 39.0407 196.374 36.2899 196.374C35.6568 196.374 35.0238 196.443 34.4023 196.575C33.5679 196.759 32.7507 197.007 31.9507 197.283C32.0946 193.376 32.6989 186.384 33.0844 181.975C33.1765 180.945 33.2513 180.059 33.3089 179.386C33.5103 176.94 33.9477 174.552 34.6037 172.29C34.8627 171.392 37.4063 166.904 39.1558 166.904C39.7082 166.904 40.1571 167.387 40.4966 168.342C40.8304 169.28 40.8822 170.351 40.9282 171.381C41.0318 173.631 41.1412 175.956 44.3696 176.572C44.6171 176.618 44.853 176.641 45.0832 176.641C47.7937 176.641 48.6512 173.464 49.3418 170.909C49.5892 170 49.8194 169.142 50.1014 168.572C50.792 167.162 51.4423 166.449 52.0465 166.449C52.9213 166.449 53.7442 167.934 54.4636 169.24C54.7628 169.781 55.039 170.287 55.321 170.69C56.6734 172.63 58.9178 172.975 61.3348 171.657C62.7505 170.88 64.0453 169.597 64.8913 168.129C64.9776 167.98 65.1272 167.634 65.3286 167.157C65.9732 165.643 67.6766 161.621 68.8909 161.621C69.2995 161.621 69.6102 162.173 69.8001 162.633C70.1799 163.56 70.4216 164.446 70.6346 165.223C71.3194 167.721 71.8143 169.522 75.906 169.522C76.3491 169.522 76.7922 169.332 77.1145 168.998C77.4253 168.676 77.5864 168.267 77.5749 167.847C77.5288 166.322 77.9259 162.829 79.0654 161.649C79.6581 161.039 80.3602 161.166 81.2349 161.966C79.9228 163.911 78.4899 166.668 78.1849 169.735ZM270.303 148.166L271.046 146.359C272.72 142.296 274.453 138.095 275.937 133.894C276.202 133.152 276.444 132.363 276.686 131.604C277.854 127.863 279.056 124.001 283.108 122.626C283.522 122.488 283.919 122.413 284.293 122.413C286.797 122.413 287.792 125.682 287.85 127.88C287.913 130.228 286.555 133.042 285.462 135.304C285.214 135.81 284.978 136.299 284.771 136.76C283.056 140.535 280.956 144.212 278.93 147.769C278.544 148.442 278.159 149.115 277.779 149.794C274.608 155.394 271.978 161.333 269.44 167.076C268.186 169.902 266.897 172.825 265.55 175.68C263.369 174.586 260.969 173.55 258.426 172.595C263.018 164.44 266.902 156.453 270.303 148.166ZM207.53 152.447C207.703 152.315 207.864 152.148 207.985 151.935C208.859 150.387 209.774 149.605 210.701 149.605C212.422 149.605 214.079 152.413 214.89 155.026C215.253 156.188 215.19 157.621 215.132 158.887C215.121 159.158 215.109 159.428 215.103 159.687C215.023 162.472 214.177 170.115 212.151 170.115C211.95 170.115 211.737 170.04 211.507 169.89C211.455 169.856 211.397 169.839 211.345 169.815C211.472 163.986 210.338 157.592 207.53 152.447ZM230.946 185.86C229.134 183.523 226.918 181.665 223.379 180.686C223.195 180.635 223.01 180.606 222.826 180.56C222.665 179.61 222.838 178.707 223.361 177.976C224.006 177.078 225.065 176.537 226.204 176.537C227.263 176.537 228.276 177.015 229.053 177.878C230.267 179.23 231.43 181.855 231.292 184.249C231.257 184.853 231.136 185.388 230.946 185.86ZM235.441 192.72C235.17 192.363 234.9 191.994 234.652 191.592C234.393 191.172 234.14 190.751 233.893 190.343C233.594 189.848 233.294 189.359 233.001 188.881C234.232 187.391 234.791 185.267 234.578 182.787C234.273 179.184 232.414 175.749 229.962 174.235C228.817 173.527 227.58 173.171 226.291 173.171C224.046 173.171 221.923 174.27 220.611 176.105C219.765 177.291 219.362 178.643 219.396 180.048C218.936 180.007 218.481 179.978 218.027 179.944C215.794 179.789 213.48 179.627 211.294 178.707C210.92 178.551 210.551 178.344 210.189 178.097C210.189 178.091 210.194 178.085 210.194 178.074C210.592 176.641 210.885 175.07 211.081 173.406C211.564 173.591 212.036 173.688 212.479 173.688C217.756 173.688 218.372 161.419 218.441 158.962C218.562 154.795 217.492 151.423 215.08 148.35C213.889 146.837 212.462 146.037 210.948 146.037C209.032 146.037 207.041 147.337 205.579 149.478C204.739 148.39 203.824 147.435 202.834 146.606C204.647 142.336 205.142 137.577 205.614 132.962C206.396 125.377 207.133 118.212 213.147 112.895C213.739 112.371 214.269 112.106 214.724 112.106C216.26 112.106 217.169 115.151 217.428 121.147L217.446 121.492C217.578 124.295 217.503 127.149 217.428 129.906C217.388 131.362 217.353 132.87 217.342 134.349C217.342 134.717 217.48 135.091 217.739 135.407C217.917 137.502 218.188 139.706 218.556 142.146C218.844 144.063 220.795 145.323 222.567 145.588C223.856 145.778 224.317 152.683 224.518 155.63C224.593 156.769 224.651 157.598 224.714 157.972C225.145 160.406 226.037 165.465 229.715 166.529C230.152 166.656 230.584 166.719 230.998 166.719C233.289 166.719 234.744 164.751 236.149 162.846C237.541 160.965 238.98 159.014 241.201 159.014C241.95 159.014 242.744 159.221 243.624 159.652C243.843 159.762 244.073 159.819 244.315 159.831C244.729 160.061 245.149 160.286 245.569 160.51C249.891 162.846 253.977 165.056 256.308 169.533C255.951 170.178 255.611 170.811 255.243 171.456C252.607 170.569 249.701 169.712 246.375 168.826C246.081 168.25 245.443 167.859 244.781 167.859C244.217 167.859 243.734 168.141 243.423 168.653C238.733 176.364 236.672 184.945 235.441 192.72ZM263.582 205.041C263.53 205.087 263.484 205.138 263.444 205.19C262.862 205.225 262.287 205.311 261.712 205.426C261.642 205.248 261.579 205.069 261.516 204.891C260.365 201.778 259.277 198.831 255.197 197.191C254.225 196.8 253.085 196.61 251.704 196.61C250.409 196.61 249.08 196.771 247.802 196.932C246.968 197.036 246.179 197.134 245.437 197.18C242.755 197.346 240.378 196.742 238.376 195.453C239.458 187.983 241.196 179.535 245.328 171.991C247.819 172.653 251.485 173.654 255.168 174.92C255.375 175.041 255.606 175.121 255.801 175.144C258.909 176.238 261.769 177.441 264.307 178.712C264.318 179.115 264.48 179.507 264.773 179.823C265.349 180.445 266.327 180.594 266.925 180.128C270.879 182.418 274.044 185.037 276.346 187.92C273.998 194.435 268.583 200.224 263.582 205.041Z" fill="#FF5B0D"/>
<path d="M221.468 236.708V237.025C221.468 238.09 222.308 238.642 223.137 238.642C223.966 238.642 224.806 238.084 224.806 237.025V236.708C224.8 234.585 221.468 234.585 221.468 236.708Z" fill="#FF5B0D"/>
<path d="M226.613 236.486C227.509 236.486 228.236 235.739 228.236 234.817C228.236 233.896 227.509 233.148 226.613 233.148C225.717 233.148 224.99 233.896 224.99 234.817C224.99 235.739 225.717 236.486 226.613 236.486Z" fill="#FF5B0D"/>
<path d="M222.544 230.39C222.544 229.561 221.986 228.721 220.921 228.721C219.857 228.721 219.299 229.561 219.299 230.39C219.299 231.219 219.857 232.059 220.921 232.059C221.986 232.059 222.544 231.219 222.544 230.39Z" fill="#FF5B0D"/>
<path d="M239.797 237.112C239.176 236.491 238.065 236.491 237.438 237.112C236.787 237.762 236.787 238.816 237.438 239.466L237.754 239.782C238.065 240.093 238.485 240.266 238.934 240.266C239.383 240.266 239.803 240.093 240.114 239.782C240.752 239.144 240.752 238.067 240.114 237.429L239.797 237.112Z" fill="#FF5B0D"/>
<path d="M232.932 224.619C231.867 224.619 231.309 225.459 231.309 226.288C231.309 227.117 231.867 227.957 232.932 227.957C233.996 227.957 234.554 227.117 234.554 226.288C234.554 225.459 233.99 224.619 232.932 224.619Z" fill="#FF5B0D"/>
<path d="M114.475 245.675C114.262 244.916 113.617 244.392 112.915 244.392C112.627 244.392 112.34 244.478 112.063 244.651C108.484 246.849 105.042 247.833 100.916 247.833C98.5107 247.833 95.9786 247.511 93.2968 247.171C92.6581 247.091 92.0078 247.01 91.3402 246.924C90.6726 246.843 89.867 246.757 89.0095 246.705C89.6771 246.55 90.2583 246.021 90.2583 245.14V244.824C90.2583 242.694 86.9263 242.694 86.9263 244.824V245.14C86.9263 245.946 87.4097 246.458 88.0024 246.659C87.8183 246.654 87.6341 246.648 87.4442 246.648C83.1856 246.648 80.4003 248.052 78.9328 250.947C78.6566 251.493 78.6739 252.075 78.9846 252.581C79.3127 253.116 79.9112 253.461 80.5097 253.461C81.0736 253.461 81.5513 253.151 81.8275 252.61C82.7943 250.705 84.7797 249.784 87.8988 249.778C90.3274 249.778 92.9861 250.325 95.3283 250.809C96.4505 251.039 97.5151 251.257 98.3783 251.372C103.42 252.052 108.432 250.803 113.767 247.523C114.405 247.114 114.682 246.406 114.475 245.675Z" fill="#FF5B0D"/>
<path d="M103.115 258.952C102.05 258.952 101.492 259.792 101.492 260.621C101.492 261.449 102.05 262.289 103.115 262.289C104.179 262.289 104.737 261.449 104.737 260.621C104.737 259.786 104.179 258.952 103.115 258.952Z" fill="#FF5B0D"/>
<path d="M91.8007 262.024C91.7662 261.972 91.7202 261.915 91.6684 261.857L91.6453 261.828C91.3634 261.201 90.8224 260.844 90.1606 260.844C89.6887 260.844 89.188 261.08 88.8543 261.466C88.5723 261.782 88.4457 262.168 88.4975 262.548C88.5493 262.945 88.5953 263.313 88.837 263.635C88.8715 263.687 88.9233 263.75 88.9751 263.808C89.2513 264.441 89.7981 264.815 90.4771 264.815C90.949 264.815 91.4497 264.579 91.7835 264.199C92.0654 263.877 92.1921 263.497 92.1403 263.117C92.0942 262.715 92.0424 262.352 91.8007 262.024Z" fill="#FF5B0D"/>
<path d="M123.878 262.192V262.509C123.878 263.574 124.718 264.126 125.547 264.126C126.376 264.126 127.216 263.568 127.216 262.509V262.192C127.216 260.063 123.878 260.069 123.878 262.192Z" fill="#FF5B0D"/>
<path d="M122.071 261.968C122.967 261.968 123.694 261.221 123.694 260.299C123.694 259.378 122.967 258.63 122.071 258.63C121.175 258.63 120.448 259.378 120.448 260.299C120.448 261.221 121.175 261.968 122.071 261.968Z" fill="#FF5B0D"/>
<path d="M127.757 254.21C126.692 254.21 126.134 255.051 126.134 255.879C126.134 256.708 126.692 257.548 127.757 257.548C128.821 257.548 129.38 256.708 129.38 255.879C129.38 255.051 128.821 254.21 127.757 254.21Z" fill="#FF5B0D"/>
<path d="M108.887 262.595L108.57 262.912C107.931 263.55 107.931 264.627 108.57 265.265C108.881 265.576 109.301 265.749 109.75 265.749C110.199 265.749 110.619 265.576 110.93 265.265L111.246 264.949C111.896 264.298 111.896 263.24 111.246 262.595C110.619 261.974 109.508 261.974 108.887 262.595Z" fill="#FF5B0D"/>
<path d="M115.752 250.102C114.688 250.102 114.129 250.942 114.135 251.771C114.141 252.6 114.693 253.44 115.758 253.44C116.823 253.44 117.381 252.6 117.381 251.771C117.369 250.942 116.817 250.102 115.752 250.102Z" fill="#FF5B0D"/>
<path d="M247.106 216.803C247.106 217.632 247.664 218.472 248.729 218.472C249.793 218.472 250.351 217.632 250.351 216.803C250.351 215.974 249.793 215.134 248.729 215.134C247.658 215.14 247.106 215.974 247.106 216.803Z" fill="#FF5B0D"/>
<path d="M252.285 210.802V210.485C252.285 208.356 248.953 208.356 248.953 210.485V210.802C248.953 211.866 249.793 212.419 250.622 212.419C251.451 212.425 252.285 211.866 252.285 210.802Z" fill="#FF5B0D"/>
<path d="M237.035 213.102C238.099 213.102 238.658 212.262 238.658 211.434C238.658 210.605 238.099 209.765 237.035 209.765C235.97 209.765 235.412 210.605 235.412 211.434C235.412 212.262 235.97 213.102 237.035 213.102Z" fill="#FF5B0D"/>
<path d="M277.157 218.61H276.841C275.776 218.61 275.218 219.451 275.218 220.279C275.218 221.108 275.776 221.948 276.841 221.948H277.157C278.222 221.948 278.78 221.108 278.78 220.279C278.78 219.451 278.222 218.61 277.157 218.61Z" fill="#FF5B0D"/>
</svg>
