<svg width="180" height="270" viewBox="0 0 180 270" fill="none" xmlns="http://www.w3.org/2000/svg">
<path d="M85.01 10.4602C79.5323 17.1334 73.1521 23.1052 67.5842 29.7103C66.8565 30.5739 68.1539 31.8091 68.8873 30.9351C74.5511 24.2148 81.0273 18.1278 86.6008 11.3395C87.3286 10.4549 85.7208 9.59136 85.01 10.4602Z" fill="#FF5B0D"/>
<path d="M107.332 25.5179C114.716 34.0019 121.959 42.5855 128.221 51.8233C128.853 52.7601 130.466 51.9018 129.829 50.9649C123.483 41.6015 116.132 32.9028 108.652 24.3088C107.896 23.44 106.581 24.6595 107.332 25.5179Z" fill="#FF5B0D"/>
<path d="M96.7042 30.966C96.9467 32.0546 98.735 31.5993 98.4924 30.5159C97.0031 23.8427 95.5646 17.1643 93.1896 10.7005C92.806 9.65892 91.0121 10.0986 91.3957 11.1506C93.782 17.6144 95.2149 24.2928 96.7042 30.966Z" fill="#FF5B0D"/>
<path d="M111.061 51.6555C108.065 44.7625 105.91 37.5921 102.734 30.7619C102.26 29.7465 100.658 30.6153 101.126 31.6202C104.24 38.3091 106.333 45.3487 109.272 52.1003C109.707 53.121 111.506 52.6865 111.061 51.6555Z" fill="#FF5B0D"/>
<path d="M84.6542 53.6286C85.5624 39.0052 88.4733 24.6016 90.8765 10.1509C91.057 9.06751 89.2744 8.59123 89.0882 9.68511C86.6568 24.2876 83.7121 38.8482 82.7982 53.6234C82.7305 54.7277 84.5808 54.733 84.6542 53.6286Z" fill="#FF5B0D"/>
<path d="M37.7078 52.158C41.369 48.5309 45.284 45.0765 48.9734 41.4495C47.2472 43.3651 45.5322 45.2911 43.8399 47.2381C43.0952 48.0912 44.3927 49.3264 45.143 48.4629C51.3202 41.35 57.7963 34.4675 64.2161 27.5483C67.3131 24.2144 70.4666 20.9066 73.4339 17.4784C75.9781 14.537 78.4376 11.5379 81.5178 9.05186C82.4204 8.32436 81.1116 7.10487 80.2146 7.83237C76.8355 10.5644 74.2349 13.9246 71.3748 17.1015C68.3285 20.4826 65.2371 23.8271 62.1401 27.1663C59.9795 29.4901 57.8189 31.8139 55.6639 34.143C56.104 33.3108 54.6372 32.5833 53.9716 33.4155C48.838 39.8008 42.2603 45.1394 36.4047 50.9437C35.5867 51.7445 36.8899 52.9692 37.7078 52.158Z" fill="#FF5B0D"/>
<path d="M179.957 261.99C176.211 250.69 144.372 154.78 134.584 116.342C140.243 116.358 145.901 116.457 151.508 116.855C152.62 116.934 152.789 115.719 152.022 115.285C152.185 114.62 152.332 113.94 152.377 113.27C153.342 113.317 154.312 113.369 155.277 113.432C156.247 113.495 156.574 112.757 156.252 112.228C157.087 110.009 157.183 107.465 156.416 105.225C156.32 104.938 156.106 104.76 155.863 104.681C155.711 104.608 155.53 104.555 155.316 104.54C146.707 103.99 138.014 103.974 129.327 104.001C130.235 95.5061 129.282 86.865 129.406 78.3495C129.479 73.1627 129.603 67.976 129.716 62.7892C129.93 62.7735 130.145 62.7683 130.354 62.7526C130.359 62.7526 130.365 62.7526 130.37 62.7526C130.376 62.7526 130.387 62.7526 130.393 62.7526C130.946 62.7578 131.256 62.36 131.324 61.8942C131.414 61.3028 131.454 60.7114 131.47 60.1199C131.617 60.2456 131.764 60.3712 131.91 60.4968C132.48 60.9888 133.518 60.68 133.496 59.8949C133.451 58.3718 133.208 56.9168 132.717 55.5141C134.15 56.2312 135.634 56.8435 137.168 57.3303C137.326 57.571 137.49 57.8118 137.648 58.0526C138.093 58.7382 139.058 58.4765 139.323 57.9217C140.023 58.084 140.728 58.2201 141.45 58.3247C142.037 58.4085 142.623 58.1101 142.629 57.4978C142.634 56.8488 142.144 56.4562 141.726 55.9538C141.529 55.7235 141.337 55.488 141.145 55.2577C140.903 54.8756 140.66 54.4988 140.417 54.1219C141.162 54.3784 141.912 54.6349 142.64 54.9489C143.515 55.3257 144.293 54.5825 143.915 53.7765C142.488 50.7409 139.91 48.5374 137.129 46.5538C136.181 45.8786 135.25 47.3702 136.181 48.0349C138.02 49.3486 139.724 50.7827 141.021 52.5256C139.972 52.1592 138.945 51.7562 138.026 51.1491C137.134 50.5577 136.215 51.8033 136.892 52.4942C136.897 52.4994 136.909 52.5099 136.914 52.5204C136.926 52.6407 136.965 52.7664 137.055 52.8972C137.247 53.1851 137.89 53.8759 138.584 54.6453C138.629 54.7134 138.68 54.7866 138.725 54.8599C138.765 54.8861 138.804 54.9122 138.844 54.9384C139.272 55.4095 139.695 55.8962 140.04 56.3254C139.475 56.1998 138.923 56.048 138.37 55.891C129.665 42.8011 119.099 30.9254 108.082 19.4685C107.286 18.6363 105.972 19.8558 106.762 20.6775C117.153 31.4855 127.132 42.6545 135.504 54.8861C134.02 54.2737 132.593 53.541 131.205 52.7088C130.399 52.222 129.496 53.1484 129.93 53.8812C130.681 55.1478 131.149 56.4248 131.397 57.7699C129.902 56.5295 128.362 55.3414 126.709 54.2632C126.252 53.9701 125.434 54.2423 125.344 54.7709C125.237 55.3885 125.107 55.9852 124.949 56.5766C124.261 55.7078 123.573 54.839 122.873 53.9806C122.512 53.5357 121.92 53.541 121.514 53.7608C121.102 53.8969 120.758 54.2632 120.865 54.7762C120.904 54.9489 120.921 55.1216 120.927 55.2996C120.368 54.7762 119.844 54.2109 119.33 53.6456C119.257 53.5671 119.161 53.5096 119.06 53.4677C110.367 36.5571 98.723 21.0439 91.0284 3.67795C94.7008 7.69756 98.4917 11.623 101.989 15.7734C102.723 16.6475 104.031 15.428 103.309 14.5644C101.019 11.8428 98.5989 9.22061 96.1732 6.60891C113.441 20.2379 127.589 36.9287 143.768 51.6201C144.626 52.4 145.816 51.0811 144.964 50.3064C136.745 42.8429 129.056 34.8665 121.215 27.0367C127.132 31.9251 133.05 36.8188 138.787 41.8956C139.65 42.6598 140.97 41.4507 140.107 40.6866C131.391 32.9771 122.264 25.6863 113.334 18.1915C112.939 17.8565 112.454 17.9193 112.121 18.1548C105.543 11.9265 98.6892 5.97038 91.192 0.642304C90.9155 0.443417 90.6165 0.422484 90.357 0.500992C90.0299 0.317806 89.6011 0.286402 89.2401 0.589966C70.325 16.3491 56.4475 36.3268 39.8059 53.9963C39.0217 54.8285 40.3248 56.0585 41.109 55.221C57.2655 38.0697 70.8327 18.7515 88.9129 3.21737C88.9072 3.32728 88.9242 3.44766 88.9806 3.5785C96.7486 21.3475 108.64 37.1642 117.503 54.436C117.057 55.1635 116.521 55.8125 115.867 56.3882C115.855 56.3673 115.844 56.3516 115.833 56.3359C115.827 56.3411 115.822 56.3463 115.816 56.3568C114.671 55.153 113.221 54.2946 111.901 53.1851C111.45 52.803 110.778 52.8658 110.446 53.3526C109.915 54.1272 109.244 54.7919 108.652 55.5141C107.602 54.504 106.373 53.6456 105.555 52.4733C105.092 51.8086 104.15 51.9813 103.857 52.6722C103.242 54.1167 102.542 55.4984 101.628 56.7703C100.195 50.3117 99.0841 43.7955 97.843 37.3003C97.6343 36.2064 95.846 36.6618 96.0491 37.7504C97.0701 43.0889 98.0009 48.438 99.0897 53.7608C98.8302 53.4572 98.5594 53.1484 98.2887 52.8396C97.9163 52.4209 97.0927 52.5465 96.8332 53.0071C95.925 54.6139 94.9039 56.1527 93.8434 57.6705C92.9802 56.7127 92.0156 55.8229 91.5304 54.6453C91.9761 51.2852 92.3653 47.925 92.4217 44.5335C92.4387 43.4239 90.5884 43.4187 90.5658 44.523C90.4868 49.3382 89.7422 54.0853 89.0991 58.8533C88.9524 59.9525 90.8084 59.9525 90.955 58.8638C91.0284 58.3352 91.1017 57.8066 91.1694 57.278C91.8125 58.0264 92.512 58.7434 93.0874 59.5966C93.4654 60.1618 94.3003 60.1461 94.6895 59.607C95.7727 58.0997 96.8219 56.5661 97.7809 54.9855C98.8415 56.2364 99.7554 57.4821 100.111 59.1412C100.207 59.5809 100.703 59.8111 101.149 59.7588C101.171 59.7588 101.194 59.7536 101.216 59.7536C101.228 59.7536 101.245 59.7483 101.256 59.7483C101.611 59.6908 101.944 59.4605 102.046 59.115C103.304 57.7333 104.223 56.1841 105.007 54.5459C105.983 55.488 107.117 56.2887 107.946 57.3722C108.324 57.8694 109.188 57.9898 109.549 57.3774C110.045 56.5243 110.761 55.8125 111.41 55.0483C112.73 56.0271 114.146 56.8959 115.054 58.2619C115.404 58.7905 116.318 58.8586 116.657 58.2672C116.719 58.1625 116.792 58.063 116.854 57.9584C116.843 57.9427 116.831 57.9217 116.82 57.906C117.616 57.278 118.287 56.5557 118.834 55.7444C119.534 56.4615 120.267 57.1419 121.107 57.7333C121.598 58.0787 122.32 57.7124 122.473 57.2256C122.54 57.011 122.597 56.7912 122.636 56.5766C123.246 57.346 123.855 58.1154 124.475 58.8743C124.972 59.4814 125.874 59.4186 126.173 58.6754C126.467 57.9531 126.681 57.2413 126.856 56.5086C127.815 57.189 128.74 57.906 129.648 58.644C129.626 58.7225 129.609 58.8062 129.603 58.8952C129.598 59.6332 129.586 60.3659 129.524 61.0934C112.781 62.114 95.9927 62.4595 79.21 62.3914C79.0238 62.3914 78.8715 62.4333 78.7361 62.4961C78.6007 62.4909 78.4597 62.4909 78.3243 62.4856C77.8786 60.8474 78.0253 59.0679 78.2058 57.3774C78.5725 57.6705 78.9053 57.995 79.1874 58.3823C79.5259 58.8481 80.1859 58.958 80.6428 58.5602C81.3705 57.9269 82.0701 57.3094 82.6962 56.6237C83.4747 57.6548 84.3435 58.2933 85.2461 58.5812C85.2292 59.6489 87.04 59.6437 87.1021 58.5498C87.8185 45.7163 89.3924 32.9457 90.3965 20.1332C90.4868 19.0236 88.6308 19.0236 88.5406 20.1227C87.5759 32.3857 86.1036 44.612 85.3476 56.8854C84.5297 56.3359 84.0614 55.4984 83.5932 54.6558C83.2604 54.0591 82.3521 54.1324 81.9911 54.6506C81.4439 55.4409 80.7839 56.0689 80.0787 56.6918C79.3284 55.9642 78.4427 55.4252 77.574 54.7448C77.1001 54.3732 76.4739 54.4255 76.1185 54.9122C75.5431 55.6973 74.7252 56.2416 74.0426 56.9063C73.958 56.8331 73.8677 56.765 73.7831 56.697C75.3965 52.2744 77.2468 47.9303 78.4935 43.3977C78.7868 42.3248 77.0042 41.859 76.7109 42.9319C75.0806 48.8776 72.3897 54.504 70.5901 60.3973C70.2629 61.465 72.0512 61.9309 72.3784 60.8631C72.621 60.0728 72.8805 59.2878 73.1512 58.5027C73.2584 58.6021 73.3713 58.7016 73.4672 58.8115C73.8564 59.2406 74.6405 59.0941 74.9226 58.644C75.2949 58.0526 75.8421 57.592 76.3893 57.1209C76.2088 58.869 76.0508 60.7009 76.4175 62.4281C67.73 62.2501 59.0199 62.6845 50.3775 61.6953C50.2309 60.7794 50.1801 59.853 50.1745 58.9214C50.5073 58.9685 50.8683 58.8429 51.1222 58.5288C51.8556 57.6234 53.0064 57.1733 53.9597 56.4929C54.6254 57.2256 55.2911 57.9374 55.7029 58.8376C55.9116 59.3035 56.6788 59.382 57.0906 59.0836C57.4122 59.5966 58.2922 59.8111 58.6928 59.136C59.0594 58.5184 59.4374 57.9008 59.8154 57.2884C60.3456 57.7699 60.859 58.2672 61.2652 58.8586C61.5529 59.2825 62.3313 59.4919 62.7206 59.0365C63.2227 58.4503 63.7868 57.927 64.3284 57.3669C64.9884 57.8694 65.654 58.2148 66.3084 58.4032C66.1956 58.6754 66.0771 58.9476 65.9587 59.2197C65.5243 60.256 67.3182 60.7061 67.7413 59.6855C72.322 48.7625 77.4273 38.0383 81.8275 27.0524C82.2449 26.0108 80.4567 25.5555 80.0449 26.5866C75.9719 36.756 71.2953 46.7055 66.991 56.7964C66.3479 56.6656 65.654 56.2521 64.9038 55.5351C64.5822 55.2263 63.9053 55.1635 63.595 55.5298C63.1324 56.0689 62.619 56.5557 62.117 57.0634C61.6939 56.608 61.2313 56.1945 60.7687 55.7706C64.0801 50.5891 67.7413 45.6064 71.0019 40.3987C71.6056 39.4357 70.0034 38.5617 69.4055 39.5247C66.2294 44.5911 62.6811 49.4376 59.443 54.4674C59.4092 54.4307 59.3753 54.3993 59.3415 54.3627C58.9917 53.9597 58.106 54.0434 57.886 54.5302C57.525 55.31 56.9834 55.9695 56.4926 56.6604C55.9454 55.959 55.2967 55.3362 54.7044 54.6244C54.3039 54.1481 53.5648 54.3993 53.2489 54.7919C53.012 55.085 52.7356 55.3257 52.431 55.5455C59.2907 46.0199 66.9177 36.9967 74.4657 27.9369C75.199 27.0576 73.5913 26.1993 72.8692 27.0629C65.0335 36.4629 57.1188 45.821 50.0616 55.7497C49.6837 55.153 49.2944 54.5563 48.9785 53.9126C48.9616 53.8812 48.939 53.8655 48.9221 53.8393C51.8612 50.3745 54.6705 46.8102 57.8522 43.5286C58.6476 42.7069 57.3501 41.4769 56.5491 42.3039C52.5099 46.47 49.0744 51.0863 45.2045 55.3781C44.8886 55.5298 44.5783 55.6816 44.2963 55.8753C43.924 56.1317 43.8393 56.5138 43.9296 56.8488C43.5855 57.6443 44.7024 58.5602 45.4076 57.8066C45.763 57.4297 46.1071 57.0424 46.4512 56.6604C46.9815 56.3934 47.4949 56.1422 47.9631 55.8072C48.1887 56.1579 48.42 56.5033 48.64 56.854C48.4426 56.9901 48.3072 57.2047 48.3072 57.503C48.3016 59.1621 48.3072 60.8213 48.6231 62.4647C48.719 62.9567 49.1308 63.1294 49.537 63.0823C49.6893 63.2393 49.9037 63.3597 50.1857 63.3911C50.3211 63.4068 50.4565 63.4173 50.5919 63.433C50.7781 77.198 50.1914 90.9736 48.6457 104.671C45.8871 104.739 43.5968 104.707 37.9048 104.393C37.2334 104.357 36.8837 104.723 36.8442 105.131C36.7878 105.178 36.7314 105.231 36.6862 105.293C35.2985 107.094 35.2477 110.349 36.8273 112.181C36.7088 112.657 37.0529 113.244 37.8596 113.286C38.1022 113.301 38.3335 113.312 38.5591 113.322C38.5873 113.333 38.6156 113.343 38.6438 113.354C38.8468 113.411 39.033 113.406 39.191 113.354C39.8679 113.39 40.4884 113.422 41.0469 113.448C41.0187 114.118 41.1203 114.777 41.3008 115.426C40.8777 115.908 41.1654 116.787 42.1639 116.839C44.3301 116.96 45.701 117.028 46.66 117.064C36.1447 156.109 3.87675 250.015 0.0463481 261.174C-0.258279 262.063 1.01664 262.571 1.59769 262.032C1.75565 262.759 3.06441 263.032 3.38032 262.163C5.25321 257.028 12.8802 236.067 21.799 210.913C28.2075 210.688 47.9518 211.447 64.9827 212.075C64.9038 214.1 64.8248 216.105 64.7458 218.073C64.7063 218.073 64.6725 218.068 64.633 218.062C64.176 217.884 63.5442 217.984 63.2904 218.528C62.7432 219.7 62.5909 220.909 62.8673 222.16C62.9124 222.37 63.0196 222.522 63.155 222.631C63.1775 222.956 63.4032 223.239 63.894 223.275C64.1084 223.291 64.3227 223.307 64.5371 223.322C64.3114 228.844 64.0858 234.067 63.8771 238.862C63.6909 238.909 63.516 239.024 63.3806 239.212C63.3693 239.228 63.3637 239.244 63.3524 239.259C63.1832 239.416 63.076 239.615 63.0421 239.814C62.5908 240.809 62.5401 241.971 62.7037 243.012C62.7262 243.148 62.7714 243.263 62.8391 243.358C62.7714 243.74 62.9688 244.116 63.5386 244.184C63.5724 244.19 63.6063 244.19 63.6401 244.195C63.1381 255.443 62.7488 263.607 62.6134 266.491C62.5683 267.423 63.9448 267.606 64.3509 266.941C64.712 267.606 66.0489 267.548 66.111 266.638C66.3084 263.66 66.8444 255.636 67.5439 244.629C72.4123 245.158 77.2806 245.676 82.1321 246.346C82.3803 257.295 82.5834 265.225 82.6624 268.328C82.6906 269.365 84.0219 269.475 84.4055 268.737C84.7835 269.501 86.1656 269.344 86.16 268.286C86.1374 265.366 86.0697 257.646 86.002 246.922C86.3123 246.969 86.6226 247.016 86.9328 247.068C87.7564 247.204 88.2529 246.498 88.1175 245.959C88.4052 245.079 88.6534 244.184 88.6534 243.258C88.6534 242.97 88.5237 242.756 88.3375 242.609C88.3431 242.269 88.1344 241.939 87.6323 241.861C87.0795 241.772 86.521 241.688 85.9625 241.599C85.9287 236.59 85.8948 231.021 85.8723 225.065C86.38 225.123 86.8877 225.18 87.3954 225.243C88.439 225.374 88.9016 224.202 88.2811 223.736C88.4052 222.961 88.4785 222.192 88.4898 221.412C88.8734 221.025 88.8847 220.37 88.3601 220.114C88.0554 219.596 87.2374 219.507 86.8426 219.878C86.5154 219.842 86.1825 219.805 85.8553 219.769C85.8497 217.434 85.8384 215.053 85.8328 212.635C86.9497 212.656 87.937 212.666 88.7437 212.661C94.21 212.65 99.6708 212.624 105.137 212.593C107.568 236.522 109.054 249.454 109.607 254.474C109.725 255.547 111.564 255.363 111.446 254.296C110.921 249.501 109.413 236.574 106.959 212.582C107.286 212.582 107.614 212.577 107.941 212.577C109.921 236.229 111.034 248.884 111.491 253.866C111.587 254.939 113.432 254.788 113.336 253.715C112.896 248.957 111.766 236.302 109.763 212.567C126.134 212.462 142.499 212.321 158.864 212.389C158.904 212.389 158.932 212.384 158.972 212.378C167.495 237.234 174.756 257.845 176.555 262.943C176.86 263.811 178.174 263.555 178.338 262.828C178.97 263.382 180.25 262.885 179.957 261.99ZM89.7083 2.55267C89.776 2.49509 89.8381 2.44275 89.9001 2.38518C89.9509 2.44275 90.0017 2.50033 90.0524 2.55267C89.9396 2.53696 89.8211 2.53696 89.7083 2.55267ZM174.959 252.731C165.047 224.521 138.539 148.447 129.84 116.353C130.799 116.347 131.758 116.347 132.717 116.347C141.066 149.054 165.651 224.442 174.959 252.731ZM51.5002 116.918C42.209 149.446 15.3003 224.154 5.1968 251.978C14.691 224.118 39.6253 150.289 48.5836 117.085C49.3396 117.064 49.915 116.996 51.5002 116.918ZM22.9216 207.914C34.3226 175.689 47.5005 137.482 53.3956 116.845C53.8695 116.829 54.3998 116.818 54.9921 116.803C55.449 120.796 56.9496 124.722 59.7194 128.354C61.5077 130.699 64.2042 133.07 67.2054 135.048C67.1828 137.497 67.149 140.025 67.1095 142.627C66.8218 142.606 66.5284 142.585 66.2407 142.564C65.152 142.485 64.6781 143.788 65.451 144.155C65.2817 144.903 65.1858 145.662 65.152 146.426C64.7966 146.793 64.7514 147.374 65.1633 147.646C65.3381 148.452 66.6018 148.557 66.9233 147.881C66.9572 147.881 66.991 147.887 67.0192 147.887C66.9572 151.168 66.8895 154.528 66.8048 157.962C66.3084 157.925 65.812 157.889 65.3099 157.852C65.1915 157.841 65.0786 157.857 64.9771 157.878C64.6104 157.878 64.2324 158.04 64.0463 158.422C63.4878 159.579 63.5329 161.003 63.4652 162.243C63.4258 162.913 64.0914 163.19 64.633 163.065C64.6499 163.065 64.6612 163.07 64.6838 163.075C65.3438 163.122 66.0094 163.17 66.6695 163.217C66.5792 166.749 66.4777 170.324 66.3705 173.93C65.654 173.82 64.932 173.705 64.2155 173.595C63.3975 173.465 62.856 174.166 62.9688 174.694C62.6416 175.657 62.4498 176.689 62.6755 177.678C62.4498 178.112 62.5683 178.656 63.2452 178.761C64.2324 178.918 65.2197 179.07 66.2069 179.222C66.032 184.859 65.8402 190.516 65.6371 196.101C64.9658 196.09 64.2889 196.08 63.6175 196.07C62.7375 196.054 62.3201 196.907 62.6021 197.409C62.3426 198.331 62.3596 199.288 62.6303 200.23C62.6642 200.346 62.7206 200.44 62.7827 200.518C62.7432 200.916 62.9801 201.298 63.5668 201.309C64.193 201.319 64.8248 201.33 65.451 201.34C65.3776 203.381 65.2986 205.407 65.2253 207.417C50.0278 207.516 30.684 207.678 22.9216 207.914ZM61.0282 64.0401C61.0733 64.082 61.1185 64.1238 61.1805 64.1657C65.6202 67.1909 69.9245 70.3312 74.1159 73.55C74.1159 73.9373 74.1159 74.3299 74.1215 74.7224C69.6142 71.3204 64.6443 67.709 60.5431 64.8618C60.5374 64.5844 60.5374 64.307 60.5318 64.0244C60.6954 64.0349 60.859 64.0349 61.0282 64.0401ZM78.6966 64.1971C78.7417 70.415 78.7981 78.3181 78.7417 85.6978C77.7884 85.8601 76.8519 86.0642 75.9268 86.3207C76.0057 78.7106 75.955 70.5092 75.9155 64.1238C76.8406 64.1395 77.7658 64.1605 78.6966 64.1971ZM95.1578 64.0192C91.6376 66.8769 87.2431 70.6243 83.2716 74.1519C83.2716 73.7646 83.2717 73.3826 83.266 73.0005C86.6677 69.923 90.1596 66.9292 93.7474 64.0401C94.2213 64.0296 94.6895 64.0244 95.1578 64.0192ZM81.4213 85.3524C82.0531 85.2896 82.668 85.2425 83.2491 85.2215C83.2717 82.3482 83.2773 79.412 83.2773 76.5333C87.9877 72.3096 93.5331 67.5782 97.5722 64.3437C97.7132 64.2285 97.7922 64.1081 97.8373 63.9773C100.427 63.9354 103.01 63.8831 105.6 63.8203C109.633 67.4578 115.066 72.6446 119.364 77.0044C119.342 78.2029 119.319 79.3963 119.308 80.5948C119.218 88.3462 119.855 96.2336 119.562 104.022C117.057 104.016 114.558 104.001 112.059 103.959C109.142 96.1603 102.108 89.864 93.7587 86.9958C89.3698 85.4885 84.8738 84.9913 80.5639 85.4414C80.6316 78.0616 80.5808 70.2318 80.5469 64.0872C80.8233 64.0872 81.0998 64.0872 81.3762 64.0872C81.4157 70.2213 81.4777 78.0093 81.4213 85.3524ZM124.774 104.016C123.646 104.022 122.512 104.022 121.384 104.022C121.655 96.2336 121.051 88.3723 121.158 80.6001C121.164 80.0243 121.175 79.4538 121.186 78.8781C121.587 79.2916 121.976 79.6998 122.337 80.0871C122.681 80.4535 123.116 80.4012 123.42 80.1604C123.759 80.0714 124.058 79.815 124.114 79.3806C124.244 78.2814 124.137 77.1823 124.131 76.0832C124.131 76.0257 124.126 75.9733 124.114 75.921C124.193 75.6645 124.148 75.3662 123.911 75.115C123.048 74.199 122.179 73.2988 121.305 72.3933C121.361 69.3368 121.423 66.2854 121.485 63.2289C122.715 63.1713 123.945 63.1085 125.18 63.0457C125.068 68.0126 124.949 72.9795 124.887 77.9465C124.774 86.5824 125.818 95.4067 124.774 104.016ZM119.477 70.5406C117.136 68.1801 114.744 65.872 112.307 63.6162C114.744 63.5324 117.187 63.433 119.624 63.3178C119.573 65.7254 119.528 68.133 119.477 70.5406ZM122.439 76.0414C122.439 76.0518 122.439 76.0571 122.439 76.0675C122.439 76.6275 122.467 77.1876 122.484 77.7424C118.388 73.482 112.595 67.8818 108.071 63.7418C108.674 63.7261 109.283 63.7051 109.887 63.6894C114.214 67.6515 118.4 71.7705 122.439 76.0414ZM113.932 112.898C126.083 113.108 138.375 112.684 150.532 113.191C150.493 113.819 150.34 114.442 150.188 115.055C138.167 114.306 125.97 114.809 113.926 114.604C113.937 114.034 113.943 113.463 113.932 112.898ZM85.2799 138.816C84.8681 138.848 84.4563 138.863 84.0501 138.869C84.0727 134.713 84.1348 130.552 84.8343 126.438C87.4349 126.381 90.0017 125.794 92.2299 124.622C93.2002 124.114 94.0746 123.513 94.87 122.837C99.541 123.198 102.971 127.778 104.957 131.379C99.8174 136.388 92.4782 138.288 85.2799 138.816ZM82.8824 196.478C82.7978 191.668 82.7132 186.795 82.6398 181.922C83.1306 182.017 83.627 182.111 84.1178 182.205C84.0953 186.999 84.0784 191.793 84.0727 196.53C83.6722 196.514 83.2773 196.499 82.8824 196.478ZM69.5352 179.745C69.2532 185.225 68.9655 190.726 68.6608 196.153C68.2547 196.148 67.8485 196.143 67.448 196.138C67.6398 190.637 67.8259 185.063 68.0008 179.51C68.5142 179.588 69.0275 179.667 69.5352 179.745ZM71.3235 180.023C74.4995 180.515 77.6755 181.022 80.8403 181.587C80.908 186.544 80.9926 191.506 81.0772 196.405C77.5458 196.279 74.0087 196.221 70.4717 196.179C70.7594 190.83 71.0471 185.419 71.3235 180.023ZM85.7877 180.787C78.7361 179.358 71.5886 178.358 64.4694 177.238C64.3735 176.621 64.4863 176.008 64.6725 175.411C71.7861 176.526 78.9222 177.531 85.9682 178.976C86.0076 179.578 85.94 180.19 85.7877 180.787ZM70.325 163.489C70.1614 167.111 69.9865 170.78 69.8004 174.469C69.2532 174.386 68.706 174.302 68.1588 174.218C68.2659 170.565 68.3675 166.938 68.4634 163.358C69.0839 163.4 69.7045 163.442 70.325 163.489ZM80.6372 164.274C80.671 168.22 80.7162 172.219 80.7669 176.238C77.715 175.705 74.6518 175.218 71.5886 174.747C71.7748 171.005 71.9497 167.283 72.1133 163.614C74.9565 163.813 77.7996 164.023 80.6372 164.274ZM82.5665 176.558C82.5157 172.486 82.465 168.435 82.4311 164.436C83.0404 164.494 83.644 164.551 84.2532 164.614C84.2081 168.649 84.1742 172.742 84.1517 176.851C83.6214 176.751 83.0968 176.657 82.5665 176.558ZM65.3551 161.421C65.3776 160.809 65.4284 160.181 65.5864 159.595C72.9313 160.134 80.2931 160.547 87.5985 161.421C87.5195 162.023 87.4518 162.625 87.3954 163.232C80.0787 162.374 72.7113 161.966 65.3551 161.421ZM70.9737 148.174C70.8496 151.451 70.7086 154.811 70.5619 158.234C69.9075 158.187 69.2532 158.145 68.5988 158.098C68.6778 154.67 68.7511 151.304 68.8131 148.023C69.5296 148.075 70.2517 148.122 70.9737 148.174ZM80.5526 148.886C80.5582 152.184 80.5751 155.554 80.5977 158.988C77.8504 158.752 75.1031 158.548 72.3502 158.354C72.4969 154.931 72.6379 151.571 72.762 148.295C75.357 148.483 77.9576 148.666 80.5526 148.886ZM82.386 159.15C82.3634 155.716 82.3465 152.346 82.3408 149.049C83.046 149.111 83.7568 149.179 84.462 149.253C84.4055 152.545 84.3548 155.91 84.3096 159.338C83.6722 159.27 83.0291 159.207 82.386 159.15ZM67.0305 146.186C67.07 145.573 67.1603 144.961 67.3069 144.359C74.4205 144.872 81.5511 145.285 88.6252 146.144C88.7042 146.756 88.7155 147.368 88.676 147.986C81.489 147.122 74.257 146.709 67.0305 146.186ZM74.1215 77.1352C74.1272 80.3907 74.1159 83.7037 74.0877 86.8964C69.1685 88.6288 64.7684 91.7272 61.4513 96.108C60.6446 97.1757 59.9056 98.2748 59.2287 99.4001C60.2046 88.6916 60.639 77.9465 60.5713 67.2014C64.8361 70.2004 69.7891 73.8274 74.1215 77.1352ZM83.125 86.7865C83.9881 86.7917 84.8456 86.8388 85.703 86.9226C83.9599 89.9006 84.2194 93.7999 84.4281 97.1181C81.0264 96.8826 77.5627 97.5368 74.6349 99.2064C72.7564 100.279 71.2953 101.761 70.246 103.477C67.95 101.195 64.7458 99.1489 61.3554 99.0861C65.9756 91.968 73.7097 86.708 83.125 86.7865ZM94.1931 121.183C94.0521 121.251 93.9449 121.351 93.8716 121.471C92.9464 122.272 91.8633 122.947 90.6278 123.444C89.4827 123.9 88.2247 124.235 86.9102 124.428C87.0287 121.466 87.1528 118.692 87.2939 116.138C88.8339 116.128 90.3683 116.122 91.9084 116.122C93.7192 116.122 95.5301 116.133 97.3409 116.138C96.7373 118.027 95.688 119.781 94.1931 121.183ZM72.9538 143.045C73.0102 141.407 73.0666 139.806 73.1174 138.225C74.1892 138.67 75.2554 139.047 76.2878 139.319C77.7658 139.711 79.1761 139.994 80.5582 140.188C80.5526 141.318 80.5526 142.459 80.5526 143.616C78.0197 143.401 75.4867 143.223 72.9538 143.045ZM82.5101 124.57C82.5665 121.571 82.6398 118.755 82.7357 116.169C83.6496 116.159 84.5691 116.148 85.483 116.143C85.342 118.75 85.2179 121.581 85.1051 124.606C84.2419 124.653 83.3732 124.643 82.5101 124.57ZM79.9151 103.865C80.0449 102.525 80.1464 100.934 80.2367 99.1541C80.53 99.1018 80.8234 99.0651 81.1167 99.0285C81.0321 100.86 80.9249 102.488 80.8008 103.849C80.5018 103.859 80.2085 103.859 79.9151 103.865ZM78.0761 103.901C77.1396 103.922 76.2032 103.938 75.2667 103.959C75.3626 102.996 75.4416 101.902 75.5149 100.698C75.7631 100.567 76.017 100.442 76.2822 100.326C76.9647 100.028 77.6755 99.7926 78.392 99.5833C78.3074 101.227 78.2058 102.687 78.0761 103.901ZM73.4277 104.006C72.903 104.016 72.384 104.032 71.8651 104.043C72.3389 103.299 72.9143 102.614 73.6082 102.012C73.5518 102.734 73.4954 103.399 73.4277 104.006ZM70.9737 105.796C77.2017 105.634 83.4183 105.498 89.618 105.492C91.7956 105.492 93.9674 105.498 96.145 105.508C97.1491 107.167 97.7358 109.046 97.905 110.962C95.0731 110.951 92.2412 110.946 89.4093 110.951C83.0009 110.962 76.5811 111.061 70.1501 111.187C70.0711 109.318 70.3194 107.471 70.9737 105.796ZM91.1638 112.668C93.4259 112.668 95.688 112.678 97.9445 112.689C97.922 113.265 97.8599 113.84 97.764 114.406C95.2254 114.4 92.6925 114.39 90.154 114.395C83.6665 114.406 77.1678 114.51 70.6522 114.636C70.5112 114.071 70.3983 113.495 70.3137 112.914C77.2806 112.778 84.2307 112.668 91.1638 112.668ZM71.1768 116.358C74.4262 116.295 77.6755 116.237 80.9249 116.196C80.8403 118.708 80.7726 121.435 80.7162 124.334C77.2299 123.685 74.0651 121.979 72.3897 119.017C71.9215 118.19 71.5153 117.295 71.1768 116.358ZM88.2021 103.776C86.3461 103.781 84.4902 103.802 82.6342 103.828C82.7583 102.415 82.8598 100.745 82.9445 98.8924C87.5026 98.7877 92.0325 100.405 94.9434 103.776C92.6925 103.77 90.4473 103.765 88.2021 103.776ZM60.2892 100.834C60.3231 100.834 60.3513 100.834 60.3851 100.829C63.7981 100.295 67.2449 102.875 69.3773 105.142C67.4875 109.528 67.8485 114.939 70.2742 119.106C66.4438 120.268 63.437 123.073 60.4021 125.465C57.9763 121.77 56.566 117.645 56.6788 113.558C56.7916 109.224 58.0778 104.807 60.2892 100.834ZM71.284 120.618C73.9297 124.046 78.392 126.046 82.9783 126.391C82.3183 130.505 82.2224 134.65 82.1942 138.806C74.1949 138.235 66.2689 133.373 61.4175 126.909C64.4355 124.528 67.431 121.675 71.284 120.618ZM71.3461 137.424C71.2896 139.219 71.2332 141.051 71.1655 142.92C70.4096 142.867 69.6593 142.815 68.9034 142.763C68.9372 140.507 68.9655 138.303 68.988 136.158C69.7665 136.613 70.5563 137.037 71.3461 137.424ZM82.3408 143.768C82.3408 142.627 82.3465 141.501 82.3465 140.381C83.1137 140.444 83.8753 140.47 84.6368 140.47C84.6086 141.627 84.5861 142.794 84.5635 143.972C83.8245 143.904 83.0798 143.83 82.3408 143.768ZM106.254 129.987C104.144 126.334 100.799 122.372 96.3763 121.346C99.2477 118.033 100.393 113.563 99.5861 109.35C100.895 104.739 108.55 105.45 111.478 108.298C111.54 108.36 111.613 108.408 111.681 108.444C113.244 116.07 111.461 123.952 106.254 129.987ZM98.8528 106.816C98.5933 106.162 98.283 105.529 97.9163 104.911C97.8994 104.817 97.8656 104.718 97.8092 104.618C95.4342 100.667 91.034 98.1335 86.2954 97.338C86.0753 94.0354 85.6861 90.021 87.7057 87.179C98.2943 88.88 107.783 96.0295 110.801 105.686C107.044 103.718 101.369 103.729 98.8528 106.816ZM57.243 64.888C57.7112 65.2073 58.1963 65.5422 58.6928 65.8877C58.8169 78.6059 58.2753 91.3295 56.9214 103.99C56.865 104.137 56.8086 104.278 56.7522 104.425C56.267 104.435 55.8157 104.446 55.3813 104.461C56.8255 91.3138 57.3896 78.0983 57.243 64.888ZM67.2618 201.377C67.6341 201.382 68.0008 201.387 68.3731 201.392C68.2603 203.418 68.1475 205.422 68.029 207.411C67.7018 207.411 67.369 207.417 67.0361 207.417C67.1095 205.422 67.1885 203.407 67.2618 201.377ZM67.9275 209.133C67.9049 209.573 67.8767 210.013 67.8485 210.452C67.5382 210.442 67.228 210.431 66.9177 210.416C66.9346 209.992 66.9515 209.562 66.9685 209.139C67.2956 209.139 67.6116 209.139 67.9275 209.133ZM69.7439 209.128C74.4149 209.102 78.4597 209.086 81.3141 209.076C81.3254 209.693 81.3367 210.306 81.3536 210.918C77.935 210.813 73.941 210.677 69.665 210.52C69.6875 210.06 69.7157 209.589 69.7439 209.128ZM81.3875 212.64C81.4326 214.906 81.4834 217.136 81.5341 219.329C77.433 218.952 73.3205 218.669 69.208 218.382C69.3265 216.366 69.445 214.315 69.5691 212.237C73.8903 212.399 77.9294 212.541 81.3875 212.64ZM81.2803 207.354C78.4484 207.364 74.4544 207.38 69.8398 207.406C69.9527 205.428 70.0655 203.434 70.1783 201.419C73.8451 201.466 77.5063 201.523 81.1675 201.659C81.207 203.57 81.2408 205.47 81.2803 207.354ZM64.3735 199.629C64.2042 199.021 64.2325 198.393 64.4186 197.802C71.6112 197.912 78.8094 197.917 85.9851 198.362C86.0302 198.964 86.0471 199.566 86.0415 200.168C78.832 199.744 71.5999 199.749 64.3735 199.629ZM85.8723 201.879C85.9625 201.884 86.0528 201.89 86.143 201.895C86.5379 202.492 87.638 202.549 87.8016 201.795C88.3431 201.455 88.4277 200.665 87.8806 200.367C87.8975 199.581 87.8806 198.791 87.8129 198.001C88.1626 197.514 88.0216 196.766 87.2036 196.708C86.7636 196.677 86.3179 196.656 85.8779 196.63C85.8836 191.982 85.8948 187.271 85.9174 182.561C86.0979 182.598 86.2784 182.634 86.459 182.671C87.4462 182.88 88.0216 181.833 87.5477 181.3C87.7564 180.509 87.8467 179.693 87.8129 178.882C88.2472 178.452 88.2416 177.678 87.4293 177.505C86.9328 177.4 86.4364 177.306 85.9456 177.207C85.9682 173.041 86.002 168.901 86.0471 164.813C86.4533 164.86 86.8595 164.902 87.2657 164.949C87.26 165.012 87.2544 165.069 87.2544 165.127C87.2092 166.237 89.0652 166.289 89.1103 165.179C89.116 165.017 89.1329 164.855 89.1442 164.693C89.3811 164.394 89.4262 163.981 89.2119 163.698C89.3191 162.536 89.4714 161.385 89.618 160.228C89.7365 159.307 88.4616 159.129 87.9539 159.736C87.339 159.663 86.7241 159.595 86.1092 159.532C86.1543 156.104 86.1995 152.733 86.2559 149.441C87.1472 149.535 88.0329 149.64 88.9185 149.75C89.0821 149.86 89.2739 149.928 89.4545 149.933C90.0073 149.949 90.3289 149.561 90.4078 149.096C90.6109 147.939 90.5883 146.767 90.4191 145.61C90.594 145.165 90.4135 144.631 89.7422 144.547C88.6139 144.406 87.4857 144.28 86.3574 144.16C86.3856 142.899 86.4082 141.653 86.4364 140.423C89.5673 140.229 92.7433 139.544 96.3311 138.419C97.0025 138.209 97.6512 137.968 98.283 137.712C99.9415 159.098 102.412 185.005 104.691 207.647C98.2492 207.427 91.931 207.26 85.8779 207.202C85.8723 205.443 85.8723 203.669 85.8723 201.879ZM100.021 136.937C100.81 136.545 101.572 136.116 102.3 135.655C103.586 157.548 105.667 184.44 107.602 207.746C107.241 207.736 106.886 207.72 106.525 207.71C104.195 184.796 101.679 158.496 100.021 136.937ZM104.02 134.446C109.791 130.023 113.114 123.319 113.802 116.326C118.507 116.405 123.24 116.379 127.973 116.358C133.58 137.011 146.719 176.411 157.99 209.343C157.95 209.337 157.917 209.332 157.877 209.332C142.883 209.269 125.897 208.421 109.424 207.809C107.439 184.074 105.301 156.58 104.02 134.446ZM154.791 106.236C155.265 108.025 155.135 109.925 154.509 111.668C141.038 110.862 127.341 111.407 113.83 111.166C113.734 110.098 113.588 109.03 113.368 107.978C113.323 107.764 113.215 107.617 113.074 107.523C112.95 106.911 112.804 106.304 112.634 105.702C126.636 105.953 140.824 105.377 154.791 106.236ZM127.499 104.006C127.206 104.006 126.912 104.006 126.619 104.011C127.601 95.3857 126.619 86.6033 126.743 77.9569C126.816 72.9534 126.935 67.9446 127.048 62.941C127.324 62.9253 127.595 62.9096 127.871 62.8939C127.759 68.044 127.629 73.1941 127.567 78.3443C127.454 86.8388 128.464 95.527 127.499 104.006ZM90.9155 64.061C88.3149 66.1964 85.7651 68.3842 83.2604 70.6191C83.2491 68.3109 83.2378 66.1127 83.2265 64.0924C85.7876 64.0924 88.3544 64.082 90.9155 64.061ZM74.0595 64.0977C74.0764 66.2697 74.0933 68.6459 74.1046 71.1372C70.9286 68.7297 67.6905 66.3692 64.3791 64.0767C67.6059 64.0924 70.8327 64.0663 74.0595 64.0977ZM52.5099 63.6162C53.4689 63.6999 54.428 63.7732 55.387 63.8307C55.5731 77.4126 55.009 90.9997 53.5197 104.514C52.3858 104.55 51.4268 104.582 50.5693 104.613C52.0981 90.9945 52.6848 77.3027 52.5099 63.6162ZM56.1316 106.162C55.5562 107.963 55.1613 109.789 54.9752 111.626C46.581 111.81 47.0492 112.045 39.0161 111.621C37.0699 110.847 37.335 107.481 38.3448 106.167C38.3504 106.157 38.3561 106.147 38.3617 106.136C47.4949 106.628 46.9477 106.361 56.1316 106.162ZM54.8511 113.354C54.8285 113.929 54.8341 114.505 54.8567 115.081C46.801 115.253 50.8288 115.578 43.2075 115.17C43.0439 114.625 42.9424 114.086 42.9537 113.521C47.1338 113.673 48.1436 113.495 54.8511 113.354ZM37.1545 209.385C45.7743 209.28 56.188 209.207 65.1576 209.154C65.1407 209.557 65.1294 209.955 65.1125 210.358C55.7254 210.007 45.5092 209.625 37.1545 209.385ZM66.8556 212.143C67.1546 212.153 67.4536 212.164 67.7469 212.174C67.6285 214.231 67.5044 216.262 67.3859 218.256C67.132 218.24 66.8726 218.219 66.6187 218.198C66.6977 216.215 66.7767 214.189 66.8556 212.143ZM67.0756 223.505C66.7372 229.085 66.41 234.355 66.1053 239.186C65.9869 239.176 65.8741 239.16 65.7556 239.15C65.9643 234.313 66.1843 229.038 66.41 223.458C66.63 223.474 66.8556 223.49 67.0756 223.505ZM81.6526 224.62C81.788 230.519 81.9234 236.041 82.0475 241.028C77.354 240.395 72.6379 239.903 67.9275 239.385C68.2321 234.533 68.5536 229.237 68.8921 223.631C73.1513 223.924 77.4104 224.217 81.6526 224.62ZM64.994 256.432C65.1463 253.03 65.3325 248.973 65.5299 244.404C65.6089 244.415 65.6879 244.42 65.7725 244.43C65.4792 248.994 65.214 253.045 64.994 256.432ZM84.2758 256.782C84.2025 253.815 84.1178 250.397 84.0332 246.613C84.0953 246.623 84.1573 246.634 84.2137 246.639C84.2307 250.408 84.2532 253.815 84.2758 256.782ZM86.4646 245.252C79.2043 244.101 71.8763 243.405 64.5653 242.578C64.4807 241.997 64.5032 241.332 64.7007 240.746C72.0907 241.578 79.5033 242.285 86.8313 243.473C86.7974 244.085 86.6508 244.671 86.4646 245.252ZM84.1799 241.332C84.084 241.316 83.9881 241.306 83.8922 241.29C83.7624 236.287 83.6214 230.739 83.4804 224.803C83.6891 224.824 83.8922 224.845 84.1009 224.866C84.1178 230.791 84.146 236.328 84.1799 241.332ZM86.5266 223.411C79.2833 222.569 71.9892 222.16 64.7063 221.621C64.5935 220.978 64.6499 220.381 64.8361 219.784C72.1302 220.318 79.4356 220.732 86.6902 221.595C86.6733 222.202 86.6169 222.809 86.5266 223.411ZM83.3563 219.507C83.2265 213.812 83.1024 207.846 82.9839 201.727C83.345 201.743 83.706 201.764 84.0671 201.78C84.0614 207.903 84.0671 213.875 84.084 219.575C83.8414 219.554 83.5989 219.533 83.3563 219.507ZM88.8057 210.949C87.9934 210.949 87.0005 210.939 85.8779 210.918C85.8779 210.253 85.8779 209.583 85.8779 208.919C91.9817 208.971 98.362 209.144 104.866 209.364C104.917 209.871 104.968 210.384 105.019 210.887C99.6143 210.918 94.21 210.944 88.8057 210.949ZM106.841 210.881C106.79 210.4 106.745 209.918 106.694 209.432C107.044 209.442 107.388 209.458 107.738 209.468C107.777 209.939 107.817 210.41 107.856 210.876C107.518 210.876 107.179 210.876 106.841 210.881ZM109.565 209.536C119.584 209.908 129.784 210.368 139.611 210.683C129.631 210.719 119.652 210.798 109.673 210.86C109.639 210.421 109.605 209.976 109.565 209.536Z" fill="#FF5B0D"/>
</svg>
