<svg width="313" height="254" viewBox="0 0 313 254" fill="none" xmlns="http://www.w3.org/2000/svg">
<path d="M4.3306 217.283C5.43823 216.598 6.68008 216.001 7.88168 215.424C9.13025 214.826 10.4124 214.202 11.5334 213.49C12.4263 212.926 12.876 212.383 12.876 211.879C12.876 211.04 11.6543 210.154 10.3386 209.315C7.46552 207.496 4.74677 205.475 4.31046 203.045C4.08221 201.79 4.48499 200.501 5.49863 199.212C8.73422 195.097 14.6818 192.184 20.6293 189.646C21.455 189.297 22.4418 189.72 22.6029 190.425C22.6834 190.774 22.5492 191.244 21.9316 191.512C18.4208 193.009 7.72729 197.567 7.27081 202.179C7.12314 203.669 8.06964 205.099 10.0835 206.428C10.4863 206.697 10.9561 206.979 11.4529 207.267C13.4869 208.476 15.7894 209.852 15.9371 211.624C16.0915 213.537 14.0642 214.826 11.8423 215.94C11.2784 216.222 10.6809 216.504 10.0701 216.786C7.98907 217.753 5.84097 218.753 4.61926 220.109C3.80029 221.015 3.51163 222.103 3.80698 223.177C4.21646 224.634 5.60602 225.862 7.62659 226.54C10.5668 227.527 13.7218 227.99 17.5616 227.99C20.1057 227.99 22.7103 227.789 25.2276 227.594C28.2887 227.359 31.4639 227.117 34.6256 227.211C35.5922 227.245 36.5455 227.299 37.4853 227.359C38.7473 227.433 40.0495 227.513 41.3585 227.527C42.8958 227.533 44.131 227.654 45.5339 228.218C46.4603 228.587 47.2256 229.427 47.4807 230.353C47.6619 230.991 47.5679 231.581 47.2189 232.011C46.8497 232.467 46.3394 232.776 45.8427 233.078C45.6279 233.213 45.4064 233.347 45.1983 233.494C45.064 233.588 44.9902 233.703 44.97 233.844C44.8761 234.448 45.6346 235.408 46.0844 235.985L46.2186 236.153C47.5746 237.905 49.5415 239.039 52.2333 239.637C57.3888 240.778 63.3833 241.328 70.5661 241.328C73.7547 241.328 77.1446 241.221 81.226 240.999C91.3691 240.442 101.197 238.778 110.702 237.173C122.376 235.2 136.909 232.743 151.08 232.743C157.813 232.743 163.975 233.266 169.923 234.347C170.332 234.421 170.681 234.656 170.849 234.965C170.977 235.206 170.99 235.475 170.876 235.703C170.419 236.623 170.406 237.375 170.829 238.006C171.608 239.167 174.346 240.556 182.992 240.556C186.785 240.556 190.497 240.295 192.713 240.14L193.639 240.073C198.607 239.744 203.628 239.281 208.481 238.831C209.837 238.704 211.193 238.583 212.549 238.455C213.207 238.395 213.865 238.334 214.536 238.267C217.47 237.985 220.497 237.703 223.491 237.697C223.605 237.623 223.746 237.562 223.927 237.542C225.713 237.307 228.955 236.811 230.103 238.677C231.07 240.248 230.694 242.624 229.177 243.799C227.821 244.839 225.834 244.759 224.216 245.114C222.726 245.45 226.639 247.88 227.223 248.055C229.298 248.659 231.66 248.592 233.809 248.605C237.997 248.625 241.804 247.531 245.912 247.081C248.087 246.846 250.295 246.913 252.484 246.813C253.517 246.766 255.095 247.135 255.572 248.155C256.236 249.578 255.78 251.075 257.767 251.606C260.848 252.425 264.258 251.492 267.225 250.679C271.83 249.417 275.932 248.249 280.758 248.249C282.128 248.249 282.128 250.263 280.758 250.263C275.744 250.263 271.434 251.626 266.675 252.921C263.587 253.767 258.847 254.741 255.84 253.143C254.947 252.673 254.565 252.176 254.229 251.263C253.86 250.277 254.464 249.001 252.49 248.82C251.477 248.726 250.329 248.968 249.309 249.015C244.61 249.229 240.078 250.559 235.346 250.605C230.66 250.659 223.39 251.042 221.739 245.611C221.343 244.322 222.544 243.51 223.659 243.168C224.545 242.892 225.538 242.859 226.451 242.698C226.988 242.604 227.559 242.463 227.995 242.127C228.814 241.053 228.472 240.127 226.982 239.335C226.72 239.321 226.465 239.335 226.21 239.335C225.988 239.59 225.619 239.778 225.095 239.778H225.008C220.92 239.623 216.718 240.066 212.663 240.489C211.495 240.61 210.327 240.731 209.179 240.838L208.327 240.919C201.775 241.53 195.002 242.161 188.269 242.402C187.081 242.443 185.496 242.496 183.717 242.496C175.246 242.496 170.064 241.342 168.325 239.066C167.674 238.214 167.493 237.207 167.795 236.072C162.532 235.2 157.074 234.777 151.12 234.777C139.574 234.777 128.055 236.415 117.334 238.18L114.058 238.724C99.8877 241.073 86.4956 243.302 71.8885 243.302C71.338 243.302 70.7809 243.302 70.2237 243.295L69.1362 243.282C62.6785 243.215 53.831 243.121 48.1922 240.563C46.0844 239.61 44.4935 238.314 43.4798 236.717C43.3925 236.576 43.2851 236.421 43.171 236.26C42.4527 235.206 41.3586 233.609 42.587 232.488C42.8757 232.226 43.2583 232.004 43.6275 231.796C44.037 231.561 44.4599 231.32 44.6747 231.058C44.8291 230.87 44.9902 230.601 44.8962 230.427C44.527 229.708 41.4391 229.668 39.9556 229.648C39.2977 229.641 38.7808 229.635 38.472 229.594C37.069 229.413 35.6057 229.326 34.0013 229.326C31.5713 229.326 29.2218 229.527 26.7313 229.735C25.966 229.802 25.2008 229.863 24.4288 229.923C22.3076 230.084 20.2736 230.165 18.3873 230.165C11.7885 230.165 6.96872 229.192 4.06207 227.272C1.98782 225.902 0.860077 224.144 0.886932 222.311C0.907043 220.425 2.1355 218.639 4.3306 217.283Z" fill="#FF5B0D"/>
<path d="M49.6354 218.935C49.2796 218.935 48.944 218.855 48.6688 218.7C46.9167 217.714 44.3323 217.25 40.5328 217.25C38.425 217.25 36.2836 217.391 34.2094 217.519C32.746 217.613 31.3698 217.7 30.1414 217.734C29.8729 217.74 29.6044 217.74 29.3358 217.74C26.6239 217.74 23.1198 217.418 21.8107 215.888C21.361 215.357 21.2066 214.733 21.361 214.035C21.8712 211.706 23.254 210.343 26.1405 209.336L26.503 209.215C27.0602 209.027 28.3692 208.598 28.4967 208.235C28.0805 207.53 27.0065 207.456 25.7713 207.369L25.1 207.322C24.0059 207.242 22.5022 207.128 21.7504 206.624C19.4747 205.114 16.6217 202.825 18.0784 200.395C19.468 198.079 22.8512 196.34 26.1204 194.662C26.4963 194.467 26.8722 194.272 27.2414 194.084C27.4764 193.964 27.7516 193.896 28.0403 193.896C28.6511 193.896 29.356 194.192 29.4902 194.682C29.5238 194.796 29.5775 195.192 29.0472 195.474C28.6041 195.702 28.1074 195.951 27.5905 196.212C24.8852 197.562 21.173 199.408 20.5689 201.287C20.4212 201.751 20.4682 202.194 20.7166 202.637C21.4818 203.993 22.7103 205.409 26.0667 205.684C27.4227 205.798 28.537 205.946 29.5708 206.329C31.0677 206.879 31.3094 207.705 31.3161 208.148C31.3363 208.92 30.6985 209.665 29.6513 210.101C29.2284 210.276 28.7317 210.444 28.2014 210.618C27.0266 211.008 25.6975 211.444 25.3149 212.001L25.2343 212.115C24.704 212.894 24.1535 213.706 24.1602 214.485C24.167 215.572 25.919 216.123 29.356 216.123C31.0543 216.123 32.9071 215.988 34.3973 215.881C35.1894 215.827 35.9077 215.774 36.4783 215.747C37.794 215.693 39.2104 215.639 40.6067 215.639C43.4999 215.639 47.682 215.827 50.5752 217.465C51.0921 217.754 51.0518 218.116 51.0115 218.257C50.8773 218.7 50.2194 218.935 49.6354 218.935Z" fill="#FF5B0D"/>
<path d="M65.0814 230.414C65.652 230.461 66.2561 230.488 66.8737 230.488C70.3845 230.488 74.1168 229.702 77.4061 229.004C78.017 228.877 78.6211 228.749 79.2119 228.628C85.7569 227.299 90.5028 226.903 96.155 227.192C96.8465 227.225 97.5446 227.266 98.2494 227.299C100.961 227.447 103.767 227.595 106.513 227.595C108.218 227.595 109.742 227.541 111.165 227.42C115.716 227.044 120.12 226.131 123.892 225.299C124.033 225.265 124.174 225.252 124.309 225.252C125.054 225.252 125.504 225.722 125.557 226.185C125.611 226.628 125.322 227.145 124.55 227.313C119.314 228.461 114.568 229.427 109.473 229.568C106.07 229.662 102.619 229.508 99.2832 229.36C97.464 229.28 95.5912 229.192 93.7451 229.152C88.3614 229.024 84.1793 229.83 79.3058 230.77C78.3593 230.951 77.3994 231.139 76.4059 231.32C75.983 231.401 75.4929 231.495 74.9626 231.602C72.6534 232.065 69.4917 232.696 66.7529 232.696C65.0344 232.696 63.7254 232.455 62.7453 231.958C61.4296 231.287 60.9194 230.253 61.349 229.125C61.6242 228.4 62.1143 227.655 62.8057 226.93C62.8326 226.903 62.8527 226.876 62.8795 226.856C62.6446 226.796 62.3224 226.688 61.9599 226.46C61.396 226.104 61.4564 225.675 61.5101 225.514C61.6578 225.057 62.2687 224.715 62.9333 224.715C63.2823 224.715 63.618 224.809 63.8932 224.983C64.0342 225.071 64.2624 225.097 64.5108 225.131C64.9404 225.185 65.4841 225.245 65.8466 225.702C66.585 226.615 65.954 227.279 65.4976 227.769L65.4036 227.87C64.9807 228.313 63.8596 229.494 64.0744 230.025C64.155 230.226 64.5108 230.367 65.0814 230.414Z" fill="#FF5B0D"/>
<path d="M113.642 220.499C124.712 220.499 136.338 219.646 139.795 219.035C140.816 218.854 141.4 219.364 141.447 219.854C141.48 220.21 141.239 220.673 140.433 220.814C136.707 221.472 125.437 222.385 113.971 222.385C102.922 222.385 89.0866 221.553 85.9182 217.592C85.361 216.894 85.1395 216.115 85.267 215.283C84.2668 215.363 83.2398 215.457 82.1993 215.558C79.3799 215.82 76.4598 216.095 73.6069 216.095C71.1903 216.095 69.1294 215.894 67.2968 215.484C61.8259 214.263 61.3694 211.853 60.9264 209.517C60.7384 208.516 60.5437 207.489 59.953 206.529C59.181 205.274 57.825 204.697 56.2542 204.026C55.5359 203.717 54.7975 203.408 54.0457 202.998C52.146 201.971 51.1525 200.253 51.5821 198.722C52.5957 195.111 56.8315 192.023 61.2687 189.217C61.5305 189.049 61.8796 188.962 62.2689 188.962C62.9066 188.962 63.6652 189.217 63.8129 189.687C63.8531 189.821 63.9001 190.15 63.4571 190.439C61.1881 191.875 59.4831 193.11 58.0935 194.325L57.7243 194.648C56.2139 195.963 54.1464 197.762 54.3343 199.293C54.5424 200.938 55.6299 201.414 57.7915 202.347L58.5366 202.676C60.1342 203.381 61.3023 204.234 62.2085 205.355C63.0342 206.375 63.2154 207.61 63.3899 208.812C63.7256 211.101 64.0411 213.269 68.8341 213.9C70.3243 214.101 71.8951 214.195 73.6404 214.195C76.3524 214.195 79.1047 213.961 81.763 213.726C83.421 213.585 85.1395 213.437 86.811 213.35C87.5226 213.309 88.1536 213.551 88.3952 213.927C88.5295 214.135 88.5362 214.383 88.4087 214.605C88.0059 215.323 87.9857 215.954 88.3482 216.525C89.9795 219.082 98.9612 220.499 113.642 220.499Z" fill="#FF5B0D"/>
<path d="M234.413 224.755C233.661 224.983 232.902 225.225 232.137 225.467C226.693 227.172 220.517 229.112 214.335 229.434C213.831 229.461 213.328 229.474 212.817 229.474C209.83 229.474 207.394 228.978 205.581 227.998C204.984 227.675 204.406 227.333 203.842 226.991C201.708 225.715 199.694 224.514 196.552 224.507C195.028 224.507 193.438 224.608 191.759 224.708C190.054 224.816 188.289 224.923 186.57 224.923C183.348 224.923 179.247 224.594 176.139 222.057C174.749 220.916 173.937 219.593 173.574 217.895C173.527 217.673 173.487 217.438 173.447 217.203C173.232 215.988 173.01 214.726 171.842 213.887C168.701 211.632 162.74 211.511 158.799 211.43C158.048 211.417 157.296 211.41 156.544 211.41C152.308 211.41 147.763 211.645 142.635 212.135C140.171 212.37 137.661 212.652 135.231 212.921C128.907 213.625 122.369 214.35 115.831 214.397H115.555C115.032 214.404 114.475 214.404 113.897 214.404C109.232 214.404 104.083 214.129 101.264 212.081C100.149 211.269 99.5721 210.323 99.5587 209.269C99.5184 206.986 102.002 204.738 104.439 202.845C104.714 202.63 105.083 202.516 105.493 202.516C106.084 202.516 106.809 202.784 106.996 203.281C107.05 203.429 107.131 203.798 106.681 204.154L106.265 204.476C104.519 205.818 101.599 208.06 102.452 209.786C102.962 210.813 104.647 211.511 107.607 211.92C109.87 212.236 112.279 212.384 114.978 212.384C119.174 212.384 123.376 212.008 126.981 211.659C129.337 211.43 131.686 211.168 134.042 210.913C140.896 210.162 147.985 209.383 155.08 209.343L155.839 209.336C156.47 209.329 157.148 209.329 157.86 209.329C163.586 209.329 170.58 209.685 173.836 212.451C175.353 213.74 175.669 215.196 175.971 216.606C176.219 217.767 176.461 218.868 177.354 219.875C178.945 221.661 182.811 223.017 186.409 223.03C187.873 223.03 189.417 222.869 190.907 222.715C192.437 222.553 194.015 222.392 195.566 222.392C196.311 222.392 196.989 222.426 197.64 222.506C200.614 222.849 203.097 223.708 205.232 225.124C208.045 226.997 211.086 227.716 214.617 227.333C220.913 226.662 226.787 224.849 232.466 223.097L233.204 222.869C234.097 222.594 235.104 223.07 235.218 223.762C235.258 224.104 235.084 224.547 234.413 224.755Z" fill="#FF5B0D"/>
<path d="M189.202 198.125C190.081 179.531 196.391 161.272 202.158 143.724C204.232 137.401 206.427 131.111 208.716 124.855C208.723 124.667 208.723 124.485 208.73 124.297C208.938 123.881 209.152 123.472 209.367 123.062C213.751 111.241 218.524 99.5673 223.76 88.0951C230.741 72.7831 237.85 57.3436 246.174 42.7096C252.846 30.9823 260.794 19.792 270.957 10.8908C272.642 9.44079 273.978 8.03781 275.683 7.86328C277.496 7.67532 278.63 9.19913 279.073 10.7565C279.107 10.8773 279.114 10.9847 279.107 11.0922C279.127 11.0989 279.154 11.1056 279.174 11.1056C279.852 14.9118 280.302 18.7515 280.59 22.6181C284.356 16.4624 289.955 8.28619 294.593 2.56014C294.607 2.36547 294.674 2.16408 294.822 1.97612C296.399 -0.0645842 298.735 -0.870122 300.642 1.24442C302.098 2.86221 302.877 5.23184 303.313 7.36652C307.67 21.7253 309.187 37.0037 309.993 51.9129C310.999 70.5075 310.375 89.149 309.905 107.75C309.214 135.212 304.146 163.145 293.593 188.687C299.809 188.056 305.824 189.358 311.536 191.929C312.718 192.46 311.698 194.198 310.523 193.668C304.965 191.171 298.916 189.902 292.835 190.788C292.794 190.795 292.754 190.795 292.714 190.795C291.432 193.795 290.069 196.762 288.632 199.689C290.398 198.971 292.056 198.045 293.546 196.823C294.54 196.011 295.976 197.42 294.976 198.246C288.102 203.885 278.476 203.979 270.024 203.657C260.492 203.294 250.779 201.307 241.24 202.348C239.951 202.489 239.958 200.475 241.233 200.334C242.092 200.24 242.958 200.179 243.817 200.132C243.549 196.991 243.368 192.332 243.28 188.479C238.454 196.749 233.03 204.657 226.982 212.068C226.928 212.37 226.753 212.632 226.431 212.746C226.425 212.759 226.411 212.773 226.404 212.786C225.968 213.316 225.337 213.202 224.954 212.833C219.49 212.813 214.12 210.886 209.025 209.101C202.091 206.671 196.002 203.059 189.484 199.75C188.779 199.387 188.813 198.582 189.202 198.125ZM210.569 139.938C210.636 151.867 211.267 163.789 211.992 175.691C212.328 181.195 212.556 186.713 213.22 192.191C213.898 197.783 214.811 203.361 214.852 209C216.214 209.43 217.597 209.812 218.98 210.121C219.698 209.349 220.403 208.57 221.095 207.772C221.034 207.637 221.007 207.483 221.007 207.308C221.209 200.763 220.014 194.252 219.228 187.774C218.564 182.29 218.389 176.731 218.054 171.22C217.329 159.345 216.758 147.457 216.644 135.562C216.557 126.425 216.698 117.095 217.436 107.817C215.093 113.577 212.865 119.377 210.723 125.217C210.582 130.144 210.542 135.065 210.569 139.938ZM221.786 97.4863C221.222 98.7819 220.658 100.084 220.108 101.387C218.812 112.839 218.571 124.465 218.651 135.797C218.732 147.839 219.376 159.882 220.114 171.898C220.457 177.456 220.692 183.028 221.363 188.559C222.048 194.185 222.974 199.803 223.035 205.476C224.283 203.945 225.485 202.374 226.639 200.77C226.633 194.165 225.451 187.593 224.626 181.048C223.894 175.234 223.652 169.341 223.249 163.5C222.377 150.907 221.658 138.307 221.403 125.694C221.215 116.403 221.236 106.925 221.786 97.4863ZM225.592 88.9476C225.122 89.968 224.673 91.0018 224.209 92.0221C223.27 103.333 223.209 114.779 223.41 125.955C223.639 138.723 224.431 151.484 225.31 164.232C225.72 170.119 226.022 176.033 226.767 181.894C227.445 187.257 228.318 192.614 228.579 198.011C234.258 189.633 238.877 180.497 243.052 171.348C243.529 170.307 243.979 169.253 244.442 168.206C244.334 168.032 244.267 167.817 244.287 167.568C244.771 161.057 243.858 154.525 243.348 148.041C242.918 142.556 242.985 137.012 242.884 131.514C242.67 119.659 242.609 107.797 243.005 95.9491C243.656 76.5759 245.368 56.3702 251.692 37.8428C250.128 40.1252 248.691 42.3673 247.483 44.4885C239.333 58.807 232.466 73.978 225.592 88.9476ZM251.994 149.558C252.061 144.516 251.537 139.462 251.242 134.434C250.926 128.976 251.108 123.472 251.121 118.001C251.148 106.22 251.329 94.4387 251.974 82.6711C253.048 63.0025 255.236 42.4881 262.311 23.8801C260.331 26.2833 258.237 28.9147 256.183 31.62C247.718 51.8391 245.784 74.562 244.999 96.2512C244.563 108.247 244.69 120.263 244.912 132.259C245.012 137.804 245.012 143.369 245.442 148.9C245.831 153.814 246.395 158.728 246.415 163.648C248.382 159.003 250.235 154.297 251.994 149.558ZM277.153 11.354C277.147 11.3338 277.14 11.3204 277.133 11.3002C276.885 10.4074 276.496 9.73616 275.482 9.9107C275.254 9.95097 273.743 11.119 272.152 12.6361C271.615 13.1463 269.467 15.4756 266.574 18.8321C257.612 38.8027 255.196 61.425 253.961 83.0403C253.283 94.9489 253.162 106.884 253.128 118.813C253.115 124.324 253.001 129.849 253.316 135.353C253.491 138.361 253.739 141.368 253.88 144.369C256.565 136.797 259.029 129.151 261.304 121.465C271.145 88.2898 276.791 53.9536 278.268 19.4026C277.986 16.7108 277.623 14.0189 277.153 11.354ZM275.576 85.6315C282.624 88.0481 285.417 72.6086 277.892 73.2664C277.771 73.2799 277.664 73.2664 277.563 73.2396C276.959 77.3747 276.287 81.5031 275.576 85.6315ZM283.255 48.2611C284.524 49.4359 286.048 50.275 287.599 51.0201C289.619 51.9867 295.453 52.8124 293.365 48.6438C291.72 45.3612 286.088 43.3608 282.712 42.7835C281.812 42.6291 281.785 41.3603 282.47 40.9441C285.638 39.0041 288.814 36.1042 290.519 32.7813C291.056 31.7341 291.156 30.5594 290.371 29.6129C288.908 27.8407 286.753 29.2705 285.491 30.3781C283.604 32.0429 281.966 34.6811 281.476 37.1581C281.403 37.534 281.181 37.7488 280.913 37.8361C280.711 45.6767 280.013 53.5173 279.147 61.2303C279.026 62.3178 278.879 63.4053 278.744 64.4928C284.954 65.5467 283.813 53.0407 281.678 49.4896C281.067 48.4826 282.43 47.4959 283.255 48.2611ZM302.884 18.1272C294.634 20.7318 295.721 35.1979 304.535 35.406C304.152 29.6196 303.649 23.8331 303.031 18.0668C302.984 18.0869 302.937 18.1138 302.884 18.1272ZM300.521 73.6088C299.776 72.2595 299.03 70.9304 298.178 69.6415C297.661 68.8561 297.07 68.1848 296.406 67.527C294.942 66.0636 293.62 67.7015 294.09 69.2723C294.996 72.2931 297.815 74.797 299.863 77.0928C300.319 77.6029 300.219 78.6434 299.42 78.7777C296.057 79.3483 287.605 81.785 288.699 86.4035C289.666 90.4781 298.574 86.3095 300.447 84.9938C301.32 84.3762 302.273 85.5375 301.83 86.3699C299.937 89.874 298.259 93.4184 297.923 97.4461C297.748 99.5338 298.151 102.555 300.011 103.89C301.964 105.293 303.333 100.87 303.595 99.9097C303.656 99.6815 303.77 99.5136 303.917 99.3995C305.193 84.6044 305.669 69.7489 305.374 54.9135C300.447 58.1357 300.783 68.0908 302.353 72.8368C302.723 73.9243 301.064 74.6023 300.521 73.6088ZM307.925 106.649C308.375 88.7999 308.885 70.9438 308.046 53.1011C307.73 46.3681 307.247 39.5546 306.421 32.788C308.522 59.8542 308.294 86.9741 305.059 114.047C302.978 131.453 299.95 149.9 295.547 166.877C292.418 178.94 287.86 190.285 282.007 201.394C283.336 201.213 284.652 200.958 285.927 200.609C300.541 171.67 307.113 138.898 307.925 106.649ZM294.607 147.517C291.438 147.249 286.202 146.51 283.611 148.732C281.047 150.934 288.404 152.021 289.116 152.075C290.794 152.196 292.492 152.122 294.164 151.988C295.016 151.921 295.533 153.149 294.882 153.706C293.331 155.022 291.875 156.391 290.545 157.935C289.666 158.956 288.995 160.117 288.511 161.366C287.833 163.118 289.559 168.736 292.204 164.574C292.465 164.165 292.875 164.051 293.251 164.125C295.023 157.271 296.553 150.35 297.883 143.382C297.862 143.308 297.849 143.228 297.842 143.134C297.755 141.516 297.131 139.925 296.48 138.462C295.963 137.314 292.996 132.38 291.901 135.743C290.921 138.764 294.063 143.449 295.473 145.987C295.815 146.618 295.399 147.584 294.607 147.517ZM280.322 201.582H279.624C281.04 198.964 282.329 196.286 283.531 193.56C283.457 193.379 283.45 193.164 283.557 192.916C284.86 189.754 285.88 186.337 286.048 182.907C286.128 181.222 285.477 179.329 283.786 178.645C282.658 178.188 281.859 180.444 281.584 181.148C279.818 185.686 279.154 191.473 279.161 196.333C279.161 197.628 277.147 197.635 277.147 196.34C277.14 192.775 272.448 184.209 268.192 185.19C263.036 186.371 271.414 196.957 273.159 198.535C274.072 199.36 272.918 200.549 271.944 200.119C267.628 198.219 260.707 196.776 257.122 200.596C260.512 200.911 263.896 201.273 267.245 201.488C271.327 201.75 275.891 202.005 280.322 201.582ZM254.739 200.387C255.404 199.401 256.196 198.609 257.089 198.004C257.075 197.964 257.055 197.924 257.042 197.87C255.786 192.97 250.228 189.795 245.335 190.721C245.435 194.071 245.596 197.447 245.825 200.038C248.785 199.985 251.765 200.146 254.739 200.387ZM245.281 188.7C251 187.841 257.263 191.385 258.894 197.044C261.956 195.836 265.695 196.105 269.078 197.011C265.661 192.668 261.815 185.653 267.131 183.464C271.226 181.779 275.381 186.21 277.57 190.721C277.764 189.251 278.006 187.781 278.234 186.358C278.684 183.558 279.254 178.973 281.812 177.168C284.021 175.61 286.988 177.812 287.666 180.074C287.847 180.672 287.954 181.289 288.021 181.914C289.673 177.06 291.116 172.14 292.438 167.233C290.264 168.79 287.659 167.649 286.444 164.568C284.987 160.862 288.35 156.915 291.311 154.17C287.209 154.277 281.255 153.8 281.282 149.759C281.315 144.946 288.525 145.04 292.794 145.356C290.666 141.482 287.525 134.937 292.029 132.789C295.05 131.353 297.44 135.105 298.749 138.649C300.185 130.554 301.38 122.418 302.373 114.275C302.77 111.019 303.119 107.75 303.441 104.488C301.984 106.146 299.997 106.864 297.889 104.683C293.841 100.5 296.11 93.5056 298.54 88.3905C294.654 90.1962 289.317 91.2971 287.075 87.6856C283.739 82.322 292.425 78.4957 297.218 77.2136C294.546 74.4009 290.311 69.8429 292.136 66.5469C294.231 62.7676 297.171 65.1976 299.4 68.1244C298.903 62.2373 300.145 55.0881 305.079 52.7587C305.159 52.7184 305.24 52.6983 305.32 52.6782C305.193 47.5898 304.965 42.5015 304.649 37.4199C293.398 37.5139 291.948 19.4698 302.333 16.1939C302.508 16.1402 302.669 16.1335 302.81 16.1603C302.608 14.3546 302.394 12.5488 302.172 10.7498C301.977 10.0517 301.789 9.36024 301.581 8.66882C301.521 8.57484 301.467 8.46072 301.447 8.31975C301.42 8.1922 301.387 8.06467 301.36 7.93041C300.997 6.74224 300.615 5.56749 300.219 4.39274C300.078 4.09067 299.937 3.7953 299.776 3.50664C299.44 2.90249 298.963 2.1775 298.272 1.95598C298.064 1.88885 297.856 1.91571 297.654 2.00297C292.888 7.65518 284.551 20.1411 280.805 26.3169C280.913 28.6261 280.966 30.9353 280.966 33.2512C283.611 28.7201 289.116 23.3431 292.277 28.8006C294.848 33.2378 289.465 38.4537 285.444 41.3603C290.129 42.7096 296.58 46.0392 295.587 51.0067C294.587 55.9943 288.565 53.9737 284.638 51.6847C286.216 57.9209 285.303 67.9163 278.476 66.5402C278.274 68.1177 278.06 69.6885 277.831 71.2593C277.845 71.2593 277.858 71.2526 277.872 71.2526C288.377 70.3396 284.927 90.7265 275.213 87.6319C274.3 92.8209 273.327 98.0032 272.334 103.179C275.012 99.9768 279.389 96.3989 281.879 100.823C284.088 104.729 278.664 109.65 275.395 112.61C279.308 113.617 284.282 116.289 283.927 120.377C283.725 122.666 281.49 123.868 279.442 123.968C277.67 124.056 275.838 123.21 274.227 122.143C275.16 125.774 275.482 129.748 272.669 132.494C270.226 134.877 267.863 133.387 266.453 131.131C264.983 136.871 263.305 142.576 261.412 148.215C265.043 146.906 270.132 146.282 271.494 150.712C272.763 154.848 268.138 156.801 264.547 157.425C268.245 161.184 273.777 166.723 271.213 171.71C269.93 174.207 266.715 174.221 264.822 172.516C262.714 170.616 261.486 168.119 260.036 165.756C258.915 170.744 256.028 178.074 250.51 175.221C250.47 175.201 250.436 175.174 250.396 175.147C248.758 178.504 247.026 181.82 245.214 185.082C245.234 186.223 245.254 187.445 245.281 188.7ZM273.106 118.766C274.112 119.619 275.18 120.33 276.328 120.968C278.147 121.981 283.517 122.545 281.624 118.759C280.335 116.188 275.952 114.503 273.28 114.215C272.454 114.127 271.884 113.168 272.562 112.496C274.945 110.16 277.482 107.992 279.301 105.152C279.879 104.26 280.376 103.165 280.221 102.071C279.885 99.6949 277.093 101.36 276.146 102.105C274.636 103.3 273.361 104.924 272.34 106.549C272.152 106.851 271.877 106.992 271.602 107.012C271.004 110.093 270.4 113.181 269.803 116.262C269.044 120.176 268.185 124.089 267.239 127.983C267.641 130.305 269.299 132.95 271.931 130.386C272.998 129.345 272.891 127.56 272.85 126.211C272.777 124.022 272.105 121.807 271.427 119.733C271.092 118.719 272.387 118.155 273.106 118.766ZM262.399 155.64C264.741 155.573 270.185 154.827 269.561 151.249C268.91 147.557 262.781 149.705 260.888 150.578C260.781 150.625 260.68 150.652 260.573 150.665C257.881 158.399 254.78 165.991 251.262 173.375C251.349 173.395 251.443 173.422 251.537 173.469C256.035 175.792 258.136 165.783 258.539 162.869C258.673 161.889 259.928 162.037 260.378 162.621C261.66 164.313 262.6 166.259 263.741 168.045C264.506 169.247 265.379 170.415 266.534 171.274C268.252 172.563 269.81 170.844 269.863 169.139C269.998 164.715 264.439 160.292 261.7 157.345C261.09 156.714 261.506 155.667 262.399 155.64ZM225.404 210.806C244.992 186.814 257.807 157.781 265.191 127.775C265.171 127.62 265.151 127.473 265.137 127.325C265.111 126.956 265.258 126.694 265.486 126.533C266.42 122.653 267.272 118.766 268.024 114.866C271.186 98.5604 274.388 82.2616 276.536 65.7883C276.079 65.2782 276.227 64.4122 276.751 64.137C276.838 63.4523 276.932 62.7676 277.019 62.0829C277.838 55.2828 278.496 48.3752 278.791 41.4476C276.314 68.9434 271.394 96.5466 263.674 122.854C258.74 139.67 252.86 156.257 245.704 172.267C241.032 182.726 235.5 192.661 228.653 201.743C228.653 201.837 228.653 201.925 228.653 202.019C228.64 202.656 228.21 202.945 227.754 202.932C225.733 205.543 223.592 208.08 221.336 210.537C222.686 210.739 224.041 210.839 225.404 210.806ZM208.112 206.637C209.663 207.194 211.24 207.778 212.851 208.329C212.757 202.656 211.784 197.018 211.099 191.399C210.441 185.968 210.273 180.464 209.945 175.006C209.233 163.245 208.669 151.471 208.568 139.69C208.542 136.857 208.548 134.011 208.589 131.151C207.145 135.212 205.742 139.28 204.386 143.369C198.499 161.057 192.102 179.591 191.202 198.367C196.808 201.267 202.131 204.496 208.112 206.637Z" fill="#FF5B0D"/>
<path d="M294.09 113.731C294.6 113.711 294.909 114.013 295.016 114.389C296.285 115.128 297.01 116.484 297.07 118.021C297.131 119.739 296.063 121.263 294.318 121.444C292.224 121.659 290.331 119.686 290.176 117.726C290.002 115.51 292.029 113.812 294.09 113.731ZM294.311 119.424C294.996 119.417 295.063 118.303 295.05 117.846C295.016 116.96 294.446 116.182 293.607 115.933C293.553 115.92 293.506 115.893 293.459 115.873C292.767 116.128 292.251 116.725 292.19 117.517C292.11 118.612 293.304 119.437 294.311 119.424Z" fill="#FF5B0D"/>
<path d="M256.571 178.612C256.867 178.451 257.149 178.444 257.39 178.538C257.572 178.464 257.78 178.444 258.021 178.504C259.632 178.921 261.116 180.317 261.445 181.975C261.848 184.022 260.015 185.499 258.129 185.633C256.464 185.747 255.195 184.284 254.826 182.794C254.41 181.169 255.088 179.431 256.571 178.612ZM257.86 183.606C258.585 183.807 259.612 183.116 259.458 182.331C259.277 181.418 258.344 180.673 257.484 180.451C257.471 180.451 257.464 180.444 257.451 180.438C256.383 181.196 256.471 183.23 257.86 183.606Z" fill="#FF5B0D"/>
<path d="M276.791 161.701C276.939 161.419 277.22 161.211 277.63 161.198C279.872 161.124 281.866 162.688 282.463 164.829C283.114 167.152 281.181 168.985 278.979 169.193C274.73 169.596 273.065 163.272 276.791 161.701ZM276.677 165.259C276.824 166.226 277.529 167.145 278.55 167.206C279.791 167.28 280.812 166.407 280.463 165.172C280.194 164.212 279.335 163.527 278.395 163.299C278.315 163.339 278.227 163.379 278.12 163.4C277.147 163.601 276.516 164.205 276.677 165.259Z" fill="#FF5B0D"/>
<path d="M276.965 133.884C277.12 133.623 277.395 133.441 277.798 133.455C279.905 133.529 281.973 135.046 282.161 137.254C282.356 139.496 280.214 141.262 278.066 141.154C276.274 141.067 274.797 139.523 274.515 137.805C274.206 135.939 275.307 134.482 276.965 133.884ZM277.804 139.08C278.731 139.396 280.073 138.684 280.161 137.67C280.255 136.603 279.295 135.804 278.328 135.556C278.247 135.596 278.167 135.636 278.066 135.657C277.12 135.878 276.428 136.328 276.475 137.368C276.509 138.113 277.126 138.845 277.804 139.08Z" fill="#FF5B0D"/>
</svg>
