<?xml version="1.0" encoding="utf-8"?>
<!-- Generator: Adobe Illustrator 24.2.3, SVG Export Plug-In . SVG Version: 6.00 Build 0)  -->
<svg version="1.1" id="Layer_1" xmlns="http://www.w3.org/2000/svg" xmlns:xlink="http://www.w3.org/1999/xlink" x="0px" y="0px"
	 viewBox="0 0 700 700" style="enable-background:new 0 0 700 700;" xml:space="preserve">
<style type="text/css">
	.st0{fill:#F9834E;}
</style>
<g>
	<path className="st0" d="M434.55,178.69c-6.25-4.2-13.42-7.75-20.94-10.41c8.05-36.8-46.78-54.65-75.83-54.81
		c-27.7-0.15-78.15,38.96-58.82,66.41c-25.79,6.77-45.8,30.81-53.22,56.47c-8.83,30.53,2.29,59.79,27.78,73.86
		c25.39,86.98,26.23,179.07,53.52,265.58c0.12,0.37,0.28,0.7,0.46,1.01c-1.54,2.48-0.61,6.56,3.19,6.83
		c4.95,0.36,10.02,0.56,14.69,2.36c1.79,0.69,3.29,0.18,4.31-0.86c0.52-0.44,0.96-1.01,1.26-1.79c3.89-10.17,7.94-20.28,12.05-30.36
		c0.18-0.12,0.36-0.23,0.54-0.35c2.07-1.34,2.47-3.63,1.87-5.5c8.74-21.28,17.78-42.43,26.8-63.6c1.41-0.99,2.3-2.89,2.01-4.73
		c14-32.92,27.72-65.95,39.7-99.65c-0.36,3.21-0.74,6.35-0.99,9.32c-1.56,18.26-3.44,36.5-4.53,54.8
		c-0.73,12.2-6.97,61.37,15.14,61.35c23.59-0.03,18.69-60.54,18.59-73.67c-0.32-44.3-9.72-91.84,0.84-135.21
		c0.06-0.25,0.08-0.5,0.1-0.74C483.11,266.44,475.18,205.96,434.55,178.69z M304.55,135.4c12.27-10.43,24.92-14.02,40.76-12.92
		c22.17,1.55,64.25,15.68,59.77,43.21c-27.41-6.9-56.77-0.9-63.27,31.24c-10.4-9.14-23.66-15.58-38.54-18.12
		c-4.86-0.83-9.61-1.01-14.22-0.65C275.14,164.49,292.7,145.47,304.55,135.4z M233.35,241.54c6-26.25,26.51-49.88,53.39-53.99
		c0.25,0.18,0.46,0.38,0.72,0.56c2.31,1.61,4.68,0.62,5.92-1.17c0.54-0.02,1.07-0.09,1.62-0.09c39.53-0.01,67.83,36.75,59.79,74.43
		c-4.92,23.06-20.88,41.57-41.06,48.58c-1-0.1-2.01,0.26-2.86,0.91c-10.89,3.14-22.87,2.98-34.95-1.55
		c-0.32-0.16-0.67-0.3-1.08-0.39c-0.37-0.14-0.71-0.23-1.05-0.28C241.51,301,226,273.71,233.35,241.54z M349.93,375.23
		c9.82,11.99,20.89,22.47,34.12,29.48c-12.85,15.1-27.78,28.58-44.07,40.07c-10.17-11.25-19.6-23.16-28.41-35.54
		C325.69,400.27,338.55,388.24,349.93,375.23z M306.63,402.16c-9.35-13.66-18.04-27.79-26.26-42.15c13.6-9.04,26-19.51,37.71-30.78
		c8.42,12.68,16.89,26.4,26.42,39.05C333.32,381.3,320.59,393.39,306.63,402.16z M324.33,323.08c4.47-4.48,8.86-9.06,13.2-13.68
		c1.9,11.78,7.31,25.72,18.61,30.18c3.14,1.24,6.08,1.76,8.86,1.76c-4.53,6.67-9.53,13.51-14.95,20.25
		C340.76,349.07,332.49,335.47,324.33,323.08z M275.37,351.18c-0.78-1.4-1.98-2.06-3.23-2.22c-2.47-11.47-5.22-22.88-8.37-34.21
		c2.61,0.91,5.32,1.69,8.15,2.3c13.78,5.45,27.33,5.95,39.67,2.68c0.52,0.74,1.04,1.49,1.56,2.23
		c-11.5,11.18-23.68,21.59-37.06,30.49C275.86,352.03,275.61,351.61,275.37,351.18z M276.49,370.65
		c7.15,12.19,14.65,24.18,22.61,35.83c-5.01,2.62-10.16,4.78-15.44,6.37C281.45,398.75,279.12,384.67,276.49,370.65z M289.34,449.7
		c-1.44-9.39-2.87-18.79-4.33-28.19c6.55-1.93,12.91-4.6,19.05-7.91c8.91,12.55,18.43,24.63,28.69,36.06
		c-11.1,7.27-22.74,13.65-34.71,19.04c-2.61-5.77-5.14-11.57-7.56-17.4C290.19,450.62,289.8,450.09,289.34,449.7z M294.89,484.17
		c6.25,13.78,13.73,27.83,23.12,39.02c-5,2.02-10.05,3.15-15.01,3.05C299.95,512.29,297.3,498.26,294.89,484.17z M324.22,576.56
		c-2.76-0.66-5.6-1.03-8.44-1.28c-0.01-0.38-0.06-0.77-0.2-1.2c-0.47-1.48-0.9-2.97-1.35-4.46c0.14-0.05,0.27-0.08,0.4-0.14
		c5.44-2.51,10.65-5.45,15.76-8.55C328.3,566.13,326.23,571.33,324.22,576.56z M335.95,547.19c-7.85,5.05-15.77,9.99-24.22,13.99
		c-2.46-8.69-4.71-17.43-6.75-26.2c6.45-0.22,12.96-2.08,19.29-5.05c4.41,4.23,9.19,7.83,14.43,10.51
		C337.78,542.69,336.87,544.94,335.95,547.19z M342.04,532.39c-3.44-1.84-6.58-4.24-9.48-7c6.7-4.2,13.05-9.44,18.76-15.02
		C348.21,517.7,345.1,525.04,342.04,532.39z M362.95,483.02c-0.28,0.25-0.55,0.53-0.79,0.89c-7.51,11.22-20.84,26.15-35.55,34.96
		c-5.81-7.2-10.55-15.54-14.75-22.83c-3.65-6.32-6.97-12.83-10.13-19.43c12.78-5.73,25.2-12.59,37.03-20.43
		c7.99,8.45,16.41,16.51,25.37,24.07C363.73,481.18,363.34,482.1,362.95,483.02z M367.67,471.9c-7.62-6.53-14.83-13.44-21.71-20.66
		c17.2-12.24,32.92-26.62,46.33-42.73c0.39,0.15,0.77,0.34,1.16,0.49C385.23,430.11,376.52,451.03,367.67,471.9z M405.53,376.57
		c-0.85,0.24-1.65,0.8-2.26,1.8c-4.13,6.74-8.7,13.21-13.59,19.46c-13.29-6.61-24.36-17.1-34.16-29.19
		c8.14-9.93,15.44-20.21,21.75-29.98c0.4-0.62,0.62-1.25,0.7-1.85c3.73-2.75,7.01-6.52,9.92-10.79c1.68-2.47,3.22-4.94,5.34-7.08
		c2.02-2.04,5.67,10.33,5.57,12.32c-0.28,5.74-1.12,11.26-0.62,17.02c0.72,8.29,6.75,11.01,13.37,10.98
		C409.6,365.06,407.57,370.81,405.53,376.57z M429.94,292.79c-4.75,2.4-1.56,9.54,3.07,8.12c-6.44,34.31-1.67,69.93-0.24,104.61
		c0.68,16.66,0.95,33.34,0.29,50.01c-0.44,11.02,0.45,31.15-8.01,39.72c-5.83,5.9-8.36-19.98-8.46-21.92
		c-0.82-15.68,0.49-31.51,1.73-47.13c1.18-14.9,2.73-29.78,3.91-44.68c0.72-9.06,2.28-19.43,0.08-28.41
		c-0.53-2.19-2.76-4.05-5.13-3.42c-15.59,4.14-9.5-12.41-9.6-21.7c-0.07-6.2-4.87-15.41-11.06-17.6
		c-6.51-2.31-10.99,3.72-14.24,8.35c-5.96,8.49-13.14,18.82-25.04,11.35c-8.75-5.49-11.15-18.74-11.83-28.17
		c-0.08-1.14-0.51-1.96-1.13-2.52c8.19-8.97,14.49-20.13,18.09-32.61c6.95-24.14,0.5-46.93-14.07-63.43
		c0.84-0.64,1.47-1.58,1.67-2.88c4.39-29.07,29.46-32.38,52.8-26.21c0.02,3.62,5.33,5.36,7.81,2.42c6.98,2.5,13.55,5.71,19.06,9.18
		c15.92,10.03,24.77,24.86,29.67,42.84C466.69,255.87,454.57,280.35,429.94,292.79z"/>
	<path className="st0" d="M397.61,286.95c-9.19-1.65-18.28-4.08-26.27-9.07c-4.77-2.97-9.7,4.21-4.93,7.19
		c9.36,5.84,19.81,8.64,30.57,10.57C402.51,296.63,403.08,287.93,397.61,286.95z"/>
	<path className="st0" d="M439.8,219.05c3.61,11.86,3.82,24.17-2.81,35.03c-2.92,4.79,4.26,9.73,7.19,4.93
		c7.81-12.79,8.49-27.51,4.17-41.66C446.73,212.03,438.16,213.67,439.8,219.05z"/>
	<path className="st0" d="M330.46,276.71c7.4-14.87,11.85-30.3,4.33-46.02c-2.42-5.07-10.25-1.23-7.82,3.84
		c6.48,13.55,1.53,26.68-4.73,39.26C319.74,278.83,327.99,281.67,330.46,276.71z"/>
</g>
</svg>
