<?xml version="1.0" encoding="utf-8"?>
<!-- Generator: Adobe Illustrator 24.2.3, SVG Export Plug-In . SVG Version: 6.00 Build 0)  -->
<svg version="1.1" id="Layer_1" xmlns="http://www.w3.org/2000/svg" xmlns:xlink="http://www.w3.org/1999/xlink" x="0px" y="0px"
	 viewBox="0 0 700 700" style="enable-background:new 0 0 700 700;" xml:space="preserve">
<style type="text/css">
	.st0{fill:#F9834E;}
</style>
<g>
	<path className="st0" d="M330.91,87.52c-9.71,12.75-21.02,24.16-30.89,36.78c-1.29,1.65,1.01,4.01,2.31,2.34
		c10.04-12.84,21.52-24.47,31.4-37.44C335.02,87.51,332.17,85.86,330.91,87.52z"/>
	<path className="st0" d="M370.48,116.29c13.09,16.21,25.93,32.61,37.03,50.26c1.12,1.79,3.98,0.15,2.85-1.64
		c-11.25-17.89-24.28-34.51-37.54-50.93C371.48,112.32,369.15,114.65,370.48,116.29z"/>
	<path className="st0" d="M351.64,126.7c0.43,2.08,3.6,1.21,3.17-0.86c-2.64-12.75-5.19-25.51-9.4-37.86c-0.68-1.99-3.86-1.15-3.18,0.86
		C346.46,101.19,349,113.95,351.64,126.7z"/>
	<path className="st0" d="M377.09,166.23c-5.31-13.17-9.13-26.87-14.76-39.92c-0.84-1.94-3.68-0.28-2.85,1.64
		c5.52,12.78,9.23,26.23,14.44,39.13C374.69,169.03,377.88,168.2,377.09,166.23z"/>
	<path className="st0" d="M330.28,170c1.61-27.94,6.77-55.46,11.03-83.07c0.32-2.07-2.84-2.98-3.17-0.89
		c-4.31,27.9-9.53,55.72-11.15,83.95C326.87,172.1,330.15,172.11,330.28,170z"/>
	<path className="st0" d="M247.06,167.19c6.49-6.93,13.43-13.53,19.97-20.46c-3.06,3.66-6.1,7.34-9.1,11.06
		c-1.32,1.63,0.98,3.99,2.31,2.34c10.95-13.59,22.43-26.74,33.81-39.96c5.49-6.37,11.08-12.69,16.34-19.24
		c4.51-5.62,8.87-11.35,14.33-16.1c1.6-1.39-0.72-3.72-2.31-2.33c-5.99,5.22-10.6,11.64-15.67,17.71
		c-5.4,6.46-10.88,12.85-16.37,19.23c-3.83,4.44-7.66,8.88-11.48,13.33c0.78-1.59-1.82-2.98-3-1.39
		c-9.1,12.2-20.76,22.4-31.14,33.49C243.3,166.4,245.61,168.74,247.06,167.19z"/>
	<path className="st0" d="M502.41,568.9c-6.64-21.59-63.08-204.84-80.43-278.28c10.03,0.03,20.06,0.22,30,0.98
		c1.97,0.15,2.27-2.17,0.91-3c0.29-1.27,0.55-2.57,0.63-3.85c1.71,0.09,3.43,0.19,5.14,0.31c1.72,0.12,2.3-1.29,1.73-2.3
		c1.48-4.24,1.65-9.1,0.29-13.38c-0.17-0.55-0.55-0.89-0.98-1.04c-0.27-0.14-0.59-0.24-0.97-0.27c-15.26-1.05-30.67-1.08-46.07-1.03
		c1.61-16.23-0.08-32.74,0.14-49.01c0.13-9.91,0.35-19.82,0.55-29.73c0.38-0.03,0.76-0.04,1.13-0.07c0.01,0,0.02,0,0.03,0
		c0.01,0,0.03,0,0.04,0c0.98,0.01,1.53-0.75,1.65-1.64c0.16-1.13,0.23-2.26,0.26-3.39c0.26,0.24,0.52,0.48,0.78,0.72
		c1.01,0.94,2.85,0.35,2.81-1.15c-0.08-2.91-0.51-5.69-1.38-8.37c2.54,1.37,5.17,2.54,7.89,3.47c0.28,0.46,0.57,0.92,0.85,1.38
		c0.79,1.31,2.5,0.81,2.97-0.25c1.24,0.31,2.49,0.57,3.77,0.77c1.04,0.16,2.08-0.41,2.09-1.58c0.01-1.24-0.86-1.99-1.6-2.95
		c-0.35-0.44-0.69-0.89-1.03-1.33c-0.43-0.73-0.86-1.45-1.29-2.17c1.32,0.49,2.65,0.98,3.94,1.58c1.55,0.72,2.93-0.7,2.26-2.24
		c-2.53-5.8-7.1-10.01-12.03-13.8c-1.68-1.29-3.33,1.56-1.68,2.83c3.26,2.51,6.28,5.25,8.58,8.58c-1.86-0.7-3.68-1.47-5.31-2.63
		c-1.58-1.13-3.21,1.25-2.01,2.57c0.01,0.01,0.03,0.03,0.04,0.05c0.02,0.23,0.09,0.47,0.25,0.72c0.34,0.55,1.48,1.87,2.71,3.34
		c0.08,0.13,0.17,0.27,0.25,0.41c0.07,0.05,0.14,0.1,0.21,0.15c0.76,0.9,1.51,1.83,2.12,2.65c-1-0.24-1.98-0.53-2.96-0.83
		c-15.43-25.01-34.16-47.7-53.69-69.59c-1.41-1.59-3.74,0.74-2.34,2.31c18.42,20.65,36.11,41.99,50.95,65.36
		c-2.63-1.17-5.16-2.57-7.62-4.16c-1.43-0.93-3.03,0.84-2.26,2.24c1.33,2.42,2.16,4.86,2.6,7.43c-2.65-2.37-5.38-4.64-8.31-6.7
		c-0.81-0.56-2.26-0.04-2.42,0.97c-0.19,1.18-0.42,2.32-0.7,3.45c-1.22-1.66-2.44-3.32-3.68-4.96c-0.64-0.85-1.69-0.84-2.41-0.42
		c-0.73,0.26-1.34,0.96-1.15,1.94c0.07,0.33,0.1,0.66,0.11,1c-0.99-1-1.92-2.08-2.83-3.16c-0.13-0.15-0.3-0.26-0.48-0.34
		c-15.41-32.31-36.05-61.95-49.69-95.13c6.51,7.68,13.23,15.18,19.43,23.11c1.3,1.67,3.62-0.66,2.34-2.31
		c-4.06-5.2-8.35-10.21-12.65-15.2c30.61,26.04,55.69,57.93,84.37,86c1.52,1.49,3.63-1.03,2.12-2.51
		c-14.57-14.26-28.2-29.5-42.1-44.46c10.49,9.34,20.98,18.69,31.15,28.39c1.53,1.46,3.87-0.85,2.34-2.31
		c-15.45-14.73-31.63-28.66-47.46-42.98c-0.7-0.64-1.56-0.52-2.15-0.07c-11.66-11.9-23.81-23.28-37.1-33.46
		c-0.49-0.38-1.02-0.42-1.48-0.27c-0.58-0.35-1.34-0.41-1.98,0.17c-33.53,30.11-58.13,68.28-87.63,102.04
		c-1.39,1.59,0.92,3.94,2.31,2.34c28.64-32.77,52.69-69.68,84.74-99.36c-0.01,0.21,0.02,0.44,0.12,0.69
		c13.77,33.95,34.85,64.17,50.56,97.17c-0.79,1.39-1.74,2.63-2.9,3.73c-0.02-0.04-0.04-0.07-0.06-0.1
		c-0.01,0.01-0.02,0.02-0.03,0.04c-2.03-2.3-4.6-3.94-6.94-6.06c-0.8-0.73-1.99-0.61-2.58,0.32c-0.94,1.48-2.13,2.75-3.18,4.13
		c-1.86-1.93-4.04-3.57-5.49-5.81c-0.82-1.27-2.49-0.94-3.01,0.38c-1.09,2.76-2.33,5.4-3.95,7.83c-2.54-12.34-4.51-24.79-6.71-37.2
		c-0.37-2.09-3.54-1.22-3.18,0.86c1.81,10.2,3.46,20.42,5.39,30.59c-0.46-0.58-0.94-1.17-1.42-1.76c-0.66-0.8-2.12-0.56-2.58,0.32
		c-1.61,3.07-3.42,6.01-5.3,8.91c-1.53-1.83-3.24-3.53-4.1-5.78c0.79-6.42,1.48-12.84,1.58-19.32c0.03-2.12-3.25-2.13-3.29-0.02
		c-0.14,9.2-1.46,18.27-2.6,27.38c-0.26,2.1,3.03,2.1,3.29,0.02c0.13-1.01,0.26-2.02,0.38-3.03c1.14,1.43,2.38,2.8,3.4,4.43
		c0.67,1.08,2.15,1.05,2.84,0.02c1.92-2.88,3.78-5.81,5.48-8.83c1.88,2.39,3.5,4.77,4.13,7.94c0.17,0.84,1.05,1.28,1.84,1.18
		c0.04,0,0.08-0.01,0.12-0.01c0.02,0,0.05-0.01,0.07-0.01c0.63-0.11,1.22-0.55,1.4-1.21c2.23-2.64,3.86-5.6,5.25-8.73
		c1.73,1.8,3.74,3.33,5.21,5.4c0.67,0.95,2.2,1.18,2.84,0.01c0.88-1.63,2.15-2.99,3.3-4.45c2.34,1.87,4.85,3.53,6.46,6.14
		c0.62,1.01,2.24,1.14,2.84,0.01c0.11-0.2,0.24-0.39,0.35-0.59c-0.02-0.03-0.04-0.07-0.06-0.1c1.41-1.2,2.6-2.58,3.57-4.13
		c1.24,1.37,2.54,2.67,4.03,3.8c0.87,0.66,2.15-0.04,2.42-0.97c0.12-0.41,0.22-0.83,0.29-1.24c1.08,1.47,2.16,2.94,3.26,4.39
		c0.88,1.16,2.48,1.04,3.01-0.38c0.52-1.38,0.9-2.74,1.21-4.14c1.7,1.3,3.34,2.67,4.95,4.08c-0.04,0.15-0.07,0.31-0.08,0.48
		c-0.01,1.41-0.03,2.81-0.14,4.2c-29.68,1.95-59.44,2.61-89.19,2.48c-0.33,0-0.6,0.08-0.84,0.2c-0.24-0.01-0.49-0.01-0.73-0.02
		c-0.79-3.13-0.53-6.53-0.21-9.76c0.65,0.56,1.24,1.18,1.74,1.92c0.6,0.89,1.77,1.1,2.58,0.34c1.29-1.21,2.53-2.39,3.64-3.7
		c1.38,1.97,2.92,3.19,4.52,3.74c-0.03,2.04,3.18,2.03,3.29-0.06c1.27-24.52,4.06-48.92,5.84-73.4c0.16-2.12-3.13-2.12-3.29-0.02
		c-1.71,23.43-4.32,46.79-5.66,70.24c-1.45-1.05-2.28-2.65-3.11-4.26c-0.59-1.14-2.2-1-2.84-0.01c-0.97,1.51-2.14,2.71-3.39,3.9
		c-1.33-1.39-2.9-2.42-4.44-3.72c-0.84-0.71-1.95-0.61-2.58,0.32c-1.02,1.5-2.47,2.54-3.68,3.81c-0.15-0.14-0.31-0.27-0.46-0.4
		c2.86-8.45,6.14-16.75,8.35-25.41c0.52-2.05-2.64-2.94-3.16-0.89c-2.89,11.36-7.66,22.11-10.85,33.37
		c-0.58,2.04,2.59,2.93,3.17,0.89c0.43-1.51,0.89-3.01,1.37-4.51c0.19,0.19,0.39,0.38,0.56,0.59c0.69,0.82,2.08,0.54,2.58-0.32
		c0.66-1.13,1.63-2.01,2.6-2.91c-0.32,3.34-0.6,6.84,0.05,10.14c-15.4-0.34-30.84,0.49-46.16-1.4c-0.26-1.75-0.35-3.52-0.36-5.3
		c0.59,0.09,1.23-0.15,1.68-0.75c1.3-1.73,3.34-2.59,5.03-3.89c1.18,1.4,2.36,2.76,3.09,4.48c0.37,0.89,1.73,1.04,2.46,0.47
		c0.57,0.98,2.13,1.39,2.84,0.1c0.65-1.18,1.32-2.36,1.99-3.53c0.94,0.92,1.85,1.87,2.57,3c0.51,0.81,1.89,1.21,2.58,0.34
		c0.89-1.12,1.89-2.12,2.85-3.19c1.17,0.96,2.35,1.62,3.51,1.98c-0.2,0.52-0.41,1.04-0.62,1.56c-0.77,1.98,2.41,2.84,3.16,0.89
		c8.12-20.87,17.17-41.36,24.97-62.35c0.74-1.99-2.43-2.86-3.16-0.89c-7.22,19.43-15.51,38.44-23.14,57.72
		c-1.14-0.25-2.37-1.04-3.7-2.41c-0.57-0.59-1.77-0.71-2.32-0.01c-0.82,1.03-1.73,1.96-2.62,2.93c-0.75-0.87-1.57-1.66-2.39-2.47
		c5.87-9.9,12.36-19.42,18.14-29.37c1.07-1.84-1.77-3.51-2.83-1.67c-5.63,9.68-11.92,18.94-17.66,28.55
		c-0.06-0.07-0.12-0.13-0.18-0.2c-0.62-0.77-2.19-0.61-2.58,0.32c-0.64,1.49-1.6,2.75-2.47,4.07c-0.97-1.34-2.12-2.53-3.17-3.89
		c-0.71-0.91-2.02-0.43-2.58,0.32c-0.42,0.56-0.91,1.02-1.45,1.44c12.16-18.2,25.68-35.44,39.06-52.75c1.3-1.68-1.55-3.32-2.83-1.67
		c-13.89,17.96-27.92,35.84-40.43,54.81c-0.67-1.14-1.36-2.28-1.92-3.51c-0.03-0.06-0.07-0.09-0.1-0.14
		c5.21-6.62,10.19-13.43,15.83-19.7c1.41-1.57-0.89-3.92-2.31-2.34c-7.16,7.96-13.25,16.78-20.11,24.98
		c-0.56,0.29-1.11,0.58-1.61,0.95c-0.66,0.49-0.81,1.22-0.65,1.86c-0.61,1.52,1.37,3.27,2.62,1.83c0.63-0.72,1.24-1.46,1.85-2.19
		c0.94-0.51,1.85-0.99,2.68-1.63c0.4,0.67,0.81,1.33,1.2,2c-0.35,0.26-0.59,0.67-0.59,1.24c-0.01,3.17,0,6.34,0.56,9.48
		c0.17,0.94,0.9,1.27,1.62,1.18c0.27,0.3,0.65,0.53,1.15,0.59c0.24,0.03,0.48,0.05,0.72,0.08c0.33,26.3-0.71,52.62-3.45,78.79
		c-4.89,0.13-8.95,0.07-19.04-0.53c-1.19-0.07-1.81,0.63-1.88,1.41c-0.1,0.09-0.2,0.19-0.28,0.31c-2.46,3.44-2.55,9.66,0.25,13.16
		c-0.21,0.91,0.4,2.03,1.83,2.11c0.43,0.03,0.84,0.05,1.24,0.07c0.05,0.02,0.1,0.04,0.15,0.06c0.36,0.11,0.69,0.1,0.97,0
		c1.2,0.07,2.3,0.13,3.29,0.18c-0.05,1.28,0.13,2.54,0.45,3.78c-0.75,0.92-0.24,2.6,1.53,2.7c3.84,0.23,6.27,0.36,7.97,0.43
		c-18.64,74.6-75.84,254.02-82.63,275.34c-0.54,1.7,1.72,2.67,2.75,1.64c0.28,1.39,2.6,1.91,3.16,0.25
		c3.32-9.81,16.84-49.86,32.65-97.92c11.36-0.43,46.36,1.02,76.55,2.22c-0.14,3.87-0.28,7.7-0.42,11.46c-0.07,0-0.13-0.01-0.2-0.02
		c-0.81-0.34-1.93-0.15-2.38,0.89c-0.97,2.24-1.24,4.55-0.75,6.94c0.08,0.4,0.27,0.69,0.51,0.9c0.04,0.62,0.44,1.16,1.31,1.23
		c0.38,0.03,0.76,0.06,1.14,0.09c-0.4,10.55-0.8,20.53-1.17,29.69c-0.33,0.09-0.64,0.31-0.88,0.67c-0.02,0.03-0.03,0.06-0.05,0.09
		c-0.3,0.3-0.49,0.68-0.55,1.06c-0.8,1.9-0.89,4.12-0.6,6.11c0.04,0.26,0.12,0.48,0.24,0.66c-0.12,0.73,0.23,1.45,1.24,1.58
		c0.06,0.01,0.12,0.01,0.18,0.02c-0.89,21.49-1.58,37.09-1.82,42.6c-0.08,1.78,2.36,2.13,3.08,0.86c0.64,1.27,3.01,1.16,3.12-0.58
		c0.35-5.69,1.3-21.02,2.54-42.05c8.63,1.01,17.26,2,25.86,3.28c0.44,20.92,0.8,36.07,0.94,42c0.05,1.98,2.41,2.19,3.09,0.78
		c0.67,1.46,3.12,1.16,3.11-0.86c-0.04-5.58-0.16-20.33-0.28-40.82c0.55,0.09,1.1,0.18,1.65,0.28c1.46,0.26,2.34-1.09,2.1-2.12
		c0.51-1.68,0.95-3.39,0.95-5.16c0-0.55-0.23-0.96-0.56-1.24c0.01-0.65-0.36-1.28-1.25-1.43c-0.98-0.17-1.97-0.33-2.96-0.5
		c-0.06-9.57-0.12-20.21-0.16-31.59c0.9,0.11,1.8,0.22,2.7,0.34c1.85,0.25,2.67-1.99,1.57-2.88c0.22-1.48,0.35-2.95,0.37-4.44
		c0.68-0.74,0.7-1.99-0.23-2.48c-0.54-0.99-1.99-1.16-2.69-0.45c-0.58-0.07-1.17-0.14-1.75-0.21c-0.01-4.46-0.03-9.01-0.04-13.63
		c1.98,0.04,3.73,0.06,5.16,0.05c9.69-0.02,19.37-0.07,29.06-0.13c4.31,45.72,8.07,82.82,9.05,92.41c0.21,2.05,3.47,1.7,3.26-0.34
		c-0.93-9.16-4.73-46.25-9.08-92.09c0.58,0,1.16-0.01,1.74-0.01c3.51,45.19,6.61,81.76,7.42,91.28c0.17,2.05,3.44,1.76,3.27-0.29
		c-0.78-9.09-3.91-45.66-7.46-91.01c29.02-0.2,58.03-0.47,87.04-0.34c0.07,0,0.12-0.01,0.19-0.02
		c15.11,47.49,27.98,86.87,31.17,96.61c0.54,1.66,2.87,1.17,3.16-0.22C500.66,571.56,502.93,570.61,502.41,568.9z M342.43,73.21
		c0.12-0.11,0.23-0.21,0.34-0.32c0.09,0.11,0.18,0.22,0.27,0.32C342.84,73.18,342.63,73.18,342.43,73.21z M493.55,551.21
		c-17.57-53.9-64.56-199.25-79.98-260.57c1.7-0.01,3.4-0.01,5.1-0.01C433.47,353.12,477.05,497.16,493.55,551.21z M274.7,291.72
		c-16.47,62.15-64.17,204.89-82.08,258.05c16.83-53.23,61.03-194.29,76.91-257.73C270.87,292,271.89,291.87,274.7,291.72z
		 M224.04,465.58c20.21-61.57,43.57-134.57,54.02-174c0.84-0.03,1.78-0.05,2.83-0.08c0.81,7.63,3.47,15.13,8.38,22.07
		c3.17,4.48,7.95,9.01,13.27,12.79c-0.04,4.68-0.1,9.51-0.17,14.48c-0.51-0.04-1.03-0.08-1.54-0.12c-1.93-0.15-2.77,2.34-1.4,3.04
		c-0.3,1.43-0.47,2.88-0.53,4.34c-0.63,0.7-0.71,1.81,0.02,2.33c0.31,1.54,2.55,1.74,3.12,0.45c0.06,0,0.12,0.01,0.17,0.01
		c-0.11,6.27-0.23,12.69-0.38,19.25c-0.88-0.07-1.76-0.14-2.65-0.21c-0.21-0.02-0.41,0.01-0.59,0.05c-0.65,0-1.32,0.31-1.65,1.04
		c-0.99,2.21-0.91,4.93-1.03,7.3c-0.07,1.28,1.11,1.81,2.07,1.57c0.03,0,0.05,0.01,0.09,0.02c1.17,0.09,2.35,0.18,3.52,0.27
		c-0.16,6.75-0.34,13.58-0.53,20.47c-1.27-0.21-2.55-0.43-3.82-0.64c-1.45-0.25-2.41,1.09-2.21,2.1c-0.58,1.84-0.92,3.81-0.52,5.7
		c-0.4,0.83-0.19,1.87,1.01,2.07c1.75,0.3,3.5,0.59,5.25,0.88c-0.31,10.77-0.65,21.58-1.01,32.25c-1.19-0.02-2.39-0.04-3.58-0.06
		c-1.56-0.03-2.3,1.6-1.8,2.56c-0.46,1.76-0.43,3.59,0.05,5.39c0.06,0.22,0.16,0.4,0.27,0.55c-0.07,0.76,0.35,1.49,1.39,1.51
		c1.11,0.02,2.23,0.04,3.34,0.06c-0.13,3.9-0.27,7.77-0.4,11.61C272.09,464.82,237.8,465.13,224.04,465.58z M291.59,190.69
		c0.08,0.08,0.16,0.16,0.27,0.24c7.87,5.78,15.5,11.78,22.93,17.93c0,0.74,0,1.49,0.01,2.24c-7.99-6.5-16.8-13.4-24.07-18.84
		c-0.01-0.53-0.01-1.06-0.02-1.6C291,190.68,291.29,190.68,291.59,190.69z M322.91,190.99c0.08,11.88,0.18,26.98,0.08,41.08
		c-1.69,0.31-3.35,0.7-4.99,1.19c0.14-14.54,0.05-30.21-0.02-42.41C319.62,190.88,321.26,190.92,322.91,190.99z M352.09,190.65
		c-6.24,5.46-14.03,12.62-21.07,19.36c0-0.74,0-1.47-0.01-2.2c6.03-5.88,12.22-11.6,18.58-17.12
		C350.43,190.67,351.26,190.66,352.09,190.65z M327.74,231.41c1.12-0.12,2.21-0.21,3.24-0.25c0.04-5.49,0.05-11.1,0.05-16.6
		c8.35-8.07,18.18-17.11,25.34-23.29c0.25-0.22,0.39-0.45,0.47-0.7c4.59-0.08,9.17-0.18,13.76-0.3c7.15,6.95,16.78,16.86,24.4,25.19
		c-0.04,2.29-0.08,4.57-0.1,6.86c-0.16,14.81,0.97,29.88,0.45,44.76c-4.44-0.01-8.87-0.04-13.3-0.12
		c-5.17-14.9-17.64-26.93-32.44-32.41c-7.78-2.88-15.75-3.83-23.39-2.97c0.12-14.1,0.03-29.06-0.03-40.8c0.49,0,0.98,0,1.47,0
		C327.73,202.5,327.84,217.38,327.74,231.41z M404.59,267.07c-2,0.01-4.01,0.01-6.01,0.01c0.48-14.88-0.59-29.9-0.4-44.75
		c0.01-1.1,0.03-2.19,0.05-3.29c0.71,0.79,1.4,1.57,2.04,2.31c0.61,0.7,1.38,0.6,1.92,0.14c0.6-0.17,1.13-0.66,1.23-1.49
		c0.23-2.1,0.04-4.2,0.03-6.3c0-0.11-0.01-0.21-0.03-0.31c0.14-0.49,0.06-1.06-0.36-1.54c-1.53-1.75-3.07-3.47-4.62-5.2
		c0.1-5.84,0.21-11.67,0.32-17.51c2.18-0.11,4.36-0.23,6.55-0.35c-0.2,9.49-0.41,18.98-0.52,28.47
		C404.59,233.76,406.44,250.62,404.59,267.07z M395.2,203.11c-4.15-4.51-8.39-8.92-12.71-13.23c4.32-0.16,8.65-0.35,12.97-0.57
		C395.37,193.91,395.29,198.51,395.2,203.11z M400.45,213.62c0,0.02,0,0.03,0,0.05c0,1.07,0.05,2.14,0.08,3.2
		c-7.26-8.14-17.53-18.84-25.55-26.75c1.07-0.03,2.15-0.07,3.22-0.1C385.87,197.59,393.29,205.46,400.45,213.62z M385.37,284.04
		c21.54,0.4,43.33-0.41,64.88,0.56c-0.07,1.2-0.34,2.39-0.61,3.56c-21.31-1.43-42.93-0.47-64.28-0.86
		C385.38,286.21,385.39,285.12,385.37,284.04z M334.58,333.56c-0.73,0.06-1.46,0.09-2.18,0.1c0.04-7.94,0.15-15.89,1.39-23.75
		c4.61-0.11,9.16-1.23,13.11-3.47c1.72-0.97,3.27-2.12,4.68-3.41c8.28,0.69,14.36,9.44,17.88,16.32
		C360.35,328.92,347.34,332.55,334.58,333.56z M330.33,443.73c-0.15-9.19-0.3-18.5-0.43-27.81c0.87,0.18,1.75,0.36,2.62,0.54
		c-0.04,9.16-0.07,18.32-0.08,27.37C331.73,443.8,331.03,443.77,330.33,443.73z M306.67,411.76c-0.5,10.47-1.01,20.98-1.55,31.35
		c-0.72-0.01-1.44-0.02-2.15-0.03c0.34-10.51,0.67-21.16,0.98-31.77C304.86,411.46,305.77,411.61,306.67,411.76z M309.84,412.29
		c5.63,0.94,11.26,1.91,16.87,2.99c0.12,9.47,0.27,18.95,0.42,28.31c-6.26-0.24-12.53-0.35-18.8-0.43
		C308.84,432.94,309.35,422.6,309.84,412.29z M335.48,413.75c-12.5-2.73-25.17-4.64-37.79-6.78c-0.17-1.18,0.03-2.35,0.36-3.49
		c12.61,2.13,25.26,4.05,37.75,6.81C335.87,411.44,335.75,412.61,335.48,413.75z M308.07,380.7c-0.29,6.92-0.6,13.93-0.93,20.98
		c-0.97-0.16-1.94-0.32-2.91-0.48c0.19-6.98,0.37-13.91,0.54-20.75C305.87,380.53,306.97,380.61,308.07,380.7z M326.35,382.2
		c0.06,7.54,0.14,15.18,0.23,22.86c-5.41-1.02-10.84-1.95-16.27-2.85c0.33-7.15,0.64-14.26,0.93-21.27
		C316.28,381.32,321.32,381.72,326.35,382.2z M329.77,405.67c-0.09-7.78-0.18-15.52-0.24-23.16c1.08,0.11,2.15,0.22,3.23,0.34
		c-0.08,7.71-0.14,15.53-0.18,23.38C331.64,406.04,330.71,405.86,329.77,405.67z M299.26,376.75c0.04-1.17,0.13-2.37,0.41-3.49
		c13.02,1.03,26.07,1.82,39.02,3.49c-0.14,1.15-0.26,2.3-0.36,3.46C325.36,378.57,312.3,377.79,299.26,376.75z M309.22,351.44
		c-0.22,6.26-0.47,12.68-0.73,19.22c-1.16-0.09-2.32-0.17-3.48-0.26c0.14-6.55,0.27-12.98,0.38-19.25
		C306.66,351.25,307.94,351.34,309.22,351.44z M326.2,352.8c0.01,6.3,0.04,12.74,0.08,19.3c-4.87-0.45-9.74-0.84-14.62-1.21
		c0.26-6.54,0.51-12.96,0.73-19.22C316.99,352.03,321.6,352.38,326.2,352.8z M329.45,372.41c-0.04-6.56-0.07-13-0.08-19.3
		c1.25,0.12,2.51,0.25,3.76,0.39c-0.1,6.29-0.19,12.72-0.27,19.27C331.73,372.64,330.59,372.52,329.45,372.41z M302.23,347.64
		c0.07-1.17,0.23-2.34,0.49-3.49c12.61,0.98,25.25,1.77,37.79,3.41c0.14,1.17,0.16,2.34,0.09,3.52
		C327.86,349.43,315.04,348.64,302.23,347.64z M314.8,215.71c0.01,6.22-0.01,12.55-0.06,18.65c-8.72,3.31-16.52,9.23-22.4,17.6
		c-1.43,2.04-2.74,4.14-3.94,6.29c1.73-20.46,2.5-40.99,2.38-61.52C298.34,202.46,307.12,209.39,314.8,215.71z M330.76,234.15
		c1.53,0.01,3.05,0.1,4.57,0.26c-3.09,5.69-2.63,13.14-2.26,19.48c-6.03-0.45-12.17,0.8-17.36,3.99c-3.33,2.05-5.92,4.88-7.78,8.16
		c-4.07-4.36-9.75-8.27-15.76-8.39C300.36,244.05,314.07,234,330.76,234.15z M350.38,299.87c-0.25,0.13-0.44,0.32-0.57,0.55
		c-1.64,1.53-3.56,2.82-5.75,3.77c-2.03,0.87-4.26,1.51-6.59,1.88c0.21-5.66,0.43-10.96,0.68-15.84c2.73-0.02,5.45-0.03,8.18-0.03
		c3.21,0,6.42,0.02,9.63,0.03C354.89,293.84,353.03,297.19,350.38,299.87z M312.73,341.64c0.1-3.13,0.2-6.19,0.29-9.21
		c1.9,0.85,3.79,1.57,5.62,2.09c2.62,0.75,5.12,1.29,7.57,1.66c-0.01,2.16-0.01,4.34-0.01,6.55
		C321.71,342.32,317.22,341.98,312.73,341.64z M329.67,306.34c0.1-5.73,0.23-11.11,0.4-16.05c1.62-0.02,3.25-0.04,4.87-0.05
		c-0.25,4.98-0.47,10.39-0.67,16.17C332.74,306.5,331.2,306.48,329.67,306.34z M325.07,266.78c0.23-2.56,0.41-5.6,0.57-9
		c0.52-0.1,1.04-0.17,1.56-0.24c-0.15,3.5-0.34,6.61-0.56,9.21C326.11,266.77,325.59,266.77,325.07,266.78z M321.81,266.85
		c-1.66,0.04-3.32,0.07-4.98,0.11c0.17-1.84,0.31-3.93,0.44-6.23c0.44-0.25,0.89-0.49,1.36-0.71c1.21-0.57,2.47-1.02,3.74-1.42
		C322.22,261.74,322.04,264.53,321.81,266.85z M313.57,267.05c-0.93,0.02-1.85,0.05-2.77,0.07c0.84-1.42,1.86-2.73,3.09-3.88
		C313.79,264.62,313.69,265.89,313.57,267.05z M309.22,270.47c11.04-0.31,22.06-0.57,33.05-0.58c3.86,0,7.71,0.01,11.57,0.03
		c1.78,3.17,2.82,6.76,3.12,10.42c-5.02-0.02-10.04-0.03-15.06-0.02c-11.36,0.02-22.74,0.21-34.14,0.45
		C307.62,277.2,308.06,273.67,309.22,270.47z M345.01,283.6c4.01,0,8.02,0.02,12.02,0.04c-0.04,1.1-0.15,2.2-0.32,3.28
		c-4.5-0.01-8.99-0.03-13.49-0.02c-11.5,0.02-23.02,0.22-34.57,0.46c-0.25-1.08-0.45-2.18-0.6-3.29
		C320.4,283.81,332.72,283.6,345.01,283.6z M309.58,290.65c5.76-0.12,11.52-0.23,17.28-0.31c-0.15,4.8-0.27,10.01-0.37,15.55
		c-6.18-1.24-11.79-4.5-14.76-10.16C310.9,294.15,310.18,292.44,309.58,290.65z M339.76,266.61c-3.29,0.01-6.58,0.05-9.87,0.1
		c0.22-2.7,0.4-5.89,0.55-9.43c8.08-0.2,16.11,2.89,21.27,9.33C347.72,266.6,343.74,266.59,339.76,266.61z M290.28,260.99
		c0.06,0,0.11,0,0.17-0.01c6.05-1.02,12.16,3.91,15.94,8.24c-3.35,8.38-2.71,18.72,1.59,26.68c-6.79,2.22-12.12,7.58-17.5,12.15
		c-4.3-7.06-6.8-14.94-6.6-22.75C284.08,277.02,286.36,268.58,290.28,260.99z M309.77,298.79c4.69,6.55,12.6,10.37,20.73,11.03
		c-1.17,7.86-1.34,15.78-1.39,23.72c-14.18-1.09-28.23-10.38-36.83-22.73C297.63,306.26,302.94,300.81,309.77,298.79z M309.88,330.9
		c-0.1,3.43-0.2,6.93-0.32,10.5c-1.34-0.1-2.67-0.2-4.01-0.3c0.06-4.31,0.11-8.52,0.15-12.62
		C307.08,329.35,308.48,330.16,309.88,330.9z M329.37,343.02c0-2.18,0.01-4.33,0.01-6.47c1.36,0.12,2.71,0.17,4.06,0.17
		c-0.05,2.21-0.09,4.44-0.13,6.69C332,343.28,330.68,343.14,329.37,343.02z M371.76,316.69c-3.74-6.98-9.67-14.55-17.51-16.51
		c5.09-6.33,7.12-14.87,5.69-22.92c2.32-8.81,15.89-7.45,21.08-2.01c0.11,0.12,0.24,0.21,0.36,0.28
		C384.15,290.1,380.99,305.16,371.76,316.69z M358.64,272.42c-0.46-1.25-1.01-2.46-1.66-3.64c-0.03-0.18-0.09-0.37-0.19-0.56
		c-4.21-7.55-12.01-12.39-20.41-13.91c-0.39-6.31-1.08-13.98,2.5-19.41c18.77,3.25,35.59,16.91,40.94,35.36
		C373.16,266.5,363.1,266.52,358.64,272.42z M284.88,192.31c0.83,0.61,1.69,1.25,2.57,1.91c0.22,24.3-0.74,48.61-3.14,72.8
		c-0.1,0.28-0.2,0.55-0.3,0.83c-0.86,0.02-1.66,0.04-2.43,0.07C284.14,242.8,285.14,217.55,284.88,192.31z M302.64,453.09
		c0.66,0.01,1.31,0.02,1.97,0.03c-0.2,3.87-0.4,7.7-0.61,11.5c-0.58,0-1.17,0.01-1.76,0.01
		C302.37,460.82,302.51,456.97,302.64,453.09z M303.82,467.91c-0.04,0.84-0.09,1.68-0.14,2.52c-0.55-0.02-1.1-0.04-1.65-0.07
		c0.03-0.81,0.06-1.63,0.09-2.44C302.7,467.92,303.26,467.92,303.82,467.91z M307.04,467.9c8.28-0.05,15.45-0.08,20.51-0.1
		c0.02,1.18,0.04,2.35,0.07,3.52c-6.06-0.2-13.14-0.46-20.72-0.76C306.94,469.68,306.99,468.78,307.04,467.9z M327.68,474.61
		c0.08,4.33,0.17,8.59,0.26,12.78c-7.27-0.72-14.56-1.26-21.85-1.81c0.21-3.85,0.42-7.77,0.64-11.74
		C314.39,474.15,321.55,474.42,327.68,474.61z M327.49,464.51c-5.02,0.02-12.1,0.05-20.28,0.1c0.2-3.78,0.4-7.59,0.6-11.44
		c6.5,0.09,12.99,0.2,19.48,0.46C327.36,457.28,327.42,460.91,327.49,464.51z M297.52,449.75c-0.3-1.16-0.25-2.36,0.08-3.49
		c12.75,0.21,25.51,0.22,38.23,1.07c0.08,1.15,0.11,2.3,0.1,3.45C323.15,449.97,310.33,449.98,297.52,449.75z M335.63,454.05
		c0.16,0.01,0.32,0.02,0.48,0.03c0.7,1.14,2.65,1.25,2.94-0.19c0.96-0.65,1.11-2.16,0.14-2.73c0.03-1.5,0-3.01-0.12-4.52
		c0.62-0.93,0.37-2.36-1.08-2.47c-0.78-0.06-1.57-0.1-2.35-0.15c0.01-8.88,0.03-17.88,0.07-26.88c0.32,0.07,0.64,0.14,0.96,0.21
		c1.75,0.4,2.77-1.6,1.93-2.62c0.37-1.51,0.53-3.07,0.47-4.62c0.77-0.82,0.76-2.3-0.68-2.63c-0.88-0.2-1.76-0.38-2.63-0.57
		c0.04-7.96,0.1-15.87,0.18-23.68c0.72,0.09,1.44,0.17,2.16,0.26c-0.01,0.12-0.02,0.23-0.02,0.34c-0.08,2.12,3.21,2.22,3.29,0.1
		c0.01-0.31,0.04-0.62,0.06-0.93c0.42-0.57,0.5-1.36,0.12-1.9c0.19-2.22,0.46-4.42,0.72-6.63c0.21-1.76-2.05-2.1-2.95-0.94
		c-1.09-0.14-2.18-0.27-3.27-0.39c0.08-6.55,0.16-12.99,0.26-19.28c1.58,0.18,3.15,0.38,4.72,0.59c0.29,0.21,0.63,0.34,0.95,0.35
		c0.98,0.03,1.55-0.71,1.69-1.6c0.36-2.21,0.32-4.45,0.02-6.66c0.31-0.85-0.01-1.87-1.2-2.03c-2-0.27-4-0.51-6-0.74
		c0.05-2.41,0.09-4.79,0.14-7.14c5.55-0.37,11.18-1.68,17.54-3.83c1.19-0.4,2.34-0.86,3.46-1.35c2.94,40.86,7.32,90.36,11.36,133.62
		c-11.42-0.42-22.62-0.74-33.35-0.85C335.63,460.86,335.63,457.47,335.63,454.05z M360.71,329.97c1.4-0.75,2.75-1.57,4.04-2.45
		c2.28,41.83,5.97,93.21,9.4,137.74c-0.64-0.02-1.27-0.05-1.91-0.07C368.11,421.41,363.65,371.16,360.71,329.97z M367.8,325.21
		c10.23-8.45,16.12-21.26,17.34-34.62c8.34,0.15,16.73,0.1,25.12,0.06c9.94,39.46,33.23,114.74,53.21,177.66
		c-0.07-0.01-0.13-0.02-0.2-0.02c-26.58-0.12-56.69-1.74-85.89-2.91C373.86,420.03,370.07,367.5,367.8,325.21z M457.8,271.31
		c0.84,3.42,0.61,7.05-0.5,10.38c-23.88-1.54-48.16-0.5-72.11-0.96c-0.17-2.04-0.43-4.08-0.82-6.09c-0.08-0.41-0.27-0.69-0.52-0.87
		c-0.22-1.17-0.48-2.33-0.78-3.48C407.89,270.77,433.04,269.67,457.8,271.31z M409.42,267.05c-0.52,0-1.04,0-1.56,0.01
		c1.74-16.48,0-33.26,0.22-49.78c0.13-9.56,0.34-19.13,0.54-28.69c0.49-0.03,0.97-0.06,1.46-0.09c-0.2,9.84-0.43,19.68-0.54,29.52
		C409.34,234.25,411.13,250.85,409.42,267.05z M344.57,190.73c-4.61,4.08-9.13,8.26-13.57,12.53c-0.02-4.41-0.04-8.61-0.06-12.47
		C335.48,190.79,340.03,190.77,344.57,190.73z M314.69,190.8c0.03,4.15,0.06,8.69,0.08,13.45c-5.63-4.6-11.37-9.11-17.24-13.49
		C303.25,190.79,308.97,190.74,314.69,190.8z M276.49,189.88c1.7,0.16,3.4,0.3,5.1,0.41c0.33,25.95-0.67,51.91-3.31,77.73
		c-2.01,0.07-3.71,0.13-5.23,0.19C275.76,242.19,276.8,216.03,276.49,189.88z M282.91,271.17c-1.02,3.44-1.72,6.93-2.05,10.44
		c-14.88,0.35-14.05,0.8-28.29-0.01c-3.45-1.48-2.98-7.91-1.19-10.42c0.01-0.02,0.02-0.04,0.03-0.06
		C267.6,272.06,266.63,271.55,282.91,271.17z M280.64,284.91c-0.04,1.1-0.03,2.2,0.01,3.3c-14.28,0.33-7.14,0.95-20.65,0.17
		c-0.29-1.04-0.47-2.07-0.45-3.15C266.96,285.52,268.75,285.18,280.64,284.91z M249.27,468.39c15.28-0.2,33.74-0.34,49.64-0.44
		c-0.03,0.77-0.05,1.53-0.08,2.3C282.19,469.58,264.08,468.85,249.27,468.39z M301.92,473.66c0.53,0.02,1.06,0.04,1.58,0.06
		c-0.21,3.93-0.43,7.81-0.64,11.62c-0.45-0.03-0.91-0.07-1.36-0.11C301.64,481.44,301.78,477.57,301.92,473.66z M302.31,495.37
		c-0.6,10.66-1.18,20.73-1.72,29.96c-0.21-0.02-0.41-0.05-0.62-0.07c0.37-9.24,0.76-19.32,1.16-29.98
		C301.52,495.31,301.92,495.34,302.31,495.37z M328.15,497.5c0.24,11.27,0.48,21.82,0.7,31.35c-8.32-1.21-16.68-2.15-25.03-3.14
		c0.54-9.27,1.11-19.39,1.71-30.1C313.08,496.17,320.63,496.73,328.15,497.5z M298.62,558.28c0.27-6.5,0.6-14.25,0.95-22.98
		c0.14,0.02,0.28,0.03,0.43,0.05C299.48,544.07,299.01,551.81,298.62,558.28z M332.8,558.95c-0.13-5.67-0.28-12.2-0.43-19.43
		c0.11,0.02,0.22,0.04,0.32,0.05C332.72,546.77,332.76,553.28,332.8,558.95z M336.68,536.92c-12.87-2.2-25.86-3.53-38.82-5.11
		c-0.15-1.11-0.11-2.38,0.24-3.5c13.1,1.59,26.24,2.94,39.23,5.21C337.27,534.69,337.01,535.81,336.68,536.92z M332.63,529.43
		c-0.17-0.03-0.34-0.05-0.51-0.08c-0.23-9.56-0.48-20.16-0.73-31.5c0.37,0.04,0.73,0.08,1.1,0.12
		C332.52,509.29,332.57,519.87,332.63,529.43z M336.79,495.19c-12.84-1.61-25.77-2.39-38.68-3.42c-0.2-1.23-0.1-2.37,0.23-3.51
		c12.93,1.02,25.88,1.81,38.74,3.46C337.05,492.88,336.95,494.04,336.79,495.19z M331.17,487.73c-0.23-10.88-0.45-22.28-0.66-33.97
		c0.64,0.03,1.28,0.07,1.92,0.1c-0.01,11.7,0,23.11,0.03,34C332.03,487.82,331.6,487.78,331.17,487.73z M340.83,471.38
		c-1.44,0-3.2-0.02-5.19-0.06c0-1.27,0-2.55,0-3.82c10.82,0.1,22.13,0.43,33.66,0.85c0.09,0.97,0.18,1.95,0.27,2.91
		C359.99,471.32,350.41,471.37,340.83,471.38z M372.8,471.25c-0.09-0.92-0.17-1.84-0.26-2.77c0.62,0.02,1.23,0.05,1.85,0.07
		c0.07,0.9,0.14,1.8,0.21,2.69C374,471.24,373.4,471.24,372.8,471.25z M377.63,468.68c17.76,0.71,35.84,1.59,53.26,2.19
		c-17.69,0.07-35.38,0.22-53.07,0.34C377.76,470.37,377.7,469.52,377.63,468.68z"/>
</g>
</svg>
