<?xml version="1.0" encoding="utf-8"?>
<!-- Generator: Adobe Illustrator 24.2.3, SVG Export Plug-In . SVG Version: 6.00 Build 0)  -->
<svg version="1.1" id="Layer_1" xmlns="http://www.w3.org/2000/svg" xmlns:xlink="http://www.w3.org/1999/xlink" x="0px" y="0px"
	 viewBox="0 0 700 700" style="enable-background:new 0 0 700 700;" xml:space="preserve">
<style type="text/css">
	.st0{fill:#F9834E;}
</style>
<g>
	<path className="st0" d="M336.08,573.35c-0.52-1.61-2.13-2.69-4.1-2.74c-1.22-0.03-2.38,0.35-3.18,1.07
		c-4.06,3.65-7.87,7.66-11.56,11.52c-4.02,4.22-8.18,8.58-12.66,12.48c-1.35-2.7-2.62-5.49-3.85-8.19c-1.18-2.6-2.39-5.27-3.69-7.88
		c-0.79-1.59-2.22-2.53-3.93-2.57c-1.75-0.05-3.47,0.85-4.38,2.27c-0.82,1.29-0.87,2.82-0.14,4.29c1.3,2.6,2.51,5.28,3.67,7.87
		c2.02,4.47,4.11,9.1,6.69,13.44c1.55,2.59,4.8,3.33,7.15,1.55c6.38-4.83,11.93-10.66,17.3-16.3c1.97-2.06,3.99-4.19,6.05-6.25
		c1.23,4.79,2.24,9.7,3.22,14.45c0.43,2.11,0.87,4.23,1.33,6.33c0.46,2.12,2.45,3.81,4.54,3.87c0.74,0.02,1.44-0.16,2.1-0.53
		c4.7-2.68,8.09-6.48,11.81-10.65l0.19-0.21c1.68-1.87,5.6-6.26,7.54-6.21c0.21,0.01,0.35,0.07,0.48,0.21
		c0.27,0.29,0.7,1.15,0.59,3.65l-0.16,3.41c-0.09,1.7-0.17,3.41-0.24,5.12c-0.05,1.3,0.47,2.63,1.42,3.64
		c1.43,1.53,3.54,1.93,5.27,0.94c9.65-5.48,17.6-13.25,23.6-23.09c0.91-1.49,0.97-3.21,0.16-4.72c-0.85-1.57-2.54-2.65-4.2-2.7
		c-1.48-0.04-2.77,0.71-3.62,2.1c-3.71,6.07-7.91,11.01-12.79,15.03c0.04-4.69-0.58-13.55-7.91-14.18
		c-7.75-0.67-12.67,5.15-17.39,10.76c-1.23,1.46-2.49,2.97-3.79,4.32C340.08,588.2,338.45,580.69,336.08,573.35z"/>
	<path className="st0" d="M426.07,381.26c-2.09-0.06-4.47,1.2-4.75,4.11c-0.14,1.4-0.22,2.92-0.28,4.49c-0.18,4.25-0.38,8.65-2.01,11.95
		c-0.99,1.99-2.14,2.94-3.53,2.9c-2.95-0.08-6.5-4.45-8.21-6.56l-0.23-0.28c-1.22-1.5-2.4-3.04-3.58-4.58
		c-3.32-4.32-6.75-8.8-11.07-12.37c-0.67-0.56-1.55-0.87-2.53-0.89c-1.91-0.05-4.11,1-4.61,3.11l-0.17,0.74
		c-3.19,14.17-5.19,14.69-5.6,14.76c-2.07-0.47-4.32-2.76-5.96-4.43l-0.98-0.99c-4.15-4.13-8.44-8.4-13.16-12.13
		c-0.72-0.56-1.59-0.87-2.52-0.9c-2.03-0.06-3.92,1.2-4.6,3.04l-0.23,0.62c-1.54,4.22-5.14,14.1-8.48,14.01
		c-1.33-0.03-2.75-1.77-4.1-5.02c-0.48-1.15-0.94-2.32-1.4-3.5c-2.05-5.23-4.18-10.64-8.19-14.8c-0.94-0.98-2.25-1.57-3.6-1.6
		c-1.56-0.04-2.93,0.67-3.77,1.95c-0.07,0.11-0.23,0.36-0.44,0.72c-6.55,10.93-8.63,11.79-9.16,11.78c0,0,0,0-0.01,0
		c-3.12-2.54-5.59-5.9-7.97-9.14l-1.27-1.73c-0.76-1.02-2.13-1.68-3.57-1.72c-1.23-0.03-2.33,0.38-3.08,1.15
		c-3.53,3.62-6.36,5.35-8.66,5.28c-3.95-0.11-6.38-5.9-8.92-12.88c-0.6-1.62-2.15-2.66-4.07-2.72c-1.66-0.05-3.19,0.7-4.01,1.96
		c-1.07,1.66-6.13,8.13-8.58,8.06c-0.96-0.02-1.31-1.55-1.43-2.84c-0.38-3.19-0.27-6.4,0.34-9.59c0.15-1.24-0.21-2.44-1.03-3.38
		c-1.6-1.87-4.72-2.23-6.61-0.64c-2.31,1.94-3.63,2.32-4.34,2.31c-2.62-0.07-2.45-6.71-2.33-11.56c0.05-2.01,0.09-3.91-0.03-5.34
		c-0.21-2.54-2.34-3.74-4.36-3.79c-1.17-0.03-2.3,0.3-3.18,0.93c-1.65,1.19-11.42,6.94-15.95,6.82c-1.52-0.04-1.78-0.71-1.85-1.44
		c-0.35-4.22-0.17-7.43,0.56-9.81c1.42-1.76,1.42-4-0.03-5.74l-0.22-0.28c-0.86-1.04-2.04-1.63-3.32-1.67
		c-1.91-0.05-3.76,1.13-4.62,2.95c-3.55,7.54-3.05,18.81,3.34,23.57c4.51,3.36,11.55,2.52,20.52-2.43
		c-0.07,5.93,0.01,11.98,3.61,16.68c2.24,2.95,5.68,3.49,10.08,1.49c0.4,6.9,2.92,11.27,7.53,13c4.77,1.8,9.73-0.01,14.61-5.36
		c3.94,7.82,8.46,11.69,13.76,11.84c3.53,0.1,7.39-1.55,11.49-4.89c4.2,5.86,8.9,11.12,14.53,10.4c5.49-0.7,9.35-5.4,12.66-10.65
		c0.97,1.99,1.81,4.15,2.63,6.25c2.87,7.36,5.84,14.97,14.66,16.35c7.63,1.17,12.01-7.48,14.9-15.5c0.41,0.45,0.84,0.91,1.27,1.38
		c5.36,5.81,12.04,13.04,18.28,13.21h0.4c7.97-0.17,11.41-7.23,13.41-13.91c1.09,1.39,2.17,2.86,3.3,4.4
		c5.59,7.62,11.37,15.5,20.62,15.75l0.48,0.01c12.04-0.01,13.2-15.48,13.89-24.72c0.09-1.18,0.17-2.27,0.26-3.23
		c0.13-1.32-0.22-2.49-1.01-3.39C428.75,381.87,427.47,381.3,426.07,381.26z"/>
	<path className="st0" d="M513.9,148.3c-2.76-1.5-6.18,0.15-7.02,3.05c-7.28,5.64-67.89,41.32-93.91,56.65l-5.22,3.07
		c-0.11-0.55-0.22-1.1-0.34-1.61c-0.79-3.39-2.23-6.83-4.45-10.56c-1-1.37-2.27-3.01-3.7-4.85c-7.15-9.23-17.96-23.19-18.3-33.71
		c-0.04-1.07-0.49-2.18-1.27-3.12l-0.26-0.21c-1.18-0.58-2.37-1.14-3.58-1.69l-0.2-0.09l-0.22,0.02c-0.87,0.1-2.09,0.55-2.97,2.12
		c-0.26,0.47-0.66,1.21-1.15,2.13c-1.87,3.5-5.36,10.01-8.51,14.56c-4.78,8.4-11.7,21.05-16.57,33.86
		c-2.54,5.97-7.52,27.78-5.95,33.99c-3.52,1.22-16.22,6.04-18.36,6.98c-6.48-0.81-20.27-2.02-27.86-2.59
		c-6.45-19.06-14.55-41.85-19.6-60.22c7.6-2.81,12.87-5.18,20.18-8.35c3.54-1.54,7.09-3.08,10.65-4.57c0.6-0.25,1.1-0.6,1.49-1.04
		c4.47,4.27,9.17,8.83,13.49,13.7l0.7,0.81c1.46,1.7,2.52,2.92,4.97,3.77c1.81,0.63,3.65,0.09,4.88-1.38c0,0,10.06-9.02,8.68-10.32
		c-5.71-5.35-11.44-10.82-16.36-15.55c7.35-4.57,13.37-10.99,19.19-17.21l1.46-1.55c5.65,3.53,10.61,6.89,15.13,10.25
		c0.32,0.23,0.66,0.42,1.07,0.57c0.26,0.21,0.57,0.45,0.99,0.61c1.85,0.74,10.84-9.82,10.78-11.81c0.6-1.65-0.03-3.74-1.49-4.82
		c-1-0.74-2.18-0.97-3.34-0.7c-4.36-3.07-9.13-5.67-13.34-7.84c3.14-5.71,6.6-11.34,9.95-16.8c1.1-1.79,2.2-3.59,3.3-5.39
		c3.68,0.32,7.71,0.99,12.64,2.08c0.73,1.41,6.37,1.91,7.23,0.86c2-2.45,3.97-11.42,3.57-12.59c-0.39-1.11-1.3-1.91-2.59-2.25
		c-4.15-1.11-8.73-2.21-14.34-3.44c0.99-2.54,2.14-5.67,2.92-8.94c5.12,0.41,10.51,0.32,16.09-0.24c1.63-0.16,4.75-4.27,4.82-5.36
		c0,0-0.62-6.31-2.21-7.06c-0.64-0.61-1.45-0.96-2.44-1.04c-8.32-0.69-16.61-1.44-24.89-2.19c-20.73-1.88-134.29-7.77-136.77-7.29
		c-1.27-2.3-2.54-4.59-3.86-6.85c-0.09-1.55-0.95-3.32-2.73-3.76c-2.71-0.67-5.28-0.54-7.65,0.41c-1.29-0.12-2.65,0.4-3.6,1.35
		c-0.8,0.8-1.24,1.84-1.24,2.92c-0.31,1.28,0.08,2.72,1.03,3.8c0.72,2.37,1.23,4.8,1.71,7.3c-0.03,0.03-0.07,0.07-0.1,0.11
		c-11.25,13.19-22.51,26.77-33.41,39.92c-21.34,25.74-43.42,52.36-66.45,77.27c-0.84,0.9-1.21,1.97-1.04,3.04
		c-0.03,0.5,0.01,0.97,0.14,1.43c0.83,2.98,2.03,4.94,4.14,6.77c1.61,1.42,4.7,0.92,5.94-0.86l0.75-1.06
		c2.88-4.12,5.86-8.36,9.63-11.69c1.62,1.57,3.32,2.69,5.05,3.37c-3.81,6-6.86,11.62-9.31,17.14c-0.66,1.51-0.44,3.04,0.64,4.23
		c1.4,1.63,11.67,3.47,11.67,2.16c5-6.4,6.69-11.91,12.73-17.47c5.89,1.95,12.01,3.32,17.95,4.64c3.4,0.76,6.91,1.55,10.35,2.43
		c-1.73,5.18-3.3,9.41-4.91,13.25c-0.48,1.16-0.41,2.41,0.2,3.51c0.65,1.18,17.52,4.1,17.94,1.57c0.96-5.49,2.07-11.19,3.31-16.95
		l3.47,0.16c2.9,0.14,5.79,0.28,8.66,0.36c7.42,0.2,16.14,0.08,24.85-2.3l0.23,2.83c0.45,5.44,0.9,10.87,1.37,16.26
		c0.15,1.8,1.86,3.43,3.74,3.57l7.95,0.59l0.21,0.01c1.13,0.03,2.15-0.35,2.93-1.09c1.58,0.28,3.24-0.29,4.18-1.41
		c0.52-0.62,1.07-1.7,0.74-3.29c-1.39-6.78-2.81-14-4.32-22.05c0.01,0,0.01,0,0.02,0l0.17-0.05c0.18,0.43,3.86-1.07,4.06-0.6
		c2.99,6.82,13.95,44.74,17.3,52.69l1.57,3.73c-1.61,0.26-3.33,0.52-5.14,0.79c-16.14,2.45-38.25,5.8-47.15,15.5
		c-0.85,0.93-4.94,3.28-6.02,4.1c-6.17,4.72-33.55,35.63-26.47,48.92c-8.41,15.78-13.05,30.57-14.6,46.48
		c-0.12,1.27,0.26,2.48,1.09,3.42c0.68,0.76,1.59,1.29,2.59,1.51c-0.82,1.31-1.66,2.61-2.5,3.91c-4.21,6.53-8.56,13.28-10.3,20.73
		c-1.51,6.46-3.06,13.14-3.51,19.84c-0.42,6.58,1.4,11.56,4.69,13.03c-0.97,3.45-2.08,6.92-3.15,10.28
		c-4.57,14.3-9.3,29.07-3.9,44.81c0.52,1.52,1.93,2.37,3.37,2.64c-1.89,16.83-3.08,36.17,5.14,54.04c0.72,1.55,2.4,2.63,4.2,2.68
		c0.62,0.02,1.21-0.09,1.74-0.3c17.58,59.28,62.64,100.49,117.79,107.66c5.21,0.68,10.39,1.09,15.38,1.23
		c23.86,0.65,44.54-4.82,61.46-16.25c17.33-11.73,31.79-28.42,45.48-52.52c1.02-0.12,1.99-0.53,2.6-1.09
		c22.95-11.96,27.94-45.97,31.57-70.81l0.38-2.57c0.4,0.11,0.82,0.17,1.25,0.19c1.7,0.05,3.15-0.7,3.89-1.99
		c8.04-14.08,11.08-32.47,8.6-51.91c2.76,0.31,4.67-1.91,5.06-4.16c3.04-17.45-2.56-33.86-8.62-47.71c2.08-0.37,3.61-1.95,3.88-4.13
		c1.96-16.02-3.64-30.34-9.6-42.34c7.25-0.03,17.91,2.97,24.42,1.11c1.54-0.44,2.77-1.45,3.38-2.78c0.54-1.19,0.52-2.53-0.06-3.78
		c-1.83-3.95-7.38-12.34-9.36-17.04c-7.38-17.57-16.52-39.31-30.75-50.6c8.69-3.07,14.76-10.28,20.63-17.26
		c6.05-7.19,12.31-14.63,21.46-17.68c1.63-0.54,2.62-1.79,2.74-3.45c0.15-2.05-1.11-4.26-2.91-5.15
		c-10.38-5.11-27.15-10.99-44.04-12.68c2.39-1.34,4.78-2.66,7.19-3.94c18.82-10.1,38.75-21.41,57.1-35.77
		c0.75,0.81,1.87,1.28,3.14,1.32c1.58,0.04,3.03-0.57,4.01-1.64c7.35,9.39,14.34,19.29,21.11,28.87
		c8.98,12.73,18.27,25.9,28.55,38.02c1.58,1.86,4.44,1.99,6.55,0.42c3.13-2.32,6.61-4.17,9.98-5.96c2.41-1.28,4.86-2.65,7.25-4.15
		c-0.02-0.7,0-1.41,0.03-2.12C577.23,226.42,525.36,154.52,513.9,148.3z M328.01,179.33l-1.5,1.77c-2.76-2.11-5.9-5.85-8.69-9.17
		c-1.88-2.26-3.67-4.38-5.14-5.77c-8.91-8.38-18.36-17.89-28.91-29.07c-1.14-1.22-2.31-2.47-3.5-3.75
		c4.87,4.7,9.73,9.41,14.58,14.11C305.67,157.95,316.86,168.79,328.01,179.33z M335.26,141.27c-5.44,5.84-11.07,11.89-17.98,15.66
		c-0.12,0.07-0.23,0.14-0.35,0.22c-3.42-3.31-6.84-6.63-10.26-9.95c-7.06-6.86-14.13-13.72-21.24-20.53
		c-4.55-4.35-9.34-8.55-14.42-13c-8.83-7.74-17.93-15.71-25.51-24.45c13.83,8.39,28.08,16.39,44.86,25.6
		c5.44,2.99,10.97,5.92,16.51,8.86c9.79,5.2,19.91,10.57,29.6,16.29L335.26,141.27z M356.46,109.44
		c-3.45,5.66-7.02,11.51-10.3,17.44c-1.46-0.74-2.9-1.49-4.34-2.25c-8.23-4.36-16.46-9.08-24.41-13.64
		c-5.6-3.21-11.4-6.53-17.16-9.71c-7.47-4.12-15.93-7.53-24.11-10.82c-6.54-2.63-13.26-5.33-19.59-8.44
		c17.06,2.56,34.69,5.35,52.46,8.33c5.65,0.95,11.34,1.85,17.05,2.76c11.99,1.9,24.38,3.87,36.47,6.27
		C360.54,102.75,358.51,106.1,356.46,109.44z M228.07,73.55c-0.01,0.02-0.02,0.05-0.05,0.07c-0.69-1.64-2.36-2.66-3.94-2.76
		c-0.62-2.26-1.08-4.61-1.53-6.89c-0.08-0.38-0.15-0.76-0.23-1.15C224.33,66.4,226.26,69.99,228.07,73.55z M142.75,176.8
		c-1.67-0.21-3.78-2.22-5.83-5.52c17.46-19.73,34.57-40.34,51.12-60.29c2.89-3.48,5.81-7,8.75-10.54
		c-5.03,7.45-9.8,15.03-14.49,22.48c-3.26,5.18-6.63,10.54-10.03,15.75c-4.95,7.59-10.56,14.94-15.98,22.05
		c-4.07,5.35-8.29,10.87-12.2,16.47C143.68,177,143.24,176.87,142.75,176.8z M199.19,144.5c-3.37,9.49-6.1,19.32-8.74,28.83
		c-1.48,5.36-3.03,10.9-4.66,16.32c-3.33-0.85-6.73-1.61-10.03-2.34c-7.32-1.62-14.87-3.31-21.96-6.09
		c-0.49-0.19-0.99-0.3-1.48-0.31c-0.25-0.01-0.49,0.01-0.73,0.05c3.96-5.67,8.18-11.18,12.31-16.57
		c5.13-6.71,10.44-13.64,15.18-20.76c4.07-6.13,8.06-12.45,11.91-18.57c7.8-12.38,15.84-25.15,25.03-36.89
		c-3.21,18.02-9.55,35.85-15.69,53.13L199.19,144.5z M213.48,191.26c-2.91-0.08-5.82-0.24-8.73-0.4c-1.03-0.06-2.05-0.11-3.08-0.17
		c3.05-13.16,6.6-26.42,10.02-39.26l1.83-6.86c2.88-10.83,5.33-20.72,7.49-30.25c0.85-3.74,1.5-7.47,2.1-11.24
		c7.57,28.06,10.57,57.64,12.96,85.65C228.2,191.28,220.24,191.44,213.48,191.26z M236.71,68.99c-0.05-0.04-0.09-0.09-0.14-0.13
		c1.32-0.08,110.43,5.93,129.41,7.7l2.64,0.24c-0.31,0.41-0.54,0.9-0.69,1.43c-0.3,1.1-0.17,2.3,0.35,3.27
		c-0.75,3.5-2.05,6.9-3.26,9.88c-11.51-2.28-23.28-4.19-34.68-6.03c-5.34-0.87-10.67-1.73-15.98-2.63
		c-24.87-4.23-50.23-8.2-75.41-11.79C238.19,70.3,237.43,69.66,236.71,68.99z M252.36,184.34c-0.03,0.01-0.06,0.01-0.1,0.02
		c-3.49-19.11-6.73-38.58-9.87-57.42c-1.76-10.56-3.51-21.11-5.32-31.65c13.17,16.98,27.67,33.88,43.15,50.28
		c6.24,6.6,12.9,13.31,20.31,20.48c-3.29,1.39-6.55,2.82-9.82,4.26C278.43,175.68,265.72,181.26,252.36,184.34z M301.81,256.27
		c2.32,0.17,4.83,0.35,6.66,0.5l-2.32,1.41l-0.27,0.06l0,0.44l-1.2,0.6c-1.8,0.9-3.58,1.79-5.36,2.66l-2.01-6
		C298.41,256.03,300.04,256.15,301.81,256.27z M227.6,278.79c0.45-4.76,3.26-8.52,8.35-11.15c8.65-4.49,24.59-7.08,37.4-9.16
		c2.59-0.42,5.03-0.82,7.24-1.2c0.64,1.6,3.1,8.03,3.71,9.62l0.24,0.59c-1.45,0.33-11.82,5.12-12.03,6.03
		c-2.48-1.33-5.59,0.11-6.51,2.88c-0.65,1.93,0,3.88,1.68,5.09l0.53,0.38c15.17,10.87,40.55,29.07,62.34,29.66
		c2.91,0.08,5.72-0.15,8.35-0.7c-0.8,3.72-1.24,7.72-1.68,11.59l-0.04,0.37c-0.17,1.45-0.35,2.94-0.55,4.44l-0.22,1.78
		c-28.15-4.06-50.24-12.4-65.65-24.8c-15.45-12.42-24.04-22.51-22.99-27.02c0.31-1.31,1.49-2.17,3.61-2.63
		c2.78-0.61,3.83-3,3.63-5.09c-0.27-2.84-2.62-4.68-5.35-4.08c-6.46,1.41-10.3,4.23-11.42,8.37c-2.85,10.61,13.5,26.21,16.8,29.23
		c20.73,18.93,47.06,30.48,80.49,35.3c-0.11,2.69-0.03,5.09,0.23,7.28c-5.83-0.23-11.54-2.45-17.04-4.61
		c-2.63-1.03-23.32-7.57-28.37-9.25c-15.88-5.31-31.16-10.86-43.41-20.53C238.29,304.35,226.55,289.78,227.6,278.79z M456.76,391.21
		c-0.31-0.05-0.62-0.1-0.89-0.15c-0.18-0.06-0.33-0.08-0.54-0.11c-3.23-2.61-6.55-5.32-8.9-8.81c-0.76-1.13-1.85-1.77-3.1-1.8
		c-1.58-0.04-3.18,0.91-3.99,2.38c-0.76,1.38-0.67,2.95,0.24,4.31c2.83,4.21,6.72,7.4,10.51,10.49
		c6.47,13.74,12.61,28.44,11.73,44.14c-2.49-3.35-4.56-7.03-6.56-10.64c-2.12-3.81-4.32-7.75-7.01-11.3
		c-0.97-1.27-2.11-1.56-2.9-1.59c-1.57-0.04-3.15,0.96-3.94,2.5c-0.77,1.51-0.62,3.16,0.42,4.52c2.63,3.46,4.78,7.34,6.88,11.09
		c1.99,3.59,4.05,7.26,6.54,10.65c-0.03,0.42-0.04,0.84,0.04,1.27c3.18,16.86,1.8,33.71-3.78,46.43c-0.38-0.32-0.8-0.58-1.29-0.8
		c-1.11-1.38-2.24-2.76-3.36-4.14c-4.42-5.41-8.99-11.01-12.95-16.88c-0.71-1.04-2.07-1.71-3.56-1.75c-1.25-0.03-2.4,0.39-3.12,1.16
		l-1.93,2.04c-3.46,3.68-11.35,10.77-11.46,10.96c-2.68,2.02-5.93,1.43-7.69-1.44c-3.2-5.2-11.56-0.67-8.34,4.57
		c2.32,3.77,7.09,9.09,13.14,8.91c2.23-0.06,3.99-1.84,5.82-2.99c1.28-0.58,2.54-1.28,3.73-2.23c0.51-0.41,0.87-0.85,1.15-1.31
		c2.85-2.35,5.5-4.98,8.11-7.72c3.24,4.4,6.73,8.7,10.1,12.86c1.08,1.33,2.16,2.66,3.25,4.01c0.05,0.06,0.09,0.11,0.14,0.16
		c-0.4,2.54-0.78,5.28-1.18,8.16c-1.02,7.33-2.19,15.63-3.94,23.77c-0.15,0.12-0.31,0.26-0.46,0.41c-0.87,0.9-1.73,1.8-2.61,2.7
		c-2.11-7.6-4.59-15.57-8.79-23.01c-0.61-1.09-1.91-1.79-3.38-1.83c-1.01-0.03-1.94,0.27-2.59,0.85c-3.41,2.96-6.38,6.46-9.27,9.83
		c-1.56,1.83-3.18,3.73-4.84,5.51c-1.53,1.64-2.63,2.46-3.27,2.44c-0.88-0.02-1.66-2.17-2.25-4.05c-0.59-1.9-1.05-3.89-1.51-5.8
		c-0.45-1.93-0.92-3.93-1.52-5.87c-0.51-1.67-1.8-2.69-3.46-2.74c-1.45-0.04-2.9,0.66-3.79,1.84c-0.84,1.1-1.06,2.46-0.64,3.83
		c0.24,0.77,0.52,2.12,0.84,3.68c1.49,7.17,3.98,19.16,10.42,19.33c0.46,0.02,0.94-0.03,1.42-0.15c6.74-1.58,11.39-7.48,15.9-13.2
		c1.15-1.46,2.26-2.86,3.38-4.18c2.79,6.25,4.59,13,6.33,19.55l0.97,3.6c0.44,1.64,1.77,2.64,3.54,2.69
		c0.43,0.01,0.86-0.03,1.28-0.13c-3.58,9.89-8.17,16.92-13.96,21.41c-0.38-1.6-0.79-3.18-1.2-4.77c-1.11-4.33-2.25-8.81-2.89-13.32
		c-0.34-2.45-2.53-3.78-4.52-3.84c-1.14-0.03-2.24,0.35-3.07,1.06c-2.63,2.24-5.07,4.73-7.44,7.13c-2.59,2.62-5.24,5.34-8.12,7.69
		l-0.07-0.3c-1.94-8.55-3.76-16.63-10.52-23.31c-2.16-2.14-5.32-2.01-7.28,0.28c-1.61,1.88-3.17,3.78-4.74,5.69
		c-3.91,4.79-7.62,9.34-12.13,13.29c-1.34-2.87-2.38-5.94-3.38-8.91c-1.11-3.28-2.26-6.67-3.81-9.85c-0.78-1.6-2.2-2.54-3.9-2.59
		c-1.74-0.05-3.46,0.84-4.38,2.27c-0.83,1.29-0.89,2.82-0.16,4.3c1.63,3.31,2.86,6.8,4.06,10.17c1.74,4.9,3.54,9.95,6.54,14.58
		c0.7,1.06,1.84,1.67,3.22,1.71c1.14,0.03,2.39-0.35,3.35-1.01c7.15-4.97,12.53-11.57,17.74-17.96l1.25-1.52
		c2.82,4.58,3.95,9.77,5.15,15.25c0.47,2.15,0.96,4.37,1.55,6.56c0.59,2.15,2.53,3.8,4.52,3.86c0.74,0.02,1.44-0.17,2.11-0.56
		c5.72-3.38,10.34-7.97,14.81-12.41c0.55-0.55,1.11-1.1,1.66-1.64c0.4,1.65,0.82,3.31,1.24,4.96c0.59,2.33,1.19,4.67,1.71,7.01
		c-25.67,46.29-59.4,69.19-100.27,68.08c-3.63-0.1-7.35-0.39-11.08-0.88c-12.05-1.56-23.73-4.71-34.75-9.37
		c2.53-2.03,4.04-5.01,5.21-7.92c2.73,4.6,6.59,9.66,12.51,11.72c4.04,1.41,8,0.31,11.65-3.24c1.74,3.06,4.97,4.67,9.62,4.79
		c8.55,0.23,20.77-4.83,28.63-9.25c1.56-0.88,2.25-2.37,1.85-4c-0.49-1.94-2.35-3.46-4.35-3.51c-0.78-0.02-1.56,0.18-2.28,0.58
		c-4.88,2.75-9.85,5.05-14.78,6.86c-2.7,0.99-5.45,1.58-8.42,1.81c-1.35,0.11-2.24-0.19-2.78-0.9c-1.37-1.78-0.38-5.95,0.16-8.19
		l0.05-0.22c0.36-1.52-0.13-2.57-0.61-3.19c-0.75-0.97-2-1.57-3.36-1.61c-1.75-0.05-3.24,0.81-4.06,2.42
		c-1.77,3.48-4.74,9.3-8.51,9.2c-1.03-0.03-2.12-0.49-3.23-1.38c-3.53-2.82-5.93-7.71-8.05-12.02l-0.79-1.6
		c-0.77-1.54-2.28-2.53-3.94-2.58c-1.63-0.05-3.04,0.85-3.78,2.4c-1.22,2.58-2.15,5.26-3.06,7.86l-0.63,1.82
		c-1.08,3.05-2.77,4.5-5.16,4.43c-3.97-0.11-8.94-4.2-11.91-6.65c-0.49-0.4-0.92-0.76-1.29-1.05c-1.16-0.94-2.57-1.17-3.89-0.71
		c-9.89-7.1-18.85-15.59-26.67-25.29c2.46,0.82,4.88-0.57,5.6-3.19c0.64-2.35,1.11-4.82,1.48-7.76c4.4,7.69,10.24,16.96,17.9,18.19
		c4.63,0.76,8.28-2.57,11.3-9.93c1.12-4.59,2.55-9.1,4.06-13.61c-0.02,0-0.02-0.01-0.04-0.02c0.18-0.8,0.35-1.57,0.51-2.29
		c0.33-1.52,0.62-2.82,0.87-3.77c0.41-1.53-0.06-2.58-0.51-3.2c-0.71-0.95-1.93-1.53-3.28-1.57c-2.18-0.06-3.93,1.23-4.47,3.26
		c-1.14,4.27-2.44,9.1-3.96,13.76c-0.28,0.83-0.53,1.68-0.77,2.51c-0.79,2.69-1.61,5.47-2.84,5.43c-0.49-0.01-1.41-0.4-3.01-2.18
		c-3.7-4.11-6.69-8.91-9.59-13.53c-1.84-2.96-3.74-6-5.81-8.86c-0.75-1.03-1.96-1.65-3.32-1.69c-1.95-0.05-4.03,1.14-4.26,3.53
		c-0.13,1.54-0.25,3.06-0.36,4.58c-0.25,3.42-0.49,6.68-0.99,9.96c-6.16-4.45-11.59-12.77-16.17-24.78
		c-0.7-1.85-2.48-2.87-4.38-2.58c-2.18-5.38-4.07-10.86-5.62-16.32c3.9-1.87,6.47-5.82,8.55-9.67c1.22,2.11,2.51,4.19,3.78,6.21
		c2.18,3.51,4.44,7.15,6.32,10.93c1.11,2.24,4.13,3.37,6.24,2.2l2.58-1.42c5.38-2.96,10.49-5.77,15.37-9.2
		c1.96,9.72,6.69,17.05,14.07,21.81c0.76,0.49,1.72,0.78,2.69,0.8c1.69,0.05,3.13-0.7,3.83-2c2.54-4.66,4.96-9.08,8.96-12.45
		c3.54,5.22,7.99,9.65,13.96,13.87c0.75,0.54,1.62,0.83,2.52,0.85c1.87,0.05,3.64-1.07,4.46-2.81l7.49-6.39
		c0.03-0.01,0.05-0.03,0.08-0.05c2.43,5.52,5.76,10.55,11.5,11.96c11.09,2.72,17.78-11.11,24.39-17.23
		c4.51-4.16-2.03-11.07-6.54-6.9c-4.71,4.36-8.64,12.95-15.06,14.87c-4.29,1.28-8.96-15.31-10.14-18.29
		c-2.25-5.69-10.57-1.06-8.34,4.57c0.3,0.76,0.59,1.56,0.89,2.39c-4.45,1.45-7.55,3.38-9.89,6.33c-4.25-3.54-7.27-7.21-9.72-11.8
		c-1.21-2.25-4.16-3.33-6.23-2.18c-6.62,3.68-10.54,8.84-13.45,13.55c-4.61-4.68-7.03-11.21-7.19-19.41c-0.06-2.68-2.2-5-4.68-5.07
		c-1.07-0.03-2.11,0.38-2.99,1.18c-5.83,5.27-12.63,9.1-18.72,12.46c-1.3-2.27-2.69-4.5-4.04-6.67c-2.8-4.51-5.69-9.16-7.78-14.15
		c-0.66-1.59-2.31-2.65-4.19-2.7c-1.64-0.04-3.09,0.7-3.88,1.98c-0.52,0.85-1.17,2.23-1.91,3.83c-1.65,3.54-4.11,8.78-6.24,9.96
		c-1.57-1.26-3.77-1.51-5.29-0.56c-4.57-14.57-3.26-29.97-1.35-45.76c0.13-0.14,0.25-0.29,0.37-0.46c1.03-1.51,1.98-3.06,2.93-4.6
		c1.36-2.21,2.66-4.32,4.16-6.3c0.81,2.63,1.43,5.36,2.03,8.01c0.87,3.87,1.78,7.87,3.31,11.65c0.63,1.57,2.34,2.66,4.26,2.72
		c1.65,0.05,3.1-0.71,3.84-2.01c2.27-4.06,5.11-7.82,7.91-11.45c0.86,7.22,2.42,16.05,9.33,18.65c0.94,0.35,1.91,0.54,2.87,0.57
		c6.03,0.17,11.24-6.04,15.82-11.51c0.6-0.71,1.18-1.41,1.76-2.08c0.63,6.91,1.65,14.41,9.43,16.44c0.89,0.23,1.79,0.36,2.69,0.38
		c10.11,0.28,18.01-12.75,22.25-19.74l0.22-0.36c0.91-1.5,0.96-3.22,0.14-4.74c-0.86-1.58-2.51-2.64-4.19-2.68
		c-1.48-0.04-2.77,0.71-3.62,2.1c-1.62,2.67-11.85,16.34-15.45,16.24c-0.2-0.06-0.58-0.01-0.84-0.86c-0.9-2.81-1.15-5.72-1.42-8.8
		c-0.23-2.73-0.47-5.55-1.22-8.27c-0.57-2.14-2.52-3.79-4.5-3.84c-0.73-0.02-1.44,0.16-2.11,0.54c-3.33,1.9-6.07,5.29-8.71,8.58
		c-3.13,3.88-6.09,7.55-9.74,8.83c-1.64-0.73-3.69-13.59-4.37-17.82c-0.35-2.2-0.61-3.79-0.78-4.43c-0.58-2.12-2.56-3.71-4.71-3.77
		c-1.5-0.04-2.81,0.66-3.69,1.98c-1.91,2.86-4.05,5.64-6.11,8.31c-1.08,1.4-2.17,2.81-3.22,4.23c-0.2-0.84-0.39-1.68-0.57-2.52
		c-1.1-4.95-2.25-10.07-4.82-14.83c-1.4-2.59-4.92-3.39-7.18-1.57c-4.51,3.65-7.36,8.17-10.37,12.94l-0.65,1.03
		c-0.31,0.05-0.62,0.13-0.9,0.23c-2.05-11.7,1.99-23.69,5.89-35.29c0.86-2.55,1.72-5.1,2.51-7.63c0.38-0.29,0.71-0.62,0.99-1.02
		c1.81,1.05,3.67,1.6,5.54,1.66c7.18,0.2,13.41-6.92,18.93-13.42c-0.62,6.28-0.93,12.33,1.16,18.81c0.51,1.63,2.07,2.68,4.02,2.73
		c1.21,0.03,2.39-0.34,3.22-1.04c5.16-4.3,9.98-9.35,14.7-15.39c2.42,7.14,5.54,13.68,11.2,15.15c0.58,0.15,1.18,0.24,1.76,0.25
		c5.23,0.14,9.1-5.22,11.7-9.83c0.22,0.37,0.43,0.75,0.65,1.14c3.65,6.42,7.78,13.69,13.39,15.48c1.17,0.37,2.35,0.58,3.5,0.6
		c5.96,0.17,10.64-4.18,14.46-8.74c0.8,1.62,1.47,3.45,2.17,5.36c2.19,5.96,4.68,12.73,12.02,12.93c0.75,0.02,1.54-0.03,2.37-0.14
		c7.29-1.04,11.73-6.19,14.79-10.99c0.13,0.33,0.27,0.67,0.4,1.01c3.13,7.79,7.01,17.48,14.73,17.69c1.1,0.03,2.25-0.14,3.43-0.5
		c6.77-2.09,11.18-6.95,15.03-12.26c7.48-12.07,8.8-16.99,6.72-18.66c-0.58-0.29-1.2-0.48-1.87-0.5c-1.49-0.04-2.93,0.63-3.95,1.85
		c-0.46,0.56-1.18,1.62-2.17,3.07c-3.66,5.39-11.27,16.6-16.41,16.46c-1.43-0.04-2.58-1.02-3.53-2.99c-0.99-2.06-1.84-4.22-2.66-6.3
		c-1.58-4-3.19-8.14-5.86-11.76c-0.81-1.1-1.91-1.7-3.19-1.73c-1.86-0.05-3.81,1.16-4.75,2.95c-3.2,6.12-8.14,12.26-11.94,12.15
		c-2.13-0.06-3.87-2.15-5.19-6.22c-1.6-4.95-3.16-9.04-7.26-12.78c-1.74-1.58-5.03-0.96-6.57,1.01c-0.13,0.17-0.32,0.42-0.55,0.74
		c-1.93,2.63-8.47,11.58-11.23,8.27c-1.72-2.06-3.07-4.13-4.58-6.61c-2.38-3.93-5.29-8.54-8.83-12.83c-0.87-1.06-2-1.64-3.26-1.67
		c-1.84-0.05-3.71,1.12-4.65,2.93c-0.25,0.47-0.5,0.98-0.78,1.51c-1.57,3.09-3.94,7.75-5.82,7.7c-0.85-0.02-1.8-1.22-2.67-3.35
		c-1.21-3.02-2.37-6.05-3.53-9.09l-1.27-3.29c-0.63-1.62-2.18-2.65-4.05-2.7c-1.65-0.05-3.15,0.68-4.01,1.93
		c-4.2,6.13-8.13,11.02-12.25,15.25c-0.04-3.38,0.41-6.85,0.86-10.21c0.4-3.14,0.83-6.4,0.86-9.58c0.01-2.75-1.93-4.87-4.52-4.95
		c-1.07-0.03-2.12,0.31-3.07,0.96c-1.69,1.18-4.1,4-6.88,7.27c-5.21,6.12-12.65,14.73-16.01,12.38c-0.42-0.29-0.85-0.5-1.31-0.64
		c0.43-1.97,0.79-3.97,1.13-5.92c0.78-4.34,1.57-8.82,3.25-12.96c0.57-1.42,0.47-2.84-0.3-4.02c-0.86-1.31-2.42-2.14-4.07-2.19
		c-1.98-0.05-3.61,1.03-4.36,2.89c-1.14,2.8-1.88,5.73-2.48,8.65c0.49-2.91,1.11-6.19,1.91-9.47c1.74-7.06,5.95-13.64,10.03-20
		c3.17-4.96,6.45-10.08,8.6-15.47c0.54-1.34,0.37-2.84-0.46-4.09c-1.56-2.37-4.94-3.01-6.93-1.11c-0.14,0.14-0.29,0.27-0.45,0.4
		c2.21-12.47,6.66-24.53,13.55-36.8c0.75-1.33,0.95-2.68,0.58-3.92c-0.38-1.26-1.3-2.32-2.61-2.97
		c-0.88-2.06,9.69-18.12,19.08-30.03c0.57,8.15,4.49,17.11,10.75,24.41c14.87,17.31,37.03,26.3,54.67,32.18
		c3.7,1.23,7.49,2.4,11.16,3.53c5.91,1.82,12.03,3.69,17.89,5.91l0.46,0.17c7.97,3.01,16.24,6.11,24.87,5.78
		c0.62,1.34,1.3,2.68,1.98,4.02c2.37,4.64,4.82,9.45,4.36,14.26c-0.12,1.22,0.33,2.5,1.25,3.54c1.48,1.67,3.76,2.15,5.46,1.07
		c3.85-2.42,8.12-4.48,12.63-6.66c9.81-4.73,19.95-9.62,26.01-18.78c2.89-0.34,5.81-0.43,8.64-0.51c7.45-0.22,15.16-0.46,22.02-5.41
		c7.24,3.71,15.7,6.25,24.54,7.37C451.06,364.62,457.06,377.33,456.76,391.21z M395.49,342.9c1.05-2.13,2-4.3,2.81-6.47
		c2.68-0.05,5.06-0.57,7.09-1.55c2,2.14,4.18,4.13,6.5,5.9c-4.71,2.04-9.99,2.07-15.55,2.11L395.49,342.9z M473.45,242.6
		c-4.71,3.63-8.77,8.48-12.7,13.19c-7.98,9.55-15.55,18.6-27.75,17.72l-0.23-0.01c-0.8-0.02-1.52,0.2-2.18,0.53
		c-2.5-0.19-5-0.38-7.49-0.66c-2.58-0.29-4.82,2.2-4.88,4.62c-0.07,2.76,2.05,4.59,4.62,4.88c1.07,0.12,2.14,0.19,3.21,0.28
		c20.32,3.19,31.7,31.38,40.08,52.33c1.15,2.89,5.95,9.61,7.02,12.18c-5.2,1.01-14.3-2.51-19.77-2.66
		c-21.83-0.6-48.29-11.17-51.04-39.03c-0.22-2.25-1.79-3.75-4.02-3.81c-0.97-0.03-1.96,0.23-2.82,0.73
		c-1.43,0.09-2.73,0.73-3.51,1.75c-0.53,0.7-1.07,1.89-0.64,3.61c2.84,11.39,0.45,25.22-6.1,35.34c-0.02,0.01-0.05,0.01-0.07,0.02
		c-1.78,3.42-4.29,6.38-7.53,8.34c-5.43,4.36-11.7,7.57-17.8,10.64c-2.11,1.06-4.23,2.12-6.31,3.24c-0.5-1.94-1.29-3.82-2.39-5.71
		c-4.13-7.11-6.74-13.76-6.03-23.09c0.11-1.51,0.18-3.26,0.26-5.19c0.35-8.24,0.82-19.51,5.08-26.11c1.73-1.24,3.4-2.74,4.99-4.44
		l0.09-0.04c0.34-0.16,0.68-0.33,1.07-0.44c1.39-0.42,2.48-1.36,3.06-2.66c0.59-1.34,0.59-2.98,0-4.31
		c-0.35-2.19-2.44-4.01-4.73-4.07c-1.47-0.04-2.78,0.65-3.68,1.94c-0.55,0.77-1.11,1.5-1.71,2.21c-2.14,1.26-3.95,2.83-5.49,4.8
		c-3.98,2.53-8.7,3.75-14.04,3.61c-17.33-0.47-38.25-15-50.44-23.78c9.76-1.3,19.72-7.25,29.37-13.03
		c4.21-2.52,8.56-5.12,12.81-7.28c0.04,0,0.09,0,0.13,0.01c1.51,0.04,2.77-0.59,3.59-1.78c8.58-3.85,15.28-4.82,21.5-3.19
		c2.57,2.59,5.82,4.61,9.69,6c0.5,0.18,1.01,0.28,1.53,0.3h0.08c2.21,1.09,4.86-0.21,5.84-2.72c0.77-2,0.26-4.1-1.34-5.48
		c-3.29-2.86-6.75-5.02-10.28-6.44c-10.68-15.97,12.23-55.92,22.05-72.65c2.68,6.38,6.95,12.11,11.09,17.66
		c0.99,1.32,1.98,2.65,2.95,3.99c5.6,7.73,13.66,24.72,11.45,37.44c-0.88,5.04-3.29,8.95-7.16,11.6c-1.59,1.08-2.23,2.76-1.73,4.49
		c0.61,2.05,2.59,3.58,4.73,3.64c1,0.03,1.98-0.27,2.86-0.87c0.41-0.29,0.8-0.61,1.19-0.94c1.77,0.4,3.4-0.37,4.31-2.09
		c4.99-9.3,15.24-13.81,30.47-13.39C450.23,234.26,466.15,239.74,473.45,242.6z M440.55,215.01c-6.57,3.52-13.04,7.25-18.52,10.43
		c-5.02,0.83-9.46,2.28-13.21,4.3c0.27-2.69,0.33-5.57,0.19-8.58c5.11-3.05,10.39-6.01,15.51-8.87c5.5-3.08,11.18-6.27,16.67-9.57
		c8.51-5.12,17.06-10.46,25.35-15.63c5.36-3.35,10.74-6.7,16.13-10.01c2.49-1.53,5.07-3.01,7.35-4.29c0.31,0.57,0.62,1.14,0.93,1.71
		c1.32,2.45,2.69,4.97,4.29,7.34C477.78,194.74,458.66,205.3,440.55,215.01z M503.22,175.64l-0.63,0.49
		c-1.35-2.02-2.5-4.2-3.63-6.32c-0.29-0.54-0.58-1.08-0.87-1.63c2.4-1.38,4.92-2.86,7.43-4.47c0.01,1.14,0.03,2.27,0.05,3.4
		c0.04,2.2,0.08,4.39,0.06,6.59C504.84,174.37,504.03,175,503.22,175.64z M514.98,172.79c0-1.77-0.03-3.54-0.07-5.31
		c-0.05-2.37-0.09-4.81-0.05-7.22c1.8,1.47,3.56,3.15,5.33,5.1C518.88,167.41,517.04,170.18,514.98,172.79z M573.53,239.15
		c-2.09,1.12-4.23,2.27-6.31,3.52c-9.21-11.18-17.7-23.21-25.92-34.84c-6.5-9.21-13.22-18.73-20.28-27.79
		c1.77-2.11,3.53-4.44,5.26-6.97c2.16,3.07,43.26,53.73,49,65.15C574.69,238.53,574.12,238.84,573.53,239.15z"/>
	<path className="st0" d="M422.29,251.48c-0.62-0.02-1.24,0.09-1.86,0.31c-5.99,2.2-11.74,5.12-17.31,7.95
		c-1.06,0.54-2.11,1.07-3.18,1.61c-3.95-4.65-10.18-7.02-16.57-6.3c-0.46-2.28-1.02-4.54-1.56-6.74c-0.82-3.36-1.68-6.82-2.15-10.3
		c-0.32-2.23-1.95-3.71-4.19-3.77c-1.5-0.04-2.98,0.58-3.93,1.65c-0.9,1-1.28,2.29-1.08,3.72c0.49,3.52,1.35,7,2.17,10.37
		c0.62,2.51,1.25,5.1,1.73,7.68c-5.37,2.49-9.65,6.41-12.12,11.07c-0.34,0.65-0.65,1.35-0.92,2.09
		c-10.13-2.17-18.98,1.28-26.08,10.18c-1.08,1.35-1.31,2.96-0.63,4.41c0.77,1.66,2.56,2.81,4.44,2.86c1.46,0.04,2.79-0.6,3.74-1.79
		c4.93-6.18,10.51-8.17,17.59-6.27c0.77,5.49,3.65,10.14,7.96,12.81c1.35,0.84,2.87,1.56,4.51,2.15c-0.31,1.25-0.63,2.5-0.93,3.75
		c-1.37,5.57-2.79,11.33-5.05,16.71c-0.58,1.41-0.49,2.83,0.26,4.01c0.84,1.31,2.4,2.14,4.07,2.19c1.97,0.05,3.61-1.02,4.38-2.86
		c2.29-5.48,3.72-11.29,5.11-16.91c0.43-1.73,0.85-3.47,1.31-5.2c6.58,0.17,12.8-1.79,17.18-5.38c6.67,3.2,13.08,6.52,18.38,11.45
		c0.81,0.74,1.73,1.15,2.66,1.18c1.7,0.05,3.34-1.17,4.1-3.03c0.83-2.03,0.37-4.18-1.18-5.63c-4.15-3.85-8.89-6.75-13.65-9.24
		c-1.13-0.14-2.03-0.63-2.77-1.31c2.23-5.04,1.66-11.15-1.04-16.01c0.53-0.27,1.05-0.53,1.59-0.8c5.46-2.77,11.12-5.64,16.96-7.78
		c2.02-0.74,3.06-2.48,2.73-4.53C426.67,253.75,424.9,251.55,422.29,251.48z"/>
	<path className="st0" d="M371.65,479.71c-1.45,6.11-4.24,11.56-7.69,16.78c-8.73,13.24-16.87-5.72-18.65-12.74
		c-1.02-4.04-6.42-4.81-8.65-1.37c-5.6,8.61-15.79,23.51-21.03,4.79c-1.65-5.89-10.89-3.65-9.23,2.28
		c2.34,8.38,5.59,17.04,15.35,17.87c6.79,0.58,12.87-5.6,17.47-11.79c3.68,8.93,9.99,18.43,19.45,16.11
		c12.23-3.01,19.42-17.85,22.09-29.14C382.15,476.54,373.06,473.74,371.65,479.71z"/>
	<path className="st0" d="M417.13,438.07c-2.14,3.31-6.95,12.68-12.05,9.71c-5.02-2.93-8.79-9.19-12.61-13.45
		c-4.11-4.57-11,1.97-6.91,6.54c5.33,5.94,10.35,14.01,18.26,16.73c9.58,3.29,17.12-7.91,21.38-14.5
		C428.54,437.93,420.45,432.93,417.13,438.07z"/>
</g>
</svg>
