<svg width="149" height="98" viewBox="0 0 149 98" fill="none" xmlns="http://www.w3.org/2000/svg">
<path d="M148.374 25.7094C146.058 22.7061 140.668 24.0579 137.28 23.7016C136.084 22.5562 134.704 21.6089 133.216 20.8821C132.993 12.6357 127.17 4.74566 119.582 1.71124C111.178 -1.65405 100.731 0.130405 93.5 5.43286C84.1847 12.2624 83.028 26.0205 88.4606 35.35C70.107 29.7563 49.8813 29.7167 31.5419 35.2143C21.9155 38.0988 9.62795 43.8594 4.98725 53.5169C4.92786 53.5141 4.8713 53.5084 4.80908 53.5169C2.32329 53.7318 0.355023 55.2646 0.0298062 57.8098C-0.182292 59.4811 0.762251 60.6519 2.07726 61.1129C0.753767 63.593 2.33743 66.5935 4.87413 66.865C4.31984 68.245 4.30853 69.7693 5.38882 71.0617C5.69141 71.4236 6.00814 71.7121 6.33619 71.9412C9.50918 80.8012 18.4541 86.5646 26.6665 90.4672C37.1215 95.4388 48.3655 97.6163 59.9206 97.6984C73.5798 97.7945 87.4962 95.1475 100.101 89.9554C104.382 88.1907 108.392 85.671 112.066 82.8826C113.813 81.5563 116.531 78.7396 118.002 75.8607C118.33 75.7165 118.652 75.5525 118.96 75.3517C120.994 74.0169 121.52 71.7969 120.926 69.6929C125.219 69.4837 127.586 63.6722 124.724 60.0891C126.652 54.7216 126.749 48.9356 123.51 44.2044C126.18 42.5755 128.505 40.3527 129.814 37.4936C133.855 38.26 137.662 38.9726 141.85 38.0422C143.072 37.7707 144.223 37.2476 144.723 36.0485C145.178 34.9626 144.22 33.953 143.267 33.2319C143.592 33.082 143.863 32.9519 144.056 32.8501C146.188 31.733 150.639 28.6505 148.374 25.7094ZM2.1112 57.8352C2.19038 56.7606 3.10947 56.0366 4.08512 55.7397C3.70334 56.8737 3.4262 58.0558 3.26501 59.286C2.43358 59.3029 2.04332 58.7374 2.1112 57.8352ZM4.08795 61.7095C4.60547 62.7163 5.18803 63.6693 5.82715 64.5743C4.07381 64.9306 2.60043 63.2649 4.08795 61.7095ZM7.4193 66.6048C8.39213 67.7218 9.45544 68.7597 10.5951 69.724C7.89157 71.4802 5.74231 69.0736 7.4193 66.6048ZM108.729 82.7242C105.163 85.2072 101.418 87.2264 97.3743 88.8298C85.576 93.5101 72.6098 95.5661 59.9433 95.6226C49.0499 95.6707 38.4959 93.4932 28.5697 89.0674C20.9596 85.6766 12.4022 80.4703 8.87288 72.6171C9.70996 72.5379 10.5499 72.2183 11.3445 71.7347C11.896 74.1017 12.9621 76.2962 14.9389 77.8262C15.6289 78.3607 16.8082 78.6208 17.6566 78.4596C18.389 78.3154 18.6775 78.1938 19.376 77.8969C19.6418 77.7838 19.8285 77.682 19.9614 77.5915C21.0954 81.9267 25.8916 83.8724 29.0844 81.2113C30.7388 85.6427 35.914 88.6517 39.432 85.5522C40.8742 89.4011 46.3407 90.8688 49.1659 88.0436C51.1737 92.5147 58.1475 92.1725 61.657 88.4763C62.5309 90.2862 64.3436 91.4514 66.6456 91.5277C69.1738 91.6126 71.1505 90.159 72.1629 88.103C73.4468 89.7489 75.3077 90.8349 77.5531 90.8631C80.152 90.8971 81.7696 89.1013 82.5077 86.9181C86.2943 90.4276 93.8733 89.5227 94.6171 84.3107C98.5027 85.8831 103.514 85.0743 104.125 80.8182C107.872 82.1813 112.592 80.3148 113.033 76.0587C113.646 76.268 114.286 76.3811 114.928 76.4178C113.115 79.2798 110.273 81.6496 108.729 82.7242ZM13.5786 71.9751C15.4083 73.2194 17.3568 74.3195 19.3675 75.3093C16.3161 77.6904 14.461 74.8709 13.5786 71.9751ZM21.8137 76.449C23.9714 77.402 26.1688 78.2447 28.335 79.0111C26.3102 81.5619 22.9845 80.2865 21.9805 77.2436C21.8844 76.9495 21.842 76.6865 21.8137 76.449ZM30.7982 79.8623C30.9226 79.9047 31.0499 79.9472 31.1743 79.9896C33.8071 80.8663 36.4796 81.7288 39.1718 82.5291C36.6097 87.068 31.7257 83.8073 30.7982 79.8623ZM41.1768 83.1145C43.6287 83.8102 46.0975 84.4408 48.572 84.9696C47.2259 89.4803 40.9167 87.3876 41.1768 83.1145ZM50.6986 85.3967C50.8598 85.4278 51.021 85.4617 51.1822 85.4928C54.2675 86.0641 57.3953 86.3921 60.5371 86.5335C57.777 89.9299 50.8598 90.9056 50.6986 85.3967ZM63.2294 86.6042C65.7039 86.6297 68.1812 86.5448 70.6471 86.3695C69.5782 90.1109 63.8855 90.5125 63.2294 86.6042ZM73.3309 86.1432C74.4253 86.0358 75.5141 85.9142 76.6 85.7784C77.9914 85.6031 79.3941 85.4136 80.8024 85.2129C80.1265 89.7122 75.3275 89.4803 73.3309 86.1432ZM83.4635 84.8169C86.4697 84.3447 89.4843 83.7847 92.4735 83.0919C92.4819 83.1004 92.4904 83.1088 92.4989 83.1145C92.5385 83.1456 92.5781 83.171 92.6177 83.1993C93.0023 87.939 86.0851 87.8457 83.4635 84.8169ZM95.4739 82.3425C97.7335 81.7373 99.9591 81.0444 102.137 80.2356C102.029 83.4595 98.2312 83.3945 95.4739 82.3425ZM105.143 79.0337C107.117 78.1825 109.037 77.2295 110.886 76.1464C110.326 78.618 107.515 79.7775 105.143 79.0337ZM114.017 74.1328C114.257 73.9632 114.506 73.8076 114.744 73.6323C116.155 72.6001 117.532 71.3331 118.813 69.9022C120.004 73.0073 116.836 74.7974 114.017 74.1328ZM120.702 67.5748C121.859 65.9968 122.885 64.283 123.725 62.4901C124.523 64.7468 123.089 67.4984 120.702 67.5748ZM119.359 43.9866C118.126 44.5013 119.161 46.3084 120.386 45.7965C120.824 45.6127 121.259 45.4119 121.689 45.2027C125.332 50.2053 123.711 58.2594 121.124 63.3865C119.011 67.5663 115.451 70.7732 111.557 73.3042C111.435 73.3495 111.325 73.423 111.226 73.5163C110.592 73.9207 109.95 74.3082 109.303 74.6786C98.415 80.92 84.7022 83.007 72.4146 84.1467C58.2493 85.4589 45.0992 82.3509 31.7512 77.993C21.6327 74.69 9.93054 69.8598 5.32095 59.4981C6.9442 46.5092 23.0297 39.8352 33.9796 36.665C52.1409 31.4078 72.4995 32.1431 90.4006 38.1582C93.3332 41.7129 97.4564 44.2242 102.649 44.7841C103.983 44.9283 103.997 42.847 102.677 42.7027C98.3019 42.2305 94.8235 40.0982 92.2585 37.0553C92.1907 36.7979 92.0238 36.5689 91.7467 36.4246C89.8406 33.953 88.4917 30.961 87.7309 27.7852C85.8192 19.8301 88.6218 11.5639 95.2392 6.71393C101.257 2.29946 110.191 0.936381 117.283 3.06302C124.78 5.31126 130.804 12.8365 131.126 20.7096C130.968 20.8651 130.849 21.0716 130.812 21.3346C130.199 25.6303 127.984 29.4876 124.961 32.5446C124.958 32.5446 124.958 32.5475 124.958 32.5475C124.673 32.703 124.452 32.9802 124.415 33.3874C124.198 35.7714 125.575 36.8234 127.69 37.0949C125.926 40.3725 122.758 42.5613 119.359 43.9866ZM141.321 36.0287C140.19 36.3313 138.996 36.402 137.831 36.4614C136.751 36.5123 135.691 36.4388 134.636 36.3002C136.935 35.7063 139.217 34.9004 140.999 34.1934C141.033 34.2216 141.064 34.2499 141.103 34.2725C142.531 35.1775 143.122 35.548 141.321 36.0287ZM143.029 31.0402C141.403 31.9451 127.331 37.3805 126.531 33.9106C129.554 30.8139 131.7 27.0697 132.611 22.8673C133.663 23.4103 134.647 24.1116 135.524 24.9035C135.558 25.2598 135.781 25.5709 136.259 25.6472C138.83 26.0658 141.468 25.7745 144.059 26.0177C149.019 26.4786 145.382 29.7308 143.029 31.0402Z" fill="#FF5B0D"/>
<path d="M111.073 17.0343C107.73 19.0478 107.784 24.5793 110.963 26.788C113.27 28.3886 117.719 29.039 119.596 26.8134C122.133 25.5154 122.441 21.3243 121.059 18.8131C119.563 15.0943 114.189 14.1497 111.073 17.0343ZM112.931 19.1468C113.084 18.8187 113.403 18.6095 113.757 18.5077L114.283 18.5133C114.826 18.5218 116.245 18.8555 115.377 20.7078C114.82 21.9041 111.893 21.4007 112.931 19.1468ZM118.703 24.4012C118.027 25.4221 117.484 26.2478 114.189 25.784C112.891 25.603 112.911 23.7677 114.215 23.7535C114.693 23.7479 116.412 23.5697 116.681 23.1625C116.986 22.7015 117.328 21.0387 118.734 21.7004C119.506 22.0596 119.008 23.943 118.703 24.4012Z" fill="#FF5B0D"/>
<path d="M93.2849 52.4755C92.6571 55.2696 91.2262 57.4754 89.2805 59.2174C86.642 55.8917 81.6365 54.3816 77.7113 53.2758C72.3919 51.777 66.7783 51.1916 61.2694 51.0672C51.971 50.8579 40.2152 52.1673 33.708 59.6218C31.3608 57.9109 29.5735 55.6598 28.7081 52.6763C28.3348 51.3896 26.3213 51.9099 26.6946 53.2023C30.6142 66.7313 50.1923 66.8925 61.4957 67.4214C72.6379 67.9417 92.2244 66.638 95.2815 53.0524C95.5784 51.7487 93.579 51.169 93.2849 52.4755ZM61.5268 65.3456C54.3946 65.043 42.9244 64.9667 35.4557 60.7445C41.3068 54.1044 52.1464 53.1599 60.373 53.1401C65.2738 53.1288 70.1889 53.6802 74.971 54.7351C78.9188 55.6033 85.064 57.0993 87.6488 60.4957C80.5675 65.3371 68.8258 65.6567 61.5268 65.3456Z" fill="#FF5B0D"/>
<path d="M35.8066 46.2703C37.5204 44.8733 39.9213 44.5538 42.0225 44.1324C43.3375 43.8666 42.8087 41.8559 41.4965 42.1189C38.9768 42.6251 36.3977 43.1143 34.3559 44.78C33.3152 45.6284 34.7744 47.1131 35.8066 46.2703Z" fill="#FF5B0D"/>
<path d="M48.3967 42.7736C53.3711 41.6339 58.3003 41.962 63.3227 42.4823C64.6575 42.6209 64.6745 40.5395 63.3482 40.4009C58.1391 39.8608 53.0148 39.5808 47.8679 40.7573C46.5642 41.057 47.0902 43.0705 48.3967 42.7736Z" fill="#FF5B0D"/>
</svg>
