<?xml version="1.0" encoding="utf-8"?>
<!-- Generator: Adobe Illustrator 24.2.3, SVG Export Plug-In . SVG Version: 6.00 Build 0)  -->
<svg version="1.1" id="Layer_1" xmlns="http://www.w3.org/2000/svg" xmlns:xlink="http://www.w3.org/1999/xlink" x="0px" y="0px"
	 viewBox="0 0 700 700" style="enable-background:new 0 0 700 700;" xml:space="preserve">
<style type="text/css">
	.st0{fill:#F9834E;}
</style>
<path className="st0" d="M623.62,434.29c-6.75-35.94-20.43-72.15-42.92-101.34c-0.55-4.96,0.04-10.06-0.75-15.02
	c-1.03-6.43-4.46-12.5-10.41-15.56c-6.93-3.56-12.4,0.16-16.38,5.51c-0.2-0.09-1.3,0.88-1.61,1.5
	c-20.54-18.05-38.64-38.81-61.53-53.93c0.78-2.37,1.45-4.73,1.96-7.11c0.74-8.55,1.41-17.1,2.24-25.64
	c-0.2-0.22-0.41-0.44-0.62-0.66c-0.7-12.06-2.74-24.2-3.63-36.39c0.01-2.6-0.11-5.17-0.4-7.71c-0.01-0.15-0.01-0.3-0.02-0.44
	c0-0.27-0.05-0.53-0.09-0.78c-1.39-10.28-5.47-19.92-12.77-28.03c-0.13-0.06-0.27-0.12-0.4-0.18c-0.13-0.13-0.23-0.27-0.39-0.4
	c-33.89-28.56-77.41-17.15-116.14-3.26c-0.22-0.14-0.41-0.29-0.67-0.42c-45.87-22.75-100.09,1.62-119.11,47.92
	c-0.18,0.44-0.3,0.86-0.38,1.27c-12.53,5.93-24.57,12.63-35.72,20.88c-0.4-1.9-0.85-3.8-1.19-5.71l-0.06,0.04
	c-0.12-0.4-0.04-0.89-0.3-1.22c-11.67-14.34-29.83,8.78-47.31,43c-48.26,34.89-83.42,83.92-84.66,145.55c-0.03,1.7,0.53,3,1.4,3.96
	c4.37,33.07,31.4,62.25,62.68,72.75c41.76,14.03,89.07,3.06,129.46-13.81c2.31,0.5,4.56-0.71,5.81-2.51
	c3.99-1.75,7.93-3.53,11.74-5.36c20.24-9.68,39.35-21.81,57.56-35.25c17.01,29.89,36.35,58.77,60.12,83.29
	c33.72,34.79,79.74,69.81,130.35,71.36c36.71,1.12,76.59-21.24,88.58-56.87c0.28-0.81,0.37-1.59,0.3-2.33
	C629.28,488.11,628.12,458.23,623.62,434.29z M559.21,322.34c0.2-0.8,0.47-1.58,0.71-2.38c0.85-1.82,1.8-3.59,2.94-5.26
	c1.83-2.68,3.18-0.79,4.4,2.1c0.07,0.17,0.11,0.36,0.17,0.53c0.27,2.93,0.29,5.88,0.54,8.98c1.3,15.35,0.2,30.11,1.32,45.48
	c1.52,21.18,3.56,42.31,5.61,63.45c-3.22-9.97-6.29-19.99-8.95-30.13C559.16,379.23,551.86,348.88,559.21,322.34z M576.88,476.27
	c-0.35-0.26-0.69-0.52-1.04-0.78c-5.48-5.61-31.18-29.17-65.06-46.47c-28.33-14.47-60.53-17.75-92.05-18.22
	c-5.06-8.16-10.58-16.07-14.94-24.54c52.13-8.35,111.97,11.42,151.11,46.45c6.67,8.55,12.44,17.71,16.87,27.55
	C573.49,465.59,575.2,470.93,576.88,476.27z M547.05,319.94c-0.3,0.81-2.84,41.72,0.92,59.11c2.48,11.52,7.93,30.24,11.27,41.5
	c-0.33-0.28-0.66-0.55-0.99-0.83c-5.18-6.08-8.79-6.9-15.29-11.58c-41.42-28.06-95.6-41.72-144.02-33.3c-0.49-1.49-1-2.96-1.38-4.5
	c-0.26-1.07-0.74-1.91-1.33-2.57c7.26-6.7,14.92-13.86,18.23-17.15c0.11,0.01,0.21,0.04,0.32,0.05c3.45-3.19,54.87-64.26,67.53-87.3
	C506.7,278.71,525.32,301.27,547.05,319.94z M447.38,297.73c-5.04,6.78-10.3,13.45-15.81,19.96c-3.29-7.08-6.34-14.27-9.78-21.29
	c-0.17-0.33-0.36-0.62-0.56-0.89c1.13-1.22,2.25-2.5,3.41-3.67c4.47-4.57,8.94-9.13,13.35-13.72c2.56,5.42,5.02,10.85,6.86,16.58
	C445.34,296.25,446.27,297.21,447.38,297.73z M445.97,269.62c5.01-5.44,9.87-10.99,14.53-16.74c1.64,4.87,3.29,9.73,4.93,14.6
	c0.25,0.72,0.6,1.29,1,1.78c-3.88,6.44-7.95,12.8-12.28,19.04c-2.27-6.35-5.18-12.4-8.07-18.5
	C446.05,269.74,446,269.69,445.97,269.62z M423.73,326.53c0.01,0.04,0.05,0.07,0.06,0.11c-5.65,6.34-11.47,12.58-17.49,18.63
	c-4.21-6.76-7.94-13.82-11.51-20.93c6.57-6.3,12.62-13.32,18.63-20.19C416.92,311.59,420.11,319.16,423.73,326.53z M398.34,353.08
	c-7.12,6.83-14.42,13.47-21.87,19.88c-0.13-0.16-0.25-0.32-0.37-0.48c-1.19-1.58-11.66-16.41-12.79-18.03
	c-0.26-0.37-0.5-0.73-0.76-1.1c9.07-8.65,17.73-16.9,22.49-21.36c0.06,0.17,0.12,0.33,0.18,0.5c0.38-0.27,0.76-0.52,1.13-0.8
	C390.05,338.98,393.92,346.2,398.34,353.08z M482.48,241.23c-0.89,0.47-1.68,1.25-2.23,2.42c-2.14,4.51-4.44,8.97-6.83,13.39
	l-4.92-14.55c2.17-2.99,4.29-6.04,6.32-9.16c3.1-4.79,5.77-9.92,8.02-15.21C483.52,225.91,483.65,233.65,482.48,241.23z
	 M343.19,150.97c-1.42,0.53-2.83,1.05-4.23,1.57c-27.88,10.34-55.23,22.27-82.67,33.7C273.68,156.55,310.29,140.57,343.19,150.97z
	 M162.45,269.55c6.38-14.02,11.31-34.36,21.18-47.02c3.39-4.35,11.07-2.61,10.6,2.01c-2.32,27.44-21.2,58.57-36.55,80.48
	c-6.02,8.59-12.37,16.91-18.86,25.15C148.07,311.05,153.66,288.89,162.45,269.55z M233.32,307.54c32.96-6.08,78.53-8.88,110.5,8.12
	c-11.63,9.06-22.88,18.59-34.6,27.54c-16.57-5.51-32.96-11.35-50.56-13.62c-25.49-3.3-51.03,2.62-75.01,10.82
	c-13.32,4.56-26.2,10.44-39.01,16.23c-7.27,3.28-14.59,8.35-22.23,11.74c3.53-4.56,7.09-9.1,10.66-13.63
	C159.22,328.2,197.19,314.21,233.32,307.54z M96.12,431.71c9.66,7.69,21.33,12.95,33.75,16.35c0,0.02,0,0.04,0.02,0.06
	c1.44,3.65,2.08,7.54,2.5,11.45C118.06,453.33,105.24,443.82,96.12,431.71z M143.72,463.73c-0.35-4.35-0.8-8.76-1.74-13.04
	c8.22,1.44,16.59,2.24,24.8,2.38c1.38,4.89,2.46,9.83,3.5,14.81C161.39,467.77,152.4,466.33,143.72,463.73z M173.87,442.43
	c-1.74-1.21-4.13-1.04-5.96,0.07c-33.02-0.27-69.54-11.08-81.91-41.69c-1.55-3.83-2.54-7.77-3.16-11.76
	c3.11-46.09,26.88-84.28,60.51-113.8c-13.52,30.49-25.56,64.31-32.38,87.76c-0.27,0.93-0.57,1.7-0.55,2.49
	c-1.19,1.77-2.41,3.51-3.51,5.35c-0.21,0.36-0.37,0.72-0.48,1.08c-6.51,0.23-5.61,10.6,1.19,10.86c14.74,0.55,27.7-9.97,40.55-15.83
	c16.46-7.51,33.07-14.5,50.34-19.95c35.3-11.14,66.8-6.55,100.2,3.93c-0.53,0.37-1.04,0.77-1.58,1.13
	c-6.37,4.4-0.34,14.89,6.1,10.45c22.77-15.74,42.79-35.07,65.87-50.38c6.47-4.29,0.42-14.77-6.1-10.45
	c-3.13,2.08-6.2,4.24-9.24,6.45c-33.65-21.03-86-17.31-121.2-11.49c-25.44,4.21-51.41,12.43-74.21,25.52
	c7.13-9.51,14.03-19.19,20.43-29.24c11.02-17.31,23.55-40.83,25.48-63.44c32.66-27.73,77.75-41.21,116.9-57.08
	c41.18-16.7,106.23-49.39,146.16-15.74c0.87,0.73,1.79,1.14,2.71,1.35c17.27,22.94,4.78,58.14-14.02,83.34
	c-12.78,17.14-28.56,32.03-43.48,47.26c-10.04,10.25-19.16,22.35-30.21,31.8c-0.09-0.1-0.17-0.21-0.26-0.3
	c-40.26,33.9-91.99,96.64-184.11,119.65C190.7,441.59,182.42,442.17,173.87,442.43z M181.3,467.66c-1.02-4.93-2.06-9.87-3.3-14.75
	c5.32-0.24,10.5-0.7,15.43-1.36c4.99-0.68,9.94-1.57,14.83-2.66c0.53,5.1,1.34,10.18,2.07,15.25
	C200.71,465.96,191.01,467.16,181.3,467.66z M220.99,461.9c-0.75-5.07-1.56-10.13-2.03-15.21c-0.02-0.17-0.06-0.32-0.09-0.49
	c10.53-2.96,20.83-6.76,30.9-11.25c1.29,5.4,3.11,11.21,5.96,16.06C244.43,455.46,232.8,459.1,220.99,461.9z M265.94,446.71
	c-3.28-4.56-5.06-11.32-6.16-16.48c7.65-3.8,15.14-8.01,22.49-12.47c3.73,4.95,6.65,10.41,9.64,15.84
	C283.51,438.38,274.84,442.77,265.94,446.71z M301.58,427.86c-0.11,0.07-0.23,0.13-0.33,0.2c-3.03-5.5-5.99-11.06-9.72-16.12
	c10.16-6.58,20.01-13.65,29.55-20.96c2.54,6.23,5.35,12.38,8.84,18.12C320.5,415.69,311.02,421.97,301.58,427.86z M338.81,402.74
	c-3.53-5.93-6.25-12.33-8.79-18.75c1.9-1.52,12.65-11.71,24.45-22.95c4.75,6.94,11.29,16.27,13.64,18.97
	C358.51,387.95,348.72,395.54,338.81,402.74z M359.67,429.98c-4.3-6.59-8.55-13.25-12.64-20.07c5.65-4.36,11.24-8.84,16.72-13.4
	c3.78,6.85,7.72,13.74,11.81,20.62c-3.09,1.9-5.85,4.32-8.61,6.68c-2.11,1.8-4.18,3.62-6.31,5.4
	C360.34,429.47,360,429.72,359.67,429.98z M386.13,467.38c-6.89-9.01-13.67-18.36-20.25-28.04c5.46-3.93,10.04-10.12,15.27-13.01
	c5.96,9.61,12.27,19.1,18.95,28.33C394.87,458.21,390.93,463.36,386.13,467.38z M392.82,475.95c4.7-4.04,8.61-9.08,13.82-12.52
	c6.5,8.44,13.41,16.52,20.67,24.21c-4.06,4.37-7.11,9.43-10.32,14.45C408.36,493.86,400.27,485.1,392.82,475.95z M425.04,509.46
	c3-4.9,5.86-10.1,9.82-14.16c7.55,7.37,15.54,14.22,23.97,20.43c-3.54,3.92-6.77,8.1-10.07,12.26
	C440.51,522.3,432.57,516.1,425.04,509.46z M491.39,551.05c-11.62-4.68-22.83-10.4-33.51-17.06c3.17-4.13,6.33-8.28,9.92-12.03
	c4.46,2.91,9.04,5.65,13.75,8.16c4.98,2.64,10.33,5.16,15.94,7.45C495.18,541.95,493.14,546.43,491.39,551.05z M533.14,558.95
	c-10.7,0.3-21.46-1.07-31.54-4.15c1.77-4.59,3.87-9.05,6.19-13.4c9.07,3.06,18.59,5.44,28.17,6.77
	C535.3,551.82,534.27,555.41,533.14,558.95z M544.8,557.94c0.87-2.88,1.58-5.79,2.04-8.74c11.32,0.57,22.49-0.51,32.86-3.92
	C569.35,551.93,557.3,556.12,544.8,557.94z M599.91,519.82c-29.42,32.33-86.51,17.4-118.53-2.32
	c-45.86-28.24-78.56-73.63-104.72-120.03c0.18,0.02,0.37,0.04,0.55,0.06c-2.59-6.24-2.98-13.19,3.71-15.8
	c1.12-0.99,3.23-2.89,5.86-5.29c5.23,17.72,17.1,31.91,25.92,47.95c2.83,5.14,9.43,2.97,10.93-1.33c32.36,1.03,55.7,1.75,85,16.45
	c22.75,11.42,48.87,34.79,67.43,50.65c3,2.23,6.23,4.07,9.83,5.25c0.91,0.3,1.78,0.35,2.58,0.24c5.66,0.34,7.72-8.68,2.13-11.67
	c-0.39-1.94-0.86-3.85-1.32-5.75c0.28-0.74,0.42-1.57,0.34-2.53c-3.6-41.7-6.51-83.46-9.83-125.17
	c15.43,23.49,26.09,50.96,31.64,78.15C617.25,457.2,621.36,496.26,599.91,519.82z"/>
</svg>
