<?xml version="1.0" encoding="utf-8"?>
<!-- Generator: Adobe Illustrator 24.2.3, SVG Export Plug-In . SVG Version: 6.00 Build 0)  -->
<svg version="1.1" id="Layer_1" xmlns="http://www.w3.org/2000/svg" xmlns:xlink="http://www.w3.org/1999/xlink" x="0px" y="0px"
	 viewBox="0 0 700 700" style="enable-background:new 0 0 700 700;" xml:space="preserve">
<style type="text/css">
	.st0{fill:#F9834E;}
</style>
<g>
	<path className="st0" d="M506.73,133.17c4.09-4.92-1.18-14.25-8.67-11.34c-0.2,0.08-0.42,0.16-0.63,0.24
		c-2.49-0.22-5.04,0.77-6.69,2.55c-125.38,47.99-261.88,81.52-376.97,152.16c-3.32,0.68-6.36,3.81-5.85,7.84
		c-3.13,0.34-6.06,3.24-4.94,7.19C124.34,367,171.2,435.05,209.31,502.75c16.9,30.01,42.56,87.52,77.91,54.7
		c3.16-2.95,2.48-7.12,0.18-10.09c0.14-1.25-0.01-2.61-0.79-4.17c-7.01-14-21.09-17.13-30.32-30.4
		c-12.99-18.71-23.19-41.18-34.16-61.19c-10.69-19.53-20.9-39.3-31.08-59.1c15.51,2.94,32.08,1.34,47.66-2.7
		c31.8-8.24,71.46-24.95,90.25-53.51c17.32-26.33,4.22-59.37-9.16-84.82c2.96-1.91,5.86-3.93,9.04-5.52
		c5.57-2.77,11.5-4.62,17.6-5.72c8.94,27.04,23.51,52.93,50.08,65.69c4.43,2.13,9.03,3.55,13.68,4.49
		c-11.68,27.07-22.77,54.34-34.48,80.61c-14.03,31.45-44.91,86.33,2.51,95.17c4.25,0.78,7.19-2.27,8.22-5.88
		c1.06-0.63,2.09-1.57,2.88-3.12c7.05-13.97,1.19-27.14,6.34-42.45c7.28-21.58,19.23-43.16,28.78-63.9
		c10.05-21.84,20.66-43.42,31.27-64.99c12.65-4.23,24.79-10.12,35.42-15.8c25.49-13.62,47.58-36.73,46.81-67.3
		C537.19,190.94,520.77,161.28,506.73,133.17z M210.69,457.77c11.29,20.39,22.29,41.17,34.27,61.13c2.9,4.84,7.78,12.29,12.12,15.71
		c5.63,4.45,12.87,6.83,17.69,12.33c-17.79,14.5-31.31-11.46-40.42-28.06c-12.83-23.37-25.84-46.57-39.26-69.62
		c-15.42-26.45-30.25-52.8-44.07-79.65c1.74,1.89,3.53,3.74,5.4,5.51c5.1,4.86,10.71,8.61,16.61,11.47
		C185.38,410.44,197.69,434.28,210.69,457.77z M412.69,365.31c-9.64,21.2-19.79,42.42-28.68,63.94c-2.16,5.22-5.22,13.57-5.39,19.1
		c-0.21,7.16,2.19,14.39,0.64,21.55c-22.25-5.65-9.45-31.97-1.57-49.18c11.13-24.24,22.01-48.51,32.5-73.03
		c5.19-12.12,10.51-24.1,15.86-36.04c4.23-0.14,8.49-0.62,12.73-1.4C429.91,328.52,421.09,346.82,412.69,365.31z M494.55,270.95
		c-23.63,17.27-59.45,32.59-88.89,23.64c-26.91-8.16-39.56-38.39-48.97-62.11c-1.05-2.67-3.11-3.72-5.18-3.67
		c-1.26-1.66-3.32-2.72-6.07-2.3c-10.88,1.65-26.96,6.84-35.02,15.96c-5.04-0.05-10.02,4.33-7.03,10.04
		c12.22,23.35,27.88,52.86,11.42,77.92c-17.07,25.96-59.21,40.33-87.94,46.88c-61.49,13.99-86.63-43.29-104.37-91.25
		c119.72-59.83,246.32-98.66,370.8-146.77C515.27,183.43,543.97,234.82,494.55,270.95z"/>
	<path className="st0" d="M283.55,237.18c-1.48-3.07-4.85-5.34-8.91-3.79c-46.33,17.68-93.21,33.19-135.62,59.52
		c-4.95,3.08-1.05,10.91,3.93,10.52c6.12,21.28,20.85,45.81,41.59,55.15c20.97,9.43,44.04,6.72,65.55,0.07
		c19.33-5.98,43.5-15.6,53.71-34.57c14.86-27.61-5.65-57.92-16.29-83.08C286.62,238.94,285.18,237.73,283.55,237.18z M281.61,301.66
		c-3.59-14.62-11.37-28.96-17.51-42.67c-3.15-6.98,7.76-11.63,10.87-4.68c6.62,14.76,14.48,29.97,18.37,45.73
		C295.15,307.45,283.41,308.99,281.61,301.66z"/>
	<path className="st0" d="M489.54,162.47c-0.79-2.01-2.07-3.21-3.49-3.76c-1.34-2.99-4.29-5.23-7.81-3.78
		c-40.11,16.48-86.04,27.17-122.62,52.08c-4.27,2.9-0.77,10.54,3.57,10.23c5.62,20.67,24.09,48.29,42.29,57.6
		c18.39,9.42,38.45,7.11,57.09,0.97c16.75-5.51,37.67-14.49,46.31-32.71C517.42,216.58,499.15,186.96,489.54,162.47z M480.06,229.54
		c-1.53-15.21-4.3-32.66-15.15-44.2c-5.24-5.58,4.12-12.83,9.31-7.32c12.2,12.98,15.84,32.78,17.57,49.9
		C492.55,235.49,480.82,237.13,480.06,229.54z"/>
</g>
</svg>
