<?xml version="1.0" encoding="utf-8"?>
<!-- Generator: Adobe Illustrator 24.2.3, SVG Export Plug-In . SVG Version: 6.00 Build 0)  -->
<svg version="1.1" id="Layer_1" xmlns="http://www.w3.org/2000/svg" xmlns:xlink="http://www.w3.org/1999/xlink" x="0px" y="0px"
	 viewBox="0 0 700 700" style="enable-background:new 0 0 700 700;" xml:space="preserve">
<style type="text/css">
	.st0{fill:#F9834E;}
</style>
<g>
	<path className="st0" d="M576.11,483.58c-1.65-1.02-3.5-1.91-5.29-2.77c-1.86-0.89-3.77-1.82-5.44-2.88c-1.33-0.84-2-1.65-2-2.4
		c0-1.25,1.82-2.57,3.78-3.82c4.28-2.71,8.33-5.72,8.98-9.34c0.34-1.87-0.26-3.79-1.77-5.71c-4.82-6.13-13.68-10.47-22.54-14.25
		c-1.23-0.52-2.7,0.11-2.94,1.16c-0.12,0.52,0.08,1.22,1,1.62c5.23,2.23,21.16,9.02,21.84,15.89c0.22,2.22-1.19,4.35-4.19,6.33
		c-0.6,0.4-1.3,0.82-2.04,1.25c-3.03,1.8-6.46,3.85-6.68,6.49c-0.23,2.85,2.79,4.77,6.1,6.43c0.84,0.42,1.73,0.84,2.64,1.26
		c3.1,1.44,6.3,2.93,8.12,4.95c1.22,1.35,1.65,2.97,1.21,4.57c-0.61,2.17-2.68,4-5.69,5.01c-4.38,1.47-9.08,2.16-14.8,2.16
		c-3.79,0-7.67-0.3-11.42-0.59c-4.56-0.35-9.29-0.71-14-0.57c-1.44,0.05-2.86,0.13-4.26,0.22c-1.88,0.11-3.82,0.23-5.77,0.25
		c-2.29,0.01-4.13,0.19-6.22,1.03c-1.38,0.55-2.52,1.8-2.9,3.18c-0.27,0.95-0.13,1.83,0.39,2.47c0.55,0.68,1.31,1.14,2.05,1.59
		c0.32,0.2,0.65,0.4,0.96,0.62c0.2,0.14,0.31,0.31,0.34,0.52c0.14,0.9-0.99,2.33-1.66,3.19l-0.2,0.25c-2.02,2.61-4.95,4.3-8.96,5.19
		c-7.68,1.7-16.61,2.52-27.31,2.52c-4.75,0-9.8-0.16-15.88-0.49c-15.11-0.83-29.75-3.31-43.91-5.7c-17.39-2.94-39.04-6.6-60.15-6.6
		c-10.03,0-19.21,0.78-28.07,2.39c-0.61,0.11-1.13,0.46-1.38,0.92c-0.19,0.36-0.21,0.76-0.04,1.1c0.68,1.37,0.7,2.49,0.07,3.43
		c-1.16,1.73-5.24,3.8-18.12,3.8c-5.65,0-11.18-0.39-14.48-0.62l-1.38-0.1c-7.4-0.49-14.88-1.18-22.11-1.85
		c-2.02-0.19-4.04-0.37-6.06-0.56c-0.98-0.09-1.96-0.18-2.96-0.28c-4.37-0.42-8.88-0.84-13.34-0.85c-0.17-0.11-0.38-0.2-0.65-0.23
		c-2.66-0.35-7.49-1.09-9.2,1.69c-1.44,2.34-0.88,5.88,1.38,7.63c2.02,1.55,4.98,1.43,7.39,1.96c2.22,0.5-3.61,4.12-4.48,4.38
		c-3.09,0.9-6.61,0.8-9.81,0.82c-6.24,0.03-11.91-1.6-18.03-2.27c-3.24-0.35-6.53-0.25-9.79-0.4c-1.54-0.07-3.89,0.48-4.6,2
		c-0.99,2.12-0.31,4.35-3.27,5.14c-4.59,1.22-9.67-0.17-14.09-1.38c-6.86-1.88-12.97-3.62-20.16-3.62c-2.04,0-2.04,3,0,3
		c7.47,0,13.89,2.03,20.98,3.96c4.6,1.26,11.66,2.71,16.14,0.33c1.33-0.7,1.9-1.44,2.4-2.8c0.55-1.47-0.35-3.37,2.59-3.64
		c1.51-0.14,3.22,0.22,4.74,0.29c7,0.32,13.75,2.3,20.8,2.37c6.98,0.08,17.81,0.65,20.27-7.44c0.59-1.92-1.2-3.13-2.86-3.64
		c-1.32-0.41-2.8-0.46-4.16-0.7c-0.8-0.14-1.65-0.35-2.3-0.85c-1.22-1.6-0.71-2.98,1.51-4.16c0.39-0.02,0.77,0,1.15,0
		c0.33,0.38,0.88,0.66,1.66,0.66l0.13,0c6.09-0.23,12.35,0.43,18.39,1.06c1.74,0.18,3.48,0.36,5.19,0.52l1.27,0.12
		c9.76,0.91,19.85,1.85,29.88,2.21c1.77,0.06,4.13,0.14,6.78,0.14c12.62,0,20.34-1.72,22.93-5.11c0.97-1.27,1.24-2.77,0.79-4.46
		c7.84-1.3,15.97-1.93,24.84-1.93c17.2,0,34.36,2.44,50.33,5.07l4.88,0.81c21.11,3.5,41.06,6.82,62.82,6.82c0.82,0,1.65,0,2.48-0.01
		l1.62-0.02c9.62-0.1,22.8-0.24,31.2-4.05c3.14-1.42,5.51-3.35,7.02-5.73c0.13-0.21,0.29-0.44,0.46-0.68
		c1.07-1.57,2.7-3.95,0.87-5.62c-0.43-0.39-1-0.72-1.55-1.03c-0.61-0.35-1.24-0.71-1.56-1.1c-0.23-0.28-0.47-0.68-0.33-0.94
		c0.55-1.07,5.15-1.13,7.36-1.16c0.98-0.01,1.75-0.02,2.21-0.08c2.09-0.27,4.27-0.4,6.66-0.4c3.62,0,7.12,0.3,10.83,0.61
		c1.14,0.1,2.28,0.19,3.43,0.28c3.16,0.24,6.19,0.36,9,0.36c9.83,0,17.01-1.45,21.34-4.31c3.09-2.04,4.77-4.66,4.73-7.39
		C581.21,488.26,579.38,485.6,576.11,483.58z"/>
	<path className="st0" d="M508.62,486.04c0.53,0,1.03-0.12,1.44-0.35c2.61-1.47,6.46-2.16,12.12-2.16c3.14,0,6.33,0.21,9.42,0.4
		c2.18,0.14,4.23,0.27,6.06,0.32c0.4,0.01,0.8,0.01,1.2,0.01c4.04,0,9.26-0.48,11.21-2.76c0.67-0.79,0.9-1.72,0.67-2.76
		c-0.76-3.47-2.82-5.5-7.12-7l-0.54-0.18c-0.83-0.28-2.78-0.92-2.97-1.46c0.62-1.05,2.22-1.16,4.06-1.29l1-0.07
		c1.63-0.12,3.87-0.29,4.99-1.04c3.39-2.25,7.64-5.66,5.47-9.28c-2.07-3.45-7.11-6.04-11.98-8.54c-0.56-0.29-1.12-0.58-1.67-0.86
		c-0.35-0.18-0.76-0.28-1.19-0.28c-0.91,0-1.96,0.44-2.16,1.17c-0.05,0.17-0.13,0.76,0.66,1.18c0.66,0.34,1.4,0.71,2.17,1.1
		c4.03,2.01,9.56,4.76,10.46,7.56c0.22,0.69,0.15,1.35-0.22,2.01c-1.14,2.02-2.97,4.13-7.97,4.54c-2.02,0.17-3.68,0.39-5.22,0.96
		c-2.23,0.82-2.59,2.05-2.6,2.71c-0.03,1.15,0.92,2.26,2.48,2.91c0.63,0.26,1.37,0.51,2.16,0.77c1.75,0.58,3.73,1.23,4.3,2.06
		l0.12,0.17c0.79,1.16,1.61,2.37,1.6,3.53c-0.01,1.62-2.62,2.44-7.74,2.44c-2.53,0-5.29-0.2-7.51-0.36c-1.18-0.08-2.25-0.16-3.1-0.2
		c-1.96-0.08-4.07-0.16-6.15-0.16c-4.31,0-10.54,0.28-14.85,2.72c-0.77,0.43-0.71,0.97-0.65,1.18
		C506.77,485.69,507.75,486.04,508.62,486.04z"/>
	<path className="st0" d="M485.61,503.14c-0.85,0.07-1.75,0.11-2.67,0.11c-5.23,0-10.79-1.17-15.69-2.21c-0.91-0.19-1.81-0.38-2.69-0.56
		c-9.75-1.98-16.82-2.57-25.24-2.14c-1.03,0.05-2.07,0.11-3.12,0.16c-4.04,0.22-8.22,0.44-12.31,0.44c-2.54,0-4.81-0.08-6.93-0.26
		c-6.78-0.56-13.34-1.92-18.96-3.16c-0.21-0.05-0.42-0.07-0.62-0.07c-1.11,0-1.78,0.7-1.86,1.39c-0.08,0.66,0.35,1.43,1.5,1.68
		c7.8,1.71,14.87,3.15,22.46,3.36c5.07,0.14,10.21-0.09,15.18-0.31c2.71-0.12,5.5-0.25,8.25-0.31c8.02-0.19,14.25,1.01,21.51,2.41
		c1.41,0.27,2.84,0.55,4.32,0.82c0.63,0.12,1.36,0.26,2.15,0.42c3.44,0.69,8.15,1.63,12.23,1.63c2.56,0,4.51-0.36,5.97-1.1
		c1.96-1,2.72-2.54,2.08-4.22c-0.41-1.08-1.14-2.19-2.17-3.27c-0.04-0.04-0.07-0.08-0.11-0.11c0.35-0.09,0.83-0.25,1.37-0.59
		c0.84-0.53,0.75-1.17,0.67-1.41c-0.22-0.68-1.13-1.19-2.12-1.19c-0.52,0-1.02,0.14-1.43,0.4c-0.21,0.13-0.55,0.17-0.92,0.22
		c-0.64,0.08-1.45,0.17-1.99,0.85c-1.1,1.36-0.16,2.35,0.52,3.08l0.14,0.15c0.63,0.66,2.3,2.42,1.98,3.21
		C486.99,502.86,486.46,503.07,485.61,503.14z"/>
	<path className="st0" d="M413.27,488.37c-16.49,0-33.81-1.27-38.96-2.18c-1.52-0.27-2.39,0.49-2.46,1.22
		c-0.05,0.53,0.31,1.22,1.51,1.43c5.55,0.98,22.34,2.34,39.42,2.34c16.46,0,37.07-1.24,41.79-7.14c0.83-1.04,1.16-2.2,0.97-3.44
		c1.49,0.12,3.02,0.26,4.57,0.41c4.2,0.39,8.55,0.8,12.8,0.8c3.6,0,6.67-0.3,9.4-0.91c8.15-1.82,8.83-5.41,9.49-8.89
		c0.28-1.49,0.57-3.02,1.45-4.45c1.15-1.87,3.17-2.73,5.51-3.73c1.07-0.46,2.17-0.92,3.29-1.53c2.83-1.53,4.31-4.09,3.67-6.37
		c-1.51-5.38-7.82-9.98-14.43-14.16c-0.39-0.25-0.91-0.38-1.49-0.38c-0.95,0-2.08,0.38-2.3,1.08c-0.06,0.2-0.13,0.69,0.53,1.12
		c3.38,2.14,5.92,3.98,7.99,5.79l0.55,0.48c2.25,1.96,5.33,4.64,5.05,6.92c-0.31,2.45-1.93,3.16-5.15,4.55l-1.11,0.49
		c-2.38,1.05-4.12,2.32-5.47,3.99c-1.23,1.52-1.5,3.36-1.76,5.15c-0.5,3.41-0.97,6.64-8.11,7.58c-2.22,0.3-4.56,0.44-7.16,0.44
		c-4.04,0-8.14-0.35-12.1-0.7c-2.47-0.21-5.03-0.43-7.52-0.56c-1.06-0.06-2,0.3-2.36,0.86c-0.2,0.31-0.21,0.68-0.02,1.01
		c0.6,1.07,0.63,2.01,0.09,2.86C448.52,486.26,435.14,488.37,413.27,488.37z"/>
	<path className="st0" d="M233.36,494.71c1.12,0.34,2.25,0.7,3.39,1.06c8.11,2.54,17.31,5.43,26.52,5.91c0.75,0.04,1.5,0.06,2.26,0.06
		c4.45,0,8.08-0.74,10.78-2.2c0.89-0.48,1.75-0.99,2.59-1.5c3.18-1.9,6.18-3.69,10.86-3.7c2.27,0,4.64,0.15,7.14,0.3
		c2.54,0.16,5.17,0.32,7.73,0.32c4.8,0,10.91-0.49,15.54-4.27c2.07-1.7,3.28-3.67,3.82-6.2c0.07-0.33,0.13-0.68,0.19-1.03
		c0.32-1.81,0.65-3.69,2.39-4.94c4.68-3.36,13.56-3.54,19.43-3.66c1.12-0.02,2.24-0.03,3.36-0.03c6.31,0,13.08,0.35,20.72,1.08
		c3.67,0.35,7.41,0.77,11.03,1.17c9.42,1.05,19.16,2.13,28.9,2.2l0.41,0c0.78,0.01,1.61,0.01,2.47,0.01
		c6.95,0,14.62-0.41,18.82-3.46c1.66-1.21,2.52-2.62,2.54-4.19c0.06-3.4-3.64-6.75-7.27-9.57c-0.41-0.32-0.96-0.49-1.57-0.49
		c-0.88,0-1.96,0.4-2.24,1.14c-0.08,0.22-0.2,0.77,0.47,1.3l0.62,0.48c2.6,2,6.95,5.34,5.68,7.91c-0.76,1.53-3.27,2.57-7.68,3.18
		c-3.37,0.47-6.96,0.69-10.98,0.69c-6.25,0-12.51-0.56-17.88-1.08c-3.51-0.34-7.01-0.73-10.52-1.11
		c-10.21-1.12-20.77-2.28-31.34-2.34l-1.13-0.01c-0.94-0.01-1.95-0.01-3.01-0.01c-8.53,0-18.95,0.53-23.8,4.65
		c-2.26,1.92-2.73,4.09-3.18,6.19c-0.37,1.73-0.73,3.37-2.06,4.87c-2.37,2.66-8.13,4.68-13.49,4.7c-2.18,0-4.48-0.24-6.7-0.47
		c-2.28-0.24-4.63-0.48-6.94-0.48c-1.11,0-2.12,0.05-3.09,0.17c-4.43,0.51-8.13,1.79-11.31,3.9c-4.19,2.79-8.72,3.86-13.98,3.29
		c-9.38-1-18.13-3.7-26.59-6.31l-1.1-0.34c-1.33-0.41-2.83,0.3-3,1.33C232.1,493.74,232.36,494.4,233.36,494.71z"/>
</g>
<g>
	<path className="st0" d="M300.71,455.04c-1.31-27.7-10.71-54.9-19.3-81.04c-3.09-9.42-6.36-18.79-9.77-28.11
		c-0.01-0.28-0.01-0.55-0.02-0.83c-0.31-0.62-0.63-1.23-0.95-1.84c-6.53-17.61-13.64-35-21.44-52.09
		c-10.4-22.81-20.99-45.81-33.39-67.61c-9.94-17.47-21.78-34.14-36.92-47.4c-2.51-2.16-4.5-4.25-7.04-4.51
		c-2.7-0.28-4.39,1.99-5.05,4.31c-0.05,0.18-0.06,0.34-0.05,0.5c-0.03,0.01-0.07,0.02-0.1,0.02c-1.01,5.67-1.68,11.39-2.11,17.15
		c-5.61-9.17-13.95-21.35-20.86-29.88c-0.02-0.29-0.12-0.59-0.34-0.87c-2.35-3.04-5.83-4.24-8.67-1.09
		c-2.17,2.41-3.33,5.94-3.98,9.12c-6.49,21.39-8.75,44.15-9.95,66.36c-1.5,27.7-0.57,55.47,0.13,83.18
		c1.03,40.91,8.58,82.52,24.3,120.57c-9.26-0.94-18.22,1-26.73,4.83c-1.76,0.79-0.24,3.38,1.51,2.59
		c8.28-3.72,17.29-5.61,26.35-4.29c0.06,0.01,0.12,0.01,0.18,0.01c1.91,4.47,3.94,8.89,6.08,13.25c-2.63-1.07-5.1-2.45-7.32-4.27
		c-1.48-1.21-3.62,0.89-2.13,2.12c10.24,8.4,24.58,8.54,37.17,8.06c14.2-0.54,28.67-3.5,42.88-1.95c1.92,0.21,1.91-2.79,0.01-3
		c-1.28-0.14-2.57-0.23-3.85-0.3c0.4-4.68,0.67-11.62,0.8-17.36c7.19,12.32,15.27,24.1,24.28,35.14c0.08,0.45,0.34,0.84,0.82,1.01
		c0.01,0.02,0.03,0.04,0.04,0.06c0.65,0.79,1.59,0.62,2.16,0.07c8.14-0.03,16.14-2.9,23.73-5.56c10.33-3.62,19.4-9,29.11-13.93
		C301.34,456.92,301.29,455.72,300.71,455.04z M268.88,368.36c-0.1,17.77-1.04,35.53-2.12,53.26c-0.5,8.2-0.84,16.42-1.83,24.58
		c-1.01,8.33-2.37,16.64-2.43,25.04c-2.03,0.64-4.09,1.21-6.15,1.67c-1.07-1.15-2.12-2.31-3.15-3.5c0.09-0.2,0.13-0.43,0.13-0.69
		c-0.3-9.75,1.48-19.45,2.65-29.1c0.99-8.17,1.25-16.45,1.75-24.66c1.08-17.69,1.93-35.4,2.1-53.12
		c0.13-13.61-0.08-27.51-1.18-41.33c3.49,8.58,6.81,17.22,10,25.92C268.86,353.77,268.92,361.1,268.88,368.36z M252.17,305.12
		c0.84,1.93,1.68,3.87,2.5,5.81c1.93,17.06,2.29,34.38,2.17,51.26c-0.12,17.94-1.08,35.88-2.18,53.78
		c-0.51,8.28-0.86,16.58-1.86,24.82c-1.02,8.38-2.4,16.75-2.49,25.2c-1.86-2.28-3.65-4.62-5.37-7.01c0.01-9.84,1.77-19.63,3-29.38
		c1.09-8.66,1.45-17.44,2.05-26.14c1.3-18.76,2.37-37.53,2.75-56.32C253.02,333.3,252.99,319.18,252.17,305.12z M246.5,292.4
		c0.7,1.52,1.37,3.06,2.06,4.58c1.4,16.85,1.49,33.9,1.19,50.55c-0.34,19.02-1.52,38.03-2.83,57.02
		c-0.61,8.77-1.06,17.58-2.17,26.31c-1.01,7.99-2.31,15.97-2.7,24.01c-8.46-12.48-15.34-26.09-21.56-39.72
		c-0.71-1.55-1.38-3.12-2.07-4.68c0.16-0.26,0.26-0.58,0.23-0.95c-0.72-9.7,0.64-19.43,1.4-29.09c0.64-8.17,0.54-16.43,0.69-24.62
		c0.32-17.66,0.41-35.33-0.18-52.98c-0.97-28.86-3.52-58.96-12.94-86.56c2.33,3.4,4.47,6.74,6.27,9.9
		C226.03,247.5,236.26,270.1,246.5,292.4z M207.17,382.69c-0.1-7.51,0.68-15.04,1.12-22.53c0.47-8.13,0.2-16.33,0.18-24.48
		c-0.04-17.55-0.31-35.1-1.27-52.63c-1.6-29.3-4.86-59.86-15.4-87.58c2.95,3.58,6.07,7.5,9.13,11.53
		c12.61,30.12,15.49,63.97,16.66,96.28c0.65,17.87,0.46,35.77,0.13,53.64c-0.15,8.26-0.15,16.55-0.79,24.79
		c-0.58,7.32-1.42,14.64-1.45,21.97C212.55,396.76,209.79,389.75,207.17,382.69z M169.69,176.81c0.01-0.03,0.02-0.05,0.03-0.08
		c0.37-1.33,0.95-2.33,2.46-2.07c0.34,0.06,2.59,1.8,4.96,4.06c0.8,0.76,4,4.23,8.31,9.23c13.35,29.75,16.95,63.45,18.79,95.65
		c1.01,17.74,1.19,35.52,1.24,53.29c0.02,8.21,0.19,16.44-0.28,24.64c-0.26,4.48-0.63,8.96-0.84,13.43
		c-4-11.28-7.67-22.67-11.06-34.12c-14.66-49.42-23.07-100.57-25.27-152.04C168.45,184.79,168.99,180.78,169.69,176.81z
		 M172.04,287.46c-10.5,3.6-14.66-19.4-3.45-18.42c0.18,0.02,0.34,0,0.49-0.04C169.98,275.16,170.98,281.31,172.04,287.46z
		 M160.6,231.79c-1.89,1.75-4.16,3-6.47,4.11c-3.01,1.44-11.7,2.67-8.59-3.54c2.45-4.89,10.84-7.87,15.87-8.73
		c1.34-0.23,1.38-2.12,0.36-2.74c-4.72-2.89-9.45-7.21-11.99-12.16c-0.8-1.56-0.95-3.31,0.22-4.72c2.18-2.64,5.39-0.51,7.27,1.14
		c2.81,2.48,5.25,6.41,5.98,10.1c0.11,0.56,0.44,0.88,0.84,1.01c0.3,11.68,1.34,23.36,2.63,34.85c0.18,1.62,0.4,3.24,0.6,4.86
		c-9.25,1.57-7.55-17.06-4.37-22.35C163.86,232.12,161.83,230.65,160.6,231.79z M131.36,186.9c12.29,3.88,10.67,25.43-2.46,25.74
		c0.57-8.62,1.32-17.24,2.24-25.83C131.21,186.84,131.28,186.88,131.36,186.9z M134.88,269.55c1.11-2.01,2.22-3.99,3.49-5.91
		c0.77-1.17,1.65-2.17,2.64-3.15c2.18-2.18,4.15,0.26,3.45,2.6c-1.35,4.5-5.55,8.23-8.6,11.65c-0.68,0.76-0.53,2.31,0.66,2.51
		c5.01,0.85,17.6,4.48,15.97,11.36c-1.44,6.07-14.71-0.14-17.5-2.1c-1.3-0.92-2.72,0.81-2.06,2.05c2.82,5.22,5.32,10.5,5.82,16.5
		c0.26,3.11-0.34,7.61-3.11,9.6c-2.91,2.09-4.95-4.5-5.34-5.93c-0.09-0.34-0.26-0.59-0.48-0.76c-1.9-22.04-2.61-44.17-2.17-66.27
		c7.34,4.8,6.84,19.63,4.5,26.7C131.6,270.02,134.07,271.03,134.88,269.55z M123.85,318.77c-0.67-26.59-1.43-53.19-0.18-79.77
		c0.47-10.03,1.19-20.18,2.42-30.26c-3.13,40.32-2.79,80.72,2.03,121.05c3.1,25.93,7.61,53.41,14.17,78.7
		c4.66,17.97,11.45,34.87,20.17,51.42c-1.98-0.27-3.94-0.65-5.84-1.17C134.85,415.63,125.06,366.81,123.85,318.77z M143.69,379.65
		c4.72-0.4,12.52-1.5,16.38,1.81c3.82,3.28-7.14,4.9-8.2,4.98c-2.5,0.18-5.03,0.07-7.52-0.13c-1.27-0.1-2.04,1.73-1.07,2.56
		c2.31,1.96,4.48,4,6.46,6.3c1.31,1.52,2.31,3.25,3.03,5.11c1.01,2.61-1.56,10.98-5.5,4.78c-0.39-0.61-1-0.78-1.56-0.67
		c-2.64-10.21-4.92-20.52-6.9-30.9c0.03-0.11,0.05-0.23,0.06-0.37c0.13-2.41,1.06-4.78,2.03-6.96c0.77-1.71,5.19-9.06,6.82-4.05
		c1.46,4.5-3.22,11.48-5.32,15.26C141.89,378.31,142.51,379.75,143.69,379.65z M164.97,460.19l1.04,0
		c-2.11-3.9-4.03-7.89-5.82-11.95c0.11-0.27,0.12-0.59-0.04-0.96c-1.94-4.71-3.46-9.8-3.71-14.91c-0.12-2.51,0.85-5.33,3.37-6.35
		c1.68-0.68,2.87,2.68,3.28,3.73c2.63,6.76,3.62,15.38,3.61,22.62c0,1.93,3,1.94,3,0.01c0.01-5.31,7-18.07,13.34-16.61
		c7.68,1.76-4.8,17.53-7.4,19.88c-1.36,1.23,0.36,3,1.81,2.36c6.43-2.83,16.74-4.98,22.08,0.71c-5.05,0.47-10.09,1.01-15.08,1.33
		C178.37,460.44,171.57,460.82,164.97,460.19z M203.08,458.41c-0.99-1.47-2.17-2.65-3.5-3.55c0.02-0.06,0.05-0.12,0.07-0.2
		c1.87-7.3,10.15-12.03,17.44-10.65c-0.15,4.99-0.39,10.02-0.73,13.88C211.95,457.81,207.51,458.05,203.08,458.41z M217.17,441
		c-8.52-1.28-17.85,4-20.28,12.43c-4.56-1.8-10.13-1.4-15.17-0.05c5.09-6.47,10.82-16.92,2.9-20.18
		c-6.1-2.51-12.29,4.09-15.55,10.81c-0.29-2.19-0.65-4.38-0.99-6.5c-0.67-4.17-1.52-11-5.33-13.69c-3.29-2.32-7.71,0.96-8.72,4.33
		c-0.27,0.89-0.43,1.81-0.53,2.74c-2.46-7.23-4.61-14.56-6.58-21.87c3.24,2.32,7.12,0.62,8.93-3.97c2.17-5.52-2.84-11.4-7.25-15.49
		c6.11,0.16,14.98-0.55,14.94-6.57c-0.05-7.17-10.79-7.03-17.15-6.56c3.17-5.77,7.85-15.52,1.14-18.72
		c-4.5-2.14-8.06,3.45-10.01,8.73c-2.14-12.06-3.92-24.18-5.4-36.31c-0.59-4.85-1.11-9.72-1.59-14.58c2.17,2.47,5.13,3.54,8.27,0.29
		c6.03-6.23,2.65-16.65-0.97-24.27c5.79,2.69,13.74,4.33,17.08-1.05c4.97-7.99-7.97-13.69-15.11-15.6
		c3.98-4.19,10.29-10.98,7.57-15.89c-3.12-5.63-7.5-2.01-10.82,2.35c0.74-8.77-1.11-19.42-8.46-22.89
		c-0.12-0.06-0.24-0.09-0.36-0.12c0.19-7.58,0.53-15.16,1-22.73c16.76,0.14,18.92-26.74,3.45-31.62c-0.26-0.08-0.5-0.09-0.71-0.05
		c0.3-2.69,0.62-5.38,0.95-8.06c0.29-1.04,0.57-2.07,0.88-3.1c0.09-0.14,0.17-0.31,0.2-0.52c0.04-0.19,0.09-0.38,0.13-0.58
		c0.54-1.77,1.11-3.52,1.7-5.27c0.21-0.45,0.42-0.89,0.66-1.32c0.5-0.9,1.21-1.98,2.24-2.31c0.31-0.1,0.62-0.06,0.92,0.07
		c7.1,8.42,19.52,27.02,25.1,36.22c-0.16,3.44-0.24,6.88-0.24,10.33c-3.94-6.75-12.14-14.76-16.85-6.63
		c-3.83,6.61,4.19,14.38,10.18,18.71c-6.98,2.01-16.59,6.97-15.11,14.37c1.49,7.43,10.46,4.42,16.31,1.01
		c-2.35,9.29-0.99,24.18,9.18,22.13c0.3,2.35,0.62,4.69,0.96,7.03c-0.02,0-0.04-0.01-0.06-0.01c-15.65-1.36-10.51,29.01,3.96,24.4
		c1.36,7.73,2.81,15.45,4.29,23.16c-3.99-4.77-10.51-10.1-14.22-3.51c-3.29,5.82,4.79,13.15,9.66,17.56
		c-5.83,1.5-13.24,5.48-12.71,11.57c0.3,3.41,3.63,5.2,6.68,5.35c2.64,0.13,5.37-1.13,7.77-2.72c-1.39,5.41-1.87,11.33,2.32,15.42
		c3.64,3.55,7.16,1.33,9.26-2.03c2.19,8.55,4.69,17.05,7.51,25.45c-5.41-1.95-12.99-2.88-15.02,3.72c-1.89,6.16,5,9.07,10.35,10
		c-5.51,5.6-13.75,13.85-9.93,21.28c1.91,3.72,6.7,3.74,9.52,1.2c3.14-2.83,4.97-6.55,7.13-10.07c1.67,7.43,5.97,18.35,14.19,14.1
		c0.06-0.03,0.11-0.07,0.17-0.11c2.44,5,5.02,9.94,7.72,14.8C217.24,437.31,217.21,439.13,217.17,441z M175.72,336.82
		c-1.5,1.27-3.09,2.33-4.8,3.28c-2.71,1.51-10.71,2.35-7.89-3.29c1.92-3.83,8.45-6.34,12.43-6.77c1.23-0.13,2.08-1.56,1.07-2.56
		c-3.55-3.48-7.33-6.71-10.04-10.94c-0.86-1.33-1.6-2.96-1.37-4.59c0.5-3.54,4.66-1.06,6.07,0.05c2.25,1.78,4.15,4.2,5.67,6.62
		c0.28,0.45,0.69,0.66,1.1,0.69c0.89,4.59,1.79,9.19,2.68,13.78c1.13,5.83,2.41,11.66,3.82,17.46c-0.6,3.46-3.07,7.4-6.99,3.58
		c-1.59-1.55-1.43-4.21-1.37-6.22c0.11-3.26,1.11-6.56,2.12-9.65C178.72,336.75,176.79,335.91,175.72,336.82z M191.67,391.75
		c-3.49-0.1-11.6-1.21-10.67-6.54c0.97-5.5,10.1-2.3,12.92-1c0.16,0.07,0.31,0.11,0.47,0.13c4.01,11.52,8.63,22.83,13.87,33.83
		c-0.13,0.03-0.27,0.07-0.41,0.14c-6.7,3.46-9.83-11.45-10.43-15.79c-0.2-1.46-2.07-1.24-2.74-0.37c-1.91,2.52-3.31,5.42-5.01,8.08
		c-1.14,1.79-2.44,3.53-4.16,4.81c-2.56,1.92-4.88-0.64-4.96-3.18c-0.2-6.59,8.08-13.18,12.16-17.57
		C193.62,393.35,193,391.79,191.67,391.75z M246.78,473.93c-29.18-35.74-48.27-78.99-59.27-123.69c0.03-0.23,0.06-0.45,0.08-0.67
		c0.04-0.55-0.18-0.94-0.52-1.18c-1.39-5.78-2.66-11.57-3.78-17.38c-4.71-24.29-9.48-48.57-12.68-73.11
		c0.68-0.76,0.46-2.05-0.32-2.46c-0.13-1.02-0.27-2.04-0.4-3.06c-1.22-10.13-2.2-20.42-2.64-30.74
		c3.69,40.96,11.02,82.08,22.52,121.27c7.35,25.05,16.11,49.76,26.77,73.61c6.96,15.58,15.2,30.38,25.4,43.91c0,0.14,0,0.27,0,0.41
		c0.02,0.95,0.66,1.38,1.34,1.36c3.01,3.89,6.2,7.67,9.56,11.33C250.83,473.83,248.81,473.98,246.78,473.93z M272.54,467.72
		c-2.31,0.83-4.66,1.7-7.06,2.52c0.14-8.45,1.59-16.85,2.61-25.22c0.98-8.09,1.23-16.29,1.72-24.42c1.06-17.52,1.9-35.06,2.05-52.61
		c0.04-4.22,0.03-8.46-0.03-12.72c2.15,6.05,4.24,12.11,6.26,18.2c8.77,26.35,18.3,53.96,19.64,81.93
		C289.38,459.72,281.45,464.53,272.54,467.72z"/>
	<path className="st0" d="M144.46,329.32c-0.76-0.03-1.22,0.42-1.38,0.98c-1.89,1.1-2.97,3.12-3.06,5.41c-0.09,2.56,1.5,4.83,4.1,5.1
		c3.12,0.32,5.94-2.62,6.17-5.54C150.55,331.97,147.53,329.44,144.46,329.32z M144.13,337.8c-1.02-0.01-1.12-1.67-1.1-2.35
		c0.05-1.32,0.9-2.48,2.15-2.85c0.08-0.02,0.15-0.06,0.22-0.09c1.03,0.38,1.8,1.27,1.89,2.45
		C147.41,336.59,145.63,337.82,144.13,337.8z"/>
	<path className="st0" d="M200.35,425.97c-0.44-0.24-0.86-0.25-1.22-0.11c-0.27-0.11-0.58-0.14-0.94-0.05c-2.4,0.62-4.61,2.7-5.1,5.17
		c-0.6,3.05,2.13,5.25,4.94,5.45c2.48,0.17,4.37-2.01,4.92-4.23C203.57,429.78,202.56,427.19,200.35,425.97z M198.43,433.41
		c-1.08,0.3-2.61-0.73-2.38-1.9c0.27-1.36,1.66-2.47,2.94-2.8c0.02,0,0.03-0.01,0.05-0.02C200.63,429.82,200.5,432.85,198.43,433.41
		z"/>
	<path className="st0" d="M170.23,400.78c-0.22-0.42-0.64-0.73-1.25-0.75c-3.34-0.11-6.31,2.22-7.2,5.41c-0.97,3.46,1.91,6.19,5.19,6.5
		C173.3,412.54,175.78,403.12,170.23,400.78z M170.4,406.08c-0.22,1.44-1.27,2.81-2.79,2.9c-1.85,0.11-3.37-1.19-2.85-3.03
		c0.4-1.43,1.68-2.45,3.08-2.79c0.12,0.06,0.25,0.12,0.41,0.15C169.7,403.61,170.64,404.51,170.4,406.08z"/>
	<path className="st0" d="M169.97,359.34c-0.23-0.39-0.64-0.66-1.24-0.64c-3.14,0.11-6.22,2.37-6.5,5.66c-0.29,3.34,2.9,5.97,6.1,5.81
		c2.67-0.13,4.87-2.43,5.29-4.99C174.08,362.4,172.44,360.23,169.97,359.34z M168.72,367.08c-1.38,0.47-3.38-0.59-3.51-2.1
		c-0.14-1.59,1.29-2.78,2.73-3.15c0.12,0.06,0.24,0.12,0.39,0.15c1.41,0.33,2.44,1,2.37,2.55
		C170.65,365.64,169.73,366.73,168.72,367.08z"/>
</g>
</svg>
