<svg width="32" height="32" viewBox="0 0 32 32" fill="none" xmlns="http://www.w3.org/2000/svg">
<path d="M20 14.666V14.6794M6.89731 11.17C6.31251 10.7206 5.86337 10.1182 5.59952 9.42941C5.33568 8.74065 5.26741 7.99235 5.40226 7.26721C5.53711 6.54207 5.86983 5.86834 6.36365 5.32048C6.85746 4.77261 7.49314 4.37195 8.20042 4.16277C8.90771 3.95359 9.65906 3.94404 10.3714 4.13518C11.0838 4.32632 11.7295 4.7107 12.237 5.24585C12.7446 5.78099 13.0943 6.44605 13.2476 7.16752C13.4008 7.889 13.3516 8.63879 13.1053 9.33404" stroke="white" stroke-width="2.66667" stroke-linecap="round" stroke-linejoin="round"/>
<path d="M21.3333 5.33301V10.4037C22.9835 11.3585 24.2398 12.8696 24.8773 14.6663H26.6653C27.019 14.6663 27.3581 14.8068 27.6081 15.0569C27.8582 15.3069 27.9987 15.6461 27.9987 15.9997V18.6663C27.9987 19.02 27.8582 19.3591 27.6081 19.6091C27.3581 19.8592 27.019 19.9997 26.6653 19.9997H24.876C24.428 21.2663 23.6667 22.3997 22.6653 23.297V25.9997C22.6653 26.5301 22.4546 27.0388 22.0796 27.4139C21.7045 27.789 21.1958 27.9997 20.6653 27.9997C20.1349 27.9997 19.6262 27.789 19.2511 27.4139C18.8761 27.0388 18.6653 26.5301 18.6653 25.9997V25.2223C18.2247 25.2961 17.7788 25.3332 17.332 25.333H11.9987C11.5519 25.3332 11.1059 25.2961 10.6653 25.2223V25.9997C10.6653 26.5301 10.4546 27.0388 10.0796 27.4139C9.70448 27.789 9.19577 27.9997 8.66534 27.9997C8.13491 27.9997 7.6262 27.789 7.25113 27.4139C6.87606 27.0388 6.66534 26.5301 6.66534 25.9997V23.333L6.66668 23.297C5.45871 22.217 4.60716 20.7957 4.22473 19.2211C3.8423 17.6466 3.94702 15.993 4.52502 14.4793C5.10303 12.9655 6.12708 11.663 7.46163 10.744C8.79619 9.82506 10.3783 9.33302 11.9987 9.33301H15.332L21.332 5.33301H21.3333Z" stroke="white" stroke-width="2.66667" stroke-linecap="round" stroke-linejoin="round"/>
</svg>
