<svg width="32" height="32" viewBox="0 0 32 32" fill="none" xmlns="http://www.w3.org/2000/svg">
<path d="M12 6.6665H9.33335C8.62611 6.6665 7.94783 6.94746 7.44774 7.44755C6.94764 7.94765 6.66669 8.62593 6.66669 9.33317V25.3332C6.66669 26.0404 6.94764 26.7187 7.44774 27.2188C7.94783 27.7189 8.62611 27.9998 9.33335 27.9998H22.6667C23.3739 27.9998 24.0522 27.7189 24.5523 27.2188C25.0524 26.7187 25.3334 26.0404 25.3334 25.3332V9.33317C25.3334 8.62593 25.0524 7.94765 24.5523 7.44755C24.0522 6.94746 23.3739 6.6665 22.6667 6.6665H20" stroke="white" stroke-width="2.66667" stroke-linecap="round" stroke-linejoin="round"/>
<path d="M17.3333 4H14.6667C13.1939 4 12 5.19391 12 6.66667C12 8.13943 13.1939 9.33333 14.6667 9.33333H17.3333C18.8061 9.33333 20 8.13943 20 6.66667C20 5.19391 18.8061 4 17.3333 4Z" stroke="white" stroke-width="2.66667" stroke-linecap="round" stroke-linejoin="round"/>
<path d="M18.6667 14.6668H15.3334C14.8029 14.6668 14.2942 14.8775 13.9192 15.2526C13.5441 15.6277 13.3334 16.1364 13.3334 16.6668C13.3334 17.1973 13.5441 17.706 13.9192 18.081C14.2942 18.4561 14.8029 18.6668 15.3334 18.6668H16.6667C17.1971 18.6668 17.7058 18.8775 18.0809 19.2526C18.456 19.6277 18.6667 20.1364 18.6667 20.6668C18.6667 21.1973 18.456 21.706 18.0809 22.081C17.7058 22.4561 17.1971 22.6668 16.6667 22.6668H13.3334M16 22.6668V24.0002M16 13.3335V14.6668" stroke="white" stroke-width="2.66667" stroke-linecap="round" stroke-linejoin="round"/>
</svg>
