<svg width="32" height="32" viewBox="0 0 32 32" fill="none" xmlns="http://www.w3.org/2000/svg">
<path d="M19.7333 11.9989C19.4918 11.5799 19.1409 11.2345 18.7181 10.9996C18.2953 10.7648 17.8167 10.6493 17.3333 10.6656H16M12.24 12.2269C12.055 12.6331 11.9749 13.0793 12.0071 13.5245C12.0392 13.9696 12.1826 14.3996 12.4241 14.775C12.6656 15.1504 12.9975 15.4592 13.3893 15.673C13.7811 15.8868 14.2203 15.9989 14.6667 15.9989H16M19.7653 19.7616C19.5542 20.2298 19.2125 20.627 18.781 20.9057C18.3496 21.1843 17.8469 21.3324 17.3333 21.3322H14.6667C14.1833 21.3485 13.7046 21.233 13.2819 20.9982C12.8591 20.7633 12.5082 20.4179 12.2667 19.9989" stroke="white" stroke-width="2.66667" stroke-linecap="round" stroke-linejoin="round"/>
<path d="M26.7227 21.393C27.8587 19.1381 28.2546 16.5824 27.8539 14.0896C27.4533 11.5967 26.2766 9.29372 24.4913 7.50838C22.7059 5.72305 20.4029 4.54633 17.9101 4.14569C15.4172 3.74506 12.8615 4.14094 10.6067 5.27697M7.516 7.51297C6.38658 8.62371 5.48826 9.94707 4.87284 11.4067C4.25743 12.8664 3.93711 14.4334 3.93035 16.0175C3.92359 17.6016 4.23053 19.1713 4.83346 20.6362C5.4364 22.101 6.32339 23.432 7.44329 24.5523C8.56319 25.6727 9.89382 26.5602 11.3584 27.1637C12.823 27.7672 14.3927 28.0748 15.9767 28.0686C17.5608 28.0625 19.128 27.7428 20.5879 27.1279C22.0478 26.5131 23.3715 25.6153 24.4827 24.4863M16 7.99964V10.6663M16 21.333V23.9996M4 3.99964L28 27.9996" stroke="white" stroke-width="2.66667" stroke-linecap="round" stroke-linejoin="round"/>
</svg>
