<svg width="24" height="24" viewBox="0 0 24 24" fill="none" xmlns="http://www.w3.org/2000/svg">
<path d="M14.8 8.99918C14.6189 8.68494 14.3557 8.42588 14.0386 8.24973C13.7215 8.07358 13.3625 7.98698 13 7.99918H12M9.18002 9.17018C9.04126 9.47483 8.9812 9.80944 9.00532 10.1433C9.02945 10.4772 9.13701 10.7997 9.31813 11.0813C9.49926 11.3628 9.74815 11.5944 10.042 11.7547C10.3359 11.9151 10.6653 11.9992 11 11.9992H12M14.824 14.8212C14.6657 15.1723 14.4094 15.4703 14.0858 15.6793C13.7622 15.8882 13.3852 15.9993 13 15.9992H11C10.6375 16.0114 10.2785 15.9248 9.96144 15.7486C9.64437 15.5725 9.38118 15.3134 9.20002 14.9992" stroke="white" stroke-width="2" stroke-linecap="round" stroke-linejoin="round"/>
<path d="M20.042 16.0446C20.894 14.3535 21.1909 12.4367 20.8905 10.5671C20.59 8.69741 19.7075 6.97017 18.3685 5.63117C17.0295 4.29216 15.3022 3.40962 13.4326 3.10915C11.5629 2.80868 9.64614 3.10558 7.95501 3.95761M5.63701 5.63461C4.78995 6.46766 4.11621 7.46018 3.65465 8.55492C3.19309 9.64966 2.95284 10.825 2.94777 12.013C2.94271 13.2011 3.17291 14.3784 3.62511 15.477C4.07731 16.5756 4.74256 17.5739 5.58248 18.4141C6.4224 19.2544 7.42038 19.92 8.51884 20.3726C9.6173 20.8253 10.7945 21.0559 11.9826 21.0513C13.1706 21.0467 14.346 20.807 15.4409 20.3458C16.5358 19.8847 17.5286 19.2113 18.362 18.3646M12 5.99961V7.99961M12 15.9996V17.9996M3.00001 2.99961L21 20.9996" stroke="white" stroke-width="2" stroke-linecap="round" stroke-linejoin="round"/>
</svg>
