<svg width="32" height="32" viewBox="0 0 32 32" fill="none" xmlns="http://www.w3.org/2000/svg">
<path d="M12 16.0002L14.6667 18.6668L20 13.3335" stroke="white" stroke-width="2.66667" stroke-linecap="round" stroke-linejoin="round"/>
<path d="M15.9999 4C19.1144 6.75543 23.1792 8.19009 27.3333 8C27.9381 10.0574 28.1231 12.2153 27.8774 14.3456C27.6318 16.4759 26.9604 18.535 25.9031 20.4007C24.8459 22.2664 23.4245 23.9005 21.7232 25.206C20.022 26.5114 18.0757 27.4616 15.9999 28C13.9242 27.4616 11.9779 26.5114 10.2767 25.206C8.57542 23.9005 7.15395 22.2664 6.09674 20.4007C5.03952 18.535 4.36812 16.4759 4.12244 14.3456C3.87676 12.2153 4.06182 10.0574 4.66661 8C8.82065 8.19009 12.8855 6.75543 15.9999 4" stroke="white" stroke-width="2.66667" stroke-linecap="round" stroke-linejoin="round"/>
</svg>
