<?xml version="1.0" encoding="utf-8"?>
<!-- Generator: Adobe Illustrator 24.2.3, SVG Export Plug-In . SVG Version: 6.00 Build 0)  -->
<svg version="1.1" id="Layer_1" xmlns="http://www.w3.org/2000/svg" xmlns:xlink="http://www.w3.org/1999/xlink" x="0px" y="0px"
	 viewBox="0 0 700 700" style="enable-background:new 0 0 700 700;" xml:space="preserve">
<style type="text/css">
	.st0{fill:#F9834E;}
</style>
<path className="st0" d="M502.44,237.19c0.5-2.44-0.74-5.39-3.7-8.78c-1.37-5.04-3.38-9.97-5.5-15c-4.21-9.99-10.45-19.55-16.58-28.4
	c-11.21-16.19-24.22-31.87-43.28-36.94c-0.35-0.09-0.7-0.1-1.05-0.03c-2.95-2.42-5.7-4.46-8.44-6.26
	c-5.63-3.7-12.95-7.95-19.64-7.94c-0.33,0-0.65,0.01-0.97,0.03c-8.17-7.55-16.82-12.11-25.71-13.56c-2.49-0.4-4.98-0.61-7.4-0.61
	c-5.8,0-11.39,1.13-17.09,3.46c-0.12-0.13-0.25-0.25-0.39-0.34c-4.34-2.95-10.16-4.38-17.8-4.38c-3.21,0-6.41,0.25-8.84,0.47
	c-11.96,1.07-22.42,3.37-31.98,7.05c-0.18,0.07-0.36,0.15-0.53,0.23c-0.12,0.05-0.24,0.11-0.36,0.16c-1.74-0.44-3.59-0.66-5.52-0.66
	c-6,0-12.03,2.09-17.7,4.23c-9.6,3.62-25.6,13.4-33.47,19.07c-9.06,6.53-17.06,16.59-23.68,25.57c-4.95,6.72-9.28,15.18-12.85,25.14
	l-0.02,0.05c-0.08,0.18-0.39,0.59-0.66,0.96c-0.33,0.45-0.68,0.92-0.81,1.21c-4.36,9.27-5.3,17.83-5.38,27.83
	c-0.06,7.69,2.67,15.74,7.31,21.53c3.28,4.1,7.35,6.18,12.09,6.18c4.84,0,10.22-2.24,15.19-6.32c-0.87,8.86,2.08,17.56,8.33,24.56
	c7.16,8.02,17.63,12.81,27.99,12.81c8.98,0,16.81-3.55,22.66-10.25c0.46,0.26,0.98,0.38,1.46,0.33c4.41,12.99,15.23,24.43,29,30.66
	l-43,195.57c-1.74,0.48-3.12,1.01-4.32,1.67c-1.09-0.05-2.45,0.55-2.61,2c-2.14,18.83-10.58,54.92-11.76,59.37
	c-0.26-0.38-0.46-0.76-0.59-1.15c-0.41-1.18-1.47-1.61-2.31-1.6c-0.78,0-1.5,0.34-1.88,0.88c-0.24,0.34-0.46,0.91-0.18,1.73
	c3.06,8.75,17.24,11.85,28.45,11.85c2.52,0,4.89-0.16,6.87-0.45c1.38-0.2,1.8-1.29,1.73-2.17c-0.09-1.19-1.05-2.45-2.67-2.22
	c-1.34,0.2-2.76,0.29-4.34,0.29h-0.06c0.14-0.64,0.42-1.87,0.78-3.5c1.56-7.03,4.81-21.66,6.2-26.47c0.77-2.66,1.61-5.33,2.43-7.91
	c2.22-7.02,4.52-14.28,5.4-21.83c0.78-0.81,0.81-2.08,0.06-3.04c-0.02-0.03-0.05-0.06-0.07-0.08l-0.03-0.03
	c-0.14-0.26-0.32-0.46-0.49-0.59c-1.16-1.37-2.43-2.54-3.75-3.45l42.74-194.39c1.33,0.12,2.66,0.18,3.95,0.18
	c14.3,0,25.62-7.09,31.93-19.99c5.11,17.18,24.1,27.42,39.68,27.42c0.27,0,0.55,0,0.82-0.01c8.43-0.19,16.19-3.61,22.45-9.89
	c5.57-5.6,9.62-13.19,11.45-21.43c2.57,4.52,6.19,7.69,10.78,9.43c2.03,0.77,4.25,1.16,6.6,1.16h0c5.05,0,10.92-1.85,16.53-5.21
	C495.7,284.72,504.95,256.7,502.44,237.19z M471.1,184.8c5.62,7.83,10.72,16.02,15.15,24.35c2.14,4.02,3.98,8.32,5.47,12.79
	c-2.08-1.64-4.02-3.01-5.33-3.94l-0.37-0.26c-1.11-0.78-2.29-1.58-3.52-2.37c-5.24-20.43-20.35-37.59-34.1-52.06
	c-2.75-2.89-5.13-5.31-7.41-7.51C453.8,162.25,463.38,174.04,471.1,184.8z M478.73,219.07c-0.04,0.94-0.12,2.01-0.18,2.86
	c-0.06,0.87-0.09,1.33-0.08,1.42c-1.89,9.69-10.69,14.03-18.58,14.04c-6.28,0-12.36-2.54-16.68-6.96
	c-6.91-7.09-10.07-18.6-9.64-35.17c3.12,1.34,6.24,2.72,9.28,4.1c9.51,4.33,18.9,9.5,27.99,14.51l2.34,1.29
	c1.72,0.94,3.48,1.97,5.38,3.14C478.61,218.55,478.67,218.81,478.73,219.07z M424.22,147.4l0.95,0.67
	c7.97,5.59,14.83,12.87,21.47,19.9l1.54,1.63c10.33,10.93,22.88,25.58,28.58,42.33c-3.88-2.22-7.92-4.31-11.83-6.33
	c-2.81-1.46-5.72-2.96-8.53-4.5c-7.07-3.85-14.68-7.56-22.63-11.02c0.1-16-9.06-29.79-18.45-42.55c-2.36-3.21-4.8-6.19-7.26-8.86
	C413.73,140.01,419.77,144.27,424.22,147.4z M370.16,124.19c2.81,0,5.67,0.3,8.5,0.89c14.32,3.01,24.68,14.31,32.11,23.83
	c9.19,11.77,17.78,24.67,18.45,39.23c-19.9-8.3-42.55-15.4-67.33-21.13c-13.93-3.22-27.9-5.31-41.51-6.22
	c2.51-8.1,8.93-16.21,19.61-24.77C349.8,128.18,359.95,124.2,370.16,124.19z M327.46,264.26c-0.26,0-0.52,0-0.78,0.01
	c-0.12-0.68,0.01-1.27,0.39-1.75c0.8-1,2.76-1.57,5.37-1.57c1.77,0,3.61,0.27,4.59,0.68c1.88,0.78,7.41,3.84,7.66,6.3
	c0.07,0.68-0.27,1.25-1.03,1.76c-0.06,0.04-0.11,0.08-0.16,0.12C339.05,266.33,333.07,264.26,327.46,264.26z M338.38,271.68
	l-0.53,2.43c-2.87-1.58-5.35-2.49-7.76-2.86l0.49-2.24C333.38,269.44,336.07,270.36,338.38,271.68z M250.31,171.93
	c-0.01-0.02-0.01-0.05-0.02-0.07c0-0.01,0.01-0.02,0.01-0.04c5.57-1.71,11.75-3.14,18.9-4.36c11-1.88,22.52-2.84,34.25-2.84
	c3.24,0,6.55,0.07,9.85,0.22c-13.17,22.4-26.42,35.39-40.52,39.71c-2.14,0.65-4.31,0.98-6.45,0.98c-7.39,0-13.01-3.83-15.02-10.24
	c-1.81-5.76-1.48-12.15-1.16-18.33c0.08-1.56,0.16-3.17,0.2-4.71C250.36,172.14,250.33,172.03,250.31,171.93z M316.86,192.07
	c-3.86,7.98-7.16,15.03-10.06,21.53c-3.94-6.28-7.89-12.37-11.77-18.1l0.04-0.04c0.22-0.2,0.44-0.41,0.65-0.62
	c6.7-6.41,13.06-14.34,18.9-23.58C314.11,178.9,314.87,185.9,316.86,192.07z M319.13,197.65c1.07,2.2,2.32,4.29,3.7,6.2
	c0.66,5.98,1.13,12.08,1.58,17.98c0.66,8.57,1.34,17.41,2.61,26.06c-5.67-10.2-11.5-20.19-17.36-29.7
	C312.44,211.86,315.54,205.14,319.13,197.65z M291.7,198.53c12.05,17.91,23.66,37.22,35.5,59.02c-0.92,0.35-1.73,0.8-2.43,1.33
	c-6.11-12.54-13.89-24.54-21.41-36.15c-4.97-7.67-9.67-14.92-13.91-22.3C290.18,199.82,290.94,199.18,291.7,198.53z M327.09,208.76
	c1.15,1.1,2.4,2.17,3.74,3.18c0.25,3.53,0.46,7.12,0.67,10.59c0.67,11.21,1.36,22.81,3.37,34.08c-0.59-0.06-1.2-0.09-1.81-0.09
	c-0.23,0-0.47,0-0.7,0.01c-2.42-11.74-3.41-24.43-4.37-36.7C327.71,216.18,327.42,212.41,327.09,208.76z M353.51,224.98l-0.54-0.33
	c-3.08-1.87-6.57-3.98-10.04-4.02c0.16-0.54,0.34-1.13,0.54-1.77c3.28,1.29,6.92,2.42,10.81,3.35
	C354.01,223.15,353.75,224.08,353.51,224.98z M355.31,236.61c1.01-4.43,2.05-9.01,3.36-13.44c4.52,0.87,9.15,1.43,13.79,1.67
	c-0.22,4.17-0.45,8.34-0.69,12.51c-9.07,7.64-16.27,13.57-21.43,17.62C352.5,248.97,353.93,242.69,355.31,236.61z M350.96,228.61
	c0.48,0.31,0.95,0.61,1.41,0.88c-0.38,1.58-0.76,3.2-1.13,4.82c-3.61-2.25-7.21-3.7-10.69-4.29c0.38-1.58,0.75-3.15,1.14-4.72
	c0.38-0.09,0.78-0.14,1.2-0.14C345.53,225.16,348.42,226.99,350.96,228.61z M350.17,238.98c-0.4,1.73-0.8,3.41-1.19,5
	c-3.24-1.51-7-3.09-10.86-3.09c-0.16,0-0.32,0-0.48,0.01c0.04-0.09,0.07-0.18,0.1-0.28c0.57-1.8,1.1-3.73,1.74-6.25
	C342.87,234.89,346.37,236.4,350.17,238.98z M336.36,228.07c-0.17-2.55-0.33-5.08-0.49-7.59c-0.12-1.83-0.23-3.64-0.35-5.44
	c1.22,0.71,2.47,1.37,3.74,1.98C338.12,220.65,337.23,224.42,336.36,228.07z M339.25,255.54c2.03,0.72,3.82,1.9,5.34,2.95
	c0,0,0,0,0,0l-0.09,0.23c-0.08,0.2-0.16,0.41-0.24,0.61c-0.04,0.1-0.07,0.2-0.09,0.29c-0.27,0.19-0.52,0.36-0.76,0.53
	c-1.19-0.85-2.48-1.62-3.75-2.23C339.52,257.13,339.38,256.34,339.25,255.54z M339.01,250.78c-0.16-0.03-0.32-0.05-0.49-0.06
	c-0.25-1.81-0.47-3.6-0.67-5.33c3.56,0.01,7.03,1.66,9.83,2.98c0.06,0.03,0.11,0.05,0.16,0.07c-0.54,2-1.08,3.81-1.63,5.52
	C344.36,252.76,341.9,251.34,339.01,250.78z M394.15,223.44c1.4-0.27,2.78-0.57,4.11-0.9c-11.92,10.8-41.12,35.69-49.92,41.64
	c-0.16,0.11-0.32,0.24-0.46,0.39c-0.38-0.58-0.86-1.17-1.41-1.76C357.39,254.85,384.43,232.24,394.15,223.44z M376.5,233.36
	c0.15-2.8,0.31-5.6,0.46-8.4c3.37,0.03,6.72-0.13,9.95-0.46l-0.13,0.11C384.12,226.87,380.52,229.94,376.5,233.36z M375.11,257.13
	l0.57-9.73c14.19-11.73,27.8-23.41,32.39-27.79c0.18-0.17,0.3-0.34,0.37-0.52c2.25-0.98,4.41-2.09,6.42-3.32
	c11.71,19.03,20.17,40.58,25.17,64.07c-11.71,2.52-23.26,2.87-34,2.87c-3.33,0-6.73-0.04-10.02-0.07l-3.2-0.04
	c-1.22-0.01-2.44-0.02-3.65-0.02c-3.62,0-7.28,0.05-10.8,0.1c-1.58,0.02-3.15,0.04-4.73,0.06
	C374.11,274.22,374.62,265.53,375.11,257.13z M377.74,220.43c-6.56,0-13.44-0.68-19.92-1.97c-13.23-2.63-23.46-8.01-30.39-15.99
	c-2.58-2.97-4.6-6.46-6-10.36c-0.03-0.22-0.11-0.43-0.19-0.57c-2.47-7.24-2.95-16.11-1.45-26.34c13.09,0.93,26.79,2.98,40.73,6.09
	c22.26,4.97,45.16,12.32,68.06,21.85C419.38,216.87,392.8,220.43,377.74,220.43z M293.65,131.01c0.54-0.01,1.05-0.23,1.44-0.62
	c9.16-3.88,19-5.53,26.55-6.53c3.92-0.52,8.48-1.07,12.97-1.07c5.65,0,10.11,0.86,13.64,2.64c-3.21,1.67-6.41,3.68-9.76,6.13
	c-6.85,5-18.88,15.39-22.67,29c-3.88-0.19-7.8-0.28-11.63-0.28c-12.97,0-25.9,1.09-38.41,3.23c-4.5,0.77-9.03,1.8-13.47,3.07
	c3.28-6.42,9.15-12.12,13.89-16.72l0.09-0.09C274.61,141.69,283.56,135.55,293.65,131.01z M212.47,182.27
	c5.13-8.03,13.89-19.15,21.88-25.93c7.43-6.29,22.71-15.66,30.89-19.53c5.06-2.39,12.61-5.95,19.74-6.61
	c-7.67,4.19-15.19,9.9-22.96,17.44c-6.31,6.12-12.53,12.87-15.33,20.68c-7.26,2.49-14.04,5.63-20.15,9.35
	c-5.82,3.54-13.16,8.24-18.96,13.62C209.12,187.97,210.72,185.01,212.47,182.27z M203.89,202.32l0.07-0.03l0.03-0.07
	c3.84-8.63,18.06-16.83,26.56-21.74l1.41-0.81c4.06-2.35,8.39-4.36,13.23-6.13c-1.39,3.73-2.58,7.57-3.74,11.3
	c-1.68,5.39-3.41,10.97-5.75,16.24c-2.72,6.11-6.31,10.66-10.69,13.53c-1.98,1.29-4.34,1.98-6.82,1.98c-4.53,0-9.26-2.28-12.07-5.81
	C204.05,208.18,203.26,205.18,203.89,202.32z M227.55,244.87c-0.2,0.33-0.4,0.65-0.59,0.98c-4.31,4.22-9.37,6.64-13.89,6.64
	c-4.8,0-8.77-2.71-11.47-7.83c-4.24-8.05-4.1-25.5-2.16-34.18c0.88,2.88,2.65,5.42,5.24,7.56c0.46,0.38,1.01,0.73,1.74,1.1
	c3.19,8.44,10.22,16.67,21.49,25.15L227.55,244.87z M211.79,220.65c0.91,0.1,1.87,0.16,2.86,0.16c5.74,0,12.07-1.77,15.39-4.29
	c8.92-6.78,12.48-18.35,15.49-28.8c0.22,4.04,0.85,7.34,1.97,10.29c1.64,4.33,4.45,7.52,8.34,9.47
	c-8.69,8.47-16.84,18.99-25.63,33.06C221.26,233.96,215.07,227.27,211.79,220.65z M263.77,284.04c-9.67,0-19.5-4.86-25.63-12.69
	c-5.4-6.89-7.29-15.26-5.32-23.61c15.1,10.42,33.27,19.03,52.56,24.92C280.22,280,272.56,284.04,263.77,284.04z M287.16,268.48
	c-16.67-5.25-32.41-12.37-46.8-21.17c-2.27-1.39-4.45-2.79-6.49-4.18c9.07-14.56,17.05-24.81,25.87-33.22
	c0.26-0.24,0.44-0.53,0.56-0.84c2.47,0.58,5.28,0.82,8.28,0.7c5.72-0.22,11.57-2.53,17.9-7.09c4.5,8.32,9.74,16.38,14.73,23.92
	C295,241.7,290.4,255.4,287.16,268.48z M304.21,231.14c7,10.58,13.2,20.23,18.25,30.88c-0.46,1.49-0.32,3.19,0.42,5.04
	c0.19,0.49,0.51,0.85,0.92,1.06c0.33,0.44,0.83,0.67,1.44,0.67c0.07,0,0.14,0,0.21-0.01c0.16-0.01,0.33-0.02,0.5-0.02
	c0.03,0,0.06,0,0.09,0l-2.05,9.34c-9.08-1.92-18.62-4.34-30.89-7.83c-0.33-0.09-0.65-0.19-0.98-0.3c-0.22-0.07-0.44-0.14-0.66-0.2
	C294.47,257.63,298.64,244.99,304.21,231.14z M291.59,274.5c11.24,3.23,21.53,5.81,31.46,7.89l-4.92,22.4
	C304.86,298.37,294.97,287.09,291.59,274.5z M285.12,537.53c-0.64,2-1.31,4.06-1.94,6.1c-2.04,6.65-3.49,13.6-4.89,20.33
	c-0.74,3.53-1.5,7.19-2.34,10.74c0,0.02-0.01,0.04-0.01,0.06c-2.07-0.22-4.3-0.57-7-1.11l-0.22-0.04c-2.56-0.51-6.42-1.28-9.49-2.79
	c5.37-16.77,8.12-34.41,10.78-51.47c0.36-2.33,0.73-4.67,1.1-7c4.06,2.76,9.99,4.47,15.54,4.47c0,0,0,0,0,0
	c1.37,0,2.7-0.1,3.94-0.31C289.58,523.73,287.32,530.74,285.12,537.53z M285.47,512.29c-2.73-0.13-5.49-0.72-8.01-1.7l51.66-234.95
	c2.86,0.37,5.39,1.67,7.71,3.05L285.47,512.29z M337.71,309.57c-1,0-2.02-0.04-3.04-0.12l5.27-23.97c10.25,1.52,20.1,1.76,27.6,1.8
	C362.5,301.66,351.91,309.57,337.71,309.57z M370.76,254.68c-0.54,9.21-1.11,18.74-1.63,28.11c-0.46,0-0.92,0-1.38,0
	c-6.66,0-15.47-0.15-24.52-1.34c-0.66-0.09-1.32-0.19-1.97-0.29l-0.36-0.05l1.46-6.64c0.81,0.33,1.81,0.14,2.51-0.48
	c0.31-0.04,0.61-0.16,0.9-0.35c2.3-1.54,3.45-3.34,3.42-5.36c0.14-0.06,0.27-0.14,0.41-0.23c3.39-2.29,10.97-8.24,21.37-16.77
	L370.76,254.68z M408.45,316.89c-0.21,0-0.43,0.01-0.64,0.01c-15.85,0-31.67-12.45-34.56-27.19c0.05-0.81,0.09-1.62,0.14-2.43
	c2.4-0.02,4.81-0.05,7.23-0.08c3.74-0.05,7.61-0.09,11.46-0.09l0.53,0c1.42,0,2.83,0,4.23,0.01c1.71,0,3.42,0.01,5.11,0.01
	c12.3,0,25.41-0.22,38.46-2.84C438.84,300.21,427.41,316.47,408.45,316.89z M444.4,278.81c-5.13-24.1-13.81-46.14-25.81-65.53
	c4.3-3.21,7.86-7.03,10.59-11.37c0.86,18.81,7.13,31.42,18.64,37.5c3.77,1.99,7.74,3,11.8,3c7.59,0,14.69-3.61,19.13-9.67
	c0.31,9.37,1.1,18.47,6.48,26.94c0.2,0.31,0.4,0.59,0.6,0.85l0.01,0.02c-0.59,0.42-1.17,0.84-1.75,1.26
	c-4.13,2.99-8.04,5.82-12.74,7.75c-8.77,3.6-17.06,6.48-25.34,8.82c-0.42,0.12-0.85,0.23-1.27,0.34L444.4,278.81z M479.97,288.34
	c-5.59,5-12.71,7.82-19.49,7.64c-8.95-0.22-12.99-8.1-14.62-12.93l0.09-0.02c0.35-0.08,0.69-0.17,1.04-0.26
	c8.36-2.22,16.54-5.29,24.13-8.29c6.32-2.49,11.4-6.1,16.77-9.92l1.2-0.85c1.61,0.96,3.26,1.16,4.81,0.58
	C491.02,274.33,486.09,282.86,479.97,288.34z M496.96,255.53c-0.87,2.36-2,3.56-3.37,3.56c-3.4,0-7.68-7.45-8.75-10.62
	c-1.93-5.68-1.89-12.24-1.86-18.58c0.01-2.48,0.03-4.83-0.07-7.09c0.08-0.47,0.14-0.98,0.2-1.57c1.17,0.8,2.2,1.53,3.15,2.24
	c2.12,1.57,10.29,8.25,11.51,12.15l0.01,0.05C499.01,241.69,497.18,254.88,496.96,255.53z"/>
</svg>
