<?xml version="1.0" encoding="utf-8"?>
<!-- Generator: Adobe Illustrator 24.2.3, SVG Export Plug-In . SVG Version: 6.00 Build 0)  -->
<svg version="1.1" id="Layer_1" xmlns="http://www.w3.org/2000/svg" xmlns:xlink="http://www.w3.org/1999/xlink" x="0px" y="0px"
	 viewBox="0 0 1920 1920" style="enable-background:new 0 0 1920 1920;" xml:space="preserve">
<style type="text/css">
	.st0{fill:#F5834F;}
</style>
<g>
	<g>
		<path className="st0" d="M579.55,1230.25c-5.23-23.99-29.86-37.54-48.42-51c6.43-17.29,15.79-34.19,13.41-53.04
			c-0.18-1.46-1.39-2.21-2.56-2.26c-0.38-0.12-0.82-0.15-1.3-0.03c-23.87,5.96-44.82,20.42-63.59,36.21
			c-12.63-2.72-25.71-3.71-38.56-3.92c-15.53-0.25-32.18,0.81-46.58,7.11c-1.74-0.64-4.1,1.35-2.97,3.53
			c7.42,14.36,22.06,20.51,33.84,30.5c-17.8,13.53-37.89,29.44-40.05,51.61c-0.14,1.42,1.23,2.24,2.42,2.39
			c12.92,1.56,24.09-3.89,35.42-9.35c10.94-5.27,28.55-12.8,37.12-0.01c0.39,0.59,0.76,1.23,1.11,1.9c0.07,0.62,0.33,1.1,0.71,1.44
			c5.79,12.74,6.79,36.67,22.13,39.63c12.31,2.37,20.2-17.98,23.73-26.23c3.9-9.12,7.1-18.56,9.91-28.1
			c12.06,2.36,57.2,17.89,62.26,2.58C578.8,1232.93,579.9,1231.83,579.55,1230.25z M573.44,1230.11c-0.1,0.25-0.18,0.51-0.2,0.81
			c-0.66,10.16-46.22-2.85-56.6-4.93c0.87-3.1,1.69-6.2,2.5-9.31c-1.59-0.3-3.21-0.44-4.85-0.46
			c-5.14,18.94-22.17,75.89-36.39,60.97c-8.53-8.95-8.67-24.19-14.37-35.12c-0.72-9.15-5.21-18.08-13.26-22.86
			c-2.67-1.58-5.06,2.59-2.4,4.16c4.08,2.42,7.02,6.18,8.82,10.46c-0.97-0.71-2.03-1.36-3.19-1.93c-8.63-4.22-19.99-0.62-28.22,2.71
			c-12.48,5.06-23.65,12.7-37.4,12.12c2.2-12.83,12.34-23.15,21.47-31.71c8.93-8.37,18.88-15.54,28.41-23.19
			c2.41-1.94-1.03-5.29-3.42-3.37c-2.4,1.93-4.96,3.89-7.61,5.91c-10.66-9.2-24.22-15.05-31.93-27.09
			c13.57-5.8,29.23-6.36,43.76-6.27c11.27,0.06,22.76,0.92,33.92,3.05c-1.29,1.12-2.58,2.24-3.85,3.37
			c-2.32,2.06,1.11,5.42,3.42,3.38c19.74-17.46,42.1-34.68,67.94-41.71c1.09,17.32-7.6,33.13-13.6,49.22
			c-0.31,0.42-0.51,0.94-0.55,1.48c-0.91,2.51-1.74,5.04-2.45,7.57c-0.84,2.99,3.81,4.22,4.64,1.24c0.44-1.56,0.92-3.12,1.44-4.67
			c16.78,12.03,38.74,24.31,44.77,45C573.85,1229.23,573.58,1229.65,573.44,1230.11z"/>
		<path className="st0" d="M431.79,1211.33c-2.9-1.94-6.29-3.11-9.73-1.99c-3.43,1.11-5.33,4.39-6.57,7.54
			c-1.14,2.88,3.52,4.09,4.64,1.25c0.72-1.83,1.8-3.69,3.77-4.33c1.91-0.62,3.99,0.69,5.5,1.7
			C431.97,1217.22,434.35,1213.04,431.79,1211.33z"/>
		<path className="st0" d="M448.1,1190.51c-3.7-0.35-6.14,2.64-7.69,5.61c-1.43,2.75,2.73,5.15,4.16,2.4c0.62-1.2,1.49-3.19,3.07-3.25
			c1.82-0.07,3.85,2.79,4.8,4c1.88,2.41,6.04-0.01,4.13-2.45C454.45,1194.1,451.81,1190.86,448.1,1190.51z"/>
		<path className="st0" d="M412.11,1229.63c-5.06-0.87-9.75,1.23-10.92,6.55c-0.66,3.02,3.98,4.27,4.64,1.25
			c0.58-2.61,2.42-3.61,5.03-3.16C413.9,1234.8,415.16,1230.16,412.11,1229.63z"/>
		<path className="st0" d="M418.32,1166.03c-3.37-1.01-6.63,1.16-8.92,3.38c-2.24,2.15,1.19,5.52,3.42,3.37
			c1.11-1.07,2.56-2.43,4.25-2.11c1.86,0.35,3.11,2.51,4,3.98c1.6,2.65,5.74,0.21,4.13-2.45
			C423.54,1169.46,421.48,1166.98,418.32,1166.03z"/>
		<path className="st0" d="M443.54,1169.76c1.23-0.73,1.36-2.09,0.84-3.29c-0.94-2.19-2.49-4.01-5-4.16c-2.51-0.15-4.4,2.36-5.55,4.23
			c-1.63,2.65,2.55,5.03,4.16,2.4c0.35-0.57,0.69-1.07,1.15-1.54c0.05-0.06,0.12-0.1,0.19-0.14c0.05,0.04,0.08,0.07,0.15,0.14
			c0.35,0.38,0.56,1.06,0.77,1.53C440.76,1170.12,442.52,1170.36,443.54,1169.76z"/>
		<path className="st0" d="M452.37,1176.77c-2.7,1.53-0.25,5.66,2.45,4.13c2.81-1.59,5.42-1.37,7.51,1.18c1.96,2.4,5.32-1.04,3.37-3.42
			C462.26,1174.45,456.89,1174.2,452.37,1176.77z"/>
		<path className="st0" d="M497.35,1159.42c-5.07-2-10.94-0.83-12.53,4.96c-0.82,2.99,3.82,4.23,4.64,1.25
			c0.88-3.21,4.19-2.54,6.65-1.57C498.99,1165.2,500.19,1160.55,497.35,1159.42z"/>
		<path className="st0" d="M486.32,1177.92c-4.74,0.31-7.37,4.85-8.57,8.92c-0.87,2.98,3.77,4.22,4.64,1.25
			c0.65-2.21,1.64-4.69,4.06-5.37c2.51-0.71,4.87,2.57,5.96,4.27c1.67,2.6,5.81,0.17,4.13-2.45
			C494.26,1180.99,490.88,1177.63,486.32,1177.92z"/>
		<path className="st0" d="M486.25,1206.63c-3.58-0.25-6.95,2.48-9.33,4.79c-2.23,2.16,1.2,5.53,3.42,3.37
			c2.62-2.53,6.28-5.09,9.03-1.34c1.82,2.47,5.97,0.05,4.13-2.45C491.63,1208.45,489.47,1206.86,486.25,1206.63z"/>
		<path className="st0" d="M483.68,1235.4c-1.49-1.52-2.52-3.5-4.26-4.76c-2.05-1.49-4.6-1.22-6.92-0.59c-1,0.27-1.79,1.27-1.75,2.33
			c0.05,1.49,0.2,3.86,1.39,4.96c0.78,0.71,1.98,0.95,2.91,0.35c1.09-0.7,1.29-1.74,1.31-2.95c0-0.09-0.01-0.16-0.02-0.25
			c0.3,0.12,0.59,0.3,0.88,0.61c1.11,1.17,1.94,2.56,3.07,3.72C482.47,1241.04,485.84,1237.61,483.68,1235.4z"/>
		<path className="st0" d="M486.14,1253.21c-2.32-0.17-4.36,1.27-5.73,3.03c-0.8,1.03-0.99,2.39,0.02,3.39c0.85,0.84,2.59,1.02,3.4-0.02
			c1.56-2,2.39-2.1,3.44,0.29c0.52,1.2,2.27,1.45,3.29,0.84c1.23-0.73,1.37-2.09,0.84-3.29
			C490.44,1255.26,488.64,1253.39,486.14,1253.21z"/>
		<path className="st0" d="M510.89,1174.08c1.8-3.96,4.76-4.67,8.22-1.97c2.41,1.89,5.82-1.51,3.38-3.42c-2.54-1.98-5.41-3.53-8.73-3.04
			c-3.36,0.5-5.68,3.06-7.03,6.03C505.45,1174.48,509.61,1176.9,510.89,1174.08z"/>
		<path className="st0" d="M517.97,1154.01c0.59-0.99,1.61-2.87,3.05-2.64c1.68,0.27,3.07,2.14,4.01,3.4c1.84,2.45,6,0.03,4.13-2.45
			c-1.93-2.57-4.51-5.61-8.02-5.74c-3.41-0.13-5.72,2.31-7.35,5.04C512.21,1154.28,516.38,1156.67,517.97,1154.01z"/>
		<path className="st0" d="M522.68,1199.12c-2.39-1.89-5.37-3.74-8.56-3c-3.24,0.74-4.94,3.58-5.84,6.56c-0.91,2.97,3.74,4.2,4.64,1.25
			c0.35-1.16,0.84-2.66,2.11-3.09c1.42-0.49,3.26,0.9,4.28,1.71C521.71,1204.44,525.11,1201.04,522.68,1199.12z"/>
		<path className="st0" d="M548.36,1207.76c-3.62-4.4-8.67-2.56-12.2,0.88c-2.22,2.17,1.2,5.54,3.42,3.38c0.94-0.91,1.9-1.75,3.18-2.12
			c0.98-0.29,1.69,0.63,2.23,1.29C546.96,1213.58,550.31,1210.13,548.36,1207.76z"/>
		<path className="st0" d="M549.55,1221.79c-2.78,1.35-0.32,5.48,2.45,4.13c1.94-0.94,3.46-1.14,5.1,0.39c2.26,2.12,5.64-1.3,3.38-3.42
			C557.16,1219.81,553.46,1219.89,549.55,1221.79z"/>
	</g>
</g>
<path className="st0" d="M1533.69,781.17c0.81-3.9-1.18-8.63-5.92-14.06c-2.19-8.07-5.42-15.97-8.8-24.02
	c-6.74-16.01-16.74-31.32-26.55-45.48c-17.95-25.93-38.77-51.04-69.31-59.16c-0.56-0.15-1.12-0.17-1.68-0.05
	c-4.72-3.87-9.13-7.15-13.51-10.02c-9.02-5.92-20.74-12.73-31.46-12.73c-0.52,0-1.04,0.02-1.55,0.05
	c-13.09-12.09-26.94-19.39-41.17-21.72c-3.98-0.65-7.97-0.98-11.85-0.98c-9.28,0-18.24,1.81-27.37,5.54
	c-0.2-0.21-0.4-0.39-0.63-0.55c-6.94-4.73-16.26-7.02-28.5-7.02c-5.15,0-10.27,0.4-14.15,0.75c-19.15,1.71-35.91,5.4-51.22,11.29
	c-0.29,0.11-0.57,0.24-0.86,0.36c-0.19,0.08-0.38,0.17-0.58,0.25c-2.78-0.7-5.75-1.05-8.84-1.05c-9.61,0-19.27,3.34-28.34,6.77
	c-15.37,5.8-41.01,21.46-53.61,30.53c-14.52,10.45-27.32,26.56-37.92,40.95c-7.93,10.76-14.86,24.31-20.59,40.26l-0.03,0.08
	c-0.13,0.29-0.62,0.95-1.05,1.53c-0.53,0.72-1.08,1.47-1.3,1.94c-6.98,14.85-8.49,28.55-8.62,44.56
	c-0.1,12.31,4.28,25.2,11.71,34.48c5.26,6.56,11.77,9.89,19.36,9.89c7.75,0,16.37-3.59,24.33-10.11
	c-1.39,14.19,3.32,28.13,13.33,39.33c11.47,12.84,28.23,20.51,44.83,20.51c14.38,0,26.93-5.67,36.3-16.41
	c0.73,0.42,1.58,0.61,2.34,0.53c7.07,20.8,24.39,39.13,46.43,49.1l-68.9,313.2c-2.79,0.77-4.99,1.62-6.92,2.68
	c-1.75-0.08-3.92,0.87-4.18,3.21c-3.43,30.16-16.95,87.96-18.85,95.08c-0.41-0.61-0.73-1.22-0.95-1.84c-0.66-1.9-2.35-2.57-3.7-2.57
	c-1.25,0-2.4,0.54-3.02,1.41c-0.38,0.54-0.74,1.46-0.28,2.77c4.9,14.01,27.61,18.98,45.56,18.98c4.03,0,7.83-0.25,11-0.72
	c2.21-0.33,2.88-2.07,2.77-3.47c-0.14-1.9-1.69-3.93-4.28-3.56c-2.15,0.32-4.42,0.47-6.94,0.47h-0.09c0.23-1.02,0.67-3,1.25-5.61
	c2.5-11.26,7.71-34.69,9.93-42.39c1.23-4.25,2.58-8.53,3.89-12.66c3.56-11.24,7.24-22.86,8.65-34.96c1.25-1.3,1.3-3.33,0.1-4.86
	c-0.04-0.05-0.08-0.09-0.12-0.13l-0.05-0.05c-0.22-0.41-0.51-0.74-0.79-0.94c-1.86-2.2-3.88-4.06-6.01-5.53l68.49-311.3
	c2.12,0.19,4.25,0.29,6.33,0.29c22.9,0,41.03-11.36,51.14-32c8.18,27.51,38.59,43.92,63.55,43.92c0.44,0,0.88,0,1.31-0.01
	c13.5-0.29,25.93-5.77,35.96-15.84c8.92-8.96,15.42-21.12,18.33-34.31c4.11,7.24,9.92,12.32,17.26,15.1
	c3.25,1.23,6.8,1.85,10.57,1.85h0c8.09,0,17.49-2.96,26.47-8.35C1522.9,857.3,1537.71,812.41,1533.69,781.17z M1483.52,697.28
	c9,12.54,17.16,25.66,24.25,38.99c3.42,6.44,6.37,13.33,8.76,20.49c-3.33-2.62-6.43-4.82-8.54-6.3l-0.59-0.42
	c-1.77-1.25-3.67-2.52-5.64-3.79c-8.39-32.72-32.58-60.2-54.6-83.38c-4.4-4.63-8.21-8.5-11.86-12.04
	C1455.8,661.15,1471.16,680.04,1483.52,697.28z M1495.72,752.15c-0.07,1.51-0.19,3.21-0.28,4.58c-0.1,1.39-0.15,2.13-0.13,2.28
	c-3.03,15.52-17.13,22.47-29.75,22.47c-10.06,0-19.8-4.07-26.7-11.16c-11.07-11.35-16.12-29.78-15.44-56.33
	c5,2.15,10,4.36,14.85,6.57c15.22,6.93,30.27,15.22,44.82,23.25l3.75,2.06c2.75,1.51,5.58,3.16,8.62,5.03
	C1495.54,751.32,1495.63,751.74,1495.72,752.15z M1408.44,637.37l1.52,1.07c12.77,8.96,23.76,20.61,34.38,31.88l2.47,2.62
	c16.54,17.5,36.64,40.98,45.77,67.79c-6.22-3.55-12.68-6.9-18.94-10.14c-4.5-2.33-9.16-4.75-13.66-7.2
	c-11.32-6.17-23.51-12.11-36.23-17.66c0.16-25.62-14.51-47.71-29.55-68.15c-3.78-5.14-7.68-9.91-11.62-14.19
	C1391.64,625.53,1401.31,632.35,1408.44,637.37z M1321.86,600.19c4.5,0,9.07,0.48,13.61,1.43c22.93,4.82,39.52,22.93,51.42,38.17
	c14.72,18.85,28.46,39.51,29.55,62.82c-31.86-13.29-68.13-24.68-107.82-33.84c-22.31-5.15-44.68-8.51-66.48-9.97
	c4.02-12.98,14.3-25.96,31.42-39.67C1289.26,606.57,1305.51,600.19,1321.86,600.19z M1253.46,824.5c-0.42,0-0.83,0.01-1.25,0.02
	c-0.19-1.09,0.02-2.04,0.63-2.8c1.28-1.6,4.42-2.52,8.61-2.52c2.83,0,5.78,0.44,7.34,1.08c3.01,1.25,11.87,6.15,12.26,10.09
	c0.11,1.08-0.43,2-1.64,2.81c-0.09,0.06-0.17,0.13-0.25,0.2C1272.03,827.82,1262.45,824.5,1253.46,824.5z M1270.95,836.38
	l-0.85,3.89c-4.6-2.52-8.57-3.98-12.42-4.58l0.79-3.59C1262.95,832.79,1267.26,834.27,1270.95,836.38z M1129.93,676.63
	c-0.01-0.04-0.02-0.08-0.03-0.12c0.01-0.02,0.01-0.04,0.02-0.06c8.92-2.74,18.82-5.03,30.27-6.99c17.61-3.01,36.07-4.54,54.85-4.54
	c5.18,0,10.49,0.12,15.77,0.35c-21.09,35.87-42.32,56.67-64.91,63.58c-3.42,1.04-6.9,1.58-10.34,1.58
	c-11.84,0-20.83-6.13-24.05-16.39c-2.89-9.22-2.37-19.45-1.86-29.35c0.13-2.49,0.26-5.07,0.33-7.54
	C1130,676.95,1129.96,676.78,1129.93,676.63z M1236.51,708.88c-6.19,12.78-11.46,24.06-16.11,34.47c-6.3-10.05-12.64-19.8-18.84-29
	l0.06-0.06c0.35-0.33,0.7-0.66,1.04-0.99c10.74-10.26,20.91-22.96,30.26-37.77C1232.1,687.79,1233.31,699,1236.51,708.88z
	 M1240.13,717.82c1.72,3.53,3.71,6.87,5.93,9.93c1.05,9.57,1.8,19.34,2.53,28.8c1.05,13.72,2.14,27.88,4.17,41.74
	c-9.07-16.34-18.42-32.33-27.8-47.56C1229.42,740.58,1234.38,729.82,1240.13,717.82z M1196.2,719.22
	c19.3,28.68,37.89,59.61,56.84,94.52c-1.47,0.57-2.77,1.28-3.88,2.12c-9.78-20.08-22.23-39.31-34.28-57.9
	c-7.96-12.29-15.49-23.9-22.28-35.71C1193.77,721.29,1194.98,720.28,1196.2,719.22z M1252.88,735.62c1.83,1.77,3.85,3.48,5.99,5.09
	c0.4,5.65,0.74,11.4,1.07,16.96c1.07,17.96,2.17,36.53,5.39,54.58c-0.95-0.1-1.92-0.15-2.89-0.15c-0.37,0-0.75,0.01-1.12,0.02
	c-3.88-18.8-5.46-39.12-6.99-58.78C1253.87,747.5,1253.41,741.46,1252.88,735.62z M1295.18,761.6l-0.87-0.52
	c-4.93-2.99-10.51-6.38-16.07-6.44c0.25-0.87,0.54-1.81,0.86-2.83c5.26,2.07,11.08,3.87,17.31,5.37
	C1295.98,758.66,1295.57,760.15,1295.18,761.6z M1298.07,780.22c1.62-7.09,3.29-14.43,5.39-21.52c7.23,1.4,14.66,2.3,22.09,2.68
	c-0.36,6.68-0.72,13.35-1.1,20.03c-14.52,12.24-26.06,21.72-34.32,28.21C1293.56,800.02,1295.85,789.96,1298.07,780.22z
	 M1291.1,767.41c0.77,0.49,1.53,0.97,2.26,1.42c-0.61,2.54-1.21,5.12-1.81,7.72c-5.79-3.61-11.54-5.92-17.12-6.88
	c0.6-2.52,1.2-5.05,1.83-7.56c0.61-0.15,1.26-0.22,1.92-0.22C1282.41,761.88,1287.03,764.82,1291.1,767.41z M1289.84,784.02
	c-0.64,2.77-1.28,5.46-1.9,8c-5.19-2.42-11.21-4.94-17.38-4.94c-0.25,0-0.51,0-0.77,0.01c0.06-0.14,0.11-0.29,0.16-0.44
	c0.91-2.88,1.77-5.97,2.78-10.01C1278.15,777.47,1283.75,779.89,1289.84,784.02z M1267.71,766.55c-0.27-4.08-0.53-8.14-0.78-12.15
	c-0.18-2.93-0.37-5.83-0.55-8.71c1.95,1.13,3.95,2.2,5.98,3.17C1270.55,754.65,1269.11,760.7,1267.71,766.55z M1272.34,810.54
	c3.25,1.15,6.12,3.04,8.56,4.73c0,0,0,0,0,0l-0.15,0.38c-0.13,0.33-0.25,0.65-0.38,0.97c-0.07,0.17-0.11,0.32-0.15,0.46
	c-0.42,0.3-0.83,0.58-1.22,0.84c-1.9-1.36-3.97-2.59-6-3.58C1272.78,813.09,1272.56,811.82,1272.34,810.54z M1271.96,802.91
	c-0.25-0.05-0.5-0.08-0.79-0.09c-0.4-2.9-0.76-5.77-1.07-8.53c5.69,0.01,11.26,2.65,15.74,4.78c0.09,0.04,0.18,0.08,0.26,0.11
	c-0.87,3.2-1.72,6.1-2.62,8.85C1280.52,806.08,1276.59,803.82,1271.96,802.91z M1360.27,759.14c2.24-0.43,4.45-0.91,6.59-1.45
	c-19.09,17.3-65.86,57.14-79.95,66.67c-0.26,0.17-0.5,0.38-0.74,0.62c-0.62-0.93-1.37-1.87-2.25-2.81
	C1301.4,809.44,1344.71,773.23,1360.27,759.14z M1332,775.02c0.25-4.48,0.5-8.97,0.74-13.45c5.4,0.05,10.77-0.21,15.93-0.74
	l-0.21,0.18C1344.21,764.63,1338.45,769.55,1332,775.02z M1329.78,813.1l0.92-15.58c22.73-18.78,44.53-37.48,51.87-44.49
	c0.29-0.28,0.49-0.55,0.6-0.83c3.6-1.57,7.06-3.35,10.28-5.31c18.75,30.47,32.3,64.99,40.3,102.61
	c-18.75,4.03-37.24,4.59-54.45,4.59c-5.33,0-10.78-0.06-16.05-0.12l-5.13-0.06c-1.95-0.02-3.9-0.03-5.84-0.03
	c-5.8,0-11.65,0.08-17.3,0.15c-2.53,0.04-5.05,0.07-7.57,0.1C1328.17,840.45,1328.99,826.55,1329.78,813.1z M1333.99,754.31
	c-10.5,0-21.53-1.09-31.9-3.16c-21.19-4.22-37.56-12.84-48.67-25.61c-4.14-4.75-7.37-10.35-9.61-16.59
	c-0.05-0.36-0.17-0.68-0.31-0.91c-3.95-11.6-4.73-25.79-2.33-42.19c20.96,1.49,42.9,4.77,65.23,9.76
	c35.65,7.96,72.32,19.74,108.99,35C1400.69,748.63,1358.1,754.31,1333.99,754.31z M1199.34,611.09c0.87-0.02,1.69-0.37,2.31-0.99
	c14.68-6.22,30.43-8.85,42.52-10.46c6.28-0.83,13.58-1.72,20.77-1.72c9.05,0,16.2,1.38,21.85,4.22c-5.14,2.68-10.26,5.89-15.63,9.81
	c-10.97,8-30.24,24.65-36.31,46.45c-6.21-0.3-12.48-0.45-18.63-0.45c-20.78,0-41.47,1.74-61.51,5.16
	c-7.21,1.23-14.46,2.88-21.57,4.92c5.25-10.28,14.66-19.41,22.25-26.77l0.14-0.14C1168.85,628.19,1183.18,618.37,1199.34,611.09z
	 M1069.32,693.18c8.22-12.85,22.25-30.67,35.05-41.52c11.89-10.07,36.36-25.08,49.48-31.27c8.1-3.83,20.19-9.53,31.62-10.59
	c-12.29,6.71-24.33,15.86-36.77,27.93c-10.1,9.8-20.07,20.6-24.55,33.11c-11.63,3.98-22.49,9.02-32.28,14.97
	c-9.31,5.66-21.07,13.2-30.36,21.8C1063.95,702.3,1066.52,697.56,1069.32,693.18z M1055.58,725.29l0.11-0.04l0.05-0.12
	c6.16-13.82,28.93-26.96,42.53-34.81l2.26-1.3c6.5-3.76,13.44-6.98,21.19-9.81c-2.22,5.97-4.14,12.13-5.99,18.09
	c-2.68,8.64-5.46,17.57-9.21,26.01c-4.35,9.79-10.11,17.08-17.13,21.66c-3.17,2.07-6.95,3.17-10.92,3.17
	c-7.25,0-14.83-3.65-19.33-9.3C1055.84,734.67,1054.57,729.86,1055.58,725.29z M1093.47,793.42c-0.32,0.52-0.64,1.04-0.95,1.56
	c-6.91,6.76-15.01,10.64-22.24,10.64c-7.69,0-14.04-4.34-18.37-12.54c-6.79-12.89-6.56-40.84-3.45-54.75
	c1.42,4.61,4.24,8.67,8.4,12.11c0.74,0.61,1.62,1.17,2.78,1.77c5.11,13.52,16.37,26.7,34.4,40.28L1093.47,793.42z M1068.22,754.64
	c1.46,0.17,2.99,0.25,4.58,0.25c9.19,0,19.33-2.83,24.65-6.88c14.29-10.86,19.99-29.39,24.81-46.11c0.35,6.48,1.36,11.75,3.15,16.48
	c2.63,6.94,7.12,12.04,13.35,15.16c-13.92,13.56-26.98,30.4-41.05,52.95C1083.4,775.95,1073.48,765.24,1068.22,754.64z
	 M1151.46,856.17c-15.49,0-31.22-7.79-41.05-20.32c-8.65-11.03-11.67-24.45-8.51-37.82c24.19,16.69,53.27,30.48,84.17,39.92
	C1177.81,849.71,1165.54,856.17,1151.46,856.17z M1188.92,831.25c-26.69-8.41-51.9-19.82-74.95-33.91
	c-3.64-2.22-7.13-4.47-10.39-6.69c14.53-23.32,27.32-39.73,41.44-53.2c0.41-0.39,0.71-0.84,0.9-1.35c3.95,0.93,8.46,1.31,13.26,1.13
	c9.15-0.34,18.53-4.06,28.66-11.35c7.2,13.33,15.59,26.23,23.59,38.31C1201.48,788.37,1194.12,810.31,1188.92,831.25z
	 M1216.23,771.46c11.2,16.95,21.14,32.4,29.22,49.45c-0.74,2.39-0.51,5.11,0.67,8.08c0.31,0.79,0.81,1.36,1.48,1.7
	c0.54,0.7,1.33,1.07,2.31,1.07c0.11,0,0.22,0,0.33-0.01c0.26-0.02,0.53-0.03,0.8-0.03c0.05,0,0.1,0,0.15,0l-3.29,14.95
	c-14.54-3.08-29.82-6.95-49.48-12.54c-0.53-0.15-1.05-0.31-1.57-0.47c-0.35-0.11-0.7-0.22-1.06-0.32
	C1200.63,813.88,1207.32,793.63,1216.23,771.46z M1196.01,840.89c17.99,5.17,34.48,9.3,50.38,12.64l-7.89,35.87
	C1217.27,879.13,1201.43,861.05,1196.01,840.89z M1185.62,1262.13c-1.03,3.2-2.1,6.51-3.1,9.77c-3.27,10.64-5.59,21.78-7.84,32.55
	c-1.18,5.66-2.4,11.51-3.75,17.21c-0.01,0.03-0.01,0.07-0.02,0.1c-3.32-0.35-6.89-0.92-11.2-1.77l-0.35-0.07
	c-4.1-0.82-10.27-2.05-15.2-4.46c8.6-26.86,13.01-55.11,17.27-82.42c0.58-3.74,1.17-7.47,1.76-11.21
	c6.51,4.42,15.99,7.16,24.89,7.16c0,0,0,0,0,0c2.19,0,4.32-0.17,6.32-0.49C1192.76,1240.03,1189.13,1251.26,1185.62,1262.13z
	 M1186.18,1221.71c-4.37-0.21-8.79-1.15-12.82-2.72l82.77-376.26c4.58,0.59,8.64,2.68,12.35,4.88L1186.18,1221.71z M1269.87,897.07
	c-1.6,0-3.23-0.07-4.87-0.2l8.44-38.38c16.41,2.43,32.18,2.82,44.19,2.88C1309.56,884.4,1292.61,897.07,1269.87,897.07z
	 M1322.81,809.17c-0.87,14.75-1.77,30.01-2.61,45.02c-0.74,0-1.47,0-2.21,0c-10.67,0-24.77-0.25-39.27-2.16
	c-1.05-0.14-2.11-0.3-3.16-0.46l-0.57-0.09l2.34-10.63c1.3,0.54,2.9,0.22,4.01-0.76c0.49-0.07,0.97-0.25,1.44-0.56
	c3.69-2.47,5.53-5.35,5.48-8.58c0.23-0.1,0.44-0.22,0.65-0.36c5.42-3.67,17.57-13.2,34.23-26.85L1322.81,809.17z M1383.15,908.79
	c-0.34,0.01-0.68,0.01-1.02,0.01c-25.38,0-50.71-19.94-55.35-43.55c0.08-1.29,0.15-2.59,0.22-3.89c3.85-0.03,7.7-0.07,11.57-0.12
	c5.99-0.07,12.19-0.15,18.35-0.15h0.84c2.27,0,4.53,0.01,6.78,0.01c2.74,0.01,5.47,0.01,8.19,0.01c19.71,0,40.69-0.35,61.59-4.54
	C1431.84,882.1,1413.53,908.13,1383.15,908.79z M1440.74,847.83c-8.21-38.59-22.11-73.89-41.33-104.95
	c6.89-5.13,12.59-11.25,16.96-18.2c1.38,30.12,11.42,50.33,29.85,60.06c6.04,3.19,12.39,4.8,18.89,4.8
	c12.15,0,23.53-5.77,30.63-15.49c0.49,15,1.76,29.58,10.37,43.14c0.32,0.5,0.65,0.94,0.96,1.37l0.02,0.03
	c-0.94,0.67-1.87,1.35-2.8,2.02c-6.62,4.79-12.87,9.32-20.41,12.42c-14.05,5.76-27.32,10.38-40.59,14.12
	c-0.68,0.19-1.36,0.37-2.04,0.54L1440.74,847.83z M1497.7,863.09c-8.95,8.01-20.35,12.52-31.22,12.24
	c-14.34-0.35-20.8-12.98-23.41-20.71l0.14-0.04c0.55-0.13,1.11-0.27,1.66-0.42c13.4-3.55,26.49-8.48,38.65-13.27
	c10.13-3.99,18.25-9.77,26.85-15.88l1.92-1.36c2.57,1.54,5.22,1.86,7.71,0.93C1515.4,840.66,1507.5,854.32,1497.7,863.09z
	 M1524.91,810.54c-1.39,3.79-3.2,5.71-5.39,5.71c-5.44,0-12.29-11.92-14.02-17.01c-3.08-9.1-3.02-19.6-2.97-29.76
	c0.02-3.98,0.04-7.74-0.12-11.36c0.12-0.75,0.23-1.57,0.33-2.51c1.87,1.27,3.52,2.45,5.05,3.58c3.39,2.52,16.47,13.22,18.44,19.46
	l0.01,0.08C1528.19,788.38,1525.27,809.5,1524.91,810.54z"/>
<g>
	<g>
		<path className="st0" d="M1039.69,1055.81c-0.93,0-1.71,0.48-2.19,1.36c-1.46,2.66-5.71,5.75-8.99,5.75c-1.84,0-3.13-0.95-3.85-2.82
			c-0.44-1.14-1.44-1.83-2.68-1.83c-0.97,0-1.87,0.44-2.35,1.14c-0.43,0.62-0.5,1.41-0.19,2.21c1.62,4.23,4.89,6.56,9.21,6.56h0
			c5.23,0,10.94-3.48,13.58-8.28c0.48-0.88,0.48-1.81,0-2.63C1041.7,1056.39,1040.69,1055.81,1039.69,1055.81z"/>
		<path className="st0" d="M990.33,1113.97c0.16-1.15-0.37-2.51-1.91-2.94c-2.67-0.75-4.65-2.84-6.74-5.06
			c-1.81-1.92-3.67-3.9-6.07-5.01c-1.72-0.8-3.62-1.17-5.98-1.17c-1.85,0-3.76,0.23-5.6,0.46c-2.47,0.3-5.13,0.58-7.27,0.36
			c-1.76-0.17-2.6,1.07-2.66,2.31c-0.07,1.38,0.8,2.94,2.58,3.13c0.73,0.08,1.48,0.12,2.3,0.12c1.69,0,3.38-0.17,5.01-0.33
			c1.62-0.16,3.15-0.31,4.68-0.31c2.55,0,5.86,0.38,8.9,3.32c0.75,0.72,1.42,1.46,2.08,2.18c2.03,2.21,3.95,4.31,7.34,5.25
			c0.27,0.07,0.53,0.11,0.79,0.11C989.23,1116.4,990.17,1115.18,990.33,1113.97z"/>
		<path className="st0" d="M1036.06,1121.29c-0.31,0-0.61,0.01-0.91,0.02c0.97-0.33,1.76-1.17,1.76-2.49v-0.52c0-3.48-5.45-3.48-5.45,0
			v0.52c0,1.44,0.95,2.3,2.04,2.56c-1.4,0.09-2.72,0.23-3.81,0.36c-1.09,0.13-2.16,0.27-3.2,0.4c-4.38,0.56-8.52,1.08-12.46,1.08
			c-6.75,0-12.37-1.6-18.23-5.2c-0.45-0.28-0.92-0.42-1.39-0.42c-1.15,0-2.2,0.86-2.55,2.1c-0.34,1.2,0.11,2.36,1.18,3.01
			c8.72,5.36,16.91,7.4,25.16,6.29c1.42-0.19,3.15-0.55,4.99-0.93c3.83-0.79,8.17-1.68,12.14-1.68c5.1,0,8.34,1.51,9.92,4.62
			c0.45,0.89,1.24,1.4,2.16,1.4c0.98,0,1.95-0.56,2.49-1.44c0.51-0.83,0.54-1.77,0.08-2.67
			C1047.57,1123.59,1043.02,1121.29,1036.06,1121.29z"/>
		<path className="st0" d="M758.96,1091.71l-0.5,0.12c-1.65,0.38-3.28,0.76-4.9,1.12c-1.34,0.3-2.12,1.38-1.97,2.75
			c0.14,1.25,1.14,2.59,2.72,2.59c0.21,0,0.43-0.03,0.65-0.07l1.22-0.27c10.31-2.3,20.97-4.69,31.69-4.69
			c1.88,0,3.74,0.07,5.54,0.22c2.62,0.21,5.29,0.53,7.87,0.85c4.46,0.54,9.08,1.1,13.63,1.1h0c3.17,0,6.03-0.27,8.73-0.82
			c1.34-0.27,2.12-1.32,1.98-2.68c-0.14-1.44-1.39-2.98-3.38-2.59c-0.79,0.16-1.64,0.3-2.66,0.42c-1.32-4.34-2.24-8.73-3.13-12.99
			c-2.43-11.67-4.73-22.69-14.82-31.44c-1.95-1.7-4.18-3.07-6.63-4.1c-0.4-1.16-1.54-2.26-3.22-1.99c-0.76,0.13-1.49,0.27-2.18,0.43
			c-1.44-0.25-2.92-0.38-4.38-0.38c-7.32,0-14.24,3.07-18.97,8.42c-0.74,0.84-0.91,1.95-0.46,2.96c0.47,1.04,1.48,1.75,2.51,1.75
			c0.69,0,1.32-0.31,1.84-0.89c1.84-2.08,3.89-3.69,6.12-4.81c-11.46,10.59-14.67,29.48-17.28,44.83L758.96,1091.71z
			 M789.19,1045.46c6.12,1.56,11.88,5.83,15.82,11.73c4.2,6.28,5.51,14.16,6.79,21.77c0.62,3.72,1.27,7.56,2.24,11.14H814
			c-4.78,0-9.69-0.64-14.44-1.25c-3.56-0.46-7.25-0.94-10.81-1.14c-0.98-0.05-2-0.08-3.02-0.08c-7.22,0-14.37,1.32-21.05,2.79
			C767.48,1073.67,771.45,1051.11,789.19,1045.46z"/>
		<path className="st0" d="M752.84,1111.24c3.04,0,5.34,0.89,7.24,2.8c0.52,0.53,1.16,0.81,1.84,0.81c1.09,0,2.16-0.75,2.61-1.82
			c0.42-1,0.2-2.04-0.59-2.84c-2.86-2.88-6.06-4.22-10.09-4.22c-2.69,0-5.38,0.58-8.23,1.19c-3.23,0.69-6.58,1.41-9.92,1.2
			c-1.78-0.09-2.63,1.24-2.66,2.49c-0.04,1.39,0.84,2.85,2.61,2.96c2.87,0.17,6.03-0.56,9.08-1.27
			C747.44,1111.89,750.26,1111.24,752.84,1111.24z"/>
		<path className="st0" d="M806.48,1109.13c-3.98-1.54-8.09-3.13-12.37-4.04c-1.07-0.23-2.18-0.35-3.29-0.35
			c-4.62,0-8.91,1.98-13.06,3.89c-1.85,0.85-3.77,1.73-5.66,2.41c-1.54,0.55-2.02,2-1.81,3.19c0.28,1.64,1.76,2.6,3.31,2.04
			c1.91-0.68,3.74-1.51,5.52-2.31c4.05-1.82,7.88-3.54,12.25-3.54c1.15,0,2.31,0.12,3.45,0.37c3.75,0.8,7.4,2.29,10.94,3.72
			c2.99,1.22,6.08,2.47,9.23,3.32c0.26,0.07,0.51,0.1,0.76,0.1h0c1.49,0,2.44-1.23,2.6-2.45c0.15-1.15-0.38-2.49-1.92-2.9
			C813.04,1111.67,809.7,1110.38,806.48,1109.13z"/>
		<path className="st0" d="M730.19,1123.43c-4-1.11-7.83-2.85-11.53-4.52c-3.61-1.64-7.35-3.33-11.26-4.46
			c-1.69-0.48-3.45-0.73-5.22-0.73c-4.58,0-9.31,1.53-14.89,4.83c-1.08,0.63-1.54,1.77-1.22,2.96c0.34,1.24,1.43,2.14,2.6,2.14
			c0.47,0,0.93-0.13,1.37-0.4c4.3-2.53,8.09-3.71,11.93-3.71c3.19,0,6.45,0.79,10.26,2.49c1.02,0.45,2.02,0.91,3.02,1.37
			c4.49,2.04,8.73,3.98,13.48,5.3c0.26,0.07,0.53,0.11,0.78,0.11c1.47,0,2.41-1.22,2.58-2.43
			C732.26,1125.21,731.73,1123.86,730.19,1123.43z"/>
		<path className="st0" d="M757.51,1119.98c-2.41,0-5.04,0.48-7.62,1.39c-1.54,0.54-2.02,1.98-1.81,3.17c0.28,1.65,1.76,2.61,3.32,2.06
			c4.69-1.66,8.48-1.57,11.29,0.24c0.46,0.3,0.94,0.45,1.42,0.45c1.11,0,2.14-0.84,2.5-2.05c0.36-1.22-0.08-2.4-1.14-3.08
			C763.22,1120.72,760.55,1119.98,757.51,1119.98z"/>
		<path className="st0" d="M852.06,1104.94c0.48-0.48,0.73-1.12,0.73-1.86c-0.01-11.22,1.33-22.53,2.63-33.47
			c1.08-9.14,2.21-18.6,2.54-27.98c0.03-0.74-0.21-1.39-0.67-1.87c-0.48-0.5-1.2-0.79-1.97-0.79c-1.35,0-2.75,0.9-2.81,2.63
			c-0.33,9.34-1.45,18.78-2.53,27.91c-1.3,10.96-2.64,22.3-2.63,33.56c0,1.74,1.37,2.65,2.73,2.65
			C850.83,1105.72,851.56,1105.44,852.06,1104.94z"/>
		<path className="st0" d="M869.4,1118.61c3.75,0,7.57-0.24,11.26-0.48l1.15-0.07c6.09-0.39,11.55-0.93,16.69-1.67
			c3.88-0.55,7.68-1.44,10.89-2.25c1.17-0.29,2.55-0.9,4-1.54c2.11-0.93,4.29-1.9,5.88-1.9c1.74,0,2.65-1.37,2.65-2.72
			c0-1.35-0.91-2.72-2.65-2.72c-2.23,0-4.88,1.1-7.44,2.17c-1.4,0.58-2.72,1.13-3.89,1.47c-6.97,1.98-14.35,2.81-21.29,3.4
			c-1.02,0.09-2.06,0.18-3.11,0.28c-4.49,0.41-9.13,0.83-13.75,0.83c-6.81,0-12.08-0.92-16.59-2.89c-0.38-0.17-0.77-0.25-1.17-0.25
			c-1.5,0-2.66,1.22-2.9,2.41c-0.24,1.13,0.29,2.1,1.41,2.59C855.78,1117.55,861.77,1118.61,869.4,1118.61L869.4,1118.61z"/>
		<path className="st0" d="M943.14,1108.95c-0.58-2.62-1.32-5.22-2.39-7.73c-0.02-0.06-0.05-0.1-0.08-0.14
			c-0.22-0.67-0.65-1.17-1.22-1.42c-2.65-1.14-5.32-1.89-8.16-2.29c-1.76-8.55-2.63-17.52-3.46-26.19c-0.3-3.14-0.61-6.38-0.96-9.51
			l-0.31-2.78c-1.42-12.85-2.89-26.13-4.91-39.13c-0.15-0.99-0.69-1.49-1.15-1.74c-4.05-5.75-18.54-7.43-24.01-8.06l-0.5-0.06
			c-8.53-1-17.63-0.89-27.19,0.34c-12.77,1.63-21.23,5.18-25.85,10.84c-1.06,0.38-1.63,1.3-1.55,2.49
			c0.73,10.11-0.77,20.32-2.23,30.19c-0.42,2.85-0.85,5.79-1.23,8.69l-0.43,3.36c-0.82,6.33-1.67,12.88-2.37,19.34
			c-0.33,3.02-0.49,6.13-0.65,9.13c-0.13,2.5-0.27,5.08-0.5,7.61c-0.09,0.03-0.17,0.07-0.26,0.12c-7.03,3.64-9.91,10.6-8.81,21.2
			c-6,1.85-11.97,5.53-17.32,10.73c-0.1,0.09-0.18,0.19-0.26,0.28c-4.54,0.54-8.97,1.93-13.26,3.27c-3.58,1.12-7.28,2.29-11.08,2.97
			c-1.33,0.24-2.12,1.26-2,2.59c0.12,1.32,1.15,2.73,2.84,2.73c0.17,0,0.36-0.02,0.54-0.05c3.59-0.65,7.15-1.83,10.59-2.98
			c5.08-1.69,10.34-3.45,15.71-3.45c1.13,0,2.25,0.08,3.33,0.23c0.15,0.02,0.3,0.03,0.44,0.03c1.71,0,2.84-1.45,2.94-2.84
			c0.09-1.27-0.65-2.21-1.9-2.44c3.82-2.95,7.78-5.01,11.8-6.12c0.04-0.01,0.06-0.03,0.1-0.04c6.52,5.92,18.11,9.79,34.52,11.53
			c8.51,6.7,19.48,11.83,33.2,15.57c8.2,2.23,16.17,3.31,24.36,3.31c10.47,0,21.24-1.81,32.92-5.54h0.03c0.67,0,1.29-0.25,1.81-0.73
			c4.48-4.12,7-10.6,7.69-19.82c0.41-0.47,0.62-1.07,0.61-1.75C962.38,1120.03,952.72,1111.45,943.14,1108.95z M942.02,1126.04
			c2.88,2.18,7.64,5.97,6.4,9.33c-0.17,0.46-0.22,0.91-0.15,1.34c-7.45,4.67-17.95,5.66-25.49,5.66c-5.38,0-10.11-0.49-13.13-0.89
			c-3.88-0.52-7.66-1.26-11.32-2.18c5.12-0.71,10.55-1.69,16.4-2.97C923.28,1134.44,933.74,1132.13,942.02,1126.04z M873.81,1015.12
			c5.67-0.58,11.68-0.63,17.81-0.18c5.68,0.42,11.12,1.25,16.16,2.47c3.63,0.88,7.37,2.68,7.49,4.42c0.07,1.07-1.26,2.16-3.85,3.15
			c-7.51,2.89-16.11,3-24.42,3.12c-2.06,0.03-4.09,0.06-6.08,0.13c-1.4,0.05-3.03,0.17-4.76,0.29c-2.94,0.21-6.27,0.45-9.61,0.45
			c-9.48,0-15.16-1.97-17.85-6.18C854.91,1017.03,867.18,1015.79,873.81,1015.12z M830.34,1123.27c-0.86-6.62,0.08-11.16,2.95-14.19
			c0.12,0.43,0.34,0.82,0.67,1.16c0.57,0.6,1.4,0.95,2.21,0.95c1.22,0,2.11-0.77,2.33-2.01c1.36-7.71,1.96-15.75,2.54-23.53
			c0.43-5.76,0.87-11.71,1.62-17.47c0.46-3.5,1-7.1,1.53-10.58c1.42-9.29,2.88-18.89,2.86-28.36c4.1,3.46,10.41,5.08,19.74,5.08
			c3.51,0,7.02-0.22,10.11-0.42c1.78-0.11,3.46-0.22,4.96-0.27c1.23-0.04,2.47-0.08,3.7-0.12c5.6-0.17,11.4-0.35,17.07-1.11
			l0.79-0.11c4.29-0.57,10.08-1.34,13.97-4.05c1.51,10.76,2.72,21.73,3.9,32.34l0.79,7.12c0.29,2.59,0.55,5.21,0.82,7.85
			c1.05,10.49,2.14,21.34,5.1,31.34c0.35,1.19,1.33,1.92,2.56,1.92c0.93,0,1.82-0.43,2.34-1.12c0.47-0.63,0.6-1.43,0.35-2.26
			c-0.21-0.71-0.39-1.42-0.57-2.14l-0.06-0.22c1.14,0.26,2.31,0.62,3.48,1.08c1.83,4.43,2.51,9.31,3.16,14.03
			c0.13,0.94,0.26,1.88,0.4,2.81c-7.15,5.79-16.46,7.85-25.46,9.85l-0.9,0.2c-9.77,2.17-18.99,3.45-28.06,3.93
			c-8.52-3.55-15.99-8.27-21.91-13.96c-0.15-0.15-0.32-0.27-0.52-0.39c-0.66-0.75-1.62-1.05-2.62-0.82
			c-3.74,0.85-6.53,3.25-8.21,5.11c-0.67,0.74-0.89,1.7-0.59,2.62c-0.13,0.8,0.07,1.56,0.58,2.21c0.78,1,1.61,1.96,2.46,2.91
			C846.35,1131.38,834.97,1127.35,830.34,1123.27z M951.03,1147.72c-11.04,3.53-21.25,5.25-31.21,5.25c-7.64,0-15.25-0.98-23.27-3
			c-16.96-4.28-30.58-12.04-39.39-22.48c0.96-0.85,1.99-1.5,3.07-1.94c15.99,14.9,37.67,20.09,53.07,21.82
			c2.87,0.32,5.85,0.49,8.85,0.49c8.65,0,24.27-1.39,33.66-10.48C954.92,1141.88,953.35,1145.27,951.03,1147.72z M953.75,1131.8
			c-1.14-3.81-4.72-7.1-8.55-10.11c-0.01-0.04-0.01-0.08-0.02-0.13c0.01-0.2,0-0.39-0.03-0.58c-0.19-1.18-0.37-2.37-0.54-3.55
			c-0.12-0.79-0.24-1.58-0.36-2.38c5.17,2.1,10.35,6.34,12.16,11.83C955.77,1128.66,954.88,1130.31,953.75,1131.8z"/>
		<path className="st0" d="M862.44,962.18c1.36,2.15,3.29,3.29,5.57,3.29h0c3.14,0,6.95-2.17,10.21-5.81c2.71-3.03,4.41-6.37,4.74-9.12
			c0.18-0.35,0.3-0.75,0.3-1.23c0.01-1.09,0.16-3,0.34-5.42c0.89-11.94,2.55-34.16-3.8-41c-1.56-1.68-3.54-2.33-5.84-1.93
			c-8.3,1.46-9.74,13.33-10.6,20.42c-0.09,0.7-0.17,1.36-0.25,1.96c-1.92,14.4-2.09,26.17-0.55,35.95
			c-0.09,0.11-0.19,0.22-0.26,0.34C861.86,960.43,861.91,961.34,862.44,962.18z M867.68,932.69l0.05-0.7
			c0.04-0.64,0.08-1.45,0.12-2.37c0.31-6.9,0.95-21.26,6.84-23.3c0.3-0.1,0.56-0.03,0.83,0.25c2.32,2.39,3.11,15.92,2.37,40.21
			c-0.01,0.22-0.01,0.42-0.02,0.62c-0.26,0.44-0.37,0.96-0.31,1.55c0.32,2.82-1.97,5.55-4,7.61c-1.15,1.17-3.77,3.39-5.41,3.39
			c-0.02,0-0.03-0.01-0.05-0.01c0-0.16-0.01-0.32-0.04-0.48C866.51,950.81,867.11,941.6,867.68,932.69z"/>
		<path className="st0" d="M860.52,985.32c-2.53-1.95-5.54-2.98-8.7-2.98c-5.47,0-10.87,3.09-13.87,7.91c-2.8-1.77-5.68-2.67-8.57-2.67
			c-11.45,0-21.09,14.47-22.07,27.4c-0.06,0.74,0.15,1.39,0.6,1.87c0.47,0.5,1.18,0.79,1.95,0.79c1.34,0,2.77-0.89,2.9-2.61
			c0.66-8.8,7.57-22.1,16.48-22.1c2.61,0,5.24,1.13,7.82,3.36c0.55,0.48,1.24,0.74,1.92,0.74c1.18,0,2.21-0.76,2.6-1.94
			c1.46-4.33,5.47-7.23,9.98-7.23c2.22,0,4.34,0.73,6.12,2.1c0.47,0.36,0.97,0.55,1.48,0.55h0c1,0,1.93-0.76,2.32-1.89
			C861.81,987.65,861.74,986.26,860.52,985.32z"/>
		<path className="st0" d="M657.82,1124.65c-0.91,0.92-1.31,1.8-1.31,2.96c0,0.74,0.24,1.39,0.72,1.86c0.49,0.5,1.22,0.78,1.98,0.78
			c1.13,0,2.38-0.64,2.68-2.05c0.83-1.09,0.74-2.61-0.21-3.56C660.66,1123.63,658.83,1123.63,657.82,1124.65z"/>
		<path className="st0" d="M669.93,1120.89v1.55c0,1.74,1.37,2.65,2.72,2.65s2.72-0.91,2.72-2.65v-1.55
			C675.38,1117.42,669.93,1117.42,669.93,1120.89z"/>
		<path className="st0" d="M660.78,1111.97h-1.03c-1.74,0-2.65,1.37-2.65,2.72s0.91,2.72,2.65,2.72h1.03c1.74,0,2.65-1.37,2.65-2.72
			S662.52,1111.97,660.78,1111.97z"/>
		<path className="st0" d="M641.67,1119.72h-0.52c-1.74,0-2.65,1.37-2.65,2.72s0.91,2.72,2.65,2.72h0.52c1.74,0,2.65-1.37,2.65-2.72
			S643.41,1119.72,641.67,1119.72z"/>
		<path className="st0" d="M650.83,1121.92v0.52c0,1.74,1.37,2.65,2.72,2.65c1.35,0,2.72-0.91,2.72-2.65v-0.52
			C656.27,1118.45,650.83,1118.45,650.83,1121.92z"/>
		<path className="st0" d="M608.99,1118.31v0.52c0,1.74,1.37,2.65,2.72,2.65c1.35,0,2.72-0.91,2.72-2.65v-0.52
			C614.44,1114.83,608.99,1114.83,608.99,1118.31z"/>
		<path className="st0" d="M639,1107c-0.37-1.09-1.29-1.74-2.49-1.74c-1.93,0.01-3.23,1.31-3.24,3.24c0,0.74,0.24,1.39,0.72,1.87
			c0.5,0.5,1.22,0.79,1.99,0.79c0.88,0,1.69-0.37,2.19-1C639.05,1109.44,639.39,1108.15,639,1107z"/>
		<path className="st0" d="M619.46,1105.77c-1.93,0.01-3.23,1.31-3.24,3.24c0,0.74,0.24,1.39,0.72,1.86c0.5,0.5,1.22,0.79,1.99,0.79
			c0.88,0,1.69-0.37,2.19-0.99c0.88-0.71,1.23-1.99,0.83-3.15C621.59,1106.43,620.66,1105.77,619.46,1105.77z"/>
		<path className="st0" d="M630.31,1112.49h-0.66c-1.74,0-2.65,1.37-2.65,2.72s0.91,2.72,2.65,2.72h0.66c1.74,0,2.65-1.37,2.65-2.72
			S632.05,1112.49,630.31,1112.49z"/>
		<path className="st0" d="M814.68,1153.57h0.52c1.74,0,2.65-1.37,2.65-2.72s-0.91-2.72-2.65-2.72h-0.52c-1.74,0-2.65,1.37-2.65,2.72
			S812.95,1153.57,814.68,1153.57z"/>
		<path className="st0" d="M829.66,1148.12H829c-1.74,0-2.65,1.37-2.65,2.72s0.91,2.72,2.65,2.72h0.66c1.74,0,2.65-1.37,2.65-2.72
			S831.4,1148.12,829.66,1148.12z"/>
		<path className="st0" d="M829.08,1142.9c0.47-0.48,0.72-1.12,0.72-1.87c-0.01-1.93-1.31-3.23-3.26-3.24c-1.18,0-2.11,0.65-2.47,1.74
			c-0.39,1.16-0.05,2.44,0.83,3.15c0.5,0.63,1.31,1,2.19,1C827.86,1143.68,828.59,1143.4,829.08,1142.9z"/>
		<path className="st0" d="M789.89,1155.12c1.74,0,2.65-1.37,2.65-2.72s-0.91-2.72-2.65-2.72h-0.52c-1.74,0-2.65,1.37-2.65,2.72
			s0.91,2.72,2.65,2.72H789.89z"/>
		<path className="st0" d="M810.18,1159.63v-0.52c0-3.48-5.45-3.48-5.45,0v0.52c0,1.74,1.37,2.65,2.72,2.65
			S810.18,1161.37,810.18,1159.63z"/>
		<ellipse className="st0" cx="802.29" cy="1147.23" rx="2.65" ry="2.72"/>
		<path className="st0" d="M700.98,1149.23c-1.47,0.31-2.14,1.7-2.03,2.94c0.1,1.21,0.95,2.44,2.62,2.44h0.02
			c1.15-0.01,2.04-0.4,2.96-1.32c0.51-0.51,0.79-1.19,0.79-1.92c0-0.74-0.28-1.42-0.79-1.93
			C703.62,1148.52,702.03,1148.43,700.98,1149.23z"/>
		<path className="st0" d="M715.9,1152.4v0.52c0,1.74,1.37,2.65,2.72,2.65c1.35,0,2.72-0.91,2.72-2.65v-0.52
			C721.35,1148.92,715.9,1148.92,715.9,1152.4z"/>
		<path className="st0" d="M702.99,1144.13v0.51c0,1.74,1.37,2.65,2.73,2.65c1.35,0,2.72-0.91,2.72-2.65v-0.51
			C708.44,1140.66,702.99,1140.66,702.99,1144.13z"/>
		<path className="st0" d="M684.02,1141.92c-1.74,0-2.65,1.37-2.65,2.72s0.91,2.72,2.65,2.72c1.74,0,2.65-1.37,2.65-2.72
			S685.76,1141.92,684.02,1141.92z"/>
		<path className="st0" d="M696.93,1136.76h-0.52c-1.74,0-2.65,1.37-2.65,2.72c0,1.35,0.91,2.73,2.65,2.73h0.52
			c1.74,0,2.65-1.37,2.65-2.73C699.58,1138.13,698.67,1136.76,696.93,1136.76z"/>
		<path className="st0" d="M1010.42,1141.41c-1.74,0-2.65,1.37-2.65,2.72c0,1.35,0.91,2.72,2.65,2.72c1.74,0,2.65-1.37,2.65-2.72
			C1013.07,1142.78,1012.16,1141.41,1010.42,1141.41z"/>
		<path className="st0" d="M1031.6,1144.51c-1.09,0-1.97,0.58-2.43,1.61l-0.04,0.05c-0.08,0.1-0.16,0.19-0.22,0.28
			c-0.4,0.53-0.47,1.13-0.56,1.78c-0.08,0.62,0.13,1.24,0.59,1.77c0.55,0.62,1.37,1.01,2.13,1.01c1.11,0,2-0.61,2.45-1.64
			c0.09-0.1,0.17-0.2,0.23-0.29c0.4-0.53,0.47-1.13,0.56-1.78c0.08-0.62-0.13-1.24-0.59-1.76
			C1033.18,1144.9,1032.37,1144.51,1031.6,1144.51z"/>
		<path className="st0" d="M1060,1142.96h-0.66c-1.74,0-2.65,1.37-2.65,2.72s0.91,2.72,2.65,2.72h0.66c1.74,0,2.65-1.37,2.65-2.72
			S1061.74,1142.96,1060,1142.96z"/>
		<path className="st0" d="M1095.12,1134.7h-0.52c-1.74,0-2.65,1.37-2.65,2.72s0.91,2.72,2.65,2.72h0.52c1.74,0,2.65-1.37,2.65-2.72
			S1096.86,1134.7,1095.12,1134.7z"/>
		<path className="st0" d="M1081.32,1132.77v-1.03c0-3.48-5.45-3.48-5.45,0v1.03c0,1.74,1.37,2.65,2.72,2.65
			C1079.95,1135.42,1081.32,1134.51,1081.32,1132.77z"/>
		<ellipse className="st0" cx="1081.69" cy="1147.75" rx="2.65" ry="2.72"/>
		<path className="st0" d="M1084.28,1136.76c-1.74,0-2.65,1.37-2.65,2.72c0,1.35,0.91,2.73,2.65,2.73c1.74,0,2.65-1.37,2.65-2.73
			C1086.93,1138.13,1086.02,1136.76,1084.28,1136.76z"/>
		<path className="st0" d="M1107.52,1127.46h-1.03c-1.74,0-2.65,1.37-2.65,2.72s0.91,2.72,2.65,2.72h1.03c1.74,0,2.65-1.37,2.65-2.72
			S1109.26,1127.46,1107.52,1127.46z"/>
		<path className="st0" d="M1095.71,1119.86c0-1.35-0.91-2.72-2.65-2.72c-1.74,0-2.65,1.37-2.65,2.72s0.91,2.72,2.65,2.72
			C1094.8,1122.58,1095.71,1121.21,1095.71,1119.86z"/>
		<path className="st0" d="M1116.98,1111.54c-2.68-0.43-5.37-0.94-8.01-1.46c0.25-0.54,0.3-1.15,0.15-1.78
			c-1.29-5.25-3.31-10.84-8.53-12.58c-2.04-0.68-4.05-0.9-5.99-1.11c-3.89-0.43-7.24-0.79-10.06-4.57
			c-0.86-1.16-1.39-2.67-1.95-4.28c-0.81-2.33-1.65-4.74-3.62-6.02c-1.96-1.27-4.72-1.88-8.42-1.88c-2.7,0-5.58,0.32-8.12,0.61
			c-0.51,0.06-1,0.11-1.49,0.17c1.57-2.49,2.99-5.1,4.13-7.8c1.04-0.04,2.03-0.64,2.5-1.51c0.42-0.79,0.36-1.68-0.19-2.51
			c-0.17-0.25-0.35-0.5-0.54-0.74l-0.24-0.33c-0.12-0.7-0.57-1.32-1.25-1.7c-4.32-5.48-10.04-10.24-17.48-14.54
			c2.44-5.22,4.76-10.6,7.01-15.79c1.42-3.3,2.85-6.59,4.31-9.87c3.04-6.82,6.82-13.43,10.47-19.83c1.57-2.75,3.2-5.6,4.74-8.42
			c0.4-0.74,0.84-1.51,1.29-2.33c6.16-11.07,15.48-27.8,3.35-37.11c-1.45-1.11-3.19-1.67-5.17-1.67c-4.73,0-8.97,3.08-10.16,4.02
			c-4.31,3.43-6.18,9.73-7.82,15.29c-0.35,1.17-0.68,2.31-1.03,3.35c-5.69,17.35-13.51,35.16-23.79,54.19
			c-3.44-5.29-8.29-9.11-15.92-12.65c-2.14-0.99-4.06-2-5.85-3.06l-0.38-0.1l-0.03,0.04c-1.75-0.7-3.58-1.05-5.43-1.05
			c-5.21,0-9.86,2.75-12.43,7.35c-1.59,2.84-3.1,4.35-4.37,4.35c-2.2,0-4.25-4.57-5.47-12.21c-0.33-2.1-0.5-4.3-0.66-6.43
			c-0.28-3.73-0.57-7.58-1.77-11.15c-0.77-2.31-2.59-3.64-5.55-4.08c-1.91-0.28-3.14-7.21-3.19-18.05l0.02-0.37
			c0.77-11.95,2.17-33.77-7.62-36.32c0.05-10.86-0.2-12.93-0.49-15.29c-0.28-2.35-0.61-5.01-0.69-17.35
			c-0.01-1.74-1.39-2.64-2.74-2.64c-0.45,0-0.88,0.11-1.26,0.29c-0.7-0.05-1.4-0.09-2.13-0.09c-3.7,0-7.38,0.63-10.94,1.24
			c-4.02,0.69-8.17,1.41-12.36,1.19l-0.11,0c-0.95,0-1.88,0.61-2.36,1.56c-0.45,0.89-0.4,1.85,0.12,2.57
			c5.51,7.58,15.55,12.68,24.99,12.68c0.66,0,1.31-0.05,1.95-0.1c0.03,0.26,0.06,0.51,0.09,0.75c0.29,2.36,0.54,4.43,0.48,15.62
			c-6.71,2.59-11.78,12.2-13.92,18.23c-2.17,6.14-2.69,12.92-3.18,19.47c-0.53,7.03-1.09,14.26-3.71,20.68
			c-3.14-1.69-6.58-2.76-10.28-3.08c-0.68-6.21,0.02-12.31,0.77-18.77c0.12-1.02,0.24-2.04,0.35-3.06
			c0.62-5.61,1.38-12.6-1.54-18.39c-2.33-4.61-7.99-5.2-12.67-5.2c-1.86,0-3.71,0.11-5.48,0.21c-0.96,0.06-1.89,0.11-2.75,0.14
			c-0.41-8.26-0.18-16.76,0.04-24.98c0.51-18.95,1.04-38.54-6.12-56.72c-3.04-7.73-9.49-16.56-18.84-20.59
			c-0.39-8.87-1.13-17.72-1.85-26.37c-1.01-11.93-2.05-24.27-2.13-36.46c-0.01-1.74-1.39-2.65-2.74-2.65c-0.77,0-1.5,0.29-1.99,0.79
			c-0.47,0.48-0.72,1.12-0.72,1.87c0.02,2.96,0.1,5.92,0.22,8.89c-4.57,0.75-9.21,1.24-13.73,1.7c-6.76,0.68-13.74,1.39-20.5,3.05
			c-0.94,0.23-1.73,1.09-1.96,2.15c-0.21,0.96,0.08,1.87,0.78,2.44c4.44,3.56,8.97,6.21,13.82,8.09c-2.21,2.17-4.4,4.4-6.52,6.57
			c-1.15,1.18-2.31,2.36-3.47,3.53c-0.77,0.78-0.97,1.98-0.52,3.05c0.42,1,1.28,1.6,2.31,1.6c0,0,0,0,0,0c0.06,0,0.11,0,0.17-0.01
			c5.27-0.33,10.64-0.44,15.83-0.54c5.24-0.1,10.65-0.22,15.99-0.56c0.58,6.97,1.14,14.05,1.49,21.15c-1.27-0.25-2.56-0.44-3.92-0.5
			c-3.51-0.16-6.06,0.66-7.89,2.49c-3.46,3.47-3.45,9.9-3.44,16.12c0.01,3.92,0.01,7.62-0.83,10.41c-0.25,0.83-0.09,1.47,0.13,1.92
			l-0.59,0.77c-4.13,5.42-8.4,11.02-9.28,17.91c-0.1,0.78-0.16,1.58-0.2,2.39c-2.06,1.21-4.14,2.33-6.16,3.39
			c-5.46,2.88-10.62,5.61-15.11,10.33c-6.3,6.63-10.38,15.07-13.85,23.21c-3.03,7.09-5.11,14.56-7.13,21.78l-0.19,0.7
			c-1.34,4.79-2.96,8.84-4.94,12.38c-0.96,1.72-6.83,8.3-10.46,8.3c-1.28,0-2.14-0.82-2.64-2.51c-0.34-1.14-1.27-1.85-2.43-1.9
			c-2.55-4.19-5.99-6.64-9.54-6.64c-3.03,0-5.96,1.8-8.45,5.19c-7.05,9.59-15.02,23.97-12.99,37.94c0.07,0.51,0.27,0.95,0.56,1.28
			c-1.12,1.26-2.25,2.51-3.38,3.75c-2.13,2.34-4.3,4.74-6.29,7.16c-1.87-1.63-3.71-2.45-5.47-2.45c-4.89,0-8.2,6.36-9.07,12.86
			c-1.1-1-1.53-2.77-1.97-4.63c-0.73-3.06-1.57-6.54-5.8-6.9c-6.78-0.59-8.46,3.7-10.25,8.24c-0.83,2.1-1.69,4.27-3.1,6.02
			c-1.5,1.85-2.78,2.8-3.81,2.8c-1.53,0-2.62-2.08-3.78-4.28c-0.68-1.29-1.38-2.62-2.23-3.65c-2.75-3.37-7.11-2.31-12.36,3.05
			c-1.84,1.88-2.5,4.67-3.09,7.13c-0.12,0.52-0.25,1.03-0.37,1.51c-0.24,0.92-0.6,1.45-0.99,1.45c-0.73,0-1.81-1.64-1.85-3.17
			c-0.05-1.82-0.19-3.78-0.92-5.81c-1-2.8-3.66-4.48-7.13-4.48c-2.53,0-5.06,0.89-6.79,2.38c-10.59,9.17-10.45,40.66-10.39,54.11
			l0,0.24c-4.81,2.39-9.32,5.51-13.73,8.58c-2.59,1.8-5.26,3.65-7.91,5.29c-1.07,0.66-1.52,1.82-1.18,3.03
			c0.35,1.23,1.4,2.09,2.55,2.09c0.47,0,0.95-0.14,1.4-0.42c2.51-1.55,5.04-3.39,7.73-5.33c7.4-5.35,15.05-10.89,23.34-11.48
			c3.91-0.27,7.73,1.9,11.42,3.99c1.36,0.77,2.64,1.5,3.91,2.1c2.9,1.37,5.9,2.03,9.17,2.03h0c0.16,0,0.32-0.02,0.48-0.02
			c-0.66,1.44-1.41,2.83-2.27,4.17c-3.13,0.73-6.3,1.63-9.55,2.57c-7.34,2.12-14.93,4.31-22.62,4.31c0,0,0,0,0,0
			c-1.3,0-2.59-0.06-3.84-0.19c-1.76-0.17-2.6,1.09-2.66,2.33c-0.07,1.38,0.81,2.93,2.58,3.11c1.1,0.11,2.25,0.17,3.41,0.17
			c7.37,0,14.92-2.25,22.22-4.43c7.07-2.11,14.39-4.29,21.29-4.29c6.65,0,12.31,2.03,17.33,6.22c0.52,0.44,1.14,0.67,1.79,0.67
			c1.21,0,2.38-0.82,2.79-1.95c0.35-0.96,0.06-1.92-0.78-2.62c-6.02-5.03-12.62-7.48-20.17-7.48c-1.62,0-3.23,0.12-4.84,0.3
			c2.56-5.21,4.13-10.91,5.64-16.47c0.68-2.5,1.39-5.09,2.17-7.57c1.88-5.94,4.48-12.45,11.63-14.45c1.2-0.34,2.53-0.51,3.96-0.51
			c4.06,0,8.52,1.36,12.45,2.55c1.44,0.44,2.8,0.85,4.1,1.19c1.5,0.39,2.92-0.51,3.29-2.03c2.37-1.97,3.38-4.31,3.36-7.81
			c-0.01-2-0.59-4.04-1.14-6.01c-0.17-0.61-0.34-1.22-0.5-1.82c-1.11-4.4-0.36-9.12,2.3-14.42c3.02-6.02,7.71-11.09,12.24-16
			c5.35-5.79,10.89-11.78,13.74-19.38c0.3-0.8,0.23-1.59-0.21-2.22c-0.49-0.7-1.39-1.14-2.35-1.14c-1.24,0-2.24,0.69-2.68,1.84
			c-1.28,3.43-3.31,6.88-6.36,10.81c-0.27-7.16,2.61-12.91,5.93-19.52l0.43-0.85c0.3-0.59,0.62-1.29,0.98-2.05
			c2.06-4.41,5.16-11.08,9.42-11.63c3.55-0.48,5.95,3.76,7.26,12.52l0.06,0.39l0.22-0.03c0.55,2.26,1.56,4.41,3.01,6.34
			c0.56,0.74,1.37,1.15,2.28,1.15c1.12,0,2.22-0.64,2.67-1.55c0.39-0.78,0.29-1.65-0.3-2.43c-1.31-1.75-2.13-3.5-2.49-5.28
			c0.36,0.05,0.72,0.08,1.1,0.08h0c1.95,0,4.19-0.6,6.67-1.77c7.58-3.59,11.26-12.46,13.87-20.67c0.69-2.17,1.35-4.32,2-6.47
			c2.72-8.88,5.28-17.28,9.51-25.6c3.16-6.22,7.25-11.77,12.16-16.52c2.97-2.87,6.98-4.73,10.87-6.54c1.13-0.53,2.29-1.06,3.42-1.63
			l0.04,0.36l0.35-0.33c-0.1,0.63-0.24,1.25-0.49,1.82c-0.41,0.92-0.33,1.89,0.22,2.72c0.56,0.85,1.52,1.4,2.45,1.4
			c0.92,0,1.68-0.53,2.08-1.46c1.14-2.58,1.16-5.22,1.18-7.77c0.01-1.34,0.03-2.72,0.2-4.1c0.06-0.46,0-0.88-0.14-1.25
			c0.63-3.03,1.86-5.94,3.77-8.91c1.36-2.1,2.89-4.13,4.37-6.08c2.04-2.69,4.14-5.48,5.85-8.53c0.49-0.87,0.49-1.8,0.01-2.62
			c-0.7-1.2-2.39-1.78-3.57-1.23c0.14-2.62,0.08-5.27,0-8.19c-0.01-0.28-0.02-0.59-0.04-0.92c-0.12-2.68-0.29-6.35,2.19-7.38
			c0.67-0.28,1.48-0.42,2.41-0.42c1.62,0,3.4,0.41,5.14,0.97c0.1,3.17,0.15,6.34,0.12,9.5c-0.01,0.74,0.24,1.39,0.72,1.87
			c0.5,0.5,1.22,0.79,1.99,0.79c1.35,0,2.73-0.91,2.74-2.64c0.02-2.42-0.01-4.85-0.07-7.27c8.24,4.24,13.78,13.33,16.93,27.72
			c3.15,14.4,2.75,29.3,2.37,43.7c-0.29,10.88-0.59,22.13,0.64,33.11c0.19,1.69,1.64,2.58,2.98,2.58c0.78,0,1.48-0.29,1.93-0.79
			c0.43-0.48,0.62-1.13,0.53-1.87c-0.11-0.96-0.2-1.92-0.28-2.89c0.92-0.03,1.85-0.07,2.78-0.12c1.33-0.07,2.7-0.13,4-0.13
			c5.84,0,9.82,1.38,10.31,8.11c0.39,5.4-0.2,10.76-0.77,15.95c-0.86,7.87-1.76,16.01,0.82,24.27c0.37,1.18,1.36,1.9,2.58,1.9
			c0.93,0,1.83-0.43,2.34-1.12c0.46-0.63,0.58-1.43,0.32-2.25c-0.15-0.48-0.28-0.95-0.41-1.43c5.95,0.89,10.89,4.05,14.69,9.38
			c7.5,10.53,8.64,26.74,6.54,37.79c-2-3.02-3.52-6.58-4.76-9.49l-0.29-0.69c-0.4-0.93-1.15-1.47-2.07-1.47
			c-0.92,0-1.88,0.55-2.44,1.4c-0.55,0.83-0.64,1.8-0.24,2.73c3.96,9.25,9.21,18.12,20.72,20.35c2.28,0.44,4.54,0.63,6.72,0.82
			c4.46,0.38,8.67,0.73,12.83,3.07c3.61,2.03,5.93,6.46,7.98,10.37l0.51,0.97c0.03,0.39,0.14,0.77,0.33,1.13
			c0.44,0.83,0.89,1.69,1.34,2.55c3.84,7.41,8.2,15.81,16.82,18.34c0.28,0.08,0.55,0.12,0.81,0.12c1.51,0,2.37-1.24,2.54-2.39
			c0.17-1.16-0.35-2.53-1.89-2.98c-2.61-0.77-4.96-2.4-7.13-4.98c3.71,1.29,8.02,1.79,12.67,1.49l0.26-0.02
			c1.98-0.13,3.85-0.25,5.62-0.25c6.22,0,10.87,1.57,13.41,9.23l0.04,0.13c0.1,0.29,0.19,0.57,0.29,0.86
			c-0.63,0.7-0.82,1.65-0.67,2.48c0.24,1.32,1.22,2.16,2.38,2.16c0.97,2.26,2.18,4.38,4.04,6.37c0.52,0.56,1.16,0.86,1.84,0.86
			c1.05,0,2.09-0.73,2.55-1.78c0.44-1,0.24-2.09-0.52-2.91c-1.1-1.19-1.96-2.45-2.68-3.74c0.69-0.08,1.38-0.14,2.09-0.14
			c6.02,0,11.32,3.03,16.93,6.24c5.61,3.21,11.42,6.53,18.13,6.67h0.07c1.76,0,2.57-1.37,2.59-2.64c0.01-1.37-0.89-2.77-2.64-2.81
			c-6.79-0.15-12.43-3.42-17.89-6.59c-3.74-2.17-7.61-4.42-11.76-5.56c3.14-3.14,6.86-7.1,10.32-11.61
			c0.12,0.01,0.23,0.04,0.36,0.04l0.11,0c1.57-0.05,3.12-0.15,4.67-0.25c2.25-0.14,4.57-0.29,6.85-0.29c2.7,0,4.97,0.2,7.14,0.63
			c0.34,0.46,1.48,2.85,2.4,4.79c1.52,3.2,2.47,5.17,2.88,5.6c2.93,3.09,6.19,4.71,10.26,5.09c7.08,0.66,10.06,1.66,12.05,9.13
			c-2.1-0.4-4.21-0.79-6.32-1.13c-1.94-0.31-3.26,1.25-3.38,2.75c-0.1,1.32,0.69,2.31,2.01,2.53c3.27,0.52,6.58,1.17,9.78,1.8
			c3.22,0.63,6.55,1.29,9.84,1.81c0.17,0.03,0.33,0.04,0.49,0.04c1.67,0,2.78-1.42,2.89-2.79
			C1119.1,1112.75,1118.31,1111.76,1116.98,1111.54z M954.75,916.28c-5.89,0-12.28-2.33-16.9-6.12c2.18-0.24,4.36-0.61,6.48-0.98
			c3.52-0.61,7.17-1.23,10.8-1.23c0.24,0,0.46,0.02,0.7,0.03c0.04,3.63,0.11,6.27,0.19,8.24
			C955.59,916.24,955.18,916.28,954.75,916.28z M856.57,818.22c-2.95,0.06-6,0.12-9.01,0.22c2.88-2.94,5.52-5.61,8.29-8.2
			c0.68-0.64,0.95-1.58,0.73-2.52c-0.24-0.99-0.97-1.77-1.92-2.04c-3.99-1.13-7.64-2.73-11.11-4.87c4.79-0.82,9.69-1.32,14.44-1.8
			c4.18-0.43,8.46-0.87,12.7-1.53c0.38,6.79,0.91,13.55,1.47,20.2C866.96,818,861.68,818.11,856.57,818.22z M736.81,1037.2
			c-0.16,1.6,0.23,3.99,0.65,6.52c0.8,4.88,1.7,10.39-0.69,12.49c-5.36-1.43-10.9-2.9-16.16-2.9c-6.78,0-11.91,2.53-15.68,7.74
			c-4.14,5.73-5.91,12.71-7.62,19.46c-0.7,2.76-1.42,5.57-2.3,8.31c-0.6,0.08-1.22,0.13-1.83,0.13c-4.4,0-8.44-2.08-12.34-4.09
			c-3.94-2.03-8.02-4.13-12.52-4.13c-1.03,0-2.07,0.11-3.09,0.33c-1.37,0.3-2.7,0.7-4.01,1.15c0.23-6.39,1.23-17.82,1.85-25.03
			c0.15-1.69,0.27-3.14,0.36-4.23c0.33-4,1.05-7.9,2.12-11.6c0.43-1.46,4.58-8.81,7.44-8.81c0.9,0,1.64,0.79,2.19,2.35
			c0.55,1.54,0.63,3.28,0.71,4.97c0.17,3.68,0.35,7.48,5.62,8.48c0.4,0.08,0.79,0.11,1.17,0.11c4.43,0,5.83-5.2,6.96-9.37
			c0.4-1.48,0.78-2.88,1.24-3.82c1.13-2.3,2.2-3.47,3.18-3.47c1.43,0,2.77,2.43,3.96,4.57c0.49,0.88,0.94,1.71,1.4,2.37
			c2.21,3.17,5.88,3.73,9.83,1.58c2.32-1.27,4.43-3.37,5.81-5.77c0.14-0.25,0.38-0.81,0.71-1.59c1.05-2.47,3.84-9.05,5.82-9.05
			c0.67,0,1.18,0.9,1.49,1.66c0.62,1.52,1.02,2.96,1.37,4.23c1.12,4.08,1.93,7.03,8.61,7.03c0.73,0,1.45-0.31,1.97-0.85
			c0.51-0.52,0.77-1.19,0.75-1.88c-0.08-2.49,0.57-8.21,2.44-10.13c0.97-1,2.12-0.79,3.55,0.52
			C739.65,1027.68,737.31,1032.19,736.81,1037.2z M1076.33,1113.14L1076.33,1113.14L1076.33,1113.14L1076.33,1113.14z
			 M1050.88,1001.97l1.22-2.96c2.74-6.64,5.57-13.51,8-20.38c0.43-1.22,0.83-2.5,1.22-3.74c1.91-6.11,3.88-12.43,10.5-14.67
			c0.68-0.23,1.33-0.35,1.93-0.35c4.09,0,5.72,5.34,5.82,8.94c0.1,3.83-2.12,8.44-3.9,12.14c-0.4,0.83-0.79,1.63-1.13,2.38
			c-2.81,6.17-6.24,12.18-9.55,18c-0.63,1.1-1.26,2.21-1.88,3.31c-5.18,9.16-9.48,18.86-13.64,28.25c-2.05,4.62-4.16,9.4-6.36,14.06
			c-3.57-1.79-7.48-3.49-11.65-5.05C1038.96,1028.58,1045.32,1015.52,1050.88,1001.97z M948.25,1008.96
			c0.29-0.22,0.54-0.49,0.74-0.84c1.43-2.53,2.93-3.81,4.44-3.81c2.82,0,5.53,4.59,6.85,8.86c0.59,1.9,0.49,4.25,0.4,6.31
			c-0.02,0.45-0.04,0.88-0.05,1.3c-0.13,4.55-1.52,17.05-4.83,17.05c-0.33,0-0.68-0.12-1.05-0.37c-0.09-0.06-0.18-0.08-0.26-0.13
			C954.7,1027.82,952.84,1017.38,948.25,1008.96z M986.53,1063.59c-2.97-3.82-6.58-6.86-12.37-8.46c-0.3-0.08-0.6-0.13-0.9-0.2
			c-0.26-1.55,0.02-3.03,0.88-4.22c1.05-1.47,2.79-2.35,4.65-2.35c1.73,0,3.39,0.78,4.66,2.2c1.99,2.21,3.88,6.5,3.66,10.42
			C987.04,1061.94,986.84,1062.81,986.53,1063.59z M993.88,1074.8c-0.45-0.59-0.89-1.19-1.29-1.84c-0.42-0.69-0.84-1.37-1.24-2.04
			c-0.49-0.81-0.97-1.61-1.46-2.39c2.01-2.44,2.93-5.91,2.58-9.96c-0.5-5.89-3.53-11.51-7.54-13.98c-1.87-1.16-3.89-1.74-6-1.74
			c-3.67,0-7.14,1.79-9.28,4.8c-1.38,1.94-2.04,4.15-1.98,6.45c-0.75-0.06-1.5-0.12-2.23-0.17c-3.65-0.26-7.43-0.52-11-2.03
			c-0.61-0.26-1.22-0.59-1.81-1c0-0.01,0.01-0.02,0.01-0.03c0.65-2.34,1.13-4.91,1.45-7.63c0.79,0.3,1.56,0.46,2.29,0.46
			c8.62,0,9.64-20.06,9.75-24.08c0.19-6.82-1.55-12.33-5.49-17.35c-1.94-2.48-4.28-3.79-6.76-3.79c-3.13,0-6.39,2.13-8.77,5.62
			c-1.37-1.78-2.87-3.34-4.49-4.7c2.96-6.98,3.77-14.76,4.55-22.31c1.28-12.4,2.48-24.11,12.31-32.8c0.97-0.86,1.84-1.29,2.58-1.29
			c2.51,0,4,4.97,4.42,14.78l0.02,0.56c0.21,4.58,0.09,9.25-0.03,13.76c-0.06,2.38-0.13,4.84-0.14,7.27c0,0.6,0.23,1.21,0.65,1.73
			c0.29,3.42,0.73,7.03,1.34,11.02c0.47,3.13,3.65,5.2,6.55,5.62c2.11,0.31,2.86,11.6,3.18,16.42c0.12,1.87,0.21,3.22,0.32,3.83
			c0.7,3.98,2.16,12.25,8.17,13.99c0.72,0.21,1.42,0.31,2.09,0.31c3.74,0,6.12-3.22,8.42-6.33c2.27-3.08,4.63-6.26,8.26-6.26
			c1.22,0,2.52,0.34,3.96,1.04c0.36,0.18,0.74,0.27,1.13,0.29c0.68,0.37,1.36,0.74,2.05,1.11c7.07,3.82,13.74,7.43,17.55,14.76
			c-0.59,1.05-1.14,2.08-1.74,3.14c-4.31-1.44-9.06-2.85-14.5-4.3c-0.48-0.94-1.52-1.58-2.61-1.58c-0.93,0-1.72,0.46-2.22,1.3
			C999.26,1048.07,995.89,1062.09,993.88,1074.8z M1039.88,1094.94c-0.08,0.08-0.16,0.16-0.23,0.25c-0.95,0.06-1.89,0.2-2.83,0.39
			c-0.11-0.29-0.22-0.58-0.32-0.87c-1.88-5.09-3.66-9.9-10.32-12.59c-1.59-0.64-3.45-0.95-5.71-0.95c-2.12,0-4.29,0.27-6.38,0.53
			c-1.36,0.17-2.65,0.33-3.87,0.41c-4.39,0.27-8.27-0.72-11.54-2.82c1.77-12.21,4.61-26.02,11.37-38.35
			c4.07,1.08,10.06,2.72,16.09,4.79c0.34,0.2,0.71,0.33,1.04,0.36c5.08,1.79,9.76,3.75,13.9,5.84c0.02,0.66,0.28,1.29,0.76,1.81
			c0.94,1.02,2.54,1.26,3.52,0.5c6.46,3.74,11.64,8.03,15.4,12.74C1056.91,1077.61,1048.05,1087.08,1039.88,1094.94z"/>
		<path className="st0" d="M971.03,1146.72v0.52c0,1.74,1.37,2.65,2.72,2.65c1.35,0,2.72-0.91,2.72-2.65v-0.52
			C976.48,1143.24,971.03,1143.24,971.03,1146.72z"/>
		<ellipse className="st0" cx="979.44" cy="1143.62" rx="2.65" ry="2.72"/>
		<path className="st0" d="M972.79,1136.39c0-1.35-0.91-2.72-2.65-2.72c-1.74,0-2.65,1.37-2.65,2.72s0.91,2.72,2.65,2.72
			C971.88,1139.11,972.79,1137.74,972.79,1136.39z"/>
		<path className="st0" d="M1000.99,1147.37c-1.02-1.02-2.84-1.02-3.85,0c-1.06,1.06-1.06,2.79,0,3.85l0.52,0.52
			c0.51,0.51,1.19,0.79,1.93,0.79c0.73,0,1.42-0.28,1.93-0.79c1.04-1.04,1.04-2.81,0-3.85L1000.99,1147.37z"/>
		<path className="st0" d="M989.76,1126.95c-1.74,0-2.65,1.37-2.65,2.72s0.91,2.72,2.65,2.72c1.74,0,2.65-1.37,2.65-2.72
			S991.5,1126.95,989.76,1126.95z"/>
		<path className="st0" d="M796.12,1161.35c-0.35-1.24-1.4-2.1-2.55-2.1c-0.47,0-0.94,0.14-1.39,0.42c-5.86,3.6-11.48,5.2-18.23,5.2
			c-3.94,0-8.08-0.53-12.46-1.08c-1.04-0.13-2.11-0.27-3.2-0.4c-1.09-0.13-2.41-0.27-3.81-0.36c1.09-0.25,2.04-1.12,2.04-2.56v-0.52
			c0-3.48-5.45-3.48-5.45,0v0.52c0,1.32,0.79,2.16,1.76,2.49c-0.3-0.01-0.61-0.02-0.91-0.02c-6.96,0-11.51,2.3-13.92,7.03
			c-0.45,0.89-0.43,1.84,0.08,2.67c0.54,0.87,1.51,1.44,2.49,1.44c0.92,0,1.7-0.51,2.16-1.4c1.58-3.11,4.83-4.62,9.92-4.62
			c3.97,0,8.31,0.89,12.14,1.68c1.84,0.38,3.57,0.73,4.99,0.93c8.24,1.11,16.43-0.93,25.16-6.29
			C796.01,1163.7,796.46,1162.55,796.12,1161.35z"/>
		<path className="st0" d="M777.55,1183.05c-1.74,0-2.65,1.37-2.65,2.72c0,1.35,0.91,2.72,2.65,2.72c1.74,0,2.65-1.37,2.65-2.72
			C780.2,1184.42,779.29,1183.05,777.55,1183.05z"/>
		<path className="st0" d="M759.05,1188.07c-0.05-0.08-0.14-0.18-0.22-0.28l-0.04-0.05c-0.46-1.02-1.34-1.61-2.43-1.61
			c-0.77,0-1.59,0.39-2.13,1.01c-0.46,0.52-0.67,1.15-0.59,1.76c0.08,0.65,0.16,1.25,0.56,1.78c0.06,0.09,0.14,0.19,0.23,0.29
			c0.45,1.03,1.35,1.64,2.45,1.64c0.77,0,1.59-0.39,2.13-1.01c0.46-0.52,0.67-1.15,0.59-1.77
			C759.53,1189.2,759.45,1188.61,759.05,1188.07z"/>
		<path className="st0" d="M811.49,1188.35v0.52c0,1.74,1.37,2.65,2.72,2.65c1.35,0,2.72-0.91,2.72-2.65v-0.52
			C816.94,1184.88,811.49,1184.88,811.49,1188.35z"/>
		<ellipse className="st0" cx="808.54" cy="1185.26" rx="2.65" ry="2.72"/>
		<path className="st0" d="M817.83,1175.3c-1.74,0-2.65,1.37-2.65,2.72s0.91,2.72,2.65,2.72c1.74,0,2.65-1.37,2.65-2.72
			S819.57,1175.3,817.83,1175.3z"/>
		<path className="st0" d="M786.98,1189.01l-0.52,0.52c-1.04,1.04-1.04,2.81,0,3.85c0.51,0.51,1.19,0.79,1.93,0.79
			c0.73,0,1.42-0.28,1.93-0.79l0.52-0.52c1.06-1.06,1.06-2.79,0-3.85C789.82,1187.99,788,1187.99,786.98,1189.01z"/>
		<path className="st0" d="M798.21,1168.59c-1.74,0-2.65,1.37-2.65,2.72s0.91,2.72,2.65,2.72c1.74,0,2.65-1.37,2.65-2.72
			S799.94,1168.59,798.21,1168.59z"/>
		<path className="st0" d="M1012.94,1114.18c0,1.35,0.91,2.72,2.65,2.72c1.74,0,2.65-1.37,2.65-2.72s-0.91-2.72-2.65-2.72
			C1013.85,1111.46,1012.94,1112.82,1012.94,1114.18z"/>
		<path className="st0" d="M1021.41,1104.37v-0.52c0-3.48-5.45-3.48-5.45,0v0.52c0,1.74,1.37,2.65,2.72,2.65
			C1020.04,1107.01,1021.41,1106.1,1021.41,1104.37z"/>
		<path className="st0" d="M996.48,1108.12c1.74,0,2.65-1.37,2.65-2.72c0-1.35-0.91-2.72-2.65-2.72c-1.74,0-2.65,1.37-2.65,2.72
			C993.83,1106.75,994.74,1108.12,996.48,1108.12z"/>
		<path className="st0" d="M1062.07,1117.13h-0.52c-1.74,0-2.65,1.37-2.65,2.72s0.91,2.72,2.65,2.72h0.52c1.74,0,2.65-1.37,2.65-2.72
			S1063.81,1117.13,1062.07,1117.13z"/>
	</g>
</g>
</svg>
