<svg width="354" height="488" viewBox="0 0 354 488" fill="none" xmlns="http://www.w3.org/2000/svg">
<path d="M350.791 184.745C352.792 185.569 354.192 182.968 353.368 181.392C344.454 164.347 324.896 145.43 304.139 153.48C290.815 158.65 284.149 172.741 278.564 186.345C279.932 161.354 288.07 129.138 298.929 106.868C299.706 105.275 298.401 102.714 296.353 103.515C263.368 116.422 253.629 162.939 265.352 193.283C241.306 179.039 207.785 191.442 202.175 221.923C201.751 224.219 204.2 225.652 205.984 224.147C222.237 210.424 242.354 201.533 263.2 205.286C252.093 206.607 240.281 207.679 233.103 217.153C224.837 228.068 222.221 245.769 227.006 258.637C227.91 261.069 231.495 260.397 231.551 258.277C231.695 258.092 231.823 257.876 231.911 257.628C238.481 239.511 250.22 224.659 265.912 214.185C258.726 229.629 253.237 247.426 262.503 262.614C262.551 264.086 263.944 265.487 265.496 264.766C266.28 264.646 267.001 264.158 267.345 263.486C276.091 256.588 279.964 243.809 280.54 231.069C287.27 254.115 293.288 277.274 298.033 300.52C297.865 300.584 297.705 300.656 297.529 300.72C297.145 300.856 296.841 301.064 296.609 301.312C296.313 301.448 296.017 301.584 295.712 301.712C293.016 302.873 295.344 306.802 298.017 305.657C298.337 305.521 298.657 305.369 298.977 305.225C299.113 305.897 299.249 306.57 299.385 307.242C292.44 321.262 283.717 333.993 274.899 346.893C265.432 360.736 257.622 375.732 246.315 388.24C246.203 388.368 246.107 388.496 246.027 388.632C243.922 388.984 241.818 389.336 239.721 389.68C239.305 389.752 238.985 389.904 238.729 390.112C238.345 390.296 238.025 390.584 237.849 390.984C236.56 393.953 235.824 396.81 236.344 400.051C236.344 401.195 237.081 402.316 238.553 402.276C238.569 402.276 238.585 402.276 238.609 402.276C233.176 410.862 224.661 418.632 216.115 425.066C199.454 429.531 177.672 422.569 162.868 416.271C144.616 408.509 128.859 396.258 113.679 384.175C114.591 383.446 115.376 382.814 115.976 382.302C116.792 381.606 116.88 380.742 116.552 380.014C117.864 375.076 112.455 372.059 107.966 372.259C107.806 372.243 107.638 372.259 107.469 372.291C107.197 372.315 106.925 372.355 106.661 372.403C105.853 372.564 105.381 373.028 105.165 373.596C105.141 373.612 105.117 373.628 105.093 373.644C94.354 366.818 86.5118 356.495 78.7257 346.621C70.3474 335.986 61.449 325.631 56.4157 312.979C57.1439 313.083 57.8801 313.179 58.6243 313.251C61.5531 313.532 61.5291 308.962 58.6243 308.69C57.784 308.61 56.9438 308.49 56.1196 308.354C56.3356 307.258 56.5597 306.162 56.7838 305.073C58.0161 305.385 59.2724 305.617 60.5288 305.777C63.4416 306.146 63.4096 301.576 60.5288 301.216C60.4168 301.2 60.3047 301.176 60.1927 301.16C59.9926 301.048 59.7685 300.96 59.4885 300.912C58.8803 300.808 58.2881 300.688 57.696 300.544C60.2567 288.229 63.1295 275.993 66.3864 263.902C75.6529 229.493 89.1525 196.524 103.973 164.171C114.287 141.653 126.747 115.014 146.536 98.4573C142.927 106.996 139.51 115.606 136.989 124.56C133.677 136.324 133.356 148.359 133.372 160.49C133.396 182.856 135.341 208.143 149.089 226.74C150.009 227.988 152.21 228.437 153.026 226.74C163.557 204.998 169.006 181.728 169.214 157.569C169.318 145.63 167.782 133.707 165.405 122.024C163.901 114.63 162.3 106.603 159.932 99.0655C195.157 110.677 216.195 146.79 210.001 183.728C209.633 185.937 212.818 187.305 214.09 185.401C227.43 165.227 241.73 137.612 231.735 113.221C227.198 102.146 217.299 96.3447 206.08 93.9921C192.228 91.0793 177.416 89.983 163.157 89.4788C177.841 79.6201 191.388 74.8189 208.873 75.307C222.557 75.6911 254.493 85.2057 271.226 85.2137C273.843 85.2137 275.315 82.3009 272.986 81.0445C251.084 69.2414 227.542 36.5685 199.975 43.3543C181.129 47.9956 172.735 58.8545 161.74 74.0507C165.445 56.6059 164.469 37.0726 153.506 23.0288C141.583 7.7607 122.281 -2.58611 102.628 0.566745C100.732 0.870828 100.34 3.95168 102.084 4.73589C124.722 14.9467 134.221 38.1449 142.791 60.8551C133.156 49.1159 119.777 41.2658 103.036 40.7376C91.6332 40.3775 78.9818 44.0105 68.1628 47.3314C57.4879 50.6043 47.9654 56.5179 42.6999 66.6166C41.6276 68.6812 43.7642 70.7938 45.8208 69.7375C62.2893 61.2632 83.727 58.9265 101.86 63.5198C117.04 67.3688 134.189 75.291 146.352 86.1259C119.185 82.845 83.8471 83.6213 65.098 105.315C64.1377 106.427 64.2338 108.092 65.5621 108.9C78.9258 116.998 95.5383 115.942 110.246 112.797C115.976 111.573 121.833 109.836 127.515 107.572C111.983 124.144 100.147 145.278 88.6484 163.707C68.0988 196.652 51.7104 232.101 38.5868 268.599C36.7223 273.793 34.9458 279.002 33.2174 284.212C31.2408 283.635 29.1202 286.244 30.9447 287.997C31.2088 288.253 31.4809 288.509 31.745 288.765C31.3529 289.981 30.9528 291.197 30.5607 292.422C28.6721 290.869 25.3752 292.974 27.0317 295.143C27.6558 295.959 28.3041 296.743 28.9682 297.511C10.2192 358.536 0.952634 420.993 0.0003764 485.298C-0.0476366 488.507 4.51361 488.507 4.56162 485.298C5.51388 422.153 14.6764 361.328 32.6652 301.36C37.7386 306.106 43.7082 309.65 50.35 311.635C50.326 311.755 50.286 311.859 50.286 311.995C50.262 312.907 50.254 313.82 50.238 314.74C46.3329 335.978 43.3401 357.391 40.8755 378.725C36.8584 413.439 34.9698 441.798 38.4828 476.584C39.0909 482.609 43.5562 481.809 42.972 476C39.5871 442.334 41.4996 415.143 45.1246 381.526C46.677 367.162 48.5575 352.758 50.8061 338.41C52.2385 360.216 56.2956 382.27 64.0177 402.091C64.0257 402.108 64.0337 402.124 64.0417 402.14C63.8737 402.268 63.7056 402.388 63.5376 402.508C62.5933 402.564 61.8651 403.26 61.481 404.172C59.1604 409.678 64.1297 417.904 70.4034 414.359C70.6115 414.247 70.7715 414.111 70.9156 413.967C71.5958 413.639 72.42 413.183 73.3482 412.638C74.9567 414.375 76.6131 416.023 78.3176 417.616C105.229 447.064 143.167 465.677 183.658 461.564C205.592 459.331 226.39 451.049 245.355 440.126C264.36 429.179 284.437 412.63 295.616 393.961C295.624 393.945 295.632 393.929 295.64 393.913C297.449 393.521 299.257 393.105 301.042 392.617C302.162 392.313 302.642 391.433 302.65 390.544C304.443 388.208 305.331 384.807 303.611 382.23C303.475 381.238 302.762 380.398 301.458 380.534C300.05 380.678 298.649 380.838 297.241 380.998C300.002 371.459 301.858 363.073 303.242 352.902C303.963 347.581 304.323 342.667 304.499 338.066C310.516 382.342 310.701 426.93 300.802 471.702C299.289 478.552 303.923 478.848 305.515 471.534C317.214 417.736 314.614 364.121 304.811 311.059C307.612 310.003 310.196 308.514 312.573 306.714C325.088 361.168 327.273 418.192 327.569 474.583C327.601 480.369 332.162 480.113 332.13 474.207C331.81 416.807 329.49 358.744 316.47 303.377C317.014 302.857 317.542 302.328 318.063 301.792C319.975 299.8 317.246 296.831 315.222 298.239C314.982 297.279 314.742 296.319 314.502 295.359C315.198 294.726 315.878 294.086 316.55 293.43C317.118 292.87 317.286 292.222 317.206 291.622C318.767 289.237 314.886 287.036 313.221 289.397C313.157 289.493 313.069 289.573 313.005 289.669C306.523 265.727 297.889 242.352 286.342 219.81C303.034 233.302 324.208 239.888 346.39 237.071C346.854 237.015 347.23 236.839 347.551 236.599C348.855 239.007 352.592 236.743 351.4 234.15C339.692 208.607 309.084 194.003 281.693 198.836C297.433 176.47 325.809 174.43 350.791 184.745ZM160.956 123.216C163.429 134.491 164.509 146.014 164.605 157.545C164.789 179.471 159.708 201.109 150.641 220.994C139.822 203.95 138.222 182.36 137.91 162.643C137.726 151.063 138.062 139.612 140.694 128.289C143.263 117.23 147.784 106.699 152.306 96.2887C152.61 96.7608 153.082 97.1369 153.754 97.297C154.042 97.369 154.322 97.449 154.602 97.521C157.499 105.771 159.147 114.966 160.956 123.216ZM195.085 97.1049C208.857 98.4893 220.98 101.546 227.494 115.006C236.472 133.547 226.054 157.057 215.499 174.558C217.235 137.932 194.141 104.355 158.475 93.864C170.791 94.2962 182.802 95.8726 195.085 97.1049ZM201.127 47.7315C223.781 41.3458 245.163 69.1933 264.896 80.8125C246.643 80.4284 222.509 68.4411 206.536 70.3376C186.971 72.6583 174.288 75.8191 158.099 87.4543C170.038 68.7212 178.817 54.0292 201.127 47.7315ZM111.199 4.49579C126.987 4.99993 141.975 14.8026 151.057 27.422C161.628 42.114 160.428 63.3277 155.322 80.4123C143.559 54.0932 136.549 20.5721 111.199 4.49579ZM103.004 59.0946C87.16 54.0692 67.2906 56.1818 51.3263 62.2875C62.5773 50.3962 83.2469 46.8753 98.5311 45.4189C123.826 43.0022 142.303 61.7833 150.537 83.8213C137.518 71.698 119.625 64.368 103.004 59.0946ZM112.927 107.404C99.4673 111.109 83.2149 112.765 70.3074 106.323C88.8564 87.6223 122.089 87.5343 147.056 90.7512C146.568 91.1673 146.04 91.5434 145.544 91.9515C143.687 93.1918 141.879 94.4962 140.118 95.8725C131.812 101.21 122.298 104.827 112.927 107.404ZM292.312 110.38C281.365 135.587 273.955 170.925 273.586 198.372C273.45 198.676 273.322 198.972 273.186 199.269C273.122 199.205 273.05 199.141 272.986 199.077C259.055 172.405 264.104 125.689 292.312 110.38ZM229.719 250.891C227.926 239.704 230.807 226.428 238.057 218.402C244.507 211.248 255.005 210.536 264.576 209.575C249.004 219.618 237.113 233.782 229.719 250.891ZM208.409 216.457C217.603 191.298 249.324 183.864 269.321 201.917C269.345 201.957 269.361 201.997 269.385 202.037C247.571 195.9 226.158 203.318 208.409 216.457ZM265.672 258.957C257.302 243.297 265.52 224.739 273.066 209.855C273.258 209.751 273.45 209.647 273.634 209.543C277.788 224.219 277.387 248.522 265.672 258.957ZM275.747 353.75C283.205 342.227 291.135 331.24 297.969 319.445C292.568 342.259 284.573 364.713 271.29 384.143C271.202 384.271 271.138 384.399 271.082 384.519C265.032 385.463 258.991 386.455 252.949 387.464C261.583 376.973 268.361 365.154 275.747 353.75ZM72.38 345.988C81.0703 356.815 89.3846 368.434 100.924 376.365C96.7626 379.109 92.6254 381.886 88.5043 384.679C74.1644 367.314 63.4096 347.413 57.72 325.719C61.9772 332.857 67.1386 339.459 72.38 345.988ZM41.1955 274.673C53.4628 239.127 69.2911 204.838 88.5284 172.533C97.1547 158.049 106.317 143.702 116.016 129.906C116.2 129.65 116.384 129.386 116.568 129.13C111.399 138.1 106.861 147.359 102.668 156.121C87.08 188.706 73.4123 222.451 63.4656 257.188C59.5205 270.976 56.1676 284.964 53.2468 299.064C51.3423 298.271 49.5258 297.271 47.7733 296.167C44.2924 293.854 41.2035 290.965 38.8909 287.869C38.4108 287.22 37.7546 286.94 37.0984 286.908C38.4268 282.827 39.7871 278.746 41.1955 274.673ZM51.5903 307.298C44.9325 305.321 38.9309 301.536 34.0976 296.503C34.5377 295.087 34.9779 293.662 35.426 292.246C40.4914 296.863 46.0129 301.208 52.3266 303.649C52.0865 304.865 51.8304 306.082 51.5903 307.298ZM55.0233 332.897C61.1449 352.766 71.4757 371.043 84.7273 387.24C79.0138 391.161 73.3723 395.186 67.7868 399.299C59.9286 378.509 56.0796 355.503 55.0233 332.897ZM67.7947 410.374C67.6187 410.454 67.4667 410.55 67.3306 410.654C66.7385 410.742 66.4264 410.294 65.9622 409.397C65.5141 408.541 65.3941 407.541 65.5141 406.597C79.4779 396.05 94.0099 386.311 108.646 376.717C109.438 376.725 110.31 376.941 111.022 377.309C112.175 377.901 112.343 378.373 111.879 379.557C111.847 379.629 111.839 379.709 111.823 379.781C104.797 385.575 75.9409 406.605 67.7947 410.374ZM81.1744 414.007C79.958 412.67 78.7657 411.318 77.5974 409.942C86.8639 404.004 101.156 393.721 109.862 387.087C126.299 400.171 143.335 413.431 163.325 421.417C176.24 426.578 192.909 431.612 208.057 430.723C207.833 430.875 207.601 431.027 207.385 431.179C193.293 440.55 178.001 444.391 161.148 443.959C131.756 443.207 102.532 434.1 81.1744 414.007ZM242.994 436.141C224.781 446.952 204.664 454.378 183.602 456.962C156.139 460.331 129.619 451.873 107.293 436.733C123.954 444.191 142.463 447.8 161.148 448.536C178.065 449.2 193.245 445.079 207.689 436.421C221.132 428.363 236.592 415.783 244.131 401.915C252.173 401.187 260.127 399.491 268.081 398.178C275.139 397.01 282.341 396.234 289.439 395.042C278.276 411.726 260.143 425.962 242.994 436.141ZM299.866 385.223C300.01 386.207 299.49 387.231 298.761 388C298.601 388.168 298.489 388.344 298.393 388.52C289.047 390.928 279.26 391.873 269.737 393.321C260.063 394.794 250.428 397.074 240.642 397.594C240.682 396.362 241.034 395.13 241.482 393.977C260.911 390.768 280.292 387.32 299.866 385.223ZM298.865 351.334C297.233 361.312 295.072 371.779 292.224 381.534C287.174 382.158 282.125 382.846 277.091 383.599C288.03 366.746 295.288 347.765 300.434 328.328C300.546 335.586 300.202 343.188 298.865 351.334ZM311.325 301.768C309.068 303.689 306.603 305.305 303.883 306.45C303.675 305.361 303.459 304.265 303.242 303.177C305.819 301.872 308.26 300.312 310.556 298.56C310.813 299.624 311.061 300.696 311.325 301.768ZM309.276 293.646C307.172 295.535 304.795 297.119 302.298 298.503C297.137 273.409 290.495 248.45 283.101 223.659C294.496 246.249 302.962 269.672 309.276 293.646ZM345.398 232.558C319.599 235.526 295.816 225.508 278.948 206.375C278.676 205.902 278.404 205.422 278.132 204.95C278.132 204.766 278.132 204.59 278.132 204.406C278.172 204.334 278.22 204.262 278.26 204.19C303.515 197.676 332.594 209.815 345.398 232.558ZM281.389 191.691C285.998 180.616 290.727 169.468 299.77 161.434C316.118 146.926 336.011 163.155 346.102 178.167C322.688 170.453 297.377 173.526 281.389 191.691Z" fill="#FF5B0D"/>
</svg>
