<svg width="202" height="278" viewBox="0 0 202 278" fill="none" xmlns="http://www.w3.org/2000/svg">
<path d="M199.957 105.308C201.097 105.777 201.896 104.295 201.426 103.396C196.344 93.6806 185.196 82.8976 173.364 87.4863C165.77 90.433 161.97 98.4655 158.786 106.22C159.566 91.9747 164.205 73.6106 170.395 60.9163C170.837 60.0086 170.094 58.549 168.926 59.0051C150.124 66.3626 144.573 92.8779 151.255 110.175C137.548 102.055 118.441 109.125 115.243 126.5C115.002 127.809 116.397 128.625 117.414 127.768C126.679 119.945 138.146 114.877 150.028 117.017C143.697 117.769 136.965 118.38 132.873 123.781C128.161 130.003 126.67 140.093 129.397 147.427C129.913 148.814 131.956 148.431 131.988 147.222C132.07 147.117 132.143 146.994 132.193 146.853C135.938 136.526 142.63 128.06 151.575 122.089C147.479 130.892 144.349 141.037 149.631 149.694C149.659 150.534 150.452 151.332 151.337 150.921C151.784 150.853 152.195 150.575 152.391 150.192C157.377 146.26 159.584 138.975 159.913 131.713C163.749 144.85 167.179 158.051 169.884 171.302C169.788 171.338 169.697 171.379 169.597 171.416C169.378 171.493 169.204 171.612 169.072 171.753C168.903 171.831 168.734 171.908 168.561 171.981C167.024 172.643 168.351 174.882 169.875 174.23C170.057 174.152 170.24 174.066 170.422 173.984C170.5 174.367 170.577 174.75 170.655 175.133C166.696 183.125 161.724 190.382 156.697 197.735C151.301 205.626 146.849 214.174 140.404 221.303C140.34 221.376 140.285 221.449 140.24 221.527C139.04 221.728 137.84 221.928 136.645 222.124C136.408 222.165 136.226 222.252 136.08 222.371C135.861 222.476 135.678 222.64 135.578 222.868C134.844 224.56 134.424 226.189 134.72 228.036C134.72 228.688 135.14 229.327 135.979 229.304C135.988 229.304 135.998 229.304 136.011 229.304C132.914 234.198 128.061 238.627 123.189 242.295C113.692 244.84 101.276 240.872 92.8378 237.282C82.4333 232.857 73.452 225.874 64.7991 218.986C65.3191 218.571 65.7661 218.211 66.1082 217.919C66.5734 217.522 66.6236 217.029 66.4366 216.614C67.1847 213.8 64.1012 212.08 61.5422 212.194C61.451 212.185 61.3552 212.194 61.2594 212.212C61.1044 212.226 60.9493 212.249 60.7987 212.276C60.338 212.368 60.0689 212.632 59.9458 212.956C59.9321 212.965 59.9184 212.974 59.9047 212.983C53.7834 209.093 49.3132 203.208 44.875 197.58C40.0992 191.518 35.027 185.615 32.1579 178.404C32.573 178.463 32.9926 178.518 33.4168 178.559C35.0863 178.718 35.0726 176.114 33.4168 175.959C32.9379 175.913 32.4589 175.845 31.9891 175.767C32.1123 175.142 32.24 174.517 32.3677 173.897C33.0702 174.075 33.7863 174.207 34.5024 174.298C36.1628 174.508 36.1445 171.904 34.5024 171.698C34.4386 171.689 34.3747 171.676 34.3108 171.666C34.1968 171.603 34.0691 171.552 33.9094 171.525C33.5628 171.466 33.2252 171.397 32.8877 171.315C34.3473 164.295 35.9849 157.321 37.8414 150.429C43.1234 130.815 50.8185 112.022 59.2661 93.5803C65.1457 80.7446 72.2478 65.5598 83.5281 56.1223C81.4709 60.9893 79.5232 65.8973 78.0863 71.0015C76.1979 77.7067 76.0155 84.567 76.0246 91.4821C76.0383 104.231 77.1467 118.645 84.9831 129.246C85.5077 129.957 86.7621 130.213 87.2273 129.246C93.2301 116.852 96.3364 103.588 96.455 89.8172C96.5143 83.0116 95.6385 76.2152 94.2838 69.5555C93.4263 65.3408 92.514 60.7658 91.1638 56.469C111.243 63.0876 123.235 83.673 119.704 104.728C119.494 105.987 121.31 106.767 122.035 105.682C129.639 94.1824 137.79 78.4411 132.093 64.538C129.507 58.2251 123.864 54.9181 117.469 53.5771C109.573 51.9167 101.13 51.2918 93.002 51.0045C101.372 45.3848 109.095 42.648 119.061 42.9263C126.861 43.1452 145.066 48.5687 154.603 48.5732C156.095 48.5732 156.934 46.9129 155.607 46.1968C143.122 39.4688 129.703 20.8447 113.989 24.7127C103.247 27.3583 98.462 33.5481 92.1947 42.2101C94.3066 32.2664 93.7501 21.132 87.501 13.1268C80.7046 4.42373 69.7025 -1.47413 58.4998 0.323055C57.4188 0.496387 57.1953 2.25253 58.1896 2.69954C71.0938 8.51985 76.5081 21.7433 81.3933 34.6884C75.9015 27.9969 68.2748 23.5222 58.7325 23.2211C52.2325 23.0159 45.021 25.0867 38.854 26.9797C32.7691 28.8453 27.3411 32.2162 24.3397 37.9726C23.7285 39.1494 24.9464 40.3537 26.1186 39.7516C35.5059 34.9211 47.7258 33.5891 58.0619 36.2074C66.7148 38.4014 76.4899 42.9171 83.4232 49.0932C67.9373 47.2231 47.7943 47.6655 37.107 60.0314C36.5596 60.6655 36.6143 61.6142 37.3715 62.0749C44.989 66.691 54.4585 66.0889 62.8423 64.2963C66.1082 63.5984 69.4471 62.6086 72.6857 61.3177C63.8321 70.7643 57.0858 82.8109 50.5311 93.3158C38.8175 112.095 29.4758 132.302 21.9951 153.106C20.9323 156.067 19.9197 159.036 18.9345 162.005C17.8078 161.677 16.599 163.164 17.639 164.163C17.7896 164.309 17.9446 164.455 18.0952 164.601C17.8717 165.294 17.6436 165.988 17.4201 166.685C16.3436 165.801 14.4643 167 15.4085 168.236C15.7643 168.702 16.1338 169.149 16.5124 169.586C5.82509 204.372 0.543018 239.973 0.000214554 276.628C-0.0271537 278.457 2.57283 278.457 2.6002 276.628C3.14301 240.634 8.36577 205.963 18.6197 171.78C21.5117 174.485 24.9144 176.506 28.7004 177.637C28.6867 177.706 28.6639 177.765 28.6639 177.843C28.6502 178.363 28.6456 178.883 28.6365 179.407C26.4105 191.513 24.7046 203.719 23.2997 215.88C21.0099 235.667 19.9334 251.833 21.9358 271.661C22.2825 275.096 24.8278 274.639 24.4948 271.328C22.5653 252.138 23.6555 236.639 25.7218 217.476C26.6067 209.289 27.6786 201.078 28.9604 192.9C29.7768 205.329 32.0895 217.9 36.4912 229.199C36.4958 229.208 36.5003 229.217 36.5049 229.226C36.4091 229.299 36.3133 229.368 36.2175 229.436C35.6793 229.468 35.2642 229.865 35.0452 230.385C33.7225 233.523 36.555 238.212 40.1312 236.192C40.2498 236.128 40.341 236.05 40.4231 235.968C40.8108 235.781 41.2806 235.521 41.8097 235.211C42.7266 236.201 43.6708 237.14 44.6424 238.048C59.9823 254.834 81.6077 265.444 104.688 263.099C117.191 261.827 129.046 257.105 139.856 250.879C150.69 244.639 162.134 235.206 168.506 224.565C168.511 224.556 168.516 224.546 168.52 224.537C169.551 224.314 170.582 224.077 171.599 223.798C172.238 223.625 172.511 223.123 172.516 222.617C173.538 221.285 174.044 219.346 173.063 217.878C172.986 217.312 172.58 216.833 171.836 216.911C171.033 216.993 170.235 217.084 169.432 217.175C171.006 211.738 172.064 206.958 172.853 201.16C173.264 198.127 173.469 195.326 173.57 192.704C177 217.942 177.105 243.358 171.462 268.878C170.6 272.783 173.241 272.952 174.149 268.783C180.818 238.117 179.335 207.555 173.747 177.309C175.344 176.707 176.817 175.858 178.172 174.832C185.306 205.872 186.551 238.377 186.72 270.521C186.738 273.818 189.338 273.672 189.32 270.306C189.138 237.587 187.815 204.49 180.393 172.93C180.704 172.633 181.005 172.332 181.301 172.027C182.391 170.891 180.836 169.199 179.682 170.002C179.545 169.454 179.408 168.907 179.271 168.359C179.668 167.999 180.056 167.634 180.439 167.26C180.763 166.941 180.859 166.571 180.813 166.229C181.702 164.87 179.49 163.616 178.541 164.961C178.505 165.016 178.455 165.062 178.418 165.116C174.724 151.469 169.802 138.145 163.22 125.296C172.735 132.986 184.804 136.74 197.448 135.134C197.713 135.102 197.927 135.002 198.11 134.865C198.853 136.238 200.983 134.947 200.304 133.47C193.63 118.91 176.183 110.585 160.57 113.34C169.542 100.591 185.716 99.428 199.957 105.308ZM91.7477 70.2352C93.1571 76.6622 93.7729 83.2306 93.8277 89.8035C93.9326 102.302 91.0361 114.636 85.868 125.971C79.7011 116.255 78.7888 103.948 78.6109 92.7091C78.506 86.1088 78.6976 79.5815 80.1983 73.1271C81.6625 66.8233 84.2396 60.8205 86.8168 54.8862C86.9902 55.1553 87.2593 55.3697 87.6424 55.4609C87.8066 55.502 87.9663 55.5476 88.1259 55.5886C89.7772 60.2914 90.7168 65.5324 91.7477 70.2352ZM111.202 55.3515C119.052 56.1406 125.962 57.883 129.675 65.5552C134.793 76.1239 128.854 89.5252 122.838 99.501C123.828 78.6236 110.664 59.4841 90.3336 53.5041C97.3536 53.7504 104.2 54.649 111.202 55.3515ZM114.646 27.2078C127.559 23.5678 139.747 39.4414 150.995 46.0645C140.591 45.8455 126.834 39.0126 117.729 40.0937C106.577 41.4165 99.3469 43.2182 90.1193 49.8504C96.9248 39.1723 101.929 30.7976 114.646 27.2078ZM63.3851 2.56268C72.3846 2.85004 80.9281 8.43773 86.1053 15.631C92.1308 24.0057 91.4466 36.0979 88.5364 45.8364C81.8312 30.8341 77.8355 11.7265 63.3851 2.56268ZM58.7142 33.6849C49.6827 30.8204 38.3568 32.0246 29.2569 35.5049C35.6702 28.7267 47.4522 26.7197 56.1644 25.8895C70.5829 24.512 81.1151 35.2175 85.8088 47.7796C78.3874 40.8691 68.1882 36.6909 58.7142 33.6849ZM64.3703 61.2219C56.6981 63.3339 47.4339 64.278 40.0764 60.6061C50.6497 49.9462 69.5931 49.8961 83.8246 51.7297C83.5463 51.9669 83.2453 52.1813 82.9625 52.4139C81.9042 53.1209 80.8733 53.8644 79.8698 54.649C75.1351 57.6914 69.7117 59.7532 64.3703 61.2219ZM166.623 62.9188C160.383 77.2871 156.159 97.4301 155.949 113.076C155.871 113.249 155.798 113.418 155.721 113.586C155.684 113.55 155.643 113.514 155.607 113.477C147.665 98.274 150.544 71.6447 166.623 62.9188ZM130.944 143.012C129.922 136.635 131.564 129.068 135.697 124.493C139.373 120.415 145.357 120.009 150.813 119.462C141.936 125.186 135.158 133.26 130.944 143.012ZM118.797 123.384C124.038 109.043 142.119 104.806 153.518 115.096C153.531 115.119 153.541 115.142 153.554 115.165C141.12 111.666 128.914 115.895 118.797 123.384ZM151.438 147.61C146.667 138.683 151.351 128.105 155.652 119.621C155.762 119.562 155.871 119.503 155.976 119.443C158.344 127.809 158.116 141.662 151.438 147.61ZM157.181 201.644C161.432 195.075 165.952 188.813 169.847 182.089C166.769 195.094 162.212 207.893 154.64 218.968C154.59 219.041 154.553 219.114 154.521 219.182C151.073 219.721 147.629 220.286 144.185 220.861C149.107 214.881 152.97 208.144 157.181 201.644ZM41.2578 197.219C46.2115 203.391 50.9507 210.014 57.5282 214.534C55.1563 216.099 52.7981 217.682 50.449 219.273C42.275 209.375 36.1445 198.031 32.9014 185.665C35.328 189.734 38.2701 193.497 41.2578 197.219ZM23.4822 156.568C30.4747 136.307 39.4971 116.761 50.4627 98.347C55.3798 90.0909 60.6026 81.9123 66.131 74.0485C66.2359 73.9025 66.3408 73.752 66.4457 73.606C63.4991 78.7193 60.9128 83.9969 58.5226 88.9916C49.6371 107.565 41.8462 126.801 36.1765 146.602C33.9277 154.461 32.0165 162.434 30.3516 170.471C29.266 170.02 28.2306 169.45 27.2316 168.82C25.2474 167.502 23.4867 165.855 22.1685 164.09C21.8948 163.721 21.5208 163.561 21.1467 163.543C21.9039 161.216 22.6793 158.89 23.4822 156.568ZM29.4074 175.165C25.6123 174.038 22.1913 171.881 19.4362 169.012C19.6871 168.204 19.938 167.392 20.1934 166.585C23.0808 169.217 26.2281 171.694 29.827 173.085C29.6902 173.778 29.5442 174.472 29.4074 175.165ZM31.3642 189.757C34.8537 201.083 40.7424 211.501 48.296 220.733C45.0392 222.968 41.8234 225.263 38.6396 227.607C34.1603 215.757 31.9663 202.643 31.3642 189.757ZM38.6441 233.92C38.5438 233.966 38.4572 234.02 38.3796 234.08C38.0421 234.13 37.8642 233.874 37.5996 233.364C37.3442 232.875 37.2757 232.305 37.3442 231.767C45.3038 225.755 53.5872 220.204 61.93 214.735C62.3816 214.739 62.8787 214.863 63.2847 215.072C63.9415 215.41 64.0373 215.679 63.7728 216.354C63.7545 216.395 63.75 216.441 63.7408 216.482C59.7359 219.784 43.2876 231.772 38.6441 233.92ZM46.2708 235.991C45.5774 235.229 44.8978 234.458 44.2318 233.674C49.5139 230.289 57.6605 224.428 62.6233 220.646C71.9923 228.104 81.7035 235.663 93.0978 240.215C100.46 243.157 109.961 246.026 118.596 245.52C118.468 245.606 118.336 245.693 118.213 245.78C110.18 251.121 101.463 253.31 91.8571 253.064C75.1032 252.635 58.4451 247.445 46.2708 235.991ZM138.511 248.608C128.129 254.77 116.662 259.003 104.656 260.476C89.0017 262.397 73.8853 257.575 61.1591 248.945C70.6559 253.196 81.2063 255.254 91.8571 255.673C101.5 256.052 110.153 253.703 118.386 248.767C126.049 244.174 134.862 237.004 139.159 229.099C143.743 228.684 148.277 227.717 152.811 226.969C156.834 226.303 160.939 225.86 164.985 225.18C158.622 234.691 148.286 242.806 138.511 248.608ZM170.929 219.584C171.011 220.145 170.714 220.729 170.299 221.166C170.208 221.262 170.144 221.363 170.089 221.463C164.762 222.836 159.183 223.374 153.755 224.2C148.24 225.039 142.748 226.339 137.17 226.636C137.193 225.933 137.393 225.231 137.649 224.574C148.724 222.745 159.771 220.779 170.929 219.584ZM170.358 200.266C169.428 205.954 168.196 211.921 166.572 217.481C163.694 217.837 160.816 218.229 157.947 218.658C164.182 209.051 168.319 198.232 171.252 187.152C171.316 191.289 171.12 195.623 170.358 200.266ZM177.46 172.013C176.174 173.108 174.769 174.029 173.218 174.682C173.1 174.061 172.977 173.436 172.853 172.816C174.322 172.072 175.713 171.183 177.023 170.184C177.168 170.791 177.31 171.402 177.46 172.013ZM176.293 167.383C175.093 168.46 173.738 169.363 172.315 170.152C169.373 155.848 165.587 141.621 161.372 127.49C167.868 140.366 172.694 153.717 176.293 167.383ZM196.883 132.562C182.177 134.254 168.62 128.543 159.005 117.637C158.85 117.368 158.695 117.094 158.54 116.825C158.54 116.72 158.54 116.62 158.54 116.515C158.563 116.474 158.59 116.433 158.613 116.392C173.009 112.679 189.585 119.598 196.883 132.562ZM160.396 109.267C163.024 102.954 165.719 96.5999 170.874 92.0203C180.193 83.7505 191.532 93.001 197.284 101.558C183.938 97.161 169.51 98.9126 160.396 109.267Z" fill="#FF5B0D"/>
</svg>
