<svg width="180" height="143" viewBox="0 0 180 143" fill="none" xmlns="http://www.w3.org/2000/svg">
<path d="M178.946 98.284C176.763 86.6596 172.339 74.9479 165.064 65.5067C164.887 63.9024 165.077 62.2529 164.822 60.6486C164.489 58.5689 163.379 56.6056 161.455 55.6159C159.213 54.4645 157.444 55.6676 156.157 57.398C156.092 57.3689 155.736 57.6827 155.636 57.8832C148.993 52.0451 143.138 45.3305 135.735 40.4401C135.987 39.6736 136.204 38.9102 136.369 38.1405C136.608 35.3751 136.825 32.6097 137.093 29.8475C137.029 29.7763 136.961 29.7052 136.893 29.634C136.666 25.7333 136.007 21.8068 135.719 17.8641C135.722 17.0231 135.683 16.1919 135.589 15.3703C135.586 15.3218 135.586 15.2733 135.583 15.228C135.583 15.1407 135.567 15.0566 135.554 14.9757C135.104 11.6508 133.785 8.53283 131.423 5.90973C131.381 5.89033 131.336 5.87092 131.294 5.85151C131.252 5.80947 131.22 5.76419 131.168 5.72214C120.207 -3.51529 106.131 0.175157 93.6037 4.66773C93.5326 4.62245 93.4711 4.57393 93.387 4.53188C78.5508 -2.82637 61.014 5.05586 54.8621 20.0311C54.8039 20.1734 54.7651 20.3093 54.7392 20.4419C50.6866 22.3599 46.7923 24.5269 43.186 27.1953C43.0566 26.5807 42.9111 25.9662 42.8011 25.3484L42.7817 25.3614C42.7429 25.232 42.7688 25.0735 42.6847 24.9668C38.9101 20.3287 33.0365 27.8066 27.3827 38.8747C11.7736 50.1595 0.401436 66.0177 0.000371537 85.9513C-0.00933164 86.5011 0.171795 86.9216 0.453187 87.2321C1.86662 97.9282 10.6092 107.366 20.7264 110.762C34.2332 115.3 49.5351 111.752 62.5988 106.296C63.346 106.457 64.0737 106.066 64.478 105.484C65.7685 104.918 67.0429 104.342 68.2752 103.75C74.8216 100.619 81.0025 96.6959 86.8924 92.3489C92.3941 102.017 98.6494 111.357 106.338 119.288C117.244 130.541 132.129 141.867 148.498 142.369C160.371 142.731 173.27 135.499 177.148 123.975C177.239 123.713 177.268 123.461 177.245 123.221C180.777 115.692 180.402 106.027 178.946 98.284ZM158.114 62.075C158.178 61.8162 158.266 61.5639 158.343 61.3052C158.618 60.7165 158.926 60.144 159.294 59.6039C159.886 58.7371 160.323 59.3484 160.717 60.2831C160.74 60.3381 160.753 60.3996 160.772 60.4545C160.86 61.4022 160.866 62.3564 160.947 63.359C161.367 68.3238 161.012 73.0978 161.374 78.0691C161.866 84.9195 162.525 91.7538 163.188 98.5913C162.147 95.3666 161.154 92.1257 160.294 88.8461C158.098 80.4754 155.736 70.6591 158.114 62.075ZM163.829 111.862C163.716 111.778 163.606 111.694 163.492 111.61C161.72 109.795 153.408 102.175 142.45 96.5795C133.286 91.8993 122.872 90.8384 112.677 90.6864C111.04 88.0472 109.255 85.4888 107.845 82.7492C124.706 80.0485 144.06 86.4429 156.72 97.773C158.877 100.538 160.743 103.501 162.176 106.684C162.732 108.408 163.285 110.135 163.829 111.862ZM154.181 61.2987C154.084 61.5607 153.262 74.7926 154.478 80.4172C155.28 84.1432 157.043 90.198 158.123 93.84C158.017 93.7494 157.91 93.6621 157.803 93.5715C156.128 91.605 154.96 91.3398 152.858 89.8261C139.461 80.7504 121.937 76.3322 106.276 79.0555C106.118 78.5736 105.953 78.0982 105.83 77.6001C105.746 77.254 105.59 76.9823 105.4 76.7688C107.748 74.6018 110.225 72.286 111.296 71.2218C111.331 71.2251 111.364 71.2348 111.399 71.238C112.515 70.2062 129.146 50.4538 133.241 43.0018C141.13 47.9633 147.152 55.2601 154.181 61.2987ZM121.943 54.1151C120.313 56.3081 118.612 58.4654 116.83 60.571C115.766 58.281 114.779 55.9555 113.667 53.685C113.612 53.5782 113.55 53.4844 113.486 53.3971C113.851 53.0025 114.213 52.5885 114.588 52.2101C116.034 50.732 117.48 49.2571 118.906 47.7725C119.734 49.5255 120.53 51.2818 121.125 53.1351C121.284 53.6364 121.584 53.947 121.943 54.1151ZM121.487 45.0233C123.108 43.2637 124.68 41.4687 126.187 39.6089C126.717 41.184 127.251 42.7559 127.782 44.3311C127.862 44.564 127.976 44.7483 128.105 44.9068C126.85 46.9898 125.534 49.0468 124.133 51.0651C123.399 49.0113 122.458 47.0545 121.523 45.0815C121.513 45.0621 121.497 45.0459 121.487 45.0233ZM114.294 63.4302C114.297 63.4431 114.31 63.4528 114.314 63.4658C112.486 65.5164 110.604 67.5346 108.657 69.4914C107.295 67.305 106.088 65.0215 104.934 62.7219C107.059 60.6842 109.016 58.4136 110.959 56.1916C112.092 58.598 113.123 61.0464 114.294 63.4302ZM106.082 72.0175C103.779 74.2266 101.418 76.3742 99.0084 78.4475C98.9663 78.3957 98.9275 78.344 98.8887 78.2922C98.5038 77.7812 95.1174 72.9846 94.7519 72.4606C94.6678 72.341 94.5902 72.2245 94.5061 72.1048C97.4397 69.3071 100.241 66.6387 101.78 65.1962C101.8 65.2512 101.819 65.3029 101.838 65.3579C101.961 65.2706 102.084 65.1897 102.204 65.0991C103.401 67.457 104.652 69.7922 106.082 72.0175ZM133.296 35.8408C133.008 35.9928 132.753 36.2451 132.575 36.6235C131.883 38.0822 131.139 39.5248 130.366 40.9544L128.775 36.2483C129.476 35.2813 130.162 34.2948 130.819 33.2856C131.821 31.7364 132.685 30.0771 133.413 28.3661C133.633 30.8857 133.675 33.3891 133.296 35.8408ZM88.2443 6.64718C87.785 6.8186 87.329 6.98679 86.8762 7.15497C77.8587 10.4993 69.0126 14.358 60.1374 18.0549C65.7621 8.45197 77.6032 3.28341 88.2443 6.64718ZM29.7859 45.0006C31.8494 40.466 33.444 33.8872 36.6363 29.7925C37.7328 28.3855 40.2168 28.9483 40.0648 30.4426C39.3144 39.3178 33.2079 49.3865 28.2431 56.473C26.296 59.2514 24.2422 61.9424 22.143 64.6075C25.1348 58.4234 26.9429 51.2559 29.7859 45.0006ZM52.708 57.2881C63.3686 55.3216 78.1077 54.4159 88.4481 59.9144C84.6865 62.8448 81.0478 65.9271 77.2571 68.8219C71.8977 67.0398 66.5965 65.1509 60.904 64.4167C52.6595 63.3493 44.3989 65.2641 36.6428 67.9163C32.3346 69.3912 28.1687 71.293 24.0254 73.1657C21.674 74.2266 19.3065 75.8664 16.8354 76.9629C17.9771 75.488 19.1286 74.0196 20.2833 72.5544C28.7412 63.9703 41.0222 59.4454 52.708 57.2881ZM8.33217 97.4495C11.4566 99.9368 15.2311 101.638 19.2482 102.738C19.2482 102.744 19.2482 102.751 19.2547 102.757C19.7205 103.938 19.9275 105.196 20.0633 106.461C15.4284 104.442 11.2819 101.366 8.33217 97.4495ZM23.7279 107.806C23.6147 106.399 23.4691 104.973 23.1651 103.588C25.8238 104.054 28.531 104.313 31.1864 104.358C31.6327 105.94 31.9821 107.538 32.3184 109.148C29.4431 109.113 26.5353 108.647 23.7279 107.806ZM33.4796 100.917C32.9168 100.525 32.1438 100.58 31.5519 100.939C20.8719 100.852 9.05991 97.3557 5.05896 87.4553C4.55763 86.2165 4.23743 84.9421 4.03689 83.6516C5.04279 68.7443 12.7309 56.3922 23.6082 46.8442C19.2353 56.7059 15.3411 67.6446 13.1352 75.2293C13.0479 75.5301 12.9509 75.7791 12.9574 76.0346C12.5725 76.6071 12.1779 77.1699 11.8221 77.765C11.7542 77.8815 11.7024 77.9979 11.6668 78.1143C9.56124 78.1887 9.85233 81.5428 12.0517 81.6269C16.8192 81.8048 21.011 78.4022 25.1672 76.5068C30.491 74.0778 35.8633 71.817 41.4491 70.0542C52.8665 66.4511 63.0549 67.9357 73.8577 71.3253C73.6863 71.445 73.5214 71.5744 73.3467 71.6908C71.2864 73.114 73.2367 76.5068 75.3197 75.0708C82.6844 69.9798 89.1597 63.7278 96.6246 58.7759C98.7173 57.3883 96.7605 53.9987 94.6517 55.396C93.6393 56.0687 92.6463 56.7673 91.6631 57.4821C80.7793 50.6802 63.8473 51.8834 52.4622 53.7658C44.2339 55.1275 35.8342 57.7862 28.4598 62.02C30.7659 58.9441 32.9977 55.8132 35.0677 52.5626C38.632 46.9639 42.6847 39.3566 43.3089 32.0436C53.8724 23.0747 68.4563 18.7147 81.119 13.5817C94.4382 8.18028 115.478 -2.39295 128.393 8.49078C128.674 8.72689 128.972 8.8595 129.269 8.92742C134.855 16.3471 130.815 27.7322 124.735 35.8829C120.601 41.4266 115.497 46.2426 110.672 51.1686C107.424 54.4839 104.475 58.3975 100.901 61.454C100.871 61.4216 100.846 61.3861 100.816 61.3569C87.7947 72.3215 71.0632 92.6141 41.268 100.056C38.9231 100.645 36.245 100.833 33.4796 100.917ZM35.8827 109.077C35.5528 107.483 35.2164 105.885 34.8154 104.306C36.5361 104.229 38.2115 104.08 39.8061 103.867C41.42 103.647 43.021 103.359 44.6027 103.006C44.7741 104.656 45.0361 106.299 45.2722 107.939C42.1607 108.527 39.0233 108.915 35.8827 109.077ZM48.72 107.214C48.4775 105.574 48.2155 103.938 48.0635 102.295C48.057 102.24 48.044 102.191 48.0343 102.136C51.4402 101.179 54.7716 99.9497 58.0286 98.4975C58.4459 100.244 59.0345 102.123 59.9563 103.692C56.3015 105.131 52.5399 106.309 48.72 107.214ZM63.2586 102.301C62.1978 100.826 61.622 98.6398 61.2663 96.9709C63.7406 95.7418 66.1631 94.3801 68.5404 92.9376C69.7468 94.5386 70.6913 96.3046 71.6584 98.0608C68.9415 99.6069 66.1372 101.027 63.2586 102.301ZM74.786 96.2043C74.7504 96.2269 74.7116 96.2463 74.6793 96.269C73.6993 94.4901 72.7419 92.6918 71.5354 91.0551C74.8216 88.9269 78.0075 86.6402 81.0931 84.2759C81.9146 86.2909 82.8235 88.28 83.9523 90.1366C80.9055 92.268 77.8393 94.2992 74.786 96.2043ZM86.8277 88.0795C85.6859 86.1615 84.8062 84.0915 83.9846 82.015C84.5992 81.5234 88.0761 78.2275 91.8927 74.5921C93.4291 76.8368 95.5443 79.8544 96.3044 80.7277C93.1994 83.2958 90.0329 85.7507 86.8277 88.0795ZM93.5746 96.89C92.1838 94.7585 90.8092 92.6044 89.4863 90.3986C91.3138 88.9884 93.1218 87.5394 94.8942 86.0645C96.1168 88.28 97.3912 90.5085 98.7141 92.7338C97.7146 93.3483 96.8219 94.1311 95.9292 94.8944C95.2468 95.4766 94.5773 96.0652 93.8883 96.6409C93.7913 96.725 93.6813 96.8059 93.5746 96.89ZM102.133 108.987C99.9043 106.072 97.7114 103.048 95.5832 99.9174C97.3491 98.6463 98.8305 96.6442 100.522 95.7094C102.45 98.8177 104.491 101.887 106.651 104.872C104.96 106.021 103.685 107.686 102.133 108.987ZM104.297 111.759C105.817 110.452 107.081 108.822 108.767 107.709C110.869 110.439 113.104 113.052 115.452 115.54C114.139 116.953 113.152 118.59 112.114 120.213C109.323 117.551 106.706 114.718 104.297 111.759ZM114.718 122.597C115.688 121.012 116.613 119.33 117.894 118.017C120.336 120.401 122.92 122.616 125.647 124.625C124.502 125.893 123.457 127.245 122.39 128.59C119.721 126.75 117.153 124.745 114.718 122.597ZM136.178 136.049C132.42 134.535 128.794 132.685 125.34 130.531C126.365 129.195 127.387 127.853 128.548 126.64C129.991 127.581 131.472 128.467 132.995 129.279C134.606 130.133 136.337 130.948 138.151 131.689C137.404 133.105 136.744 134.555 136.178 136.049ZM149.682 138.604C146.221 138.701 142.741 138.258 139.48 137.262C140.053 135.777 140.732 134.335 141.482 132.928C144.416 133.917 147.495 134.687 150.594 135.117C150.38 136.298 150.047 137.459 149.682 138.604ZM153.453 138.277C153.734 137.346 153.964 136.405 154.113 135.45C157.774 135.635 161.387 135.285 164.741 134.183C161.393 136.333 157.496 137.689 153.453 138.277ZM171.278 125.948C161.762 136.405 143.297 131.576 132.94 125.197C118.107 116.063 107.531 101.383 99.0698 86.375C99.1281 86.3814 99.1895 86.3879 99.2477 86.3944C98.41 84.3761 98.2839 82.1282 100.448 81.284C100.81 80.9638 101.492 80.3493 102.343 79.573C104.035 85.3044 107.874 89.894 110.727 95.082C111.642 96.7444 113.777 96.0426 114.262 94.6518C124.728 94.9849 132.277 95.2178 141.754 99.9724C149.112 103.666 157.561 111.225 163.564 116.355C164.534 117.076 165.579 117.671 166.743 118.053C167.037 118.15 167.319 118.166 167.578 118.13C169.408 118.24 170.074 115.323 168.266 114.356C168.14 113.728 167.988 113.11 167.84 112.496C167.93 112.257 167.975 111.988 167.949 111.678C166.785 98.1902 165.844 84.6834 164.77 71.1927C169.761 78.7903 173.209 87.6752 175.004 96.4695C176.886 105.694 178.215 118.328 171.278 125.948Z" fill="#FF5B0D"/>
</svg>
