<svg width="102" height="85" viewBox="0 0 102 85" fill="none" xmlns="http://www.w3.org/2000/svg">
<path d="M100.545 58.8843C99.3183 52.0264 96.8322 45.1169 92.7451 39.5469C92.6451 38.6005 92.7523 37.6273 92.6088 36.6808C92.4216 35.4539 91.7982 34.2956 90.7169 33.7117C89.4575 33.0324 88.4635 33.7422 87.7402 34.7631C87.7038 34.7459 87.5039 34.931 87.4476 35.0493C83.7148 31.6051 80.4255 27.6437 76.2656 24.7586C76.4074 24.3063 76.5292 23.856 76.6218 23.4019C76.7563 21.7704 76.8781 20.1389 77.0289 18.5093C76.9926 18.4673 76.9544 18.4253 76.9163 18.3834C76.789 16.0821 76.4183 13.7656 76.2566 11.4395C76.2584 10.9434 76.2366 10.453 76.1839 9.96832C76.1821 9.9397 76.1821 9.91107 76.1802 9.88436C76.1802 9.83284 76.1712 9.78323 76.1639 9.73552C75.9113 7.77392 75.1698 5.93444 73.8432 4.38692C73.8195 4.37547 73.7941 4.36402 73.7705 4.35257C73.7469 4.32776 73.7287 4.30105 73.6996 4.27624C67.5407 -1.1735 59.6318 1.00373 52.5933 3.65418C52.5533 3.62746 52.5188 3.59884 52.4715 3.57403C44.1355 -0.76706 34.282 3.88316 30.8255 12.718C30.7928 12.802 30.771 12.8821 30.7564 12.9603C28.4794 14.0919 26.2913 15.3704 24.265 16.9446C24.1923 16.582 24.1105 16.2195 24.0487 15.855L24.0378 15.8627C24.016 15.7863 24.0306 15.6928 23.9833 15.6299C21.8625 12.8935 18.5623 17.3052 15.3856 23.835C6.61524 30.4926 0.225556 39.8484 0.000208756 51.6085C-0.00524319 51.9328 0.0965267 52.1809 0.254633 52.3641C1.0488 58.6744 5.961 64.2425 11.6456 66.2461C19.2347 68.9232 27.8324 66.83 35.1725 63.6109C35.5923 63.7063 36.0012 63.4754 36.2284 63.1319C36.9535 62.798 37.6695 62.4583 38.3619 62.1091C42.0402 60.262 45.5131 57.9474 48.8224 55.3828C51.9136 61.0864 55.4283 66.5972 59.7481 71.276C65.8761 77.9145 74.2393 84.597 83.4368 84.8927C90.1081 85.1064 97.3556 80.8398 99.5346 74.0409C99.5854 73.8864 99.6018 73.7375 99.5891 73.5963C101.574 69.1541 101.363 63.4525 100.545 58.8843ZM88.8397 37.5223C88.876 37.3697 88.9251 37.2208 88.9687 37.0682C89.1232 36.7209 89.2958 36.3832 89.503 36.0645C89.8355 35.5531 90.0809 35.9137 90.3026 36.4652C90.3153 36.4976 90.3226 36.5339 90.3335 36.5663C90.3826 37.1254 90.3862 37.6883 90.4316 38.2799C90.6679 41.2089 90.468 44.0254 90.6715 46.9582C90.9477 50.9998 91.3185 55.0317 91.691 59.0656C91.1059 57.1632 90.5479 55.2512 90.0645 53.3163C88.8306 48.3779 87.5039 42.5866 88.8397 37.5223ZM92.0508 66.8948C91.9872 66.8452 91.9255 66.7956 91.8619 66.746C90.866 65.6755 86.1955 61.1799 80.0384 57.8787C74.8899 55.1176 69.0382 54.4917 63.31 54.402C62.3905 52.845 61.3873 51.3356 60.5949 49.7194C70.0686 48.126 80.9434 51.8985 88.0564 58.5828C89.2685 60.2143 90.3171 61.9622 91.1222 63.8398C91.4348 64.8569 91.7455 65.8759 92.0508 66.8948ZM86.6298 37.0644C86.5753 37.2189 86.1137 45.0253 86.797 48.3436C87.2477 50.5418 88.2381 54.1139 88.8451 56.2625C88.7851 56.2091 88.7252 56.1575 88.6652 56.1041C87.7238 54.9439 87.0678 54.7875 85.8865 53.8945C78.3592 48.5401 68.513 45.9336 59.7135 47.5402C59.6245 47.2559 59.5318 46.9754 59.4628 46.6816C59.4155 46.4774 59.3283 46.3171 59.2211 46.1912C60.5404 44.9127 61.9325 43.5464 62.534 42.9186C62.554 42.9206 62.5722 42.9263 62.5922 42.9282C63.2191 42.3195 72.5638 30.6663 74.8645 26.2698C79.2969 29.197 82.6808 33.5018 86.6298 37.0644ZM68.5166 32.8263C67.6007 34.1201 66.6448 35.3928 65.6434 36.635C65.0455 35.284 64.4913 33.9121 63.8661 32.5725C63.8352 32.5096 63.8007 32.4542 63.7643 32.4027C63.9697 32.1699 64.1732 31.9257 64.384 31.7024C65.1964 30.8304 66.0087 29.9602 66.8102 29.0844C67.2754 30.1186 67.7225 31.1548 68.0568 32.2481C68.1459 32.5439 68.3149 32.7271 68.5166 32.8263ZM68.2604 27.4624C69.1709 26.4244 70.0541 25.3654 70.9009 24.2682C71.199 25.1974 71.4988 26.1248 71.7969 27.0541C71.8423 27.1915 71.9059 27.3003 71.9786 27.3938C71.2735 28.6226 70.5338 29.8362 69.7469 31.0269C69.3344 29.8152 68.8056 28.6608 68.2804 27.4968C68.2749 27.4853 68.2658 27.4758 68.2604 27.4624ZM64.2187 38.3219C64.2205 38.3295 64.2278 38.3352 64.2296 38.3428C63.2028 39.5526 62.1451 40.7433 61.0511 41.8978C60.286 40.6078 59.6081 39.2607 58.9594 37.904C60.1533 36.7018 61.2528 35.3623 62.345 34.0514C62.9811 35.471 63.5608 36.9155 64.2187 38.3219ZM59.6045 43.3881C58.3106 44.6913 56.9839 45.9584 55.63 47.1815C55.6064 47.151 55.5846 47.1204 55.5628 47.0899C55.3465 46.7884 53.4438 43.9586 53.2385 43.6495C53.1912 43.5789 53.1476 43.5102 53.1003 43.4396C54.7486 41.789 56.3224 40.2148 57.1875 39.3637C57.1984 39.3962 57.2093 39.4267 57.2202 39.4591C57.2892 39.4076 57.3583 39.3599 57.4255 39.3065C58.098 40.6975 58.8013 42.0752 59.6045 43.3881ZM74.8954 22.0451C74.7337 22.1348 74.5901 22.2837 74.4901 22.5069C74.1012 23.3675 73.6833 24.2186 73.2489 25.062L72.3548 22.2856C72.7491 21.715 73.1344 21.133 73.5033 20.5377C74.0667 19.6237 74.5519 18.6448 74.9608 17.6354C75.0844 19.1218 75.108 20.5987 74.8954 22.0451ZM49.582 4.82198C49.324 4.92311 49.0677 5.02234 48.8133 5.12156C43.7466 7.09461 38.7763 9.37106 33.7895 11.5521C36.9499 5.88674 43.6031 2.83748 49.582 4.82198ZM16.7359 27.4491C17.8953 24.7738 18.7912 20.8926 20.5849 18.4769C21.201 17.6468 22.5967 17.9788 22.5113 18.8604C22.0897 24.0964 18.6586 30.0366 15.869 34.2174C14.775 35.8565 13.621 37.4441 12.4415 39.0164C14.1226 35.368 15.1384 31.1395 16.7359 27.4491ZM29.6152 34.6982C35.605 33.5381 43.8866 33.0038 49.6965 36.2477C47.583 37.9765 45.5385 39.795 43.4086 41.5028C40.3973 40.4514 37.4187 39.337 34.2203 38.9038C29.5879 38.2742 24.9465 39.4038 20.5886 40.9685C18.1679 41.8386 15.8272 42.9606 13.4992 44.0655C12.178 44.6913 10.8478 45.6588 9.45933 46.3056C10.1008 45.4355 10.7478 44.5692 11.3966 43.7048C16.1489 38.6405 23.0492 35.971 29.6152 34.6982ZM4.68161 58.392C6.43714 59.8594 8.55794 60.8631 10.8151 61.5119C10.8151 61.5157 10.8151 61.5195 10.8187 61.5233C11.0804 62.2198 11.1967 62.9621 11.273 63.7082C8.6688 62.5175 6.339 60.7028 4.68161 58.392ZM13.332 64.502C13.2684 63.6719 13.1866 62.8304 13.0158 62.0137C14.5097 62.2885 16.0307 62.4412 17.5228 62.4679C17.7736 63.401 17.9698 64.3436 18.1588 65.2939C16.5432 65.2729 14.9095 64.9981 13.332 64.502ZM18.8112 60.4376C18.495 60.2067 18.0607 60.2391 17.7281 60.4509C11.7273 60.3994 5.09051 58.3367 2.84249 52.4958C2.56081 51.7649 2.38089 51.0131 2.26822 50.2517C2.8334 41.457 7.15316 34.1697 13.2648 28.5367C10.8078 34.3548 8.61973 40.8082 7.38033 45.2829C7.33126 45.4603 7.27674 45.6073 7.28037 45.758C7.06411 46.0958 6.8424 46.4278 6.6425 46.7789C6.60433 46.8476 6.57525 46.9163 6.55526 46.985C5.37219 47.0288 5.53575 49.0076 6.77152 49.0572C9.45025 49.1622 11.8055 47.1548 14.1407 46.0366C17.132 44.6036 20.1506 43.2697 23.2891 42.2298C29.7042 40.1041 35.4288 40.9799 41.4986 42.9797C41.4023 43.0503 41.3096 43.1266 41.2115 43.1953C40.0538 44.0349 41.1497 46.0366 42.32 45.1894C46.4581 42.1859 50.0963 38.4974 54.2907 35.576C55.4665 34.7574 54.367 32.7576 53.1821 33.582C52.6133 33.9789 52.0554 34.391 51.5029 34.8127C45.3877 30.7998 35.874 31.5097 29.4771 32.6202C24.8538 33.4236 20.1342 34.9921 15.9908 37.4899C17.2865 35.6752 18.5405 33.8281 19.7035 31.9104C21.7062 28.6073 23.9833 24.1193 24.3341 19.805C30.2694 14.5136 38.4637 11.9414 45.5785 8.9131C53.0622 5.72645 64.8838 -0.511364 72.1404 5.90964C72.2985 6.04893 72.4656 6.12717 72.6328 6.16724C75.7713 10.5446 73.5015 17.2614 70.085 22.07C67.7624 25.3406 64.8947 28.1818 62.1833 31.088C60.3587 33.0438 58.7013 35.3527 56.6932 37.156C56.6768 37.1369 56.6623 37.1159 56.6459 37.0987C49.3294 43.5674 39.9284 55.5393 23.1873 59.93C21.8698 60.2773 20.365 60.388 18.8112 60.4376ZM20.1615 65.2519C19.9761 64.3112 19.7871 63.3685 19.5618 62.4373C20.5286 62.3915 21.47 62.3038 22.3659 62.1778C23.2727 62.0481 24.1723 61.8783 25.061 61.6703C25.1573 62.6434 25.3045 63.6128 25.4372 64.5802C23.6889 64.9275 21.9261 65.1565 20.1615 65.2519ZM27.3744 64.1528C27.2381 63.1853 27.0909 62.2198 27.0055 61.2505C27.0019 61.218 26.9946 61.1894 26.9892 61.157C28.9028 60.5921 30.7746 59.867 32.6047 59.0103C32.8391 60.0407 33.1698 61.1493 33.6878 62.0748C31.6342 62.9239 29.5207 63.6185 27.3744 64.1528ZM35.5433 61.2543C34.9472 60.3841 34.6237 59.0942 34.4238 58.1096C35.814 57.3845 37.1752 56.5812 38.5109 55.7301C39.1888 56.6747 39.7194 57.7165 40.2628 58.7527C38.7363 59.6648 37.1607 60.5025 35.5433 61.2543ZM42.0202 57.6574C42.0002 57.6707 41.9784 57.6822 41.9602 57.6955C41.4095 56.646 40.8716 55.5851 40.1938 54.6196C42.0402 53.364 43.8302 52.0149 45.5639 50.62C46.0255 51.8088 46.5362 52.9823 47.1704 54.0776C45.4585 55.3351 43.7357 56.5335 42.0202 57.6574ZM48.786 52.864C48.1445 51.7325 47.6502 50.5113 47.1886 49.2862C47.5339 48.9962 49.4875 47.0517 51.6319 44.907C52.4952 46.2312 53.6837 48.0116 54.1108 48.5268C52.3661 50.0419 50.587 51.4902 48.786 52.864ZM52.577 58.0619C51.7955 56.8044 51.0231 55.5336 50.2799 54.2322C51.3066 53.4002 52.3225 52.5454 53.3184 51.6753C54.0054 52.9823 54.7214 54.2971 55.4647 55.6099C54.9031 55.9725 54.4015 56.4342 53.9 56.8846C53.5165 57.228 53.1403 57.5753 52.7532 57.915C52.6987 57.9646 52.6369 58.0123 52.577 58.0619ZM57.3856 65.1985C56.1334 63.4792 54.9013 61.6951 53.7055 59.8479C54.6978 59.098 55.5301 57.9169 56.4805 57.3654C57.5637 59.1992 58.7104 61.01 59.9244 62.7713C58.9739 63.4487 58.2579 64.4314 57.3856 65.1985ZM58.6014 66.8338C59.4555 66.0629 60.1661 65.1012 61.1129 64.4447C62.2941 66.0552 63.5499 67.597 64.8693 69.0644C64.1314 69.8983 63.5772 70.8638 62.9938 71.8217C61.4255 70.2513 59.9552 68.5798 58.6014 66.8338ZM64.4567 73.2281C65.0019 72.2931 65.5217 71.3008 66.2413 70.5261C67.6134 71.9324 69.0654 73.2395 70.5974 74.4245C69.9541 75.1725 69.3671 75.9701 68.7674 76.7639C67.2681 75.6781 65.8252 74.4951 64.4567 73.2281ZM76.5146 81.1641C74.4029 80.2711 72.3657 79.1796 70.4248 77.9088C71.0009 77.1207 71.5752 76.3288 72.2276 75.6133C73.0381 76.1686 73.8704 76.6914 74.7264 77.1703C75.6314 77.6741 76.6037 78.155 77.6232 78.5919C77.2034 79.4277 76.8327 80.2826 76.5146 81.1641ZM84.1019 82.6716C82.1574 82.7289 80.202 82.4674 78.3701 81.8797C78.6918 81.0039 79.0734 80.1528 79.495 79.3228C81.1433 79.9067 82.8734 80.3608 84.6144 80.6146C84.4945 81.3111 84.3073 81.9961 84.1019 82.6716ZM86.2209 82.4789C86.379 81.9293 86.508 81.374 86.5916 80.8111C88.6488 80.9199 90.6788 80.7138 92.5633 80.0631C90.6824 81.3321 88.4925 82.1316 86.2209 82.4789ZM96.2361 75.2049C90.8896 81.374 80.5145 78.5251 74.6955 74.7622C66.3613 69.3736 60.4187 60.7124 55.6646 51.8584C55.6973 51.8622 55.7318 51.8661 55.7645 51.8699C55.2938 50.6792 55.223 49.353 56.4387 48.855C56.6423 48.6661 57.0257 48.3035 57.5037 47.8455C58.4541 51.2268 60.6113 53.9345 62.2142 56.9952C62.7285 57.976 63.9279 57.562 64.2005 56.7414C70.0813 56.938 74.3229 57.0754 79.6477 59.8804C83.7821 62.0595 88.5289 66.5189 91.9018 69.5453C92.447 69.9708 93.034 70.3219 93.6883 70.5471C93.8536 70.6043 94.0117 70.6139 94.1571 70.5929C95.1857 70.6577 95.5601 68.9366 94.5442 68.366C94.4733 67.9958 94.3879 67.6314 94.3043 67.2688C94.3552 67.1276 94.3807 66.9693 94.3661 66.7861C93.7119 58.829 93.183 50.8605 92.5797 42.9015C95.3838 47.3838 97.3211 52.6255 98.3297 57.8138C99.3874 63.2559 100.134 70.7093 96.2361 75.2049Z" fill="#FF5B0D"/>
</svg>
