<?xml version="1.0" encoding="utf-8"?>
<!-- Generator: Adobe Illustrator 24.2.3, SVG Export Plug-In . SVG Version: 6.00 Build 0)  -->
<svg version="1.1" id="Layer_1" xmlns="http://www.w3.org/2000/svg" xmlns:xlink="http://www.w3.org/1999/xlink" x="0px" y="0px"
	 viewBox="0 0 700 700" style="enable-background:new 0 0 700 700;" xml:space="preserve">
<style type="text/css">
	.st0{fill:#F9834E;}
</style>
<path className="st0" d="M494.54,499.5c-0.12-0.63-0.5-1.15-0.98-1.35c-0.12-0.08-0.25-0.15-0.37-0.22l-0.09-0.05
	c-11.56-12.51-27.92-19.69-44.89-19.69c-33.7,0-61.12,27.42-61.12,61.12c0,7.78,1.46,15.38,4.35,22.61l-0.01,0.1
	c-0.07,0.7,0.2,1.3,0.74,1.65c9.75,22.33,31.73,36.76,56.05,36.76c18.41,0,35.67-8.21,47.36-22.54l0.2-0.25
	c8.74-10.83,13.56-24.44,13.56-38.33C509.33,524.72,504.08,510.59,494.54,499.5z M501.07,545.27c-2.08-15.8-13.78-29.64-24.18-37.44
	c1.1-2.18,1.27-4.56,0.51-6.91c4.86-1.8,9.66-1.8,13.22,0.09c9.52,10.53,14.76,24.13,14.76,38.3c0,6.95-1.24,13.72-3.69,20.16
	C501.96,555.19,501.75,550.43,501.07,545.27z M448.21,596.48c-3.43,0-6.87-0.31-10.24-0.92c4.27-3.6,7.25-8.45,9.83-13.19
	c4.01-7.35,7.46-15.07,10.28-22.96c2.86-8.01,4.8-16.41,6.48-24.3c1.32-6.23,2.52-13.56,1.48-20.95c3.29-0.02,6.28-1.14,8.48-3.18
	c11.47,8.56,20.01,21.12,22.33,32.89c1.94,9.83,1.94,23.12-3.83,30.89l-0.2,0.26c-0.1,0.13-0.2,0.26-0.31,0.39
	c-0.34,0.41-0.67,0.81-1.03,1.18c-0.12,0.12-0.22,0.25-0.25,0.32C480.34,589.34,464.66,596.48,448.21,596.48z M473.4,505.82
	c-1.07,3.2-4.66,4.34-7.41,4.34c-0.39,0-0.78-0.02-1.15-0.06c-4.64-0.52-9.33-4.76-10.24-9.26c-0.67-3.31,2.24-5.76,5.31-6.38
	c0.37-0.08,0.77-0.12,1.18-0.12c1.82,0,3.67,0.76,5.46,1.49c0.68,0.28,1.34,0.55,1.99,0.77c0.11,0.04,0.21,0.06,0.31,0.08
	C470.43,497.7,474.97,501.11,473.4,505.82z M475.55,497.41c-1.82-2.45-4.58-4.56-7.45-5.71c-0.25-0.1-0.5-0.15-0.76-0.15
	c-0.19,0-0.38,0.03-0.56,0.08c-0.14-0.05-0.29-0.1-0.43-0.15c-0.58-2.83-1.47-5.25-2.65-7.23c7.79,2.2,15.12,6.1,21.35,11.36
	C481.95,495.52,478.69,496.14,475.55,497.41z M458.52,490.68c-1.97,0.4-3.99,1.54-5.49,3.08c-6.8-4.88-14.33-7.36-22.38-7.36
	c-1.55,0-3.14,0.09-4.75,0.27c9.5-4.06,19.83-5.47,30.42-3.96c0.26,0.19,0.57,0.32,0.9,0.36c2.22,1.3,3.8,3.74,4.82,7.43
	C460.84,490.39,459.67,490.45,458.52,490.68z M413.52,493.9c6.15-2.37,11.74-3.52,17.08-3.52c7.36,0,14.02,2.2,20.33,6.72
	c-0.07,0.21-0.13,0.41-0.17,0.6c-0.55,2.43-0.21,4.98,1,7.43c-21.92,9.12-51.42,21.59-58.83,48.75c-1.26-4.76-1.89-9.65-1.89-14.57
	C391.04,521.39,399.23,504.84,413.52,493.9z M454.01,508.45c2.13,2.43,5,4.28,7.95,5.13c1.33,7.35-0.03,14.92-1.55,22.05
	c-1.66,7.84-3.49,14.73-5.56,21.04c-2.58,7.85-6.12,15.2-9.24,21.36c-3.25,6.41-6.63,12.47-12.27,16.07
	c-0.13,0.09-0.26,0.19-0.37,0.29c-16.76-4.64-30.76-16.97-37.51-33.04C399.01,531.41,429.42,518.66,454.01,508.45z"/>
<path className="st0" d="M588.77,387.42c-2.13-2.45-4.28-3.95-7.25-5.01c-1.03-0.37-1.91,0.24-2.35,1.23
	c-2.17,4.84-4.32,10.09-6.73,15.19c-11.75-42.11-18.22-83.65-26.61-126.72c-4.65-23.84-8.25-47.89-13.45-71.6
	c-4.76-21.68-9.87-43.29-13.4-65.27c0.65-0.22,1.31-0.45,1.97-0.66c2.25-0.73,1.36-4.38-0.91-3.65c-0.29,0.09-0.58,0.2-0.87,0.29
	c0.49-8.9,1-16.45,1.52-22.26c0.99-0.78,1.27-2.46-0.19-3.09c-4.75-2.04-9.54-2.64-14.61-1.57c-1.04,0.22-1.38,1.06-1.23,1.88
	c-0.02,0.13-0.03,0.27-0.02,0.41c0.32,7.46,0.47,18.09,0.48,30.97c-0.42,0.27-0.84,0.53-1.25,0.81
	c-24.4,5.77-49.61,8.18-74.37,11.83c-27.42,4.04-54.92,7.68-82.64,8.42c-52.39,1.39-104.84-6.77-156.8-12.77
	c-0.05-0.65-0.44-1.23-1.3-1.36c-0.95-0.15-1.89-0.23-2.82-0.28c-0.61-18.58-0.9-33.8-0.75-43.57c0-0.15-0.01-0.29-0.03-0.41
	c0.13-0.82-0.23-1.66-1.28-1.84c-5.09-0.92-9.86-0.17-14.56,2.01c-1.44,0.67-1.11,2.34-0.1,3.09c1.13,9.71,2.38,24.29,3.64,41.92
	c-0.08,0.01-0.16,0.03-0.25,0.04c-2.05,0.32-1.6,3.16,0.11,3.61c-0.14,0.73-0.28,1.47-0.43,2.2c-0.07,0.01-0.13,0.02-0.2,0.04
	c-1.77,0.35-1.66,2.53-0.5,3.36c-3.6,17.37-33.87,200.27-46.18,239.97c-2.34-4.83-4.42-9.8-6.53-14.38
	c-0.43-0.94-1.3-1.52-2.34-1.18c-2.98,0.98-5.15,2.4-7.31,4.69c-1.3,1.38,0.13,3.21,1.6,3.08c1.65,2.6,3.22,5.26,4.77,7.93
	c-0.05,0-0.09,0.01-0.13,0.01c-2.37,0.14-2.16,3.9,0.21,3.76c0.67-0.04,1.33-0.09,2-0.15c0.24,0.42,0.48,0.83,0.71,1.24
	c-0.06,0-0.12,0.01-0.19,0.01c-2.37,0.16-2.16,3.92,0.21,3.76c0.59-0.04,1.28-0.08,2-0.14c0.49,0.89,0.99,1.78,1.48,2.67
	c-0.06,0.18-0.11,0.36-0.17,0.54c-0.42,1.33,0.59,2.14,1.66,2.16c0.86,1.57,1.73,3.13,2.6,4.69c1.18,2.11,4.24,0.01,3.07-2.09
	c-1.07-1.91-2.13-3.82-3.18-5.74c0.15-0.48,0.3-0.96,0.45-1.44c1.98,3.32,4.19,6.45,6.72,9.22c1.62,1.78,4.06-1.05,2.45-2.81
	c-2.76-3.03-5.1-6.56-7.19-10.31c0.04-0.06,0.09-0.12,0.12-0.18c0.45-0.79,0.27-1.53-0.21-2.02
	c12.61-40.54,42.18-220.52,45.72-236.69c2.41,36.52,4.8,82.28,6.52,125.18c-0.43-0.1-0.86-0.2-1.28-0.31
	c-2.3-0.6-3.35,3.01-1.05,3.61c0.81,0.21,1.64,0.4,2.48,0.57c0.04,0.95,0.07,1.89,0.11,2.84c-0.31,0.01-0.62,0.03-0.93,0.03
	c-2.38-0.01-2.45,3.75-0.07,3.76c0.38,0,0.76-0.01,1.15-0.02c1.78,47.19-0.46,89.23-1.41,110.13c-0.46-0.45-0.87-0.97-1.22-1.58
	c-1.19-2.1-4.41-0.27-3.22,1.84c4.45,7.87,14.64,6.04,22.81,2.21c1.01,0.93,3.1,0.11,3.09-1.59c2.24-1.26,4.22-2.61,5.71-3.85
	c1.85-1.53-0.72-4.23-2.55-2.71c-0.94,0.77-2.22,1.68-3.73,2.59c-3.09-21.22-3.48-62.58-6.59-108.94c2.06-0.52,1.54-3.49-0.25-3.69
	c0-0.05-0.01-0.1-0.01-0.15c0.35-0.2,0.64-0.53,0.81-1.02c0.02-0.07,0.05-0.14,0.07-0.21c0.68-0.29,1.04-0.85,1.13-1.46
	c18.95-12.14,41.91-15.52,63.83-17.59c26.99-2.55,54.1-4.11,81.2-4.18c28.76-0.07,57.53,1.75,86.05,5.51
	c24.8,3.27,50.08,4.63,74.31,11.3c0.34,0.4,0.73,0.58,1.12,0.59c-2,55.59-4.79,107.47-7.75,129.85c-2.59-0.94-5.1-2.29-7.45-4.03
	c-1.93-1.43-3.83,1.8-1.92,3.22c8.65,6.42,19.45,7.87,29.21,4.42c0.29-0.04,0.57-0.15,0.82-0.31c1.84-0.71,3.64-1.56,5.38-2.62
	c2.04-1.24,0.25-4.53-1.8-3.28c-0.94,0.57-1.91,1.07-2.88,1.53c-1.61-22.54-1.82-69.69-1.18-120.9c0.71,0.42,1.43,0.84,2.15,1.25
	c2.07,1.19,3.99-2.02,1.92-3.22c-1.34-0.78-2.68-1.56-4.01-2.37c0.01-0.84,0.02-1.68,0.03-2.52c0.27,0.09,0.53,0.18,0.8,0.27
	c2.28,0.71,3.31-2.9,1.05-3.61c-0.61-0.19-1.19-0.43-1.79-0.65c0.67-45.82,1.98-93.7,3.55-129.34c3.35,17.4,7.41,34.62,11.14,51.93
	c4.94,22.91,8.38,46.13,12.91,69.14c8.67,43.98,15.33,86.42,27.37,129.42c-0.48,0.52-0.68,1.3-0.23,2.14
	c0.04,0.07,0.08,0.13,0.12,0.2c-2.15,3.95-4.54,7.68-7.34,10.87c-1.63,1.86,0.76,4.87,2.41,2.99c2.57-2.92,4.82-6.23,6.85-9.73
	c0.14,0.51,0.28,1.02,0.43,1.53c-1.08,2.02-2.17,4.05-3.26,6.06c-1.21,2.22,1.83,4.45,3.04,2.23c0.9-1.65,1.78-3.3,2.67-4.95
	c1.07-0.02,2.09-0.87,1.69-2.28c-0.05-0.19-0.11-0.38-0.16-0.57c0.5-0.94,1.01-1.88,1.52-2.82c0.73,0.07,1.41,0.11,2,0.16
	c2.37,0.18,2.63-3.8,0.27-3.98c-0.06,0-0.12-0.01-0.19-0.02c0.24-0.44,0.49-0.87,0.73-1.31c0.66,0.07,1.33,0.12,2,0.17
	c2.37,0.17,2.64-3.81,0.27-3.98c-0.05,0-0.09-0.01-0.14-0.01c1.59-2.82,3.2-5.62,4.88-8.37
	C588.59,390.81,590.05,388.88,588.77,387.42z M119.69,394.39c-1.89-3.3-3.82-6.57-5.85-9.77c0.74-0.56,1.52-1.01,2.38-1.39
	c1.61,3.57,3.23,7.27,4.96,10.93C120.68,394.25,120.18,394.32,119.69,394.39z M122.66,399.07c-0.1,0.02-0.2,0.04-0.29,0.06
	c-0.24-0.42-0.47-0.84-0.71-1.26c0.41-0.07,0.81-0.16,1.21-0.25c0.21,0.41,0.4,0.83,0.61,1.24
	C123.21,398.93,122.93,399,122.66,399.07z M406.17,257.02c-0.63-3.47-1.16-6.95-1.61-10.44c9.56,0.75,19.07,1.67,28.5,2.77
	c1.06,0.12,2.13,0.26,3.19,0.39c0.66,4.22,1.46,8.39,2.4,12.49c-3.49-0.54-6.98-1.05-10.48-1.53c-7.36-1-14.74-1.85-22.13-2.55
	C406.19,257.82,406.25,257.44,406.17,257.02z M398.99,180.78c-0.12,5.05-0.23,10.11-0.29,15.17c-11.5,0.06-23,0.19-34.49,0.28
	c0.19-4.52,0.4-9.03,0.6-13.53C376.42,182.27,387.83,181.62,398.99,180.78z M364.96,179.01c0.12-3.01,0.22-6.02,0.29-9.02
	c11.38-0.74,22.73-1.91,34.05-3.31c-0.07,3.46-0.15,6.91-0.23,10.37C387.74,177.93,376.35,178.58,364.96,179.01z M398.65,199.72
	c-0.06,6.8-0.01,13.59,0.21,20.37c-11.72,0.06-23.44,0.19-35.17,0.29c-0.07-6.78,0.09-13.58,0.35-20.37
	C375.58,199.92,387.12,199.79,398.65,199.72z M399,223.87c0.27,6.23,0.72,12.45,1.4,18.65c-11.58-0.84-23.46-1.44-35.58-1.79
	c-0.6-5.5-0.92-11.03-1.06-16.58C375.51,224.07,387.25,223.94,399,223.87z M400.83,246.29c0.48,3.85,1.06,7.7,1.76,11.54
	c-11.78-1.06-23.58-1.78-35.4-2.19c-0.8-3.72-1.43-7.45-1.92-11.21C377.15,244.79,389.02,245.41,400.83,246.29z M402.52,220.07
	c-0.22-6.78-0.27-13.57-0.2-20.37c4.06-0.02,8.12-0.03,12.18-0.02c6.62,0.01,13.23,0.15,19.84,0.13c-0.45,6.84-0.61,13.71-0.5,20.56
	c-2.57-0.01-5.13,0.01-7.67,0.04c0.01-0.08,0.01-0.17,0.01-0.25c-3.22-0.03-6.43-0.06-9.66-0.08
	C411.85,220.06,407.19,220.06,402.52,220.07z M467.02,172.53c-1.61,7.28-2.73,14.7-3.5,22.15c-4.16,0.25-8.31,0.57-12.47,0.85
	c-4.26,0.29-8.51,0.42-12.76,0.48c0.53-6.57,1.29-13.09,2.27-19.51C449.45,175.33,458.29,174.01,467.02,172.53z M441.15,172.73
	c0.7-4.24,1.49-8.44,2.37-12.56c9.72-1.83,19.35-4.02,28.97-6.34c-1.8,4.84-3.31,9.81-4.56,14.86
	C459.02,170.22,450.08,171.57,441.15,172.73z M481.01,226.22c-4.96-1.56-10.03-2.73-15.16-3.59c-0.02-4.05,0.04-8.1,0.19-12.13
	c0.15-4.06,0.41-8.14,0.77-12.22c5.21-0.26,10.41-0.35,15.63-0.02c0.13,0.01,0.25,0,0.36-0.01c-0.67,4.47-1.19,9-1.54,13.61
	C480.89,216.7,480.82,221.49,481.01,226.22z M463.16,198.48c-0.35,3.99-0.61,7.98-0.79,11.95c-0.18,3.85-0.26,7.73-0.26,11.63
	c-8.13-1.13-16.38-1.55-24.59-1.66c-0.12-6.86,0.05-13.76,0.5-20.61c3.59-0.04,7.17-0.14,10.76-0.35
	C453.57,199.16,458.36,198.78,463.16,198.48z M437.36,173.22c-0.14,0.02-0.27,0.04-0.41,0.05c-11.3,1.39-22.71,2.55-34.19,3.49
	c0.09-3.52,0.17-7.03,0.24-10.55c8.74-1.12,17.47-2.36,26.18-3.63c3.5-0.51,6.98-1.08,10.44-1.7
	C438.79,164.94,438.04,169.06,437.36,173.22z M436.77,177.01c-0.93,6.27-1.65,12.62-2.16,19.02c-5.88,0.02-11.75-0.08-17.65-0.11
	c-4.87-0.02-9.74-0.02-14.6,0c0.07-5.14,0.19-10.28,0.31-15.42C414.36,179.56,425.75,178.4,436.77,177.01z M414.06,223.84
	c3.31,0.01,6.61,0.05,9.92,0.08c0.26,0.17,0.58,0.28,0.98,0.27c2.97-0.04,5.96-0.07,8.96-0.06c0.24,7.35,0.81,14.66,1.78,21.84
	c-0.81-0.1-1.62-0.22-2.43-0.32c-9.45-1.13-19.2-2.08-29.16-2.85c-0.71-6.3-1.18-12.62-1.46-18.96
	C406.46,223.84,410.26,223.83,414.06,223.84z M437.6,224.16c8.19,0.11,16.43,0.55,24.53,1.71c0.14,8.09,0.71,16.22,1.87,24.21
	c-8.09-1.35-16.27-2.55-24.5-3.62C438.46,239.14,437.85,231.68,437.6,224.16z M464.59,253.86c0.78,4.61,1.75,9.16,2.95,13.63
	c-8.3-1.75-16.63-3.28-25-4.63c-0.01-0.08-0.01-0.16-0.03-0.25c-0.97-4.07-1.79-8.22-2.47-12.41
	C448.23,251.25,456.43,252.48,464.59,253.86z M465.9,226.47c5.19,0.9,10.32,2.12,15.34,3.77c0.6,8.19,2.05,16.17,4.44,23.82
	c-5.86-1.19-11.82-2.28-17.81-3.31C466.66,242.74,466.07,234.6,465.9,226.47z M483.37,194.77c-0.24-0.15-0.52-0.25-0.85-0.27
	c-5.11-0.33-10.22-0.25-15.33-0.01c0.81-7.62,2.03-15.22,3.78-22.65c6.42-1.12,12.78-2.32,19.05-3.6
	C487.12,176.84,484.91,185.67,483.37,194.77z M471.91,167.99c1.36-5.19,2.99-10.28,4.94-15.23c7.22-1.77,14.43-3.6,21.67-5.4
	c-2.67,5.53-5.04,11.14-7.11,16.84C484.95,165.56,478.45,166.83,471.91,167.99z M349.13,162.33c26.47-0.71,52.8-4.31,78.98-8.13
	c18.89-2.76,38.05-4.84,56.93-8.14c-18.03,4.55-35.99,8.99-54.44,11.71c-27.42,4.04-54.92,7.68-82.64,8.42
	c-52.95,1.41-106.48-9.12-158.46-16.62C242.45,155.64,295.74,163.75,349.13,162.33z M343.16,183.27c4.63-0.07,9.28-0.17,13.81-0.3
	c1.39-0.04,2.76-0.1,4.14-0.14c-0.19,4.47-0.4,8.94-0.58,13.42c-5.12,0.04-10.24,0.07-15.36,0.08c-4.9,0-9.79,0.01-14.67,0.04
	c-0.04-4.33-0.04-8.66,0.02-13C334.79,183.36,339,183.33,343.16,183.27z M330.58,179.64c0.06-2.96,0.15-5.93,0.27-8.89
	c6.42,0.14,12.87,0.14,19.35-0.03c3.79-0.1,7.57-0.28,11.36-0.49c-0.08,2.97-0.17,5.94-0.29,8.92c-4.45,0.15-8.89,0.27-13.33,0.35
	C342.21,179.6,336.42,179.64,330.58,179.64z M342.71,200.09c5.89,0.01,11.78-0.01,17.67-0.05c-0.25,6.79-0.41,13.59-0.34,20.36
	c-5.1,0.04-10.21,0.07-15.31,0.08c-4.6,0-9.2,0.01-13.78,0.03c-0.16-6.8-0.32-13.6-0.4-20.39
	C334.59,200.1,338.65,200.08,342.71,200.09z M342.27,224.24c5.94,0.01,11.89-0.01,17.83-0.05c0.13,5.51,0.44,10.99,1.01,16.46
	c-1.79-0.04-3.58-0.1-5.38-0.13c-4.38-0.08-8.87-0.13-13.35-0.15c-3.64-0.02-7.33,0-11.05,0.03c-0.06-5.38-0.17-10.75-0.3-16.13
	C334.78,224.25,338.52,224.24,342.27,224.24z M331.36,244.12c5.27-0.05,10.49-0.07,15.67-0.03c4.84,0.03,9.69,0.13,14.53,0.25
	c0.48,3.75,1.09,7.47,1.85,11.19c-8.7-0.26-17.4-0.37-26.09-0.32c-1.99,0.01-3.98,0.05-5.98,0.08
	C331.38,251.56,331.39,247.84,331.36,244.12z M326.84,183.36c-0.05,4.34-0.06,8.68-0.02,13.02c-9.21,0.06-18.4,0.19-27.61,0.45
	c-0.24-4.65-0.49-9.29-0.72-13.94C308.24,183.18,317.68,183.34,326.84,183.36z M298.31,179.18c-0.16-3.43-0.31-6.86-0.44-10.29
	c9.75,0.85,19.5,1.47,29.31,1.76c-0.13,3-0.21,6-0.28,9C317.57,179.61,308.05,179.46,298.31,179.18z M326.86,200.14
	c0.09,6.8,0.25,13.59,0.41,20.38c-8.97,0.05-17.92,0.17-26.88,0.41c-0.28-6.76-0.62-13.52-0.98-20.28
	C308.56,200.39,317.7,200.22,326.86,200.14z M327.36,224.29c0.12,5.38,0.23,10.76,0.29,16.14c-8.62,0.11-17.49,0.35-26.65,0.72
	c-0.09-5.46-0.25-10.93-0.46-16.39C309.48,224.51,318.4,224.36,327.36,224.29z M301.05,244.86c9.06-0.36,17.93-0.6,26.63-0.72
	c0.03,3.73,0.02,7.45-0.02,11.18c-8.87,0.17-17.75,0.52-26.62,0.99C301.08,252.5,301.08,248.68,301.05,244.86z M294.81,182.78
	c0.23,4.72,0.48,9.45,0.73,14.17c-6.12,0.2-12.24,0.45-18.39,0.81c-1.77,0.11-3.55,0.21-5.32,0.31c-0.27-5.43-0.54-10.86-0.79-16.29
	C279.19,182.2,287.11,182.53,294.81,182.78z M270.88,178.09c-0.18-4.05-0.34-8.1-0.48-12.15c7.94,0.99,15.86,1.88,23.78,2.62
	c0.13,3.5,0.29,7.01,0.45,10.51C286.87,178.82,278.97,178.5,270.88,178.09z M272.58,201.79c7.74-0.43,15.46-0.75,23.16-1
	c0.35,6.75,0.69,13.51,0.97,20.26c-6.66,0.21-13.32,0.47-20.01,0.86c-1.26,0.07-2.52,0.14-3.78,0.22
	c-0.26-6.77-0.58-13.54-0.91-20.31C272.2,201.81,272.39,201.8,272.58,201.79z M296.87,224.89c0.21,5.47,0.37,10.94,0.45,16.42
	c-7.71,0.33-15.64,0.76-23.81,1.28c-0.09-5.56-0.25-11.12-0.45-16.68C281.02,225.47,288.95,225.14,296.87,224.89z M297.37,245.01
	c0.04,3.84,0.03,7.69-0.02,11.53c-7.94,0.46-15.87,1.02-23.79,1.68c0.04-3.99,0.04-7.97,0-11.96
	C281.67,245.76,289.6,245.34,297.37,245.01z M223.37,175.77c1.15,7.38,1.86,14.85,2.24,22.34c-5.39-0.5-10.76-1.23-16.09-2.3
	c-0.03,0-0.05,0-0.07-0.01c-1.1-9.55-3.46-18.78-7.31-27.21C208.76,171.46,215.85,173.85,223.37,175.77z M199.33,163.07
	c-1.62-2.88-3.45-5.64-5.48-8.26c8.76,1.28,17.42,2.6,26.01,3.91c0.01,0.15,0.03,0.3,0.07,0.46c1.07,4.1,1.97,8.25,2.72,12.42
	C214.1,169.33,206.32,166.48,199.33,163.07z M247.73,222.92c-0.04,0-0.07-0.01-0.1-0.01c-6.14,0.28-12.25,0.73-18.34,1.4
	c0.17-3.41,0.29-6.81,0.34-10.2c0.06-3.97,0.03-7.96-0.1-11.95c6.07,0.42,12.15,0.56,18.25,0.52c-0.03,1.96-0.04,3.9-0.03,5.83
	C247.76,213.31,247.77,218.12,247.73,222.92z M229.37,198.42c-0.34-7.26-1.02-14.53-2.1-21.7c6.45,1.48,13.19,2.62,20.22,3.42
	c0.5,6.23,0.43,12.58,0.33,18.83C241.66,199.01,235.5,198.86,229.37,198.42z M226.6,172.58c-0.77-4.47-1.71-8.9-2.82-13.27
	c6.7,1.02,13.36,2.02,19.99,2.99c1.7,4.47,2.72,9.15,3.32,13.92C239.88,175.32,233.03,174.11,226.6,172.58z M209.81,199.67
	c5.29,1.01,10.61,1.72,15.95,2.19c0.14,4.09,0.2,8.18,0.17,12.26c-0.03,3.53-0.13,7.07-0.32,10.62c-5.56,0.69-11.09,1.59-16.6,2.72
	c0.31-2.94,0.59-5.93,0.82-9.02C210.3,212.18,210.31,205.88,209.81,199.67z M225.39,228.55c-0.5,7.32-1.38,14.62-2.77,21.8
	c-6.62,2.04-12.86,4.49-18.72,7.34c2-8.54,3.55-17.15,4.66-26.29C214.15,230.21,219.76,229.28,225.39,228.55z M225.76,253.44
	c6.42-1.85,13.3-3.35,20.61-4.5c-0.57,4.39-1.48,8.7-3.02,12.65c-7.14,1.28-14.22,3.07-21.11,5.43
	C223.65,262.57,224.81,258.03,225.76,253.44z M226.57,249.2c1.24-6.95,2.02-14.01,2.48-21.09c5.24-0.59,10.51-1.01,15.79-1.29
	c0,0.01,0,0.01,0,0.02c0.94,0,1.88-0.02,2.83-0.03c-0.05,2.68-0.13,5.36-0.25,8.03c-0.15,3.28-0.31,6.7-0.62,10.13
	C239.74,246.01,232.99,247.42,226.57,249.2z M250.02,248.4c5.1-0.71,10.4-1.26,15.9-1.64c1.33-0.09,2.64-0.17,3.96-0.26
	c0.04,4.01,0.04,8.03-0.01,12.04c-4.58,0.4-9.17,0.82-13.74,1.27c-2.88,0.28-5.76,0.65-8.63,1.08
	C248.81,256.94,249.54,252.67,250.02,248.4z M251.45,223.04c0.03-4.11,0-8.22-0.02-12.33c-0.02-2.65,0.02-5.35,0.07-8.08
	c5.62-0.1,11.23-0.33,16.84-0.62c0.33,6.78,0.65,13.55,0.91,20.33C263.33,222.67,257.39,222.92,251.45,223.04z M269.39,226.08
	c0.2,5.57,0.36,11.15,0.44,16.73c-2.83,0.19-5.69,0.38-8.59,0.59c-3.69,0.26-7.3,0.63-10.84,1.08c0.15-1.74,0.29-3.46,0.42-5.14
	c0.33-4.18,0.5-8.37,0.57-12.56C257.4,226.67,263.4,226.4,269.39,226.08z M251.56,198.91c0.11-6.1,0.16-12.29-0.3-18.38
	c2.59,0.25,5.22,0.45,7.88,0.61c2.77,0.16,5.5,0.31,8.21,0.46c0.25,5.56,0.53,11.12,0.8,16.68
	C262.64,198.57,257.1,198.81,251.56,198.91z M263.96,177.73c-4.48-0.25-8.83-0.61-13.06-1.06c-0.55-4.72-1.48-9.33-3.01-13.76
	c6.29,0.91,12.56,1.77,18.81,2.57c0.14,4.14,0.31,8.28,0.49,12.42C266.11,177.84,265.04,177.79,263.96,177.73z M172.87,102.96
	c2.78-1.02,5.68-1.46,8.62-1.16c-0.11,9.87,0.17,24.59,0.76,42.42c-1.92,0.11-3.83,0.34-5.74,0.62
	C175.25,127.27,174.01,112.72,172.87,102.96z M176.78,148.58c1.86-0.3,3.73-0.57,5.6-0.68c0.03,0.85,0.06,1.71,0.09,2.58
	c-1.85-0.12-3.71-0.06-5.55,0.11C176.87,149.91,176.83,149.24,176.78,148.58z M177.18,154.36c1.8-0.17,3.61-0.2,5.43-0.07
	c1.39,37.61,3.94,86.13,6.89,131.38c-0.18,0.53-0.36,1.07-0.54,1.61c-1.6,0.12-3.21,0.06-4.81-0.15
	C182.34,241.32,179.76,192.18,177.18,154.36z M189.88,291.41c0.01,0.22,0.03,0.45,0.04,0.67c-1.84,0.38-3.69,0.67-5.55,0.86
	c-0.03-0.67-0.05-1.34-0.08-2.02c1.55,0.17,3.1,0.22,4.64,0.13C189.21,291.25,189.54,291.38,189.88,291.41z M196.94,405.88
	c-4.49,2.22-9.83,3.92-13.88,3.05c1.04-20.35,3.28-63.57,1.46-112.21c1.9-0.19,3.79-0.48,5.66-0.85
	C193.36,343.1,193.83,385.09,196.94,405.88z M192.55,276.27c-2.68-42.44-4.96-86.87-6.25-121.84
	c15.18,17.45,19.04,41.41,17.28,65.59C202.07,240.62,198.3,257.81,192.55,276.27z M202.71,262.58c5.76-3.06,12.11-5.69,19.01-7.91
	c-1.06,4.73-2.36,9.4-3.92,13.95c-6.75,2.58-13.3,5.74-19.52,9.54C199.92,272.89,201.4,267.73,202.71,262.58z M426.79,268.52
	c-30.1-4.1-60.5-5.67-90.85-5.49c-27.09,0.16-54.23,1.94-81.19,4.61c-13.81,1.37-27.81,3.56-40.95,8.11
	c15-6.51,31.32-9.85,47.31-11.36c26.99-2.55,54.1-4.11,81.2-4.18c28.76-0.07,57.53,1.75,86.05,5.51
	c17.03,2.25,33.86,5.36,50.56,9.33C461.66,272.22,444.12,270.88,426.79,268.52z M471.65,268.4c-1.3-4.56-2.35-9.19-3.17-13.87
	c6.22,1.09,12.41,2.28,18.56,3.56c1.98,5.48,4.46,10.77,7.44,15.85C486.89,271.9,479.28,270.07,471.65,268.4z M488.37,210.09
	c1.66-21.69,7.48-42.01,16.74-61.07c-0.18,34.4-1.19,80.69-2.72,125.57C490.27,255.49,486.57,233.56,488.37,210.09z M497.86,415.04
	c2.93-21.93,5.72-73.4,7.75-128.84c1.69,1.28,3.44,2.48,5.23,3.62c-0.67,53.05-0.46,102.07,1.23,124.53
	C507.4,415.83,502.55,416.06,497.86,415.04z M507.12,282.69c0.06-0.22,0.09-0.45,0.07-0.69c1.22,0.65,2.47,1.25,3.73,1.79
	c-0.01,0.54-0.01,1.07-0.02,1.61C509.61,284.54,508.35,283.64,507.12,282.69z M510.98,279.69c-1.72-0.81-3.39-1.73-5.04-2.71
	c1.7-48.81,2.8-99.56,2.86-135.18c0.29-0.53,0.56-1.07,0.86-1.6c0.22-0.4,0.29-0.79,0.24-1.16c1.71-0.91,3.48-1.7,5.29-2.41
	C513.33,172.81,511.75,227.48,510.98,279.69z M515.53,130.46c-0.53,0.4-0.88,1.06-0.75,1.94c0.02,0.12,0.04,0.25,0.06,0.37
	c-2.06,0.8-4.08,1.67-6.03,2.68c-0.02-11.31-0.16-20.78-0.43-27.8c2.94-0.39,5.85-0.04,8.65,0.89
	C516.52,114.31,516.01,121.74,515.53,130.46z M575.44,403.61c-0.1-0.02-0.2-0.04-0.3-0.07c-0.27-0.07-0.55-0.14-0.82-0.23
	c0.22-0.43,0.42-0.87,0.63-1.31c0.4,0.09,0.81,0.19,1.21,0.27C575.92,402.72,575.68,403.16,575.44,403.61z M578.18,398.61
	c-0.5-0.08-0.99-0.15-1.49-0.25c1.78-3.87,3.46-7.78,5.12-11.55c0.86,0.41,1.63,0.89,2.36,1.49
	C582.1,391.67,580.12,395.13,578.18,398.61z"/>
</svg>
