<?xml version="1.0" encoding="utf-8"?>
<!-- Generator: Adobe Illustrator 24.2.3, SVG Export Plug-In . SVG Version: 6.00 Build 0)  -->
<svg version="1.1" id="Layer_1" xmlns="http://www.w3.org/2000/svg" xmlns:xlink="http://www.w3.org/1999/xlink" x="0px" y="0px"
	 viewBox="0 0 700 700" style="enable-background:new 0 0 700 700;" xml:space="preserve">
<style type="text/css">
	.st0{fill:#F9834E;}
</style>
<path className="st0" d="M557.71,164.12c-0.52-2.81-2.21-5.08-4.35-6c-0.53-0.35-1.09-0.67-1.63-0.99l-0.4-0.23
	c-51.19-55.4-123.6-87.18-198.74-87.18c-149.23,0-270.63,121.4-270.63,270.62c0,34.44,6.48,68.12,19.27,100.11l-0.05,0.45
	c-0.31,3.09,0.89,5.76,3.27,7.32c43.16,98.89,140.48,162.74,248.15,162.74c81.5,0,157.94-36.37,209.69-99.79l0.89-1.12
	c38.72-47.95,60.04-108.22,60.04-169.71C623.21,275.78,599.96,213.22,557.71,164.12z M586.62,366.77
	c-9.23-69.96-61.03-131.23-107.05-165.79c4.86-9.66,5.63-20.19,2.25-30.6c21.51-7.97,42.77-7.95,58.53,0.38
	c42.16,46.63,65.37,106.84,65.37,169.58c0,30.77-5.48,60.73-16.32,89.28C590.56,410.69,589.64,389.62,586.62,366.77z M352.59,593.48
	c-15.18,0-30.41-1.37-45.34-4.08c18.9-15.95,32.09-37.42,43.53-58.4c17.74-32.52,33.04-66.73,45.51-101.66
	c12.65-35.45,21.26-72.66,28.68-107.6c5.85-27.58,11.16-60.05,6.55-92.78c14.57-0.1,27.81-5.06,37.54-14.06
	c50.79,37.88,88.59,93.51,98.85,145.64c8.57,43.54,8.61,102.35-16.94,136.76l-0.9,1.16c-0.46,0.59-0.9,1.17-1.37,1.74
	c-1.49,1.82-2.96,3.6-4.55,5.21c-0.52,0.53-0.96,1.1-1.09,1.4C494.84,561.89,425.42,593.48,352.59,593.48z M464.11,192.1
	c-4.75,14.18-20.64,19.21-32.8,19.21c-1.74,0-3.45-0.09-5.11-0.28c-20.54-2.29-41.29-21.06-45.33-41
	c-2.96-14.64,9.91-25.49,23.52-28.26c1.66-0.34,3.42-0.51,5.21-0.51c8.07,0,16.24,3.35,24.16,6.6c3,1.23,5.93,2.43,8.8,3.42
	c0.47,0.16,0.94,0.28,1.39,0.36C450.98,156.14,471.09,171.22,464.11,192.1z M473.62,154.88c-8.06-10.84-20.27-20.21-33-25.26
	c-1.1-0.43-2.22-0.65-3.35-0.65c-0.84,0-1.68,0.12-2.49,0.37c-0.64-0.22-1.28-0.45-1.92-0.66c-2.58-12.53-6.52-23.27-11.74-32.02
	c34.48,9.73,66.93,26.99,94.52,50.28C501.99,146.49,487.57,149.24,473.62,154.88z M398.25,125.07c-8.7,1.77-17.64,6.81-24.31,13.63
	c-30.12-21.61-63.46-32.57-99.09-32.57c-6.86,0-13.9,0.4-21.04,1.21c42.05-17.95,87.81-24.22,134.7-17.54
	c1.15,0.86,2.51,1.41,3.99,1.59c9.81,5.76,16.81,16.54,21.33,32.89C408.52,123.77,403.33,124.03,398.25,125.07z M199.01,139.31
	c27.25-10.49,51.99-15.6,75.61-15.6c32.6,0,62.07,9.74,90,29.76c-0.31,0.94-0.56,1.81-0.76,2.66c-2.45,10.74-0.91,22.06,4.42,32.91
	c-97.07,40.4-227.65,95.59-260.45,215.84c-5.56-21.06-8.38-42.72-8.38-64.53C99.46,261.02,135.74,187.76,199.01,139.31z
	 M378.25,203.73c9.45,10.76,22.12,18.94,35.2,22.72c5.89,32.52-0.14,66.04-6.85,97.63c-7.37,34.72-15.43,65.2-24.63,93.17
	c-11.44,34.75-27.09,67.31-40.89,94.57c-14.38,28.39-29.35,55.2-54.32,71.17c-0.6,0.39-1.14,0.82-1.62,1.3
	c-74.21-20.55-136.17-75.12-166.06-146.3C134.74,305.41,269.4,248.95,378.25,203.73z"/>
</svg>
