<svg width="132" height="220" viewBox="0 0 132 220" fill="none" xmlns="http://www.w3.org/2000/svg">
<g id="Group">
<path id="Vector" d="M90.5325 208.663C92.9347 187.033 95.0083 165.386 96.8181 143.719C97.7716 132.333 98.7991 120.919 99.6693 109.505C108.288 114.152 121.016 103.617 125.923 97.4567C134.393 86.8202 132.162 72.342 121.359 64.1865C110.496 55.9893 94.9944 54.0453 83.1453 62.2888C80.6875 63.9967 78.4103 66.0379 76.545 68.2689C70.2131 67.5052 63.7331 67.3941 57.3827 67.644C51.5784 67.8755 45.7464 68.5142 40.0487 69.7547C39.7108 68.9817 39.3636 68.2134 39.035 67.4404C31.9996 51.1386 18.3036 17.6925 10.9488 1.51564C10.5971 0.742672 9.80558 0.599188 9.14369 0.830617C6.24621 0.802845 3.65884 2.64502 1.84907 4.70936C1.1733 5.01484 0.691924 5.71376 1.05758 6.52839C3.07564 11.0227 5.5797 16.8177 8.3013 23.2005C8.13004 23.9364 8.48181 24.552 9.02335 24.8992C16.0588 41.4324 24.3393 61.377 29.3752 72.8882C26.2509 74.1611 23.2932 75.8922 21.7149 78.4055C21.0252 78.3407 20.2662 78.8035 20.3402 79.6691C20.3911 80.2569 20.4606 80.8401 20.5207 81.4279C19.9931 83.7376 20.2893 85.589 21.1734 87.0748C22.386 96.2208 24.2421 105.33 25.8251 114.388C27.7367 125.335 29.7131 136.272 31.6941 147.209C35.6469 169.019 39.6367 190.824 43.1174 212.713C43.2516 213.574 43.9968 213.925 44.7282 213.874C48.2181 220.475 61.5391 220.382 67.9728 219.632C74.5593 218.873 87.3943 216.499 90.1529 209.473C90.352 209.278 90.4955 209.01 90.5325 208.663ZM6.50541 6.87553C5.72318 7.05141 5.24181 6.83387 4.49661 6.65799C4.46421 6.64873 4.43181 6.64873 4.39478 6.63947C4.33461 6.50987 4.27907 6.37564 4.2189 6.24604C4.85764 5.5425 5.54267 4.88524 6.37581 4.36684C6.80627 4.09839 7.2645 3.89473 7.72735 3.70496C8.12078 4.39924 8.45404 5.01947 7.7505 5.91279C7.4589 6.29696 7.01918 6.75982 6.50541 6.87553ZM5.81113 9.80541C7.57461 9.7221 9.39827 8.73622 10.2407 7.3569C10.5647 8.09747 11.4395 10.134 12.555 12.7399C12.2171 12.9667 11.944 13.3092 11.8236 13.7906C11.3562 15.6606 10.648 17.4888 9.89815 19.294C8.06061 14.994 6.47301 11.3051 5.81113 9.80541ZM13.1335 26.871C13.2955 26.6766 13.4205 26.4405 13.4899 26.1535C14.0037 24.0892 14.9988 22.0896 15.6654 20.0346C18.0167 25.5518 20.3495 31.0228 20.9188 32.3558C19.8218 33.55 19.6089 35.7948 19.1923 37.2066C19.0257 37.7712 18.7063 38.5303 18.4332 39.3218C17.651 37.4796 15.4802 32.3743 13.1335 26.871ZM20.9558 45.2788C22.0574 44.1633 22.2009 42.2471 22.5666 40.8446C22.7934 39.9698 23.0988 39.0117 23.3395 38.0443C24.4319 40.6271 25.5242 43.2144 26.6073 45.8018C26.5703 45.8574 26.524 45.8944 26.4962 45.9499C25.4131 48.1161 24.8577 50.435 24.0662 52.6891C23.0294 50.2221 21.9926 47.7504 20.9558 45.2788ZM26.6952 58.9608C26.8202 58.8498 26.9359 58.7155 27.0239 58.5489C27.9912 56.8086 28.954 54.6054 29.3844 52.4114C30.2176 54.3971 31.0553 56.3781 31.8931 58.3638C31.097 59.7199 30.8517 61.3908 30.5045 62.8674C30.2592 63.9273 29.963 64.9734 29.6575 66.0102C28.6624 63.6635 27.6811 61.3122 26.6952 58.9608ZM99.9563 105.682C100.442 98.9748 100.854 92.268 101.164 85.5659C102.928 87.6626 104.654 89.7871 106.316 91.9533C108.852 95.2627 111.056 99.0628 113.948 102.113C110.162 105.256 105.441 106.047 99.9563 105.682ZM117.23 98.4379C116.781 99.1091 116.304 99.7154 115.814 100.28C114.06 96.6513 111.139 93.3141 108.676 90.1482C106.413 87.246 104.09 84.3948 101.678 81.6084C107.797 82.312 114.384 82.0111 120.428 81.6501C121.308 87.3155 120.54 93.5131 117.23 98.4379ZM87.2231 78.4703C88.4172 78.6462 89.6207 78.8683 90.8333 79.0766C86.2973 80.0856 81.7845 81.5853 77.4244 83.0757C77.1467 80.8447 77.5494 78.7063 78.4612 76.7253C78.5167 76.7623 78.5584 76.7994 78.6232 76.8271C81.155 77.9611 84.4506 78.0583 87.2231 78.4703ZM79.7896 74.4156C83.0296 69.7824 89.0467 66.2647 95.1703 64.8623C94.4112 68.7919 95.0731 72.8373 95.0453 76.8271C92.981 76.3319 90.8056 76.0773 88.7459 75.7579C85.89 75.309 82.7195 74.4203 79.7896 74.4156ZM95.5406 80.4698C91.5971 84.941 85.7882 87.047 79.4239 88.0468C79.336 87.8154 79.1925 87.5886 78.9564 87.3942C78.8685 87.3201 78.7944 87.246 78.7065 87.1674C78.4843 86.7276 78.2899 86.2833 78.1233 85.839C83.9044 83.9875 89.8614 82.5434 95.5406 80.4698ZM97.5263 64.4272C99.5304 64.1495 101.511 64.1078 103.368 64.3485C105.233 64.5938 106.982 65.0752 108.602 65.7417C106.621 68.292 104.502 70.7591 102.382 73.2122C101.201 74.5823 99.336 76.2393 98.1743 77.9334C98.1326 77.8963 98.0678 77.8639 98.0169 77.8315C98.2067 73.3742 97.7438 68.8614 97.5263 64.4272ZM104.636 74.7119C106.663 72.1754 108.658 69.6204 110.496 66.9636C110.551 66.8803 110.593 66.797 110.625 66.7183C115.069 69.1854 118.272 73.2585 119.679 78.2018C119.78 78.5582 119.873 78.9239 119.961 79.2895C113.985 78.7248 107.894 78.785 101.863 78.498C102.872 77.2067 103.784 75.7764 104.636 74.7119ZM87.6628 63.1127C97.9197 57.7482 110.81 59.6135 119.392 66.6767C128.311 74.0222 131.088 86.3666 123.261 95.6886C122.303 96.8318 121.137 98.1047 119.827 99.3775C124.15 91.8145 124.863 81.4002 121.474 74.2722C117.503 65.9083 109.144 60.8632 99.0907 61.4047C90.2918 61.8722 79.7896 67.6348 75.7581 75.3321C77.7021 70.3518 82.7102 65.7047 87.6628 63.1127ZM43.0989 72.2495C48.5514 71.2543 53.9899 70.6387 59.5303 70.5323C64.5153 70.4351 69.5558 70.5276 74.5315 71.009C70.9351 76.6605 70.2223 83.1127 75.5174 88.5328C67.9497 89.241 59.9978 88.8105 53.7029 89.1947C52.2172 89.2872 50.7221 89.3937 49.2225 89.4909C46.4731 83.9135 43.8256 78.2805 41.2937 72.5874C41.9093 72.467 42.5111 72.3606 43.0989 72.2495ZM41.9186 83.8718C41.9973 83.1312 42.0575 82.386 42.0899 81.6455C43.2285 84.1495 44.3856 86.6443 45.5752 89.1299C45.3067 89.2595 45.0753 89.4678 44.9318 89.727C43.4322 89.7964 41.9279 89.838 40.4282 89.838C40.3264 89.6251 40.2199 89.4122 40.1181 89.1947C41.4835 87.9681 41.7612 85.3391 41.9186 83.8718ZM44.8115 92.7587C44.8068 94.6379 44.742 96.5032 44.6402 98.3731C43.7099 96.531 42.7934 94.6842 41.8908 92.8281C42.8906 92.8188 43.8672 92.7957 44.8115 92.7587ZM36.9429 70.074C37.3548 71.009 37.7622 71.9486 38.1787 72.8836C38.1186 72.9808 38.0676 73.0919 38.0445 73.2122C37.6002 75.3321 37.2345 77.4705 36.6652 79.5719C36.5448 80.0347 36.3967 80.493 36.244 80.9512C34.8739 77.9796 33.5316 74.9942 32.2218 71.981C33.3141 70.9998 33.4298 68.7734 33.6612 67.6301C33.8973 66.4684 34.1426 65.302 34.3602 64.1263C35.2164 66.112 36.0727 68.093 36.9429 70.074ZM23.3858 82.1963C23.5756 81.2474 24.168 80.2014 25.2882 79.0859C26.7508 77.6232 28.5698 76.4985 30.5694 75.6052C32.643 80.3171 34.7443 85.0475 36.9336 89.7455C35.8182 89.6807 34.7073 89.5974 33.5964 89.4631C30.4351 89.0743 25.6538 87.4867 23.9459 84.8901C23.7654 83.9875 23.5802 83.0896 23.3858 82.1963ZM68.5098 216.536C60.2292 217.448 52.7124 216.883 46.7462 211.449C46.5564 211.273 46.3065 211.167 46.0473 211.107C42.5898 189.593 38.6416 168.163 34.7675 146.719C32.6846 135.207 30.6156 123.691 28.6022 112.162C27.3386 104.923 26.2833 97.6048 24.9827 90.3472C28.4911 92.0598 33.49 92.6707 38.387 92.805C40.6689 97.5909 43.0572 102.326 45.6261 106.973C42.5111 107.427 38.3778 108.658 36.6606 111.282C36.119 111.523 35.721 112.004 35.8783 112.625C35.9107 112.745 35.9339 112.865 35.9663 112.986C35.8783 113.407 35.832 113.846 35.8644 114.323C35.9524 115.591 36.4152 116.725 37.1141 117.721C41.6409 137.475 42.7934 157.568 44.4041 177.67C44.256 178.049 44.2838 178.471 44.5014 178.808C45.1818 187.228 45.9547 195.643 47.1072 204.043C47.1257 204.187 47.172 204.312 47.2276 204.432C47.2229 204.816 47.385 205.214 47.783 205.543C56.9522 213.129 78.1557 215.3 83.8211 202.456C83.9229 202.285 83.9877 202.076 83.9969 201.826C84.5894 185.682 85.5336 169.547 86.5797 153.411C87.1444 144.64 87.7415 135.869 88.4867 127.112C88.7412 124.066 89.0328 121.025 89.3615 117.989C89.4679 116.989 89.7318 115.915 89.6855 114.911C89.6531 114.212 89.8012 113.995 89.6762 114.055C89.6947 113.93 89.704 113.805 89.7086 113.68C89.7734 113.448 89.7641 113.212 89.6762 113.009C89.3985 111.171 87.7183 109.648 85.7836 108.755C77.6188 104.992 66.2834 104.362 57.0818 104.802C54.8832 100.701 52.7495 96.5819 50.6712 92.4347C51.0971 92.4069 51.4998 92.3791 51.8654 92.356C66.2232 91.4164 88.0655 94.2954 98.2668 82.2148C98.3779 82.3351 98.4798 82.4601 98.5908 82.5804C97.8688 90.2731 97.2671 97.9704 96.707 105.672C96.4571 106.057 96.3784 106.533 96.6098 106.959C95.7304 119.123 94.9296 131.301 93.8836 143.455C92.0183 165.113 89.9262 186.765 87.5008 208.385C87.4915 208.468 87.4962 208.542 87.5008 208.616C82.863 213.713 75.4526 215.768 68.5098 216.536ZM50.3565 100.507C50.3611 99.9237 50.3658 99.3174 50.3611 98.711C53.1984 104.126 56.244 109.435 59.5951 114.559C58.0816 115.286 55.6747 115.189 53.3188 114.777C51.8562 112.129 50.4074 109.482 48.9957 106.82C50.2315 105.057 50.3472 102.456 50.3565 100.507ZM46.5009 109.662C46.7138 109.625 46.8943 109.56 47.0563 109.477C47.908 110.972 48.7874 112.444 49.6807 113.916C48.4588 113.555 47.4405 113.18 46.8434 112.911C45.2882 112.203 43.8719 114.596 45.3484 115.42C48.3616 117.11 57.6974 119.179 61.8492 116.6C62.2288 116.494 62.5713 116.226 62.7333 115.892C63.4322 115.175 63.858 114.221 63.8812 112.981C63.909 111.449 61.8215 111.102 61.2198 112.365C60.2987 110.713 59.3868 109.056 58.4889 107.399C65.0152 107.714 71.597 107.982 77.9659 109.301C79.6924 109.658 87.3156 110.972 86.7324 113.666C86.1261 116.457 80.3404 117.489 77.9798 117.984C69.3846 119.785 60.3172 120.484 51.5692 120.243C47.9404 120.141 43.9413 119.877 41.104 117.572C40.6828 117.23 40.3403 116.897 40.0533 116.573C39.771 115.61 39.4747 114.652 39.16 113.698C39.7987 111.565 43.4229 110.148 46.5009 109.662ZM52.1431 175.175C52.2357 172.315 49.9584 169.922 46.9406 169.477C46.6629 165.261 46.3806 161.044 46.0473 156.832C45.1077 144.974 44.1218 132.754 41.266 121.086C42.5944 121.747 44.0339 122.22 45.4178 122.497C50.0464 123.409 55.0175 123.145 59.7432 122.918C65.964 122.622 72.3144 122.136 78.4149 120.743C80.6551 120.234 83.5989 119.628 85.9363 118.401C85.7743 120.271 85.7836 122.016 85.7188 122.687C84.8717 131.555 84.2793 140.447 83.6961 149.329C82.5575 166.728 81.5253 184.122 80.8958 201.53C80.8912 201.66 80.9051 201.775 80.9282 201.891C74.7676 212.708 58.9425 208.45 50.1019 203.483C48.9124 195.499 48.1996 187.455 47.621 179.396C49.9075 179.017 52.0691 177.494 52.1431 175.175ZM47.4127 176.503C47.3201 175.156 47.2276 173.805 47.1396 172.453C48.2227 172.939 49.2688 173.671 49.1299 174.897C49.0142 175.925 48.2875 176.332 47.4127 176.503Z" fill="#FF5B0D"/>
<path id="Vector_2" d="M74.4667 147.228C73.8927 144.525 71.0971 143.511 68.3384 144.201C65.8344 144.83 63.9413 147.121 64.6818 149.551C65.4409 152.028 67.4914 153.699 70.2547 154.092C71.1109 154.212 71.6617 153.726 71.8469 153.125C73.6243 151.792 74.911 149.334 74.4667 147.228ZM70.3843 151.218C69.1947 151 67.9311 150.236 67.658 149.079C67.3711 147.848 68.0561 146.904 69.5048 146.788C72.518 146.547 71.6432 149.602 70.3843 151.218Z" fill="#FF5B0D"/>
<path id="Vector_3" d="M59.4095 161.35C59.5947 160.674 59.5206 159.841 59.1457 159.234C59.03 159.045 58.8726 158.855 58.7152 158.656C59.1596 157.938 58.8541 156.957 57.9654 156.642C57.3683 156.434 56.7018 156.615 56.1325 156.832C55.0772 157.235 53.7951 157.818 53.3229 158.85C53.036 159.48 53.3229 160.091 53.8275 160.498C54.2903 160.878 54.7393 161.456 55.304 161.831C56.0121 162.299 56.924 162.414 57.7571 162.585C58.6134 162.757 59.2336 162.012 59.4095 161.35Z" fill="#FF5B0D"/>
<path id="Vector_4" d="M54.9519 132.305C54.1511 132.227 53.6605 132.787 53.6281 133.388C51.6702 134.365 50.0919 135.929 50.1521 138.123C50.1983 139.794 51.4805 141.613 53.2486 142.113C55.8359 142.849 57.6735 141.109 58.6316 138.961C59.9276 136.05 58.6131 132.671 54.9519 132.305ZM55.262 138.827C54.7575 139.489 54.6834 139.683 54.1187 139.304C52.0822 137.947 54.0956 136.267 55.8359 135.582C56.0303 135.791 56.1738 136.022 56.2062 136.295C56.3127 137.202 55.8174 138.091 55.262 138.827Z" fill="#FF5B0D"/>
<path id="Vector_5" d="M67.8289 179.183C65.9173 181.206 66.1858 185.302 68.7824 186.677C70.0877 187.367 71.5734 187.603 73.0777 187.283C74.3784 187.01 76.29 186.482 77.0166 185.348C77.3221 184.872 77.3175 184.312 77.0814 183.881C77.4425 181.859 76.8222 179.822 74.7533 178.642C72.6195 177.424 69.6526 177.253 67.8289 179.183ZM70.0923 180.863C70.9949 180.155 72.3372 180.359 73.212 180.974C74.1377 181.632 74.4894 182.622 74.4015 183.641C73.2212 184.159 72.027 184.89 70.731 184.386C69.5276 183.914 68.9907 181.729 70.0923 180.863Z" fill="#FF5B0D"/>
<path id="Vector_6" d="M71.1759 169.015C72.2313 170.01 74.0318 170.88 75.5777 170.681C76.0545 170.621 76.3831 170.334 76.5636 169.982C76.6099 169.954 76.6562 169.936 76.7025 169.899C77.5587 169.241 78.0309 168.024 78.2669 167.047C78.4382 166.339 78.4104 165.65 78.1929 164.96C77.7855 163.687 76.3738 163.215 75.0593 163.27C73.3097 163.34 71.1945 164.548 70.5789 166.126C70.1854 167.126 70.3752 168.26 71.1759 169.015ZM73.518 166.691C73.5273 166.682 73.5365 166.672 73.5458 166.663C73.6152 166.608 73.6846 166.552 73.7494 166.501C73.8235 166.45 73.8929 166.399 73.9716 166.353C73.9716 166.348 73.9716 166.353 73.9762 166.348C74.129 166.265 74.291 166.186 74.453 166.117C74.5363 166.085 74.6196 166.052 74.7029 166.02C74.8649 165.978 75.0223 165.941 75.1843 165.923C75.2213 165.918 75.2584 165.918 75.2954 165.913C75.3046 165.913 75.3139 165.913 75.3278 165.918C75.3879 165.918 75.4481 165.927 75.5083 165.937C75.5129 165.941 75.5129 165.946 75.5175 165.955C75.5268 166.02 75.5361 166.089 75.5407 166.159C75.5407 166.196 75.5361 166.237 75.5361 166.265C75.5268 166.381 75.5083 166.497 75.4852 166.608C75.4666 166.7 75.3833 167.038 75.4342 166.858C75.3972 166.983 75.3555 167.131 75.3463 167.168C75.3417 167.182 75.3324 167.2 75.3324 167.214C75.2815 167.371 75.2259 167.524 75.175 167.686C75.1426 167.783 75.1102 167.871 75.0778 167.968C74.7862 167.885 74.4946 167.797 74.1984 167.686C74.0688 167.635 73.9346 167.584 73.805 167.529C73.7957 167.519 73.7911 167.519 73.7726 167.506C73.6522 167.432 73.5365 167.353 73.4254 167.27C73.3791 167.223 73.3143 167.163 73.2634 167.103C73.2588 167.098 73.2588 167.089 73.2542 167.08C73.2542 167.075 73.2542 167.075 73.2542 167.071C73.2681 167.038 73.2773 167.001 73.2912 166.969C73.3606 166.876 73.4347 166.779 73.518 166.691Z" fill="#FF5B0D"/>
<path id="Vector_7" d="M55.8095 195.818C55.8327 196.272 56.0409 196.707 56.4436 196.98C56.9019 197.285 57.4203 197.276 57.934 197.105C58.0636 197.059 58.1238 197.036 58.4478 196.985C59.4059 196.832 60.4335 196.924 61.3731 196.674C62.5904 196.355 63.5716 195.628 63.6457 194.369C63.7336 192.958 62.9607 191.042 61.424 190.648C60.9935 190.195 60.4659 189.833 59.8503 189.69C58.7348 189.435 57.5915 189.843 56.9852 190.796C56.0595 192.254 55.7169 194.147 55.8095 195.818ZM59.2717 192.463C59.6512 192.828 60.0215 193.203 60.3964 193.578C60.4057 193.587 60.4196 193.592 60.4288 193.601C60.4659 193.712 60.5029 193.828 60.526 193.939C59.9567 194.036 59.392 194.087 58.832 194.157C58.8597 193.948 58.8829 193.74 58.9246 193.532C58.9523 193.397 58.9847 193.268 59.0171 193.138C59.031 193.097 59.1051 192.856 59.1189 192.824C59.1606 192.699 59.2162 192.583 59.2717 192.463Z" fill="#FF5B0D"/>
<path id="Vector_8" d="M71.926 140.003C75.5177 140.831 80.5906 138.48 80.7989 134.684C80.9563 131.847 78.841 128.01 75.6057 127.279C75.3187 126.992 74.9068 126.802 74.3837 126.825C67.1539 127.117 64.5249 138.295 71.926 140.003ZM74.356 129.63C76.0454 130.685 77.9894 131.875 77.8228 134.055C77.6469 136.258 74.7124 138.096 72.4258 137.17C70.7596 136.494 70.3337 134.527 70.667 132.981C71.0836 131.07 72.4166 129.968 74.356 129.63Z" fill="#FF5B0D"/>
</g>
</svg>
