<svg width="173" height="300" viewBox="0 0 173 300" fill="none" xmlns="http://www.w3.org/2000/svg">
<path d="M0.385727 278.36C1.62123 252.235 10.4867 226.582 18.5882 201.928C21.5025 193.044 24.5865 184.207 27.8026 175.417C27.812 175.153 27.812 174.898 27.8215 174.634C28.1138 174.049 28.4156 173.474 28.7174 172.899C34.8761 156.29 41.5818 139.889 48.9382 123.771C58.7468 102.258 68.7346 80.566 80.4294 60.0057C89.8042 43.5292 100.971 27.8071 115.25 15.3012C117.617 13.264 119.494 11.2929 121.89 11.0477C124.436 10.7836 126.03 12.9245 126.652 15.1126C126.7 15.2823 126.709 15.4332 126.7 15.5841C126.728 15.5936 126.766 15.603 126.794 15.603C127.746 20.9506 128.378 26.3453 128.784 31.7777C134.075 23.1292 141.941 11.6418 148.458 3.59692C148.476 3.32341 148.571 3.04046 148.778 2.77639C150.995 -0.0907388 154.277 -1.2225 156.955 1.74837C159.002 4.02133 160.096 7.35058 160.709 10.3497C166.83 30.5234 168.961 51.9891 170.093 72.9361C171.508 99.0609 170.631 125.252 169.971 151.386C168.999 189.969 161.878 229.213 147.052 265.099C155.786 264.213 164.236 266.043 172.262 269.655C173.922 270.4 172.489 272.843 170.838 272.098C163.029 268.589 154.531 266.807 145.987 268.051C145.93 268.061 145.873 268.061 145.817 268.061C144.015 272.277 142.101 276.445 140.083 280.557C142.563 279.548 144.893 278.247 146.986 276.53C148.382 275.389 150.4 277.37 148.995 278.53C139.338 286.452 125.813 286.584 113.939 286.131C100.546 285.622 86.8993 282.83 73.4974 284.292C71.6866 284.49 71.696 281.661 73.488 281.463C74.6952 281.331 75.9118 281.246 77.119 281.18C76.7418 276.766 76.4871 270.221 76.3645 264.807C69.5834 276.427 61.9629 287.537 53.4653 297.949C53.3898 298.373 53.1446 298.741 52.6919 298.901C52.6825 298.92 52.6636 298.939 52.6542 298.958C52.0411 299.703 51.1546 299.543 50.617 299.024C42.9399 298.996 35.3948 296.289 28.2365 293.78C18.4939 290.366 9.93965 285.292 0.781815 280.642C-0.208466 280.133 -0.161301 279.001 0.385727 278.36ZM30.4056 196.609C30.5 213.369 31.3865 230.119 32.4051 246.84C32.8766 254.574 33.1973 262.327 34.131 270.023C35.0836 277.879 36.3662 285.716 36.4228 293.639C38.3374 294.242 40.2802 294.78 42.2231 295.214C43.2323 294.129 44.2225 293.035 45.194 291.913C45.1091 291.724 45.0714 291.507 45.0714 291.262C45.3543 282.066 43.6755 272.918 42.5721 263.817C41.6384 256.111 41.3931 248.302 40.9216 240.559C39.903 223.875 39.1013 207.172 38.941 190.46C38.8184 177.624 39.0165 164.514 40.0539 151.48C36.7624 159.572 33.6312 167.721 30.6226 175.926C30.4245 182.849 30.3679 189.762 30.4056 196.609ZM46.1654 136.965C45.3732 138.786 44.5809 140.615 43.8076 142.445C41.9873 158.535 41.6478 174.87 41.761 190.79C41.8741 207.71 42.7796 224.63 43.817 241.512C44.298 249.321 44.6281 257.149 45.5712 264.92C46.5332 272.824 47.8347 280.718 47.9196 288.687C49.6739 286.537 51.3621 284.33 52.9843 282.076C52.9748 272.795 51.3149 263.562 50.1549 254.367C49.1268 246.199 48.7873 237.918 48.2214 229.713C46.9954 212.02 45.9862 194.317 45.6278 176.596C45.3637 163.543 45.392 150.226 46.1654 136.965ZM51.513 124.969C50.8528 126.402 50.2209 127.855 49.5701 129.288C48.2497 145.18 48.1648 161.26 48.4478 176.964C48.7684 194.902 49.8813 212.831 51.1169 230.741C51.6922 239.012 52.1166 247.321 53.1635 255.555C54.116 263.091 55.3421 270.617 55.7099 278.2C63.6888 266.429 70.1776 253.593 76.0439 240.738C76.7135 239.276 77.3454 237.796 77.9962 236.324C77.8453 236.079 77.7509 235.777 77.7792 235.428C78.4583 226.28 77.1756 217.103 76.4588 207.993C75.8552 200.287 75.9496 192.497 75.8081 184.773C75.5063 168.117 75.4214 151.452 75.9779 134.806C76.8927 107.587 79.2977 79.1985 88.182 53.168C85.9845 56.3747 83.9662 59.5247 82.2685 62.505C70.8189 82.622 61.1707 103.937 51.513 124.969ZM88.6064 210.124C88.7007 203.041 87.9651 195.94 87.5501 188.875C87.1068 181.208 87.3615 173.474 87.3803 165.788C87.4181 149.236 87.6727 132.684 88.5781 116.15C90.0871 88.5166 93.1617 59.6945 103.102 33.5508C100.32 36.9272 97.3775 40.6243 94.4916 44.4252C82.5987 72.8323 79.8824 104.757 78.779 135.23C78.1659 152.084 78.3451 168.966 78.6563 185.82C78.7978 193.61 78.7978 201.429 79.4014 209.2C79.9484 216.104 80.7407 223.007 80.769 229.921C83.5323 223.394 86.1354 216.783 88.6064 210.124ZM123.955 15.952C123.946 15.9237 123.936 15.9048 123.927 15.8765C123.578 14.6221 123.031 13.679 121.607 13.9242C121.286 13.9808 119.164 15.6219 116.929 17.7533C116.174 18.4701 113.156 21.7428 109.091 26.4585C96.5004 54.5167 93.1051 86.3003 91.3698 116.669C90.4172 133.4 90.2475 150.169 90.2003 166.929C90.1814 174.672 90.0211 182.434 90.4644 190.168C90.7096 194.393 91.0585 198.618 91.2566 202.834C95.0291 192.195 98.4904 181.453 101.688 170.654C115.514 124.044 123.446 75.8032 125.521 27.2601C125.125 23.4782 124.615 19.6962 123.955 15.952ZM121.739 120.31C131.642 123.705 135.565 102.013 124.992 102.937C124.823 102.956 124.672 102.937 124.53 102.899C123.682 108.709 122.738 114.509 121.739 120.31ZM132.528 67.8054C134.311 69.4559 136.452 70.6348 138.63 71.6817C141.469 73.0398 149.665 74.1999 146.732 68.343C144.421 63.7311 136.508 60.9206 131.764 60.1095C130.5 59.8925 130.463 58.11 131.425 57.5253C135.876 54.7996 140.337 50.7253 142.733 46.0568C143.487 44.5855 143.629 42.935 142.525 41.6052C140.469 39.1153 137.442 41.1242 135.669 42.6804C133.019 45.0193 130.717 48.7258 130.029 52.206C129.925 52.7342 129.614 53.036 129.237 53.1586C128.954 64.1744 127.973 75.1902 126.756 86.0268C126.586 87.5546 126.379 89.0825 126.19 90.6104C134.914 92.0911 133.311 74.5205 130.312 69.5313C129.454 68.1167 131.368 66.7302 132.528 67.8054ZM160.105 25.4682C148.514 29.1275 150.042 49.4521 162.425 49.7444C161.888 41.6146 161.181 33.4848 160.313 25.3833C160.247 25.4116 160.181 25.4493 160.105 25.4682ZM156.785 103.418C155.739 101.522 154.692 99.655 153.494 97.8442C152.768 96.7408 151.938 95.7976 151.004 94.8733C148.948 92.8173 147.09 95.1186 147.75 97.3255C149.024 101.57 152.985 105.087 155.861 108.313C156.503 109.03 156.361 110.492 155.239 110.68C150.514 111.482 138.64 114.905 140.177 121.394C141.535 127.119 154.05 121.262 156.682 119.414C157.908 118.546 159.247 120.178 158.625 121.347C155.965 126.27 153.607 131.25 153.136 136.909C152.89 139.842 153.456 144.086 156.069 145.963C158.813 147.934 160.737 141.719 161.105 140.37C161.19 140.049 161.35 139.814 161.558 139.653C163.35 118.867 164.019 97.9951 163.604 77.1519C156.682 81.6789 157.153 95.6656 159.36 102.334C159.879 103.861 157.549 104.814 156.785 103.418ZM167.188 149.839C167.82 124.761 168.537 99.6739 167.358 74.6054C166.915 65.1458 166.236 55.573 165.076 46.0662C168.028 84.0933 167.707 122.196 163.161 160.232C160.237 184.688 155.984 210.605 149.797 234.457C145.402 251.405 138.998 267.344 130.774 282.953C132.641 282.698 134.49 282.34 136.282 281.849C156.814 241.191 166.047 195.147 167.188 149.839ZM148.476 207.257C144.025 206.88 136.668 205.842 133.028 208.964C129.425 212.058 139.762 213.586 140.762 213.661C143.12 213.831 145.506 213.727 147.854 213.538C149.052 213.444 149.778 215.17 148.863 215.953C146.685 217.801 144.638 219.725 142.771 221.895C141.535 223.328 140.592 224.96 139.913 226.714C138.96 229.176 141.384 237.07 145.1 231.222C145.468 230.647 146.043 230.486 146.571 230.59C149.061 220.961 151.212 211.237 153.079 201.447C153.051 201.344 153.032 201.23 153.022 201.098C152.9 198.825 152.023 196.59 151.108 194.534C150.382 192.921 146.213 185.989 144.676 190.715C143.299 194.959 147.713 201.542 149.693 205.107C150.174 205.993 149.589 207.351 148.476 207.257ZM128.407 283.217H127.426C129.416 279.539 131.227 275.776 132.915 271.947C132.811 271.692 132.802 271.39 132.953 271.041C134.782 266.599 136.216 261.798 136.452 256.979C136.565 254.612 135.65 251.952 133.273 250.99C131.689 250.349 130.566 253.518 130.18 254.508C127.699 260.884 126.766 269.013 126.775 275.842C126.775 277.662 123.946 277.671 123.946 275.851C123.936 270.843 117.344 258.809 111.364 260.186C104.121 261.846 115.891 276.719 118.343 278.935C119.626 280.095 118.004 281.765 116.636 281.161C110.572 278.492 100.848 276.464 95.8119 281.831C100.575 282.274 105.328 282.783 110.034 283.085C115.769 283.453 122.182 283.811 128.407 283.217ZM92.4638 281.538C93.3975 280.152 94.5104 279.039 95.7648 278.19C95.7459 278.134 95.7176 278.077 95.6988 278.002C93.9351 271.117 86.126 266.656 79.2505 267.957C79.392 272.663 79.6183 277.407 79.939 281.048C84.0982 280.972 88.2857 281.199 92.4638 281.538ZM79.1751 265.118C87.2106 263.911 96.01 268.891 98.3018 276.841C102.603 275.144 107.856 275.521 112.609 276.794C107.809 270.692 102.404 260.837 109.874 257.762C115.627 255.395 121.465 261.619 124.54 267.957C124.813 265.892 125.153 263.826 125.473 261.827C126.105 257.894 126.907 251.452 130.5 248.915C133.603 246.727 137.772 249.821 138.725 252.999C138.979 253.838 139.13 254.706 139.224 255.583C141.544 248.764 143.572 241.851 145.43 234.957C142.374 237.145 138.715 235.542 137.008 231.213C134.961 226.007 139.686 220.461 143.846 216.604C138.083 216.754 129.718 216.085 129.755 210.407C129.802 203.645 139.932 203.777 145.93 204.22C142.94 198.778 138.526 189.583 144.855 186.565C149.099 184.546 152.457 189.819 154.296 194.798C156.314 183.424 157.993 171.993 159.389 160.553C159.945 155.979 160.435 151.386 160.888 146.802C158.842 149.132 156.05 150.141 153.088 147.076C147.401 141.2 150.589 131.373 154.003 124.186C148.543 126.723 141.045 128.27 137.895 123.196C133.207 115.66 145.411 110.284 152.145 108.483C148.392 104.531 142.44 98.1272 145.006 93.4964C147.948 88.1865 152.079 91.6007 155.21 95.7127C154.513 87.4415 156.257 77.3971 163.189 74.1244C163.303 74.0678 163.416 74.0395 163.529 74.0112C163.35 66.8623 163.029 59.7133 162.586 52.5738C146.779 52.7059 144.742 27.3544 159.332 22.752C159.577 22.6765 159.804 22.6671 160.002 22.7048C159.719 20.1678 159.417 17.6307 159.106 15.1031C158.832 14.1223 158.568 13.1509 158.276 12.1794C158.191 12.0474 158.115 11.887 158.087 11.689C158.049 11.5098 158.002 11.3306 157.964 11.142C157.455 9.47264 156.918 7.82215 156.361 6.17167C156.163 5.74726 155.965 5.33228 155.739 4.92673C155.267 4.07791 154.597 3.05933 153.626 2.74809C153.334 2.65378 153.041 2.69151 152.758 2.81412C146.062 10.7553 134.348 28.2976 129.086 36.9744C129.237 40.2188 129.312 43.4632 129.312 46.717C133.028 40.3508 140.762 32.7963 145.204 40.464C148.816 46.6981 141.252 54.0262 135.603 58.11C142.186 60.0057 151.249 64.6837 149.853 71.6628C148.448 78.6703 139.988 75.8315 134.471 72.6154C136.687 81.3771 135.405 95.4204 125.813 93.4869C125.53 95.7033 125.228 97.9102 124.908 100.117C124.926 100.117 124.945 100.108 124.964 100.108C139.724 98.8251 134.877 127.468 121.229 123.12C119.947 130.411 118.579 137.692 117.183 144.963C120.946 140.464 127.096 135.438 130.595 141.653C133.698 147.142 126.077 154.055 121.484 158.214C126.982 159.629 133.971 163.383 133.471 169.126C133.188 172.342 130.048 174.031 127.171 174.172C124.681 174.295 122.106 173.106 119.843 171.607C121.154 176.709 121.607 182.292 117.655 186.15C114.222 189.498 110.902 187.404 108.921 184.235C106.856 192.299 104.498 200.316 101.839 208.238C106.941 206.399 114.09 205.522 116.004 211.746C117.787 217.556 111.289 220.301 106.243 221.178C111.44 226.459 119.211 234.24 115.608 241.248C113.807 244.756 109.289 244.775 106.63 242.379C103.668 239.71 101.942 236.202 99.9051 232.882C98.3301 239.89 94.2746 250.189 86.5221 246.18C86.4655 246.152 86.4183 246.114 86.3617 246.076C84.0605 250.792 81.6272 255.451 79.0808 260.035C79.109 261.638 79.1373 263.355 79.1751 265.118ZM118.268 166.863C119.683 168.06 121.182 169.06 122.795 169.956C125.351 171.38 132.896 172.173 130.236 166.853C128.425 163.241 122.267 160.874 118.513 160.468C117.353 160.346 116.551 158.997 117.504 158.054C120.852 154.772 124.417 151.725 126.973 147.736C127.784 146.482 128.482 144.944 128.265 143.407C127.794 140.068 123.87 142.407 122.54 143.454C120.418 145.133 118.626 147.415 117.193 149.698C116.929 150.122 116.542 150.32 116.155 150.348C115.316 154.677 114.467 159.016 113.628 163.345C112.562 168.843 111.355 174.342 110.025 179.812C110.591 183.075 112.92 186.791 116.617 183.188C118.117 181.726 117.966 179.218 117.91 177.322C117.806 174.247 116.863 171.135 115.91 168.221C115.439 166.797 117.259 166.004 118.268 166.863ZM103.225 218.669C106.517 218.575 114.165 217.528 113.288 212.501C112.373 207.314 103.763 210.332 101.103 211.558C100.952 211.624 100.811 211.662 100.66 211.68C96.8777 222.545 92.5204 233.212 87.5784 243.587C87.701 243.615 87.833 243.653 87.9651 243.719C94.2841 246.982 97.2361 232.92 97.802 228.827C97.9906 227.45 99.7542 227.657 100.386 228.478C102.188 230.854 103.508 233.589 105.111 236.098C106.186 237.786 107.412 239.427 109.035 240.635C111.449 242.445 113.637 240.031 113.713 237.635C113.901 231.42 106.092 225.205 102.244 221.065C101.386 220.178 101.971 218.707 103.225 218.669ZM51.2489 296.176C78.7695 262.468 96.7739 221.678 107.148 179.52C107.12 179.303 107.092 179.095 107.073 178.888C107.035 178.369 107.243 178.001 107.563 177.775C108.874 172.323 110.072 166.863 111.128 161.383C115.571 138.474 120.069 115.575 123.087 92.4306C122.446 91.7138 122.654 90.4972 123.389 90.1105C123.512 89.1485 123.644 88.1865 123.766 87.2245C124.917 77.6706 125.841 67.9658 126.256 58.2326C122.776 96.8634 115.863 135.645 105.017 172.606C98.0849 196.232 89.8231 219.537 79.7692 242.03C73.205 256.724 65.4336 270.683 55.8137 283.443C55.8137 283.575 55.8137 283.698 55.8137 283.83C55.7948 284.726 55.1912 285.132 54.5499 285.113C51.711 288.782 48.7024 292.347 45.5335 295.798C47.4292 296.081 49.3343 296.223 51.2489 296.176ZM26.9538 290.319C29.1324 291.102 31.3488 291.922 33.6123 292.696C33.4803 284.726 32.1127 276.804 31.1507 268.91C30.2265 261.28 29.9907 253.546 29.5285 245.878C28.5288 229.355 27.7366 212.812 27.5951 196.26C27.5574 192.28 27.5668 188.281 27.6234 184.264C25.5957 189.969 23.6245 195.685 21.7194 201.429C13.4481 226.28 4.46004 252.32 3.19624 278.699C11.0714 282.774 18.5504 287.31 26.9538 290.319Z" fill="#FF5B0D"/>
</svg>
