<svg width="547" height="389" viewBox="0 0 547 389" fill="none" xmlns="http://www.w3.org/2000/svg">
<path d="M345.6 49.3815L321.71 88.6321C301.938 77.375 279.064 70.9467 254.693 70.9467C190.976 70.9467 137.504 114.904 122.843 174.197L77.8359 165.128C85.4377 132.788 101.657 103.769 123.935 80.6427L120.245 50.7589L147.52 60.0187C177.568 37.9943 214.621 25 254.693 25C287.812 25 318.861 33.8771 345.6 49.3815Z" fill="#1742DB"/>
<path d="M419.67 130.637L377.933 149.731C366.985 126.122 349.466 106.187 327.738 92.2744L351.621 53.0391C363.295 60.4239 374.074 69.1097 383.731 78.8822L409.806 75.1324L400.639 98.5879C408.026 108.536 414.413 119.273 419.67 130.637Z" fill="#FF5B0D"/>
<path d="M459 202.374L436.149 216.463C434.689 245.145 426.591 272.082 413.366 295.744L373.814 272.427C384.465 253.019 390.523 230.719 390.523 207.004C390.523 189.043 387.047 171.893 380.736 156.198L422.504 137.089C429.311 153.466 433.796 171.044 435.553 189.433L459 202.374Z" fill="#F5834F"/>
<path d="M414.558 336.212L385.351 333.472C369.971 349.413 351.712 362.545 331.413 372.027L311.725 330.511C335.951 319.269 356.311 301.094 370.269 278.519L409.806 301.829C407.797 305.127 405.681 308.349 403.465 311.502L414.558 336.212Z" fill="#F9874E" fill-opacity="0.6"/>
<path d="M324.973 374.881C303.352 383.98 279.607 389 254.693 389C207.318 389 164.175 370.833 131.835 341.079L105.661 346.857L113.69 321.787C88.2493 290.472 73 250.525 73 207.004C73 195.035 74.1536 183.342 76.3616 172.023L121.33 181.084C119.718 189.479 118.87 198.142 118.87 207.004C118.87 282.138 179.684 343.053 254.693 343.053C272.563 343.053 289.63 339.594 305.262 333.311L324.973 374.881Z" fill="#0B2465"/>
<path d="M172.274 193.367V186.342H148.789V219.126H155.841V207.417H169.929V200.392H155.841V193.367H172.282H172.274Z" fill="#0A6DE6"/>
<path d="M181.511 186.342H174.467V219.126H181.511V186.342Z" fill="#0A6DE6"/>
<path d="M207.929 209.797C206.5 211.144 204.712 212.047 202.779 212.391C200.847 212.736 198.853 212.514 197.042 211.741C195.231 210.968 193.696 209.69 192.611 208.06C191.526 206.43 190.938 204.517 190.93 202.558C190.922 200.598 191.488 198.678 192.557 197.04C193.627 195.395 195.162 194.101 196.958 193.321C198.761 192.532 200.747 192.288 202.688 192.617C204.628 192.946 206.424 193.833 207.86 195.165C208.693 192.976 209.9 190.956 211.428 189.181C208.914 187.229 205.904 186.012 202.734 185.691C199.563 185.362 196.362 185.936 193.505 187.336C190.647 188.737 188.233 190.91 186.56 193.612C184.879 196.313 184.001 199.428 184.016 202.611C184.031 205.787 184.948 208.894 186.652 211.58C188.355 214.266 190.785 216.417 193.657 217.786C196.53 219.156 199.739 219.7 202.902 219.34C206.065 218.98 209.067 217.74 211.565 215.758C210.022 213.998 208.792 211.986 207.929 209.805V209.797Z" fill="#0A6DE6"/>
<path d="M226.839 185.614C223.485 185.614 220.199 186.609 217.411 188.469C214.622 190.328 212.445 192.968 211.161 196.06C209.878 199.152 209.542 202.557 210.199 205.84C210.856 209.123 212.468 212.138 214.844 214.503C217.22 216.868 220.245 218.483 223.538 219.133C226.831 219.783 230.246 219.447 233.348 218.169C236.45 216.891 239.101 214.717 240.965 211.932C242.829 209.146 243.822 205.879 243.822 202.527C243.822 200.307 243.387 198.103 242.531 196.053C241.675 194.002 240.43 192.134 238.849 190.566C237.275 188.997 235.403 187.749 233.34 186.9C231.277 186.05 229.077 185.614 226.846 185.614H226.839ZM226.839 212.582C224.845 212.582 222.896 211.993 221.238 210.891C219.581 209.789 218.289 208.22 217.525 206.384C216.761 204.547 216.563 202.527 216.952 200.575C217.342 198.624 218.297 196.833 219.71 195.433C221.116 194.025 222.919 193.068 224.867 192.678C226.823 192.287 228.848 192.486 230.689 193.252C232.53 194.009 234.104 195.303 235.212 196.956C236.32 198.609 236.908 200.552 236.908 202.542C236.908 205.205 235.846 207.761 233.959 209.644C232.072 211.526 229.505 212.59 226.831 212.59L226.839 212.582Z" fill="#0A6DE6"/>
<path d="M239.338 216.921C239.338 216.707 239.368 216.493 239.422 216.278C239.475 216.079 239.552 215.888 239.651 215.704C239.75 215.528 239.865 215.368 240.003 215.23C240.14 215.092 240.293 214.97 240.461 214.863C240.721 214.709 241.011 214.61 241.309 214.564C241.607 214.526 241.913 214.549 242.203 214.625C242.394 214.679 242.57 214.755 242.738 214.855C242.906 214.954 243.059 215.077 243.196 215.222C243.334 215.368 243.456 215.528 243.547 215.697C243.647 215.88 243.723 216.072 243.777 216.271C243.884 216.692 243.884 217.135 243.777 217.556C243.723 217.755 243.647 217.947 243.547 218.13C243.456 218.306 243.334 218.467 243.196 218.612C243.059 218.75 242.906 218.88 242.738 218.98C242.57 219.079 242.386 219.156 242.203 219.209C241.813 219.324 241.393 219.324 241.003 219.209C240.812 219.156 240.629 219.079 240.461 218.98C240.293 218.873 240.14 218.75 240.003 218.612C239.865 218.467 239.75 218.306 239.651 218.13C239.552 217.947 239.475 217.755 239.422 217.556C239.368 217.35 239.338 217.128 239.338 216.913V216.921ZM239.705 216.921C239.705 217.189 239.758 217.449 239.857 217.694C239.949 217.931 240.079 218.146 240.247 218.329C240.415 218.505 240.621 218.651 240.851 218.75C241.08 218.85 241.332 218.903 241.584 218.903C241.836 218.903 242.088 218.85 242.317 218.75C242.539 218.651 242.745 218.505 242.921 218.329C243.089 218.146 243.219 217.924 243.311 217.694C243.41 217.449 243.463 217.181 243.463 216.921C243.463 216.653 243.41 216.393 243.311 216.148C243.219 215.911 243.089 215.697 242.921 215.513C242.753 215.337 242.547 215.192 242.317 215.092C242.088 214.993 241.836 214.939 241.584 214.939C241.332 214.939 241.08 214.993 240.851 215.092C240.621 215.192 240.415 215.329 240.247 215.513C240.079 215.697 239.949 215.911 239.857 216.148C239.758 216.393 239.705 216.661 239.705 216.921ZM241.133 217.158V218.23H240.683V215.521H241.561C241.706 215.521 241.844 215.536 241.989 215.574C242.104 215.605 242.218 215.658 242.31 215.727C242.402 215.796 242.47 215.88 242.516 215.98C242.562 216.095 242.585 216.217 242.585 216.339C242.585 216.462 242.554 216.584 242.486 216.692C242.409 216.799 242.302 216.883 242.18 216.936C242.249 216.967 242.31 217.005 242.363 217.051C242.409 217.097 242.455 217.143 242.486 217.197C242.516 217.258 242.539 217.319 242.554 217.38C242.57 217.449 242.577 217.518 242.577 217.587V217.763C242.577 217.839 242.577 217.916 242.577 217.985C242.577 218.046 242.6 218.107 242.623 218.161V218.214H242.165C242.165 218.214 242.142 218.146 242.134 218.107V217.587C242.142 217.464 242.104 217.342 242.027 217.25C241.928 217.166 241.798 217.128 241.668 217.143L241.141 217.158H241.133ZM241.133 216.753H241.63C241.699 216.753 241.76 216.745 241.821 216.722C241.882 216.707 241.935 216.684 241.981 216.646C242.027 216.615 242.065 216.577 242.088 216.523C242.119 216.47 242.134 216.416 242.134 216.355C242.134 216.278 242.119 216.202 242.088 216.133C242.073 216.079 242.035 216.033 241.989 216.003C241.935 215.965 241.874 215.942 241.813 215.934C241.722 215.919 241.63 215.911 241.538 215.911H241.11L241.126 216.745L241.133 216.753Z" fill="#0A6DE6"/>
<path d="M246.832 214.198L247.909 213.119C250.254 215.858 253.677 217.626 257.589 217.626C262.769 217.626 266.1 214.787 266.1 210.67C266.1 206.553 263.365 204.992 260.133 203.522L255.144 201.272C252.409 200.048 248.589 198.135 248.589 193.336C248.589 188.538 252.501 185.6 257.68 185.6C261.592 185.6 264.625 187.413 266.482 189.418L265.504 190.497C263.647 188.439 261.004 187.069 257.68 187.069C253.18 187.069 250.147 189.518 250.147 193.237C250.147 197.255 253.524 198.77 255.816 199.803L260.805 202.053C264.373 203.668 267.651 205.581 267.651 210.578C267.651 215.575 263.64 219.103 257.573 219.103C252.783 219.103 249.261 217.045 246.816 214.205L246.832 214.198Z" fill="#0A6DE6"/>
<path d="M272.457 202.244C272.457 192.058 277.835 185.592 286.048 185.592C289.761 185.592 292.603 187.451 294.261 189.41L293.283 190.49C291.526 188.431 289.081 187.061 286.048 187.061C278.615 187.061 274.115 192.938 274.115 202.244C274.115 211.55 278.615 217.626 285.85 217.626C289.272 217.626 291.816 216.256 294.261 213.509L295.239 214.488C292.794 217.327 289.96 219.095 285.75 219.095C277.828 219.095 272.449 212.437 272.449 202.244H272.457Z" fill="#0A6DE6"/>
<path d="M298.867 202.244C298.867 192.058 304.345 185.592 311.97 185.592C319.594 185.592 325.072 192.058 325.072 202.244C325.072 212.43 319.594 219.095 311.97 219.095C304.345 219.095 298.867 212.437 298.867 202.244ZM323.414 202.244C323.414 192.938 318.815 187.061 311.97 187.061C305.124 187.061 300.525 192.938 300.525 202.244C300.525 211.55 305.124 217.626 311.97 217.626C318.815 217.626 323.414 211.55 323.414 202.244Z" fill="#0A6DE6"/>
<path d="M332.705 186.181H341.606C347.962 186.181 351.973 188.53 351.973 194.507C351.973 200.484 347.962 203.223 341.606 203.223H334.271V218.506H332.705V186.181ZM341.017 201.853C346.984 201.853 350.307 199.504 350.307 194.507C350.307 189.51 346.984 187.551 341.017 187.551H334.271V201.853H341.017ZM341.216 202.733L342.973 202.634L352.462 218.506H350.605L341.216 202.733Z" fill="#0A6DE6"/>
<path d="M358.818 186.181H376.13V187.551H360.385V200.583H373.586V201.953H360.385V217.136H376.619V218.506H358.818V186.181Z" fill="#0A6DE6"/>
<path d="M20.2529 66.8424C18.0273 66.8424 15.9369 66.4264 13.9817 65.5944C12.0265 64.7416 10.3313 63.5352 8.89614 61.9752C7.48174 60.4152 6.45214 58.5744 5.80734 56.4528L12.1097 54.7056C12.7129 56.64 13.7633 58.1272 15.2609 59.1672C16.7585 60.1864 18.4225 60.6856 20.2529 60.6648C21.8961 60.644 23.3417 60.2592 24.5897 59.5104C25.8377 58.7616 26.8153 57.7528 27.5225 56.484C28.2297 55.1944 28.5833 53.7176 28.5833 52.0536C28.5833 49.5576 27.8033 47.4984 26.2433 45.876C24.7041 44.2536 22.6865 43.4424 20.1905 43.4424C19.4833 43.4424 18.7553 43.5464 18.0065 43.7544C17.2785 43.9624 16.5921 44.2328 15.9473 44.5656L12.8897 39.4176L28.7393 25.4088L29.4257 27.2808H7.58574V21.072H34.6049V27.2808L21.4385 39.948L21.3761 37.8264C24.2049 37.8264 26.6593 38.4608 28.7393 39.7296C30.8193 40.9776 32.4209 42.6832 33.5441 44.8464C34.6881 46.9888 35.2601 49.3912 35.2601 52.0536C35.2601 54.924 34.5841 57.472 33.2321 59.6976C31.9009 61.9232 30.1017 63.6704 27.8345 64.9392C25.5881 66.208 23.0609 66.8424 20.2529 66.8424ZM54.6831 66.936C51.6255 66.936 48.9215 66.2704 46.5711 64.9392C44.2207 63.5872 42.3695 61.736 41.0175 59.3856C39.6863 57.0352 39.0207 54.3312 39.0207 51.2736V35.7984C39.0207 32.7408 39.6863 30.0368 41.0175 27.6864C42.3695 25.336 44.2207 23.4952 46.5711 22.164C48.9215 20.812 51.6255 20.136 54.6831 20.136C57.7407 20.136 60.4447 20.812 62.7951 22.164C65.1455 23.4952 66.9863 25.336 68.3175 27.6864C69.6695 30.0368 70.3455 32.7408 70.3455 35.7984V51.2736C70.3455 54.3312 69.6695 57.0352 68.3175 59.3856C66.9863 61.736 65.1455 63.5872 62.7951 64.9392C60.4447 66.2704 57.7407 66.936 54.6831 66.936ZM54.6831 60.696C56.3471 60.696 57.8551 60.3008 59.2071 59.5104C60.5799 58.6992 61.6719 57.6176 62.4831 56.2656C63.2943 54.8928 63.6999 53.364 63.6999 51.6792V35.3304C63.6999 33.6664 63.2943 32.1584 62.4831 30.8064C61.6719 29.4336 60.5799 28.352 59.2071 27.5616C57.8551 26.7504 56.3471 26.3448 54.6831 26.3448C53.0191 26.3448 51.5007 26.7504 50.1279 27.5616C48.7759 28.352 47.6943 29.4336 46.8831 30.8064C46.0719 32.1584 45.6663 33.6664 45.6663 35.3304V51.6792C45.6663 53.364 46.0719 54.8928 46.8831 56.2656C47.6943 57.6176 48.7759 58.6992 50.1279 59.5104C51.5007 60.3008 53.0191 60.696 54.6831 60.696Z" fill="#1742DB"/>
<path d="M77.9368 66L76.2368 64.3L99.0678 41.52L100.768 43.203L77.9368 66ZM95.6678 66.51C94.5458 66.51 93.5201 66.238 92.5908 65.694C91.6728 65.1387 90.9361 64.402 90.3808 63.484C89.8254 62.5547 89.5478 61.5233 89.5478 60.39C89.5478 59.2793 89.8311 58.2593 90.3978 57.33C90.9644 56.4007 91.7124 55.6583 92.6418 55.103C93.5711 54.5477 94.5798 54.27 95.6678 54.27C96.7898 54.27 97.8154 54.5477 98.7448 55.103C99.6741 55.647 100.411 56.3837 100.955 57.313C101.51 58.231 101.788 59.2567 101.788 60.39C101.788 61.5233 101.51 62.5547 100.955 63.484C100.411 64.402 99.6741 65.1387 98.7448 65.694C97.8154 66.238 96.7898 66.51 95.6678 66.51ZM95.6678 64.249C96.3591 64.249 96.9994 64.0733 97.5888 63.722C98.1781 63.3707 98.6484 62.906 98.9998 62.328C99.3511 61.7387 99.5268 61.0927 99.5268 60.39C99.5268 59.6873 99.3511 59.047 98.9998 58.469C98.6484 57.8797 98.1781 57.4093 97.5888 57.058C96.9994 56.7067 96.3591 56.531 95.6678 56.531C94.9651 56.531 94.3191 56.7067 93.7298 57.058C93.1518 57.4093 92.6814 57.8797 92.3188 58.469C91.9674 59.047 91.7918 59.6873 91.7918 60.39C91.7918 61.0927 91.9674 61.7387 92.3188 62.328C92.6814 62.906 93.1518 63.3707 93.7298 63.722C94.3191 64.0733 94.9651 64.249 95.6678 64.249ZM81.3368 53.25C80.2148 53.25 79.1891 52.978 78.2598 52.434C77.3304 51.8787 76.5881 51.142 76.0328 50.224C75.4888 49.2947 75.2168 48.2633 75.2168 47.13C75.2168 46.0193 75.5001 44.9993 76.0668 44.07C76.6334 43.1407 77.3814 42.3983 78.3108 41.843C79.2401 41.2877 80.2488 41.01 81.3368 41.01C82.4588 41.01 83.4788 41.2877 84.3968 41.843C85.3261 42.387 86.0684 43.1237 86.6238 44.053C87.1791 44.971 87.4568 45.9967 87.4568 47.13C87.4568 48.2633 87.1791 49.2947 86.6238 50.224C86.0684 51.142 85.3261 51.8787 84.3968 52.434C83.4788 52.978 82.4588 53.25 81.3368 53.25ZM81.3368 50.989C82.0394 50.989 82.6798 50.8133 83.2578 50.462C83.8471 50.1107 84.3174 49.646 84.6688 49.068C85.0201 48.4787 85.1958 47.8327 85.1958 47.13C85.1958 46.4273 85.0201 45.787 84.6688 45.209C84.3174 44.6197 83.8471 44.1493 83.2578 43.798C82.6798 43.4467 82.0394 43.271 81.3368 43.271C80.6341 43.271 79.9881 43.4467 79.3988 43.798C78.8208 44.1493 78.3561 44.6197 78.0048 45.209C77.6534 45.787 77.4778 46.4273 77.4778 47.13C77.4778 47.8327 77.6534 48.4787 78.0048 49.068C78.3561 49.646 78.8208 50.1107 79.3988 50.462C79.9881 50.8133 80.6341 50.989 81.3368 50.989Z" fill="#1742DB"/>
<path d="M6.32 86L10.064 74.48H12.472L16.216 86H14.48L11.032 75.488H11.464L8.056 86H6.32ZM8.264 83.4V81.832H14.28V83.4H8.264ZM26.8833 86L26.8913 80.616C26.8913 79.992 26.7313 79.5067 26.4113 79.16C26.0913 78.808 25.6699 78.632 25.1473 78.632C24.8273 78.632 24.5339 78.7067 24.2673 78.856C24.0059 79 23.7926 79.2187 23.6273 79.512C23.4673 79.8 23.3873 80.1627 23.3873 80.6L22.5793 80.192C22.5686 79.584 22.6966 79.0507 22.9633 78.592C23.2353 78.1333 23.6033 77.7787 24.0673 77.528C24.5313 77.272 25.0513 77.144 25.6273 77.144C26.5606 77.144 27.2833 77.424 27.7953 77.984C28.3073 78.544 28.5633 79.288 28.5633 80.216L28.5553 86H26.8833ZM16.5233 86V77.36H18.0113V79.856H18.2033V86H16.5233ZM21.7073 86L21.7153 80.648C21.7153 80.0187 21.5553 79.5253 21.2353 79.168C20.9206 78.8107 20.4966 78.632 19.9633 78.632C19.4353 78.632 19.0086 78.8133 18.6833 79.176C18.3633 79.5387 18.2033 80.0133 18.2033 80.6L17.4033 80.088C17.4033 79.5227 17.5393 79.0187 17.8113 78.576C18.0833 78.1333 18.4513 77.784 18.9153 77.528C19.3793 77.272 19.9046 77.144 20.4913 77.144C21.1046 77.144 21.6273 77.2747 22.0593 77.536C22.4913 77.792 22.8193 78.152 23.0433 78.616C23.2726 79.08 23.3873 79.6187 23.3873 80.232L23.3793 86H21.7073ZM33.1633 86.24C32.2993 86.24 31.5499 86.0453 30.9153 85.656C30.2806 85.2667 29.7899 84.7307 29.4433 84.048C29.1019 83.36 28.9313 82.568 28.9313 81.672C28.9313 80.7707 29.1073 79.9787 29.4593 79.296C29.8113 78.608 30.3046 78.0747 30.9393 77.696C31.5739 77.312 32.3153 77.12 33.1633 77.12C34.0273 77.12 34.7766 77.3147 35.4113 77.704C36.0459 78.0933 36.5366 78.6293 36.8833 79.312C37.2299 79.9947 37.4033 80.7813 37.4033 81.672C37.4033 82.5733 37.2273 83.368 36.8753 84.056C36.5286 84.7387 36.0379 85.2747 35.4033 85.664C34.7686 86.048 34.0219 86.24 33.1633 86.24ZM33.1633 84.664C33.9899 84.664 34.6059 84.3867 35.0113 83.832C35.4219 83.272 35.6273 82.552 35.6273 81.672C35.6273 80.7707 35.4193 80.0507 35.0033 79.512C34.5926 78.968 33.9793 78.696 33.1633 78.696C32.6033 78.696 32.1419 78.824 31.7793 79.08C31.4166 79.3307 31.1473 79.68 30.9713 80.128C30.7953 80.5707 30.7073 81.0853 30.7073 81.672C30.7073 82.5787 30.9153 83.304 31.3313 83.848C31.7473 84.392 32.3579 84.664 33.1633 84.664ZM41.2972 86.232C40.6999 86.232 40.1986 86.136 39.7932 85.944C39.3879 85.752 39.0572 85.5013 38.8012 85.192C38.5506 84.8773 38.3586 84.536 38.2252 84.168C38.0919 83.8 38.0012 83.44 37.9532 83.088C37.9052 82.736 37.8812 82.4267 37.8812 82.16V77.36H39.5772V81.608C39.5772 81.944 39.6039 82.2907 39.6572 82.648C39.7159 83 39.8226 83.328 39.9772 83.632C40.1372 83.936 40.3586 84.1813 40.6412 84.368C40.9292 84.5547 41.3026 84.648 41.7612 84.648C42.0599 84.648 42.3426 84.6 42.6092 84.504C42.8759 84.4027 43.1079 84.2427 43.3052 84.024C43.5079 83.8053 43.6652 83.5173 43.7772 83.16C43.8946 82.8027 43.9532 82.368 43.9532 81.856L44.9932 82.248C44.9932 83.032 44.8466 83.7253 44.5532 84.328C44.2599 84.9253 43.8386 85.392 43.2892 85.728C42.7399 86.064 42.0759 86.232 41.2972 86.232ZM44.1532 86V83.504H43.9532V77.36H45.6412V86H44.1532ZM52.829 86V81.752C52.829 81.416 52.7997 81.072 52.741 80.72C52.6877 80.3627 52.581 80.032 52.421 79.728C52.2663 79.424 52.045 79.1787 51.757 78.992C51.4743 78.8053 51.1037 78.712 50.645 78.712C50.3463 78.712 50.0637 78.7627 49.797 78.864C49.5303 78.96 49.2957 79.1173 49.093 79.336C48.8957 79.5547 48.7383 79.8427 48.621 80.2C48.509 80.5573 48.453 80.992 48.453 81.504L47.413 81.112C47.413 80.328 47.5597 79.6373 47.853 79.04C48.1463 78.4373 48.5677 77.968 49.117 77.632C49.6663 77.296 50.3303 77.128 51.109 77.128C51.7063 77.128 52.2077 77.224 52.613 77.416C53.0183 77.608 53.3463 77.8613 53.597 78.176C53.853 78.4853 54.0477 78.824 54.181 79.192C54.3143 79.56 54.405 79.92 54.453 80.272C54.501 80.624 54.525 80.9333 54.525 81.2V86H52.829ZM46.757 86V77.36H48.253V79.856H48.453V86H46.757ZM60.4328 86C59.8888 86.1067 59.3554 86.152 58.8328 86.136C58.3101 86.12 57.8434 86.0187 57.4328 85.832C57.0221 85.6453 56.7128 85.352 56.5048 84.952C56.3181 84.5947 56.2168 84.232 56.2008 83.864C56.1901 83.4907 56.1848 83.0693 56.1848 82.6V74.96H57.8648V82.52C57.8648 82.8667 57.8674 83.168 57.8728 83.424C57.8834 83.68 57.9394 83.896 58.0408 84.072C58.2328 84.4027 58.5368 84.592 58.9528 84.64C59.3741 84.6827 59.8674 84.664 60.4328 84.584V86ZM54.5288 78.704V77.36H60.4328V78.704H54.5288ZM64.4384 86.232C63.3877 86.232 62.5317 86 61.8704 85.536C61.209 85.072 60.8037 84.4187 60.6544 83.576L62.3664 83.312C62.473 83.76 62.7184 84.1147 63.1024 84.376C63.4917 84.632 63.9744 84.76 64.5504 84.76C65.073 84.76 65.481 84.6533 65.7744 84.44C66.073 84.2267 66.2224 83.9333 66.2224 83.56C66.2224 83.3413 66.169 83.1653 66.0624 83.032C65.961 82.8933 65.745 82.7627 65.4144 82.64C65.0837 82.5173 64.5797 82.3653 63.9024 82.184C63.161 81.992 62.5717 81.7867 62.1344 81.568C61.7024 81.344 61.393 81.0853 61.2064 80.792C61.025 80.4933 60.9344 80.1333 60.9344 79.712C60.9344 79.1893 61.073 78.7333 61.3504 78.344C61.6277 77.9547 62.017 77.6533 62.5184 77.44C63.025 77.2267 63.617 77.12 64.2944 77.12C64.9557 77.12 65.545 77.224 66.0624 77.432C66.5797 77.64 66.9984 77.936 67.3184 78.32C67.6384 78.6987 67.8304 79.144 67.8944 79.656L66.1824 79.968C66.1237 79.552 65.929 79.224 65.5984 78.984C65.2677 78.744 64.8384 78.6133 64.3104 78.592C63.8037 78.5707 63.393 78.656 63.0784 78.848C62.7637 79.0347 62.6064 79.2933 62.6064 79.624C62.6064 79.816 62.665 79.9787 62.7824 80.112C62.905 80.2453 63.1397 80.3733 63.4864 80.496C63.833 80.6187 64.345 80.7653 65.0224 80.936C65.7477 81.1227 66.3237 81.3307 66.7504 81.56C67.177 81.784 67.481 82.0533 67.6624 82.368C67.849 82.6773 67.9424 83.0533 67.9424 83.496C67.9424 84.3493 67.6304 85.0187 67.0064 85.504C66.3877 85.9893 65.5317 86.232 64.4384 86.232ZM75.4836 86.24C74.3316 86.24 73.3503 85.9893 72.5396 85.488C71.729 84.9813 71.1076 84.2773 70.6756 83.376C70.249 82.4747 70.0356 81.4293 70.0356 80.24C70.0356 79.0507 70.249 78.0053 70.6756 77.104C71.1076 76.2027 71.729 75.5013 72.5396 75C73.3503 74.4933 74.3316 74.24 75.4836 74.24C76.6303 74.24 77.609 74.4933 78.4196 75C79.2356 75.5013 79.857 76.2027 80.2836 77.104C80.7103 78.0053 80.9236 79.0507 80.9236 80.24C80.9236 81.4293 80.7103 82.4747 80.2836 83.376C79.857 84.2773 79.2356 84.9813 78.4196 85.488C77.609 85.9893 76.6303 86.24 75.4836 86.24ZM75.4836 84.648C76.2996 84.6587 76.977 84.48 77.5156 84.112C78.0596 83.7387 78.4676 83.2213 78.7396 82.56C79.0116 81.8933 79.1476 81.12 79.1476 80.24C79.1476 79.36 79.0116 78.592 78.7396 77.936C78.4676 77.2747 78.0596 76.76 77.5156 76.392C76.977 76.024 76.2996 75.8373 75.4836 75.832C74.6676 75.8213 73.9876 76 73.4436 76.368C72.905 76.736 72.4996 77.2533 72.2276 77.92C71.9556 78.5867 71.817 79.36 71.8116 80.24C71.8063 81.12 71.9396 81.8907 72.2116 82.552C72.4836 83.208 72.8916 83.72 73.4356 84.088C73.985 84.456 74.6676 84.6427 75.4836 84.648ZM83.2394 86L80.5994 77.352L82.2554 77.36L84.0634 83.288L85.8874 77.36H87.3274L89.1514 83.288L90.9594 77.36H92.6074L89.9674 86H88.6234L86.6074 79.744L84.5834 86H83.2394ZM96.4395 86.24C95.5808 86.24 94.8262 86.0533 94.1755 85.68C93.5302 85.3013 93.0262 84.776 92.6635 84.104C92.3062 83.4267 92.1275 82.6427 92.1275 81.752C92.1275 80.808 92.3035 79.9893 92.6555 79.296C93.0128 78.6027 93.5088 78.0667 94.1435 77.688C94.7782 77.3093 95.5168 77.12 96.3595 77.12C97.2395 77.12 97.9888 77.3253 98.6075 77.736C99.2262 78.1413 99.6875 78.72 99.9915 79.472C100.301 80.224 100.424 81.1173 100.36 82.152H98.6875V81.544C98.6768 80.5413 98.4848 79.8 98.1115 79.32C97.7435 78.84 97.1808 78.6 96.4235 78.6C95.5862 78.6 94.9568 78.864 94.5355 79.392C94.1142 79.92 93.9035 80.6827 93.9035 81.68C93.9035 82.6293 94.1142 83.3653 94.5355 83.888C94.9568 84.4053 95.5648 84.664 96.3595 84.664C96.8822 84.664 97.3328 84.5467 97.7115 84.312C98.0955 84.072 98.3942 83.7307 98.6075 83.288L100.248 83.808C99.9115 84.5813 99.4022 85.1813 98.7195 85.608C98.0368 86.0293 97.2768 86.24 96.4395 86.24ZM93.3595 82.152V80.848H99.5275V82.152H93.3595ZM104.466 86.24C103.661 86.24 102.965 86.04 102.378 85.64C101.797 85.24 101.346 84.696 101.026 84.008C100.712 83.3147 100.554 82.536 100.554 81.672C100.554 80.8027 100.714 80.0267 101.034 79.344C101.354 78.656 101.808 78.1147 102.394 77.72C102.986 77.32 103.688 77.12 104.498 77.12C105.314 77.12 106 77.32 106.554 77.72C107.114 78.1147 107.536 78.656 107.818 79.344C108.106 80.032 108.25 80.808 108.25 81.672C108.25 82.536 108.106 83.312 107.818 84C107.53 84.688 107.106 85.2347 106.546 85.64C105.986 86.04 105.293 86.24 104.466 86.24ZM104.698 84.728C105.248 84.728 105.696 84.5973 106.042 84.336C106.389 84.0747 106.642 83.7147 106.802 83.256C106.962 82.7973 107.042 82.2693 107.042 81.672C107.042 81.0747 106.96 80.5467 106.794 80.088C106.634 79.6293 106.384 79.272 106.042 79.016C105.706 78.76 105.277 78.632 104.754 78.632C104.2 78.632 103.744 78.768 103.386 79.04C103.029 79.312 102.762 79.6773 102.586 80.136C102.416 80.5947 102.33 81.1067 102.33 81.672C102.33 82.2427 102.416 82.76 102.586 83.224C102.762 83.6827 103.024 84.048 103.37 84.32C103.722 84.592 104.165 84.728 104.698 84.728ZM107.042 86V79.784H106.85V74.48H108.53V86H107.042Z" fill="#1742DB"/>
<path d="M21.2205 355.842C18.9949 355.842 16.9045 355.426 14.9493 354.594C12.9941 353.742 11.2989 352.535 9.86373 350.975C8.44933 349.415 7.41973 347.574 6.77493 345.453L13.0773 343.706C13.6805 345.64 14.7309 347.127 16.2285 348.167C17.7261 349.186 19.3901 349.686 21.2205 349.665C22.8637 349.644 24.3093 349.259 25.5573 348.51C26.8053 347.762 27.7829 346.753 28.4901 345.484C29.1973 344.194 29.5509 342.718 29.5509 341.054C29.5509 338.558 28.7709 336.498 27.2109 334.876C25.6717 333.254 23.6541 332.442 21.1581 332.442C20.4509 332.442 19.7229 332.546 18.9741 332.754C18.2461 332.962 17.5597 333.233 16.9149 333.566L13.8573 328.418L29.7069 314.409L30.3933 316.281H8.55333V310.072H35.5725V316.281L22.4061 328.948L22.3437 326.826C25.1725 326.826 27.6269 327.461 29.7069 328.73C31.7869 329.978 33.3885 331.683 34.5117 333.846C35.6557 335.989 36.2277 338.391 36.2277 341.054C36.2277 343.924 35.5517 346.472 34.1997 348.698C32.8685 350.923 31.0693 352.67 28.8021 353.939C26.5557 355.208 24.0285 355.842 21.2205 355.842ZM53.3107 355.936C51.0019 355.936 48.8491 355.468 46.8523 354.532C44.8763 353.575 43.1811 352.265 41.7667 350.601C40.3523 348.916 39.3435 346.982 38.7403 344.798L45.0115 343.113C45.3651 344.444 45.9683 345.598 46.8211 346.576C47.6947 347.554 48.7139 348.313 49.8787 348.854C51.0435 349.374 52.2499 349.634 53.4979 349.634C55.1411 349.634 56.6283 349.238 57.9595 348.448C59.3115 347.658 60.3723 346.597 61.1419 345.266C61.9323 343.934 62.3275 342.468 62.3275 340.866C62.3275 339.223 61.9219 337.736 61.1107 336.405C60.3203 335.074 59.2491 334.023 57.8971 333.254C56.5659 332.463 55.0995 332.068 53.4979 332.068C51.6675 332.068 50.1179 332.432 48.8491 333.16C47.5803 333.888 46.5923 334.73 45.8851 335.687L40.2067 333.69L41.5795 310.072H65.8219V316.218H44.9179L47.5699 313.754L46.4779 331.444L45.1987 329.79C46.3843 328.605 47.7987 327.7 49.4419 327.076C51.0851 326.452 52.7179 326.14 54.3403 326.14C57.1275 326.14 59.6131 326.785 61.7971 328.074C64.0019 329.364 65.7387 331.122 67.0075 333.347C68.2763 335.552 68.9107 338.058 68.9107 340.866C68.9107 343.654 68.1931 346.191 66.7579 348.479C65.3227 350.746 63.4195 352.556 61.0483 353.908C58.6771 355.26 56.0979 355.936 53.3107 355.936Z" fill="#0B2465"/>
<path d="M74.9368 355L73.2368 353.3L96.0678 330.52L97.7678 332.203L74.9368 355ZM92.6678 355.51C91.5458 355.51 90.5201 355.238 89.5908 354.694C88.6728 354.139 87.9361 353.402 87.3808 352.484C86.8254 351.555 86.5478 350.523 86.5478 349.39C86.5478 348.279 86.8311 347.259 87.3978 346.33C87.9644 345.401 88.7124 344.658 89.6418 344.103C90.5711 343.548 91.5798 343.27 92.6678 343.27C93.7898 343.27 94.8154 343.548 95.7448 344.103C96.6741 344.647 97.4108 345.384 97.9548 346.313C98.5101 347.231 98.7878 348.257 98.7878 349.39C98.7878 350.523 98.5101 351.555 97.9548 352.484C97.4108 353.402 96.6741 354.139 95.7448 354.694C94.8154 355.238 93.7898 355.51 92.6678 355.51ZM92.6678 353.249C93.3591 353.249 93.9994 353.073 94.5888 352.722C95.1781 352.371 95.6484 351.906 95.9998 351.328C96.3511 350.739 96.5268 350.093 96.5268 349.39C96.5268 348.687 96.3511 348.047 95.9998 347.469C95.6484 346.88 95.1781 346.409 94.5888 346.058C93.9994 345.707 93.3591 345.531 92.6678 345.531C91.9651 345.531 91.3191 345.707 90.7298 346.058C90.1518 346.409 89.6814 346.88 89.3188 347.469C88.9674 348.047 88.7918 348.687 88.7918 349.39C88.7918 350.093 88.9674 350.739 89.3188 351.328C89.6814 351.906 90.1518 352.371 90.7298 352.722C91.3191 353.073 91.9651 353.249 92.6678 353.249ZM78.3368 342.25C77.2148 342.25 76.1891 341.978 75.2598 341.434C74.3304 340.879 73.5881 340.142 73.0328 339.224C72.4888 338.295 72.2168 337.263 72.2168 336.13C72.2168 335.019 72.5001 333.999 73.0668 333.07C73.6334 332.141 74.3814 331.398 75.3108 330.843C76.2401 330.288 77.2488 330.01 78.3368 330.01C79.4588 330.01 80.4788 330.288 81.3968 330.843C82.3261 331.387 83.0684 332.124 83.6238 333.053C84.1791 333.971 84.4568 334.997 84.4568 336.13C84.4568 337.263 84.1791 338.295 83.6238 339.224C83.0684 340.142 82.3261 340.879 81.3968 341.434C80.4788 341.978 79.4588 342.25 78.3368 342.25ZM78.3368 339.989C79.0394 339.989 79.6798 339.813 80.2578 339.462C80.8471 339.111 81.3174 338.646 81.6688 338.068C82.0201 337.479 82.1958 336.833 82.1958 336.13C82.1958 335.427 82.0201 334.787 81.6688 334.209C81.3174 333.62 80.8471 333.149 80.2578 332.798C79.6798 332.447 79.0394 332.271 78.3368 332.271C77.6341 332.271 76.9881 332.447 76.3988 332.798C75.8208 333.149 75.3561 333.62 75.0048 334.209C74.6534 334.787 74.4778 335.427 74.4778 336.13C74.4778 336.833 74.6534 337.479 75.0048 338.068C75.3561 338.646 75.8208 339.111 76.3988 339.462C76.9881 339.813 77.6341 339.989 78.3368 339.989Z" fill="#0B2465"/>
<path d="M1.28813 375V363.48H5.94413C6.05613 363.48 6.19479 363.485 6.36013 363.496C6.52546 363.501 6.68279 363.517 6.83213 363.544C7.47213 363.645 8.00546 363.864 8.43213 364.2C8.86413 364.536 9.18679 364.96 9.40013 365.472C9.61346 365.984 9.72013 366.549 9.72013 367.168C9.72013 367.792 9.61346 368.36 9.40013 368.872C9.18679 369.384 8.86413 369.808 8.43213 370.144C8.00546 370.48 7.47213 370.699 6.83213 370.8C6.68279 370.821 6.52279 370.837 6.35213 370.848C6.18679 370.859 6.05079 370.864 5.94413 370.864H2.96013V375H1.28813ZM2.96013 369.28H5.88013C5.98679 369.28 6.10413 369.275 6.23213 369.264C6.36546 369.253 6.49079 369.235 6.60813 369.208C6.94946 369.128 7.22413 368.981 7.43213 368.768C7.64013 368.549 7.78946 368.299 7.88013 368.016C7.97079 367.733 8.01613 367.451 8.01613 367.168C8.01613 366.885 7.97079 366.605 7.88013 366.328C7.78946 366.045 7.64013 365.797 7.43213 365.584C7.22413 365.365 6.94946 365.216 6.60813 365.136C6.49079 365.104 6.36546 365.083 6.23213 365.072C6.10413 365.061 5.98679 365.056 5.88013 365.056H2.96013V369.28ZM12.3738 375.24C11.7338 375.24 11.1978 375.123 10.7658 374.888C10.3338 374.648 10.0058 374.333 9.78175 373.944C9.56308 373.549 9.45375 373.117 9.45375 372.648C9.45375 372.211 9.53108 371.827 9.68575 371.496C9.84042 371.165 10.0698 370.885 10.3738 370.656C10.6778 370.421 11.0511 370.232 11.4938 370.088C11.8778 369.976 12.3124 369.877 12.7978 369.792C13.2831 369.707 13.7924 369.627 14.3258 369.552C14.8644 369.477 15.3978 369.403 15.9258 369.328L15.3178 369.664C15.3284 368.987 15.1844 368.485 14.8858 368.16C14.5924 367.829 14.0858 367.664 13.3658 367.664C12.9124 367.664 12.4964 367.771 12.1178 367.984C11.7391 368.192 11.4751 368.539 11.3258 369.024L9.76575 368.544C9.97908 367.803 10.3844 367.213 10.9818 366.776C11.5844 366.339 12.3844 366.12 13.3818 366.12C14.1551 366.12 14.8271 366.253 15.3978 366.52C15.9738 366.781 16.3951 367.197 16.6618 367.768C16.8004 368.051 16.8858 368.349 16.9178 368.664C16.9498 368.979 16.9658 369.317 16.9658 369.68V375H15.4858V373.024L15.7738 373.28C15.4164 373.941 14.9604 374.435 14.4058 374.76C13.8564 375.08 13.1791 375.24 12.3738 375.24ZM12.6698 373.872C13.1444 373.872 13.5524 373.789 13.8938 373.624C14.2351 373.453 14.5098 373.237 14.7178 372.976C14.9258 372.715 15.0618 372.443 15.1258 372.16C15.2164 371.904 15.2671 371.616 15.2778 371.296C15.2938 370.976 15.3018 370.72 15.3018 370.528L15.8458 370.728C15.3178 370.808 14.8378 370.88 14.4058 370.944C13.9738 371.008 13.5818 371.072 13.2298 371.136C12.8831 371.195 12.5738 371.267 12.3018 371.352C12.0724 371.432 11.8671 371.528 11.6858 371.64C11.5098 371.752 11.3684 371.888 11.2618 372.048C11.1604 372.208 11.1098 372.403 11.1098 372.632C11.1098 372.856 11.1658 373.064 11.2778 373.256C11.3898 373.443 11.5604 373.592 11.7898 373.704C12.0191 373.816 12.3124 373.872 12.6698 373.872ZM18.6068 378.84L20.2788 374.288L20.3028 375.632L16.5348 366.36H18.2788L21.0948 373.52H20.5828L23.2708 366.36H24.9668L20.1988 378.84H18.6068ZM35.452 375L35.46 369.616C35.46 368.992 35.3 368.507 34.98 368.16C34.66 367.808 34.2387 367.632 33.716 367.632C33.396 367.632 33.1027 367.707 32.836 367.856C32.5747 368 32.3613 368.219 32.196 368.512C32.036 368.8 31.956 369.163 31.956 369.6L31.148 369.192C31.1373 368.584 31.2653 368.051 31.532 367.592C31.804 367.133 32.172 366.779 32.636 366.528C33.1 366.272 33.62 366.144 34.196 366.144C35.1293 366.144 35.852 366.424 36.364 366.984C36.876 367.544 37.132 368.288 37.132 369.216L37.124 375H35.452ZM25.092 375V366.36H26.58V368.856H26.772V375H25.092ZM30.276 375L30.284 369.648C30.284 369.019 30.124 368.525 29.804 368.168C29.4893 367.811 29.0653 367.632 28.532 367.632C28.004 367.632 27.5773 367.813 27.252 368.176C26.932 368.539 26.772 369.013 26.772 369.6L25.972 369.088C25.972 368.523 26.108 368.019 26.38 367.576C26.652 367.133 27.02 366.784 27.484 366.528C27.948 366.272 28.4733 366.144 29.06 366.144C29.6733 366.144 30.196 366.275 30.628 366.536C31.06 366.792 31.388 367.152 31.612 367.616C31.8413 368.08 31.956 368.619 31.956 369.232L31.948 375H30.276ZM41.812 375.24C40.9533 375.24 40.1987 375.053 39.548 374.68C38.9027 374.301 38.3987 373.776 38.036 373.104C37.6787 372.427 37.5 371.643 37.5 370.752C37.5 369.808 37.676 368.989 38.028 368.296C38.3853 367.603 38.8813 367.067 39.516 366.688C40.1507 366.309 40.8893 366.12 41.732 366.12C42.612 366.12 43.3613 366.325 43.98 366.736C44.5987 367.141 45.06 367.72 45.364 368.472C45.6733 369.224 45.796 370.117 45.732 371.152H44.06V370.544C44.0493 369.541 43.8573 368.8 43.484 368.32C43.116 367.84 42.5533 367.6 41.796 367.6C40.9587 367.6 40.3293 367.864 39.908 368.392C39.4867 368.92 39.276 369.683 39.276 370.68C39.276 371.629 39.4867 372.365 39.908 372.888C40.3293 373.405 40.9373 373.664 41.732 373.664C42.2547 373.664 42.7053 373.547 43.084 373.312C43.468 373.072 43.7667 372.731 43.98 372.288L45.62 372.808C45.284 373.581 44.7747 374.181 44.092 374.608C43.4093 375.029 42.6493 375.24 41.812 375.24ZM38.732 371.152V369.848H44.9V371.152H38.732ZM52.2365 375V370.752C52.2365 370.416 52.2072 370.072 52.1485 369.72C52.0952 369.363 51.9885 369.032 51.8285 368.728C51.6738 368.424 51.4525 368.179 51.1645 367.992C50.8818 367.805 50.5112 367.712 50.0525 367.712C49.7538 367.712 49.4712 367.763 49.2045 367.864C48.9378 367.96 48.7032 368.117 48.5005 368.336C48.3032 368.555 48.1458 368.843 48.0285 369.2C47.9165 369.557 47.8605 369.992 47.8605 370.504L46.8205 370.112C46.8205 369.328 46.9672 368.637 47.2605 368.04C47.5538 367.437 47.9752 366.968 48.5245 366.632C49.0738 366.296 49.7378 366.128 50.5165 366.128C51.1138 366.128 51.6152 366.224 52.0205 366.416C52.4258 366.608 52.7538 366.861 53.0045 367.176C53.2605 367.485 53.4552 367.824 53.5885 368.192C53.7218 368.56 53.8125 368.92 53.8605 369.272C53.9085 369.624 53.9325 369.933 53.9325 370.2V375H52.2365ZM46.1645 375V366.36H47.6605V368.856H47.8605V375H46.1645ZM59.8402 375C59.2962 375.107 58.7629 375.152 58.2402 375.136C57.7176 375.12 57.2509 375.019 56.8402 374.832C56.4296 374.645 56.1202 374.352 55.9122 373.952C55.7256 373.595 55.6242 373.232 55.6082 372.864C55.5976 372.491 55.5922 372.069 55.5922 371.6V363.96H57.2722V371.52C57.2722 371.867 57.2749 372.168 57.2802 372.424C57.2909 372.68 57.3469 372.896 57.4482 373.072C57.6402 373.403 57.9442 373.592 58.3602 373.64C58.7816 373.683 59.2749 373.664 59.8402 373.584V375ZM53.9362 367.704V366.36H59.8402V367.704H53.9362ZM62.625 375V363.48H64.297V368.448H70.057V363.48H71.737V375H70.057V370.024H64.297V375H62.625ZM73.0244 364.944V363.32H74.6964V364.944H73.0244ZM73.0244 375V366.36H74.6964V375H73.0244ZM79.2827 375.232C78.2321 375.232 77.3761 375 76.7147 374.536C76.0534 374.072 75.6481 373.419 75.4987 372.576L77.2107 372.312C77.3174 372.76 77.5627 373.115 77.9467 373.376C78.3361 373.632 78.8187 373.76 79.3947 373.76C79.9174 373.76 80.3254 373.653 80.6187 373.44C80.9174 373.227 81.0667 372.933 81.0667 372.56C81.0667 372.341 81.0134 372.165 80.9067 372.032C80.8054 371.893 80.5894 371.763 80.2587 371.64C79.9281 371.517 79.4241 371.365 78.7467 371.184C78.0054 370.992 77.4161 370.787 76.9787 370.568C76.5467 370.344 76.2374 370.085 76.0507 369.792C75.8694 369.493 75.7787 369.133 75.7787 368.712C75.7787 368.189 75.9174 367.733 76.1947 367.344C76.4721 366.955 76.8614 366.653 77.3627 366.44C77.8694 366.227 78.4614 366.12 79.1387 366.12C79.8001 366.12 80.3894 366.224 80.9067 366.432C81.4241 366.64 81.8427 366.936 82.1627 367.32C82.4827 367.699 82.6747 368.144 82.7387 368.656L81.0267 368.968C80.9681 368.552 80.7734 368.224 80.4427 367.984C80.1121 367.744 79.6827 367.613 79.1547 367.592C78.6481 367.571 78.2374 367.656 77.9227 367.848C77.6081 368.035 77.4507 368.293 77.4507 368.624C77.4507 368.816 77.5094 368.979 77.6267 369.112C77.7494 369.245 77.9841 369.373 78.3307 369.496C78.6774 369.619 79.1894 369.765 79.8667 369.936C80.5921 370.123 81.1681 370.331 81.5947 370.56C82.0214 370.784 82.3254 371.053 82.5067 371.368C82.6934 371.677 82.7867 372.053 82.7867 372.496C82.7867 373.349 82.4747 374.019 81.8507 374.504C81.2321 374.989 80.3761 375.232 79.2827 375.232ZM88.3809 375C87.8369 375.107 87.3035 375.152 86.7809 375.136C86.2582 375.12 85.7915 375.019 85.3809 374.832C84.9702 374.645 84.6609 374.352 84.4529 373.952C84.2662 373.595 84.1649 373.232 84.1489 372.864C84.1382 372.491 84.1329 372.069 84.1329 371.6V363.96H85.8129V371.52C85.8129 371.867 85.8155 372.168 85.8209 372.424C85.8315 372.68 85.8875 372.896 85.9889 373.072C86.1809 373.403 86.4849 373.592 86.9009 373.64C87.3222 373.683 87.8155 373.664 88.3809 373.584V375ZM82.4769 367.704V366.36H88.3809V367.704H82.4769ZM92.4439 375.24C91.5799 375.24 90.8305 375.045 90.1959 374.656C89.5612 374.267 89.0705 373.731 88.7239 373.048C88.3825 372.36 88.2119 371.568 88.2119 370.672C88.2119 369.771 88.3879 368.979 88.7399 368.296C89.0919 367.608 89.5852 367.075 90.2199 366.696C90.8545 366.312 91.5959 366.12 92.4439 366.12C93.3079 366.12 94.0572 366.315 94.6919 366.704C95.3265 367.093 95.8172 367.629 96.1639 368.312C96.5105 368.995 96.6839 369.781 96.6839 370.672C96.6839 371.573 96.5079 372.368 96.1559 373.056C95.8092 373.739 95.3185 374.275 94.6839 374.664C94.0492 375.048 93.3025 375.24 92.4439 375.24ZM92.4439 373.664C93.2705 373.664 93.8865 373.387 94.2919 372.832C94.7025 372.272 94.9079 371.552 94.9079 370.672C94.9079 369.771 94.6999 369.051 94.2839 368.512C93.8732 367.968 93.2599 367.696 92.4439 367.696C91.8839 367.696 91.4225 367.824 91.0599 368.08C90.6972 368.331 90.4279 368.68 90.2519 369.128C90.0759 369.571 89.9879 370.085 89.9879 370.672C89.9879 371.579 90.1959 372.304 90.6119 372.848C91.0279 373.392 91.6385 373.664 92.4439 373.664ZM97.3219 375V366.36H98.8099V368.456L98.6019 368.184C98.7085 367.907 98.8472 367.653 99.0179 367.424C99.1885 367.189 99.3859 366.997 99.6099 366.848C99.8285 366.688 100.071 366.565 100.338 366.48C100.61 366.389 100.887 366.336 101.17 366.32C101.453 366.299 101.725 366.312 101.986 366.36V367.928C101.703 367.853 101.389 367.832 101.042 367.864C100.701 367.896 100.386 368.005 100.098 368.192C99.8259 368.368 99.6099 368.581 99.4499 368.832C99.2952 369.083 99.1832 369.363 99.1139 369.672C99.0445 369.976 99.0099 370.299 99.0099 370.64V375H97.3219ZM103.339 378.84L105.011 374.288L105.035 375.632L101.267 366.36H103.011L105.827 373.52H105.315L108.003 366.36H109.699L104.931 378.84H103.339Z" fill="#0B2465"/>
<path d="M432.206 72V34.248L423.751 39.396V32.1264L432.206 27.072H438.852V72H432.206ZM461.994 72.936C458.937 72.936 456.233 72.2704 453.882 70.9392C451.532 69.5872 449.681 67.736 448.329 65.3856C446.998 63.0352 446.332 60.3312 446.332 57.2736V41.7984C446.332 38.7408 446.998 36.0368 448.329 33.6864C449.681 31.336 451.532 29.4952 453.882 28.164C456.233 26.812 458.937 26.136 461.994 26.136C465.052 26.136 467.756 26.812 470.106 28.164C472.457 29.4952 474.298 31.336 475.629 33.6864C476.981 36.0368 477.657 38.7408 477.657 41.7984V57.2736C477.657 60.3312 476.981 63.0352 475.629 65.3856C474.298 67.736 472.457 69.5872 470.106 70.9392C467.756 72.2704 465.052 72.936 461.994 72.936ZM461.994 66.696C463.658 66.696 465.166 66.3008 466.518 65.5104C467.891 64.6992 468.983 63.6176 469.794 62.2656C470.606 60.8928 471.011 59.364 471.011 57.6792V41.3304C471.011 39.6664 470.606 38.1584 469.794 36.8064C468.983 35.4336 467.891 34.352 466.518 33.5616C465.166 32.7504 463.658 32.3448 461.994 32.3448C460.33 32.3448 458.812 32.7504 457.439 33.5616C456.087 34.352 455.006 35.4336 454.194 36.8064C453.383 38.1584 452.978 39.6664 452.978 41.3304V57.6792C452.978 59.364 453.383 60.8928 454.194 62.2656C455.006 63.6176 456.087 64.6992 457.439 65.5104C458.812 66.3008 460.33 66.696 461.994 66.696Z" fill="#FF5B0D"/>
<path d="M484.937 72L483.237 70.3L506.068 47.52L507.768 49.203L484.937 72ZM502.668 72.51C501.546 72.51 500.52 72.238 499.591 71.694C498.673 71.1387 497.936 70.402 497.381 69.484C496.825 68.5547 496.548 67.5233 496.548 66.39C496.548 65.2793 496.831 64.2593 497.398 63.33C497.964 62.4007 498.712 61.6583 499.642 61.103C500.571 60.5477 501.58 60.27 502.668 60.27C503.79 60.27 504.815 60.5477 505.745 61.103C506.674 61.647 507.411 62.3837 507.955 63.313C508.51 64.231 508.788 65.2567 508.788 66.39C508.788 67.5233 508.51 68.5547 507.955 69.484C507.411 70.402 506.674 71.1387 505.745 71.694C504.815 72.238 503.79 72.51 502.668 72.51ZM502.668 70.249C503.359 70.249 503.999 70.0733 504.589 69.722C505.178 69.3707 505.648 68.906 506 68.328C506.351 67.7387 506.527 67.0927 506.527 66.39C506.527 65.6873 506.351 65.047 506 64.469C505.648 63.8797 505.178 63.4093 504.589 63.058C503.999 62.7067 503.359 62.531 502.668 62.531C501.965 62.531 501.319 62.7067 500.73 63.058C500.152 63.4093 499.681 63.8797 499.319 64.469C498.967 65.047 498.792 65.6873 498.792 66.39C498.792 67.0927 498.967 67.7387 499.319 68.328C499.681 68.906 500.152 69.3707 500.73 69.722C501.319 70.0733 501.965 70.249 502.668 70.249ZM488.337 59.25C487.215 59.25 486.189 58.978 485.26 58.434C484.33 57.8787 483.588 57.142 483.033 56.224C482.489 55.2947 482.217 54.2633 482.217 53.13C482.217 52.0193 482.5 50.9993 483.067 50.07C483.633 49.1407 484.381 48.3983 485.311 47.843C486.24 47.2877 487.249 47.01 488.337 47.01C489.459 47.01 490.479 47.2877 491.397 47.843C492.326 48.387 493.068 49.1237 493.624 50.053C494.179 50.971 494.457 51.9967 494.457 53.13C494.457 54.2633 494.179 55.2947 493.624 56.224C493.068 57.142 492.326 57.8787 491.397 58.434C490.479 58.978 489.459 59.25 488.337 59.25ZM488.337 56.989C489.039 56.989 489.68 56.8133 490.258 56.462C490.847 56.1107 491.317 55.646 491.669 55.068C492.02 54.4787 492.196 53.8327 492.196 53.13C492.196 52.4273 492.02 51.787 491.669 51.209C491.317 50.6197 490.847 50.1493 490.258 49.798C489.68 49.4467 489.039 49.271 488.337 49.271C487.634 49.271 486.988 49.4467 486.399 49.798C485.821 50.1493 485.356 50.6197 485.005 51.209C484.653 51.787 484.478 52.4273 484.478 53.13C484.478 53.8327 484.653 54.4787 485.005 55.068C485.356 55.646 485.821 56.1107 486.399 56.462C486.988 56.8133 487.634 56.989 488.337 56.989Z" fill="#FF5B0D"/>
<path d="M429.473 92V80.48H431.169L436.841 89.04V80.48H438.537V92H436.841L431.169 83.432V92H429.473ZM443.481 92.24C442.623 92.24 441.868 92.0533 441.217 91.68C440.572 91.3013 440.068 90.776 439.705 90.104C439.348 89.4267 439.169 88.6427 439.169 87.752C439.169 86.808 439.345 85.9893 439.697 85.296C440.055 84.6027 440.551 84.0667 441.185 83.688C441.82 83.3093 442.559 83.12 443.401 83.12C444.281 83.12 445.031 83.3253 445.649 83.736C446.268 84.1413 446.729 84.72 447.033 85.472C447.343 86.224 447.465 87.1173 447.401 88.152H445.729V87.544C445.719 86.5413 445.527 85.8 445.153 85.32C444.785 84.84 444.223 84.6 443.465 84.6C442.628 84.6 441.999 84.864 441.577 85.392C441.156 85.92 440.945 86.6827 440.945 87.68C440.945 88.6293 441.156 89.3653 441.577 89.888C441.999 90.4053 442.607 90.664 443.401 90.664C443.924 90.664 444.375 90.5467 444.753 90.312C445.137 90.072 445.436 89.7307 445.649 89.288L447.289 89.808C446.953 90.5813 446.444 91.1813 445.761 91.608C445.079 92.0293 444.319 92.24 443.481 92.24ZM440.401 88.152V86.848H446.569V88.152H440.401ZM449.604 92L446.964 83.352L448.62 83.36L450.428 89.288L452.252 83.36H453.692L455.516 89.288L457.324 83.36H458.972L456.332 92H454.988L452.972 85.744L450.948 92H449.604ZM466.176 92.24C465.024 92.24 464.042 91.9893 463.232 91.488C462.421 90.9813 461.8 90.2773 461.368 89.376C460.941 88.4747 460.728 87.4293 460.728 86.24C460.728 85.0507 460.941 84.0053 461.368 83.104C461.8 82.2027 462.421 81.5013 463.232 81C464.042 80.4933 465.024 80.24 466.176 80.24C467.504 80.24 468.602 80.576 469.472 81.248C470.346 81.92 470.954 82.824 471.296 83.96L469.6 84.416C469.376 83.6107 468.976 82.9787 468.4 82.52C467.829 82.0613 467.088 81.832 466.176 81.832C465.36 81.832 464.68 82.016 464.136 82.384C463.592 82.752 463.181 83.2667 462.904 83.928C462.632 84.5893 462.496 85.36 462.496 86.24C462.49 87.12 462.624 87.8907 462.896 88.552C463.173 89.2133 463.584 89.728 464.128 90.096C464.677 90.464 465.36 90.648 466.176 90.648C467.088 90.648 467.829 90.4187 468.4 89.96C468.976 89.496 469.376 88.864 469.6 88.064L471.296 88.52C470.954 89.656 470.346 90.56 469.472 91.232C468.602 91.904 467.504 92.24 466.176 92.24ZM471.935 92V83.36H473.423V85.456L473.215 85.184C473.322 84.9067 473.46 84.6533 473.631 84.424C473.802 84.1893 473.999 83.9973 474.223 83.848C474.442 83.688 474.684 83.5653 474.951 83.48C475.223 83.3893 475.5 83.336 475.783 83.32C476.066 83.2987 476.338 83.312 476.599 83.36V84.928C476.316 84.8533 476.002 84.832 475.655 84.864C475.314 84.896 474.999 85.0053 474.711 85.192C474.439 85.368 474.223 85.5813 474.063 85.832C473.908 86.0827 473.796 86.3627 473.727 86.672C473.658 86.976 473.623 87.2987 473.623 87.64V92H471.935ZM480.678 92.24C479.82 92.24 479.065 92.0533 478.414 91.68C477.769 91.3013 477.265 90.776 476.902 90.104C476.545 89.4267 476.366 88.6427 476.366 87.752C476.366 86.808 476.542 85.9893 476.894 85.296C477.252 84.6027 477.748 84.0667 478.382 83.688C479.017 83.3093 479.756 83.12 480.598 83.12C481.478 83.12 482.228 83.3253 482.846 83.736C483.465 84.1413 483.926 84.72 484.23 85.472C484.54 86.224 484.662 87.1173 484.598 88.152H482.926V87.544C482.916 86.5413 482.724 85.8 482.35 85.32C481.982 84.84 481.42 84.6 480.662 84.6C479.825 84.6 479.196 84.864 478.774 85.392C478.353 85.92 478.142 86.6827 478.142 87.68C478.142 88.6293 478.353 89.3653 478.774 89.888C479.196 90.4053 479.804 90.664 480.598 90.664C481.121 90.664 481.572 90.5467 481.95 90.312C482.334 90.072 482.633 89.7307 482.846 89.288L484.486 89.808C484.15 90.5813 483.641 91.1813 482.958 91.608C482.276 92.0293 481.516 92.24 480.678 92.24ZM477.598 88.152V86.848H483.766V88.152H477.598ZM488.705 92.24C487.9 92.24 487.204 92.04 486.617 91.64C486.036 91.24 485.585 90.696 485.265 90.008C484.95 89.3147 484.793 88.536 484.793 87.672C484.793 86.8027 484.953 86.0267 485.273 85.344C485.593 84.656 486.046 84.1147 486.633 83.72C487.225 83.32 487.926 83.12 488.737 83.12C489.553 83.12 490.238 83.32 490.793 83.72C491.353 84.1147 491.774 84.656 492.057 85.344C492.345 86.032 492.489 86.808 492.489 87.672C492.489 88.536 492.345 89.312 492.057 90C491.769 90.688 491.345 91.2347 490.785 91.64C490.225 92.04 489.532 92.24 488.705 92.24ZM488.937 90.728C489.486 90.728 489.934 90.5973 490.281 90.336C490.628 90.0747 490.881 89.7147 491.041 89.256C491.201 88.7973 491.281 88.2693 491.281 87.672C491.281 87.0747 491.198 86.5467 491.033 86.088C490.873 85.6293 490.622 85.272 490.281 85.016C489.945 84.76 489.516 84.632 488.993 84.632C488.438 84.632 487.982 84.768 487.625 85.04C487.268 85.312 487.001 85.6773 486.825 86.136C486.654 86.5947 486.569 87.1067 486.569 87.672C486.569 88.2427 486.654 88.76 486.825 89.224C487.001 89.6827 487.262 90.048 487.609 90.32C487.961 90.592 488.404 90.728 488.937 90.728ZM491.281 92V85.784H491.089V80.48H492.769V92H491.281ZM494.048 81.944V80.32H495.72V81.944H494.048ZM494.048 92V83.36H495.72V92H494.048ZM501.946 92C501.402 92.1067 500.869 92.152 500.346 92.136C499.823 92.12 499.357 92.0187 498.946 91.832C498.535 91.6453 498.226 91.352 498.018 90.952C497.831 90.5947 497.73 90.232 497.714 89.864C497.703 89.4907 497.698 89.0693 497.698 88.6V80.96H499.378V88.52C499.378 88.8667 499.381 89.168 499.386 89.424C499.397 89.68 499.453 89.896 499.554 90.072C499.746 90.4027 500.05 90.592 500.466 90.64C500.887 90.6827 501.381 90.664 501.946 90.584V92ZM496.042 84.704V83.36H501.946V84.704H496.042Z" fill="#FF5B0D"/>
<path d="M471.863 222V184.248L463.407 189.396V182.126L471.863 177.072H478.508V222H471.863ZM499.311 222.936C497.002 222.936 494.849 222.468 492.852 221.532C490.876 220.575 489.181 219.265 487.767 217.601C486.352 215.916 485.344 213.982 484.74 211.798L491.012 210.113C491.365 211.444 491.968 212.598 492.821 213.576C493.695 214.554 494.714 215.313 495.879 215.854C497.044 216.374 498.25 216.634 499.498 216.634C501.141 216.634 502.628 216.238 503.96 215.448C505.312 214.658 506.372 213.597 507.142 212.266C507.932 210.934 508.328 209.468 508.328 207.866C508.328 206.223 507.922 204.736 507.111 203.405C506.32 202.074 505.249 201.023 503.897 200.254C502.566 199.463 501.1 199.068 499.498 199.068C497.668 199.068 496.118 199.432 494.849 200.16C493.58 200.888 492.592 201.73 491.885 202.687L486.207 200.69L487.58 177.072H511.822V183.218H490.918L493.57 180.754L492.478 198.444L491.199 196.79C492.384 195.605 493.799 194.7 495.442 194.076C497.085 193.452 498.718 193.14 500.34 193.14C503.128 193.14 505.613 193.785 507.797 195.074C510.002 196.364 511.739 198.122 513.008 200.347C514.276 202.552 514.911 205.058 514.911 207.866C514.911 210.654 514.193 213.191 512.758 215.479C511.323 217.746 509.42 219.556 507.048 220.908C504.677 222.26 502.098 222.936 499.311 222.936Z" fill="#F5834F"/>
<path d="M520.937 222L519.237 220.3L542.068 197.52L543.768 199.203L520.937 222ZM538.668 222.51C537.546 222.51 536.52 222.238 535.591 221.694C534.673 221.139 533.936 220.402 533.381 219.484C532.825 218.555 532.548 217.523 532.548 216.39C532.548 215.279 532.831 214.259 533.398 213.33C533.964 212.401 534.712 211.658 535.642 211.103C536.571 210.548 537.58 210.27 538.668 210.27C539.79 210.27 540.815 210.548 541.745 211.103C542.674 211.647 543.411 212.384 543.955 213.313C544.51 214.231 544.788 215.257 544.788 216.39C544.788 217.523 544.51 218.555 543.955 219.484C543.411 220.402 542.674 221.139 541.745 221.694C540.815 222.238 539.79 222.51 538.668 222.51ZM538.668 220.249C539.359 220.249 539.999 220.073 540.589 219.722C541.178 219.371 541.648 218.906 542 218.328C542.351 217.739 542.527 217.093 542.527 216.39C542.527 215.687 542.351 215.047 542 214.469C541.648 213.88 541.178 213.409 540.589 213.058C539.999 212.707 539.359 212.531 538.668 212.531C537.965 212.531 537.319 212.707 536.73 213.058C536.152 213.409 535.681 213.88 535.319 214.469C534.967 215.047 534.792 215.687 534.792 216.39C534.792 217.093 534.967 217.739 535.319 218.328C535.681 218.906 536.152 219.371 536.73 219.722C537.319 220.073 537.965 220.249 538.668 220.249ZM524.337 209.25C523.215 209.25 522.189 208.978 521.26 208.434C520.33 207.879 519.588 207.142 519.033 206.224C518.489 205.295 518.217 204.263 518.217 203.13C518.217 202.019 518.5 200.999 519.067 200.07C519.633 199.141 520.381 198.398 521.311 197.843C522.24 197.288 523.249 197.01 524.337 197.01C525.459 197.01 526.479 197.288 527.397 197.843C528.326 198.387 529.068 199.124 529.624 200.053C530.179 200.971 530.457 201.997 530.457 203.13C530.457 204.263 530.179 205.295 529.624 206.224C529.068 207.142 528.326 207.879 527.397 208.434C526.479 208.978 525.459 209.25 524.337 209.25ZM524.337 206.989C525.039 206.989 525.68 206.813 526.258 206.462C526.847 206.111 527.317 205.646 527.669 205.068C528.02 204.479 528.196 203.833 528.196 203.13C528.196 202.427 528.02 201.787 527.669 201.209C527.317 200.62 526.847 200.149 526.258 199.798C525.68 199.447 525.039 199.271 524.337 199.271C523.634 199.271 522.988 199.447 522.399 199.798C521.821 200.149 521.356 200.62 521.005 201.209C520.653 201.787 520.478 202.427 520.478 203.13C520.478 203.833 520.653 204.479 521.005 205.068C521.356 205.646 521.821 206.111 522.399 206.462C522.988 206.813 523.634 206.989 524.337 206.989Z" fill="#F5834F"/>
<path d="M470.369 242V230.48H472.041V240.424H477.257V242H470.369ZM481.328 242.24C480.469 242.24 479.714 242.053 479.064 241.68C478.418 241.301 477.914 240.776 477.552 240.104C477.194 239.427 477.016 238.643 477.016 237.752C477.016 236.808 477.192 235.989 477.544 235.296C477.901 234.603 478.397 234.067 479.032 233.688C479.666 233.309 480.405 233.12 481.248 233.12C482.128 233.12 482.877 233.325 483.496 233.736C484.114 234.141 484.576 234.72 484.88 235.472C485.189 236.224 485.312 237.117 485.248 238.152H483.576V237.544C483.565 236.541 483.373 235.8 483 235.32C482.632 234.84 482.069 234.6 481.312 234.6C480.474 234.6 479.845 234.864 479.424 235.392C479.002 235.92 478.792 236.683 478.792 237.68C478.792 238.629 479.002 239.365 479.424 239.888C479.845 240.405 480.453 240.664 481.248 240.664C481.77 240.664 482.221 240.547 482.6 240.312C482.984 240.072 483.282 239.731 483.496 239.288L485.136 239.808C484.8 240.581 484.29 241.181 483.608 241.608C482.925 242.029 482.165 242.24 481.328 242.24ZM478.248 238.152V236.848H484.416V238.152H478.248ZM491.752 242V237.752C491.752 237.416 491.723 237.072 491.664 236.72C491.611 236.363 491.504 236.032 491.344 235.728C491.189 235.424 490.968 235.179 490.68 234.992C490.397 234.805 490.027 234.712 489.568 234.712C489.269 234.712 488.987 234.763 488.72 234.864C488.453 234.96 488.219 235.117 488.016 235.336C487.819 235.555 487.661 235.843 487.544 236.2C487.432 236.557 487.376 236.992 487.376 237.504L486.336 237.112C486.336 236.328 486.483 235.637 486.776 235.04C487.069 234.437 487.491 233.968 488.04 233.632C488.589 233.296 489.253 233.128 490.032 233.128C490.629 233.128 491.131 233.224 491.536 233.416C491.941 233.608 492.269 233.861 492.52 234.176C492.776 234.485 492.971 234.824 493.104 235.192C493.237 235.56 493.328 235.92 493.376 236.272C493.424 236.624 493.448 236.933 493.448 237.2V242H491.752ZM485.68 242V233.36H487.176V235.856H487.376V242H485.68ZM497.972 246.08C497.508 246.08 497.057 246.008 496.62 245.864C496.188 245.72 495.793 245.507 495.436 245.224C495.079 244.947 494.783 244.603 494.548 244.192L496.092 243.408C496.279 243.776 496.545 244.045 496.892 244.216C497.239 244.387 497.604 244.472 497.988 244.472C498.463 244.472 498.868 244.387 499.204 244.216C499.54 244.051 499.793 243.8 499.964 243.464C500.14 243.128 500.225 242.712 500.22 242.216V239.8H500.42V233.36H501.9V242.232C501.9 242.461 501.892 242.68 501.876 242.888C501.86 243.096 501.831 243.304 501.788 243.512C501.665 244.093 501.431 244.573 501.084 244.952C500.743 245.331 500.305 245.613 499.772 245.8C499.244 245.987 498.644 246.08 497.972 246.08ZM497.844 242.24C497.039 242.24 496.343 242.04 495.756 241.64C495.175 241.24 494.724 240.696 494.404 240.008C494.089 239.315 493.932 238.536 493.932 237.672C493.932 236.803 494.092 236.027 494.412 235.344C494.732 234.656 495.185 234.115 495.772 233.72C496.364 233.32 497.065 233.12 497.876 233.12C498.692 233.12 499.377 233.32 499.932 233.72C500.492 234.115 500.913 234.656 501.196 235.344C501.484 236.032 501.628 236.808 501.628 237.672C501.628 238.536 501.484 239.312 501.196 240C500.908 240.688 500.484 241.235 499.924 241.64C499.364 242.04 498.671 242.24 497.844 242.24ZM498.076 240.728C498.625 240.728 499.073 240.597 499.42 240.336C499.767 240.075 500.02 239.715 500.18 239.256C500.34 238.797 500.42 238.269 500.42 237.672C500.42 237.075 500.337 236.547 500.172 236.088C500.012 235.629 499.761 235.272 499.42 235.016C499.084 234.76 498.655 234.632 498.132 234.632C497.577 234.632 497.121 234.768 496.764 235.04C496.407 235.312 496.14 235.677 495.964 236.136C495.793 236.595 495.708 237.107 495.708 237.672C495.708 238.243 495.793 238.76 495.964 239.224C496.14 239.683 496.401 240.048 496.748 240.32C497.1 240.592 497.543 240.728 498.076 240.728ZM507.97 242C507.426 242.107 506.893 242.152 506.37 242.136C505.848 242.12 505.381 242.019 504.97 241.832C504.56 241.645 504.25 241.352 504.042 240.952C503.856 240.595 503.754 240.232 503.738 239.864C503.728 239.491 503.722 239.069 503.722 238.6V230.96H505.402V238.52C505.402 238.867 505.405 239.168 505.41 239.424C505.421 239.68 505.477 239.896 505.578 240.072C505.77 240.403 506.074 240.592 506.49 240.64C506.912 240.683 507.405 240.664 507.97 240.584V242ZM502.066 234.704V233.36H507.97V234.704H502.066ZM514.736 242V237.752C514.736 237.416 514.707 237.072 514.648 236.72C514.595 236.363 514.488 236.032 514.328 235.728C514.173 235.424 513.952 235.179 513.664 234.992C513.381 234.805 513.011 234.712 512.552 234.712C512.253 234.712 511.971 234.763 511.704 234.864C511.437 234.96 511.203 235.117 511 235.336C510.803 235.555 510.645 235.843 510.528 236.2C510.416 236.557 510.36 236.992 510.36 237.504L509.32 237.112C509.32 236.328 509.467 235.637 509.76 235.04C510.053 234.437 510.475 233.968 511.024 233.632C511.573 233.296 512.237 233.128 513.016 233.128C513.613 233.128 514.115 233.224 514.52 233.416C514.925 233.608 515.253 233.861 515.504 234.176C515.76 234.485 515.955 234.824 516.088 235.192C516.221 235.56 516.312 235.92 516.36 236.272C516.408 236.624 516.432 236.933 516.432 237.2V242H514.736ZM508.664 242V230.48H510.16V236.696H510.36V242H508.664ZM523.231 242.24C522.367 242.24 521.617 242.045 520.983 241.656C520.348 241.267 519.857 240.731 519.511 240.048C519.169 239.36 518.999 238.568 518.999 237.672C518.999 236.771 519.175 235.979 519.527 235.296C519.879 234.608 520.372 234.075 521.007 233.696C521.641 233.312 522.383 233.12 523.231 233.12C524.095 233.12 524.844 233.315 525.479 233.704C526.113 234.093 526.604 234.629 526.951 235.312C527.297 235.995 527.471 236.781 527.471 237.672C527.471 238.573 527.295 239.368 526.943 240.056C526.596 240.739 526.105 241.275 525.471 241.664C524.836 242.048 524.089 242.24 523.231 242.24ZM523.231 240.664C524.057 240.664 524.673 240.387 525.079 239.832C525.489 239.272 525.695 238.552 525.695 237.672C525.695 236.771 525.487 236.051 525.071 235.512C524.66 234.968 524.047 234.696 523.231 234.696C522.671 234.696 522.209 234.824 521.847 235.08C521.484 235.331 521.215 235.68 521.039 236.128C520.863 236.571 520.775 237.085 520.775 237.672C520.775 238.579 520.983 239.304 521.399 239.848C521.815 240.392 522.425 240.664 523.231 240.664ZM528.901 242V233.056C528.901 232.837 528.909 232.605 528.925 232.36C528.941 232.109 528.986 231.864 529.061 231.624C529.141 231.379 529.271 231.155 529.453 230.952C529.671 230.712 529.911 230.541 530.173 230.44C530.434 230.339 530.693 230.28 530.949 230.264C531.21 230.248 531.45 230.24 531.669 230.24H532.757V231.616H531.749C531.354 231.616 531.058 231.715 530.861 231.912C530.669 232.104 530.573 232.379 530.573 232.736V242H528.901ZM527.469 234.704V233.36H532.757V234.704H527.469ZM461.083 264.24C459.931 264.24 458.95 263.989 458.139 263.488C457.328 262.981 456.707 262.277 456.275 261.376C455.848 260.475 455.635 259.429 455.635 258.24C455.635 257.051 455.848 256.005 456.275 255.104C456.707 254.203 457.328 253.501 458.139 253C458.95 252.493 459.931 252.24 461.083 252.24C462.411 252.24 463.51 252.576 464.379 253.248C465.254 253.92 465.862 254.824 466.203 255.96L464.507 256.416C464.283 255.611 463.883 254.979 463.307 254.52C462.736 254.061 461.995 253.832 461.083 253.832C460.267 253.832 459.587 254.016 459.043 254.384C458.499 254.752 458.088 255.267 457.811 255.928C457.539 256.589 457.403 257.36 457.403 258.24C457.398 259.12 457.531 259.891 457.803 260.552C458.08 261.213 458.491 261.728 459.035 262.096C459.584 262.464 460.267 262.648 461.083 262.648C461.995 262.648 462.736 262.419 463.307 261.96C463.883 261.496 464.283 260.864 464.507 260.064L466.203 260.52C465.862 261.656 465.254 262.56 464.379 263.232C463.51 263.904 462.411 264.24 461.083 264.24ZM466.842 264V255.36H468.33V257.456L468.122 257.184C468.229 256.907 468.368 256.653 468.538 256.424C468.709 256.189 468.906 255.997 469.13 255.848C469.349 255.688 469.592 255.565 469.858 255.48C470.13 255.389 470.408 255.336 470.69 255.32C470.973 255.299 471.245 255.312 471.506 255.36V256.928C471.224 256.853 470.909 256.832 470.562 256.864C470.221 256.896 469.906 257.005 469.618 257.192C469.346 257.368 469.13 257.581 468.97 257.832C468.816 258.083 468.704 258.363 468.634 258.672C468.565 258.976 468.53 259.299 468.53 259.64V264H466.842ZM475.586 264.24C474.727 264.24 473.972 264.053 473.322 263.68C472.676 263.301 472.172 262.776 471.81 262.104C471.452 261.427 471.274 260.643 471.274 259.752C471.274 258.808 471.45 257.989 471.802 257.296C472.159 256.603 472.655 256.067 473.29 255.688C473.924 255.309 474.663 255.12 475.506 255.12C476.386 255.12 477.135 255.325 477.754 255.736C478.372 256.141 478.834 256.72 479.138 257.472C479.447 258.224 479.57 259.117 479.506 260.152H477.834V259.544C477.823 258.541 477.631 257.8 477.258 257.32C476.89 256.84 476.327 256.6 475.57 256.6C474.732 256.6 474.103 256.864 473.682 257.392C473.26 257.92 473.05 258.683 473.05 259.68C473.05 260.629 473.26 261.365 473.682 261.888C474.103 262.405 474.711 262.664 475.506 262.664C476.028 262.664 476.479 262.547 476.858 262.312C477.242 262.072 477.54 261.731 477.754 261.288L479.394 261.808C479.058 262.581 478.548 263.181 477.866 263.608C477.183 264.029 476.423 264.24 475.586 264.24ZM472.506 260.152V258.848H478.674V260.152H472.506ZM483.613 264.24C482.807 264.24 482.111 264.04 481.525 263.64C480.943 263.24 480.493 262.696 480.173 262.008C479.858 261.315 479.701 260.536 479.701 259.672C479.701 258.803 479.861 258.027 480.181 257.344C480.501 256.656 480.954 256.115 481.541 255.72C482.133 255.32 482.834 255.12 483.645 255.12C484.461 255.12 485.146 255.32 485.701 255.72C486.261 256.115 486.682 256.656 486.965 257.344C487.253 258.032 487.397 258.808 487.397 259.672C487.397 260.536 487.253 261.312 486.965 262C486.677 262.688 486.253 263.235 485.693 263.64C485.133 264.04 484.439 264.24 483.613 264.24ZM483.845 262.728C484.394 262.728 484.842 262.597 485.189 262.336C485.535 262.075 485.789 261.715 485.949 261.256C486.109 260.797 486.189 260.269 486.189 259.672C486.189 259.075 486.106 258.547 485.941 258.088C485.781 257.629 485.53 257.272 485.189 257.016C484.853 256.76 484.423 256.632 483.901 256.632C483.346 256.632 482.89 256.768 482.533 257.04C482.175 257.312 481.909 257.677 481.733 258.136C481.562 258.595 481.477 259.107 481.477 259.672C481.477 260.243 481.562 260.76 481.733 261.224C481.909 261.683 482.17 262.048 482.517 262.32C482.869 262.592 483.311 262.728 483.845 262.728ZM486.189 264V257.784H485.997V252.48H487.677V264H486.189ZM488.955 253.944V252.32H490.627V253.944H488.955ZM488.955 264V255.36H490.627V264H488.955ZM496.853 264C496.309 264.107 495.776 264.152 495.253 264.136C494.731 264.12 494.264 264.019 493.853 263.832C493.443 263.645 493.133 263.352 492.925 262.952C492.739 262.595 492.637 262.232 492.621 261.864C492.611 261.491 492.605 261.069 492.605 260.6V252.96H494.285V260.52C494.285 260.867 494.288 261.168 494.293 261.424C494.304 261.68 494.36 261.896 494.461 262.072C494.653 262.403 494.957 262.592 495.373 262.64C495.795 262.683 496.288 262.664 496.853 262.584V264ZM490.949 256.704V255.36H496.853V256.704H490.949ZM499.638 264V252.48H501.31V257.448H507.07V252.48H508.75V264H507.07V259.024H501.31V264H499.638ZM510.037 253.944V252.32H511.709V253.944H510.037ZM510.037 264V255.36H511.709V264H510.037ZM516.296 264.232C515.245 264.232 514.389 264 513.728 263.536C513.067 263.072 512.661 262.419 512.512 261.576L514.224 261.312C514.331 261.76 514.576 262.115 514.96 262.376C515.349 262.632 515.832 262.76 516.408 262.76C516.931 262.76 517.339 262.653 517.632 262.44C517.931 262.227 518.08 261.933 518.08 261.56C518.08 261.341 518.027 261.165 517.92 261.032C517.819 260.893 517.603 260.763 517.272 260.64C516.941 260.517 516.437 260.365 515.76 260.184C515.019 259.992 514.429 259.787 513.992 259.568C513.56 259.344 513.251 259.085 513.064 258.792C512.883 258.493 512.792 258.133 512.792 257.712C512.792 257.189 512.931 256.733 513.208 256.344C513.485 255.955 513.875 255.653 514.376 255.44C514.883 255.227 515.475 255.12 516.152 255.12C516.813 255.12 517.403 255.224 517.92 255.432C518.437 255.64 518.856 255.936 519.176 256.32C519.496 256.699 519.688 257.144 519.752 257.656L518.04 257.968C517.981 257.552 517.787 257.224 517.456 256.984C517.125 256.744 516.696 256.613 516.168 256.592C515.661 256.571 515.251 256.656 514.936 256.848C514.621 257.035 514.464 257.293 514.464 257.624C514.464 257.816 514.523 257.979 514.64 258.112C514.763 258.245 514.997 258.373 515.344 258.496C515.691 258.619 516.203 258.765 516.88 258.936C517.605 259.123 518.181 259.331 518.608 259.56C519.035 259.784 519.339 260.053 519.52 260.368C519.707 260.677 519.8 261.053 519.8 261.496C519.8 262.349 519.488 263.019 518.864 263.504C518.245 263.989 517.389 264.232 516.296 264.232ZM525.394 264C524.85 264.107 524.317 264.152 523.794 264.136C523.271 264.12 522.805 264.019 522.394 263.832C521.983 263.645 521.674 263.352 521.466 262.952C521.279 262.595 521.178 262.232 521.162 261.864C521.151 261.491 521.146 261.069 521.146 260.6V252.96H522.826V260.52C522.826 260.867 522.829 261.168 522.834 261.424C522.845 261.68 522.901 261.896 523.002 262.072C523.194 262.403 523.498 262.592 523.914 262.64C524.335 262.683 524.829 262.664 525.394 262.584V264ZM519.49 256.704V255.36H525.394V256.704H519.49ZM529.457 264.24C528.593 264.24 527.844 264.045 527.209 263.656C526.574 263.267 526.084 262.731 525.737 262.048C525.396 261.36 525.225 260.568 525.225 259.672C525.225 258.771 525.401 257.979 525.753 257.296C526.105 256.608 526.598 256.075 527.233 255.696C527.868 255.312 528.609 255.12 529.457 255.12C530.321 255.12 531.07 255.315 531.705 255.704C532.34 256.093 532.83 256.629 533.177 257.312C533.524 257.995 533.697 258.781 533.697 259.672C533.697 260.573 533.521 261.368 533.169 262.056C532.822 262.739 532.332 263.275 531.697 263.664C531.062 264.048 530.316 264.24 529.457 264.24ZM529.457 262.664C530.284 262.664 530.9 262.387 531.305 261.832C531.716 261.272 531.921 260.552 531.921 259.672C531.921 258.771 531.713 258.051 531.297 257.512C530.886 256.968 530.273 256.696 529.457 256.696C528.897 256.696 528.436 256.824 528.073 257.08C527.71 257.331 527.441 257.68 527.265 258.128C527.089 258.571 527.001 259.085 527.001 259.672C527.001 260.579 527.209 261.304 527.625 261.848C528.041 262.392 528.652 262.664 529.457 262.664ZM534.335 264V255.36H535.823V257.456L535.615 257.184C535.722 256.907 535.86 256.653 536.031 256.424C536.202 256.189 536.399 255.997 536.623 255.848C536.842 255.688 537.084 255.565 537.351 255.48C537.623 255.389 537.9 255.336 538.183 255.32C538.466 255.299 538.738 255.312 538.999 255.36V256.928C538.716 256.853 538.402 256.832 538.055 256.864C537.714 256.896 537.399 257.005 537.111 257.192C536.839 257.368 536.623 257.581 536.463 257.832C536.308 258.083 536.196 258.363 536.127 258.672C536.058 258.976 536.023 259.299 536.023 259.64V264H534.335ZM540.352 267.84L542.024 263.288L542.048 264.632L538.28 255.36H540.024L542.84 262.52H542.328L545.016 255.36H546.712L541.944 267.84H540.352Z" fill="#F5834F"/>
<path d="M432.206 364V326.248L423.751 331.396V324.126L432.206 319.072H438.852V364H432.206ZM461.994 364.936C458.937 364.936 456.233 364.27 453.882 362.939C451.532 361.587 449.681 359.736 448.329 357.386C446.998 355.035 446.332 352.331 446.332 349.274V333.798C446.332 330.741 446.998 328.037 448.329 325.686C449.681 323.336 451.532 321.495 453.882 320.164C456.233 318.812 458.937 318.136 461.994 318.136C465.052 318.136 467.756 318.812 470.106 320.164C472.457 321.495 474.298 323.336 475.629 325.686C476.981 328.037 477.657 330.741 477.657 333.798V349.274C477.657 352.331 476.981 355.035 475.629 357.386C474.298 359.736 472.457 361.587 470.106 362.939C467.756 364.27 465.052 364.936 461.994 364.936ZM461.994 358.696C463.658 358.696 465.166 358.301 466.518 357.51C467.891 356.699 468.983 355.618 469.794 354.266C470.606 352.893 471.011 351.364 471.011 349.679V333.33C471.011 331.666 470.606 330.158 469.794 328.806C468.983 327.434 467.891 326.352 466.518 325.562C465.166 324.75 463.658 324.345 461.994 324.345C460.33 324.345 458.812 324.75 457.439 325.562C456.087 326.352 455.006 327.434 454.194 328.806C453.383 330.158 452.978 331.666 452.978 333.33V349.679C452.978 351.364 453.383 352.893 454.194 354.266C455.006 355.618 456.087 356.699 457.439 357.51C458.812 358.301 460.33 358.696 461.994 358.696Z" fill="#FBB795"/>
<path d="M484.937 364L483.237 362.3L506.068 339.52L507.768 341.203L484.937 364ZM502.668 364.51C501.546 364.51 500.52 364.238 499.591 363.694C498.673 363.139 497.936 362.402 497.381 361.484C496.825 360.555 496.548 359.523 496.548 358.39C496.548 357.279 496.831 356.259 497.398 355.33C497.964 354.401 498.712 353.658 499.642 353.103C500.571 352.548 501.58 352.27 502.668 352.27C503.79 352.27 504.815 352.548 505.745 353.103C506.674 353.647 507.411 354.384 507.955 355.313C508.51 356.231 508.788 357.257 508.788 358.39C508.788 359.523 508.51 360.555 507.955 361.484C507.411 362.402 506.674 363.139 505.745 363.694C504.815 364.238 503.79 364.51 502.668 364.51ZM502.668 362.249C503.359 362.249 503.999 362.073 504.589 361.722C505.178 361.371 505.648 360.906 506 360.328C506.351 359.739 506.527 359.093 506.527 358.39C506.527 357.687 506.351 357.047 506 356.469C505.648 355.88 505.178 355.409 504.589 355.058C503.999 354.707 503.359 354.531 502.668 354.531C501.965 354.531 501.319 354.707 500.73 355.058C500.152 355.409 499.681 355.88 499.319 356.469C498.967 357.047 498.792 357.687 498.792 358.39C498.792 359.093 498.967 359.739 499.319 360.328C499.681 360.906 500.152 361.371 500.73 361.722C501.319 362.073 501.965 362.249 502.668 362.249ZM488.337 351.25C487.215 351.25 486.189 350.978 485.26 350.434C484.33 349.879 483.588 349.142 483.033 348.224C482.489 347.295 482.217 346.263 482.217 345.13C482.217 344.019 482.5 342.999 483.067 342.07C483.633 341.141 484.381 340.398 485.311 339.843C486.24 339.288 487.249 339.01 488.337 339.01C489.459 339.01 490.479 339.288 491.397 339.843C492.326 340.387 493.068 341.124 493.624 342.053C494.179 342.971 494.457 343.997 494.457 345.13C494.457 346.263 494.179 347.295 493.624 348.224C493.068 349.142 492.326 349.879 491.397 350.434C490.479 350.978 489.459 351.25 488.337 351.25ZM488.337 348.989C489.039 348.989 489.68 348.813 490.258 348.462C490.847 348.111 491.317 347.646 491.669 347.068C492.02 346.479 492.196 345.833 492.196 345.13C492.196 344.427 492.02 343.787 491.669 343.209C491.317 342.62 490.847 342.149 490.258 341.798C489.68 341.447 489.039 341.271 488.337 341.271C487.634 341.271 486.988 341.447 486.399 341.798C485.821 342.149 485.356 342.62 485.005 343.209C484.653 343.787 484.478 344.427 484.478 345.13C484.478 345.833 484.653 346.479 485.005 347.068C485.356 347.646 485.821 348.111 486.399 348.462C486.988 348.813 487.634 348.989 488.337 348.989Z" fill="#FBB795"/>
<path d="M437.085 384.24C435.933 384.24 434.952 383.989 434.141 383.488C433.331 382.981 432.709 382.277 432.277 381.376C431.851 380.475 431.637 379.429 431.637 378.24C431.637 377.051 431.851 376.005 432.277 375.104C432.709 374.203 433.331 373.501 434.141 373C434.952 372.493 435.933 372.24 437.085 372.24C438.413 372.24 439.512 372.576 440.381 373.248C441.256 373.92 441.864 374.824 442.205 375.96L440.509 376.416C440.285 375.611 439.885 374.979 439.309 374.52C438.739 374.061 437.997 373.832 437.085 373.832C436.269 373.832 435.589 374.016 435.045 374.384C434.501 374.752 434.091 375.267 433.813 375.928C433.541 376.589 433.405 377.36 433.405 378.24C433.4 379.12 433.533 379.891 433.805 380.552C434.083 381.213 434.493 381.728 435.037 382.096C435.587 382.464 436.269 382.648 437.085 382.648C437.997 382.648 438.739 382.419 439.309 381.96C439.885 381.496 440.285 380.864 440.509 380.064L442.205 380.52C441.864 381.656 441.256 382.56 440.381 383.232C439.512 383.904 438.413 384.24 437.085 384.24ZM442.845 384V375.36H444.333V377.456L444.125 377.184C444.231 376.907 444.37 376.653 444.541 376.424C444.711 376.189 444.909 375.997 445.133 375.848C445.351 375.688 445.594 375.565 445.861 375.48C446.133 375.389 446.41 375.336 446.693 375.32C446.975 375.299 447.247 375.312 447.509 375.36V376.928C447.226 376.853 446.911 376.832 446.565 376.864C446.223 376.896 445.909 377.005 445.621 377.192C445.349 377.368 445.133 377.581 444.973 377.832C444.818 378.083 444.706 378.363 444.637 378.672C444.567 378.976 444.533 379.299 444.533 379.64V384H442.845ZM451.588 384.24C450.729 384.24 449.975 384.053 449.324 383.68C448.679 383.301 448.175 382.776 447.812 382.104C447.455 381.427 447.276 380.643 447.276 379.752C447.276 378.808 447.452 377.989 447.804 377.296C448.161 376.603 448.657 376.067 449.292 375.688C449.927 375.309 450.665 375.12 451.508 375.12C452.388 375.12 453.137 375.325 453.756 375.736C454.375 376.141 454.836 376.72 455.14 377.472C455.449 378.224 455.572 379.117 455.508 380.152H453.836V379.544C453.825 378.541 453.633 377.8 453.26 377.32C452.892 376.84 452.329 376.6 451.572 376.6C450.735 376.6 450.105 376.864 449.684 377.392C449.263 377.92 449.052 378.683 449.052 379.68C449.052 380.629 449.263 381.365 449.684 381.888C450.105 382.405 450.713 382.664 451.508 382.664C452.031 382.664 452.481 382.547 452.86 382.312C453.244 382.072 453.543 381.731 453.756 381.288L455.396 381.808C455.06 382.581 454.551 383.181 453.868 383.608C453.185 384.029 452.425 384.24 451.588 384.24ZM448.508 380.152V378.848H454.676V380.152H448.508ZM459.615 384.24C458.809 384.24 458.113 384.04 457.527 383.64C456.945 383.24 456.495 382.696 456.175 382.008C455.86 381.315 455.703 380.536 455.703 379.672C455.703 378.803 455.863 378.027 456.183 377.344C456.503 376.656 456.956 376.115 457.543 375.72C458.135 375.32 458.836 375.12 459.647 375.12C460.463 375.12 461.148 375.32 461.703 375.72C462.263 376.115 462.684 376.656 462.967 377.344C463.255 378.032 463.399 378.808 463.399 379.672C463.399 380.536 463.255 381.312 462.967 382C462.679 382.688 462.255 383.235 461.695 383.64C461.135 384.04 460.441 384.24 459.615 384.24ZM459.847 382.728C460.396 382.728 460.844 382.597 461.191 382.336C461.537 382.075 461.791 381.715 461.951 381.256C462.111 380.797 462.191 380.269 462.191 379.672C462.191 379.075 462.108 378.547 461.943 378.088C461.783 377.629 461.532 377.272 461.191 377.016C460.855 376.76 460.425 376.632 459.903 376.632C459.348 376.632 458.892 376.768 458.535 377.04C458.177 377.312 457.911 377.677 457.735 378.136C457.564 378.595 457.479 379.107 457.479 379.672C457.479 380.243 457.564 380.76 457.735 381.224C457.911 381.683 458.172 382.048 458.519 382.32C458.871 382.592 459.313 382.728 459.847 382.728ZM462.191 384V377.784H461.999V372.48H463.679V384H462.191ZM464.957 373.944V372.32H466.629V373.944H464.957ZM464.957 384V375.36H466.629V384H464.957ZM472.856 384C472.312 384.107 471.778 384.152 471.256 384.136C470.733 384.12 470.266 384.019 469.856 383.832C469.445 383.645 469.136 383.352 468.928 382.952C468.741 382.595 468.64 382.232 468.624 381.864C468.613 381.491 468.608 381.069 468.608 380.6V372.96H470.288V380.52C470.288 380.867 470.29 381.168 470.296 381.424C470.306 381.68 470.362 381.896 470.464 382.072C470.656 382.403 470.96 382.592 471.376 382.64C471.797 382.683 472.29 382.664 472.856 382.584V384ZM466.952 376.704V375.36H472.856V376.704H466.952ZM475.64 384V372.48H477.152L481.328 381.144L485.48 372.48H487.008V383.992H485.424V376.112L481.704 384H480.944L477.216 376.112V384H475.64ZM488.29 373.944V372.32H489.962V373.944H488.29ZM488.29 384V375.36H489.962V384H488.29ZM490.284 384L493.516 379.632L490.356 375.36H492.34L494.492 378.328L496.62 375.36H498.604L495.444 379.632L498.684 384H496.692L494.492 380.936L492.276 384H490.284Z" fill="#FBB795"/>
</svg>
