<svg width="120" height="99" viewBox="0 0 120 99" fill="none" xmlns="http://www.w3.org/2000/svg">
<g id="Group">
<g id="Group_2">
<path id="Vector" d="M119.96 65.4197C116.772 50.7958 101.758 42.5359 90.4438 34.331C94.3634 23.7913 100.069 13.4893 98.6183 1.99864C98.5086 1.10865 97.771 0.651453 97.0578 0.620974C96.8261 0.547824 96.5579 0.529593 96.2653 0.602743C81.7146 4.23586 68.9438 13.0504 57.5019 22.6757C49.8029 21.0177 41.8295 20.4141 33.9964 20.2861C24.5296 20.1337 14.38 20.7799 5.60203 24.6203C4.54135 24.2301 3.10274 25.4432 3.79157 26.7721C8.31467 35.5257 17.239 39.2747 24.4199 45.3644C13.5693 53.6121 1.32274 63.3105 0.00604115 76.825C-0.0793005 77.6906 0.755837 78.1904 1.48124 78.2819C9.35705 79.2328 16.1661 75.9106 23.0727 72.5823C29.7415 69.3698 40.4763 64.7796 45.7004 72.5762C45.9381 72.9358 46.1637 73.326 46.377 73.7344C46.4197 74.1124 46.5782 74.4049 46.8098 74.6122C50.3393 82.3783 50.9489 96.9656 60.2999 98.77C67.8039 100.215 72.6135 87.8097 74.7653 82.7806C77.1427 77.2212 79.0934 71.4668 80.8063 65.6513C88.1579 67.09 115.674 76.5568 118.759 67.224C119.503 67.0534 120.173 66.3828 119.96 65.4197ZM116.235 65.3343C116.174 65.4867 116.126 65.6453 116.113 65.8281C115.711 72.0215 87.9384 64.0908 81.6109 62.8229C82.1413 60.9332 82.6411 59.0435 83.1349 57.1477C82.1657 56.9648 81.1781 56.8794 80.1784 56.8672C77.0452 68.4127 66.664 103.128 57.9957 94.0335C52.7959 88.5777 52.7106 79.2877 49.236 72.6249C48.7971 67.0472 46.06 61.6037 41.1529 58.6899C39.5253 57.7267 38.0684 60.2687 39.6899 61.2258C42.177 62.7009 43.9692 64.993 45.0664 67.602C44.4751 67.1692 43.829 66.773 43.1219 66.4255C37.8612 63.8531 30.9363 66.0476 25.9194 68.0775C18.3118 71.162 11.5028 75.8192 3.12102 75.4656C4.4621 67.6447 10.6433 61.3538 16.2088 56.1358C21.6523 51.0335 27.7177 46.6628 33.527 41.9995C34.9961 40.8169 32.8992 38.7748 31.4422 39.9452C29.9792 41.1217 28.4187 42.3165 26.8033 43.5478C20.3052 37.9397 12.0392 34.3736 7.33933 27.0343C15.6114 23.4987 25.1574 23.1573 34.0147 23.2122C40.8847 23.2487 47.8888 23.773 54.6918 25.0714C53.9054 25.7542 53.119 26.4369 52.3449 27.1257C50.9306 28.3815 53.0215 30.4297 54.4296 29.1861C66.4628 18.5428 80.0931 8.04571 95.8447 3.76034C96.5091 14.3183 91.2119 23.9558 87.5544 33.764C87.3654 34.02 87.2435 34.3371 87.2191 34.6663C86.6644 36.1963 86.1584 37.7385 85.7256 39.2808C85.2136 41.1034 88.0482 41.8532 88.5541 40.0366C88.8223 39.0857 89.1149 38.1347 89.4319 37.1899C99.6607 44.5231 113.047 52.0088 116.723 64.6211C116.485 64.7979 116.321 65.0539 116.235 65.3343Z" fill="#FF5B0D"/>
<path id="Vector_2" d="M29.8886 53.8872C28.1208 52.7046 26.0543 51.9914 23.9573 52.6742C21.8665 53.3508 20.7082 55.3503 19.9524 57.2705C19.2574 59.0261 22.0981 59.7636 22.7808 58.0324C23.2197 56.9169 23.8781 55.7831 25.079 55.393C26.2433 55.015 27.5112 55.8135 28.4317 56.4292C29.9983 57.4777 31.4491 54.9296 29.8886 53.8872Z" fill="#FF5B0D"/>
<path id="Vector_3" d="M39.8303 41.1953C37.5749 40.9819 36.0875 42.8046 35.1426 44.6151C34.2709 46.2914 36.8068 47.7544 37.6785 46.0781C38.0564 45.3466 38.5868 44.1335 39.5499 44.0969C40.6594 44.0542 41.8968 45.7977 42.4759 46.5353C43.6219 48.0043 46.1578 46.5291 44.9935 45.0417C43.7012 43.3837 42.0919 41.4087 39.8303 41.1953Z" fill="#FF5B0D"/>
<path id="Vector_4" d="M17.891 65.0408C14.8065 64.5105 11.9476 65.7907 11.2344 69.0336C10.8321 70.8746 13.6605 71.6366 14.0628 69.7956C14.4164 68.2046 15.538 67.595 17.129 67.8693C18.9822 68.1924 19.7502 65.3639 17.891 65.0408Z" fill="#FF5B0D"/>
<path id="Vector_5" d="M21.677 26.2711C19.6227 25.6554 17.6355 26.9782 16.2395 28.3315C14.8741 29.6421 16.9649 31.6964 18.3243 30.3858C19.0009 29.7335 19.8848 28.9045 20.915 29.0996C22.0489 29.3129 22.8108 30.6296 23.3534 31.5257C24.3287 33.1411 26.8524 31.6537 25.871 30.0322C24.859 28.3619 23.6033 26.8502 21.677 26.2711Z" fill="#FF5B0D"/>
<path id="Vector_6" d="M37.0512 28.5463C37.801 28.1013 37.8802 27.2722 37.5632 26.5407C36.9902 25.2057 36.0454 24.0963 34.5153 24.0049C32.9853 23.9135 31.8332 25.4435 31.1321 26.5834C30.1385 28.1988 32.6866 29.6496 33.668 28.0464C33.8814 27.6989 34.0886 27.3942 34.369 27.1076C34.3995 27.0711 34.4422 27.0467 34.4848 27.0223C34.5153 27.0467 34.5336 27.065 34.5763 27.1076C34.7896 27.3393 34.9177 27.7538 35.0457 28.0403C35.3566 28.7657 36.4294 28.912 37.0512 28.5463Z" fill="#FF5B0D"/>
<path id="Vector_7" d="M42.4334 32.8194C40.7875 33.7521 42.281 36.2696 43.9269 35.337C45.6398 34.3677 47.2308 34.5018 48.5048 36.0562C49.6996 37.5192 51.7478 35.4223 50.5591 33.9715C48.4622 31.4052 45.1887 31.2528 42.4334 32.8194Z" fill="#FF5B0D"/>
<path id="Vector_8" d="M69.8513 22.2437C66.7607 21.0245 63.1825 21.7377 62.2133 25.2672C61.7134 27.0898 64.5419 27.8457 65.0417 26.0292C65.5781 24.0724 67.5959 24.4809 69.0954 25.0722C70.851 25.7671 71.5826 22.9325 69.8513 22.2437Z" fill="#FF5B0D"/>
<path id="Vector_9" d="M63.1279 33.5204C60.2385 33.7094 58.6353 36.4769 57.9038 38.9579C57.3735 40.7744 60.2019 41.5303 60.7323 39.7198C61.1285 38.3727 61.732 36.8609 63.2072 36.4464C64.7372 36.0136 66.1758 38.013 66.8403 39.0493C67.8583 40.6342 70.382 39.153 69.3579 37.5559C67.968 35.3919 65.9076 33.3437 63.1279 33.5204Z" fill="#FF5B0D"/>
<path id="Vector_10" d="M63.0858 51.0205C60.9035 50.8681 58.8492 52.5323 57.3984 53.9404C56.039 55.2571 58.1299 57.3114 59.4832 55.9947C61.0803 54.4525 63.3114 52.8919 64.9877 55.1778C66.0972 56.6835 68.6269 55.2083 67.5053 53.6844C66.3654 52.1299 65.0487 51.1607 63.0858 51.0205Z" fill="#FF5B0D"/>
<path id="Vector_11" d="M61.5195 68.5581C60.6112 67.6316 59.9834 66.4246 58.9227 65.6565C57.6731 64.7482 56.1186 64.9128 54.7044 65.2969C54.0948 65.4615 53.6132 66.071 53.6376 66.7172C53.6681 67.6254 53.7595 69.0701 54.4849 69.7407C54.9604 70.1735 55.6919 70.3198 56.2588 69.954C56.9233 69.5273 57.0452 68.8934 57.0574 68.1558C57.0574 68.1009 57.0513 68.0582 57.0452 68.0034C57.228 68.0765 57.4048 68.1862 57.5816 68.3752C58.2582 69.0884 58.7642 69.9357 59.453 70.6428C60.7819 71.9961 62.8362 69.9053 61.5195 68.5581Z" fill="#FF5B0D"/>
<path id="Vector_12" d="M63.0187 79.4151C61.6044 79.3114 60.3609 80.1893 59.5258 81.2621C59.0381 81.89 58.9223 82.719 59.5379 83.3286C60.0561 83.8407 61.1168 83.9504 61.6105 83.3164C62.5615 82.0972 63.0674 82.0363 63.7075 83.4932C64.0245 84.2247 65.0912 84.3771 65.713 84.0052C66.4628 83.5602 66.5482 82.7312 66.2251 81.9997C65.6399 80.6647 64.5426 79.5248 63.0187 79.4151Z" fill="#FF5B0D"/>
<path id="Vector_13" d="M78.107 31.1783C79.2043 28.7643 81.0086 28.3315 83.1178 29.9774C84.5869 31.1295 86.6656 29.0569 85.1782 27.8926C83.6298 26.6856 81.8803 25.7408 79.8565 26.0395C77.8083 26.3443 76.3941 27.9049 75.5712 29.7153C74.7909 31.4222 77.3268 32.8973 78.107 31.1783Z" fill="#FF5B0D"/>
<path id="Vector_14" d="M82.4204 18.9439C82.7801 18.3404 83.4019 17.1944 84.2797 17.3346C85.3038 17.4992 86.1511 18.6391 86.7241 19.4072C87.8457 20.9007 90.3816 19.4254 89.2416 17.9137C88.0651 16.347 86.4924 14.4939 84.3528 14.4147C82.2741 14.3354 80.866 15.8228 79.8723 17.487C78.9092 19.1085 81.4512 20.5654 82.4204 18.9439Z" fill="#FF5B0D"/>
<path id="Vector_15" d="M85.2929 46.4432C83.836 45.2911 82.0195 44.1634 80.0749 44.6144C78.0998 45.0655 77.0636 46.7968 76.5149 48.6133C75.9602 50.4238 78.7948 51.1736 79.3434 49.3753C79.5567 48.6682 79.8555 47.7538 80.6296 47.4917C81.4952 47.193 82.6169 48.0403 83.2386 48.5341C84.7016 49.6862 86.7742 47.6136 85.2929 46.4432Z" fill="#FF5B0D"/>
<path id="Vector_16" d="M100.946 51.71C98.7394 49.0278 95.661 50.1494 93.5092 52.2464C92.1559 53.5692 94.2407 55.6235 95.594 54.3068C96.167 53.7521 96.7522 53.24 97.5325 53.0145C98.1299 52.8377 98.5627 53.3985 98.8918 53.8008C100.093 55.2577 102.135 53.1547 100.946 51.71Z" fill="#FF5B0D"/>
<path id="Vector_17" d="M101.672 60.2615C99.9777 61.0844 101.477 63.602 103.166 62.7791C104.348 62.206 105.275 62.0841 106.275 63.0168C107.652 64.3091 109.713 62.2243 108.335 60.932C106.311 59.0545 104.056 59.1033 101.672 60.2615Z" fill="#FF5B0D"/>
</g>
</g>
</svg>
