<svg width="42" height="40" viewBox="0 0 42 40" fill="none" xmlns="http://www.w3.org/2000/svg">
<path d="M14.0685 21.6063C14.1068 21.6885 14.3149 21.943 14.3669 21.9923C17.8953 28.6469 27.1176 26.2681 27.832 19.2111C28.2809 14.7793 23.4714 10.7937 19.2175 11.708C14.616 12.6989 12.0291 17.2785 14.0685 21.6063ZM20.6053 12.9371C24.6129 12.8522 27.2517 17.1143 26.206 20.7085C24.6786 25.9642 16.4007 25.4742 15.0375 20.5442C14.9855 20.3554 14.8705 20.1829 14.8651 19.953C13.8823 16.3533 16.8004 13.0192 20.6053 12.9371Z" fill="#FF5B0D"/>
<path d="M14.1719 12.4964C14.7522 13.1369 15.6966 12.1871 15.1163 11.552C11.5002 7.57459 7.58031 3.89829 3.69597 0.189151C3.07185 -0.40486 2.12746 0.536798 2.75158 1.13355C6.63592 4.84269 10.5586 8.51625 14.1719 12.4964Z" fill="#FF5B0D"/>
<path d="M17.8433 9.97238C18.169 10.758 19.4611 10.4131 19.1326 9.61652C18.0377 6.96401 17.2137 4.22116 16.5704 1.42903C16.3761 0.588657 15.0895 0.944517 15.2811 1.78489C15.9244 4.57702 16.7483 7.31987 17.8433 9.97238Z" fill="#FF5B0D"/>
<path d="M23.4457 10.0169C23.4293 7.89001 23.8508 5.79318 23.8344 3.66624C23.8289 2.80396 22.4903 2.80396 22.4985 3.66624C22.515 5.79318 22.0934 7.89001 22.1098 10.0169C22.1153 10.8792 23.4512 10.8792 23.4457 10.0169Z" fill="#FF5B0D"/>
<path d="M26.8708 12.1603C27.8453 11.0818 28.735 9.84997 29.4275 8.57161C29.8381 7.81336 28.683 7.13723 28.2724 7.89822C27.6345 9.08077 26.827 10.2195 25.9264 11.2159C25.3488 11.8537 26.2932 12.8009 26.8708 12.1603Z" fill="#FF5B0D"/>
<path d="M40.6602 11.1875C40.5041 11.1875 40.3782 11.2313 40.2797 11.3025C38.5688 12.006 36.7786 12.3783 35.0075 12.8901C32.8942 13.5006 30.833 14.2205 28.6732 14.6667C27.8301 14.8419 28.1859 16.1285 29.029 15.956C30.9124 15.5673 32.7355 14.9952 34.5695 14.4231C36.6225 13.7825 38.7385 13.3911 40.7259 12.5589C40.7587 12.5452 40.7861 12.5288 40.8134 12.5124C41.5197 12.3564 41.4677 11.1875 40.6602 11.1875Z" fill="#FF5B0D"/>
<path d="M7.13545 13.3838C6.3334 13.0663 5.98849 14.3583 6.77959 14.6731C8.32073 15.2835 9.8345 15.9569 11.3537 16.6112C12.1366 16.9479 12.8182 15.7954 12.0271 15.456C10.4011 14.758 8.78061 14.038 7.13545 13.3838Z" fill="#FF5B0D"/>
<path d="M10.9585 19.2878C7.48754 20.016 3.99465 20.61 0.485334 21.1274C-0.36599 21.2533 -0.00191837 22.5398 0.841193 22.4167C4.35051 21.902 7.8434 21.308 11.3144 20.5771C12.1575 20.3992 11.7989 19.1126 10.9585 19.2878Z" fill="#FF5B0D"/>
<path d="M12.8596 23.1994C10.9845 24.5626 9.20792 26.049 7.43137 27.5382C6.76892 28.0938 7.72153 29.0328 8.37576 28.4825C10.0647 27.0673 11.7482 25.6494 13.533 24.3546C14.2228 23.8536 13.5576 22.693 12.8596 23.1994Z" fill="#FF5B0D"/>
<path d="M15.7969 26.7239C13.4455 30.8163 10.9107 34.7937 9.15599 39.1954C8.83572 39.9974 10.1305 40.3423 10.4453 39.5512C12.1534 35.2645 14.6609 31.3884 16.952 27.4C17.3818 26.65 16.2266 25.9766 15.7969 26.7239Z" fill="#FF5B0D"/>
<path d="M19.7697 28.1766C20.0271 30.6567 20.0106 33.1532 20.1585 35.6415C20.2105 36.4983 21.5463 36.5037 21.4943 35.6415C21.3437 33.1532 21.3602 30.6594 21.1056 28.1766C21.018 27.328 19.6822 27.3198 19.7697 28.1766Z" fill="#FF5B0D"/>
<path d="M24.9713 27.0579C24.4923 26.3462 23.3344 27.0141 23.8162 27.7313C26.1101 31.142 27.643 34.947 29.3867 38.6507C29.7535 39.4308 30.906 38.752 30.5419 37.9773C28.7982 34.2763 27.2652 30.4687 24.9713 27.0579Z" fill="#FF5B0D"/>
<path d="M33.4287 27.087C31.6713 26.3945 30.0919 25.3269 28.3509 24.5905C27.568 24.2593 26.8837 25.409 27.6775 25.7457C29.5252 26.5258 31.2032 27.64 33.0729 28.3763C33.8749 28.6938 34.2198 27.3991 33.4287 27.087Z" fill="#FF5B0D"/>
<path d="M40.0028 21.9638C36.7535 21.3917 33.5152 20.7867 30.3645 19.7903C29.5405 19.5303 29.1901 20.8196 30.0086 21.0796C33.1593 22.076 36.3976 22.681 39.6469 23.2531C40.49 23.4009 40.8514 22.1116 40.0028 21.9638Z" fill="#FF5B0D"/>
</svg>
