<svg width="120" height="160" viewBox="0 0 120 160" fill="none" xmlns="http://www.w3.org/2000/svg">
<path d="M87.4763 37.5132C87.3574 36.8709 86.9711 36.352 86.482 36.1417C86.3608 36.0617 86.2328 35.9886 86.1094 35.9155L86.018 35.8629C74.3174 23.2 57.7665 15.936 40.5917 15.936C6.48197 15.936 -21.2666 43.6846 -21.2666 77.792C-21.2666 85.664 -19.7855 93.3623 -16.862 100.674L-16.8735 100.777C-16.9443 101.483 -16.67 102.094 -16.126 102.45C-6.26089 125.054 15.9837 139.648 40.594 139.648C59.2225 139.648 76.6945 131.335 88.5231 116.839L88.7265 116.583C97.5768 105.623 102.45 91.8469 102.45 77.792C102.448 63.0355 97.1334 48.736 87.4763 37.5132ZM94.0843 83.8332C91.9745 67.8423 80.1345 53.8377 69.6157 45.9383C70.7265 43.7303 70.9025 41.3235 70.13 38.944C75.0465 37.1223 79.906 37.1269 83.5083 39.0309C93.1448 49.6892 98.45 63.4515 98.45 77.792C98.45 84.8252 97.1974 91.6732 94.7197 98.1989C94.9848 93.872 94.7745 89.056 94.0843 83.8332ZM40.5917 135.653C37.122 135.653 33.6408 135.339 30.2283 134.72C34.5483 131.074 37.5631 126.167 40.178 121.371C44.2328 113.938 47.73 106.119 50.5803 98.1349C53.4717 90.032 55.4397 81.5269 57.1357 73.5406C58.4728 67.2366 59.6865 59.8149 58.6328 52.3338C61.9631 52.3109 64.9894 51.1772 67.2134 49.12C78.8225 57.7783 87.4625 70.4938 89.8077 82.4092C91.7665 92.3612 91.7757 105.803 85.9357 113.669L85.73 113.934C85.6248 114.069 85.5243 114.201 85.4168 114.331C85.0763 114.747 84.7403 115.154 84.3768 115.522C84.258 115.643 84.1574 115.774 84.1277 115.842C73.106 128.432 57.2385 135.653 40.5917 135.653ZM66.082 43.9086C64.9963 47.1498 61.3643 48.2995 58.5848 48.2995C58.1871 48.2995 57.7963 48.2789 57.4168 48.2355C52.722 47.712 47.9791 43.4217 47.0557 38.864C46.3791 35.5177 49.3208 33.0378 52.4317 32.4046C52.8111 32.3269 53.2134 32.288 53.6225 32.288C55.4671 32.288 57.3345 33.0537 59.1448 33.7966C59.8305 34.0777 60.5003 34.352 61.1563 34.5783C61.2637 34.6149 61.3711 34.6423 61.474 34.6606C63.0808 35.6892 67.6774 39.136 66.082 43.9086ZM68.2557 35.4012C66.4134 32.9235 63.6225 30.7817 60.7128 29.6275C60.4614 29.5292 60.2054 29.4789 59.9471 29.4789C59.7551 29.4789 59.5631 29.5063 59.378 29.5635C59.2317 29.5132 59.0854 29.4606 58.9391 29.4126C58.3494 26.5486 57.4488 24.0938 56.2557 22.0938C64.1368 24.3177 71.554 28.2629 77.8603 33.5863C74.7403 33.4835 71.4443 34.112 68.2557 35.4012ZM51.0283 28.5875C49.0397 28.992 46.9963 30.144 45.4717 31.7029C38.5871 26.7635 30.9665 24.2583 22.8225 24.2583C21.2545 24.2583 19.6454 24.3497 18.0134 24.5349C27.6248 20.432 38.0843 18.9989 48.802 20.5257C49.0648 20.7223 49.3757 20.848 49.714 20.8892C51.9563 22.2057 53.5563 24.6697 54.5894 28.4069C53.3757 28.2903 52.1894 28.3497 51.0283 28.5875ZM5.48768 31.8423C11.7163 29.4446 17.3711 28.2766 22.77 28.2766C30.2214 28.2766 36.9574 30.5029 43.3414 35.0789C43.2705 35.2937 43.2134 35.4926 43.1677 35.6869C42.6077 38.1418 42.9597 40.7292 44.178 43.2092C21.9905 52.4435 -7.85632 65.0583 -15.3535 92.544C-16.6243 87.7303 -17.2689 82.7795 -17.2689 77.7943C-17.2666 59.6618 -8.97403 42.9166 5.48768 31.8423ZM46.4568 46.5669C48.6168 49.0263 51.5128 50.896 54.5025 51.76C55.8488 59.1932 54.4705 66.8549 52.9368 74.0755C51.2523 82.0115 49.41 88.9783 47.3071 95.3715C44.6923 103.314 41.1151 110.757 37.9608 116.987C34.674 123.477 31.2523 129.605 25.5448 133.255C25.4077 133.344 25.2843 133.442 25.1745 133.552C8.21226 128.855 -5.95003 116.382 -12.782 100.112C-9.2026 69.808 21.5768 56.9029 46.4568 46.5669Z" fill="#FF5B0D"/>
</svg>
