<svg width="314" height="323" viewBox="0 0 314 323" fill="none" xmlns="http://www.w3.org/2000/svg">
<path d="M265.279 237.177C264.707 237.177 264.228 237.471 263.933 238.009C263.038 239.644 260.426 241.544 258.41 241.544C257.284 241.544 256.486 240.961 256.047 239.811C255.782 239.106 255.163 238.69 254.401 238.69C253.806 238.69 253.251 238.956 252.957 239.389C252.691 239.771 252.65 240.256 252.841 240.747C253.835 243.347 255.845 244.774 258.497 244.774C261.709 244.774 265.216 242.636 266.833 239.69C267.128 239.153 267.128 238.581 266.833 238.078C266.51 237.541 265.891 237.177 265.279 237.177Z" fill="#A7ACBB"/>
<path d="M234.973 272.902C235.071 272.192 234.747 271.36 233.8 271.1C232.159 270.644 230.946 269.355 229.658 267.992C228.549 266.813 227.399 265.6 225.932 264.919C224.874 264.427 223.707 264.202 222.257 264.202C221.119 264.202 219.947 264.347 218.814 264.485C217.295 264.67 215.66 264.843 214.349 264.705C213.268 264.601 212.754 265.363 212.714 266.126C212.667 266.969 213.21 267.934 214.297 268.05C214.741 268.096 215.204 268.119 215.712 268.119C216.752 268.119 217.786 268.015 218.785 267.917C219.779 267.819 220.721 267.726 221.657 267.726C223.222 267.726 225.256 267.957 227.122 269.765C227.578 270.21 227.994 270.661 228.398 271.1C229.646 272.458 230.825 273.746 232.91 274.324C233.072 274.37 233.234 274.393 233.39 274.393C234.297 274.393 234.869 273.642 234.973 272.902Z" fill="#A7ACBB"/>
<path d="M263.049 277.391C262.864 277.391 262.673 277.396 262.488 277.402C263.083 277.2 263.568 276.686 263.568 275.877V275.559C263.568 273.422 260.224 273.422 260.224 275.559V275.877C260.224 276.761 260.807 277.292 261.477 277.448C260.616 277.5 259.808 277.587 259.137 277.668C258.467 277.749 257.815 277.83 257.173 277.916C254.481 278.257 251.939 278.581 249.524 278.581C245.382 278.581 241.928 277.599 238.334 275.386C238.057 275.213 237.768 275.126 237.479 275.126C236.769 275.126 236.127 275.657 235.914 276.414C235.706 277.154 235.983 277.864 236.642 278.263C241.997 281.556 247.029 282.804 252.089 282.122C252.962 282.006 254.025 281.787 255.151 281.556C257.503 281.071 260.172 280.522 262.609 280.522C265.741 280.522 267.734 281.452 268.704 283.358C268.982 283.901 269.461 284.213 270.027 284.213C270.628 284.213 271.229 283.867 271.558 283.329C271.87 282.821 271.887 282.237 271.61 281.689C270.12 278.8 267.324 277.391 263.049 277.391Z" fill="#A7ACBB"/>
<path d="M92.8844 259.246L92.5725 259.315C91.5615 259.552 90.5563 259.783 89.5626 260.002C88.7365 260.187 88.2628 260.846 88.3552 261.689C88.4418 262.458 89.0542 263.278 90.0248 263.278C90.1576 263.278 90.2905 263.261 90.4292 263.232L91.1802 263.064C97.5119 261.649 104.057 260.187 110.643 260.182C111.793 260.182 112.937 260.228 114.046 260.314C115.658 260.441 117.293 260.644 118.881 260.834C121.625 261.164 124.456 261.51 127.252 261.51C129.199 261.51 130.955 261.348 132.613 261.008C133.434 260.84 133.913 260.193 133.832 259.361C133.746 258.477 132.977 257.53 131.758 257.772C131.273 257.871 130.753 257.957 130.129 258.032C129.315 255.369 128.754 252.671 128.205 250.054C126.709 242.891 125.3 236.126 119.101 230.747C117.905 229.707 116.53 228.864 115.028 228.234C114.785 227.524 114.081 226.848 113.052 227.01C112.584 227.085 112.134 227.177 111.712 227.275C110.828 227.125 109.921 227.044 109.02 227.044C104.519 227.044 100.273 228.928 97.3732 232.215C96.9168 232.729 96.8128 233.411 97.0901 234.034C97.379 234.676 97.9971 235.109 98.6326 235.103C99.0543 235.103 99.4472 234.913 99.7591 234.56C100.886 233.283 102.145 232.296 103.514 231.602C96.4778 238.102 94.5078 249.708 92.9075 259.13L92.8844 259.246ZM111.452 230.84C115.207 231.799 118.748 234.416 121.163 238.038C123.74 241.897 124.549 246.732 125.334 251.406C125.716 253.688 126.114 256.045 126.709 258.246H126.686C123.751 258.246 120.736 257.853 117.818 257.478C115.629 257.195 113.37 256.9 111.18 256.779C110.58 256.744 109.95 256.727 109.326 256.727C104.895 256.727 100.504 257.541 96.4027 258.443C98.1184 248.165 100.551 234.318 111.452 230.84Z" fill="#A7ACBB"/>
<path d="M89.1305 271.239C90.9965 271.239 92.4119 271.788 93.5731 272.961C93.8966 273.284 94.2836 273.457 94.6996 273.457C95.3697 273.457 96.0283 273.001 96.2998 272.342C96.554 271.724 96.4212 271.089 95.9359 270.598C94.1797 268.83 92.2097 268.004 89.7429 268.004C88.0906 268.004 86.4384 268.356 84.6879 268.732C82.7006 269.154 80.644 269.598 78.5989 269.471C77.507 269.419 76.9871 270.234 76.964 271.002C76.9351 271.857 77.4839 272.753 78.57 272.822C80.332 272.926 82.2731 272.475 84.1449 272.042C85.8145 271.643 87.5476 271.239 89.1305 271.239Z" fill="#A7ACBB"/>
<path d="M122.065 269.939C119.621 268.992 117.097 268.015 114.474 267.455C113.815 267.316 113.134 267.241 112.452 267.241C109.615 267.241 106.981 268.454 104.427 269.633C103.289 270.159 102.117 270.696 100.95 271.118C100.008 271.458 99.7134 272.342 99.8405 273.076C100.014 274.081 100.921 274.671 101.874 274.33C103.047 273.908 104.173 273.405 105.265 272.914C107.755 271.794 110.106 270.742 112.787 270.742C113.492 270.742 114.208 270.817 114.907 270.967C117.206 271.458 119.454 272.371 121.626 273.249C123.463 273.995 125.358 274.763 127.293 275.289C127.449 275.329 127.611 275.352 127.761 275.352C128.68 275.352 129.257 274.595 129.356 273.844C129.448 273.14 129.119 272.313 128.177 272.059C126.097 271.499 124.046 270.702 122.065 269.939Z" fill="#A7ACBB"/>
<path d="M75.2245 278.726C72.7693 278.044 70.418 276.981 68.1476 275.947C65.9292 274.942 63.6357 273.902 61.2324 273.208C60.1983 272.908 59.118 272.758 58.0262 272.758C55.2185 272.758 52.3126 273.699 48.881 275.721C48.2225 276.109 47.9336 276.808 48.1358 277.541C48.3438 278.304 49.0139 278.853 49.7303 278.853C50.0134 278.853 50.3022 278.772 50.5737 278.61C53.2139 277.056 55.542 276.328 57.8991 276.328C59.8575 276.328 61.8564 276.813 64.2019 277.859C64.8258 278.136 65.4439 278.419 66.0563 278.697C68.812 279.95 71.4174 281.135 74.3348 281.949C74.4966 281.995 74.6584 282.018 74.8143 282.018C75.7213 282.018 76.2933 281.267 76.3973 280.528C76.4955 279.817 76.1662 278.986 75.2245 278.726Z" fill="#A7ACBB"/>
<path d="M92.0018 276.606C90.5228 276.606 88.9053 276.901 87.3223 277.461C86.3807 277.797 86.0803 278.68 86.2074 279.414C86.3807 280.425 87.2877 281.02 88.2467 280.679C91.1237 279.663 93.4576 279.715 95.1792 280.824C95.4622 281.009 95.7511 281.101 96.0515 281.101C96.7332 281.101 97.3687 280.581 97.5824 279.842C97.802 279.096 97.5362 278.368 96.8834 277.947C95.5085 277.057 93.862 276.606 92.0018 276.606Z" fill="#A7ACBB"/>
<path d="M150.06 267.362C150.355 267.068 150.505 266.675 150.505 266.219C150.499 259.326 151.32 252.382 152.117 245.669C152.781 240.054 153.469 234.248 153.671 228.488C153.688 228.032 153.544 227.633 153.261 227.339C152.966 227.033 152.521 226.854 152.048 226.854C151.221 226.854 150.361 227.408 150.326 228.471C150.124 234.208 149.436 240.008 148.772 245.612C147.975 252.342 147.149 259.303 147.154 266.224C147.154 267.293 147.998 267.853 148.83 267.853C149.303 267.842 149.754 267.669 150.06 267.362Z" fill="#A7ACBB"/>
<path d="M160.708 275.756C163.013 275.756 165.353 275.606 167.623 275.461L168.328 275.415C172.066 275.178 175.416 274.843 178.576 274.393C180.957 274.058 183.296 273.503 185.261 273.012C185.983 272.833 186.826 272.457 187.716 272.065C189.01 271.493 190.35 270.898 191.326 270.898C192.395 270.898 192.956 270.054 192.956 269.222C192.956 268.39 192.395 267.547 191.326 267.547C189.952 267.547 188.328 268.223 186.757 268.881C185.896 269.24 185.087 269.58 184.371 269.783C180.09 271.002 175.561 271.504 171.297 271.874C170.673 271.926 170.032 271.984 169.391 272.041C166.635 272.296 163.787 272.556 160.945 272.556C156.762 272.556 153.527 271.995 150.754 270.782C150.517 270.678 150.28 270.626 150.038 270.626C149.113 270.626 148.409 271.377 148.253 272.105C148.108 272.804 148.432 273.393 149.113 273.694C152.343 275.103 156.023 275.756 160.708 275.756Z" fill="#A7ACBB"/>
<path d="M205.989 269.823C205.636 268.217 205.18 266.623 204.521 265.08C204.504 265.046 204.492 265.017 204.469 264.994C204.336 264.584 204.071 264.272 203.718 264.121C202.095 263.422 200.454 262.96 198.704 262.718C197.623 257.466 197.092 251.961 196.578 246.634C196.393 244.71 196.202 242.717 195.988 240.794L195.798 239.084C194.925 231.192 194.018 223.035 192.776 215.051C192.684 214.439 192.355 214.132 192.072 213.982C189.587 210.452 180.685 209.424 177.328 209.031L177.022 208.997C171.788 208.384 166.196 208.454 160.327 209.205C152.487 210.21 147.293 212.388 144.451 215.866C143.804 216.102 143.446 216.669 143.498 217.391C143.949 223.595 143.024 229.869 142.129 235.935C141.869 237.686 141.603 239.494 141.378 241.267L141.112 243.33C140.609 247.218 140.089 251.239 139.662 255.207C139.46 257.062 139.362 258.974 139.263 260.817C139.182 262.354 139.096 263.937 138.957 265.491C138.905 265.514 138.847 265.537 138.795 265.566C134.48 267.801 132.706 272.076 133.388 278.587C129.702 279.725 126.04 281.984 122.752 285.179C122.695 285.237 122.643 285.294 122.596 285.352C119.806 285.681 117.085 286.536 114.457 287.363C112.261 288.05 109.985 288.766 107.651 289.188C106.831 289.333 106.351 289.962 106.421 290.783C106.496 291.591 107.125 292.458 108.165 292.458C108.275 292.458 108.385 292.446 108.5 292.429C110.701 292.03 112.891 291.303 115.005 290.598C118.125 289.558 121.354 288.478 124.647 288.478C125.341 288.478 126.028 288.524 126.692 288.622C126.785 288.634 126.872 288.639 126.958 288.639C128.01 288.639 128.697 287.75 128.761 286.895C128.813 286.12 128.362 285.537 127.594 285.398C129.939 283.584 132.371 282.319 134.838 281.643C134.861 281.637 134.879 281.626 134.896 281.62C138.899 285.254 146.017 287.628 156.098 288.697C161.32 292.81 168.062 295.965 176.485 298.252C181.523 299.622 186.416 300.286 191.448 300.286C197.878 300.286 204.487 299.171 211.662 296.883H211.679C212.089 296.883 212.47 296.727 212.794 296.433C215.544 293.902 217.092 289.922 217.514 284.26C217.768 283.971 217.895 283.602 217.889 283.186C217.808 276.623 211.87 271.354 205.989 269.823ZM205.301 280.315C207.069 281.655 209.998 283.977 209.229 286.045C209.126 286.328 209.091 286.606 209.137 286.866C204.567 289.731 198.114 290.338 193.481 290.344C190.177 290.344 187.271 290.043 185.416 289.795C183.03 289.471 180.714 289.021 178.467 288.46C181.609 288.027 184.943 287.42 188.536 286.635C193.799 285.473 200.223 284.052 205.301 280.315ZM163.412 212.203C166.895 211.85 170.581 211.816 174.348 212.093C177.831 212.347 181.176 212.861 184.273 213.607C186.502 214.144 188.802 215.247 188.871 216.322C188.912 216.975 188.097 217.645 186.508 218.257C181.892 220.031 176.618 220.106 171.511 220.175C170.246 220.193 168.998 220.21 167.779 220.256C166.918 220.285 165.919 220.36 164.856 220.435C163.048 220.562 161.002 220.707 158.957 220.707C153.14 220.707 149.645 219.499 147.993 216.911C151.805 213.381 159.339 212.619 163.412 212.203ZM136.721 278.622C136.196 274.555 136.773 271.77 138.53 269.91C138.605 270.176 138.743 270.413 138.94 270.621C139.292 270.985 139.795 271.204 140.297 271.204C141.043 271.204 141.592 270.73 141.73 269.968C142.568 265.231 142.932 260.291 143.284 255.519C143.544 251.984 143.816 248.327 144.278 244.791C144.555 242.636 144.896 240.43 145.22 238.298C146.092 232.59 146.987 226.698 146.976 220.88C149.489 223.006 153.365 224 159.102 224C161.257 224 163.412 223.861 165.306 223.745C166.398 223.676 167.432 223.613 168.357 223.578C169.113 223.549 169.87 223.526 170.627 223.503C174.07 223.393 177.629 223.283 181.112 222.815L181.598 222.752C184.232 222.405 187.791 221.931 190.177 220.262C191.101 226.871 191.852 233.601 192.574 240.123L193.059 244.497C193.239 246.085 193.4 247.697 193.562 249.321C194.209 255.762 194.879 262.429 196.693 268.57C196.907 269.298 197.508 269.748 198.265 269.748C198.831 269.748 199.385 269.483 199.703 269.061C199.992 268.674 200.067 268.183 199.917 267.674C199.79 267.241 199.68 266.802 199.564 266.363L199.53 266.23C200.229 266.386 200.945 266.611 201.667 266.894C202.788 269.615 203.204 272.614 203.608 275.514C203.689 276.091 203.77 276.663 203.857 277.241C199.466 280.8 193.753 282.065 188.224 283.29L187.669 283.411C181.673 284.746 176.006 285.531 170.442 285.826C165.208 283.648 160.621 280.754 156.987 277.258C156.895 277.172 156.791 277.091 156.67 277.016C156.265 276.559 155.676 276.369 155.058 276.507C152.759 277.027 151.049 278.501 150.02 279.644C149.61 280.101 149.477 280.684 149.656 281.256C149.575 281.747 149.697 282.215 150.009 282.614C150.488 283.226 150.997 283.821 151.522 284.405C146.554 283.602 139.564 281.129 136.721 278.622ZM210.836 293.625C204.053 295.797 197.785 296.849 191.673 296.849C186.982 296.849 182.308 296.248 177.38 295.006C166.964 292.383 158.605 287.611 153.192 281.204C153.781 280.684 154.417 280.286 155.075 280.014C164.89 289.159 178.207 292.348 187.664 293.411C189.426 293.608 191.257 293.712 193.1 293.712C198.415 293.712 208.005 292.857 213.764 287.276C213.227 290.037 212.262 292.123 210.836 293.625ZM212.505 283.85C211.8 281.51 209.611 279.488 207.26 277.646C207.254 277.622 207.254 277.594 207.248 277.57C207.254 277.449 207.248 277.334 207.225 277.218C207.109 276.49 207 275.762 206.89 275.04C206.82 274.555 206.745 274.07 206.67 273.578C209.842 274.867 213.031 277.472 214.14 280.84C213.747 281.926 213.198 282.937 212.505 283.85Z" fill="#A7ACBB"/>
<path d="M156.421 179.695C157.258 181.018 158.443 181.711 159.846 181.711C161.776 181.711 164.116 180.377 166.115 178.141C167.778 176.275 168.824 174.23 169.026 172.537C169.136 172.323 169.205 172.075 169.211 171.78C169.223 171.11 169.309 169.937 169.419 168.447C169.968 161.116 170.985 147.47 167.079 143.265C166.12 142.231 164.907 141.832 163.492 142.08C158.396 142.982 157.512 150.267 156.987 154.622C156.935 155.05 156.883 155.454 156.837 155.824C155.658 164.669 155.554 171.896 156.501 177.904C156.449 177.973 156.386 178.037 156.34 178.118C156.062 178.62 156.097 179.181 156.421 179.695ZM159.644 161.584L159.673 161.156C159.696 160.763 159.719 160.267 159.748 159.7C159.939 155.46 160.332 146.644 163.948 145.391C164.133 145.327 164.289 145.373 164.457 145.541C165.878 147.008 166.369 155.316 165.912 170.232C165.907 170.371 165.907 170.492 165.901 170.613C165.739 170.879 165.67 171.203 165.716 171.567C165.912 173.3 164.509 174.975 163.261 176.24C162.55 176.962 160.95 178.32 159.939 178.32C159.927 178.32 159.922 178.314 159.91 178.314C159.91 178.216 159.904 178.118 159.887 178.02C158.922 172.71 159.286 167.055 159.644 161.584Z" fill="#A7ACBB"/>
<path d="M155.243 193.905C153.689 192.709 151.841 192.079 149.9 192.079C146.543 192.079 143.227 193.98 141.384 196.938C139.663 195.852 137.895 195.303 136.121 195.303C129.09 195.303 123.169 204.188 122.574 212.131C122.539 212.588 122.666 212.986 122.944 213.281C123.233 213.593 123.666 213.766 124.14 213.766C124.966 213.766 125.838 213.217 125.919 212.166C126.323 206.764 130.569 198.59 136.035 198.59C137.641 198.59 139.252 199.283 140.835 200.652C141.176 200.947 141.592 201.109 142.014 201.109C142.742 201.109 143.366 200.641 143.614 199.913C144.51 197.255 146.976 195.47 149.744 195.47C151.107 195.47 152.407 195.915 153.504 196.759C153.793 196.984 154.099 197.094 154.411 197.094C155.024 197.094 155.596 196.626 155.833 195.932C156.041 195.332 155.994 194.477 155.243 193.905Z" fill="#A7ACBB"/>
<path d="M30.7815 279.475C30.2211 280.042 29.9784 280.585 29.9727 281.29C29.9727 281.746 30.1229 282.139 30.4117 282.433C30.7179 282.74 31.1627 282.913 31.6307 282.913C32.3239 282.913 33.0923 282.52 33.2714 281.653C33.7798 280.983 33.7278 280.053 33.1385 279.47C32.5203 278.852 31.3996 278.852 30.7815 279.475Z" fill="#A7ACBB"/>
<path d="M38.2168 277.171V278.124C38.2168 279.192 39.0602 279.747 39.8921 279.747C40.724 279.747 41.5675 279.187 41.5675 278.124V277.171C41.5675 275.033 38.2168 275.033 38.2168 277.171Z" fill="#A7ACBB"/>
<path d="M32.5967 271.689H31.9612C30.8924 271.689 30.332 272.533 30.332 273.365C30.332 274.197 30.8924 275.04 31.9612 275.04H32.5967C33.6654 275.04 34.2258 274.197 34.2258 273.365C34.2258 272.533 33.6654 271.689 32.5967 271.689Z" fill="#A7ACBB"/>
<path d="M20.8629 276.449H20.5452C19.4764 276.449 18.916 277.293 18.916 278.125C18.916 278.956 19.4764 279.8 20.5452 279.8H20.8629C21.9317 279.8 22.492 278.956 22.492 278.125C22.492 277.293 21.9317 276.449 20.8629 276.449Z" fill="#A7ACBB"/>
<path d="M26.4844 277.807V278.125C26.4844 279.194 27.3278 279.748 28.1597 279.748C28.9916 279.748 29.8351 279.188 29.8351 278.125V277.807C29.8293 275.67 26.4844 275.67 26.4844 277.807Z" fill="#A7ACBB"/>
<path d="M0.792969 275.588V275.906C0.792969 276.975 1.63642 277.53 2.46832 277.53C3.30022 277.53 4.14367 276.969 4.14367 275.906V275.588C4.14367 273.451 0.792969 273.451 0.792969 275.588Z" fill="#A7ACBB"/>
<path d="M19.2233 268.637C18.998 267.967 18.4319 267.568 17.6924 267.568C16.5081 267.574 15.7109 268.377 15.7051 269.556C15.7051 270.012 15.8553 270.405 16.1441 270.7C16.4503 271.006 16.8952 271.179 17.3689 271.179C17.9061 271.179 18.4087 270.948 18.7149 270.567C19.2522 270.139 19.4602 269.348 19.2233 268.637Z" fill="#A7ACBB"/>
<path d="M7.22364 267.888C6.03934 267.893 5.24211 268.696 5.23633 269.875C5.23633 270.331 5.38653 270.724 5.67539 271.019C5.98157 271.325 6.42641 271.504 6.90013 271.504C7.4374 271.504 7.94 271.279 8.24041 270.892C8.78345 270.459 8.99143 269.667 8.75457 268.956C8.52926 268.292 7.96311 267.888 7.22364 267.888Z" fill="#A7ACBB"/>
<path d="M13.8833 272.013H13.4789C12.4101 272.013 11.8497 272.856 11.8555 273.688C11.8555 274.52 12.4159 275.363 13.4846 275.363H13.889C14.9578 275.363 15.5182 274.52 15.5182 273.688C15.5124 272.85 14.952 272.013 13.8833 272.013Z" fill="#A7ACBB"/>
<path d="M127.108 297.228H127.425C128.494 297.228 129.055 296.384 129.055 295.552C129.055 294.72 128.494 293.877 127.425 293.877H127.108C126.039 293.877 125.479 294.72 125.479 295.552C125.479 296.384 126.039 297.228 127.108 297.228Z" fill="#A7ACBB"/>
<path d="M136.305 293.877H135.901C134.832 293.877 134.271 294.72 134.271 295.552C134.271 296.384 134.832 297.228 135.901 297.228H136.305C137.374 297.228 137.934 296.384 137.934 295.552C137.934 294.72 137.374 293.877 136.305 293.877Z" fill="#A7ACBB"/>
<path d="M135.954 290.671C136.243 290.377 136.399 289.984 136.393 289.527C136.387 288.343 135.59 287.546 134.394 287.54C133.672 287.54 133.1 287.939 132.875 288.609C132.632 289.319 132.846 290.111 133.389 290.544C133.695 290.925 134.192 291.156 134.735 291.156C135.203 291.156 135.648 290.977 135.954 290.671Z" fill="#A7ACBB"/>
<path d="M111.884 298.183C112.953 298.183 113.514 297.339 113.514 296.507C113.514 295.675 112.953 294.832 111.884 294.832H111.567C110.498 294.832 109.938 295.675 109.938 296.507C109.938 297.339 110.498 298.183 111.567 298.183H111.884Z" fill="#A7ACBB"/>
<path d="M124.341 300.949V300.631C124.341 298.494 120.996 298.494 120.996 300.631V300.949C120.996 302.018 121.84 302.578 122.671 302.578C123.503 302.573 124.341 302.012 124.341 300.949Z" fill="#A7ACBB"/>
<path d="M119.5 295.01C120.4 295.01 121.129 294.26 121.129 293.335C121.129 292.409 120.4 291.659 119.5 291.659C118.6 291.659 117.871 292.409 117.871 293.335C117.871 294.26 118.6 295.01 119.5 295.01Z" fill="#A7ACBB"/>
<path d="M57.2856 294.565C56.3786 294.755 55.9742 295.61 56.0377 296.367C56.1013 297.113 56.6212 297.864 57.6437 297.864H57.6553C58.3659 297.858 58.9089 297.615 59.4693 297.055C59.7813 296.743 59.9546 296.327 59.9546 295.876C59.9546 295.426 59.7813 295.004 59.4693 294.692C58.9089 294.132 57.9268 294.08 57.2856 294.565Z" fill="#A7ACBB"/>
<path d="M66.4492 296.512V296.83C66.4492 297.899 67.2927 298.453 68.1246 298.453C68.9565 298.453 69.7999 297.893 69.7999 296.83V296.512C69.7941 294.375 66.4492 294.375 66.4492 296.512Z" fill="#A7ACBB"/>
<path d="M58.5176 291.441V291.759C58.5176 292.828 59.361 293.388 60.1929 293.388C61.0248 293.388 61.8683 292.828 61.8683 291.759V291.441C61.8625 289.304 58.5176 289.304 58.5176 291.441Z" fill="#A7ACBB"/>
<path d="M46.8713 290.083C45.8026 290.083 45.2422 290.926 45.2422 291.758C45.2422 292.59 45.8026 293.434 46.8713 293.434C47.9401 293.434 48.5005 292.59 48.5005 291.758C48.5005 290.926 47.9401 290.083 46.8713 290.083Z" fill="#A7ACBB"/>
<path d="M54.7984 286.912H54.4807C53.4119 286.912 52.8516 287.756 52.8516 288.587C52.8516 289.419 53.4119 290.263 54.4807 290.263H54.7984C55.8672 290.263 56.4276 289.419 56.4276 288.587C56.4276 287.756 55.8672 286.912 54.7984 286.912Z" fill="#A7ACBB"/>
<path d="M247.313 289.748C246.244 289.748 245.684 290.591 245.684 291.423C245.684 292.255 246.244 293.099 247.313 293.099C248.381 293.099 248.942 292.255 248.942 291.423C248.936 290.591 248.376 289.748 247.313 289.748Z" fill="#A7ACBB"/>
<path d="M260.311 291.647C259.647 291.647 259.104 292.006 258.821 292.635L258.797 292.664C258.745 292.722 258.699 292.78 258.665 292.832C258.422 293.161 258.376 293.525 258.324 293.924C258.278 294.305 258.405 294.686 258.688 295.01C259.023 295.391 259.525 295.628 259.999 295.628C260.681 295.628 261.23 295.252 261.507 294.617C261.559 294.559 261.611 294.496 261.646 294.444C261.888 294.114 261.934 293.75 261.986 293.352C262.033 292.976 261.906 292.589 261.628 292.266C261.287 291.884 260.785 291.647 260.311 291.647Z" fill="#A7ACBB"/>
<path d="M277.756 290.695H277.352C276.283 290.695 275.723 291.539 275.723 292.371C275.723 293.203 276.283 294.046 277.352 294.046H277.756C278.825 294.046 279.385 293.203 279.385 292.371C279.38 291.539 278.825 290.695 277.756 290.695Z" fill="#A7ACBB"/>
<path d="M299.324 285.617H299.006C297.937 285.617 297.377 286.461 297.377 287.293C297.377 288.124 297.937 288.968 299.006 288.968H299.324C300.393 288.968 300.953 288.124 300.953 287.293C300.947 286.461 300.393 285.617 299.324 285.617Z" fill="#A7ACBB"/>
<path d="M290.849 284.439V283.804C290.849 281.672 287.504 281.672 287.504 283.804V284.439C287.504 285.508 288.347 286.063 289.179 286.063C290.005 286.063 290.849 285.508 290.849 284.439Z" fill="#A7ACBB"/>
<path d="M291.078 295.312C291.978 295.312 292.707 294.562 292.707 293.636C292.707 292.711 291.978 291.961 291.078 291.961C290.179 291.961 289.449 292.711 289.449 293.636C289.449 294.562 290.179 295.312 291.078 295.312Z" fill="#A7ACBB"/>
<path d="M292.662 286.89C291.594 286.89 291.033 287.733 291.033 288.565C291.033 289.397 291.594 290.24 292.662 290.24C293.731 290.24 294.291 289.397 294.291 288.565C294.291 287.733 293.731 286.89 292.662 286.89Z" fill="#A7ACBB"/>
<path d="M306.933 281.175H306.297C305.228 281.175 304.668 282.018 304.668 282.85C304.668 283.682 305.228 284.526 306.297 284.526H306.933C308.001 284.526 308.562 283.682 308.562 282.85C308.562 282.018 308.001 281.175 306.933 281.175Z" fill="#A7ACBB"/>
<path d="M299.68 276.506C299.68 275.675 299.12 274.831 298.051 274.831C296.982 274.831 296.422 275.675 296.422 276.506C296.422 277.338 296.982 278.182 298.051 278.182C299.12 278.182 299.68 277.338 299.68 276.506Z" fill="#A7ACBB"/>
<path d="M312.743 271.4C311.097 271.134 309.451 270.822 307.821 270.504C307.972 270.175 308.006 269.8 307.914 269.413C307.122 266.189 305.88 262.757 302.674 261.689C301.42 261.273 300.19 261.134 299 261.007C296.614 260.747 294.551 260.522 292.824 258.205C292.293 257.494 291.969 256.564 291.628 255.576C291.131 254.144 290.617 252.665 289.404 251.879C288.197 251.099 286.51 250.724 284.234 250.724C282.57 250.724 280.808 250.92 279.248 251.099C278.936 251.134 278.63 251.168 278.335 251.203C279.3 249.672 280.172 248.072 280.871 246.414C281.513 246.391 282.119 246.021 282.408 245.49C282.668 245.004 282.628 244.456 282.287 243.953C282.183 243.797 282.067 243.647 281.957 243.497L281.807 243.294C281.732 242.861 281.455 242.486 281.045 242.249C278.393 238.881 274.875 235.963 270.311 233.323C271.813 230.117 273.234 226.818 274.615 223.623C275.487 221.601 276.359 219.579 277.261 217.563C279.127 213.375 281.449 209.314 283.69 205.385C284.655 203.692 285.655 201.948 286.602 200.215C286.851 199.764 287.116 199.285 287.394 198.788C291.178 191.988 296.897 181.716 289.444 175.997C288.555 175.315 287.486 174.969 286.267 174.969C283.361 174.969 280.756 176.858 280.028 177.441C277.382 179.544 276.232 183.415 275.221 186.829C275.008 187.551 274.8 188.245 274.592 188.886C271.096 199.539 266.302 210.481 259.987 222.162C257.873 218.915 254.898 216.57 250.207 214.392C248.889 213.779 247.717 213.167 246.613 212.508L246.382 212.445L246.365 212.468C245.285 212.04 244.164 211.827 243.026 211.827C239.825 211.827 236.971 213.514 235.394 216.339C234.418 218.083 233.494 219.008 232.714 219.008C231.362 219.008 230.108 216.206 229.357 211.509C229.149 210.221 229.051 208.869 228.953 207.557C228.779 205.27 228.6 202.907 227.867 200.712C227.393 199.296 226.278 198.476 224.458 198.21C223.285 198.037 222.534 193.785 222.5 187.13L222.511 186.904C222.985 179.567 223.846 166.165 217.826 164.599C217.855 157.927 217.705 156.656 217.526 155.206C217.352 153.761 217.15 152.132 217.098 144.553C217.092 143.484 216.249 142.929 215.417 142.929C215.14 142.929 214.88 142.993 214.643 143.108C214.215 143.079 213.782 143.051 213.337 143.051C211.061 143.051 208.802 143.438 206.619 143.813C204.146 144.241 201.598 144.68 199.027 144.547H198.958C198.375 144.547 197.809 144.922 197.508 145.506C197.231 146.049 197.26 146.638 197.583 147.089C200.963 151.745 207.133 154.87 212.927 154.87C213.332 154.87 213.73 154.842 214.129 154.813C214.146 154.969 214.163 155.125 214.181 155.269C214.354 156.719 214.51 157.99 214.475 164.865C210.356 166.459 207.242 172.358 205.931 176.061C204.597 179.833 204.285 183.993 203.978 188.014C203.655 192.329 203.314 196.766 201.702 200.712C199.773 199.672 197.664 199.019 195.388 198.822C194.972 195.01 195.4 191.26 195.862 187.291C195.937 186.667 196.006 186.038 196.075 185.414C196.451 181.965 196.925 177.678 195.128 174.12C193.695 171.289 190.217 170.931 187.352 170.931C186.208 170.931 185.076 171 183.984 171.058C183.395 171.092 182.829 171.127 182.297 171.144C182.049 166.072 182.187 160.855 182.32 155.806C182.632 144.171 182.956 132.143 178.554 120.976C176.688 116.233 172.724 110.809 166.982 108.33C166.745 102.883 166.289 84.6995 165.844 79.3904C165.226 72.0593 164.585 64.4855 164.533 57.0042C164.527 55.9355 163.683 55.3809 162.851 55.3809C162.378 55.3809 161.933 55.5542 161.627 55.8604C161.338 56.155 161.182 56.5478 161.188 57.0042C161.199 58.8182 161.251 60.6438 161.321 62.4636C158.519 62.9257 155.665 63.2261 152.892 63.5092C148.744 63.9309 144.451 64.3642 140.304 65.381C139.726 65.5196 139.241 66.0511 139.096 66.6982C138.963 67.2874 139.142 67.8478 139.576 68.1944C142.302 70.3781 145.081 72.0073 148.068 73.1627C146.71 74.4914 145.37 75.8664 144.064 77.2009C143.354 77.923 142.649 78.6509 141.933 79.3673C141.459 79.8468 141.338 80.5805 141.609 81.2448C141.863 81.8572 142.395 82.2269 143.025 82.2269C143.059 82.2269 143.094 82.2269 143.129 82.2211C146.364 82.019 149.662 81.9496 152.851 81.8919C156.069 81.8283 159.391 81.759 162.672 81.5452C163.031 85.826 163.377 102.923 163.591 107.285C162.811 107.134 162.014 107.019 161.188 106.978C159.033 106.88 157.467 107.383 156.341 108.509C154.215 110.641 154.221 114.587 154.226 118.406C154.232 120.815 154.232 123.085 153.718 124.801C153.562 125.309 153.66 125.708 153.799 125.979L153.441 126.453C150.904 129.781 148.282 133.224 147.744 137.453C147.681 137.932 147.646 138.423 147.623 138.926C146.358 139.671 145.081 140.353 143.839 141.011C140.483 142.785 137.317 144.454 134.561 147.36C130.696 151.433 128.189 156.615 126.057 161.612C124.197 165.968 122.92 170.555 121.684 174.992L121.563 175.419C120.742 178.36 119.749 180.844 118.53 183.022C117.94 184.079 114.336 188.118 112.106 188.118C111.32 188.118 110.788 187.615 110.482 186.575C110.274 185.876 109.702 185.443 108.992 185.408C107.426 182.831 105.312 181.329 103.134 181.329C101.268 181.329 99.477 182.433 97.946 184.518C93.619 190.411 88.7258 199.238 89.9737 207.817C90.0199 208.129 90.1354 208.401 90.3203 208.603C89.6328 209.377 88.9396 210.145 88.2405 210.908C86.9291 212.347 85.6004 213.814 84.3815 215.304C83.2318 214.305 82.1053 213.802 81.025 213.802C78.0209 213.802 75.9874 217.708 75.4559 221.7C74.7799 221.087 74.52 220.001 74.2427 218.852C73.7921 216.968 73.2779 214.836 70.6782 214.611C66.513 214.247 65.4846 216.882 64.3812 219.672C63.8728 220.96 63.3471 222.295 62.4806 223.369C61.562 224.507 60.7705 225.085 60.1409 225.085C59.1992 225.085 58.529 223.808 57.8185 222.456C57.4025 221.665 56.975 220.85 56.4493 220.215C54.7566 218.147 52.0818 218.794 48.8582 222.087C47.7317 223.236 47.3215 224.952 46.9576 226.466C46.8825 226.783 46.8074 227.095 46.7265 227.396C46.5763 227.962 46.3568 228.291 46.1199 228.291C45.6751 228.291 45.0107 227.286 44.9876 226.344C44.9587 225.229 44.8663 224.022 44.4272 222.78C43.8148 221.058 42.1799 220.03 40.0482 220.03C38.4942 220.03 36.9401 220.579 35.8829 221.492C29.3779 227.124 29.4646 246.46 29.505 254.721V254.866C26.5529 256.333 23.7857 258.251 21.0705 260.135C19.4818 261.238 17.8411 262.376 16.212 263.381C15.5592 263.786 15.2819 264.502 15.4898 265.241C15.7036 265.998 16.3449 266.524 17.0554 266.524C17.3443 266.524 17.6389 266.437 17.9162 266.264C19.4529 265.311 21.0127 264.184 22.6592 262.994C27.2 259.707 31.9025 256.31 36.9921 255.946C39.3896 255.779 41.7351 257.107 43.9997 258.396C44.8316 258.869 45.6231 259.314 46.3972 259.684C48.1823 260.522 50.0194 260.932 52.0241 260.932C52.1223 260.932 52.2205 260.92 52.3187 260.92C51.9143 261.804 51.4521 262.659 50.9264 263.479C49.0027 263.924 47.0616 264.485 45.0627 265.057C40.5566 266.356 35.8945 267.702 31.1746 267.708C31.1746 267.708 31.1746 267.708 31.1688 267.708C30.3716 267.708 29.5801 267.668 28.8118 267.593C27.7315 267.489 27.2173 268.263 27.1769 269.025C27.1364 269.869 27.6737 270.828 28.7598 270.938C29.4357 271.007 30.1405 271.042 30.8511 271.042C35.3745 271.042 40.0135 269.661 44.4965 268.321C48.8409 267.027 53.3297 265.686 57.5701 265.686C61.6487 265.686 65.1322 266.934 68.2114 269.505C68.5349 269.776 68.9162 269.915 69.3091 269.915C70.0543 269.915 70.7707 269.412 71.0249 268.719C71.2386 268.13 71.0653 267.541 70.5454 267.107C66.848 264.017 62.7925 262.515 58.1593 262.52C57.1657 262.52 56.1778 262.59 55.1899 262.705C56.7613 259.505 57.726 256.004 58.6504 252.595C59.0663 251.059 59.4996 249.47 59.9791 247.945C61.1287 244.294 62.729 240.296 67.1196 239.071C67.8532 238.863 68.6736 238.759 69.5517 238.759C72.0474 238.759 74.7857 239.591 77.2005 240.325C78.0844 240.596 78.9163 240.845 79.7194 241.059C80.6437 241.301 81.5102 240.741 81.7413 239.817C83.1972 238.609 83.8153 237.171 83.8037 235.022C83.798 233.791 83.4456 232.537 83.0989 231.33C82.995 230.955 82.8852 230.579 82.7928 230.215C82.1111 227.511 82.5732 224.617 84.2081 221.359C86.0626 217.661 88.9396 214.548 91.7241 211.538C95.0113 207.979 98.4082 204.305 100.159 199.631C100.344 199.14 100.297 198.655 100.032 198.268C99.7311 197.84 99.1823 197.569 98.5873 197.569C97.8247 197.569 97.2066 197.991 96.9466 198.695C96.1609 200.798 94.9131 202.918 93.0413 205.333C92.8737 200.937 94.6473 197.401 96.6866 193.346L96.9466 192.826C97.1257 192.462 97.3279 192.034 97.5474 191.566C98.8126 188.857 100.719 184.761 103.33 184.426C105.514 184.131 106.981 186.737 107.79 192.115L107.825 192.352L107.958 192.335C108.299 193.721 108.917 195.044 109.806 196.229C110.147 196.685 110.644 196.939 111.204 196.939C111.892 196.939 112.568 196.546 112.845 195.986C113.088 195.506 113.018 194.975 112.66 194.495C111.857 193.421 111.349 192.346 111.129 191.249C111.349 191.278 111.568 191.301 111.805 191.301C113.001 191.301 114.382 190.931 115.901 190.209C120.552 188.002 122.816 182.554 124.417 177.511C124.838 176.182 125.243 174.853 125.647 173.536C127.317 168.083 128.894 162.929 131.488 157.817C133.423 153.998 135.936 150.584 138.957 147.672C140.777 145.91 143.244 144.766 145.63 143.657C146.329 143.334 147.034 143.004 147.727 142.658L147.75 142.877L147.97 142.675C147.906 143.062 147.825 143.443 147.669 143.796C147.421 144.362 147.467 144.957 147.802 145.465C148.143 145.991 148.732 146.326 149.304 146.326C149.865 146.326 150.333 146.003 150.587 145.431C151.286 143.848 151.297 142.224 151.315 140.659C151.32 139.838 151.332 138.983 151.436 138.146C151.471 137.863 151.436 137.609 151.349 137.383C151.736 135.517 152.487 133.732 153.666 131.912C154.498 130.624 155.439 129.376 156.346 128.175C157.594 126.522 158.888 124.807 159.934 122.935C160.234 122.398 160.234 121.826 159.946 121.329C159.512 120.595 158.472 120.237 157.756 120.572C157.837 118.966 157.802 117.331 157.756 115.54C157.75 115.367 157.745 115.176 157.733 114.974C157.658 113.327 157.56 111.074 159.079 110.445C159.489 110.277 159.992 110.191 160.564 110.191C161.557 110.191 162.655 110.445 163.724 110.791C163.787 112.738 163.816 114.685 163.799 116.626C163.793 117.083 163.949 117.475 164.238 117.77C164.544 118.076 164.989 118.25 165.463 118.25C166.295 118.25 167.138 117.689 167.144 116.626C167.155 115.141 167.132 113.651 167.103 112.161C172.158 114.766 175.567 120.347 177.496 129.18C179.426 138.024 179.189 147.17 178.952 156.014C178.773 162.698 178.594 169.602 179.345 176.35C179.461 177.389 180.35 177.933 181.176 177.933C181.656 177.933 182.083 177.753 182.361 177.447C182.626 177.153 182.736 176.754 182.69 176.298C182.626 175.708 182.569 175.119 182.517 174.524C183.083 174.507 183.655 174.484 184.227 174.455C185.041 174.414 185.885 174.374 186.682 174.374C190.264 174.374 192.713 175.223 193.014 179.354C193.256 182.67 192.892 185.963 192.546 189.152C192.014 193.987 191.465 198.984 193.054 204.056C193.279 204.779 193.886 205.223 194.643 205.223C195.215 205.223 195.769 204.958 196.081 204.53C196.364 204.143 196.434 203.652 196.278 203.149C196.185 202.855 196.104 202.566 196.029 202.271C199.68 202.82 202.713 204.755 205.047 208.031C209.657 214.496 210.356 224.45 209.068 231.232C207.838 229.377 206.902 227.188 206.145 225.403L205.966 224.981C205.723 224.409 205.255 224.08 204.695 224.08C204.129 224.08 203.539 224.415 203.199 224.935C202.858 225.449 202.806 226.044 203.048 226.61C205.48 232.295 208.704 237.737 215.769 239.1C217.168 239.372 218.554 239.487 219.894 239.603C222.633 239.834 225.221 240.053 227.768 241.492C229.987 242.74 231.414 245.461 232.673 247.858L232.985 248.453C233.002 248.69 233.072 248.927 233.187 249.147C233.459 249.661 233.73 250.181 234.008 250.712C236.37 255.264 239.045 260.418 244.337 261.972C244.505 262.018 244.672 262.047 244.834 262.047C245.758 262.047 246.29 261.284 246.394 260.579C246.498 259.869 246.174 259.025 245.233 258.748C243.626 258.28 242.188 257.275 240.854 255.686C243.13 256.478 245.776 256.784 248.635 256.599L248.797 256.587C250.01 256.507 251.16 256.431 252.246 256.431C256.065 256.431 258.924 257.396 260.478 262.099L260.501 262.174C260.559 262.353 260.617 262.526 260.675 262.7C260.288 263.127 260.172 263.711 260.264 264.219C260.409 265.028 261.01 265.542 261.732 265.542C262.327 266.934 263.072 268.228 264.21 269.459C264.528 269.805 264.921 269.984 265.337 269.984C265.978 269.984 266.625 269.534 266.902 268.893C267.168 268.274 267.053 267.61 266.585 267.107C265.909 266.38 265.377 265.605 264.938 264.808C265.36 264.756 265.787 264.722 266.221 264.722C269.918 264.722 273.176 266.582 276.619 268.552C280.068 270.522 283.633 272.561 287.752 272.648H287.792C288.873 272.648 289.369 271.81 289.381 271.024C289.392 270.187 288.838 269.326 287.763 269.303C283.592 269.21 280.126 267.2 276.781 265.259C274.482 263.924 272.107 262.544 269.56 261.845C271.484 259.915 273.771 257.483 275.897 254.71C275.972 254.716 276.042 254.733 276.123 254.733H276.192C277.151 254.698 278.11 254.641 279.063 254.583C280.444 254.496 281.871 254.409 283.269 254.409C284.927 254.409 286.325 254.531 287.654 254.796C287.862 255.08 288.561 256.547 289.127 257.737C290.063 259.701 290.646 260.909 290.895 261.174C292.691 263.069 294.696 264.063 297.191 264.3C301.542 264.704 303.367 265.322 304.592 269.904C303.304 269.655 302.004 269.418 300.71 269.21C299.514 269.02 298.711 269.979 298.636 270.897C298.572 271.706 299.058 272.318 299.872 272.445C301.883 272.769 303.916 273.168 305.88 273.549C307.856 273.936 309.901 274.34 311.923 274.664C312.027 274.681 312.125 274.687 312.223 274.687C313.246 274.687 313.928 273.815 313.997 272.977C314.043 272.139 313.558 271.533 312.743 271.4ZM213.112 151.502C209.496 151.502 205.573 150.075 202.731 147.742C204.071 147.597 205.405 147.366 206.705 147.141C208.866 146.771 211.107 146.384 213.337 146.384C213.482 146.384 213.62 146.401 213.765 146.401C213.794 148.631 213.834 150.249 213.88 151.462C213.626 151.479 213.372 151.502 213.112 151.502ZM152.811 78.5412C150.997 78.5758 149.131 78.6163 147.276 78.6798C149.044 76.8774 150.668 75.2367 152.366 73.648C152.788 73.2551 152.95 72.6774 152.811 72.0997C152.661 71.4931 152.21 71.0136 151.632 70.8461C149.177 70.1528 146.941 69.1707 144.81 67.8536C147.75 67.351 150.76 67.0448 153.672 66.7444C156.237 66.4844 158.871 66.2071 161.471 65.8027C161.702 69.9738 162.025 74.1217 162.372 78.2119C159.189 78.4083 155.954 78.4776 152.811 78.5412ZM79.2803 225.772C79.1821 226.755 79.4247 228.222 79.6789 229.782C80.17 232.78 80.7188 236.165 79.2514 237.454C75.9585 236.576 72.5558 235.674 69.3264 235.674C65.1611 235.674 62.0126 237.228 59.696 240.429C57.1541 243.947 56.068 248.234 55.0224 252.382C54.5949 254.08 54.15 255.802 53.6128 257.483C53.243 257.529 52.8675 257.564 52.492 257.564C49.7883 257.564 47.31 256.287 44.9125 255.051C42.4919 253.803 39.9846 252.515 37.2232 252.515C36.5877 252.515 35.9522 252.584 35.3283 252.717C34.4906 252.902 33.6703 253.15 32.8673 253.427C33.0117 249.505 33.6183 242.486 34.0054 238.06C34.0978 237.026 34.1729 236.137 34.2307 235.461C34.4329 233.005 34.8719 230.608 35.5305 228.337C35.7905 227.436 38.344 222.93 40.1002 222.93C40.6548 222.93 41.1054 223.415 41.4462 224.374C41.7813 225.316 41.8333 226.391 41.8795 227.425C41.9835 229.684 42.0933 232.017 45.3342 232.636C45.5826 232.682 45.8195 232.705 46.0506 232.705C48.7716 232.705 49.6324 229.516 50.3256 226.951C50.574 226.038 50.8051 225.177 51.0882 224.605C51.7814 223.19 52.4342 222.474 53.0408 222.474C53.9189 222.474 54.7451 223.964 55.4672 225.276C55.7676 225.819 56.0449 226.327 56.328 226.731C57.6856 228.678 59.9387 229.025 62.365 227.702C63.7862 226.922 65.086 225.634 65.9353 224.161C66.0219 224.01 66.1721 223.664 66.3743 223.184C67.0213 221.665 68.7314 217.627 69.9503 217.627C70.3605 217.627 70.6725 218.181 70.8631 218.644C71.2444 219.574 71.487 220.463 71.7008 221.243C72.3882 223.751 72.8851 225.559 76.9926 225.559C77.4374 225.559 77.8822 225.368 78.2058 225.033C78.5177 224.709 78.6795 224.299 78.6679 223.878C78.6217 222.347 79.0203 218.84 80.1642 217.656C80.7592 217.043 81.464 217.17 82.3422 217.973C81.025 219.926 79.5865 222.693 79.2803 225.772ZM272.142 204.12L272.887 202.306C274.569 198.227 276.307 194.01 277.798 189.793C278.064 189.048 278.306 188.256 278.549 187.494C279.722 183.738 280.929 179.862 284.996 178.481C285.412 178.343 285.811 178.268 286.186 178.268C288.699 178.268 289.699 181.549 289.756 183.756C289.82 186.113 288.457 188.938 287.359 191.208C287.111 191.717 286.874 192.208 286.666 192.67C284.944 196.46 282.835 200.151 280.802 203.721C280.415 204.397 280.028 205.073 279.647 205.755C276.463 211.376 273.823 217.338 271.276 223.103C270.016 225.94 268.722 228.875 267.37 231.74C265.181 230.643 262.772 229.603 260.218 228.644C264.828 220.458 268.728 212.439 272.142 204.12ZM209.126 208.418C209.299 208.285 209.461 208.118 209.582 207.904C210.46 206.35 211.379 205.564 212.309 205.564C214.036 205.564 215.7 208.383 216.515 211.006C216.879 212.173 216.815 213.612 216.757 214.883C216.746 215.154 216.734 215.426 216.728 215.686C216.648 218.482 215.798 226.154 213.765 226.154C213.563 226.154 213.349 226.079 213.118 225.928C213.066 225.894 213.008 225.876 212.956 225.853C213.083 220.001 211.945 213.583 209.126 208.418ZM232.633 241.96C230.813 239.614 228.589 237.748 225.036 236.766C224.851 236.714 224.666 236.685 224.481 236.639C224.32 235.686 224.493 234.779 225.019 234.045C225.666 233.144 226.729 232.601 227.872 232.601C228.935 232.601 229.952 233.08 230.732 233.947C231.951 235.305 233.118 237.939 232.979 240.342C232.945 240.949 232.823 241.486 232.633 241.96ZM237.145 248.846C236.873 248.488 236.602 248.118 236.353 247.714C236.093 247.292 235.839 246.87 235.591 246.46C235.29 245.963 234.99 245.472 234.695 244.993C235.931 243.497 236.492 241.365 236.278 238.875C235.972 235.258 234.106 231.81 231.645 230.29C230.495 229.58 229.253 229.221 227.959 229.221C225.706 229.221 223.574 230.325 222.257 232.168C221.408 233.358 221.003 234.715 221.038 236.125C220.576 236.085 220.12 236.056 219.663 236.021C217.422 235.865 215.099 235.703 212.904 234.779C212.529 234.623 212.159 234.415 211.795 234.167C211.795 234.161 211.801 234.155 211.801 234.143C212.199 232.705 212.494 231.128 212.69 229.458C213.176 229.643 213.649 229.741 214.094 229.741C219.392 229.741 220.01 217.425 220.079 214.958C220.2 210.775 219.126 207.39 216.705 204.305C215.509 202.785 214.077 201.982 212.557 201.982C210.634 201.982 208.635 203.288 207.167 205.437C206.324 204.345 205.405 203.386 204.412 202.554C206.232 198.268 206.728 193.49 207.202 188.857C207.988 181.243 208.727 174.05 214.764 168.712C215.359 168.187 215.891 167.921 216.347 167.921C217.89 167.921 218.802 170.977 219.062 176.997L219.08 177.343C219.213 180.157 219.137 183.022 219.062 185.789C219.022 187.251 218.987 188.765 218.976 190.249C218.976 190.619 219.114 190.994 219.374 191.312C219.553 193.415 219.825 195.628 220.195 198.077C220.484 200.001 222.442 201.266 224.221 201.532C225.515 201.723 225.978 208.655 226.18 211.613C226.255 212.757 226.313 213.589 226.376 213.964C226.809 216.408 227.705 221.486 231.396 222.555C231.835 222.682 232.269 222.745 232.685 222.745C234.984 222.745 236.446 220.77 237.855 218.857C239.253 216.968 240.698 215.01 242.927 215.01C243.679 215.01 244.476 215.218 245.36 215.651C245.579 215.761 245.81 215.819 246.053 215.83C246.469 216.061 246.891 216.287 247.312 216.512C251.651 218.857 255.753 221.076 258.092 225.57C257.734 226.217 257.393 226.853 257.024 227.5C254.378 226.61 251.46 225.749 248.121 224.86C247.826 224.282 247.185 223.889 246.521 223.889C245.955 223.889 245.469 224.172 245.157 224.686C240.449 232.428 238.381 241.041 237.145 248.846ZM265.395 261.215C265.343 261.261 265.296 261.313 265.256 261.365C264.672 261.4 264.095 261.486 263.517 261.602C263.448 261.423 263.384 261.244 263.321 261.065C262.165 257.939 261.073 254.981 256.977 253.335C256.001 252.942 254.857 252.751 253.471 252.751C252.171 252.751 250.836 252.913 249.554 253.075C248.716 253.179 247.925 253.277 247.179 253.323C244.487 253.491 242.101 252.884 240.091 251.59C241.177 244.092 242.922 235.611 247.07 228.037C249.571 228.701 253.251 229.707 256.948 230.978C257.156 231.099 257.387 231.18 257.584 231.203C260.704 232.301 263.575 233.508 266.122 234.785C266.134 235.189 266.296 235.582 266.59 235.9C267.168 236.524 268.15 236.674 268.751 236.206C272.72 238.505 275.897 241.134 278.208 244.028C275.851 250.568 270.415 256.379 265.395 261.215Z" fill="#A7ACBB"/>
<path d="M223.117 293.008V293.326C223.117 294.395 223.961 294.949 224.793 294.949C225.624 294.949 226.468 294.389 226.468 293.326V293.008C226.462 290.876 223.117 290.876 223.117 293.008Z" fill="#A7ACBB"/>
<path d="M228.281 292.779C229.181 292.779 229.911 292.029 229.911 291.104C229.911 290.179 229.181 289.429 228.281 289.429C227.382 289.429 226.652 290.179 226.652 291.104C226.652 292.029 227.382 292.779 228.281 292.779Z" fill="#A7ACBB"/>
<path d="M224.198 286.664C224.198 285.832 223.637 284.988 222.569 284.988C221.5 284.988 220.939 285.832 220.939 286.664C220.939 287.496 221.5 288.339 222.569 288.339C223.637 288.339 224.198 287.496 224.198 286.664Z" fill="#A7ACBB"/>
<path d="M241.518 293.41C240.894 292.786 239.779 292.786 239.15 293.41C238.497 294.063 238.497 295.12 239.15 295.773L239.467 296.091C239.779 296.403 240.201 296.576 240.652 296.576C241.102 296.576 241.524 296.403 241.836 296.091C242.477 295.45 242.477 294.369 241.836 293.728L241.518 293.41Z" fill="#A7ACBB"/>
<path d="M234.625 280.867C233.556 280.867 232.996 281.711 232.996 282.543C232.996 283.374 233.556 284.218 234.625 284.218C235.694 284.218 236.254 283.374 236.254 282.543C236.254 281.711 235.688 280.867 234.625 280.867Z" fill="#A7ACBB"/>
<path d="M115.711 302.005C115.497 301.242 114.85 300.717 114.145 300.717C113.856 300.717 113.568 300.803 113.29 300.977C109.697 303.184 106.242 304.171 102.1 304.171C99.6853 304.171 97.1434 303.848 94.4513 303.507C93.81 303.426 93.1572 303.345 92.4871 303.259C91.8169 303.178 91.0081 303.091 90.1473 303.039C90.8175 302.883 91.401 302.352 91.401 301.468V301.15C91.401 299.012 88.056 299.012 88.056 301.15V301.468C88.056 302.277 88.5413 302.791 89.1363 302.993C88.9515 302.987 88.7666 302.981 88.576 302.981C84.3009 302.981 81.5048 304.391 80.0317 307.297C79.7544 307.846 79.7717 308.429 80.0837 308.937C80.413 309.475 81.0138 309.821 81.6146 309.821C82.1807 309.821 82.6602 309.509 82.9375 308.966C83.9081 307.054 85.9012 306.13 89.0324 306.124C91.4703 306.124 94.1393 306.673 96.4906 307.158C97.6171 307.389 98.6858 307.609 99.5524 307.724C104.613 308.406 109.645 307.152 115 303.859C115.642 303.449 115.919 302.739 115.711 302.005Z" fill="#A7ACBB"/>
<path d="M104.307 315.335C103.238 315.335 102.678 316.178 102.678 317.01C102.678 317.842 103.238 318.686 104.307 318.686C105.376 318.686 105.936 317.842 105.936 317.01C105.936 316.173 105.376 315.335 104.307 315.335Z" fill="#A7ACBB"/>
<path d="M92.9485 318.419C92.9139 318.367 92.8676 318.309 92.8157 318.251L92.7925 318.222C92.5095 317.593 91.9664 317.234 91.3021 317.234C90.8283 317.234 90.3257 317.471 89.9907 317.858C89.7076 318.176 89.5805 318.563 89.6325 318.944C89.6845 319.343 89.7307 319.713 89.9733 320.036C90.008 320.088 90.06 320.152 90.112 320.21C90.3893 320.845 90.9381 321.221 91.6198 321.221C92.0935 321.221 92.5961 320.984 92.9312 320.602C93.2143 320.279 93.3414 319.898 93.2894 319.516C93.2432 319.112 93.1912 318.748 92.9485 318.419Z" fill="#A7ACBB"/>
<path d="M125.15 318.587V318.905C125.15 319.974 125.994 320.528 126.826 320.528C127.658 320.528 128.501 319.968 128.501 318.905V318.587C128.501 316.45 125.15 316.456 125.15 318.587Z" fill="#A7ACBB"/>
<path d="M123.336 318.362C124.236 318.362 124.965 317.612 124.965 316.687C124.965 315.762 124.236 315.012 123.336 315.012C122.436 315.012 121.707 315.762 121.707 316.687C121.707 317.612 122.436 318.362 123.336 318.362Z" fill="#A7ACBB"/>
<path d="M129.043 310.575C127.974 310.575 127.414 311.419 127.414 312.251C127.414 313.082 127.974 313.926 129.043 313.926C130.112 313.926 130.672 313.082 130.672 312.251C130.672 311.419 130.112 310.575 129.043 310.575Z" fill="#A7ACBB"/>
<path d="M110.101 318.991L109.784 319.309C109.142 319.95 109.142 321.031 109.784 321.672C110.096 321.984 110.517 322.157 110.968 322.157C111.419 322.157 111.84 321.984 112.152 321.672L112.47 321.354C113.123 320.701 113.123 319.638 112.47 318.991C111.84 318.367 110.725 318.367 110.101 318.991Z" fill="#A7ACBB"/>
<path d="M116.993 306.45C115.924 306.45 115.363 307.294 115.369 308.126C115.375 308.957 115.93 309.801 116.998 309.801C118.067 309.801 118.627 308.957 118.627 308.126C118.616 307.294 118.061 306.45 116.993 306.45Z" fill="#A7ACBB"/>
<path d="M248.854 273.022C248.854 273.854 249.414 274.697 250.483 274.697C251.551 274.697 252.112 273.854 252.112 273.022C252.112 272.19 251.551 271.347 250.483 271.347C249.408 271.352 248.854 272.19 248.854 273.022Z" fill="#A7ACBB"/>
<path d="M254.054 266.998V266.68C254.054 264.543 250.709 264.543 250.709 266.68V266.998C250.709 268.067 251.552 268.621 252.384 268.621C253.216 268.627 254.054 268.067 254.054 266.998Z" fill="#A7ACBB"/>
<path d="M238.744 269.309C239.813 269.309 240.373 268.465 240.373 267.633C240.373 266.801 239.813 265.958 238.744 265.958C237.676 265.958 237.115 266.801 237.115 267.633C237.115 268.465 237.676 269.309 238.744 269.309Z" fill="#A7ACBB"/>
<path d="M279.023 274.837H278.705C277.637 274.837 277.076 275.68 277.076 276.512C277.076 277.344 277.637 278.188 278.705 278.188H279.023C280.092 278.188 280.652 277.344 280.652 276.512C280.652 275.68 280.092 274.837 279.023 274.837Z" fill="#A7ACBB"/>
<path d="M259.389 37.4588C259.455 37.6011 259.816 38.0425 259.906 38.1279C266.023 49.6644 282.011 45.5405 283.249 33.3064C284.028 25.6233 275.69 18.7138 268.315 20.2988C260.338 22.0167 255.853 29.956 259.389 37.4588ZM270.721 22.4296C277.668 22.2825 282.243 29.6713 280.43 35.9022C277.782 45.0137 263.432 44.1643 261.069 35.6175C260.978 35.2901 260.779 34.9911 260.77 34.5925C259.066 28.352 264.125 22.572 270.721 22.4296Z" fill="#FF5B0D"/>
<path d="M259.569 21.664C260.575 22.7744 262.213 21.1277 261.207 20.0267C254.938 13.1314 248.142 6.75815 241.408 0.327915C240.326 -0.701872 238.689 0.930602 239.771 1.96513C246.505 8.39537 253.305 14.7639 259.569 21.664Z" fill="#FF5B0D"/>
<path d="M265.934 17.2902C266.499 18.6521 268.739 18.0542 268.17 16.6732C266.271 12.0748 264.843 7.31974 263.728 2.47927C263.391 1.02239 261.16 1.63931 261.493 3.0962C262.608 7.93667 264.036 12.6917 265.934 17.2902Z" fill="#FF5B0D"/>
<path d="M275.649 17.3652C275.62 13.6779 276.351 10.0428 276.323 6.35551C276.313 4.86066 273.992 4.86066 274.007 6.35551C274.035 10.0428 273.304 13.6779 273.333 17.3652C273.342 18.8601 275.658 18.8601 275.649 17.3652Z" fill="#FF5B0D"/>
<path d="M281.585 21.0807C283.274 19.211 284.816 17.0755 286.017 14.8593C286.729 13.5448 284.726 12.3726 284.014 13.6919C282.909 15.742 281.509 17.7161 279.947 19.4435C278.946 20.5492 280.583 22.1912 281.585 21.0807Z" fill="#FF5B0D"/>
<path d="M305.487 19.3965C305.217 19.3965 304.998 19.4724 304.827 19.5958C301.862 20.8154 298.758 21.4608 295.688 22.3482C292.024 23.4065 288.451 24.6546 284.706 25.4281C283.245 25.7318 283.862 27.9622 285.323 27.6632C288.588 26.9894 291.749 25.9976 294.928 25.0057C298.487 23.8953 302.156 23.2167 305.601 21.774C305.658 21.7503 305.705 21.7218 305.753 21.6933C306.977 21.4228 306.887 19.3965 305.487 19.3965Z" fill="#FF5B0D"/>
<path d="M247.373 23.2016C245.983 22.6511 245.385 24.891 246.756 25.4368C249.428 26.495 252.052 27.6624 254.686 28.7966C256.043 29.3803 257.225 27.3824 255.854 26.794C253.035 25.5839 250.225 24.3358 247.373 23.2016Z" fill="#FF5B0D"/>
<path d="M253.998 33.4375C247.981 34.6998 241.925 35.7296 235.841 36.6265C234.366 36.8448 234.997 39.0753 236.458 38.8617C242.542 37.9695 248.597 36.9398 254.615 35.6727C256.076 35.3642 255.455 33.1338 253.998 33.4375Z" fill="#FF5B0D"/>
<path d="M257.297 40.22C254.047 42.5833 250.967 45.1601 247.887 47.7417C246.739 48.705 248.39 50.3328 249.524 49.3789C252.452 46.9254 255.371 44.4672 258.465 42.2226C259.661 41.3542 258.508 39.342 257.297 40.22Z" fill="#FF5B0D"/>
<path d="M262.384 46.3318C258.307 53.4264 253.913 60.3217 250.871 67.9526C250.316 69.343 252.56 69.941 253.106 68.5695C256.067 61.138 260.414 54.4182 264.386 47.504C265.131 46.2037 263.129 45.0363 262.384 46.3318Z" fill="#FF5B0D"/>
<path d="M269.275 48.847C269.721 53.1464 269.692 57.4744 269.949 61.7881C270.039 63.2735 272.355 63.283 272.264 61.7881C272.003 57.4744 272.032 53.1512 271.591 48.847C271.439 47.3758 269.123 47.3616 269.275 48.847Z" fill="#FF5B0D"/>
<path d="M278.29 46.9098C277.459 45.6759 275.452 46.8339 276.287 48.0772C280.264 53.9902 282.922 60.5865 285.944 67.0072C286.58 68.3597 288.578 67.1828 287.947 65.8398C284.924 59.4238 282.267 52.8228 278.29 46.9098Z" fill="#FF5B0D"/>
<path d="M292.954 46.9581C289.907 45.7574 287.169 43.9067 284.151 42.6301C282.794 42.0559 281.607 44.049 282.984 44.6327C286.187 45.9852 289.096 47.9167 292.337 49.1932C293.728 49.7437 294.325 47.4991 292.954 46.9581Z" fill="#FF5B0D"/>
<path d="M304.348 38.0738C298.715 37.082 293.101 36.0332 287.639 34.3058C286.211 33.855 285.603 36.0901 287.022 36.541C292.484 38.2684 298.098 39.3171 303.731 40.3089C305.193 40.5652 305.819 38.33 304.348 38.0738Z" fill="#FF5B0D"/>
</svg>
