<svg width="660" height="941" viewBox="0 0 660 941" fill="none" xmlns="http://www.w3.org/2000/svg">
<path d="M557.334 761.086C556.129 761.086 555.119 761.707 554.498 762.839C552.611 766.284 547.108 770.289 542.86 770.289C540.486 770.289 538.806 769.06 537.881 766.637C537.321 765.152 536.018 764.275 534.411 764.275C533.157 764.275 531.989 764.835 531.368 765.748C530.808 766.552 530.723 767.575 531.124 768.609C533.218 774.087 537.455 777.094 543.042 777.094C549.811 777.094 557.2 772.59 560.609 766.381C561.23 765.249 561.23 764.044 560.609 762.985C559.927 761.853 558.625 761.086 557.334 761.086Z" fill="#A7ACBB"/>
<path d="M493.469 836.368C493.676 834.87 492.995 833.117 490.998 832.57C487.541 831.608 484.984 828.893 482.27 826.02C479.932 823.537 477.51 820.98 474.418 819.544C472.19 818.509 469.731 818.034 466.675 818.034C464.277 818.034 461.806 818.339 459.42 818.631C456.218 819.02 452.773 819.385 450.009 819.093C447.733 818.874 446.65 820.481 446.564 822.088C446.467 823.865 447.611 825.898 449.9 826.142C450.837 826.239 451.811 826.288 452.882 826.288C455.074 826.288 457.253 826.069 459.359 825.862C461.453 825.655 463.437 825.46 465.409 825.46C468.708 825.46 472.993 825.947 476.925 829.757C477.887 830.695 478.764 831.644 479.616 832.57C482.245 835.43 484.729 838.145 489.123 839.362C489.464 839.46 489.805 839.508 490.134 839.508C492.045 839.508 493.25 837.926 493.469 836.368Z" fill="#A7ACBB"/>
<path d="M552.635 845.827C552.246 845.827 551.844 845.839 551.454 845.851C552.708 845.425 553.731 844.342 553.731 842.638V841.968C553.731 837.464 546.682 837.464 546.682 841.968V842.638C546.682 844.5 547.912 845.62 549.324 845.949C547.51 846.058 545.806 846.241 544.394 846.411C542.981 846.582 541.606 846.752 540.255 846.935C534.582 847.653 529.225 848.335 524.137 848.335C515.408 848.335 508.128 846.265 500.556 841.603C499.972 841.238 499.363 841.055 498.755 841.055C497.257 841.055 495.906 842.175 495.456 843.77C495.017 845.328 495.602 846.825 496.989 847.665C508.274 854.604 518.878 857.234 529.542 855.797C531.38 855.554 533.62 855.091 535.994 854.604C540.949 853.582 546.573 852.425 551.71 852.425C558.308 852.425 562.508 854.385 564.553 858.402C565.137 859.547 566.148 860.204 567.341 860.204C568.607 860.204 569.873 859.474 570.567 858.342C571.224 857.27 571.261 856.041 570.677 854.884C567.536 848.797 561.644 845.827 552.635 845.827Z" fill="#A7ACBB"/>
<path d="M194.059 807.588L193.402 807.734C191.272 808.233 189.153 808.72 187.06 809.183C185.319 809.573 184.321 810.96 184.515 812.738C184.698 814.357 185.988 816.086 188.033 816.086C188.313 816.086 188.593 816.049 188.886 815.988L190.468 815.635C203.811 812.653 217.603 809.573 231.481 809.56C233.904 809.56 236.314 809.658 238.652 809.84C242.048 810.108 245.493 810.534 248.841 810.936C254.623 811.63 260.588 812.36 266.48 812.36C270.583 812.36 274.284 812.019 277.778 811.301C279.506 810.948 280.517 809.585 280.346 807.832C280.164 805.969 278.544 803.973 275.976 804.484C274.953 804.691 273.858 804.874 272.543 805.032C270.826 799.42 269.646 793.735 268.489 788.22C265.336 773.125 262.366 758.869 249.303 747.536C246.784 745.344 243.886 743.567 240.721 742.24C240.21 740.743 238.725 739.319 236.558 739.659C235.572 739.818 234.622 740.012 233.733 740.219C231.871 739.903 229.96 739.732 228.06 739.732C218.577 739.732 209.63 743.701 203.518 750.628C202.557 751.711 202.338 753.148 202.922 754.463C203.531 755.814 204.833 756.727 206.172 756.715C207.061 756.715 207.889 756.313 208.546 755.57C210.92 752.88 213.574 750.798 216.459 749.337C201.631 763.033 197.48 787.49 194.108 807.345L194.059 807.588ZM233.186 747.73C241.098 749.751 248.561 755.266 253.649 762.899C259.079 771.031 260.783 781.22 262.439 791.069C263.242 795.877 264.082 800.844 265.336 805.482H265.287C259.103 805.482 252.749 804.654 246.601 803.863C241.987 803.267 237.227 802.646 232.613 802.39C231.347 802.317 230.02 802.281 228.706 802.281C219.368 802.281 210.116 803.997 201.473 805.896C205.089 784.239 210.214 755.059 233.186 747.73Z" fill="#A7ACBB"/>
<path d="M186.147 832.863C190.079 832.863 193.061 834.02 195.508 836.491C196.19 837.173 197.006 837.538 197.882 837.538C199.294 837.538 200.682 836.576 201.254 835.188C201.79 833.886 201.51 832.547 200.487 831.512C196.787 827.787 192.635 826.046 187.437 826.046C183.956 826.046 180.474 826.789 176.785 827.58C172.598 828.468 168.264 829.406 163.954 829.138C161.653 829.028 160.558 830.745 160.509 832.364C160.448 834.166 161.605 836.053 163.893 836.199C167.606 836.418 171.697 835.468 175.641 834.555C179.159 833.715 182.811 832.863 186.147 832.863Z" fill="#A7ACBB"/>
<path d="M255.549 830.122C250.4 828.125 245.08 826.068 239.553 824.887C238.165 824.595 236.729 824.437 235.292 824.437C229.315 824.437 223.764 826.993 218.383 829.476C215.985 830.584 213.514 831.716 211.055 832.605C209.07 833.323 208.449 835.186 208.717 836.732C209.082 838.85 210.994 840.092 213.002 839.374C215.474 838.485 217.847 837.426 220.148 836.391C225.395 834.029 230.35 831.814 235.998 831.814C237.483 831.814 238.993 831.972 240.466 832.289C245.311 833.323 250.047 835.247 254.624 837.097C258.495 838.668 262.488 840.287 266.566 841.394C266.895 841.48 267.236 841.528 267.552 841.528C269.488 841.528 270.705 839.934 270.912 838.351C271.107 836.866 270.413 835.125 268.429 834.589C264.046 833.408 259.725 831.729 255.549 830.122Z" fill="#A7ACBB"/>
<path d="M156.845 848.639C151.671 847.202 146.717 844.962 141.932 842.783C137.258 840.665 132.425 838.474 127.36 837.013C125.181 836.38 122.905 836.063 120.604 836.063C114.688 836.063 108.564 838.048 101.333 842.309C99.9454 843.124 99.3367 844.597 99.7628 846.143C100.201 847.75 101.613 848.907 103.123 848.907C103.719 848.907 104.328 848.736 104.9 848.395C110.463 845.121 115.369 843.587 120.336 843.587C124.463 843.587 128.675 844.609 133.618 846.813C134.932 847.397 136.235 847.994 137.525 848.578C143.332 851.22 148.823 853.715 154.97 855.432C155.311 855.529 155.652 855.578 155.981 855.578C157.892 855.578 159.097 853.995 159.316 852.437C159.523 850.94 158.829 849.187 156.845 848.639Z" fill="#A7ACBB"/>
<path d="M192.197 844.171C189.081 844.171 185.672 844.792 182.337 845.973C180.352 846.679 179.719 848.541 179.987 850.087C180.352 852.218 182.263 853.472 184.284 852.753C190.347 850.611 195.265 850.72 198.893 853.058C199.489 853.447 200.098 853.642 200.731 853.642C202.167 853.642 203.506 852.546 203.957 850.988C204.42 849.418 203.86 847.884 202.484 846.995C199.587 845.12 196.117 844.171 192.197 844.171Z" fill="#A7ACBB"/>
<path d="M314.543 824.693C315.164 824.072 315.481 823.244 315.481 822.282C315.469 807.759 317.197 793.126 318.877 778.981C320.277 767.148 321.726 754.913 322.152 742.776C322.188 741.814 321.884 740.974 321.287 740.354C320.667 739.708 319.729 739.331 318.731 739.331C316.99 739.331 315.176 740.5 315.103 742.74C314.677 754.828 313.229 767.05 311.829 778.859C310.149 793.041 308.408 807.71 308.42 822.294C308.42 824.547 310.197 825.727 311.95 825.727C312.949 825.703 313.898 825.338 314.543 824.693Z" fill="#A7ACBB"/>
<path d="M336.978 842.382C341.835 842.382 346.765 842.065 351.55 841.761L353.035 841.663C360.911 841.164 367.972 840.458 374.631 839.509C379.646 838.803 384.577 837.634 388.716 836.599C390.238 836.222 392.015 835.431 393.89 834.603C396.617 833.398 399.441 832.144 401.498 832.144C403.75 832.144 404.931 830.366 404.931 828.613C404.931 826.86 403.75 825.083 401.498 825.083C398.601 825.083 395.18 826.507 391.869 827.895C390.055 828.65 388.351 829.368 386.841 829.794C377.82 832.363 368.276 833.422 359.292 834.201C357.977 834.311 356.626 834.432 355.275 834.554C349.468 835.09 343.466 835.638 337.477 835.638C328.663 835.638 321.846 834.457 316.003 831.9C315.504 831.681 315.004 831.572 314.493 831.572C312.545 831.572 311.06 833.154 310.731 834.688C310.427 836.161 311.109 837.403 312.545 838.036C319.35 841.006 327.105 842.382 336.978 842.382Z" fill="#A7ACBB"/>
<path d="M432.395 829.88C431.652 826.495 430.691 823.135 429.303 819.885C429.266 819.812 429.242 819.751 429.193 819.702C428.913 818.838 428.353 818.181 427.611 817.864C424.19 816.391 420.733 815.417 417.044 814.906C414.768 803.84 413.648 792.239 412.564 781.015C412.175 776.961 411.773 772.761 411.322 768.707L410.921 765.104C409.082 748.474 407.171 731.285 404.554 714.461C404.359 713.171 403.665 712.526 403.069 712.209C397.834 704.771 379.074 702.604 372.002 701.776L371.356 701.703C360.327 700.413 348.543 700.559 336.175 702.142C319.655 704.26 308.711 708.849 302.721 716.178C301.358 716.677 300.603 717.87 300.713 719.392C301.662 732.466 299.714 745.687 297.828 758.469C297.28 762.158 296.72 765.968 296.245 769.705L295.685 774.051C294.626 782.244 293.53 790.717 292.629 799.08C292.203 802.988 291.996 807.018 291.789 810.901C291.619 814.139 291.436 817.475 291.144 820.749C291.035 820.798 290.913 820.847 290.803 820.908C281.71 825.619 277.972 834.627 279.409 848.347C271.642 850.745 263.924 855.505 256.997 862.237C256.875 862.359 256.766 862.481 256.668 862.602C250.789 863.296 245.055 865.098 239.516 866.839C234.89 868.287 230.093 869.797 225.175 870.686C223.447 870.99 222.436 872.317 222.582 874.046C222.741 875.75 224.067 877.576 226.259 877.576C226.49 877.576 226.721 877.552 226.965 877.515C231.603 876.675 236.217 875.141 240.672 873.656C247.246 871.465 254.051 869.188 260.99 869.188C262.451 869.188 263.9 869.286 265.3 869.493C265.494 869.517 265.677 869.529 265.86 869.529C268.075 869.529 269.524 867.654 269.658 865.853C269.767 864.221 268.818 862.992 267.199 862.7C272.141 858.877 277.266 856.211 282.464 854.787C282.513 854.775 282.55 854.75 282.586 854.738C291.023 862.395 306.02 867.399 327.263 869.651C338.268 878.319 352.475 884.965 370.224 889.786C380.84 892.671 391.151 894.071 401.754 894.071C415.303 894.071 429.23 891.722 444.35 886.901H444.386C445.25 886.901 446.054 886.572 446.736 885.951C452.53 880.619 455.793 872.232 456.681 860.302C457.217 859.693 457.485 858.914 457.473 858.037C457.302 844.208 444.788 833.106 432.395 829.88ZM430.946 851.987C434.671 854.811 440.843 859.705 439.224 864.063C439.005 864.66 438.932 865.244 439.03 865.792C429.4 871.83 415.802 873.108 406.039 873.12C399.076 873.12 392.952 872.487 389.045 871.964C384.017 871.282 379.135 870.333 374.4 869.152C381.022 868.239 388.046 866.961 395.618 865.305C406.709 862.858 420.246 859.863 430.946 851.987ZM342.675 708.46C350.016 707.717 357.783 707.644 365.72 708.228C373.061 708.764 380.109 709.848 386.634 711.418C391.333 712.55 396.178 714.875 396.324 717.14C396.41 718.515 394.693 719.927 391.345 721.218C381.619 724.955 370.504 725.113 359.743 725.259C357.077 725.296 354.447 725.332 351.879 725.43C350.065 725.491 347.959 725.649 345.719 725.807C341.908 726.075 337.599 726.379 333.289 726.379C321.031 726.379 313.665 723.835 310.184 718.381C318.218 710.943 334.093 709.336 342.675 708.46ZM286.433 848.42C285.325 839.85 286.543 833.982 290.243 830.062C290.402 830.622 290.694 831.121 291.108 831.56C291.85 832.327 292.909 832.789 293.969 832.789C295.539 832.789 296.695 831.791 296.988 830.184C298.753 820.202 299.52 809.793 300.262 799.738C300.81 792.287 301.382 784.582 302.356 777.131C302.94 772.59 303.659 767.94 304.34 763.448C306.179 751.421 308.066 739.003 308.041 726.745C313.337 731.224 321.505 733.318 333.594 733.318C338.134 733.318 342.675 733.026 346.668 732.783C348.969 732.637 351.148 732.503 353.096 732.43C354.691 732.369 356.285 732.32 357.88 732.271C365.136 732.04 372.635 731.809 379.975 730.823L380.998 730.689C386.549 729.958 394.048 728.96 399.076 725.442C401.024 739.369 402.606 753.551 404.128 767.295L405.15 776.51C405.528 779.858 405.869 783.255 406.209 786.675C407.573 800.249 408.985 814.297 412.808 827.238C413.258 828.772 414.524 829.721 416.119 829.721C417.312 829.721 418.48 829.161 419.15 828.273C419.759 827.457 419.917 826.422 419.6 825.351C419.333 824.438 419.101 823.513 418.858 822.588L418.785 822.308C420.258 822.636 421.767 823.111 423.289 823.708C425.651 829.441 426.527 835.759 427.379 841.871C427.55 843.088 427.72 844.293 427.903 845.511C418.651 853.01 406.611 855.676 394.961 858.256L393.792 858.512C381.156 861.324 369.214 862.98 357.491 863.601C346.461 859.011 336.795 852.912 329.138 845.547C328.943 845.364 328.724 845.194 328.469 845.036C327.616 844.074 326.375 843.672 325.072 843.965C320.227 845.06 316.624 848.164 314.457 850.575C313.592 851.537 313.312 852.766 313.69 853.971C313.519 855.006 313.775 855.992 314.432 856.832C315.443 858.122 316.514 859.376 317.622 860.606C307.153 858.914 292.422 853.703 286.433 848.42ZM442.609 880.035C428.317 884.612 415.108 886.828 402.229 886.828C392.344 886.828 382.495 885.562 372.111 882.944C350.162 877.418 332.547 867.362 321.14 853.862C322.382 852.766 323.721 851.926 325.109 851.354C345.792 870.625 373.852 877.345 393.78 879.585C397.493 879.998 401.352 880.218 405.236 880.218C416.435 880.218 436.644 878.416 448.781 866.656C447.649 872.475 445.616 876.87 442.609 880.035ZM446.127 859.437C444.642 854.507 440.028 850.246 435.073 846.363C435.061 846.314 435.061 846.253 435.049 846.204C435.061 845.949 435.049 845.705 435 845.462C434.757 843.928 434.525 842.394 434.294 840.872C434.148 839.85 433.99 838.827 433.831 837.792C440.515 840.507 447.235 845.998 449.572 853.095C448.744 855.383 447.588 857.514 446.127 859.437Z" fill="#A7ACBB"/>
<path d="M327.946 639.956C329.711 642.744 332.207 644.205 335.165 644.205C339.231 644.205 344.161 641.393 348.373 636.682C351.879 632.75 354.083 628.44 354.509 624.873C354.74 624.423 354.886 623.899 354.898 623.279C354.923 621.866 355.105 619.395 355.337 616.254C356.493 600.806 358.636 572.052 350.406 563.189C348.385 561.01 345.829 560.17 342.846 560.694C332.109 562.593 330.247 577.944 329.139 587.123C329.029 588.024 328.92 588.876 328.822 589.655C326.339 608.293 326.12 623.522 328.116 636.183C328.007 636.329 327.873 636.463 327.775 636.633C327.191 637.692 327.264 638.873 327.946 639.956ZM334.739 601.792L334.8 600.891C334.848 600.063 334.897 599.016 334.958 597.823C335.36 588.888 336.187 570.311 343.808 567.669C344.198 567.535 344.526 567.633 344.879 567.986C347.874 571.078 348.909 588.584 347.947 620.016C347.935 620.308 347.935 620.564 347.923 620.819C347.582 621.379 347.436 622.061 347.533 622.828C347.947 626.48 344.989 630.011 342.36 632.677C340.862 634.198 337.49 637.059 335.36 637.059C335.335 637.059 335.323 637.047 335.299 637.047C335.299 636.84 335.287 636.633 335.25 636.426C333.217 625.238 333.984 613.321 334.739 601.792Z" fill="#A7ACBB"/>
<path d="M325.462 669.904C322.187 667.385 318.292 666.058 314.201 666.058C307.129 666.058 300.141 670.063 296.258 676.296C292.63 674.007 288.905 672.851 285.167 672.851C270.352 672.851 257.874 691.574 256.62 708.312C256.547 709.274 256.815 710.114 257.399 710.735C258.008 711.392 258.921 711.757 259.919 711.757C261.66 711.757 263.498 710.601 263.669 708.385C264.521 697.003 273.469 679.777 284.985 679.777C288.369 679.777 291.765 681.238 295.101 684.123C295.819 684.744 296.696 685.085 297.584 685.085C299.118 685.085 300.433 684.099 300.957 682.565C302.843 676.965 308.042 673.204 313.873 673.204C316.746 673.204 319.485 674.141 321.798 675.918C322.407 676.393 323.052 676.624 323.709 676.624C325 676.624 326.205 675.638 326.704 674.177C327.142 672.911 327.045 671.11 325.462 669.904Z" fill="#A7ACBB"/>
<path d="M63.1936 850.22C62.0127 851.413 61.5014 852.557 61.4893 854.043C61.4893 855.004 61.8058 855.832 62.4144 856.453C63.0597 857.098 63.997 857.463 64.9831 857.463C66.4439 857.463 68.063 856.636 68.4404 854.809C69.5117 853.397 69.4021 851.437 68.1604 850.208C66.8578 848.905 64.4962 848.905 63.1936 850.22Z" fill="#A7ACBB"/>
<path d="M78.8613 845.365V847.373C78.8613 849.625 80.6387 850.794 82.3917 850.794C84.1447 850.794 85.922 849.613 85.922 847.373V845.365C85.922 840.86 78.8613 840.86 78.8613 845.365Z" fill="#A7ACBB"/>
<path d="M67.0162 833.812H65.6771C63.425 833.812 62.2441 835.589 62.2441 837.342C62.2441 839.095 63.425 840.872 65.6771 840.872H67.0162C69.2683 840.872 70.4492 839.095 70.4492 837.342C70.4492 835.589 69.2683 833.812 67.0162 833.812Z" fill="#A7ACBB"/>
<path d="M42.291 843.842H41.6214C39.3693 843.842 38.1885 845.619 38.1885 847.372C38.1885 849.125 39.3693 850.902 41.6214 850.902H42.291C44.5431 850.902 45.724 849.125 45.724 847.372C45.724 845.619 44.5431 843.842 42.291 843.842Z" fill="#A7ACBB"/>
<path d="M54.1357 846.702V847.372C54.1357 849.624 55.9131 850.793 57.6661 850.793C59.4191 850.793 61.1964 849.612 61.1964 847.372V846.702C61.1843 842.198 54.1357 842.198 54.1357 846.702Z" fill="#A7ACBB"/>
<path d="M0 842.029V842.698C0 844.95 1.77734 846.119 3.53035 846.119C5.28335 846.119 7.0607 844.938 7.0607 842.698V842.029C7.0607 837.524 0 837.524 0 842.029Z" fill="#A7ACBB"/>
<path d="M38.8337 827.383C38.3589 825.971 37.1659 825.131 35.6077 825.131C33.1121 825.143 31.4321 826.835 31.4199 829.319C31.4199 830.28 31.7364 831.108 32.3451 831.729C32.9903 832.374 33.9277 832.739 34.9259 832.739C36.0581 832.739 37.1172 832.252 37.7624 831.449C38.8945 830.548 39.3328 828.88 38.8337 827.383Z" fill="#A7ACBB"/>
<path d="M13.5491 825.802C11.0535 825.814 9.3735 827.506 9.36133 829.989C9.36133 830.951 9.67785 831.779 10.2865 832.4C10.9317 833.045 11.8691 833.422 12.8673 833.422C13.9995 833.422 15.0586 832.948 15.6916 832.132C16.8359 831.219 17.2742 829.551 16.7751 828.054C16.3003 826.654 15.1073 825.802 13.5491 825.802Z" fill="#A7ACBB"/>
<path d="M27.5855 834.492H26.7334C24.4813 834.492 23.3004 836.27 23.3126 838.023C23.3126 839.776 24.4934 841.553 26.7456 841.553H27.5977C29.8498 841.553 31.0307 839.776 31.0307 838.023C31.0185 836.257 29.8377 834.492 27.5855 834.492Z" fill="#A7ACBB"/>
<path d="M266.176 887.631H266.846C269.098 887.631 270.279 885.854 270.279 884.101C270.279 882.348 269.098 880.57 266.846 880.57H266.176C263.924 880.57 262.743 882.348 262.743 884.101C262.743 885.854 263.924 887.631 266.176 887.631Z" fill="#A7ACBB"/>
<path d="M285.557 880.57H284.704C282.452 880.57 281.271 882.348 281.271 884.101C281.271 885.854 282.452 887.631 284.704 887.631H285.557C287.809 887.631 288.99 885.854 288.99 884.101C288.99 882.348 287.809 880.57 285.557 880.57Z" fill="#A7ACBB"/>
<path d="M284.815 873.814C285.424 873.193 285.752 872.365 285.74 871.404C285.728 868.908 284.048 867.228 281.528 867.216C280.006 867.216 278.801 868.056 278.326 869.468C277.815 870.965 278.266 872.633 279.41 873.546C280.055 874.35 281.102 874.837 282.246 874.837C283.232 874.837 284.17 874.459 284.815 873.814Z" fill="#A7ACBB"/>
<path d="M234.099 889.639C236.351 889.639 237.532 887.861 237.532 886.108C237.532 884.355 236.351 882.578 234.099 882.578H233.429C231.177 882.578 229.996 884.355 229.996 886.108C229.996 887.861 231.177 889.639 233.429 889.639H234.099Z" fill="#A7ACBB"/>
<path d="M260.345 895.47V894.8C260.345 890.296 253.297 890.296 253.297 894.8V895.47C253.297 897.722 255.074 898.903 256.827 898.903C258.58 898.89 260.345 897.71 260.345 895.47Z" fill="#A7ACBB"/>
<path d="M250.144 882.956C252.04 882.956 253.577 881.376 253.577 879.426C253.577 877.476 252.04 875.896 250.144 875.896C248.248 875.896 246.711 877.476 246.711 879.426C246.711 881.376 248.248 882.956 250.144 882.956Z" fill="#A7ACBB"/>
<path d="M119.045 882.019C117.134 882.42 116.282 884.222 116.416 885.817C116.55 887.387 117.646 888.97 119.8 888.97H119.825C121.322 888.958 122.466 888.446 123.647 887.266C124.304 886.608 124.67 885.732 124.67 884.782C124.67 883.833 124.304 882.944 123.647 882.287C122.466 881.106 120.397 880.996 119.045 882.019Z" fill="#A7ACBB"/>
<path d="M138.354 886.12V886.79C138.354 889.042 140.131 890.211 141.884 890.211C143.637 890.211 145.414 889.03 145.414 886.79V886.12C145.402 881.616 138.354 881.616 138.354 886.12Z" fill="#A7ACBB"/>
<path d="M121.639 875.434V876.103C121.639 878.356 123.416 879.536 125.169 879.536C126.922 879.536 128.699 878.356 128.699 876.103V875.434C128.687 870.93 121.639 870.93 121.639 875.434Z" fill="#A7ACBB"/>
<path d="M97.097 872.572C94.8449 872.572 93.6641 874.35 93.6641 876.103C93.6641 877.856 94.8449 879.633 97.097 879.633C99.3491 879.633 100.53 877.856 100.53 876.103C100.53 874.35 99.3491 872.572 97.097 872.572Z" fill="#A7ACBB"/>
<path d="M113.8 865.889H113.13C110.878 865.889 109.697 867.666 109.697 869.419C109.697 871.172 110.878 872.949 113.13 872.949H113.8C116.052 872.949 117.233 871.172 117.233 869.419C117.233 867.666 116.052 865.889 113.8 865.889Z" fill="#A7ACBB"/>
<path d="M519.474 871.866C517.222 871.866 516.041 873.644 516.041 875.397C516.041 877.15 517.222 878.927 519.474 878.927C521.726 878.927 522.907 877.15 522.907 875.397C522.895 873.644 521.714 871.866 519.474 871.866Z" fill="#A7ACBB"/>
<path d="M546.864 875.869C545.464 875.869 544.319 876.624 543.723 877.951L543.674 878.012C543.564 878.133 543.467 878.255 543.394 878.365C542.883 879.059 542.785 879.826 542.676 880.666C542.578 881.469 542.846 882.272 543.443 882.954C544.149 883.758 545.208 884.257 546.206 884.257C547.643 884.257 548.799 883.466 549.384 882.126C549.493 882.005 549.603 881.871 549.676 881.761C550.187 881.067 550.284 880.3 550.394 879.46C550.491 878.669 550.223 877.853 549.639 877.172C548.921 876.368 547.862 875.869 546.864 875.869Z" fill="#A7ACBB"/>
<path d="M583.629 873.862H582.777C580.525 873.862 579.344 875.64 579.344 877.393C579.344 879.146 580.525 880.923 582.777 880.923H583.629C585.881 880.923 587.062 879.146 587.062 877.393C587.05 875.64 585.881 873.862 583.629 873.862Z" fill="#A7ACBB"/>
<path d="M629.073 863.161H628.404C626.152 863.161 624.971 864.938 624.971 866.691C624.971 868.444 626.152 870.222 628.404 870.222H629.073C631.325 870.222 632.506 868.444 632.506 866.691C632.494 864.938 631.325 863.161 629.073 863.161Z" fill="#A7ACBB"/>
<path d="M611.215 860.678V859.339C611.215 854.847 604.166 854.847 604.166 859.339V860.678C604.166 862.93 605.943 864.099 607.696 864.099C609.437 864.099 611.215 862.93 611.215 860.678Z" fill="#A7ACBB"/>
<path d="M611.701 883.589C613.597 883.589 615.134 882.008 615.134 880.059C615.134 878.109 613.597 876.528 611.701 876.528C609.805 876.528 608.268 878.109 608.268 880.059C608.268 882.008 609.805 883.589 611.701 883.589Z" fill="#A7ACBB"/>
<path d="M615.036 865.839C612.784 865.839 611.604 867.616 611.604 869.369C611.604 871.122 612.784 872.9 615.036 872.9C617.289 872.9 618.469 871.122 618.469 869.369C618.469 867.616 617.289 865.839 615.036 865.839Z" fill="#A7ACBB"/>
<path d="M645.106 853.8H643.767C641.515 853.8 640.334 855.577 640.334 857.33C640.334 859.083 641.515 860.861 643.767 860.861H645.106C647.358 860.861 648.539 859.083 648.539 857.33C648.539 855.577 647.358 853.8 645.106 853.8Z" fill="#A7ACBB"/>
<path d="M629.827 843.963C629.827 842.21 628.646 840.433 626.394 840.433C624.142 840.433 622.961 842.21 622.961 843.963C622.961 845.716 624.142 847.493 626.394 847.493C628.646 847.493 629.827 845.716 629.827 843.963Z" fill="#A7ACBB"/>
<path d="M657.352 833.202C653.882 832.642 650.413 831.985 646.98 831.315C647.296 830.621 647.37 829.83 647.175 829.014C645.507 822.222 642.89 814.99 636.133 812.738C633.492 811.862 630.898 811.57 628.391 811.302C623.363 810.754 619.017 810.279 615.377 805.398C614.257 803.9 613.575 801.94 612.857 799.859C611.81 796.84 610.727 793.723 608.17 792.067C605.626 790.424 602.071 789.633 597.275 789.633C593.769 789.633 590.056 790.047 586.769 790.424C586.112 790.497 585.467 790.57 584.846 790.643C586.879 787.417 588.717 784.045 590.19 780.551C591.541 780.503 592.819 779.723 593.428 778.603C593.976 777.581 593.891 776.424 593.172 775.365C592.953 775.036 592.71 774.72 592.478 774.403L592.162 773.977C592.004 773.064 591.419 772.273 590.555 771.774C584.967 764.677 577.554 758.529 567.936 752.966C571.102 746.209 574.096 739.258 577.006 732.526C578.844 728.265 580.682 724.005 582.581 719.756C586.513 710.93 591.407 702.372 596.131 694.094C598.164 690.527 600.27 686.851 602.266 683.199C602.79 682.249 603.35 681.239 603.934 680.192C611.908 665.863 623.96 644.219 608.256 632.167C606.381 630.73 604.129 630 601.56 630C595.437 630 589.946 633.981 588.412 635.21C582.837 639.641 580.414 647.798 578.284 654.992C577.834 656.514 577.395 657.975 576.957 659.326C569.592 681.774 559.488 704.831 546.182 729.446C541.727 722.605 535.457 717.662 525.572 713.073C522.797 711.782 520.325 710.492 518 709.104L517.513 708.97L517.477 709.019C515.2 708.118 512.839 707.668 510.44 707.668C503.696 707.668 497.682 711.222 494.359 717.175C492.302 720.852 490.354 722.799 488.71 722.799C485.862 722.799 483.22 716.895 481.638 706.998C481.199 704.283 480.992 701.435 480.785 698.671C480.42 693.851 480.043 688.871 478.497 684.245C477.499 681.263 475.149 679.534 471.314 678.974C468.843 678.609 467.26 669.649 467.187 655.625L467.212 655.15C468.21 639.69 470.024 611.447 457.339 608.148C457.4 594.088 457.083 591.409 456.706 588.354C456.341 585.31 455.915 581.877 455.805 565.906C455.793 563.653 454.016 562.485 452.263 562.485C451.678 562.485 451.13 562.619 450.631 562.862C449.73 562.801 448.817 562.74 447.88 562.74C443.084 562.74 438.324 563.556 433.722 564.347C428.512 565.248 423.143 566.173 417.726 565.893H417.58C416.35 565.893 415.157 566.685 414.524 567.914C413.94 569.059 414.001 570.3 414.682 571.25C421.804 581.062 434.806 587.648 447.016 587.648C447.868 587.648 448.708 587.587 449.548 587.526C449.584 587.855 449.621 588.183 449.657 588.488C450.023 591.543 450.351 594.221 450.278 608.708C441.598 612.068 435.037 624.497 432.273 632.301C429.461 640.25 428.804 649.015 428.159 657.488C427.477 666.582 426.759 675.931 423.362 684.245C419.296 682.054 414.853 680.679 410.057 680.265C409.18 672.23 410.081 664.329 411.055 655.966C411.213 654.651 411.359 653.324 411.505 652.01C412.296 644.742 413.295 635.709 409.509 628.21C406.49 622.245 399.161 621.49 393.123 621.49C390.713 621.49 388.327 621.636 386.026 621.758C384.784 621.831 383.591 621.904 382.471 621.941C381.948 611.252 382.24 600.26 382.52 589.62C383.177 565.102 383.859 539.757 374.583 516.225C370.65 506.23 362.299 494.799 350.199 489.577C349.7 478.097 348.738 439.781 347.801 428.594C346.498 413.145 345.147 397.186 345.037 381.421C345.025 379.169 343.248 378 341.495 378C340.496 378 339.559 378.365 338.914 379.01C338.305 379.631 337.976 380.459 337.989 381.421C338.013 385.243 338.122 389.09 338.269 392.925C332.364 393.899 326.351 394.532 320.507 395.128C311.767 396.017 302.722 396.93 293.981 399.073C292.764 399.365 291.741 400.485 291.437 401.848C291.157 403.09 291.534 404.271 292.447 405.001C298.193 409.603 304.048 413.036 310.342 415.47C307.481 418.27 304.657 421.168 301.906 423.98C300.409 425.502 298.923 427.035 297.414 428.545C296.416 429.555 296.16 431.101 296.732 432.501C297.268 433.792 298.388 434.571 299.715 434.571C299.788 434.571 299.861 434.571 299.934 434.559C306.751 434.133 313.702 433.987 320.422 433.865C327.203 433.731 334.203 433.585 341.117 433.134C341.872 442.155 342.602 478.182 343.053 487.373C341.409 487.057 339.729 486.813 337.989 486.728C333.448 486.521 330.149 487.58 327.775 489.954C323.295 494.446 323.307 502.761 323.319 510.808C323.332 515.884 323.331 520.668 322.248 524.284C321.919 525.355 322.126 526.195 322.419 526.767L321.664 527.766C316.319 534.778 310.793 542.033 309.66 550.944C309.527 551.955 309.454 552.989 309.405 554.048C306.739 555.619 304.048 557.055 301.431 558.443C294.358 562.18 287.687 565.699 281.88 571.822C273.736 580.404 268.453 591.324 263.961 601.854C260.041 611.033 257.35 620.699 254.745 630.048L254.49 630.949C252.761 637.146 250.667 642.38 248.098 646.97C246.857 649.198 239.26 657.707 234.561 657.707C232.906 657.707 231.786 656.648 231.141 654.457C230.702 652.984 229.497 652.071 228 651.998C224.701 646.568 220.245 643.403 215.656 643.403C211.724 643.403 207.95 645.728 204.724 650.123C195.606 662.54 185.295 681.141 187.924 699.219C188.022 699.876 188.265 700.449 188.655 700.875C187.206 702.506 185.745 704.125 184.272 705.732C181.509 708.763 178.709 711.855 176.14 714.996C173.717 712.89 171.344 711.831 169.067 711.831C162.737 711.831 158.452 720.06 157.332 728.472C155.907 727.182 155.36 724.893 154.775 722.471C153.826 718.502 152.742 714.01 147.264 713.535C138.487 712.768 136.32 718.32 133.995 724.199C132.924 726.914 131.816 729.726 129.99 731.991C128.054 734.389 126.386 735.606 125.059 735.606C123.075 735.606 121.663 732.916 120.166 730.067C119.289 728.399 118.388 726.683 117.281 725.344C113.714 720.986 108.077 722.349 101.284 729.288C98.9105 731.711 98.0462 735.326 97.2792 738.516C97.121 739.185 96.9627 739.842 96.7923 740.476C96.4757 741.669 96.0132 742.362 95.514 742.362C94.5767 742.362 93.1767 740.244 93.128 738.26C93.0671 735.91 92.8724 733.366 91.9472 730.749C90.6568 727.121 87.2116 724.954 82.7195 724.954C79.4448 724.954 76.1701 726.111 73.9423 728.034C60.2348 739.903 60.4174 780.649 60.5027 798.057V798.361C54.2819 801.453 48.4508 805.495 42.7291 809.464C39.3814 811.789 35.9241 814.187 32.4911 816.305C31.1155 817.157 30.5312 818.667 30.9694 820.225C31.4198 821.82 32.7711 822.928 34.2685 822.928C34.8771 822.928 35.498 822.745 36.0823 822.38C39.3205 820.371 42.6074 817.997 46.0769 815.49C55.6454 808.563 65.5547 801.405 76.2797 800.638C81.3318 800.285 86.2742 803.085 91.0463 805.799C92.7993 806.798 94.4671 807.735 96.0984 808.514C99.86 810.279 103.731 811.144 107.955 811.144C108.162 811.144 108.369 811.119 108.576 811.119C107.724 812.982 106.75 814.783 105.643 816.512C101.589 817.449 97.4983 818.63 93.2863 819.835C83.7908 822.575 73.9667 825.411 64.0208 825.423C64.0208 825.423 64.0208 825.423 64.0087 825.423C62.3287 825.423 60.6609 825.338 59.0418 825.18C56.7653 824.961 55.6819 826.592 55.5967 828.199C55.5115 829.976 56.6436 831.997 58.9322 832.228C60.3566 832.374 61.8418 832.447 63.3391 832.447C72.8711 832.447 82.6465 829.538 92.0932 826.714C101.248 823.987 110.707 821.162 119.642 821.162C128.237 821.162 135.577 823.792 142.066 829.209C142.748 829.781 143.551 830.074 144.379 830.074C145.949 830.074 147.459 829.014 147.995 827.554C148.445 826.312 148.08 825.07 146.984 824.157C139.193 817.644 130.647 814.479 120.884 814.491C118.79 814.491 116.708 814.637 114.627 814.881C117.938 808.137 119.971 800.759 121.919 793.577C122.795 790.339 123.708 786.991 124.719 783.777C127.141 776.083 130.513 767.659 139.765 765.078C141.311 764.64 143.04 764.421 144.89 764.421C150.149 764.421 155.92 766.174 161.008 767.72C162.871 768.292 164.624 768.816 166.316 769.266C168.264 769.777 170.09 768.597 170.577 766.649C173.644 764.105 174.947 761.073 174.923 756.545C174.911 753.952 174.168 751.31 173.438 748.766C173.218 747.975 172.987 747.183 172.792 746.416C171.356 740.719 172.33 734.62 175.775 727.754C179.683 719.963 185.745 713.401 191.613 707.059C198.54 699.56 205.698 691.818 209.386 681.969C209.776 680.934 209.678 679.912 209.118 679.096C208.485 678.195 207.329 677.623 206.075 677.623C204.468 677.623 203.166 678.512 202.618 679.997C200.962 684.428 198.333 688.896 194.388 693.984C194.035 684.72 197.773 677.27 202.07 668.724L202.618 667.628C202.995 666.862 203.421 665.961 203.884 664.975C206.55 659.265 210.567 650.634 216.07 649.928C220.671 649.307 223.763 654.797 225.468 666.131L225.541 666.63L225.821 666.594C226.539 669.515 227.841 672.303 229.716 674.799C230.434 675.76 231.481 676.296 232.662 676.296C234.111 676.296 235.535 675.468 236.12 674.287C236.631 673.277 236.485 672.157 235.73 671.147C234.038 668.882 232.967 666.618 232.504 664.305C232.967 664.366 233.429 664.415 233.928 664.415C236.448 664.415 239.358 663.636 242.559 662.114C252.359 657.464 257.131 645.984 260.503 635.356C261.392 632.556 262.244 629.756 263.096 626.981C266.615 615.489 269.938 604.63 275.404 593.856C279.482 585.809 284.778 578.615 291.144 572.479C294.979 568.766 300.177 566.356 305.205 564.019C306.678 563.337 308.163 562.643 309.624 561.913L309.673 562.375L310.135 561.949C310.001 562.765 309.831 563.568 309.502 564.311C308.979 565.504 309.076 566.758 309.782 567.829C310.5 568.937 311.742 569.643 312.947 569.643C314.128 569.643 315.114 568.961 315.65 567.756C317.123 564.42 317.147 561 317.184 557.701C317.196 555.972 317.22 554.17 317.439 552.405C317.513 551.809 317.439 551.273 317.257 550.798C318.072 546.866 319.655 543.104 322.138 539.27C323.891 536.555 325.876 533.925 327.787 531.393C330.417 527.912 333.143 524.296 335.347 520.352C335.98 519.22 335.98 518.014 335.371 516.968C334.458 515.421 332.267 514.667 330.757 515.373C330.928 511.988 330.855 508.543 330.757 504.77C330.745 504.404 330.733 504.003 330.709 503.577C330.55 500.107 330.344 495.359 333.545 494.032C334.41 493.679 335.469 493.497 336.674 493.497C338.768 493.497 341.081 494.032 343.333 494.763C343.467 498.865 343.528 502.968 343.491 507.058C343.479 508.02 343.808 508.848 344.416 509.469C345.061 510.114 345.999 510.479 346.997 510.479C348.75 510.479 350.527 509.298 350.54 507.058C350.564 503.93 350.515 500.789 350.454 497.648C361.106 503.138 368.289 514.898 372.355 533.512C376.421 552.149 375.922 571.42 375.423 590.058C375.045 604.143 374.668 618.69 376.25 632.909C376.494 635.101 378.369 636.245 380.109 636.245C381.12 636.245 382.021 635.867 382.605 635.222C383.165 634.601 383.396 633.761 383.299 632.8C383.165 631.558 383.043 630.316 382.934 629.062C384.127 629.026 385.332 628.977 386.537 628.916C388.254 628.831 390.031 628.746 391.711 628.746C399.259 628.746 404.42 630.535 405.053 639.24C405.564 646.227 404.797 653.166 404.067 659.886C402.947 670.075 401.791 680.606 405.138 691.294C405.613 692.816 406.891 693.753 408.486 693.753C409.691 693.753 410.86 693.193 411.517 692.292C412.114 691.477 412.26 690.442 411.931 689.383C411.736 688.762 411.566 688.153 411.408 687.532C419.102 688.689 425.493 692.767 430.411 699.67C440.125 713.292 441.598 734.267 438.884 748.559C436.291 744.651 434.319 740.037 432.724 736.276L432.346 735.387C431.835 734.182 430.849 733.488 429.668 733.488C428.475 733.488 427.234 734.194 426.515 735.29C425.797 736.373 425.688 737.627 426.199 738.82C431.324 750.799 438.117 762.266 453.005 765.139C455.951 765.712 458.873 765.955 461.697 766.198C467.467 766.685 472.921 767.148 478.29 770.179C482.964 772.809 485.971 778.543 488.625 783.595L489.283 784.848C489.319 785.348 489.465 785.847 489.709 786.309C490.281 787.393 490.853 788.488 491.437 789.608C496.416 799.201 502.053 810.06 513.204 813.335C513.557 813.432 513.91 813.493 514.251 813.493C516.198 813.493 517.318 811.886 517.538 810.401C517.757 808.904 517.075 807.126 515.091 806.542C511.706 805.556 508.675 803.438 505.863 800.09C510.659 801.758 516.235 802.403 522.261 802.013L522.602 801.989C525.158 801.819 527.581 801.66 529.869 801.66C537.916 801.66 543.942 803.693 547.217 813.603L547.266 813.761C547.387 814.138 547.509 814.503 547.631 814.869C546.815 815.77 546.572 816.999 546.766 818.07C547.071 819.775 548.337 820.858 549.859 820.858C551.113 823.792 552.683 826.519 555.081 829.112C555.751 829.842 556.578 830.22 557.455 830.22C558.806 830.22 560.17 829.27 560.754 827.919C561.314 826.616 561.07 825.216 560.084 824.157C558.66 822.623 557.54 820.992 556.615 819.312C557.504 819.202 558.404 819.129 559.318 819.129C567.109 819.129 573.975 823.049 581.23 827.201C588.498 831.352 596.009 835.649 604.689 835.832H604.774C607.05 835.832 608.097 834.066 608.122 832.411C608.146 830.646 606.977 828.832 604.713 828.783C595.924 828.588 588.62 824.352 581.571 820.262C576.726 817.449 571.722 814.54 566.354 813.067C570.408 809.001 575.228 803.876 579.708 798.033C579.867 798.045 580.013 798.081 580.183 798.081H580.329C582.35 798.008 584.371 797.886 586.38 797.765C589.289 797.582 592.296 797.4 595.242 797.4C598.736 797.4 601.682 797.655 604.482 798.215C604.92 798.812 606.393 801.904 607.586 804.411C609.558 808.551 610.788 811.095 611.311 811.655C615.097 815.648 619.321 817.742 624.58 818.241C633.747 819.093 637.594 820.396 640.175 830.049C637.46 829.526 634.721 829.027 631.994 828.588C629.474 828.187 627.782 830.207 627.624 832.143C627.49 833.847 628.512 835.138 630.229 835.406C634.465 836.087 638.751 836.927 642.89 837.731C647.053 838.546 651.362 839.399 655.623 840.08C655.842 840.117 656.049 840.129 656.256 840.129C658.411 840.129 659.847 838.291 659.993 836.526C660.091 834.76 659.068 833.482 657.352 833.202ZM447.405 580.55C439.785 580.55 431.519 577.544 425.529 572.625C428.354 572.321 431.166 571.834 433.905 571.359C438.458 570.58 443.181 569.765 447.88 569.765C448.184 569.765 448.477 569.801 448.781 569.801C448.842 574.5 448.927 577.909 449.024 580.465C448.489 580.502 447.953 580.55 447.405 580.55ZM320.337 426.804C316.514 426.877 312.582 426.962 308.674 427.096C312.4 423.298 315.82 419.841 319.399 416.493C320.288 415.665 320.629 414.448 320.337 413.231C320.02 411.952 319.071 410.942 317.853 410.589C312.68 409.128 307.968 407.058 303.476 404.283C309.673 403.224 316.015 402.579 322.151 401.946C327.556 401.398 333.107 400.813 338.585 399.961C339.072 408.751 339.754 417.491 340.484 426.11C333.777 426.524 326.959 426.67 320.337 426.804ZM165.391 737.055C165.184 739.124 165.695 742.216 166.231 745.503C167.265 751.821 168.422 758.955 165.33 761.67C158.391 759.819 151.221 757.92 144.416 757.92C135.638 757.92 129.004 761.195 124.122 767.939C118.766 775.353 116.477 784.386 114.274 793.127C113.373 796.706 112.435 800.333 111.303 803.876C110.524 803.973 109.733 804.046 108.942 804.046C103.244 804.046 98.0218 801.356 92.9697 798.751C87.869 796.121 82.5856 793.407 76.7666 793.407C75.4275 793.407 74.0884 793.553 72.7737 793.833C71.0085 794.222 69.2798 794.746 67.5877 795.33C67.892 787.064 69.1703 772.273 69.9859 762.948C70.1807 760.769 70.3389 758.894 70.4607 757.47C70.8868 752.296 71.812 747.244 73.1997 742.46C73.7476 740.561 79.1283 731.065 82.8291 731.065C83.9978 731.065 84.9473 732.088 85.6656 734.109C86.3716 736.093 86.4812 738.357 86.5786 740.536C86.7977 745.296 87.029 750.214 93.8584 751.517C94.3819 751.614 94.881 751.663 95.368 751.663C101.102 751.663 102.916 744.943 104.376 739.538C104.9 737.615 105.387 735.801 105.983 734.596C107.444 731.613 108.82 730.104 110.098 730.104C111.948 730.104 113.689 733.244 115.211 736.008C115.844 737.152 116.428 738.223 117.025 739.076C119.886 743.178 124.633 743.909 129.746 741.121C132.741 739.477 135.48 736.763 137.27 733.658C137.452 733.342 137.769 732.611 138.195 731.601C139.558 728.399 143.162 719.89 145.73 719.89C146.595 719.89 147.252 721.059 147.654 722.033C148.457 723.992 148.968 725.867 149.419 727.511C150.868 732.794 151.915 736.604 160.57 736.604C161.507 736.604 162.445 736.203 163.126 735.497C163.784 734.815 164.125 733.951 164.1 733.062C164.003 729.836 164.843 722.446 167.253 719.951C168.507 718.66 169.992 718.928 171.843 720.62C169.067 724.735 166.036 730.566 165.391 737.055ZM571.795 691.428L573.366 687.605C576.908 679.011 580.573 670.124 583.714 661.237C584.273 659.667 584.785 657.999 585.296 656.392C587.767 648.479 590.312 640.311 598.882 637.401C599.758 637.109 600.598 636.951 601.39 636.951C606.685 636.951 608.791 643.866 608.913 648.516C609.047 653.483 606.174 659.436 603.861 664.22C603.337 665.291 602.838 666.326 602.4 667.3C598.772 675.286 594.329 683.065 590.044 690.588C589.228 692.012 588.412 693.437 587.609 694.873C580.901 706.718 575.338 719.281 569.969 731.431C567.316 737.408 564.589 743.592 561.74 749.63C557.126 747.317 552.05 745.126 546.669 743.105C556.384 725.855 564.601 708.958 571.795 691.428ZM439.005 700.485C439.371 700.205 439.712 699.852 439.967 699.402C441.818 696.127 443.753 694.471 445.713 694.471C449.353 694.471 452.859 700.412 454.576 705.939C455.342 708.398 455.209 711.429 455.087 714.107C455.062 714.68 455.038 715.252 455.026 715.8C454.856 721.692 453.066 737.858 448.781 737.858C448.355 737.858 447.904 737.7 447.417 737.383C447.308 737.31 447.186 737.274 447.077 737.225C447.344 724.893 444.946 711.368 439.005 700.485ZM488.54 771.165C484.705 766.223 480.018 762.291 472.532 760.221C472.142 760.112 471.753 760.051 471.363 759.953C471.022 757.945 471.387 756.033 472.495 754.487C473.859 752.588 476.099 751.444 478.509 751.444C480.749 751.444 482.891 752.454 484.535 754.28C487.103 757.141 489.563 762.692 489.27 767.757C489.197 769.035 488.942 770.167 488.54 771.165ZM498.048 785.676C497.475 784.922 496.903 784.142 496.38 783.29C495.832 782.402 495.296 781.513 494.773 780.649C494.14 779.602 493.507 778.567 492.886 777.556C495.491 774.403 496.672 769.911 496.222 764.665C495.576 757.044 491.644 749.776 486.458 746.575C484.036 745.077 481.418 744.322 478.691 744.322C473.944 744.322 469.452 746.648 466.676 750.531C464.887 753.039 464.034 755.9 464.107 758.87C463.134 758.785 462.172 758.724 461.21 758.651C456.487 758.322 451.593 757.981 446.967 756.033C446.176 755.705 445.397 755.267 444.63 754.743C444.63 754.731 444.642 754.719 444.642 754.694C445.482 751.663 446.103 748.34 446.517 744.822C447.539 745.211 448.537 745.418 449.475 745.418C460.638 745.418 461.941 719.464 462.087 714.266C462.342 705.452 460.078 698.318 454.977 691.818C452.457 688.616 449.438 686.924 446.237 686.924C442.183 686.924 437.971 689.675 434.879 694.204C433.101 691.903 431.166 689.882 429.072 688.129C432.906 679.096 433.953 669.028 434.952 659.265C436.607 643.22 438.165 628.064 450.887 616.816C452.141 615.708 453.261 615.148 454.223 615.148C457.473 615.148 459.396 621.588 459.944 634.273L459.981 635.003C460.261 640.932 460.102 646.97 459.944 652.801C459.859 655.881 459.786 659.07 459.761 662.199C459.761 662.978 460.054 663.769 460.601 664.439C460.979 668.87 461.551 673.533 462.33 678.694C462.939 682.748 467.066 685.414 470.815 685.974C473.542 686.376 474.516 700.984 474.942 707.217C475.1 709.628 475.222 711.381 475.356 712.172C476.269 717.321 478.156 728.022 485.935 730.274C486.86 730.542 487.773 730.676 488.65 730.676C493.495 730.676 496.575 726.512 499.545 722.483C502.491 718.502 505.534 714.375 510.233 714.375C511.816 714.375 513.496 714.814 515.359 715.727C515.821 715.958 516.308 716.08 516.819 716.104C517.696 716.591 518.585 717.066 519.473 717.54C528.616 722.483 537.259 727.158 542.189 736.629C541.434 737.992 540.716 739.331 539.937 740.695C534.362 738.82 528.214 737.006 521.177 735.131C520.557 733.914 519.205 733.086 517.805 733.086C516.612 733.086 515.59 733.683 514.932 734.766C505.011 751.079 500.653 769.23 498.048 785.676ZM557.577 811.74C557.467 811.837 557.37 811.947 557.285 812.057C556.055 812.13 554.838 812.312 553.62 812.556C553.474 812.178 553.34 811.801 553.206 811.423C550.772 804.838 548.471 798.605 539.84 795.135C537.782 794.307 535.372 793.906 532.45 793.906C529.711 793.906 526.899 794.247 524.197 794.587C522.431 794.806 520.764 795.013 519.193 795.111C513.52 795.464 508.493 794.186 504.256 791.459C506.545 775.657 510.221 757.786 518.962 741.827C524.233 743.227 531.988 745.345 539.779 748.023C540.217 748.279 540.704 748.449 541.118 748.498C547.692 750.811 553.742 753.355 559.111 756.046C559.135 756.898 559.476 757.726 560.097 758.395C561.314 759.71 563.383 760.026 564.65 759.04C573.013 763.885 579.708 769.424 584.578 775.523C579.611 789.304 568.156 801.551 557.577 811.74Z" fill="#A7ACBB"/>
<path d="M468.49 878.731V879.401C468.49 881.653 470.268 882.822 472.021 882.822C473.774 882.822 475.551 881.641 475.551 879.401V878.731C475.539 874.239 468.49 874.239 468.49 878.731Z" fill="#A7ACBB"/>
<path d="M479.374 878.257C481.27 878.257 482.807 876.676 482.807 874.727C482.807 872.777 481.27 871.196 479.374 871.196C477.478 871.196 475.941 872.777 475.941 874.727C475.941 876.676 477.478 878.257 479.374 878.257Z" fill="#A7ACBB"/>
<path d="M470.766 865.364C470.766 863.611 469.585 861.834 467.333 861.834C465.081 861.834 463.9 863.611 463.9 865.364C463.9 867.117 465.081 868.895 467.333 868.895C469.585 868.895 470.766 867.117 470.766 865.364Z" fill="#A7ACBB"/>
<path d="M507.263 879.585C505.948 878.27 503.599 878.27 502.272 879.585C500.896 880.96 500.896 883.188 502.272 884.564L502.941 885.233C503.599 885.891 504.488 886.256 505.437 886.256C506.387 886.256 507.275 885.891 507.933 885.233C509.284 883.882 509.284 881.606 507.933 880.254L507.263 879.585Z" fill="#A7ACBB"/>
<path d="M492.74 853.154C490.487 853.154 489.307 854.932 489.307 856.685C489.307 858.438 490.487 860.215 492.74 860.215C494.992 860.215 496.173 858.438 496.173 856.685C496.173 854.932 494.98 853.154 492.74 853.154Z" fill="#A7ACBB"/>
<path d="M242.157 897.697C241.707 896.091 240.344 894.983 238.858 894.983C238.25 894.983 237.641 895.165 237.057 895.531C229.485 900.181 222.205 902.263 213.476 902.263C208.388 902.263 203.031 901.581 197.358 900.863C196.007 900.692 194.632 900.522 193.219 900.339C191.807 900.169 190.103 899.986 188.289 899.877C189.701 899.548 190.931 898.428 190.931 896.565V895.896C190.931 891.392 183.882 891.392 183.882 895.896V896.565C183.882 898.27 184.905 899.353 186.159 899.779C185.769 899.767 185.38 899.755 184.978 899.755C175.969 899.755 170.077 902.725 166.973 908.849C166.389 910.005 166.425 911.235 167.083 912.306C167.776 913.438 169.043 914.168 170.309 914.168C171.502 914.168 172.512 913.511 173.096 912.367C175.142 908.337 179.341 906.389 185.94 906.377C191.077 906.377 196.701 907.534 201.656 908.556C204.03 909.043 206.282 909.506 208.108 909.749C218.772 911.186 229.375 908.544 240.66 901.605C242.011 900.741 242.596 899.243 242.157 897.697Z" fill="#A7ACBB"/>
<path d="M218.127 925.782C215.875 925.782 214.694 927.56 214.694 929.313C214.694 931.066 215.875 932.843 218.127 932.843C220.379 932.843 221.56 931.066 221.56 929.313C221.56 927.547 220.379 925.782 218.127 925.782Z" fill="#A7ACBB"/>
<path d="M194.193 932.283C194.12 932.173 194.023 932.051 193.913 931.93L193.865 931.869C193.268 930.542 192.124 929.787 190.724 929.787C189.726 929.787 188.666 930.286 187.96 931.102C187.364 931.771 187.096 932.587 187.206 933.391C187.315 934.231 187.413 935.01 187.924 935.691C187.997 935.801 188.106 935.935 188.216 936.057C188.8 937.396 189.957 938.187 191.393 938.187C192.392 938.187 193.451 937.688 194.157 936.884C194.753 936.203 195.021 935.399 194.912 934.596C194.814 933.744 194.705 932.977 194.193 932.283Z" fill="#A7ACBB"/>
<path d="M262.05 932.637V933.307C262.05 935.559 263.827 936.728 265.58 936.728C267.333 936.728 269.11 935.547 269.11 933.307V932.637C269.11 928.133 262.05 928.145 262.05 932.637Z" fill="#A7ACBB"/>
<path d="M258.227 932.161C260.123 932.161 261.66 930.581 261.66 928.631C261.66 926.681 260.123 925.101 258.227 925.101C256.331 925.101 254.794 926.681 254.794 928.631C254.794 930.581 256.331 932.161 258.227 932.161Z" fill="#A7ACBB"/>
<path d="M270.255 915.752C268.003 915.752 266.822 917.529 266.822 919.282C266.822 921.035 268.003 922.813 270.255 922.813C272.507 922.813 273.688 921.035 273.688 919.282C273.688 917.529 272.507 915.752 270.255 915.752Z" fill="#A7ACBB"/>
<path d="M230.337 933.489L229.668 934.159C228.316 935.51 228.316 937.786 229.668 939.138C230.325 939.795 231.214 940.16 232.163 940.16C233.113 940.16 234.002 939.795 234.659 939.138L235.328 938.468C236.704 937.092 236.704 934.852 235.328 933.489C234.002 932.174 231.652 932.174 230.337 933.489Z" fill="#A7ACBB"/>
<path d="M244.86 907.06C242.608 907.06 241.427 908.837 241.44 910.59C241.452 912.343 242.62 914.12 244.873 914.12C247.125 914.12 248.305 912.343 248.305 910.59C248.281 908.837 247.112 907.06 244.86 907.06Z" fill="#A7ACBB"/>
<path d="M522.725 836.622C522.725 838.375 523.905 840.152 526.158 840.152C528.41 840.152 529.591 838.375 529.591 836.622C529.591 834.869 528.41 833.092 526.158 833.092C523.893 833.104 522.725 834.869 522.725 836.622Z" fill="#A7ACBB"/>
<path d="M533.681 823.926V823.256C533.681 818.752 526.633 818.752 526.633 823.256V823.926C526.633 826.178 528.41 827.346 530.163 827.346C531.916 827.359 533.681 826.178 533.681 823.926Z" fill="#A7ACBB"/>
<path d="M501.421 828.796C503.673 828.796 504.854 827.019 504.854 825.266C504.854 823.513 503.673 821.735 501.421 821.735C499.169 821.735 497.988 823.513 497.988 825.266C497.988 827.019 499.169 828.796 501.421 828.796Z" fill="#A7ACBB"/>
<path d="M586.294 840.445H585.624C583.372 840.445 582.191 842.223 582.191 843.976C582.191 845.729 583.372 847.506 585.624 847.506H586.294C588.546 847.506 589.727 845.729 589.727 843.976C589.727 842.223 588.546 840.445 586.294 840.445Z" fill="#A7ACBB"/>
<path d="M380.393 78.9306C380.533 79.2306 381.293 80.1606 381.483 80.3406C394.373 104.651 428.063 95.9606 430.673 70.1806C432.313 53.9906 414.743 39.4306 399.203 42.7706C382.393 46.3906 372.943 63.1206 380.393 78.9306ZM404.273 47.2606C418.913 46.9506 428.553 62.5206 424.733 75.6506C419.153 94.8506 388.913 93.0606 383.933 75.0506C383.743 74.3606 383.323 73.7306 383.303 72.8906C379.713 59.7406 390.373 47.5606 404.273 47.2606Z" fill="#FF5B0D"/>
<path d="M380.773 45.651C382.893 47.991 386.343 44.521 384.223 42.201C371.013 27.671 356.693 14.241 342.503 0.690993C340.223 -1.47901 336.773 1.96099 339.053 4.14099C353.243 17.691 367.573 31.111 380.773 45.651Z" fill="#FF5B0D"/>
<path d="M394.183 36.4306C395.373 39.3006 400.093 38.0406 398.893 35.1306C394.893 25.4406 391.883 15.4206 389.533 5.22059C388.823 2.15059 384.123 3.4506 384.823 6.5206C387.173 16.7206 390.183 26.7406 394.183 36.4306Z" fill="#FF5B0D"/>
<path d="M414.653 36.5908C414.593 28.8208 416.133 21.1608 416.073 13.3908C416.053 10.2408 411.163 10.2408 411.193 13.3908C411.253 21.1608 409.713 28.8208 409.773 36.5908C409.793 39.7408 414.673 39.7408 414.653 36.5908Z" fill="#FF5B0D"/>
<path d="M427.163 44.4211C430.723 40.4811 433.973 35.9811 436.503 31.3111C438.003 28.5411 433.783 26.0711 432.283 28.8511C429.953 33.1711 427.003 37.3311 423.713 40.9711C421.603 43.3011 425.053 46.7611 427.163 44.4211Z" fill="#FF5B0D"/>
<path d="M477.532 40.8711C476.962 40.8711 476.502 41.0311 476.142 41.2911C469.892 43.8611 463.352 45.2211 456.882 47.0911C449.162 49.3211 441.632 51.9511 433.742 53.5811C430.662 54.2211 431.962 58.9211 435.042 58.2911C441.922 56.8711 448.582 54.7811 455.282 52.6911C462.782 50.3511 470.512 48.9211 477.772 45.8811C477.892 45.8311 477.992 45.7711 478.092 45.7111C480.672 45.1411 480.482 40.8711 477.532 40.8711Z" fill="#FF5B0D"/>
<path d="M355.074 48.891C352.144 47.731 350.884 52.451 353.774 53.601C359.404 55.831 364.934 58.291 370.484 60.681C373.344 61.911 375.834 57.701 372.944 56.461C367.004 53.911 361.084 51.281 355.074 48.891Z" fill="#FF5B0D"/>
<path d="M369.033 70.4611C356.353 73.1211 343.593 75.2911 330.773 77.1811C327.663 77.6411 328.993 82.3411 332.073 81.8911C344.893 80.0111 357.653 77.8411 370.333 75.1711C373.413 74.5211 372.103 69.8211 369.033 70.4611Z" fill="#FF5B0D"/>
<path d="M375.984 84.7513C369.134 89.7313 362.644 95.1613 356.154 100.601C353.734 102.631 357.214 106.061 359.604 104.051C365.774 98.8813 371.924 93.7013 378.444 88.9713C380.964 87.1413 378.534 82.9013 375.984 84.7513Z" fill="#FF5B0D"/>
<path d="M386.702 97.6313C378.112 112.581 368.852 127.111 362.442 143.191C361.272 146.121 366.002 147.381 367.152 144.491C373.392 128.831 382.552 114.671 390.922 100.101C392.492 97.3613 388.272 94.9013 386.702 97.6313Z" fill="#FF5B0D"/>
<path d="M401.222 102.931C402.162 111.991 402.102 121.111 402.642 130.201C402.832 133.331 407.712 133.351 407.522 130.201C406.972 121.111 407.032 112.001 406.102 102.931C405.782 99.831 400.902 99.801 401.222 102.931Z" fill="#FF5B0D"/>
<path d="M420.222 98.8507C418.472 96.2507 414.242 98.6907 416.002 101.311C424.382 113.771 429.982 127.671 436.352 141.201C437.692 144.051 441.902 141.571 440.572 138.741C434.202 125.221 428.602 111.311 420.222 98.8507Z" fill="#FF5B0D"/>
<path d="M451.123 98.9508C444.703 96.4208 438.933 92.5208 432.573 89.8308C429.713 88.6208 427.213 92.8208 430.113 94.0508C436.863 96.9008 442.993 100.971 449.823 103.661C452.753 104.821 454.013 100.091 451.123 98.9508Z" fill="#FF5B0D"/>
<path d="M475.133 80.2309C463.263 78.1409 451.433 75.9309 439.923 72.2909C436.913 71.3409 435.633 76.0509 438.623 77.0009C450.133 80.6409 461.963 82.8509 473.833 84.9409C476.913 85.4809 478.233 80.7709 475.133 80.2309Z" fill="#FF5B0D"/>
</svg>
