<svg width="245" height="464" viewBox="0 0 245 464" fill="none" xmlns="http://www.w3.org/2000/svg">
<path d="M95.8225 452.174C112.238 411.067 128.019 369.746 143.294 328.246C151.325 306.438 159.517 284.615 167.401 262.708C181.783 276.483 212.44 262.717 225.394 253.294C247.757 237.024 251.219 207.43 234.452 185.594C217.589 163.643 188.25 151.442 160.556 161.192C154.813 163.21 149.244 165.98 144.379 169.344C132.378 164.42 119.733 160.695 107.147 157.749C95.6421 155.061 83.862 153.157 72.0194 152.506C71.7753 150.807 71.5105 149.113 71.2845 147.42C66.3132 111.65 57.5616 38.6628 51.8964 2.9656C51.6251 1.25971 50.1509 0.550039 48.728 0.645572C43.0621 -0.976993 36.9922 1.23453 32.3267 4.30249C30.8365 4.53571 29.5144 5.6455 29.7905 7.44058C31.3148 17.3445 33.0881 30.0614 34.9698 44.0487C34.2357 45.3989 34.5922 46.7962 35.4661 47.7699C40.3122 83.9931 45.7532 127.578 49.3968 152.873C42.5824 153.678 35.8467 155.471 31.392 159.544C30.0749 159.044 28.3361 159.541 28.0128 161.278C27.7945 162.458 27.615 163.639 27.4149 164.824C25.1304 169.067 24.7092 172.857 25.6384 176.249C23.0662 194.837 21.7754 213.701 19.9768 232.317C17.8004 254.814 15.7561 277.328 13.7209 299.844C9.66744 344.744 5.68905 389.655 0.667329 434.454C0.464583 436.214 1.73527 437.308 3.19666 437.603C6.46703 452.433 32.6347 459.461 45.6546 461.473C58.979 463.549 85.4288 465.84 94.64 453.557C95.1354 453.284 95.562 452.835 95.8225 452.174ZM40.2838 11.0696C38.6549 10.9911 37.8289 10.304 36.463 9.55587C36.4045 9.52019 36.341 9.50265 36.2734 9.46446C36.2255 9.1778 36.1893 8.88457 36.1414 8.59791C37.7745 7.56421 39.4733 6.64631 41.3874 6.08082C42.3766 5.78744 43.3853 5.63614 44.3954 5.51456C44.7911 7.08872 45.1088 8.48511 43.2459 9.85581C42.4663 10.4512 41.3537 11.1207 40.2838 11.0696ZM37.3369 16.4382C40.8395 17.2293 44.9486 16.2833 47.3467 14.0349C47.5811 15.6622 48.1941 20.1286 48.9709 25.8415C48.1856 26.1033 47.4649 26.627 46.9684 27.5057C45.0398 30.9189 42.6619 34.1203 40.2148 37.2537C38.9392 27.8286 37.823 19.7367 37.3369 16.4382ZM42.4575 53.8603C42.8804 53.5668 43.2531 53.1716 43.5445 52.6465C45.6691 48.8772 48.7023 45.4954 51.1213 41.8269C52.7454 53.9167 54.3583 65.9057 54.7531 68.8274C51.9561 70.575 50.3237 74.8611 48.7429 77.4035C48.1106 78.4205 47.0737 79.7359 46.1099 81.14C45.5732 77.1048 44.0801 65.9204 42.4575 53.8603ZM47.8318 94.1846C50.5953 92.5937 51.9137 88.9143 53.3896 86.3625C54.3077 84.7701 55.4252 83.057 56.4207 81.2906C57.1646 86.9455 57.906 92.6096 58.6292 98.2686C58.5265 98.3575 58.4157 98.405 58.3312 98.4989C55.0354 102.16 52.6914 106.406 49.9197 110.397C49.222 104.999 48.5269 99.5917 47.8318 94.1846ZM51.68 124.116C51.9851 123.966 52.2846 123.765 52.5472 123.486C55.3858 120.598 58.4657 116.799 60.497 112.731C61.0559 117.075 61.6263 121.412 62.1942 125.759C59.8994 127.987 58.5141 131.13 57.0344 133.837C55.9798 135.782 54.8329 137.673 53.6728 139.54C52.9917 134.401 52.3404 129.26 51.68 124.116ZM170.032 255.367C174.615 242.481 179.052 229.554 183.287 216.581C185.61 221.647 187.845 226.746 189.931 231.893C193.113 239.754 195.376 248.397 199.397 255.943C190.273 260.056 180.588 259.052 170.032 255.367ZM207.82 250.513C206.577 251.586 205.314 252.517 204.046 253.359C202.571 245.295 198.651 237.171 195.536 229.631C192.669 222.716 189.657 215.868 186.437 209.1C198.053 213.791 211.129 216.766 223.176 219.33C221.835 230.913 216.974 242.649 207.82 250.513ZM159.794 195.124C162.04 196.116 164.279 197.202 166.544 198.267C157.105 197.791 147.445 198.289 138.09 198.851C138.753 194.327 140.7 190.352 143.56 186.961C143.648 187.064 143.71 187.159 143.822 187.249C148.172 190.842 154.581 192.816 159.794 195.124ZM147.414 183.152C156.274 175.821 169.975 172.181 182.74 172.745C179.125 180.039 178.234 188.329 176.02 196.136C172.24 194.048 168.113 192.372 164.248 190.631C158.891 188.205 153.156 184.747 147.414 183.152ZM175.019 203.546C164.868 210.178 152.339 211.164 139.32 209.68C139.273 209.178 139.114 208.656 138.757 208.147C138.624 207.954 138.519 207.769 138.389 207.567C138.192 206.585 138.051 205.608 137.965 204.647C150.301 204.146 162.762 204.538 175.019 203.546ZM187.595 173.167C191.675 173.707 195.581 174.698 199.09 176.174C202.614 177.665 205.784 179.555 208.6 181.739C203.335 185.667 197.844 189.357 192.36 193.019C189.304 195.067 184.75 197.306 181.556 199.999C181.494 199.903 181.385 199.805 181.302 199.714C184.087 191.077 185.622 181.979 187.595 173.167ZM195.968 197.179C201.315 193.304 206.609 189.374 211.65 185.159C211.804 185.026 211.931 184.885 212.037 184.748C219.414 191.99 223.489 201.71 223.572 212.163C223.579 212.917 223.563 213.684 223.537 214.448C212.127 210.107 200.152 206.929 188.483 203.102C191.16 201.116 193.722 198.806 195.968 197.179ZM168.968 165.252C191.981 160.285 216.245 170.919 229.247 189.411C242.759 208.64 241.523 234.346 221.133 248.387C218.635 250.11 215.66 251.974 212.403 253.761C224.972 241.272 232.005 221.239 229.22 205.43C225.961 186.883 212.302 172.467 192.298 168.088C174.794 164.243 151.084 169.857 139.014 182.767C145.521 174.054 157.855 167.654 168.968 165.252ZM76.6496 159.048C87.8784 160.048 98.8746 161.784 109.795 164.574C119.621 167.081 129.454 169.99 138.949 173.627C128.839 182.761 123.949 195.026 131.398 208.518C116.177 205.811 100.819 200.664 88.2695 198.01C85.3063 197.387 82.3175 196.787 79.3247 196.166C76.9527 183.743 74.8104 171.266 72.9275 158.733C74.1996 158.831 75.437 158.948 76.6496 159.048ZM68.0455 181.196C68.6006 179.787 69.1219 178.358 69.5862 176.924C70.4634 182.45 71.382 187.967 72.369 193.484C71.7725 193.593 71.2061 193.876 70.7845 194.307C67.8066 193.631 64.8347 192.899 61.8945 192.087C61.8101 191.615 61.7166 191.14 61.6347 190.658C64.9756 188.992 66.9429 183.988 68.0455 181.196ZM68.9078 200.186C67.8817 203.867 66.7451 207.49 65.5335 211.101C64.7064 206.985 63.909 202.869 63.1439 198.741C65.1091 199.264 67.0365 199.747 68.9078 200.186ZM65.7573 151.451C66.059 153.507 66.3491 155.57 66.6598 157.628C66.4892 157.786 66.3293 157.977 66.2188 158.2C64.2003 162.116 62.3261 166.111 60.0726 169.922C59.5862 170.765 59.0478 171.583 58.5003 172.399C57.4224 165.831 56.4064 159.251 55.4689 152.635C58.1416 151.302 59.5734 147 60.6459 144.883C61.7374 142.733 62.8497 140.579 63.9125 138.392C64.5167 142.749 65.1234 147.096 65.7573 151.451ZM32.6164 167.881C33.502 166.123 35.2297 164.393 38.0295 162.812C41.6888 160.736 45.8639 159.515 50.2678 158.846C51.7832 169.207 53.3432 179.618 55.093 190.014C52.9411 189.284 50.8082 188.519 48.7028 187.655C42.7151 185.182 34.1999 179.481 32.2566 173.466C32.3911 171.598 32.5141 169.738 32.6164 167.881ZM48.3831 455.692C31.6547 452.998 17.2226 447.823 8.46591 433.94C8.18902 433.493 7.75661 433.149 7.28098 432.891C12.1452 388.839 16.0023 344.686 20.0122 300.545C22.1584 276.848 24.3343 253.15 26.6266 229.455C28.0669 214.578 29.9582 199.66 31.336 184.726C37.2879 189.983 46.7582 193.886 56.2868 196.799C58.1705 207.418 60.2906 217.994 62.8122 228.495C56.4593 227.699 47.6891 227.876 42.902 232.092C41.7099 232.271 40.669 232.999 40.6418 234.3C40.6402 234.554 40.6205 234.802 40.6189 235.056C40.2185 235.834 39.8898 236.671 39.6953 237.623C39.1814 240.158 39.4751 242.631 40.3069 244.961C38.4909 286.142 29.8764 326.16 22.1553 366.444C21.6595 367.108 21.4861 367.949 21.7297 368.729C18.5072 385.605 15.4686 402.521 13.1817 419.616C13.1404 419.907 13.1635 420.177 13.2073 420.443C12.9903 421.194 13.0925 422.062 13.6951 422.922C27.5668 442.758 67.964 458.49 86.023 436.373C86.3154 436.092 86.5552 435.719 86.7086 435.234C96.6075 403.901 107.191 372.777 117.974 341.708C123.829 324.817 129.746 307.943 135.947 291.176C138.094 285.343 140.311 279.539 142.599 273.763C143.349 271.861 144.447 269.898 144.9 267.904C145.215 266.516 145.623 266.17 145.345 266.22C145.449 265.985 145.535 265.745 145.612 265.502C145.864 265.084 145.974 264.616 145.912 264.169C146.361 260.416 143.891 256.521 140.582 253.723C126.61 241.926 104.726 234.557 86.4474 230.439C84.3562 221.209 82.4021 211.977 80.5719 202.722C81.4219 202.898 82.2264 203.061 82.9559 203.214C111.615 209.142 152.881 226.607 179.42 208.443C179.573 208.739 179.705 209.039 179.858 209.335C174.279 224.027 168.933 238.793 163.667 253.59C162.969 254.208 162.556 255.1 162.78 256.061C154.472 279.433 146.312 302.876 137.683 326.141C122.305 367.593 106.485 408.913 90.0287 449.989C89.9655 450.148 89.9345 450.295 89.9035 450.443C78.0524 457.924 62.4113 457.943 48.3831 455.692ZM75.5862 218.378C75.9109 217.237 76.2481 216.051 76.5672 214.859C79.1993 227.013 82.2973 239.07 86.0946 250.929C82.7338 251.535 78.0674 250.042 73.6713 247.959C72.2364 241.977 70.8289 236.002 69.5014 230.02C72.8788 227.231 74.5134 222.193 75.5862 218.378ZM63.0719 234.241C63.5094 234.284 63.8984 234.255 64.2611 234.179C65.1218 237.571 66.0495 240.933 67.0043 244.302C64.8039 242.933 63.0104 241.647 61.985 240.797C59.3191 238.567 55.2471 242.492 57.6961 244.907C62.6895 249.85 79.8739 258.959 89.4093 256.151C90.2111 256.148 91.0279 255.807 91.5259 255.241C93.2845 254.213 94.6354 252.574 95.3521 250.154C96.2357 247.166 92.3308 245.355 90.4672 247.507C89.5556 243.769 88.6646 240.026 87.8009 236.292C100.426 240.441 113.185 244.529 124.959 250.562C128.151 252.196 142.386 258.899 139.784 263.865C137.085 269.009 125.183 267.901 120.286 267.594C102.46 266.473 84.3039 262.936 67.2826 257.73C60.223 255.566 52.525 252.885 48.2096 246.83C47.5692 245.93 47.0779 245.091 46.6907 244.301C46.6581 242.26 46.5959 240.222 46.4948 238.182C48.9019 234.344 56.7741 233.528 63.0719 234.241ZM38.6788 365.741C40.4083 360.183 37.2386 354.259 31.5622 351.754C33.2998 343.337 35.0282 334.917 36.6544 326.478C41.2299 302.72 45.9101 278.229 46.6259 253.805C48.8722 255.822 51.439 257.526 54.0021 258.82C62.5835 263.113 72.4728 265.286 81.861 267.399C94.218 270.185 106.932 272.669 119.646 273.239C124.314 273.453 130.414 273.857 135.661 272.717C134.331 276.296 133.405 279.722 132.915 281.003C126.454 297.932 120.481 315.044 114.53 332.143C102.882 365.64 91.4441 399.185 80.7887 432.975C80.7095 433.226 80.6741 433.461 80.6569 433.7C62.724 451.574 34.0015 434.66 19.3563 420.139C21.3451 403.841 24.3013 387.683 27.5281 371.57C32.2165 372.063 37.2786 370.248 38.6788 365.741ZM28.6853 365.786C29.2327 363.095 29.7827 360.395 30.3417 357.697C32.2022 359.236 33.8574 361.236 32.9213 363.566C32.1384 365.518 30.4931 365.923 28.6853 365.786Z" fill="#FF5B0D"/>
</svg>
