<svg width="254" height="254" viewBox="0 0 254 254" fill="none" xmlns="http://www.w3.org/2000/svg">
<path d="M137.4 123.851C137.229 123.47 136.928 123.263 136.55 123.259C136.162 123.259 135.763 123.488 135.534 123.843C135.313 124.188 135.284 124.584 135.455 124.961C137.331 129.101 138.967 132.984 140.466 136.83C140.647 137.298 141.064 137.581 141.58 137.581C141.982 137.581 142.356 137.403 142.552 137.117C142.675 136.939 142.784 136.641 142.621 136.221C141.053 132.193 139.344 128.143 137.4 123.851Z" fill="#FF5B0D"/>
<path d="M131.79 112.141C133.35 111.245 135.008 110.773 136.579 110.777C138.865 110.78 140.926 111.757 142.538 113.6C143.506 114.71 144.283 116.013 145.034 117.272C145.629 118.266 146.242 119.297 146.946 120.229C148.837 122.718 151.337 123.985 154.378 123.992C156.199 123.996 158.144 123.542 160.154 122.639C165.027 120.451 170.245 114.971 170.793 108.727C171.403 101.749 168.558 92.8553 164.026 87.583C163.819 87.3399 163.558 87.2129 163.278 87.2129C162.963 87.2129 162.643 87.3762 162.422 87.6556C135.211 96.2843 108.886 104.982 85.852 116.481C85.3186 116.746 85.2206 117.228 85.3114 117.606C85.1662 117.849 85.1336 118.132 85.2134 118.429C86.4652 123.132 88.0219 128.981 90.8631 133.637C94.1034 138.945 98.3525 141.587 103.85 141.71C103.966 141.714 104.082 141.718 104.194 141.714C110.062 141.725 116.397 138.644 119.964 134.047C122.399 130.912 123.339 127.639 123.996 124.573C125.175 119.119 126.946 114.921 131.79 112.141ZM165.811 114.757C165.644 114.993 165.583 115.244 165.623 115.487C163.046 118.803 158.968 121.615 155.06 121.851C158.942 120.621 163.093 117.141 165.72 112.675C166.421 111.484 166.969 110.298 167.368 109.133C167.408 111.332 166.893 113.215 165.811 114.757ZM162.985 89.8218C165.51 93.0513 167.596 97.8591 168.34 102.652C167.085 98.9767 164.915 94.822 161.813 90.1919C162.204 90.0722 162.596 89.9452 162.985 89.8218ZM87.4704 118.175C91.6722 116.089 96.0229 114.086 100.453 112.167C99.9055 113.273 99.3503 114.387 98.7697 115.454C96.7776 119.097 94.6622 122.747 92.612 126.278C92.0859 127.189 91.5598 128.096 91.0336 129.007C89.3862 125.331 88.3122 121.34 87.4704 118.175ZM94.1179 134.315C93.4248 133.415 92.7971 132.439 92.2274 131.409C92.9386 130.172 93.6534 128.931 94.3719 127.693C96.2515 124.442 98.1964 121.078 100.058 117.74C100.98 116.085 101.843 114.326 102.681 112.62C102.975 112.021 103.269 111.423 103.57 110.828C105.058 110.2 106.549 109.583 108.048 108.973C106.789 111.027 105.711 113.233 104.655 115.385C103.937 116.855 103.193 118.371 102.413 119.801C100.421 123.448 98.298 127.102 96.2479 130.64C95.5367 131.862 94.8255 133.089 94.1179 134.315ZM97.9569 132.149C99.8583 128.862 101.821 125.462 103.708 122.087C104.63 120.44 105.49 118.683 106.324 116.985C107.816 113.945 109.358 110.799 111.328 108.077C111.444 107.914 111.513 107.743 111.531 107.573C128.295 100.933 145.422 95.4026 159.617 90.8923C159.643 90.9431 159.661 90.9939 159.693 91.041C161.272 93.3742 163.405 96.7089 165.035 100.319C164.904 100.62 164.915 100.954 165.093 101.27C166.562 103.901 166.098 107.631 163.819 111.506C160.895 116.481 156.036 120.088 152.266 120.08C150.379 120.077 148.877 119.195 147.803 117.464C147.654 117.221 147.443 117.062 147.2 116.985C146.841 116.423 146.5 115.842 146.163 115.269C145.27 113.756 144.348 112.192 143.22 111.042C142.646 110.458 142.019 109.982 141.34 109.601C141.253 109.278 141.046 108.981 140.651 108.828C138.187 107.874 135.723 107.388 133.325 107.384C129.369 107.377 125.654 108.658 122.29 111.19C121.953 111.444 121.851 111.767 121.826 112.003C120.69 113.498 120.276 115.614 119.913 117.482C119.866 117.722 119.819 117.954 119.776 118.179C119.605 119.014 119.46 119.856 119.322 120.668C118.85 123.419 118.408 126.017 117.007 128.51C114.405 133.136 108.77 136.003 102.3 135.988C100.192 135.985 98.142 135.665 96.2733 135.066C96.8321 134.094 97.3945 133.118 97.9569 132.149ZM121.612 125.07C120.069 132.269 114.873 137.382 107.351 139.101C106.154 139.374 104.993 139.511 103.901 139.508C101.564 139.504 99.5716 138.869 97.8553 137.795C99.2596 138.093 100.678 138.249 102.108 138.252C106.593 138.26 110.998 136.783 114.844 133.978C117.635 131.942 119.529 129.228 120.635 125.672C121.009 124.471 121.183 122.911 121.368 121.263C121.72 118.107 122.12 114.529 124.104 112.838C124.242 112.722 124.344 112.584 124.409 112.428C126.717 110.897 129.166 110 131.714 109.735C131.365 109.881 131.02 110.033 130.672 110.2C124.623 113.146 122.878 119.162 121.612 125.07Z" fill="#FF5B0D"/>
<path d="M124.954 139.522C125.36 141.874 126.706 143.935 128.963 145.655C131.903 147.893 136.46 150.568 141.5 150.579C141.645 150.579 141.79 150.575 141.936 150.571C146.011 150.455 153.591 148.743 156.591 144.617C157.803 142.951 158.115 141.083 157.528 139.072C157.52 138.964 157.502 138.862 157.466 138.764C156.472 135.97 154.792 133.655 152.575 131.071C152.789 131.079 153.006 131.086 153.22 131.086C161.584 131.104 169.422 125.2 173.189 116.053C175.362 110.777 174.553 105.214 173.628 100.417C172.405 94.1071 170.141 87.866 167.078 82.3687C167.042 82.0276 166.868 81.7155 166.61 81.5196C166.432 81.2148 166.164 81.0406 165.848 81.0007C165.728 80.7903 165.55 80.6052 165.267 80.4963C163.816 79.9339 162.263 79.5311 160.713 79.2989C160.684 79.0957 160.597 78.8998 160.452 78.722C158.184 75.986 155.361 74.6035 151.435 74.3169C151.319 74.2008 151.203 74.0847 151.087 73.9649C149.853 72.7276 148.576 71.4503 147.527 69.9844C147.469 69.9045 147.426 69.8211 147.375 69.7413C147.553 69.5852 147.669 69.3566 147.694 69.0772C148.155 64.4218 157.107 57.2227 160.928 54.4069C163.845 52.2588 166.86 50.0345 168.333 46.8413C169.872 43.5031 169.799 39.4499 168.138 35.7234C166.512 32.0839 163.638 29.3952 160.256 28.3538C160.14 28.3175 160.028 28.2993 159.922 28.2993C159.73 28.2993 159.578 28.3683 159.447 28.4554C158.163 28.1179 156.755 27.9329 155.238 27.9292C150.909 27.922 146.283 29.2827 142.904 30.2769C127.799 34.7255 113.197 41.4166 99.67 47.9843C97.6598 48.9604 95.6314 49.9075 93.4869 50.909C80.6418 56.9143 60.7427 68.2572 52.8034 80.754C50.9855 83.6133 49.7626 86.8754 49.124 90.337C48.8083 90.5076 48.5616 90.8124 48.5144 91.2478C47.6653 99.2742 47.1827 109.637 51.0508 118.625C52.8723 122.86 55.347 126.198 58.4095 128.542C60.2782 129.976 62.2086 131.086 64.1499 131.841C65.224 132.258 66.3089 132.621 67.4664 132.94C67.8402 133.045 68.6022 133.151 69.3388 133.256C70.05 133.357 70.9317 133.481 71.037 133.561C71.2329 133.72 71.4651 133.8 71.7046 133.815C72.0312 134.671 72.365 135.509 72.7097 136.304C74.7635 141.014 78.6969 143.086 82.8588 145.284C83.766 145.763 84.7022 146.257 85.6202 146.783C85.8016 146.885 85.9867 146.939 86.1754 146.935C86.3205 146.939 86.4548 146.906 86.5781 146.852C89.481 148.499 92.714 149.338 96.2483 149.345C97.7251 149.345 99.2745 149.196 100.849 148.906C101.749 148.949 102.671 148.953 103.618 148.906C110.871 148.557 120.244 145.506 124.954 139.522ZM154.984 138.535C155.006 138.648 155.035 138.739 155.075 138.822C155.808 140.379 155.797 141.808 155.042 143.078C153.017 146.478 145.927 148.104 141.932 148.332C141.725 148.343 141.515 148.351 141.304 148.351C137.991 148.343 134.907 146.79 132.324 145.274C129.707 143.739 127.966 141.961 127.146 139.994C126.641 138.782 126.754 137.131 127.487 134.95C127.595 134.664 127.704 134.362 127.817 134.032C127.918 133.764 128.02 133.506 128.122 133.263C128.183 133.107 128.212 132.958 128.205 132.813C128.514 131.783 128.793 130.719 129.058 129.693C129.439 128.227 129.834 126.71 130.328 125.284C131.344 122.345 132.879 119.87 134.766 118.121C135.644 117.308 136.591 116.895 137.578 116.898C138.216 116.898 138.877 117.076 139.526 117.417C139.073 117.341 138.608 117.664 138.43 118.19C138.296 118.596 138.329 119.166 138.833 119.547C142.132 122.04 144.788 125.277 147.357 128.401L147.505 128.582C148.173 129.395 148.895 130.208 149.592 130.995C151.646 133.31 153.768 135.705 154.984 138.535ZM158.105 81.3091C159.665 81.3418 161.305 81.6031 162.923 82.0711C136.642 88.8711 110.904 98.7662 85.9939 108.349C83.6535 109.249 81.3167 110.149 78.9763 111.045C78.8928 111.016 78.8057 110.998 78.7186 110.991C78.0619 110.799 77.4124 110.425 76.8209 110.084L76.5596 109.935C75.7178 109.456 74.9776 108.923 74.3607 108.346C74.3607 108.284 74.3571 108.222 74.3462 108.168C78.403 104.775 83.541 102.906 88.5085 101.099C89.5717 100.711 90.6748 100.312 91.7343 99.9056C95.0726 98.6283 98.3964 97.1587 101.608 95.7363C104.979 94.245 108.466 92.6992 111.978 91.3748C118.129 89.0561 124.598 87.4414 130.858 85.8811C132.211 85.5437 133.561 85.2062 134.911 84.8615C141.656 83.1416 149.519 81.2946 157.546 81.1567C157.713 81.2511 157.901 81.3055 158.105 81.3091ZM157.47 78.9215C156.751 78.9324 156.033 78.9542 155.318 78.9905C154.901 78.2938 154.436 77.6407 153.935 77.0238C155.278 77.4375 156.446 78.0725 157.47 78.9215ZM148.71 74.2842C148.068 74.3096 147.386 74.3532 146.635 74.4185C145.397 74.5273 144.138 74.6761 142.868 74.8467C141.751 74.0665 140.749 72.8546 140.629 71.6862L140.633 71.6644C140.64 71.6354 140.644 71.6063 140.647 71.5737C140.898 68.816 141.99 65.8442 143.721 63.0465C143.264 68.181 145.829 71.2145 148.71 74.2842ZM138.47 71.8349C138.594 73.0215 139.153 74.2225 140.045 75.2639C135.078 76.0767 129.834 77.3213 124.166 79.0413C117.798 80.9753 111.198 83.5262 102.762 87.3072C95.0581 90.7579 87.6522 93.541 80.1193 95.8234C76.1024 97.039 70.4745 99.2742 67.9636 104.644C65.7392 109.402 66.7661 115.338 68.0071 121.006C68.1631 121.721 68.3228 122.417 68.4861 123.103C61.5591 121.031 56.5082 115.585 53.6343 109.01C53.8702 98.3017 59.4328 88.3631 70.177 79.4695C80.0576 71.287 97.8013 60.9202 106.267 57.2445C111.695 54.8895 117.258 52.6217 122.642 50.43C129.403 47.6723 136.395 44.8239 143.18 41.7759C147.516 39.8273 151.178 38.3106 155.456 37.9731C156.457 37.8933 157.415 37.857 158.3 37.857C161.138 37.8643 162.869 38.2888 163.304 39.0871C163.504 39.4572 163.428 39.9217 163.076 40.4732C162.902 40.7453 162.858 41.032 162.934 41.3041C161.758 42.9914 160.129 44.4755 158.711 45.7673L158.344 46.1011C157.691 46.6962 151.649 51.8343 150.967 52.4112C149.505 53.6594 148.017 54.9258 146.772 56.3591C146.736 56.3555 146.696 56.3373 146.66 56.3373C146.41 56.3373 146.17 56.4462 145.967 56.653C141.99 60.6807 139.294 65.6337 138.568 70.2166L138.561 70.242C138.557 70.2493 138.557 70.2601 138.554 70.2783L138.543 70.3581C138.492 70.5976 138.463 70.848 138.452 71.0983L138.438 71.1963C138.43 71.2507 138.423 71.3088 138.416 71.3632C138.401 71.541 138.42 71.7079 138.47 71.8349ZM166.36 39.0653C166.443 38.8295 166.512 38.5936 166.57 38.3577C166.766 39.1343 166.911 39.9471 166.991 40.7998C167.354 44.6896 165.775 47.9517 162.023 51.065C161.094 51.8343 160.078 52.5817 159.095 53.3075C155.88 55.6733 147.241 62.651 145.981 66.4356C145.245 62.6764 147.07 58.8809 149.635 56.4607C150.586 55.5644 156.962 50.147 157.959 49.2906C161.334 46.4023 164.828 43.416 166.36 39.0653ZM51.4173 89.956C55.2273 70.9459 92.8084 53.7828 94.0312 53.1768C112.381 44.1417 126.699 38.0312 140.462 33.3539C145.386 31.6812 150.202 30.1826 154.977 30.1898C156.555 30.1935 158.054 30.3713 159.429 30.7196C162.107 31.3981 164.643 33.7894 164.534 37.0115C162.883 35.9883 159.999 35.7343 157.6 35.727C155.546 35.7234 153.54 35.9012 152.444 36.0572C148.14 36.6668 143.917 38.7424 139.835 40.7526C138.619 41.3513 137.469 41.9174 136.322 42.4435C130.549 45.0887 124.54 47.4618 118.731 49.7587C116.63 50.5897 114.456 51.4496 112.323 52.3096C100.443 57.0993 81.3348 67.8544 69.3134 77.6334C62.2848 83.3484 54.0298 92.3073 51.9035 103.955C50.7242 99.3214 50.521 94.4337 51.4173 89.956ZM69.4803 131.035C68.9687 130.966 68.4861 130.904 68.0579 130.799C65.859 130.262 63.631 129.308 61.4321 127.973C58.0757 125.93 55.3361 122.653 53.2896 118.226C51.635 114.645 50.7678 110.777 50.3868 106.847C50.6625 107.674 50.9564 108.498 51.2975 109.307C54.8644 117.82 61.3305 123.698 69.0812 125.523C69.6109 127.559 70.1697 129.46 70.7612 131.231C70.3475 131.148 69.9121 131.09 69.4803 131.035ZM74.651 135.212C72.8585 131.507 71.8098 127.192 70.7938 123.023C70.6596 122.468 70.5253 121.916 70.3911 121.376C68.9941 115.719 68.0071 109.822 70.235 105.058C72.5283 100.16 78.6279 98.5013 83.5301 97.166C83.8603 97.0753 84.1905 96.9882 84.5098 96.8975C91.6799 94.9163 98.5996 91.8465 105.294 88.8747C110.443 86.5887 115.766 84.2229 121.169 82.3723C127.537 80.1915 134.098 78.5297 140.669 77.4302L141.446 77.2996C144.055 76.8569 146.751 76.3997 149.385 76.4069C149.846 76.4069 150.289 76.4287 150.72 76.4614C151.482 77.3141 152.219 78.2031 152.876 79.1683C147.389 79.6618 141.841 80.8265 135.582 82.3832L133.789 82.8259C125.977 84.7599 117.9 86.7593 110.218 89.6549C106.673 90.9902 103.153 92.5468 99.7498 94.0527C96.3462 95.5585 92.8229 97.1152 89.2814 98.4505C88.6573 98.6864 88.0259 98.9186 87.3982 99.1508C82.0896 101.121 76.5996 103.157 72.2852 106.978C71.9768 107.25 71.857 107.602 71.955 107.968C71.7482 108.375 71.7881 108.825 72.0602 109.184C71.2547 119.242 73.4681 132.653 80.0902 141.148C77.8986 139.715 75.9791 137.951 74.651 135.212ZM83.2834 141.551C75.9827 133.92 73.8201 120.454 74.1793 111.161C75.2388 111.952 76.3492 112.551 77.4051 112.925C77.1293 125.258 80.5039 136.286 86.5237 142.538C88.182 144.265 90.0398 145.644 92.0754 146.678C88.7662 145.912 85.8198 144.2 83.2834 141.551ZM114.5 144.004C110.505 145.771 106.299 146.7 102.337 146.692C101.989 146.692 101.64 146.681 101.296 146.667C101.219 146.649 101.14 146.642 101.052 146.642C101.027 146.642 101.002 146.649 100.973 146.649C95.5516 146.337 90.8671 144.236 87.3583 140.513C81.9662 134.791 79.3718 125.647 79.6367 113.346C79.9451 113.299 80.1592 113.139 80.3007 112.929C82.4125 112.119 84.5244 111.307 86.6398 110.494C112.098 100.7 138.42 90.5729 165.296 83.7729C167.532 87.866 169.302 92.4198 170.707 97.6921C171.94 102.326 173.04 107.754 171.86 112.881C169.792 121.866 161.606 128.891 153.217 128.872C152.292 128.872 151.363 128.785 150.43 128.615C149.715 127.795 149.008 126.953 148.322 126.14C147.56 125.237 146.772 124.3 145.981 123.401C146.105 123.212 146.203 122.922 146.083 122.533C144.929 118.81 141.859 114.431 137.066 114.717C133.975 114.902 131.308 117.566 128.909 122.86C127.973 124.925 127.381 127.138 126.808 129.279C126.235 131.427 125.64 133.648 124.7 135.712C122.704 140.077 118.568 142.204 114.5 144.004Z" fill="#FF5B0D"/>
<path d="M104.246 130.897C104.623 130.897 104.935 130.694 105.12 130.324C106.017 128.524 106.917 126.688 107.787 124.914C109.732 120.94 111.746 116.829 113.891 112.87C114.087 112.508 114.087 112.123 113.887 111.785C113.673 111.426 113.256 111.183 112.849 111.183C112.468 111.183 112.153 111.379 111.957 111.742C109.805 115.712 107.787 119.834 105.835 123.818C104.972 125.585 104.075 127.41 103.183 129.203C102.998 129.573 103.012 129.965 103.223 130.306C103.444 130.665 103.843 130.897 104.246 130.897Z" fill="#FF5B0D"/>
<path d="M152.415 111.59C152.926 111.59 153.322 111.299 153.47 110.806C154.105 108.709 154.882 106.619 155.633 104.598C156.312 102.772 157.012 100.885 157.607 98.995C157.745 98.5632 157.614 98.2548 157.48 98.0733C157.27 97.7867 156.899 97.6089 156.511 97.6089C156 97.6089 155.604 97.8992 155.448 98.389C154.853 100.276 154.153 102.163 153.474 103.988C152.723 106.009 151.946 108.103 151.308 110.204C151.177 110.639 151.308 110.948 151.446 111.129C151.66 111.412 152.03 111.59 152.415 111.59Z" fill="#FF5B0D"/>
<path d="M153.812 116.6C153.682 117.036 153.816 117.341 153.946 117.526C154.157 117.812 154.527 117.99 154.912 117.99C155.423 117.99 155.819 117.696 155.968 117.206C156.603 115.109 157.379 113.023 158.127 111.002C158.805 109.173 159.505 107.286 160.1 105.395C160.238 104.964 160.108 104.655 159.973 104.474C159.763 104.187 159.393 104.009 159.005 104.009C158.493 104.009 158.097 104.3 157.941 104.789C157.346 106.676 156.646 108.563 155.971 110.385C155.227 112.406 154.451 114.499 153.812 116.6Z" fill="#FF5B0D"/>
<path d="M206.611 146.827C206.64 145.005 205.882 143.154 204.579 141.863L204.586 141.855C204.608 141.819 204.633 141.786 204.655 141.747C204.819 141.474 204.858 141.191 204.775 140.93C204.909 140.734 204.967 140.502 204.946 140.237C204.409 133.746 203.784 127.236 203.302 122.272C203.835 122.236 204.401 122.192 204.975 122.134C205 122.13 205.022 122.127 205.047 122.127C205.715 122.022 205.969 121.474 205.98 121.038C205.998 120.519 205.708 120.08 205.268 119.946L204.666 110.392C204.659 110.305 204.644 110.218 204.615 110.124C204.63 109.695 204.416 109.158 203.755 109.024C203.178 108.908 202.572 108.795 201.952 108.694C200.718 96.4256 199.321 82.5282 198.4 68.8304C198.41 68.2425 198.371 67.7128 198.283 67.2193L198.276 67.1213C198.273 67.0669 198.269 67.0161 198.265 66.958C198.244 66.6351 198.113 66.3666 197.884 66.1851C197.638 65.9892 197.3 65.9057 196.963 65.9602C196.661 66.0073 196.408 66.1561 196.237 66.3738C192.957 67.4733 190.177 70.0496 188.2 73.8269C186.552 76.9693 185.504 80.8337 185.242 84.7054C185.202 85.3222 185.583 85.6198 185.975 85.6996C187.51 91.9988 187.608 98.6173 187.706 105.018C187.721 106.089 187.739 107.159 187.761 108.229L187.699 108.233C187.452 108.073 187.126 108.008 186.821 108.055C186.567 108.095 186.342 108.211 186.171 108.385C185.747 108.462 185.435 108.737 185.304 109.147C185.173 109.561 185.264 110.022 185.536 110.312C185.362 111.143 185.242 112.036 185.181 112.957C182.038 114.242 181.436 116.379 181.483 117.95C181.607 121.927 185.779 126.26 189.452 127.512C189.847 130.302 190.29 133.129 190.718 135.865C190.95 137.356 191.182 138.844 191.407 140.331C191.005 141.122 190.584 141.834 190.177 142.523C189.952 142.904 189.735 143.274 189.535 143.637C189.27 143.818 189.1 144.141 189.074 144.504C188.396 145.887 187.895 147.451 188.751 149.493C188.537 149.65 188.374 149.878 188.294 150.139C187.115 150.6 186.269 151.344 185.848 152.291C185.453 153.184 185.456 154.236 185.859 155.332C183.889 156.217 183.025 158.108 183.537 160.419C183.185 160.568 182.906 160.905 182.818 161.29C181.207 162.506 180.474 164.556 180.805 166.932C180.369 166.932 180.064 167.088 179.898 167.4C178.805 167.818 178.341 168.634 177.757 169.661C177.405 170.278 177.009 170.975 176.403 171.697C175.99 172.194 175.387 172.477 174.807 172.753C174.193 173.047 173.558 173.344 173.123 173.896C172.234 175.013 172.125 176.098 172.27 177.357C172.103 177.281 171.918 177.248 171.715 177.27C170.391 177.383 169.389 178.221 168.881 179.607C167.041 179.701 165.757 180.725 165.064 182.619C164.106 182.524 163.21 182.786 162.404 183.395C161.965 183.453 161.631 183.725 161.493 184.139C161.417 184.175 161.352 184.215 161.29 184.259C157.756 186.882 154.084 188.795 150.655 189.792C149.936 187.347 149.007 184.934 148.111 182.597C147.821 181.839 147.527 181.08 147.244 180.318C147.077 179.868 146.703 179.603 146.235 179.6C146.232 179.302 146.101 179.045 145.854 178.878C147.483 176.026 147.4 172.11 145.64 169.538C144.203 167.433 141.892 166.639 139.214 167.339C138.586 167.502 138.379 168.192 138.51 168.758C139.214 171.845 138.818 174.705 137.396 176.806C136.148 178.653 134.152 179.846 131.623 180.246C131.452 180.275 131.278 180.296 131.1 180.315C128.952 180.561 125.955 180.148 124.101 178.682C123.589 178.275 123.096 177.818 122.624 177.375C121.873 176.671 121.093 175.949 120.2 175.394C119.438 174.923 118.752 174.734 118.161 174.828C117.091 174.999 116.408 176.138 116.336 177.873C116.183 181.603 118.15 184.89 121.347 186.269C121.329 186.447 121.369 186.632 121.463 186.802C121.634 187.684 121.793 188.573 121.96 189.459C122.624 193.076 123.314 196.814 124.42 200.395C122.323 201.952 119.997 203.305 117.94 204.503C117.511 204.749 117.337 205.167 117.461 205.62C115.857 208.487 115.65 212.369 116.895 216.281C118.252 220.541 121.024 224.01 124.301 225.548C124.409 225.632 124.533 225.69 124.649 225.712C124.91 225.82 125.15 225.915 125.385 225.991C125.56 226.049 125.73 226.067 125.886 226.042C126.307 225.973 126.619 225.599 126.67 225.102C142.81 218.658 159.85 211.546 175.206 201.796C175.772 201.436 175.775 200.87 175.605 200.479C175.75 199.96 175.772 199.477 175.677 199.009C175.652 198.882 175.609 198.751 175.554 198.61C176.026 198.269 176.53 197.917 177.089 197.666C177.582 197.445 177.876 196.97 177.826 196.483C180.464 195.91 181.937 194.539 182.096 192.503C183.751 192.057 184.963 190.899 185.518 189.23C188.842 188.239 190.914 184.792 191.748 181.889C191.756 181.86 191.763 181.831 191.767 181.802C194.056 180.209 195.13 177.764 194.593 175.387C195.725 175.311 196.683 174.712 197.358 173.674C198.244 172.317 198.523 170.409 198.084 168.678C200.428 167.263 201.542 164.157 200.755 161.228C200.758 161.228 200.762 161.228 200.765 161.225C203.846 160.735 203.556 156.076 203.374 154.555C204.528 153.812 205.033 152.494 204.764 150.938C204.79 150.923 204.811 150.905 204.833 150.883C205.951 149.867 206.586 148.423 206.611 146.827ZM196.643 75.6521C197.453 86.1423 198.45 96.266 199.67 108.367C196.545 107.997 193.272 107.896 189.949 108.073C189.909 106.727 189.887 105.363 189.862 104.038C189.753 97.9968 189.637 91.7484 188.276 85.725C188.345 85.7177 188.414 85.7068 188.479 85.696C191.516 85.2134 193.657 81.378 194.811 79.3169C195.522 78.0433 196.135 76.8096 196.643 75.6521ZM187.572 83.5043C188.167 78.203 190.761 71.2361 196.135 68.8195C196.048 71.2978 194.851 73.9648 193.889 76.1202L193.762 76.4068C192.942 78.2356 190.765 83.0943 188.221 83.497C188.004 83.537 187.786 83.537 187.572 83.5043ZM183.635 117.976C183.62 116.923 184.128 116.074 185.144 115.458C185.213 117.134 185.449 118.926 185.848 120.788C185.605 121.133 185.58 121.641 185.787 122.032C185.986 122.413 186.356 122.617 186.803 122.595C187.383 122.566 188.015 122.54 188.784 122.519C188.878 123.313 188.98 124.097 189.081 124.852C186.447 123.4 183.668 120.338 183.635 117.976ZM190.812 120.207L190.722 120.215C190.642 120.222 190.562 120.229 190.486 120.236C190.409 120.244 190.33 120.251 190.261 120.258C189.64 120.265 188.835 120.28 188.018 120.305C187.227 116.68 187.151 113.371 187.793 110.465C192.891 110.004 197.826 110.203 202.46 111.06L203.026 120.048C202.409 120.091 201.756 120.127 200.972 120.16H200.94C198.675 120.251 196.375 120.247 194.147 120.247C193.055 120.247 191.926 120.244 190.812 120.254V120.207ZM191.113 122.653L191.092 122.482C192.151 122.475 193.233 122.475 194.274 122.479C196.498 122.482 198.799 122.486 201.059 122.399C201.546 127.374 202.173 133.894 202.71 140.386C202.718 140.462 202.728 140.531 202.75 140.604C202.718 140.643 202.689 140.683 202.66 140.731C202.315 141.311 201.727 141.659 200.863 141.797C199.191 142.062 196.832 141.449 194.934 140.959C194.499 140.847 194.085 140.738 193.708 140.647C193.534 139.504 193.36 138.361 193.185 137.214C192.692 133.978 192.18 130.632 191.719 127.33C191.901 127.054 191.97 126.713 191.904 126.398C191.85 126.136 191.712 125.926 191.502 125.784C191.364 124.743 191.237 123.68 191.113 122.653ZM123.027 184.498C120.226 183.783 118.767 181.574 118.564 177.738C118.549 177.444 118.665 177.426 118.709 177.415C119.315 177.321 121.271 179.146 121.913 179.745C122.029 179.854 122.116 179.934 122.174 179.984C124.308 181.878 127.356 182.738 131.235 182.546C131.681 182.524 132.124 182.477 132.548 182.412C139.41 181.32 141.66 174.872 140.858 169.302C142.781 169.157 143.728 170.311 144.189 171.312C145.274 173.671 144.65 177.368 142.882 179.063C142.599 179.335 142.494 179.669 142.585 180.01C142.679 180.365 142.98 180.677 143.354 180.812C141.591 183.609 137.262 185.917 132.276 186.708C128.876 187.249 125.806 186.933 123.843 185.845C123.952 185.297 123.713 184.676 123.027 184.498ZM124.899 223.4C122.091 221.974 119.66 218.487 118.691 214.507C117.889 211.205 118.273 208.157 119.739 206.143C119.776 206.088 119.812 206.034 119.845 205.969C121.732 204.869 123.727 203.679 125.621 202.278C125.734 202.293 125.854 202.293 125.973 202.275C126.329 202.217 126.648 202.013 126.819 201.727C126.978 201.462 127.007 201.15 126.895 200.831C125.61 197.035 124.877 193.044 124.166 189.186L124.01 188.337C126.387 189.226 129.464 189.433 132.697 188.918C138.31 188.025 143.253 185.206 145.368 181.708C145.575 182.256 145.785 182.8 145.996 183.344C147.044 186.077 148.133 188.903 148.884 191.792C149.026 192.329 149.465 192.619 150.005 192.532C150.314 192.485 150.597 192.322 150.793 192.082C154.138 191.197 157.763 189.44 161.29 187.002C161.682 190.856 164.262 195.076 166.374 197.96C167.618 199.655 169.741 201.531 171.628 201.23C171.766 201.208 171.904 201.175 172.034 201.128C157.248 210.236 141.297 216.865 124.899 223.4ZM173.232 200.384C173.134 200.446 173.032 200.508 172.934 200.569C173.105 200.406 173.264 200.214 173.413 199.996C173.366 200.13 173.297 200.261 173.232 200.384ZM174.487 196.727C174.324 196.846 174.161 196.966 173.994 197.082C173.758 197.013 173.482 197.046 173.235 197.169C173.112 197.155 172.989 197.158 172.869 197.177C172.412 197.249 172.074 197.543 171.933 197.982C171.733 198.617 171.439 198.973 171.069 199.031C170.1 199.187 168.431 197.369 166.494 194.045C164.962 191.411 163.239 188.047 163.529 185.355C163.794 185.141 164.091 185.01 164.407 184.959C167.706 184.433 172.916 192.71 174.894 195.848C174.919 196.015 174.981 196.171 175.072 196.302C174.876 196.444 174.68 196.585 174.487 196.727ZM176.668 194.419L176.632 194.426C174.614 191.24 170.899 185.395 167.179 183.334C167.499 182.575 168.065 182.129 168.859 182.002C172.1 181.487 178.508 186.574 179.665 190.547C179.339 190.674 179.128 190.975 179.092 191.364C179.048 191.843 179.288 192.322 179.68 192.554C179.313 193.53 178.297 194.161 176.668 194.419ZM183.62 187.31C183.555 188.145 183.385 189.096 182.648 189.843C182.438 190.057 182.165 190.213 181.813 190.319C180.576 186.124 175.558 181.218 171.178 179.915C171.229 179.836 171.276 179.774 171.327 179.716L171.349 179.694C171.399 179.654 171.454 179.622 171.512 179.589C171.526 179.585 171.552 179.582 171.65 179.542C171.682 179.538 171.759 179.524 171.813 179.513L171.849 179.502C172.296 179.462 172.626 179.208 172.778 178.82C174.088 179.868 175.529 180.87 176.922 181.839C179.262 183.464 181.683 185.144 183.642 187.162C183.631 187.202 183.62 187.252 183.62 187.31ZM186.077 186.498C183.893 184.041 181.117 182.085 178.432 180.195C177.129 179.277 175.779 178.33 174.531 177.343C174.422 175.652 175.34 175.075 176.501 174.342C176.635 174.258 176.773 174.168 176.915 174.077C179.879 176.853 183.486 178.939 186.977 180.957C187.728 181.392 188.501 181.839 189.256 182.289C188.552 184.121 187.401 185.649 186.077 186.498ZM190.148 180.217C189.47 179.814 188.784 179.418 188.094 179.023C184.807 177.121 181.407 175.155 178.588 172.571C178.896 172.139 179.096 171.697 179.292 171.272C179.72 170.336 180.057 169.596 181.324 169.396C181.356 169.389 181.392 169.385 181.429 169.382C181.788 169.556 182.14 169.745 182.481 169.926C183.631 170.543 184.774 171.214 185.877 171.867L186.001 171.94C186.959 172.506 187.928 173.09 188.86 173.656C189.952 174.317 191.081 174.999 192.202 175.655C192.264 175.692 192.322 175.717 192.376 175.743C192.841 177.412 191.948 179.197 190.148 180.217ZM195.544 172.513C195.079 173.217 194.336 173.369 193.403 172.959C193.196 172.865 192.986 172.84 192.779 172.869C192.601 172.898 192.427 172.974 192.275 173.094C191.389 172.568 190.504 172.038 189.622 171.508C188.102 170.59 186.527 169.647 184.959 168.743C184.89 168.707 184.792 168.645 184.665 168.569C184.332 168.366 183.831 168.061 183.272 167.767C182.63 165.775 182.924 164.098 184.078 163.148C186.988 165.506 190.692 166.726 194.281 167.898C194.557 167.988 194.829 168.075 195.101 168.17C195.116 168.667 195.446 169.135 195.903 169.295C196.175 170.467 196.027 171.784 195.544 172.513ZM197.057 166.657C196.988 166.606 196.916 166.562 196.836 166.53C196.709 166.406 196.556 166.316 196.389 166.257C195.878 166.083 195.359 165.913 194.833 165.742C191.774 164.741 188.613 163.707 186.052 161.842C186.171 161.569 186.179 161.283 186.066 161.029C185.34 159.849 185.58 158.75 186.799 157.672C188.526 158.184 190.261 158.775 191.941 159.349C194.056 160.071 196.244 160.818 198.436 161.41C199.143 163.438 198.563 165.623 197.057 166.657ZM201.226 157.622C201.114 158.507 200.842 158.924 200.315 159.008C200.112 159.04 199.869 159.022 199.579 158.957C199.43 158.924 199.285 158.917 199.151 158.935C198.973 158.964 198.813 159.04 198.672 159.156C196.56 158.579 194.448 157.857 192.405 157.157C191.135 156.722 189.825 156.275 188.526 155.865C188.504 155.695 188.446 155.531 188.352 155.375C187.732 154.381 187.543 153.59 187.801 153.031C188.047 152.494 188.686 152.15 189.76 151.979C189.912 151.954 190.065 151.936 190.214 151.921C191.85 152.516 193.57 152.948 195.235 153.369C197.224 153.87 199.281 154.388 201.19 155.179C201.302 156.141 201.317 156.921 201.226 157.622ZM202.533 152.258C202.413 152.534 202.173 152.734 201.803 152.864C201.734 152.886 201.683 152.919 201.633 152.952C199.873 152.277 198.008 151.805 196.201 151.351C194.691 150.97 193.131 150.578 191.643 150.067C190.591 148.601 190.322 147.327 190.78 145.952L191.494 146.155C195.148 147.178 198.926 148.234 202.162 150.074C202.177 150.15 202.195 150.237 202.239 150.335C202.5 150.941 202.768 151.714 202.533 152.258ZM203.864 148.478C200.381 146.308 196.154 145.128 192.068 143.989L191.821 143.92C191.933 143.742 192.053 143.561 192.169 143.376C192.318 143.147 192.467 142.919 192.616 142.683C193.36 142.802 194.18 142.998 195.047 143.202C197.086 143.688 199.397 144.236 201.328 143.927C201.934 143.829 202.482 143.652 202.957 143.398C202.972 143.412 202.986 143.427 203.001 143.445C204.416 144.791 204.771 146.892 203.864 148.478Z" fill="#FF5B0D"/>
<path d="M149.849 197.514C149.606 197.551 149.389 197.685 149.211 197.899C146.522 201.176 143.122 203.16 139.112 203.795C136.761 204.169 134.178 204.082 131.431 203.534C131.286 203.505 131.148 203.501 131.017 203.523C130.436 203.614 130.121 204.162 130.114 204.652C130.103 205.2 130.444 205.621 130.977 205.726C133.982 206.324 136.841 206.415 139.475 205.998C144.04 205.272 147.883 203.044 150.894 199.372C151.199 198.998 151.243 198.527 151.007 198.117C150.76 197.696 150.285 197.445 149.849 197.514Z" fill="#FF5B0D"/>
</svg>
