<svg width="616" height="567" viewBox="0 0 616 567" fill="none" xmlns="http://www.w3.org/2000/svg">
<path fillrule="evenodd" clipRule="evenodd" d="M397.083 0.910585C395.227 1.59536 394.83 2.37615 395.124 4.92327C395.419 7.86078 396.104 8.44314 403.828 12.2574C408.622 14.7021 415.565 19.2972 420.263 23.3099C428.384 30.1577 428.384 30.1577 425.741 31.1368C424.372 31.6232 422.804 32.116 422.413 32.116C421.927 32.116 420.455 32.9992 418.989 34.1703C413.805 38.279 416.545 42.7781 426.714 47.0788C429.939 48.4483 434.733 50.797 437.376 52.2626C441.19 54.4129 441.779 55.0977 440.505 55.7825C439.622 56.2689 438.938 57.9328 438.938 59.5967C438.938 61.9455 440.307 63.9999 445.1 69.0877C448.428 72.6076 450.284 75.1547 449.209 74.6619C438.061 70.2588 422.701 67.3278 411.162 67.3278C381.326 67.3278 354.53 81.5097 338.192 105.867C333.104 113.4 321.271 137.073 319.997 142.154C319.312 144.989 321.757 148.509 324.496 148.509C325.475 148.509 330.954 143.716 336.822 137.943C343.766 131.095 351.203 124.836 358.146 120.241C364.015 116.427 368.904 113.393 369.103 113.592C369.301 113.79 369.007 115.352 368.418 116.92C367.829 118.584 367.535 121.617 367.733 123.768C368.028 126.993 368.322 127.486 370.767 127.78C372.821 128.075 375.656 126.609 382.018 122.302C390.139 116.824 402.363 109.394 403.342 109.394C403.54 109.394 403.047 110.763 402.171 112.427C400.897 114.872 400.801 116.049 401.684 118.001C402.759 120.35 403.054 120.35 409.902 119.761C413.812 119.371 418.023 118.782 419.392 118.488C420.762 118.193 418.612 120.056 414.599 122.5C404.622 128.759 397.089 135.511 390.734 143.921C380.853 156.733 374.888 169.744 369.8 189.308C367.157 199.381 367.061 200.853 367.157 221.39C367.157 239.489 367.452 244.474 369.212 252.692C370.581 259.047 371.951 262.867 373.026 263.648C378.114 267.366 380.168 264.237 387.598 241.447C394.836 219.534 405.594 190.582 406.574 190.582C406.868 190.582 407.943 193.122 408.922 196.354C411.463 204.373 414.01 208.187 416.749 208.187C420.173 208.187 421.735 205.743 424.672 196.06C426.138 191.17 429.171 182.659 431.322 176.988L435.334 166.717L437.389 171.024C439.833 176.009 441.689 177.379 444.921 176.598C446.777 176.112 449.126 172.784 455.385 161.341C459.788 153.322 464.972 144.42 466.93 141.585C472.6 133.175 480.331 123.979 481.112 124.76C483.365 127.108 486.392 188.239 485.413 214.062C484.632 237.633 482.187 278.72 481.599 279.302C481.4 279.5 476.415 280.185 470.546 280.768C453.721 282.335 433.67 281.158 406.676 277.049C385.058 273.824 380.757 273.433 362.172 273.331C343.977 273.331 339.971 273.625 326.467 275.974C303.774 279.987 284.21 281.747 261.913 281.843C244.697 281.843 239.609 281.548 226.208 279.302C190.798 273.529 188.552 273.337 168.501 273.337C149.43 273.337 148.354 273.433 126.928 277.542C106.193 281.555 104.138 281.747 92.2026 281.356C77.3359 280.767 73.816 281.555 74.3024 285.369C74.6927 288.402 77.4318 289.964 86.526 291.826C97.4824 294.175 106.967 293.586 129.366 289.478C163.503 283.123 174.363 283.219 217.396 290.162C238.816 293.586 240.966 293.778 261.9 293.682C286.155 293.586 301.809 292.114 329.392 287.327C352.572 283.219 374.485 283.123 402.945 286.841C438.841 291.436 445.491 291.826 461.439 289.97C469.266 289.087 476.895 288.012 478.456 287.718L481.291 287.129L480.607 295.833C480.216 300.626 479.723 306.591 479.333 309.138L478.847 313.637L470.143 314.322C465.349 314.712 461.241 315.397 460.946 315.787C459.871 317.547 463.686 318.917 470.143 319.115C473.957 319.211 477.285 319.602 477.676 319.998C478.264 320.485 473.176 358.442 471.417 366.653L470.636 370.077L466.137 361.763C454.009 339.364 451.955 333.495 449.216 313.835C447.36 299.749 445.497 294.469 442.272 293.689C440.704 293.298 439.238 293.593 438.067 294.668C436.499 296.133 436.109 298.386 435.526 308.754C435.232 315.602 434.451 324.696 433.958 329.003C432.883 336.926 428.679 356.196 427.603 358.052C427.213 358.64 425.939 355.997 424.768 352.279C421.639 342.206 417.14 334.673 409.018 325.477C405.006 320.977 399.137 313.253 395.912 308.459C385.448 292.518 384.859 291.833 381.435 291.538C378.6 291.244 378.107 291.634 376.642 294.962C375.368 297.996 374.978 303.276 374.587 323.326L374.197 347.978L367.644 348.567C359.625 349.348 358.447 349.738 358.94 351.306C359.234 351.895 362.658 353.162 366.767 353.949L374.101 355.319L374.69 378.889C375.08 391.798 375.765 405.007 376.354 408.136C376.84 411.362 377.135 414.101 376.943 414.299C376.354 414.888 371.56 404.124 366.869 392.098C360.412 375.472 356.207 368.035 348.969 360.701C342.32 353.949 333.418 348.081 329.699 348.081C328.426 348.081 326.762 349.156 325.885 350.621C324.221 352.97 324.317 353.36 326.371 358.154C331.555 369.891 332.438 374.39 333.411 393.071C334 403.049 334.781 413.026 335.171 415.375C335.952 419.093 335.856 419.579 333.898 419.874C332.822 420.072 327.44 421.243 321.962 422.318C298.974 427.208 265.33 429.947 249.971 428.283C244.396 427.694 237.939 426.817 235.494 426.325C226.496 424.661 194.708 422.216 189.032 422.805C182.184 423.49 172.987 425.64 156.655 430.529C142.863 434.542 128.483 436.884 115.184 437.179C105.988 437.473 105.796 437.377 96.1129 432.974C79.6782 425.345 65.4962 423.682 44.0761 426.907C23.3408 429.941 14.3426 433.262 13.6578 437.96C12.7747 443.828 19.136 444.314 39.481 440.11C64.7154 434.83 74.008 435.124 90.2443 441.966C103.837 447.636 113.623 450.477 126.531 452.724C139.248 454.874 148.047 455.169 150.396 453.703C152.45 452.429 150.69 450.868 144.527 448.814C138.857 446.855 139.049 446.465 145.993 445.39C148.636 444.999 156.559 442.945 163.599 440.891C185.409 434.337 189.032 433.851 209.178 435.611C218.861 436.392 230.694 437.761 235.686 438.548C251.826 441.191 273.048 440.308 301.515 436.008C305.329 435.419 314.231 433.467 321.373 431.604C328.413 429.749 335.261 428.277 336.534 428.277C338.294 428.277 339.472 429.742 342.499 435.809C344.553 440.014 348.758 448.135 351.99 453.908C357.954 464.57 362.844 476.109 364.117 481.977C364.802 485.305 364.802 485.203 356.585 478.067C351.99 474.054 345.238 467.309 341.52 463.002C325.187 444.027 315.21 436.104 307.773 436.104C301.706 436.104 301.514 440.507 307.287 449.114C313.156 457.818 317.168 468.871 319.613 482.566C321.866 495.283 324.407 501.638 332.522 514.847C338.294 524.139 341.424 530.008 340.739 530.008C340.54 530.008 332.912 528.05 323.818 525.605C292.811 517.388 274.13 518.072 239.891 529.029C230.304 532.158 230.112 532.158 214.458 531.672C198.414 531.281 194.311 530.597 146.479 521.01C133.174 518.367 129.36 517.976 115.178 517.976C103.242 517.976 96.1065 518.463 87.7931 520.03C69.0161 523.358 1.52381 540.177 0.935026 541.547C-0.728923 546.046 8.46761 545.265 51.1159 536.849C100.708 527.166 112.932 526.776 145.507 534.405C153.334 536.164 167.317 538.904 176.712 540.369C190.209 542.519 193.147 543.307 190.894 543.889C184.245 545.745 148.54 552.695 131.325 555.53C121.149 557.194 112.349 558.858 111.863 559.345C110.103 561.104 112.548 562.282 117.93 562.282C126.441 562.282 155.689 558.762 174.856 555.338C195.297 551.818 206.452 549.175 226.694 543.307C266.604 531.761 279.71 530.104 300.247 533.918C307.191 535.192 331.35 542.04 331.35 542.724C331.35 543.019 322.743 546.442 312.177 550.449C292.516 557.981 284.984 562.09 285.573 565.021C285.867 566.295 287.141 566.781 292.03 566.979C300.734 567.37 319.812 562.186 347.977 551.62C390.817 535.48 415.271 530.104 432.979 532.836C436.89 533.425 448.14 536.555 457.919 539.684C483.838 548.196 492.254 550.148 519.639 554.065C542.134 557.194 562.678 557.002 562.678 553.476C562.678 552.305 560.719 551.908 552.899 551.422C536.464 550.442 525.802 548.586 526.391 546.922C528.151 542.327 530.013 520.901 529.911 506.034C529.815 494.003 530.205 487.648 531.28 483.046C533.533 473.459 536.662 445.684 537.738 424.846C538.224 414.575 539.203 396.969 539.792 385.718C541.36 356.176 540.381 305.317 537.834 283.603C531.575 230.881 522.672 194.786 505.457 151.453C504.286 148.516 503.601 146.269 503.793 146.564C504.088 146.858 506.334 149.892 508.881 153.411C515.825 162.998 518.66 164.758 522.084 161.725C523.549 160.355 524.336 161.526 531.178 175.907C539.299 192.732 541.354 195.273 545.853 193.609C547.517 192.924 548.688 191.65 548.982 189.89C550.55 182.947 550.838 182.947 555.632 190.671C558.076 194.684 561.596 200.552 563.356 203.778C567.074 210.427 570.204 211.797 573.429 208.181C575.093 206.421 575.189 204.367 575.285 187.836C575.285 170.716 575.087 168.957 572.642 160.739C566.185 139.319 555.427 125.137 538.115 115.16C534.103 112.907 533.13 111.832 533.52 110.27C533.815 109.291 534.301 108.216 534.691 108.018C534.986 107.819 539.677 108.504 545.059 109.483C557.577 111.736 559.535 111.736 562.274 109.483C564.425 107.819 564.527 107.333 563.446 104.594C562.076 100.876 562.172 100.875 572.936 103.909C577.532 105.279 588.002 107.922 596.219 109.874C610.305 113.298 611.284 113.393 613.531 111.928C617.05 109.579 616.66 105.765 611.962 98.0404C600.814 79.5514 588.194 68.8893 570.492 62.8287C563.74 60.4799 561.295 60.1856 552.4 60.288C546.729 60.384 540.854 60.5824 539.293 60.6783C533.034 61.2671 536.458 58.8224 548.099 54.221C555.536 51.2835 560.719 48.7427 561.302 47.5716C562.966 44.5381 561.302 41.9013 556.604 39.847C554.159 38.7718 552.304 37.7927 552.496 37.4983C553.571 36.5191 587.906 21.358 594.459 19.0092C604.142 15.5854 606.1 13.0446 602.58 8.73753C599.841 5.51203 583.605 1.79376 571.964 1.79376C560.028 1.79376 551.523 3.64971 541.251 8.44316C520.708 18.1261 503.204 34.7527 492.638 54.9057L489.118 61.6575L487.55 54.7137C482.565 32.9992 462.316 13.339 436 4.73125C423.783 0.81457 402.561 -1.33575 397.083 0.910585ZM434.054 14.1134C451.955 19.7836 469.266 33.9719 476.703 49.1331L480.517 56.96V72.6076C480.517 81.3113 480.127 90.0214 479.736 92.0757L478.955 95.7941L474.751 91.4934C472.498 89.0487 469.471 86.4055 468.101 85.5287C466.636 84.6456 465.266 82.6937 464.972 81.3241C464.287 78.681 458.124 69.9772 454.7 66.9437C452.057 64.499 452.057 63.8142 455.091 63.0334C457.926 62.3487 459.884 59.2192 459.001 56.5761C458.22 54.1313 448.243 46.9891 439.731 42.7844C436.013 41.0245 433.082 39.2646 433.082 38.8742C433.082 38.4838 434.451 37.895 436.019 37.5046C439.149 36.8198 440.909 34.5671 440.909 31.0472C440.909 29.0889 438.56 26.6442 424.282 13.6334L420.858 10.5999L423.796 11.1886C425.447 11.5726 430.042 12.8462 434.054 14.1134ZM579.701 12.3534L584.002 13.0382L565.026 21.646C542.141 31.9176 535.389 35.8279 534.998 38.8614C534.512 41.9909 537.149 44.5316 541.942 45.2164L546.051 45.9012L537.149 49.6195C522.378 55.6865 518.468 58.6176 520.714 62.1375C521.303 63.1167 522.967 63.9934 524.432 64.1918C526.877 64.4862 526.288 64.9726 519.639 68.7868C509.367 74.6555 499.78 82.6744 492.542 91.2822C489.214 95.2948 486.283 98.4243 486.187 98.2259C485.406 97.4452 494.993 70.4444 498.609 63.2062C515.14 30.1577 550.646 7.85437 579.701 12.3534ZM568.252 73.1004C575.1 75.7435 587.029 83.468 591.138 87.9671C594.856 92.0758 601.409 100.78 601.019 101.17C600.724 101.464 589.474 98.6291 570.991 93.4453C564.239 91.5894 556.22 89.727 553.187 89.4326C548.297 88.8438 547.414 88.9462 545.558 90.8022C543.305 93.0549 543.6 95.7876 546.339 98.8212C548.195 100.971 548.003 100.971 537.341 98.6227C523.549 95.5892 519.146 96.178 519.146 101.067C519.146 102.143 519.831 104.101 520.714 105.272C521.495 106.443 522.084 107.422 521.885 107.422C521.687 107.422 519.146 106.738 516.215 105.957C509.271 104.101 498.02 104.101 492.837 105.957C489.118 107.231 488.824 107.23 489.611 105.861C491.275 102.923 504.772 89.8166 510.737 85.2216C517.29 80.2361 530.103 73.7787 537.437 71.6284C544.585 69.5741 561.212 70.3613 568.252 73.1004ZM427.303 78.5786C445.401 82.0025 459.289 88.6519 470.047 99.2179C473.861 103.032 477.087 106.552 477.087 107.141C477.087 107.627 471.807 108.12 464.665 108.12C455.571 108.216 450.092 108.805 444.806 110.174C439.52 111.544 436.979 111.838 435.61 111.154C434.438 110.565 429.837 110.469 423.38 110.859C414.772 111.448 413.204 111.346 414.087 110.27C422.106 99.8067 422.4 99.218 421.229 95.8901C420.64 94.3221 419.661 93.7397 417.415 93.7397C414.087 93.7397 402.452 99.3139 389.832 107.045C385.038 109.88 381.224 112.03 381.224 111.742C381.224 111.454 382.107 109.592 383.182 107.435C386.408 101.08 385.333 97.6564 379.957 97.6564C377.122 97.6564 358.927 108.12 349.436 115.166C341.904 120.836 341.712 120.74 345.718 114.283C362.946 86.3992 394.638 72.6076 427.303 78.5786ZM511.818 114.769C529.815 119.467 547.325 132.574 555.734 147.831C560.918 157.219 564.246 169.059 564.828 179.817L565.314 189.11L561.404 182.755C551.913 167.395 546.928 164.656 543.113 172.681L541.059 176.886L534.602 163.389C527.952 149.501 522.96 141.674 520.81 141.674C518.461 141.674 516.9 143.53 516.311 146.954L515.722 150.474L506.43 137.169C501.342 129.835 495.473 121.912 493.419 119.563L489.701 115.358L492.926 114.379C497.924 113.003 505.361 113.106 511.818 114.769ZM472.396 116.037C473.861 116.625 473.669 117.31 470.54 121.124C464.869 128.267 456.063 141.956 450.489 152.426C447.654 157.808 445.011 162.205 444.621 162.205C444.326 162.205 443.737 160.445 443.347 158.295C442.566 153.405 439.533 149.488 436.499 149.488C432.781 149.488 429.85 154.474 423.879 171.005C420.749 179.318 418.01 186.85 417.716 187.631C417.421 188.514 416.833 187.535 416.346 185.186C414.586 177.167 412.532 172.963 409.889 172.374C408.423 171.984 406.663 172.08 405.78 172.572C402.164 174.723 388.469 207.688 381.621 230.382C380.155 235.367 378.587 239.476 378.197 239.476C377.026 239.476 376.629 223.144 377.512 211.01C379.663 180.003 392.475 152.323 412.039 136.478C426.317 124.939 443.046 118.481 465.836 115.838C470.444 115.352 470.636 115.352 472.396 116.037ZM500.664 164.355C506.238 180.495 506.334 180.79 504.183 181.18C501.15 181.865 494.692 182.646 494.692 182.454C494.692 182.358 493.809 172.771 492.734 161.226C491.659 149.68 490.776 139.709 490.878 139.217C490.885 137.655 494.501 146.852 500.664 164.355ZM504.971 188.617C508.491 188.617 509.175 188.911 509.668 190.767C509.867 192.041 511.921 200.156 514.167 208.866C516.318 217.569 518.18 225.595 518.18 226.67C518.18 228.526 517.591 228.724 511.14 228.82C507.23 228.82 501.944 229.211 499.403 229.601L494.705 230.382V187.343L497.739 188.028C499.396 188.322 502.718 188.617 504.971 188.617ZM520.324 238.305C520.913 238.894 525.309 267.456 526.192 277.036L526.583 280.755L517.29 279.974C512.106 279.488 504.478 279.091 500.273 279.091H492.645L493.233 259.04C493.624 247.988 494.014 238.497 494.117 238.01C494.501 236.935 519.153 237.23 520.324 238.305ZM511.428 289.951L527.664 292.594L528.349 298.559C528.643 301.887 529.232 314.309 529.623 326.238C530.109 344.625 530.013 348.049 528.842 348.049C528.061 348.049 520.036 347.562 510.846 346.973L494.219 345.802L491.48 342.577C489.912 340.721 488.056 339.249 487.275 339.249C486.296 339.249 486.002 338.564 486.392 336.996C487.077 334.059 489.618 312.933 490.302 304.524C491.576 288.678 491.87 287.404 493.528 287.404C494.405 287.411 502.526 288.582 511.428 289.951ZM389.352 319.102C391.31 322.04 395.515 327.512 398.74 331.23C411.361 345.905 413.703 352.164 419.38 385.615C424.467 415.643 427.693 428.264 436.006 450.273C440.313 461.716 443.046 473.651 445.888 493.407C448.14 509.644 447.942 514.047 445.401 501.132C440.416 475.213 436.307 463.962 425.837 447.822C418.893 436.865 416.839 431.489 412.046 410.652C409.306 399.01 405.006 388.252 403.239 389.135C401.966 389.724 402.068 389.82 405.095 400.188C406.465 404.981 408.519 413.979 409.594 420.334C412.039 434.907 413.703 439.7 421.626 454.861C425.146 461.511 429.159 470.803 430.528 475.302C433.171 484.108 440.409 520.984 439.622 521.765C439.328 522.059 437.568 521.963 435.712 521.669C432.384 520.984 432.288 520.786 431.213 515.02C428.57 501.132 423.68 488.217 416.148 475.11C414.874 472.762 412.922 468.359 412.039 465.427C411.06 462.49 406.657 452.807 402.356 443.911C388.859 416.52 387.393 409.967 386.12 373.488C385.634 358.717 384.949 339.255 384.552 330.155C384.162 319.493 384.258 313.822 384.846 313.822C385.442 313.816 387.4 316.165 389.352 319.102ZM446.572 346.289C448.14 349.713 451.366 355.78 453.811 359.786C461.932 373.091 466.034 381.795 467.801 389.225C469.464 396.463 469.465 396.758 467.41 407.029C463.206 428.155 464.575 439.995 475.039 470.317C480.709 486.944 481.887 494.77 482.181 520.498L482.475 537.912L480.325 537.323C473.087 535.563 473.573 536.734 472.888 518.546C472.108 496.831 470.444 487.052 463.89 465.434C458.706 448.417 458.316 446.458 457.433 432.18C456.063 409.096 454.79 398.236 453.03 394.23C450.777 389.046 450.387 391.586 451.564 402.933C452.153 408.316 452.639 417.608 452.639 423.669C452.735 442.254 454.105 452.423 458.898 470.035C463.986 488.915 465.356 498.694 465.356 517.477C465.356 532.049 465.356 531.953 459.974 529.605L457.138 528.433L456.844 513.074C456.454 485.1 453.324 466.707 444.326 439.521C438.848 423.189 437.971 419.272 436.602 406.754C434.061 383.868 434.349 378.486 439.142 358.045C441.491 348.266 443.443 340.241 443.545 340.241C443.737 340.228 445.107 342.967 446.572 346.289ZM509.86 356.266C514.75 357.047 521.207 358.026 524.432 358.32L530.103 359.005L529.514 368.394C529.22 373.673 528.631 383.945 528.343 391.382C527.952 400.085 527.268 405.077 526.583 405.269C525.994 405.468 521.693 405.756 516.996 405.954L508.484 406.248L507.895 400.866C506.135 383.062 504.958 376.803 501.438 366.243C499.384 359.888 497.624 354.506 497.624 354.212C497.624 354.013 498.404 354.013 499.384 354.308C500.273 354.608 505.067 355.485 509.86 356.266ZM493.816 379.645C494.987 385.315 496.068 396.47 496.651 409.672C498.219 442.535 499.684 448.602 511.422 472.467C519.146 488.115 520.618 495.161 519.831 512.28C519.146 525.387 517.482 545.636 516.996 546.122C516.797 546.321 515.428 546.219 513.962 545.924C512.004 545.534 511.422 544.945 511.812 543.87C512.593 541.815 510.538 500.639 509.271 492.319C507.998 484.691 506.334 479.507 500.759 466.887C496.651 457.498 491.761 439.892 491.761 434.51C491.761 430.888 489.317 429.813 488.146 432.75C487.07 435.489 492.549 460.333 496.164 469.235C502.814 485.766 503.601 490.655 504.183 518.437C504.478 532.817 504.382 543.671 503.889 543.671C503.403 543.671 501.444 543.185 499.486 542.692C496.747 541.911 495.768 541.028 495.281 538.974C494.891 537.508 494.206 525.278 493.713 511.877C493.227 498.38 492.344 485.465 491.755 483.021C491.166 480.576 487.845 470.208 484.421 460.032C476.792 437.339 475.717 431.176 477.087 418.754C478.36 406.818 479.237 403.298 483.346 391.951C485.202 386.863 487.256 379.824 487.845 376.304C488.434 372.88 489.214 369.36 489.509 368.579C490.296 366.051 491.761 369.962 493.816 379.645ZM348.86 380.329C350.428 383.267 353.359 390.307 355.215 395.977C357.174 401.647 361.18 411.042 364.021 417.007C369.794 428.744 388.475 457.6 400.801 473.837C411.559 488.019 415.764 495.551 419.872 507.583C421.728 513.356 423.296 518.539 423.296 519.122C423.296 519.807 421.338 520.197 418.113 520.197H412.929L409.601 512.178C407.841 507.775 403.534 499.954 400.014 494.867C396.494 489.683 392.091 482.246 390.331 478.336C388.475 474.426 386.613 471.488 386.126 471.782C384.366 472.858 387.201 481.267 394.44 496.236C400.603 508.856 404.513 519.806 403.342 520.984C402.657 521.669 385.928 525.189 385.441 524.702C385.345 524.606 384.462 519.717 383.586 513.746C381.826 501.324 376.642 480.589 372.924 470.803C371.554 466.989 366.274 456.423 361.282 447.329C347.395 421.896 345.731 416.616 344.163 393.532C343.574 385.411 342.697 377.296 342.108 375.44C341.622 373.584 341.129 371.331 341.129 370.55C341.232 368.496 345.34 373.776 348.86 380.329ZM526.781 417.013C527.268 417.499 524.925 451.348 523.652 460.538L522.481 469.83L519.94 464.941C512.996 451.54 510.059 440.583 508.887 423.957L508.298 415.253L517.393 416.034C522.378 416.424 526.589 416.814 526.781 417.013ZM331.549 468.947C335.267 473.542 343.382 481.075 351.894 487.923C359.721 494.278 366.857 500.249 367.74 501.324C368.815 502.495 369.992 506.802 370.869 512.869C371.752 518.251 372.629 524.018 373.02 525.682C373.506 528.421 373.314 528.811 370.965 529.4C367.836 530.181 368.226 530.571 366.664 525.099C363.727 514.924 355.119 500.646 351.798 500.646C350.23 500.646 350.627 501.721 354.242 508.664C358.646 517.272 362.556 530.475 360.994 532.043C360.508 532.529 358.742 533.214 356.982 533.508C354.146 534.097 353.852 533.899 353.852 531.845C353.852 528.715 350.428 521.573 343.875 510.911C335.561 497.414 332.336 490.47 330.378 481.177C329.302 476.582 327.638 470.221 326.563 467.091C325.488 464.058 324.803 461.517 324.995 461.517C325.187 461.517 328.125 464.839 331.549 468.947Z" fill="#FF5B0D"/>
</svg>
