<svg width="285" height="285" viewBox="0 0 285 285" fill="none" xmlns="http://www.w3.org/2000/svg">
<path d="M240.455 138.156C240.655 137.814 238.814 125.929 236.616 120.893C234.161 115.274 230.378 110.332 228.31 104.538C228.212 104.265 228.07 104.045 227.899 103.874C226.417 97.0221 223.718 90.4224 219.605 84.3234C218.583 80.5369 216.629 77.1902 212.672 74.6903C212.163 74.3687 211.67 74.3728 211.259 74.5641C202.143 66.0752 190.34 60.7294 178.211 57.4723C177.938 57.2809 177.596 57.1751 177.206 57.2036C173.154 56.1572 169.075 55.3388 165.052 54.7159C146.544 51.8456 126.761 52.953 109.013 59.1456C89.9589 65.7943 72.2238 78.2814 60.7586 94.9783C55.6327 102.445 52.3715 110.661 50.8203 119.179C50.7103 119.26 50.6004 119.358 50.4986 119.484C41.8753 129.972 35.2593 141.075 37.067 154.617C36.9733 154.93 36.9571 155.264 37.0426 155.573C37.0914 155.752 37.1851 155.899 37.2828 156.042C37.4131 156.791 37.5515 157.54 37.7347 158.301C40.8697 171.334 53.9553 177.441 64.9033 182.864C64.9237 182.889 64.9359 182.913 64.9563 182.933C66.7395 184.912 68.5269 187.644 71.1693 188.536C72.8304 189.098 74.2513 188.731 75.4687 187.909C83.0131 199.427 88.1186 212.655 100.137 220.391C110.76 227.222 124.481 228.077 136.67 226.604C149.28 225.077 162.015 220.391 172.454 213.143C177.36 209.74 181.501 205.408 185.251 200.795C189.896 195.083 193.406 187.298 200.213 184.077C200.706 184.489 201.215 184.88 201.76 185.23C202.273 185.559 202.994 185.535 203.511 185.23C205.848 183.845 208.262 182.099 209.626 179.693C209.924 179.171 209.911 178.671 209.736 178.243C223.88 172.751 238.912 163.684 240.508 147.015C240.809 143.949 240.769 141.014 240.455 138.156ZM232.019 119.215C234.861 124.431 235.838 130.4 236.974 136.177C236.958 136.181 236.937 136.181 236.921 136.185C236.933 136.25 236.95 136.311 236.966 136.372C236.982 136.45 236.99 136.527 237.003 136.605H234.763C234.686 134.626 234.495 132.676 234.189 130.782C233.371 125.693 231.917 121.153 229.291 116.927C229.287 116.04 229.263 115.152 229.226 114.269C230.154 115.909 231.111 117.546 232.019 119.215ZM225.485 111.345C222.883 107.335 221.205 103.589 220.945 98.0156C220.872 96.444 220.823 94.8724 220.754 93.3253C223.433 99.0904 224.943 105.165 225.485 111.345ZM217.94 102.107C218.612 108.447 222.402 113.064 225.696 118.039C225.448 129.846 221.979 141.763 216.629 152.402C212.448 140.806 198.182 133.71 186.024 133.893C190.316 127.057 192.591 119.321 191.415 111.101C191.175 109.436 190.845 107.868 190.45 106.382C190.576 106.207 190.682 106 190.739 105.743C192.596 97.9464 200.006 93.9482 207.615 93.5533C210.404 93.4067 214.39 93.6958 217.627 94.9742C217.676 97.4008 217.696 99.8233 217.94 102.107ZM102.939 193.454C91.0745 189.952 80.0735 184.281 71.5235 176.081C71.3525 175.764 71.0756 175.499 70.7458 175.328C65.111 169.718 60.5917 162.971 57.7254 154.926C57.7946 154.669 57.8109 154.384 57.7376 154.071C54.5212 139.858 77.1013 128.633 86.5511 139.402C86.5837 139.593 86.6407 139.788 86.7547 139.988C93.2893 151.286 102.54 157.833 115.214 160.809C105.536 167.486 100.866 182.082 102.939 193.454ZM120.515 161.827C130.71 163.374 141.633 162.723 151.319 159.645C152.972 159.12 154.654 158.497 156.348 157.792C167.605 161.383 176.782 181.924 172.32 192.912C160.101 197.102 146.421 198.144 133.8 197.973C124.855 197.855 115.609 196.74 106.725 194.48C103.749 182.974 109.213 166.745 120.515 161.827ZM145.021 157.792C135.453 160.052 124.436 159.364 114.941 157.202C104.506 154.824 96.8356 149.181 91.2007 140.574C91.278 140.212 91.0785 139.874 90.9116 139.398C88.7782 133.392 89.393 126.507 92.0272 119.985C97.8534 114.195 106.383 116.15 113.984 118.059C121.525 119.956 129.077 121.284 136.894 120.726C144.801 120.164 150.668 115.567 155.611 109.749C161.665 102.628 167.796 92.8204 177.861 93.3986C181.228 95.8414 183.993 99.1352 185.837 103.524C196.871 129.748 167.556 152.467 145.021 157.792ZM141.882 109.411C134.435 115.722 122.355 111.105 113.976 109.391C109.07 108.39 103.696 107.6 98.9323 108.797C100.243 107.282 101.66 105.845 103.195 104.518C115.971 93.4922 129.004 88.9078 145.693 87.4624C151.771 86.9372 158.253 86.9046 164.291 87.9958C155.537 92.8571 147.333 104.79 141.882 109.411ZM165.533 94.0541C163.831 95.2796 162.194 96.7127 160.598 98.3128C159.747 99.1637 158.945 100.063 158.163 100.98C157.634 100.483 157.089 99.9984 156.543 99.522C158.599 97.3316 161.27 94.4897 164.189 92.3726C164.609 92.9589 165.056 93.5126 165.533 94.0541ZM155.973 103.667C154.336 105.739 152.728 107.844 150.965 109.798C150.008 110.861 149.003 111.789 147.956 112.612C147.39 111.883 146.796 111.174 146.185 110.482C149.072 107.909 151.649 104.811 154.173 102.05C154.78 102.58 155.395 103.105 155.973 103.667ZM130.523 115.962C133.995 116.174 137.424 115.852 140.493 114.399C141.54 113.906 142.537 113.304 143.498 112.628C144.056 113.243 144.597 113.894 145.09 114.517C141.576 116.455 137.627 117.334 133.234 117.416C132.391 117.432 131.528 117.404 130.649 117.339C130.649 117.306 130.657 117.273 130.657 117.237C130.649 116.805 130.596 116.382 130.523 115.962ZM127.168 116.931C122.893 116.276 118.357 115.075 113.85 114.114C114.005 113.719 114.123 113.32 114.225 112.917C115.764 113.263 117.25 113.621 118.638 113.927C121.215 114.489 124.016 115.144 126.866 115.572C126.875 115.592 126.875 115.6 126.887 115.629C126.964 115.844 127.017 116.068 127.074 116.292C127.119 116.471 127.147 116.65 127.18 116.83C127.147 116.679 127.155 116.789 127.168 116.931ZM110.849 112.217C110.744 112.616 110.589 113.015 110.385 113.438C105.52 112.587 100.781 112.253 96.5505 113.479C100.63 110.991 105.846 111.297 110.849 112.217ZM167.137 90.5689C168.171 90.0641 169.217 89.6976 170.264 89.5266C171.115 89.8198 171.941 90.1455 172.755 90.4997C171.282 90.8865 169.873 91.4728 168.509 92.1975C168.155 91.827 167.821 91.4321 167.499 91.0331C167.393 90.9028 167.292 90.7725 167.19 90.6381C167.328 90.8214 167.222 90.6788 167.137 90.5689ZM177.429 60.7213C193.1 64.9678 207.81 72.9966 216.812 86.3428C217.179 87.9347 217.362 89.6121 217.472 91.3181C214.133 90.3287 210.453 90.0518 207.464 90.0844C199.602 90.1618 192.021 94.4164 188.667 101.33C186.179 95.7885 182.393 91.7619 177.747 88.9485C177.796 88.3744 177.568 87.7841 176.925 87.4054C175.007 86.2776 173.061 85.8339 171.115 85.8909C169.307 85.2801 167.418 84.8119 165.476 84.4374C165.692 84.0872 165.793 83.6516 165.675 83.1426C163.668 74.4176 168.472 63.3758 177.429 60.7213ZM152.618 56.9267C158.933 57.2158 165.508 58.0138 172.014 59.4103C164.185 64.3367 160.313 74.9713 162.304 83.9244C149.927 82.308 135.677 84.6938 123.63 88.2197C123.67 88.0161 123.691 87.8044 123.658 87.5723C122.396 78.2813 118.174 69.5359 113.227 61.6292C125.836 57.7898 139.203 56.3119 152.618 56.9267ZM80.0409 79.2422C89.055 71.8281 99.1318 66.3928 109.815 62.7244C114.803 70.5863 119.053 79.1974 120.315 88.5006C120.352 88.7693 120.434 88.9892 120.548 89.1684C118.748 89.7383 116.997 90.3287 115.336 90.9313C111.953 92.1609 101.945 97.755 94.4171 106.948C90.3498 95.7803 79.8658 89.5185 69.3738 89.7424C72.5169 86.0089 76.0835 82.4953 80.0409 79.2422ZM66.1166 93.8912C66.2632 93.9034 66.4138 93.9034 66.5726 93.879C76.8204 92.1161 88.3548 98.325 91.6567 109.827C91.7137 110.022 91.791 110.185 91.8806 110.34C87.4346 116.883 84.5073 124.92 85.6147 134.239C75.1674 127.875 58.8939 134.622 54.9039 146.05C50.7429 126.967 55.1808 108.89 66.1166 93.8912ZM49.7698 130.795C49.7332 138.111 50.8488 145.492 53.0473 152.679C53.1573 153.037 53.3486 153.306 53.5807 153.501C56.1213 161.856 60.323 169.025 65.7298 175.084C57.2857 171.993 50.1892 166.139 47.1519 157.308C44.4241 149.373 44.8312 138.099 49.7698 130.795ZM43.5976 135.823C42.1196 140.847 41.9812 146.388 42.5797 151.632C42.3395 151.653 42.1033 151.726 41.8998 151.876C41.3257 152.292 40.7272 152.618 40.1002 152.874C39.4121 146.913 40.9511 141.181 43.5976 135.823ZM44.8434 164.909C43.5202 163.126 42.3965 161.151 41.5578 158.916C41.2321 158.053 40.9633 157.198 40.7394 156.343C41.57 156.058 42.3639 155.683 43.1049 155.219C43.1945 155.72 43.2881 156.225 43.3899 156.717C43.9111 159.221 44.8353 161.534 46.0486 163.671C45.7188 164.107 45.2831 164.551 44.8434 164.909ZM48.011 166.668C52.4488 172.502 59.2318 176.647 66.1696 178.903C66.0189 179.07 65.8805 179.245 65.7217 179.408C59.073 176.134 52.115 172.783 47.0786 167.543C47.4125 167.271 47.7178 166.973 48.011 166.668ZM70.9942 184.387C70.0415 183.568 69.2231 182.591 68.4088 181.622C69.0277 180.963 69.6058 180.267 70.1514 179.546C71.6945 180.959 73.3108 182.302 74.9923 183.573C74.9435 183.642 74.8946 183.703 74.8417 183.768C74.4631 183.972 74.1577 184.289 74.0152 184.668C73.1398 185.421 72.24 185.462 70.9942 184.387ZM92.2308 208.453C88.0698 203.107 84.8411 196.858 81.3845 190.93C85.1343 195.71 88.6723 200.66 92.6298 205.257C92.3936 206.324 92.2552 207.386 92.2308 208.453ZM85.0325 189.952C91.5386 193.409 98.6351 196.051 106 197.916C127.147 203.27 152.728 203.519 173.826 196.015C174.132 196.019 174.429 195.929 174.685 195.722C176.261 195.144 177.816 194.529 179.339 193.861C179.477 193.8 179.616 193.735 179.754 193.67C174.775 198.466 169.942 203.425 164.189 207.256C153.921 214.096 139.003 217.036 126.96 217.321C114.721 217.614 105.243 213.603 96.8193 204.679C92.5036 200.107 88.8433 194.964 85.0325 189.952ZM104.502 218.86C101.078 217.182 98.1954 214.955 95.663 212.382C95.9113 212.024 96.0253 211.564 95.9073 211.022C95.7281 210.216 95.6793 209.418 95.6955 208.624C95.9683 208.909 96.2289 209.198 96.5058 209.475C99.0667 212.06 101.786 214.108 104.653 215.725C104.673 216.885 104.767 218.025 105.088 219.124C104.893 219.035 104.693 218.953 104.502 218.86ZM108.223 220.46C108.728 219.91 108.769 219.12 108.447 218.416C108.313 218.123 108.236 217.801 108.183 217.467C111.094 218.709 114.155 219.568 117.368 220.126C117.384 220.195 117.392 220.264 117.421 220.333C117.812 221.302 118.247 222.247 118.695 223.188C115.112 222.65 111.603 221.75 108.223 220.46ZM122.518 223.611C122.514 223.318 122.465 223.025 122.327 222.748C121.981 222.052 121.643 221.351 121.317 220.647C122.498 220.761 123.691 220.851 124.908 220.899C126.801 220.977 128.731 220.952 130.681 220.855C130.738 220.936 130.799 221.018 130.873 221.095C131.654 221.885 132.371 222.74 133.116 223.562C129.594 223.867 126.04 223.896 122.518 223.611ZM143.856 221.807C141.515 222.373 139.125 222.825 136.711 223.163C136.764 222.715 136.634 222.239 136.223 221.824C135.803 221.4 135.412 220.948 135.017 220.5C138.971 220.053 142.953 219.279 146.845 218.233C146.91 218.322 146.979 218.412 147.065 218.493C147.753 219.165 148.535 219.731 149.292 220.325C147.484 220.871 145.668 221.368 143.856 221.807ZM153.119 219.084C153.074 219.031 153.042 218.982 152.989 218.929C152.292 218.253 151.511 217.683 150.749 217.085C153.77 216.12 156.702 214.996 159.479 213.742C159.629 213.848 159.796 213.945 159.975 214.019C160.798 214.357 161.596 214.76 162.394 215.151C159.397 216.669 156.282 217.972 153.119 219.084ZM165.993 213.196C165.781 212.993 165.525 212.822 165.236 212.7C164.596 212.435 163.973 212.134 163.355 211.828C166.498 210.082 169.344 207.96 172.047 205.652C172.89 206.104 173.7 206.617 174.49 207.162C171.86 209.438 169.002 211.437 165.993 213.196ZM177.902 203.926C177.629 204.211 177.348 204.479 177.067 204.756C176.326 204.219 175.569 203.698 174.783 203.221C179.03 199.321 183.036 195.099 187.445 191.349C184.233 195.673 181.322 200.343 177.902 203.926ZM178.859 190.299C178.024 190.689 177.181 191.056 176.326 191.41C178.928 179.298 171.392 161.892 160.549 155.875C169.124 151.612 177.568 145.252 183.504 137.504C195.531 136.303 212.537 143.677 214.215 156.884C213.132 158.773 212 160.618 210.811 162.397C202.884 174.29 191.83 184.244 178.859 190.299ZM202.717 181.651C201.935 181.044 201.231 180.34 200.628 179.558C201.663 178.593 202.676 177.596 203.67 176.574C204.395 177.425 205.009 178.349 205.669 179.253C204.822 180.189 203.784 180.971 202.717 181.651ZM206.78 173.199C210.603 168.846 214.048 164.099 217.028 159.075C217.46 158.847 217.761 158.419 217.769 157.796C223.823 147.231 227.826 135.534 228.957 123.845C229.291 124.614 229.605 125.396 229.857 126.214C232.911 136.039 231.885 147.797 226.82 156.644C222.374 164.425 214.414 169.331 206.78 173.199ZM217.061 171.118C220.603 168.687 223.864 165.878 226.686 162.511C226.759 162.572 226.832 162.629 226.918 162.678C226.95 162.694 226.979 162.715 227.011 162.735C227.028 162.751 227.028 162.751 227.068 162.788C227.219 162.93 227.357 163.089 227.492 163.248C227.524 163.289 227.528 163.297 227.549 163.317C227.598 163.386 227.651 163.46 227.699 163.529C227.72 163.557 227.736 163.59 227.756 163.623C224.65 166.521 220.994 169.009 217.061 171.118ZM230.22 161.094C229.808 160.569 229.332 160.097 228.799 159.771C228.848 159.698 228.905 159.633 228.953 159.559C230.505 157.316 231.706 154.828 232.614 152.206C233.526 152.524 234.474 152.797 235.427 152.951C234.165 155.944 232.386 158.647 230.22 161.094ZM236.579 149.601C236.184 149.564 235.655 149.45 235.122 149.32C234.609 149.193 234.096 149.043 233.591 148.876C234.287 146.014 234.678 143.041 234.771 140.077H237.434C237.695 143.506 237.377 146.673 236.579 149.601Z" fill="#FF5B0D"/>
</svg>
