<svg xmlns="http://www.w3.org/2000/svg" viewBox="0 0 360 640"><g stroke-width="2" fill="none" stroke="#d4d6dd"><path vector-effect="non-scaling-stroke" d="M360 177.82q-16.35-5.02-27.41 7.67-.47.54-1.18.5-3.75-.21-7.38 1.45-.65.3-1.17-.19-7.02-6.71-15.06-1.62c-1.35.86-2.31 2.37-3.22 3.66q-.33.47-.89.63c-2.3.66-4.61 1.35-6.6 2.69-8.3 5.6-11.85 16.15-7.18 25.57q.32.65-.41.61-13.96-.81-16.87 12.95-.13.62-.75.71c-9.48 1.36-14.73 10.6-10.76 19.15q.23.49-.26.71-3.57 1.63-5.89 5.35-.29.47-.84.53l-1.71.18a1.23 1.22-7.2 0 0-1.09 1.4l.09.6q.16 1.04 1.2.91l3.32-.42a1.3 1.28 8.9 0 0 1-.72q2.25-4.6 7.39-6.2a1.13 1.12-27.2 0 0 .57-1.74c-5.67-7.55.28-17.56 9.54-16.87q1.16.09 1.1-1.08c-.49-9.79 10.6-16.55 18.7-10.25a1.36 1.35-41.4 0 0 1.53.09q.59-.36.75-1.13a1.22 1.21 29 0 0-.32-1.11q-6.93-7.19-4.95-15.89 2.5-10.91 14.45-13.39a1.71 1.69-74.2 0 0 .9-.51c.7-.74.9-1.85 1.63-2.64q4.21-4.58 9.96-2.12c1.69.72 2.66 2.26 3.68 3.69a1.24 1.23-36 0 0 1.75.27q4.35-3.24 9.06-2.09a1.12 1.11 25.3 0 0 1.15-.41q10.09-13.35 26.17-8.11M360 283.46q-29.3 43.39-57.56 86.2-1.12 1.69.26 2.4a1.5 1.49 30.4 0 0 1.94-.5L360 288.54M360 433.87l-35.43 23.52q-1.22.82-.72 2.2.22.61 1.12.76a1.28 1.25 32.6 0 0 .9-.19L360 437.34M360 461.06q-14.02-.62-14.18 13.72a.46.46 0 0 1-.5.45q-6.27-.53-11.95 3.34a1.43 1.38 82.6 0 0-.55.74q-.61 1.92 1.22 2.1a1.3 1.29-60 0 0 .89-.24q5.87-4.36 13.14-2.69a1.42 1.42 0 0 0 1.62-1.96c-3.22-7.33 2.5-13.7 10.31-12.1M360 508.31l-10.84 2.67a1.48 1.48 0 0 0-1.09 1.8l.07.27q.25 1.04 1.29.77l10.57-2.69M360 553.36l-16.12-.09a.64.64 0 0 1-.64-.63c-.67-50.73-23.95-97.33-63.85-128.36-37.25-28.97-86.22-40.38-132.89-31.05-34.03 6.8-65.42 24.06-88.86 49.78q-41.85 45.9-43.55 109.64-.02.51-.53.52L0 553.3M0 511.88l7.92 1.94a1.16 1.16 0 0 0 1.28-.54q.16-.29.2-.61.14-1.29-1.12-1.59L0 509.09M0 438.89l10.45 7.03a1 1 0 0 0 1.33-.19l.23-.28q1.03-1.25-.33-2.13L0 435.75M0 292.24q15.82 23.88 31.79 47.82c.6.91 1.47 1.21 2.52.76a1.04 1.03 61.1 0 0 .44-1.53L0 287.48M0 189.77q.38 1.46 1.31-.65.26-.58.67-1.03 4.49-4.95 10.46-5.5 12.85-1.18 18.01 11.6a1.12 1.11-23.5 0 0 1.5.59c8.17-3.84 17.23-1.74 22.7 5.31q5.08 6.54 3.18 15.75a1.3 1.3 0 0 0 .79 1.48c4.08 1.64 7.13 5.01 8.84 9.06q1.98 4.63 6.93 8.72a1.14 1.14 0 0 0 1.85-.68q.17-.97-.78-2.04c-2.15-2.45-4.38-4.68-5.61-7.81-1.6-4.09-4.54-6.85-8.24-9.32q-.55-.37-.48-1.03 1.14-10.7-5.98-18.06c-5.6-5.78-14.31-7.7-21.94-5.19q-.71.24-1.06-.43-4.61-8.76-13.38-10.61-11.08-2.33-18.77 6M180.01 177.51a1.3 1.3 0 0 0-1.3-1.3h-.04a1.3 1.3 0 0 0-1.3 1.3v52.08a1.3 1.3 0 0 0 1.3 1.3h.04a1.3 1.3 0 0 0 1.3-1.3v-52.08M84.868 245.44a2.98 1.28 50.2 0 0-.925-3.11 2.98 1.28 50.2 0 0-2.89-1.47 2.98 1.28 50.2 0 0 .924 3.11 2.98 1.28 50.2 0 0 2.89 1.47M180.03 252.35a1.33 1.33 0 0 0-1.33-1.33h-.04a1.33 1.33 0 0 0-1.33 1.33v125.2a1.33 1.33 0 0 0 1.33 1.33h.04a1.33 1.33 0 0 0 1.33-1.33v-125.2M249.301 259.937a1.19 1.19 0 0 0-1.38-.963l-1.89.337a1.19 1.19 0 0 0-.963 1.38l.09.512a1.19 1.19 0 0 0 1.381.963l1.89-.337a1.19 1.19 0 0 0 .963-1.38l-.09-.512M114.177 294.95a1.4 1.4 0 0 0-1.7-1.013l-.097.025a1.4 1.4 0 0 0-1.014 1.7l3.317 13.107a1.4 1.4 0 0 0 1.7 1.014l.097-.025a1.4 1.4 0 0 0 1.014-1.7l-3.317-13.107M241.72 312.895a1.36 1.36 0 0 0-.99-1.648l-.077-.02a1.36 1.36 0 0 0-1.649.991l-4.345 17.427a1.36 1.36 0 0 0 .99 1.648l.078.02a1.36 1.36 0 0 0 1.649-.991l4.345-17.427M120.125 318.584a1.44 1.44 0 0 0-1.746-1.048l-.038.01a1.44 1.44 0 0 0-1.05 1.745l15.924 63.865a1.44 1.44 0 0 0 1.746 1.048l.038-.01a1.44 1.44 0 0 0 1.05-1.745l-15.924-63.865M232.988 347.986a1.39 1.39 0 0 0-1.012-1.685l-.097-.024a1.39 1.39 0 0 0-1.685 1.013l-8.762 35.144a1.39 1.39 0 0 0 1.012 1.685l.097.024a1.39 1.39 0 0 0 1.685-1.013l8.762-35.144M42.029 350.014a1.48 1.48 0 0 0-2.053-.41l-.033.023a1.48 1.48 0 0 0-.41 2.052l37.618 56.407a1.48 1.48 0 0 0 2.053.41l.033-.023a1.48 1.48 0 0 0 .41-2.052L42.03 350.015M296.585 383.663a1.49 1.49 0 0 0-.417-2.065l-.033-.022a1.49 1.49 0 0 0-2.065.416l-16.215 24.405a1.49 1.49 0 0 0 .417 2.065l.033.022a1.49 1.49 0 0 0 2.065-.416l16.215-24.405M33.542 459.614a1.51 1.51 0 0 0-.418-2.094l-10.5-7.002a1.51 1.51 0 0 0-2.093.418l-.034.05a1.51 1.51 0 0 0 .419 2.094l10.5 7.002a1.51 1.51 0 0 0 2.093-.418l.033-.05M360 556.02l-360 .03"/><path vector-effect="non-scaling-stroke" d="M307.84 457.37c-22.09-29.25-55.22-51.58-91.62-60.02q-53.44-12.4-102.85 9.49-40.16 17.8-65.89 53.59-29.45 40.94-30.53 92.05-.02.8.78.8l19.32.03a.64.63-89.5 0 0 .63-.63q.89-42.24 23.85-76.76c13.31-20.02 32.32-36.58 53.46-47.2a141.895 141.895 0 0 1 140.45 7.47c39.68 25.5 63.4 69.06 64.33 116.62q.01.55.55.55l19.46.01a.52.52 0 0 0 .52-.51q.13-10.66-1.39-20.95-6.14-41.51-31.07-74.54"/><path vector-effect="non-scaling-stroke" d="M61.08 552.93c.7-41.73 22.74-79.58 58.8-100.27 51.84-29.74 118.08-16.14 153.62 32.13q17.64 23.94 21.81 53.69c.67 4.73.81 9.41 1.1 14.25q.04.58.63.58h19.21q.54 0 .56-.54.09-2.5-.04-4.94c-1.71-31.85-14.03-62.35-35.76-85.88q-20.53-22.24-46.51-33.71c-72.19-31.86-154.53 2.88-184.16 75.41q-9.24 22.63-9.84 49.08a.55.55 0 0 0 .55.56h19.66a.37.37 0 0 0 .37-.36"/><path vector-effect="non-scaling-stroke" d="M152.37 465.89c59.13-17.21 117.16 25.42 118.95 87a.41.41 0 0 0 .41.4l21.46.01a.38.38 0 0 0 .38-.39c-.9-36.73-17.93-69.27-47.29-90.93-38.42-28.33-91.02-29.55-130.7-3.14-31.07 20.68-51.49 56.25-51.6 94.13a.31.31 0 0 0 .31.31l21.24.06a.62.62 0 0 0 .62-.6c1.22-40.46 27.28-75.51 66.22-86.85"/><path vector-effect="non-scaling-stroke" d="M198.92 488.06c28.76 8.81 48.53 34.39 49.3 64.68q.02.54.56.55l18.92.02q.59 0 .6-.59.07-3.98-.38-7.78c-4.23-35.48-27.97-64.6-61.69-75.6-57.02-18.59-115.47 23.6-117.23 83.23q-.02.72.7.72l18.79.01q.61 0 .64-.61.96-23.55 15.12-41.48c17.61-22.29 47.75-31.4 74.67-23.15"/><path vector-effect="non-scaling-stroke" d="M209.89 520.1q13.86 12.61 15.25 32.56a.64.64 0 0 0 .64.6l18.98.05q.54 0 .52-.54-1.16-25.72-18.28-43.74c-16.86-17.74-41.21-24.78-64.92-18.77-28.45 7.21-48.93 33.06-49.88 62.39q-.03.62.59.62l18.93.05a.59.59 0 0 0 .6-.56q1.35-21.58 17.6-34.57c17.43-13.92 43.38-13.18 59.97 1.91"/><path vector-effect="non-scaling-stroke" d="M181.13 530.85c11.96 1.24 19.98 10.03 21.57 21.93q.07.5.58.5h18.24a.67.67 0 0 0 .68-.72c-1.55-25.21-23.86-44.47-49.09-41.01-21.07 2.88-36.81 20.14-37.86 41.41a.29.29 0 0 0 .29.3l18.48.05a.8.79 3.7 0 0 .79-.69q2.29-16.01 16.86-20.87 4.32-1.44 9.46-.9"/><path vector-effect="non-scaling-stroke" d="M176.1 533.89c-9.56 1.35-17.34 8.83-18.35 18.79a.56.55-87.2 0 0 .55.61l40.91-.01a.47.47 0 0 0 .47-.52c-1.02-11.63-11.89-20.53-23.58-18.87M343.21 565.8a1.2 1.2 0 0 0-1.2-1.2H15.31a1.2 1.2 0 0 0-1.2 1.2v.1a1.2 1.2 0 0 0 1.2 1.2h326.7a1.2 1.2 0 0 0 1.2-1.2v-.1M180.62 580.76a1.22 1.22 0 0 0-1.22-1.22H33.02a1.22 1.22 0 0 0-1.22 1.22v.04a1.22 1.22 0 0 0 1.22 1.22H179.4a1.22 1.22 0 0 0 1.22-1.22v-.04M237.47 580.74a1.24 1.24 0 0 0-1.24-1.24h-39a1.24 1.24 0 0 0-1.24 1.24v.08a1.24 1.24 0 0 0 1.24 1.24h39a1.24 1.24 0 0 0 1.24-1.24v-.08M323.3 580.73a1.2 1.2 0 0 0-1.2-1.2h-72a1.2 1.2 0 0 0-1.2 1.2v.1a1.2 1.2 0 0 0 1.2 1.2h72a1.2 1.2 0 0 0 1.2-1.2v-.1M112.84 595.65a1.29 1.29 0 0 0-1.29-1.29h-60.9a1.29 1.29 0 0 0-1.29 1.29v.06a1.29 1.29 0 0 0 1.29 1.29h60.9a1.29 1.29 0 0 0 1.29-1.29v-.06M288.27 595.65a1.37 1.37 0 0 0-1.37-1.37H125.86a1.37 1.37 0 0 0-1.37 1.37v.04a1.37 1.37 0 0 0 1.37 1.37H286.9a1.37 1.37 0 0 0 1.37-1.37v-.04M308 595.622a1.14 1.14 0 0 0-1.142-1.138l-6.94.012a1.14 1.14 0 0 0-1.138 1.142v.1a1.14 1.14 0 0 0 1.142 1.138l6.94-.012a1.14 1.14 0 0 0 1.138-1.142v-.1M164.01 610.37a1.46 1.46 0 0 0-1.46-1.46H80.97a1.46 1.46 0 0 0-1.46 1.46v.04a1.46 1.46 0 0 0 1.46 1.46h81.58a1.46 1.46 0 0 0 1.46-1.46v-.04M230.13 610.38a1.43 1.43 0 0 0-1.43-1.43h-51.12a1.43 1.43 0 0 0-1.43 1.43v.04a1.43 1.43 0 0 0 1.43 1.43h51.12a1.43 1.43 0 0 0 1.43-1.43v-.04M258.73 610.343a1.38 1.38 0 0 0-1.377-1.383l-11.68-.02a1.38 1.38 0 0 0-1.383 1.377v.14a1.38 1.38 0 0 0 1.377 1.383l11.68.02a1.38 1.38 0 0 0 1.383-1.377v-.14M154.51 625.18a1.35 1.35 0 0 0-1.35-1.35h-35.94a1.35 1.35 0 0 0-1.35 1.35v.22a1.35 1.35 0 0 0 1.35 1.35h35.94a1.35 1.35 0 0 0 1.35-1.35v-.22M175.74 625.09a1.24 1.24 0 0 0-1.235-1.244l-9.44-.033a1.24 1.24 0 0 0-1.244 1.236l-.002.44a1.24 1.24 0 0 0 1.236 1.245l9.44.032a1.24 1.24 0 0 0 1.244-1.235l.002-.44M247.18 625.1a1.26 1.26 0 0 0-1.26-1.26h-57.3a1.26 1.26 0 0 0-1.26 1.26v.38a1.26 1.26 0 0 0 1.26 1.26h57.3a1.26 1.26 0 0 0 1.26-1.26v-.38M160.87 637.394a1.29 1.29 0 0 0-1.295-1.286l-6.68.024a1.29 1.29 0 0 0-1.286 1.294l.002.38a1.29 1.29 0 0 0 1.294 1.286l6.68-.024a1.29 1.29 0 0 0 1.286-1.294l-.002-.38M191.59 637.45a1.33 1.33 0 0 0-1.33-1.33h-20.54a1.33 1.33 0 0 0-1.33 1.33v.32a1.33 1.33 0 0 0 1.33 1.33h20.54a1.33 1.33 0 0 0 1.33-1.33v-.32"/></g><path fill="#fff" d="M0 0h360v177.82q-16.35-5.02-27.41 7.67-.47.54-1.18.5-3.75-.21-7.38 1.45-.65.3-1.17-.19-7.02-6.71-15.06-1.62c-1.35.86-2.31 2.37-3.22 3.66q-.33.47-.89.63c-2.3.66-4.61 1.35-6.6 2.69-8.3 5.6-11.85 16.15-7.18 25.57q.32.65-.41.61-13.96-.81-16.87 12.95-.13.62-.75.71c-9.48 1.36-14.73 10.6-10.76 19.15q.23.49-.26.71-3.57 1.63-5.89 5.35-.29.47-.84.53l-1.71.18a1.23 1.22-7.2 0 0-1.09 1.4l.09.6q.16 1.04 1.2.91l3.32-.42a1.3 1.28 8.9 0 0 1-.72q2.25-4.6 7.39-6.2a1.13 1.12-27.2 0 0 .57-1.74c-5.67-7.55.28-17.56 9.54-16.87q1.16.09 1.1-1.08c-.49-9.79 10.6-16.55 18.7-10.25a1.36 1.35-41.4 0 0 1.53.09q.59-.36.75-1.13a1.22 1.21 29 0 0-.32-1.11q-6.93-7.19-4.95-15.89 2.5-10.91 14.45-13.39a1.71 1.69-74.2 0 0 .9-.51c.7-.74.9-1.85 1.63-2.64q4.21-4.58 9.96-2.12c1.69.72 2.66 2.26 3.68 3.69a1.24 1.23-36 0 0 1.75.27q4.35-3.24 9.06-2.09a1.12 1.11 25.3 0 0 1.15-.41q10.09-13.35 26.17-8.11v102.81q-29.3 43.39-57.56 86.2-1.12 1.69.26 2.4a1.5 1.49 30.4 0 0 1.94-.5L360 288.54v145.33l-35.43 23.52q-1.22.82-.72 2.2.22.61 1.12.76a1.28 1.25 32.6 0 0 .9-.19L360 437.34v23.72q-14.02-.62-14.18 13.72a.46.46 0 0 1-.5.45q-6.27-.53-11.95 3.34a1.43 1.38 82.6 0 0-.55.74q-.61 1.92 1.22 2.1a1.3 1.29-60 0 0 .89-.24q5.87-4.36 13.14-2.69a1.42 1.42 0 0 0 1.62-1.96c-3.22-7.33 2.5-13.7 10.31-12.1v43.89l-10.84 2.67a1.48 1.48 0 0 0-1.09 1.8l.07.27q.25 1.04 1.29.77l10.57-2.69v42.23l-16.12-.09a.64.64 0 0 1-.64-.63c-.67-50.73-23.95-97.33-63.85-128.36-37.25-28.97-86.22-40.38-132.89-31.05-34.03 6.8-65.42 24.06-88.86 49.78q-41.85 45.9-43.55 109.64-.02.51-.53.52L0 553.3v-41.42l7.92 1.94a1.16 1.16 0 0 0 1.28-.54q.16-.29.2-.61.14-1.29-1.12-1.59L0 509.09v-70.2l10.45 7.03a1 1 0 0 0 1.33-.19l.23-.28q1.03-1.25-.33-2.13L0 435.75V292.24q15.82 23.88 31.79 47.82c.6.91 1.47 1.21 2.52.76a1.04 1.03 61.1 0 0 .44-1.53L0 287.48v-97.71q.38 1.46 1.31-.65.26-.58.67-1.03 4.49-4.95 10.46-5.5 12.85-1.18 18.01 11.6a1.12 1.11-23.5 0 0 1.5.59c8.17-3.84 17.23-1.74 22.7 5.31q5.08 6.54 3.18 15.75a1.3 1.3 0 0 0 .79 1.48c4.08 1.64 7.13 5.01 8.84 9.06q1.98 4.63 6.93 8.72a1.14 1.14 0 0 0 1.85-.68q.17-.97-.78-2.04c-2.15-2.45-4.38-4.68-5.61-7.81-1.6-4.09-4.54-6.85-8.24-9.32q-.55-.37-.48-1.03 1.14-10.7-5.98-18.06c-5.6-5.78-14.31-7.7-21.94-5.19q-.71.24-1.06-.43-4.61-8.76-13.38-10.61-11.08-2.33-18.77 6V0zm180.01 177.51a1.3 1.3 0 0 0-1.3-1.3h-.04a1.3 1.3 0 0 0-1.3 1.3v52.08a1.3 1.3 0 0 0 1.3 1.3h.04a1.3 1.3 0 0 0 1.3-1.3v-52.08zm-95.142 67.93a2.98 1.28 50.2 0 0-.925-3.11 2.98 1.28 50.2 0 0-2.89-1.47 2.98 1.28 50.2 0 0 .924 3.11 2.98 1.28 50.2 0 0 2.89 1.47zm95.162 6.91a1.33 1.33 0 0 0-1.33-1.33h-.04a1.33 1.33 0 0 0-1.33 1.33v125.2a1.33 1.33 0 0 0 1.33 1.33h.04a1.33 1.33 0 0 0 1.33-1.33v-125.2zm69.271 7.587a1.19 1.19 0 0 0-1.38-.963l-1.89.337a1.19 1.19 0 0 0-.963 1.38l.09.512a1.19 1.19 0 0 0 1.381.963l1.89-.337a1.19 1.19 0 0 0 .963-1.38l-.09-.512zm-135.124 35.014a1.4 1.4 0 0 0-1.7-1.014l-.097.025a1.4 1.4 0 0 0-1.014 1.7l3.317 13.107a1.4 1.4 0 0 0 1.7 1.014l.097-.025a1.4 1.4 0 0 0 1.014-1.7l-3.317-13.107zm127.544 17.944a1.36 1.36 0 0 0-.99-1.648l-.078-.02a1.36 1.36 0 0 0-1.649.991l-4.345 17.427a1.36 1.36 0 0 0 .99 1.648l.078.02a1.36 1.36 0 0 0 1.649-.991l4.345-17.427zm-121.596 5.69a1.44 1.44 0 0 0-1.746-1.05l-.038.01a1.44 1.44 0 0 0-1.05 1.746l15.924 63.865a1.44 1.44 0 0 0 1.746 1.048l.038-.01a1.44 1.44 0 0 0 1.05-1.745l-15.924-63.865zm112.863 29.401a1.39 1.39 0 0 0-1.012-1.685l-.097-.024a1.39 1.39 0 0 0-1.685 1.013l-8.762 35.144a1.39 1.39 0 0 0 1.012 1.685l.097.024a1.39 1.39 0 0 0 1.685-1.013l8.762-35.144zm-190.96 2.029a1.48 1.48 0 0 0-2.052-.41l-.033.022a1.48 1.48 0 0 0-.41 2.052l37.618 56.407a1.48 1.48 0 0 0 2.053.41l.033-.023a1.48 1.48 0 0 0 .41-2.052L42.03 350.015zm254.557 33.648a1.49 1.49 0 0 0-.417-2.065l-.033-.022a1.49 1.49 0 0 0-2.065.416l-16.215 24.405a1.49 1.49 0 0 0 .417 2.065l.033.022a1.49 1.49 0 0 0 2.065-.416l16.215-24.405zm-263.042 75.95a1.51 1.51 0 0 0-.419-2.093l-10.5-7.002a1.51 1.51 0 0 0-2.093.418l-.034.05a1.51 1.51 0 0 0 .419 2.094l10.5 7.002a1.51 1.51 0 0 0 2.093-.418l.033-.05z"/><rect fill="#a8adbb" x="177.37" y="176.21" width="2.64" height="54.68" rx="1.3"/><path fill="#a8adbb" d="M360 177.82v2.83q-16.08-5.24-26.17 8.11a1.12 1.11 25.3 0 1-1.15.41q-4.71-1.15-9.06 2.09a1.24 1.23-36 0 1-1.75-.27c-1.02-1.43-1.99-2.97-3.68-3.69q-5.75-2.46-9.96 2.12c-.73.79-.93 1.9-1.63 2.64a1.71 1.69-74.2 0 1-.9.51q-11.95 2.48-14.45 13.39-1.98 8.7 4.95 15.89a1.22 1.21 29 0 1 .32 1.11q-.16.77-.75 1.13a1.36 1.35-41.4 0 1-1.53-.09c-8.1-6.3-19.19.46-18.7 10.25q.06 1.17-1.1 1.08c-9.26-.69-15.21 9.32-9.54 16.87a1.13 1.12-27.2 0 1-.57 1.74q-5.14 1.6-7.39 6.2a1.3 1.28 8.9 0 1-1 .72l-3.32.42q-1.04.13-1.2-.91l-.09-.6a1.23 1.22-7.2 0 1 1.09-1.4l1.71-.18q.55-.06.84-.53 2.32-3.72 5.89-5.35.49-.22.26-.71c-3.97-8.55 1.28-17.79 10.76-19.15q.62-.09.75-.71 2.91-13.76 16.87-12.95.73.04.41-.61c-4.67-9.42-1.12-19.97 7.18-25.57 1.99-1.34 4.3-2.03 6.6-2.69q.56-.16.89-.63c.91-1.29 1.87-2.8 3.22-3.66q8.04-5.09 15.06 1.62.52.49 1.17.19 3.63-1.66 7.38-1.45.71.04 1.18-.5 11.06-12.69 27.41-7.67zM0 189.77v-3.84q7.69-8.33 18.77-6 8.77 1.85 13.38 10.61.35.67 1.06.43c7.63-2.51 16.34-.59 21.94 5.19q7.12 7.36 5.98 18.06-.07.66.48 1.03c3.7 2.47 6.64 5.23 8.24 9.32 1.23 3.13 3.46 5.36 5.61 7.81q.95 1.07.78 2.04a1.14 1.14 0 0 1-1.85.68q-4.95-4.09-6.93-8.72c-1.71-4.05-4.76-7.42-8.84-9.06a1.3 1.3 0 0 1-.79-1.48q1.9-9.21-3.18-15.75c-5.47-7.05-14.53-9.15-22.7-5.31a1.12 1.11-23.5 0 1-1.5-.59q-5.16-12.78-18.01-11.6-5.97.55-10.46 5.5-.41.45-.67 1.03-.93 2.11-1.31.65z"/><ellipse fill="#a8adbb" transform="rotate(50.2 -218.055 210.125)" rx="2.98" ry="1.28"/><rect fill="#a8adbb" x="177.33" y="251.02" width="2.7" height="127.86" rx="1.33"/><rect fill="#a8adbb" x="-2.15" y="-1.45" transform="rotate(-10.1 1597.96 -1268.58)" width="4.3" height="2.9" rx="1.19"/><path fill="#a8adbb" d="M360 283.46v5.08l-55.36 83.02a1.5 1.49 30.4 0 1-1.94.5q-1.38-.71-.26-2.4 28.26-42.81 57.56-86.2zM0 292.24v-4.76l34.75 51.81a1.04 1.03 61.1 0 1-.44 1.53c-1.05.45-1.92.15-2.52-.76Q15.82 316.12 0 292.24z"/><rect fill="#a8adbb" x="-1.45" y="-8.16" transform="rotate(-14.2 1268.953 -308.42)" width="2.9" height="16.32" rx="1.4"/><rect fill="#a8adbb" x="-1.4" y="-10.34" transform="rotate(14 -1189.172 1130.586)" width="2.8" height="20.68" rx="1.36"/><rect fill="#a8adbb" x="-1.46" y="-34.35" transform="rotate(-14 1492.138 -340.387)" width="2.92" height="68.7" rx="1.44"/><rect fill="#a8adbb" x="-1.44" y="-19.5" transform="rotate(14 -1373.593 1107.843)" width="2.88" height="39" rx="1.39"/><rect fill="#a8adbb" x="-1.5" y="-35.38" transform="rotate(-33.7 655.558 91.15)" width="3" height="70.76" rx="1.48"/><rect fill="#a8adbb" x="-1.51" y="-16.14" transform="rotate(33.6 -510.591 673.174)" width="3.02" height="32.28" rx="1.49"/><path fill="#a8adbb" d="M360 553.36v2.66l-360 .03v-2.75l13.56-.13q.51-.01.53-.52 1.7-63.74 43.55-109.64c23.44-25.72 54.83-42.98 88.86-49.78 46.67-9.33 95.64 2.08 132.89 31.05 39.9 31.03 63.18 77.63 63.85 128.36a.64.64 0 0 0 .64.63l16.12.09zm-52.16-95.99c-22.09-29.25-55.22-51.58-91.62-60.02q-53.44-12.4-102.85 9.49-40.16 17.8-65.89 53.59-29.45 40.94-30.53 92.05-.02.8.78.8l19.32.03a.64.63-89.5 0 0 .63-.63q.89-42.24 23.85-76.76c13.31-20.02 32.32-36.58 53.46-47.2a141.895 141.895 0 0 1 140.45 7.47c39.68 25.5 63.4 69.06 64.33 116.62q.01.55.55.55l19.46.01a.52.52 0 0 0 .52-.51q.13-10.66-1.39-20.95-6.14-41.51-31.07-74.54zM61.08 552.93c.7-41.73 22.74-79.58 58.8-100.27 51.84-29.74 118.08-16.14 153.62 32.13q17.64 23.94 21.81 53.69c.67 4.73.81 9.41 1.1 14.25q.04.58.63.58h19.21q.54 0 .56-.54.09-2.5-.04-4.94c-1.71-31.85-14.03-62.35-35.76-85.88q-20.53-22.24-46.51-33.71c-72.19-31.86-154.53 2.88-184.16 75.41q-9.24 22.63-9.84 49.08a.55.55 0 0 0 .55.56h19.66a.37.37 0 0 0 .37-.36zm91.29-87.04c59.13-17.21 117.16 25.42 118.95 87a.41.41 0 0 0 .41.4l21.46.01a.38.38 0 0 0 .38-.39c-.9-36.73-17.93-69.27-47.29-90.93-38.42-28.33-91.02-29.55-130.7-3.14-31.07 20.68-51.49 56.25-51.6 94.13a.31.31 0 0 0 .31.31l21.24.06a.62.62 0 0 0 .62-.6c1.22-40.46 27.28-75.51 66.22-86.85zm46.55 22.17c28.76 8.81 48.53 34.39 49.3 64.68q.02.54.56.55l18.92.02q.59 0 .6-.59.07-3.98-.38-7.78c-4.23-35.48-27.97-64.6-61.69-75.6-57.02-18.59-115.47 23.6-117.23 83.23q-.02.72.7.72l18.79.01q.61 0 .64-.61.96-23.55 15.12-41.48c17.61-22.29 47.75-31.4 74.67-23.15zm10.97 32.04q13.86 12.61 15.25 32.56a.64.64 0 0 0 .64.6l18.98.05q.54 0 .52-.54-1.16-25.72-18.28-43.74c-16.86-17.74-41.21-24.78-64.92-18.77-28.45 7.21-48.93 33.06-49.88 62.39q-.03.62.59.62l18.93.05a.59.59 0 0 0 .6-.56q1.35-21.58 17.6-34.57c17.43-13.92 43.38-13.18 59.97 1.91zm-28.76 10.75c11.96 1.24 19.98 10.03 21.57 21.93q.07.5.58.5h18.24a.67.67 0 0 0 .68-.72c-1.55-25.21-23.86-44.47-49.09-41.01-21.07 2.88-36.81 20.14-37.86 41.41a.29.29 0 0 0 .29.3l18.48.05a.8.79 3.7 0 0 .79-.69q2.29-16.01 16.86-20.87 4.32-1.44 9.46-.9zm-5.03 3.04c-9.56 1.35-17.34 8.83-18.35 18.79a.56.55-87.2 0 0 .55.61l40.91-.01a.47.47 0 0 0 .47-.52c-1.02-11.63-11.89-20.53-23.58-18.87z"/><path fill="#fff" d="M216.22 397.35c36.4 8.44 69.53 30.77 91.62 60.02q24.93 33.03 31.07 74.54 1.52 10.29 1.39 20.95a.52.52 0 0 1-.52.51l-19.46-.01q-.54 0-.55-.55c-.93-47.56-24.65-91.12-64.33-116.62a141.895 141.895 0 0 0-140.45-7.47c-21.14 10.62-40.15 27.18-53.46 47.2q-22.96 34.52-23.85 76.76a.64.63-89.5 0 1-.63.63l-19.32-.03q-.8 0-.78-.8 1.08-51.11 30.53-92.05 25.73-35.79 65.89-53.59 49.41-21.89 102.85-9.49z"/><path fill="#fff" d="M119.88 452.66c-36.06 20.69-58.1 58.54-58.8 100.27a.37.37 0 0 1-.37.36H41.05a.55.55 0 0 1-.55-.56q.6-26.45 9.84-49.08c29.63-72.53 111.97-107.27 184.16-75.41q25.98 11.47 46.51 33.71c21.73 23.53 34.05 54.03 35.76 85.88q.13 2.44.04 4.94-.02.54-.56.54h-19.21q-.59 0-.63-.58c-.29-4.84-.43-9.52-1.1-14.25q-4.17-29.75-21.81-53.69c-35.54-48.27-101.78-61.87-153.62-32.13z"/><path fill="#a8adbb" d="M360 433.87v3.47l-34.13 22.82a1.28 1.25 32.6 0 1-.9.19q-.9-.15-1.12-.76-.5-1.38.72-2.2L360 433.87zM0 438.89v-3.14l11.68 7.57q1.36.88.33 2.13l-.23.28a1 1 0 0 1-1.33.19L0 438.89z"/><path fill="#fff" d="M271.32 552.89c-1.79-61.58-59.82-104.21-118.95-87-38.94 11.34-65 46.39-66.22 86.85a.62.62 0 0 1-.62.6l-21.24-.06a.31.31 0 0 1-.31-.31c.11-37.88 20.53-73.45 51.6-94.13 39.68-26.41 92.28-25.19 130.7 3.14 29.36 21.66 46.39 54.2 47.29 90.93a.38.38 0 0 1-.38.39l-21.46-.01a.41.41 0 0 1-.41-.4z"/><rect fill="#a8adbb" x="-7.82" y="-1.54" transform="rotate(33.7 -738.132 272.257)" width="15.64" height="3.08" rx="1.51"/><path fill="#a8adbb" d="M360 461.06v3.36c-7.81-1.6-13.53 4.77-10.31 12.1a1.42 1.42 0 0 1-1.62 1.96q-7.27-1.67-13.14 2.69a1.3 1.29-60 0 1-.89.24q-1.83-.18-1.22-2.1a1.43 1.38 82.6 0 1 .55-.74q5.68-3.87 11.95-3.34a.46.46 0 0 0 .5-.45q.16-14.34 14.18-13.72z"/><path fill="#fff" d="M198.92 488.06c-26.92-8.25-57.06.86-74.67 23.15q-14.16 17.93-15.12 41.48-.03.61-.64.61l-18.79-.01q-.72 0-.7-.72c1.76-59.63 60.21-101.82 117.23-83.23 33.72 11 57.46 40.12 61.69 75.6q.45 3.8.38 7.78-.01.59-.6.59l-18.92-.02q-.54-.01-.56-.55c-.77-30.29-20.54-55.87-49.3-64.68z"/><path fill="#fff" d="M209.89 520.1c-16.59-15.09-42.54-15.83-59.97-1.91q-16.25 12.99-17.6 34.57a.59.59 0 0 1-.6.56l-18.93-.05q-.62 0-.59-.62c.95-29.33 21.43-55.18 49.88-62.39 23.71-6.01 48.06 1.03 64.92 18.77q17.12 18.02 18.28 43.74.02.54-.52.54l-18.98-.05a.64.64 0 0 1-.64-.6q-1.39-19.95-15.25-32.56z"/><path fill="#a8adbb" d="M360 508.31v2.82l-10.57 2.69q-1.04.27-1.29-.77l-.07-.27a1.48 1.48 0 0 1 1.09-1.8l10.84-2.67zM0 511.88v-2.79l8.28 1.99q1.26.3 1.12 1.59-.04.32-.2.61a1.16 1.16 0 0 1-1.28.54L0 511.88z"/><path fill="#fff" d="M202.7 552.78c-1.59-11.9-9.61-20.69-21.57-21.93q-5.14-.54-9.46.9-14.57 4.86-16.86 20.87a.8.79 3.7 0 1-.79.69l-18.48-.05a.29.29 0 0 1-.29-.3c1.05-21.27 16.79-38.53 37.86-41.41 25.23-3.46 47.54 15.8 49.09 41.01a.67.67 0 0 1-.68.72h-18.24q-.51 0-.58-.5z"/><path fill="#fff" d="M157.75 552.68c1.01-9.96 8.79-17.44 18.35-18.79 11.69-1.66 22.56 7.24 23.58 18.87a.47.47 0 0 1-.47.52l-40.91.01a.56.55-87.2 0 1-.55-.61zM0 556.05l360-.03V640H0v-83.95zm343.21 9.75a1.2 1.2 0 0 0-1.2-1.2H15.31a1.2 1.2 0 0 0-1.2 1.2v.1a1.2 1.2 0 0 0 1.2 1.2h326.7a1.2 1.2 0 0 0 1.2-1.2v-.1zm-162.59 14.96a1.22 1.22 0 0 0-1.22-1.22H33.02a1.22 1.22 0 0 0-1.22 1.22v.04a1.22 1.22 0 0 0 1.22 1.22H179.4a1.22 1.22 0 0 0 1.22-1.22v-.04zm56.85-.02a1.24 1.24 0 0 0-1.24-1.24h-39a1.24 1.24 0 0 0-1.24 1.24v.08a1.24 1.24 0 0 0 1.24 1.24h39a1.24 1.24 0 0 0 1.24-1.24v-.08zm85.83-.01a1.2 1.2 0 0 0-1.2-1.2h-72a1.2 1.2 0 0 0-1.2 1.2v.1a1.2 1.2 0 0 0 1.2 1.2h72a1.2 1.2 0 0 0 1.2-1.2v-.1zm-210.46 14.92a1.29 1.29 0 0 0-1.29-1.29h-60.9a1.29 1.29 0 0 0-1.29 1.29v.06a1.29 1.29 0 0 0 1.29 1.29h60.9a1.29 1.29 0 0 0 1.29-1.29v-.06zm175.43 0a1.37 1.37 0 0 0-1.37-1.37H125.86a1.37 1.37 0 0 0-1.37 1.37v.04a1.37 1.37 0 0 0 1.37 1.37H286.9a1.37 1.37 0 0 0 1.37-1.37v-.04zm19.73-.028a1.14 1.14 0 0 0-1.142-1.138l-6.94.012a1.14 1.14 0 0 0-1.138 1.142v.1a1.14 1.14 0 0 0 1.142 1.138l6.94-.012a1.14 1.14 0 0 0 1.138-1.142v-.1zM164.01 610.37a1.46 1.46 0 0 0-1.46-1.46H80.97a1.46 1.46 0 0 0-1.46 1.46v.04a1.46 1.46 0 0 0 1.46 1.46h81.58a1.46 1.46 0 0 0 1.46-1.46v-.04zm66.12.01a1.43 1.43 0 0 0-1.43-1.43h-51.12a1.43 1.43 0 0 0-1.43 1.43v.04a1.43 1.43 0 0 0 1.43 1.43h51.12a1.43 1.43 0 0 0 1.43-1.43v-.04zm28.6-.037a1.38 1.38 0 0 0-1.377-1.383l-11.68-.02a1.38 1.38 0 0 0-1.383 1.377v.14a1.38 1.38 0 0 0 1.377 1.383l11.68.02a1.38 1.38 0 0 0 1.383-1.377v-.14zM154.51 625.18a1.35 1.35 0 0 0-1.35-1.35h-35.94a1.35 1.35 0 0 0-1.35 1.35v.22a1.35 1.35 0 0 0 1.35 1.35h35.94a1.35 1.35 0 0 0 1.35-1.35v-.22zm21.23-.09a1.24 1.24 0 0 0-1.235-1.244l-9.44-.033a1.24 1.24 0 0 0-1.244 1.236l-.002.44a1.24 1.24 0 0 0 1.236 1.245l9.44.032a1.24 1.24 0 0 0 1.244-1.235l.002-.44zm71.44.01a1.26 1.26 0 0 0-1.26-1.26h-57.3a1.26 1.26 0 0 0-1.26 1.26v.38a1.26 1.26 0 0 0 1.26 1.26h57.3a1.26 1.26 0 0 0 1.26-1.26v-.38zm-86.31 12.294a1.29 1.29 0 0 0-1.295-1.286l-6.68.024a1.29 1.29 0 0 0-1.286 1.294l.002.38a1.29 1.29 0 0 0 1.294 1.286l6.68-.024a1.29 1.29 0 0 0 1.286-1.294l-.002-.38zm30.72.056a1.33 1.33 0 0 0-1.33-1.33h-20.54a1.33 1.33 0 0 0-1.33 1.33v.32a1.33 1.33 0 0 0 1.33 1.33h20.54a1.33 1.33 0 0 0 1.33-1.33v-.32z"/><rect fill="#a8adbb" x="14.11" y="564.6" width="329.1" height="2.5" rx="1.2"/><rect fill="#a8adbb" x="31.8" y="579.54" width="148.82" height="2.48" rx="1.22"/><rect fill="#a8adbb" x="195.99" y="579.5" width="41.48" height="2.56" rx="1.24"/><rect fill="#a8adbb" x="248.9" y="579.53" width="74.4" height="2.5" rx="1.2"/><rect fill="#a8adbb" x="49.36" y="594.36" width="63.48" height="2.64" rx="1.29"/><rect fill="#a8adbb" x="124.49" y="594.28" width="163.78" height="2.78" rx="1.37"/><rect fill="#a8adbb" x="-4.61" y="-1.19" transform="rotate(-.1 341451.108 -173531.781)" width="9.22" height="2.38" rx="1.14"/><rect fill="#a8adbb" x="79.51" y="608.91" width="84.5" height="2.96" rx="1.46"/><rect fill="#a8adbb" x="176.15" y="608.95" width="53.98" height="2.9" rx="1.43"/><rect fill="#a8adbb" x="-7.22" y="-1.45" transform="rotate(.1 -349607.594 144409.778)" width="14.44" height="2.9" rx="1.38"/><rect fill="#a8adbb" x="115.87" y="623.83" width="38.64" height="2.92" rx="1.35"/><rect fill="#a8adbb" x="-5.96" y="-1.46" transform="rotate(.2 -179047.318 48950.983)" width="11.92" height="2.92" rx="1.24"/><rect fill="#a8adbb" x="187.36" y="623.84" width="59.82" height="2.9" rx="1.26"/><rect fill="#a8adbb" x="-4.63" y="-1.48" transform="rotate(-.2 182736.88 -44440.618)" width="9.26" height="2.96" rx="1.29"/><rect fill="#a8adbb" x="168.39" y="636.12" width="23.2" height="2.98" rx="1.33"/></svg>