<?xml version="1.0" encoding="UTF-8" standalone="no"?>
<svg xmlns="http://www.w3.org/2000/svg" version="1.1" viewBox="0.00 0.00 526.00 534.00">
<g stroke-width="2.00" fill="none" stroke-linecap="butt">
<path stroke="#ffad80" vector-effect="non-scaling-stroke" d="
  M 333.18 100.66
  C 325.29 87.74 314.83 75.39 304.32 64.04
  C 299.56 58.91 290.53 55.54 284.08 54.53
  Q 279.20 53.76 270.45 54.17
  Q 240.40 55.59 211.18 58.29
  C 203.98 58.95 198.13 61.86 191.46 65.38
  C 189.56 66.38 188.24 67.70 186.83 69.31
  Q 180.54 76.50 174.47 84.17
  Q 166.97 93.67 159.06 107.98
  Q 158.73 108.58 159.35 108.86
  Q 161.24 109.73 162.97 110.95
  C 165.30 112.59 168.54 112.87 171.31 112.66
  Q 191.53 111.13 214.94 108.97
  Q 243.06 106.37 272.77 106.10
  Q 295.72 105.89 317.26 106.04
  C 320.06 106.06 322.70 106.66 325.33 105.21
  Q 328.91 103.23 332.92 101.47
  Q 333.51 101.21 333.18 100.66"
/>
<path stroke="#ffad80" vector-effect="non-scaling-stroke" d="
  M 385.24 82.18
  Q 375.00 77.37 365.04 73.55
  Q 339.98 63.95 309.35 62.13
  Q 308.44 62.07 309.05 62.75
  C 320.13 75.01 329.31 86.10 337.45 99.44
  C 338.37 100.95 339.79 101.44 341.27 102.17
  C 344.48 103.76 347.49 106.40 350.28 108.61
  C 352.35 110.26 354.90 110.90 357.47 111.30
  Q 395.02 116.99 433.08 121.25
  Q 436.49 121.63 439.75 121.82
  C 442.68 121.99 445.25 119.82 447.50 118.22
  A 0.79 0.78 -46.0 0 0 447.48 116.92
  Q 417.26 97.23 385.24 82.18"
/>
<path stroke="#ffad80" vector-effect="non-scaling-stroke" d="
  M 111.44 93.66
  Q 103.47 97.57 94.36 103.76
  Q 70.99 119.63 50.11 139.44
  A 0.73 0.72 45.0 0 0 50.12 140.49
  C 52.34 142.53 56.04 141.60 58.57 140.69
  C 72.04 135.81 85.14 129.78 98.48 124.00
  C 108.57 119.63 121.95 118.24 133.91 118.37
  C 141.21 118.44 147.53 112.91 153.39 109.20
  Q 154.07 108.77 154.41 108.04
  Q 157.40 101.62 161.21 95.63
  Q 170.26 81.38 181.15 69.36
  Q 182.33 68.04 180.63 68.52
  Q 168.82 71.84 157.08 75.52
  Q 132.95 83.10 111.44 93.66"
/>
<path stroke="#ffad80" vector-effect="non-scaling-stroke" d="
  M 414.97 379.17
  Q 412.39 377.53 409.51 377.53
  Q 351.97 377.49 296.05 377.53
  C 293.95 377.53 291.59 378.26 290.42 380.07
  A 0.44 0.43 -73.5 0 0 290.78 380.74
  Q 352.67 380.73 415.03 380.74
  Q 415.68 380.74 415.44 379.81
  A 1.08 1.04 -82.5 0 0 414.97 379.17"
/>
<path stroke="#ffad80" vector-effect="non-scaling-stroke" d="
  M 343.13 392.63
  A 2.07 2.07 0.0 0 1 344.81 391.77
  Q 351.27 391.75 358.93 391.74
  C 360.42 391.74 361.39 392.88 362.10 394.06
  A 1.69 1.68 -15.5 0 0 363.54 394.87
  L 422.07 394.91
  Q 423.05 394.91 423.03 393.93
  L 422.94 386.82
  A 1.87 1.87 0.0 0 0 421.07 384.98
  L 285.27 384.98
  Q 283.01 384.98 282.99 387.23
  L 282.95 393.75
  Q 282.94 394.99 284.19 394.99
  Q 312.96 394.85 340.32 394.92
  C 341.60 394.93 342.46 393.56 343.13 392.63"
/>
<path stroke="#ffad80" vector-effect="non-scaling-stroke" d="
  M 329.31 435.64
  C 332.55 435.67 335.64 437.06 337.59 439.67
  C 339.80 442.63 343.85 443.53 347.40 443.52
  Q 353.01 443.51 358.63 443.49
  C 361.72 443.48 365.65 442.61 367.82 440.25
  C 369.34 438.58 370.55 437.13 372.71 436.36
  Q 374.64 435.67 376.86 435.65
  Q 391.30 435.50 407.68 435.52
  C 414.71 435.53 417.63 432.23 417.63 425.26
  Q 417.63 415.15 417.67 404.23
  Q 417.67 403.75 417.20 403.75
  L 288.81 403.75
  A 0.47 0.47 0.0 0 0 288.34 404.22
  Q 288.39 414.51 288.26 425.80
  C 288.21 429.60 289.17 432.38 292.50 434.31
  Q 294.71 435.59 297.91 435.58
  Q 313.05 435.53 329.31 435.64"
/>
<path stroke="#ffad80" vector-effect="non-scaling-stroke" d="
  M 364.38 447.35
  C 362.21 447.78 360.30 448.14 358.07 448.15
  Q 351.58 448.19 346.02 448.05
  Q 343.08 447.98 339.97 446.92
  Q 338.03 446.26 336.08 444.27
  C 334.19 442.34 332.33 439.77 329.18 439.76
  Q 312.71 439.71 296.56 439.77
  C 295.50 439.77 294.35 439.50 293.31 439.27
  Q 292.64 439.12 292.64 439.81
  Q 292.68 449.49 292.62 460.31
  C 292.61 463.47 294.83 466.81 298.29 466.80
  Q 352.34 466.63 407.01 466.81
  C 411.08 466.83 413.42 463.79 413.42 459.65
  Q 413.42 450.07 413.47 440.12
  Q 413.48 439.59 412.94 439.60
  Q 394.17 439.89 380.07 439.70
  C 377.28 439.67 373.97 439.46 372.14 441.97
  Q 369.56 445.48 366.82 446.65
  Q 365.86 447.06 364.38 447.35"
/>
</g>
<path fill="#ff5b00" d="
  M 287.54 459.75
  L 213.76 459.74
  Q 211.53 459.74 211.50 457.51
  L 211.49 456.71
  Q 211.46 454.50 213.68 454.49
  L 268.22 454.49
  A 0.43 0.42 88.7 0 0 268.64 454.04
  L 252.31 189.44
  Q 252.28 188.92 251.77 188.97
  Q 234.97 190.35 218.90 191.88
  C 214.23 192.33 209.48 192.41 204.81 192.42
  Q 198.53 192.43 191.12 190.68
  Q 186.36 189.56 183.08 186.80
  A 0.68 0.67 -38.0 0 0 182.34 186.71
  C 177.04 189.38 171.94 190.61 165.83 189.54
  C 160.60 188.63 155.54 187.99 150.40 187.00
  Q 118.23 180.76 90.32 175.43
  C 87.30 174.86 83.78 174.71 80.27 173.16
  C 77.58 171.97 74.36 169.90 71.43 169.80
  C 68.05 169.68 64.41 170.20 62.51 166.73
  C 61.07 164.08 60.28 161.12 58.50 158.64
  C 55.28 154.16 50.78 150.43 46.34 147.09
  A 2.30 2.28 17.4 0 1 45.43 145.37
  L 45.10 138.94
  Q 45.07 138.32 45.51 137.88
  Q 49.73 133.64 54.91 129.06
  Q 73.64 112.52 91.91 100.18
  C 107.10 89.92 123.63 82.60 141.61 76.25
  Q 166.09 67.62 184.20 63.30
  Q 189.12 62.13 193.96 59.29
  C 201.02 55.14 209.16 54.04 217.40 53.39
  Q 248.63 50.95 272.49 49.89
  Q 282.09 49.46 287.90 50.90
  Q 295.80 52.86 303.27 57.32
  Q 303.99 57.75 304.83 57.77
  Q 345.14 58.75 382.63 76.12
  Q 419.91 93.38 452.98 115.32
  Q 455.19 116.79 453.28 118.62
  C 446.75 124.85 439.81 131.72 435.59 139.76
  C 433.06 144.56 431.33 148.42 425.52 150.45
  C 411.25 155.41 396.73 159.29 381.92 163.33
  C 367.05 167.39 352.41 172.84 338.01 177.98
  Q 329.83 180.89 324.00 182.23
  C 321.46 182.82 319.13 180.73 317.02 179.48
  Q 316.54 179.20 316.15 179.59
  Q 312.97 182.66 309.21 184.50
  Q 306.72 185.73 302.45 185.95
  Q 280.93 187.04 258.19 188.53
  Q 257.59 188.57 257.62 189.17
  L 273.95 453.98
  A 0.54 0.54 0.0 0 0 274.49 454.49
  L 287.98 454.49
  A 0.48 0.48 0.0 0 0 288.46 454.01
  Q 288.31 445.85 288.48 438.45
  C 288.52 436.85 287.53 436.00 286.60 434.91
  Q 284.14 432.03 284.13 428.04
  Q 284.11 416.58 283.98 404.79
  Q 283.96 403.64 282.89 403.21
  C 280.35 402.21 278.90 400.29 278.82 397.46
  Q 278.69 392.57 278.75 387.68
  Q 278.83 381.87 284.22 380.81
  Q 284.95 380.67 285.34 380.04
  C 287.50 376.48 290.10 373.29 294.77 373.30
  Q 352.76 373.30 410.32 373.28
  C 414.64 373.28 418.06 375.10 419.95 379.13
  Q 420.59 380.51 422.03 380.85
  Q 427.15 382.05 427.24 387.39
  Q 427.32 391.99 427.06 396.67
  Q 426.76 402.08 422.70 403.50
  Q 422.10 403.71 422.10 404.35
  Q 422.24 416.77 421.45 429.15
  Q 421.35 430.73 420.98 431.97
  C 420.26 434.33 417.68 435.73 417.65 438.13
  Q 417.56 446.09 417.58 453.59
  A 0.92 0.92 0.0 0 0 418.50 454.51
  L 435.18 454.49
  A 2.44 2.44 0.0 0 1 437.63 456.93
  L 437.63 457.26
  Q 437.62 459.77 435.12 459.76
  L 418.45 459.73
  Q 417.85 459.73 417.78 460.33
  C 417.09 466.05 413.98 471.00 407.60 471.00
  Q 356.48 470.99 298.06 471.02
  C 292.41 471.02 288.48 465.77 288.33 460.52
  Q 288.31 459.75 287.54 459.75
  Z
  M 333.18 100.66
  C 325.29 87.74 314.83 75.39 304.32 64.04
  C 299.56 58.91 290.53 55.54 284.08 54.53
  Q 279.20 53.76 270.45 54.17
  Q 240.40 55.59 211.18 58.29
  C 203.98 58.95 198.13 61.86 191.46 65.38
  C 189.56 66.38 188.24 67.70 186.83 69.31
  Q 180.54 76.50 174.47 84.17
  Q 166.97 93.67 159.06 107.98
  Q 158.73 108.58 159.35 108.86
  Q 161.24 109.73 162.97 110.95
  C 165.30 112.59 168.54 112.87 171.31 112.66
  Q 191.53 111.13 214.94 108.97
  Q 243.06 106.37 272.77 106.10
  Q 295.72 105.89 317.26 106.04
  C 320.06 106.06 322.70 106.66 325.33 105.21
  Q 328.91 103.23 332.92 101.47
  Q 333.51 101.21 333.18 100.66
  Z
  M 385.24 82.18
  Q 375.00 77.37 365.04 73.55
  Q 339.98 63.95 309.35 62.13
  Q 308.44 62.07 309.05 62.75
  C 320.13 75.01 329.31 86.10 337.45 99.44
  C 338.37 100.95 339.79 101.44 341.27 102.17
  C 344.48 103.76 347.49 106.40 350.28 108.61
  C 352.35 110.26 354.90 110.90 357.47 111.30
  Q 395.02 116.99 433.08 121.25
  Q 436.49 121.63 439.75 121.82
  C 442.68 121.99 445.25 119.82 447.50 118.22
  A 0.79 0.78 -46.0 0 0 447.48 116.92
  Q 417.26 97.23 385.24 82.18
  Z
  M 111.44 93.66
  Q 103.47 97.57 94.36 103.76
  Q 70.99 119.63 50.11 139.44
  A 0.73 0.72 45.0 0 0 50.12 140.49
  C 52.34 142.53 56.04 141.60 58.57 140.69
  C 72.04 135.81 85.14 129.78 98.48 124.00
  C 108.57 119.63 121.95 118.24 133.91 118.37
  C 141.21 118.44 147.53 112.91 153.39 109.20
  Q 154.07 108.77 154.41 108.04
  Q 157.40 101.62 161.21 95.63
  Q 170.26 81.38 181.15 69.36
  Q 182.33 68.04 180.63 68.52
  Q 168.82 71.84 157.08 75.52
  Q 132.95 83.10 111.44 93.66
  Z
  M 422.67 146.14
  C 421.90 142.11 421.39 136.25 417.76 133.77
  Q 411.18 129.26 403.16 125.28
  C 399.59 123.50 395.84 121.03 391.96 120.51
  Q 376.63 118.44 357.71 115.67
  Q 352.39 114.89 349.61 113.31
  C 345.61 111.03 342.25 106.97 337.69 105.31
  C 335.02 104.35 328.83 108.17 326.37 109.49
  A 7.50 7.48 -58.8 0 1 322.81 110.37
  L 290.10 110.22
  A 0.36 0.35 -13.0 0 0 289.78 110.73
  Q 304.24 140.66 317.48 173.59
  C 318.16 175.29 319.51 175.99 320.92 176.95
  Q 323.08 178.44 325.46 177.64
  Q 342.02 172.09 358.40 166.22
  Q 368.16 162.72 377.38 160.19
  Q 402.66 153.23 419.71 147.97
  Q 420.98 147.58 422.28 146.94
  Q 422.78 146.69 422.67 146.14
  Z
  M 252.80 111.30
  L 257.28 183.55
  A 0.84 0.84 0.0 0 0 258.18 184.34
  Q 280.83 182.81 303.81 181.48
  C 307.37 181.28 310.80 178.68 313.35 176.38
  A 0.82 0.82 0.0 0 0 313.56 175.47
  Q 302.46 147.18 286.86 114.75
  Q 285.89 112.74 285.00 111.17
  Q 284.76 110.73 284.29 110.56
  Q 283.35 110.23 281.76 110.23
  Q 266.54 110.24 253.14 110.93
  Q 252.78 110.94 252.80 111.30
  Z
  M 205.86 114.51
  L 185.50 182.24
  A 1.48 1.46 -63.0 0 0 186.00 183.81
  C 189.22 186.32 194.09 187.33 198.10 187.78
  Q 206.07 188.66 215.35 187.88
  Q 232.57 186.43 251.45 184.73
  Q 252.02 184.68 251.98 184.11
  L 247.45 111.74
  Q 247.40 111.01 246.68 111.04
  Q 227.37 111.92 206.53 113.96
  A 0.78 0.78 0.0 0 0 205.86 114.51
  Z
  M 105.12 173.88
  Q 136.13 180.07 160.75 184.37
  Q 164.11 184.96 167.08 185.51
  C 171.58 186.34 176.24 185.12 180.24 182.90
  Q 180.69 182.66 180.88 182.19
  Q 181.58 180.55 182.09 178.86
  Q 191.65 146.92 201.21 115.22
  A 0.67 0.67 0.0 0 0 200.50 114.36
  Q 186.13 115.96 171.27 116.86
  C 166.30 117.16 162.69 116.24 158.63 113.38
  C 156.97 112.20 155.05 113.02 153.61 114.06
  C 148.52 117.71 142.07 122.36 135.92 122.58
  Q 131.14 122.75 125.24 122.83
  A 1.73 1.71 -63.2 0 0 124.26 123.16
  Q 97.90 142.47 77.18 165.96
  A 0.58 0.58 0.0 0 0 77.33 166.85
  C 81.59 169.30 85.26 170.53 90.39 171.30
  Q 97.91 172.44 105.12 173.88
  Z
  M 426.48 144.17
  Q 426.60 145.16 427.42 144.58
  Q 428.13 144.06 428.58 143.28
  C 431.88 137.57 434.83 131.57 439.41 126.90
  Q 440.11 126.18 439.11 126.09
  Q 425.82 124.95 411.73 123.11
  Q 410.26 122.92 408.77 122.87
  Q 407.21 122.82 408.63 123.46
  Q 412.68 125.28 416.42 127.68
  C 419.12 129.41 422.47 131.20 423.80 133.97
  Q 425.68 137.93 426.48 144.17
  Z
  M 97.26 129.09
  Q 83.27 135.35 70.84 140.58
  Q 63.60 143.63 56.66 145.58
  Q 55.37 145.94 54.03 146.04
  Q 52.15 146.17 53.64 147.33
  Q 58.94 151.49 62.53 156.87
  C 64.06 159.15 64.98 161.95 66.13 164.43
  A 1.49 1.49 0.0 0 0 66.95 165.18
  C 68.63 165.78 71.37 166.12 72.73 164.54
  Q 92.07 142.14 114.99 124.84
  Q 116.57 123.65 114.61 123.97
  Q 105.36 125.46 97.26 129.09
  Z
  M 414.97 379.17
  Q 412.39 377.53 409.51 377.53
  Q 351.97 377.49 296.05 377.53
  C 293.95 377.53 291.59 378.26 290.42 380.07
  A 0.44 0.43 -73.5 0 0 290.78 380.74
  Q 352.67 380.73 415.03 380.74
  Q 415.68 380.74 415.44 379.81
  A 1.08 1.04 -82.5 0 0 414.97 379.17
  Z
  M 343.13 392.63
  A 2.07 2.07 0.0 0 1 344.81 391.77
  Q 351.27 391.75 358.93 391.74
  C 360.42 391.74 361.39 392.88 362.10 394.06
  A 1.69 1.68 -15.5 0 0 363.54 394.87
  L 422.07 394.91
  Q 423.05 394.91 423.03 393.93
  L 422.94 386.82
  A 1.87 1.87 0.0 0 0 421.07 384.98
  L 285.27 384.98
  Q 283.01 384.98 282.99 387.23
  L 282.95 393.75
  Q 282.94 394.99 284.19 394.99
  Q 312.96 394.85 340.32 394.92
  C 341.60 394.93 342.46 393.56 343.13 392.63
  Z
  M 329.31 435.64
  C 332.55 435.67 335.64 437.06 337.59 439.67
  C 339.80 442.63 343.85 443.53 347.40 443.52
  Q 353.01 443.51 358.63 443.49
  C 361.72 443.48 365.65 442.61 367.82 440.25
  C 369.34 438.58 370.55 437.13 372.71 436.36
  Q 374.64 435.67 376.86 435.65
  Q 391.30 435.50 407.68 435.52
  C 414.71 435.53 417.63 432.23 417.63 425.26
  Q 417.63 415.15 417.67 404.23
  Q 417.67 403.75 417.20 403.75
  L 288.81 403.75
  A 0.47 0.47 0.0 0 0 288.34 404.22
  Q 288.39 414.51 288.26 425.80
  C 288.21 429.60 289.17 432.38 292.50 434.31
  Q 294.71 435.59 297.91 435.58
  Q 313.05 435.53 329.31 435.64
  Z
  M 364.38 447.35
  C 362.21 447.78 360.30 448.14 358.07 448.15
  Q 351.58 448.19 346.02 448.05
  Q 343.08 447.98 339.97 446.92
  Q 338.03 446.26 336.08 444.27
  C 334.19 442.34 332.33 439.77 329.18 439.76
  Q 312.71 439.71 296.56 439.77
  C 295.50 439.77 294.35 439.50 293.31 439.27
  Q 292.64 439.12 292.64 439.81
  Q 292.68 449.49 292.62 460.31
  C 292.61 463.47 294.83 466.81 298.29 466.80
  Q 352.34 466.63 407.01 466.81
  C 411.08 466.83 413.42 463.79 413.42 459.65
  Q 413.42 450.07 413.47 440.12
  Q 413.48 439.59 412.94 439.60
  Q 394.17 439.89 380.07 439.70
  C 377.28 439.67 373.97 439.46 372.14 441.97
  Q 369.56 445.48 366.82 446.65
  Q 365.86 447.06 364.38 447.35
  Z"
/>
<path fill="#ffffff" d="
  M 304.32 64.04
  C 314.83 75.39 325.29 87.74 333.18 100.66
  Q 333.51 101.21 332.92 101.47
  Q 328.91 103.23 325.33 105.21
  C 322.70 106.66 320.06 106.06 317.26 106.04
  Q 295.72 105.89 272.77 106.10
  Q 243.06 106.37 214.94 108.97
  Q 191.53 111.13 171.31 112.66
  C 168.54 112.87 165.30 112.59 162.97 110.95
  Q 161.24 109.73 159.35 108.86
  Q 158.73 108.58 159.06 107.98
  Q 166.97 93.67 174.47 84.17
  Q 180.54 76.50 186.83 69.31
  C 188.24 67.70 189.56 66.38 191.46 65.38
  C 198.13 61.86 203.98 58.95 211.18 58.29
  Q 240.40 55.59 270.45 54.17
  Q 279.20 53.76 284.08 54.53
  C 290.53 55.54 299.56 58.91 304.32 64.04
  Z"
/>
<path fill="#ffffff" d="
  M 385.24 82.18
  Q 417.26 97.23 447.48 116.92
  A 0.79 0.78 -46.0 0 1 447.50 118.22
  C 445.25 119.82 442.68 121.99 439.75 121.82
  Q 436.49 121.63 433.08 121.25
  Q 395.02 116.99 357.47 111.30
  C 354.90 110.90 352.35 110.26 350.28 108.61
  C 347.49 106.40 344.48 103.76 341.27 102.17
  C 339.79 101.44 338.37 100.95 337.45 99.44
  C 329.31 86.10 320.13 75.01 309.05 62.75
  Q 308.44 62.07 309.35 62.13
  Q 339.98 63.95 365.04 73.55
  Q 375.00 77.37 385.24 82.18
  Z"
/>
<path fill="#ffffff" d="
  M 111.44 93.66
  Q 132.95 83.10 157.08 75.52
  Q 168.82 71.84 180.63 68.52
  Q 182.33 68.04 181.15 69.36
  Q 170.26 81.38 161.21 95.63
  Q 157.40 101.62 154.41 108.04
  Q 154.07 108.77 153.39 109.20
  C 147.53 112.91 141.21 118.44 133.91 118.37
  C 121.95 118.24 108.57 119.63 98.48 124.00
  C 85.14 129.78 72.04 135.81 58.57 140.69
  C 56.04 141.60 52.34 142.53 50.12 140.49
  A 0.73 0.72 45.0 0 1 50.11 139.44
  Q 70.99 119.63 94.36 103.76
  Q 103.47 97.57 111.44 93.66
  Z"
/>
<path fill="#ffffff" d="
  M 414.97 379.17
  A 1.08 1.04 -82.5 0 1 415.44 379.81
  Q 415.68 380.74 415.03 380.74
  Q 352.67 380.73 290.78 380.74
  A 0.44 0.43 -73.5 0 1 290.42 380.07
  C 291.59 378.26 293.95 377.53 296.05 377.53
  Q 351.97 377.49 409.51 377.53
  Q 412.39 377.53 414.97 379.17
  Z"
/>
<path fill="#ffffff" d="
  M 343.13 392.63
  C 342.46 393.56 341.60 394.93 340.32 394.92
  Q 312.96 394.85 284.19 394.99
  Q 282.94 394.99 282.95 393.75
  L 282.99 387.23
  Q 283.01 384.98 285.27 384.98
  L 421.07 384.98
  A 1.87 1.87 0.0 0 1 422.94 386.82
  L 423.03 393.93
  Q 423.05 394.91 422.07 394.91
  L 363.54 394.87
  A 1.69 1.68 -15.5 0 1 362.10 394.06
  C 361.39 392.88 360.42 391.74 358.93 391.74
  Q 351.27 391.75 344.81 391.77
  A 2.07 2.07 0.0 0 0 343.13 392.63
  Z"
/>
<path fill="#ffffff" d="
  M 337.59 439.67
  C 335.64 437.06 332.55 435.67 329.31 435.64
  Q 313.05 435.53 297.91 435.58
  Q 294.71 435.59 292.50 434.31
  C 289.17 432.38 288.21 429.60 288.26 425.80
  Q 288.39 414.51 288.34 404.22
  A 0.47 0.47 0.0 0 1 288.81 403.75
  L 417.20 403.75
  Q 417.67 403.75 417.67 404.23
  Q 417.63 415.15 417.63 425.26
  C 417.63 432.23 414.71 435.53 407.68 435.52
  Q 391.30 435.50 376.86 435.65
  Q 374.64 435.67 372.71 436.36
  C 370.55 437.13 369.34 438.58 367.82 440.25
  C 365.65 442.61 361.72 443.48 358.63 443.49
  Q 353.01 443.51 347.40 443.52
  C 343.85 443.53 339.80 442.63 337.59 439.67
  Z"
/>
<path fill="#ffffff" d="
  M 366.82 446.65
  Q 369.56 445.48 372.14 441.97
  C 373.97 439.46 377.28 439.67 380.07 439.70
  Q 394.17 439.89 412.94 439.60
  Q 413.48 439.59 413.47 440.12
  Q 413.42 450.07 413.42 459.65
  C 413.42 463.79 411.08 466.83 407.01 466.81
  Q 352.34 466.63 298.29 466.80
  C 294.83 466.81 292.61 463.47 292.62 460.31
  Q 292.68 449.49 292.64 439.81
  Q 292.64 439.12 293.31 439.27
  C 294.35 439.50 295.50 439.77 296.56 439.77
  Q 312.71 439.71 329.18 439.76
  C 332.33 439.77 334.19 442.34 336.08 444.27
  Q 338.03 446.26 339.97 446.92
  Q 343.08 447.98 346.02 448.05
  Q 351.58 448.19 358.07 448.15
  C 360.30 448.14 362.21 447.78 364.38 447.35
  Q 365.86 447.06 366.82 446.65
  Z"
/>
<rect fill="#ff5b00" x="-7.63" y="-2.62" transform="translate(455.12,457.13) rotate(-0.1)" width="15.26" height="5.24" rx="2.44"/>
</svg>
