<svg width="700" height="700" viewBox="0 0 700 700" fill="none" xmlns="http://www.w3.org/2000/svg">
<path d="M147.98 133.31C148.12 133.61 148.88 134.54 149.07 134.72C161.96 159.03 195.65 150.34 198.26 124.56C199.9 108.37 182.33 93.81 166.79 97.15C149.98 100.77 140.53 117.5 147.98 133.31ZM171.86 101.64C186.5 101.33 196.14 116.9 192.32 130.03C186.74 149.23 156.5 147.44 151.52 129.43C151.33 128.74 150.91 128.11 150.89 127.27C147.3 114.12 157.96 101.94 171.86 101.64Z" fill="#FF5B0D"/>
<path d="M148.359 100.03C150.479 102.37 153.929 98.8999 151.809 96.5799C138.599 82.0499 124.279 68.6199 110.089 55.0699C107.809 52.8999 104.359 56.3399 106.639 58.5199C120.829 72.0699 135.159 85.4899 148.359 100.03Z" fill="#FF5B0D"/>
<path d="M161.77 90.81C162.96 93.68 167.68 92.42 166.48 89.51C162.48 79.82 159.47 69.8 157.12 59.6C156.41 56.53 151.71 57.83 152.41 60.9C154.76 71.1 157.77 81.12 161.77 90.81Z" fill="#FF5B0D"/>
<path d="M182.24 90.9697C182.18 83.1997 183.72 75.5397 183.66 67.7697C183.64 64.6197 178.75 64.6197 178.78 67.7697C178.84 75.5397 177.3 83.1997 177.36 90.9697C177.38 94.1197 182.26 94.1197 182.24 90.9697Z" fill="#FF5B0D"/>
<path d="M194.75 98.8C198.31 94.86 201.56 90.36 204.09 85.69C205.59 82.92 201.37 80.45 199.87 83.23C197.54 87.55 194.59 91.71 191.3 95.35C189.19 97.68 192.64 101.14 194.75 98.8Z" fill="#FF5B0D"/>
<path d="M245.12 95.25C244.55 95.25 244.09 95.41 243.73 95.67C237.48 98.24 230.94 99.6 224.47 101.47C216.75 103.7 209.22 106.33 201.33 107.96C198.25 108.6 199.55 113.3 202.63 112.67C209.51 111.25 216.17 109.16 222.87 107.07C230.37 104.73 238.1 103.3 245.36 100.26C245.48 100.21 245.58 100.15 245.68 100.09C248.26 99.52 248.07 95.25 245.12 95.25Z" fill="#FF5B0D"/>
<path d="M122.66 103.27C119.73 102.11 118.47 106.83 121.36 107.98C126.99 110.21 132.52 112.67 138.07 115.06C140.93 116.29 143.42 112.08 140.53 110.84C134.59 108.29 128.67 105.66 122.66 103.27Z" fill="#FF5B0D"/>
<path d="M136.62 124.84C123.94 127.5 111.18 129.67 98.3599 131.56C95.2499 132.02 96.5799 136.72 99.6599 136.27C112.48 134.39 125.24 132.22 137.92 129.55C141 128.9 139.69 124.2 136.62 124.84Z" fill="#FF5B0D"/>
<path d="M143.569 139.13C136.719 144.11 130.229 149.54 123.739 154.98C121.319 157.01 124.799 160.44 127.189 158.43C133.359 153.26 139.509 148.08 146.029 143.35C148.549 141.52 146.119 137.28 143.569 139.13Z" fill="#FF5B0D"/>
<path d="M154.29 152.01C145.7 166.96 136.44 181.49 130.03 197.57C128.86 200.5 133.59 201.76 134.74 198.87C140.98 183.21 150.14 169.05 158.51 154.48C160.08 151.74 155.86 149.28 154.29 152.01Z" fill="#FF5B0D"/>
<path d="M168.81 157.31C169.75 166.37 169.69 175.49 170.23 184.58C170.42 187.71 175.3 187.73 175.11 184.58C174.56 175.49 174.62 166.38 173.69 157.31C173.37 154.21 168.49 154.18 168.81 157.31Z" fill="#FF5B0D"/>
<path d="M187.81 153.23C186.06 150.63 181.83 153.07 183.59 155.69C191.97 168.15 197.57 182.05 203.94 195.58C205.28 198.43 209.49 195.95 208.16 193.12C201.79 179.6 196.19 165.69 187.81 153.23Z" fill="#FF5B0D"/>
<path d="M218.71 153.33C212.29 150.8 206.52 146.9 200.16 144.21C197.3 143 194.8 147.2 197.7 148.43C204.45 151.28 210.58 155.35 217.41 158.04C220.34 159.2 221.6 154.47 218.71 153.33Z" fill="#FF5B0D"/>
<path d="M242.72 134.61C230.85 132.52 219.02 130.31 207.51 126.67C204.5 125.72 203.22 130.43 206.21 131.38C217.72 135.02 229.55 137.23 241.42 139.32C244.5 139.86 245.82 135.15 242.72 134.61Z" fill="#FF5B0D"/>
<path d="M599.46 370.89C601.27 371.64 602.53 369.29 601.78 367.87C593.74 352.49 576.09 335.43 557.359 342.69C545.34 347.35 539.33 360.06 534.28 372.34C535.52 349.79 542.86 320.73 552.65 300.64C553.35 299.2 552.17 296.89 550.33 297.62C520.58 309.27 511.789 351.23 522.359 378.61C500.669 365.76 470.429 376.95 465.369 404.45C464.989 406.52 467.199 407.82 468.809 406.45C483.479 394.07 501.619 386.05 520.419 389.44C510.399 390.63 499.739 391.6 493.269 400.14C485.809 409.99 483.449 425.96 487.769 437.56C488.589 439.75 491.819 439.15 491.869 437.23C491.999 437.06 492.11 436.87 492.2 436.64C498.13 420.29 508.719 406.9 522.869 397.45C516.389 411.38 511.429 427.44 519.799 441.14C519.849 442.47 521.1 443.73 522.499 443.08C523.21 442.97 523.859 442.53 524.169 441.93C532.059 435.71 535.549 424.18 536.07 412.69C542.139 433.48 547.569 454.37 551.849 475.35C551.699 475.41 551.55 475.48 551.4 475.53C551.05 475.65 550.78 475.84 550.57 476.06C550.3 476.18 550.03 476.3 549.76 476.42C547.33 477.47 549.42 481.01 551.84 479.98C552.13 479.85 552.41 479.72 552.7 479.59C552.82 480.2 552.95 480.8 553.07 481.41C546.8 494.06 538.939 505.54 530.979 517.18C522.439 529.67 515.389 543.2 505.189 554.48C505.089 554.59 504.999 554.71 504.929 554.83C503.029 555.15 501.139 555.46 499.239 555.78C498.859 555.84 498.569 555.98 498.339 556.17C497.999 556.34 497.699 556.59 497.549 556.96C496.389 559.64 495.719 562.22 496.189 565.14C496.189 566.17 496.849 567.18 498.179 567.15C498.199 567.15 498.21 567.15 498.23 567.15C493.33 574.9 485.639 581.91 477.939 587.71C462.91 591.74 443.259 585.46 429.899 579.78C413.439 572.78 399.219 561.72 385.519 550.83C386.339 550.18 387.049 549.6 387.589 549.14C388.329 548.51 388.399 547.73 388.109 547.07C389.299 542.61 384.409 539.89 380.359 540.08C380.219 540.07 380.07 540.08 379.91 540.11C379.66 540.13 379.419 540.17 379.179 540.21C378.449 540.36 378.029 540.78 377.829 541.29C377.809 541.3 377.789 541.32 377.769 541.33C368.079 535.17 361.01 525.86 353.98 516.95C346.42 507.36 338.39 498.01 333.85 486.6C334.51 486.7 335.169 486.78 335.839 486.84C338.479 487.09 338.459 482.97 335.839 482.72C335.079 482.65 334.329 482.54 333.579 482.42C333.779 481.43 333.979 480.45 334.179 479.46C335.289 479.74 336.419 479.95 337.559 480.1C340.189 480.43 340.159 476.31 337.559 475.98C337.459 475.97 337.359 475.95 337.249 475.93C337.069 475.83 336.859 475.75 336.619 475.71C336.069 475.62 335.539 475.5 334.999 475.38C337.309 464.27 339.899 453.23 342.839 442.32C351.199 411.27 363.379 381.54 376.749 352.35C386.059 332.03 397.289 308 415.149 293.06C411.889 300.76 408.81 308.53 406.54 316.61C403.55 327.22 403.259 338.08 403.279 349.02C403.299 369.2 405.049 392.01 417.459 408.79C418.289 409.92 420.27 410.32 421.01 408.79C430.51 389.17 435.429 368.18 435.619 346.39C435.709 335.62 434.329 324.86 432.179 314.33C430.819 307.66 429.379 300.42 427.239 293.61C459.019 304.08 477.999 336.66 472.41 369.99C472.079 371.98 474.95 373.22 476.1 371.5C488.139 353.3 501.029 328.39 492.019 306.38C487.919 296.39 478.999 291.16 468.88 289.03C456.389 286.4 443.02 285.41 430.16 284.96C443.41 276.06 455.629 271.73 471.399 272.18C483.749 272.53 512.56 281.11 527.65 281.12C530.01 281.12 531.339 278.49 529.239 277.36C509.479 266.71 488.239 237.24 463.369 243.36C446.369 247.54 438.799 257.34 428.88 271.05C432.23 255.31 431.34 237.69 421.45 225.02C410.69 211.24 393.279 201.91 375.549 204.75C373.839 205.02 373.489 207.8 375.059 208.51C395.479 217.72 404.049 238.65 411.779 259.14C403.089 248.55 391.02 241.47 375.91 240.99C365.63 240.66 354.21 243.94 344.45 246.94C334.82 249.9 326.23 255.23 321.48 264.34C320.51 266.2 322.44 268.11 324.29 267.16C339.15 259.52 358.489 257.41 374.839 261.55C388.529 265.02 404.01 272.17 414.98 281.95C390.47 278.99 358.59 279.69 341.67 299.27C340.8 300.28 340.889 301.78 342.089 302.5C354.149 309.81 369.129 308.85 382.399 306.01C387.569 304.91 392.85 303.34 397.98 301.29C383.96 316.24 373.29 335.31 362.92 351.93C344.38 381.65 329.589 413.63 317.749 446.56C316.069 451.25 314.469 455.94 312.91 460.65C311.119 460.13 309.209 462.48 310.859 464.06C311.099 464.29 311.339 464.52 311.579 464.75C311.229 465.85 310.86 466.95 310.51 468.05C308.8 466.65 305.829 468.55 307.329 470.5C307.889 471.24 308.479 471.94 309.079 472.64C292.169 527.69 283.8 584.04 282.95 642.06C282.91 644.95 287.02 644.95 287.07 642.06C287.93 585.09 296.19 530.22 312.42 476.12C317 480.4 322.379 483.6 328.369 485.39C328.349 485.5 328.309 485.6 328.309 485.72C328.289 486.54 328.279 487.37 328.269 488.19C324.749 507.35 322.05 526.67 319.82 545.92C316.2 577.24 314.49 602.82 317.66 634.21C318.209 639.64 322.229 638.93 321.709 633.68C318.659 603.31 320.379 578.78 323.649 548.45C325.049 535.49 326.749 522.5 328.779 509.55C330.079 529.22 333.74 549.12 340.7 567C340.71 567.02 340.719 567.03 340.719 567.04C340.569 567.15 340.419 567.26 340.269 567.37C339.419 567.42 338.76 568.05 338.42 568.87C336.33 573.84 340.809 581.26 346.469 578.06C346.649 577.96 346.799 577.83 346.929 577.7C347.539 577.4 348.289 576.99 349.119 576.5C350.569 578.06 352.07 579.56 353.6 580.99C377.88 607.55 412.109 624.35 448.63 620.64C468.419 618.63 487.18 611.16 504.29 601.3C521.439 591.42 539.55 576.49 549.63 559.65C549.64 559.63 549.64 559.62 549.65 559.6C551.28 559.25 552.91 558.87 554.52 558.43C555.53 558.15 555.959 557.36 555.969 556.56C557.579 554.45 558.38 551.38 556.83 549.06C556.71 548.16 556.07 547.41 554.89 547.53C553.62 547.66 552.35 547.81 551.08 547.95C553.57 539.34 555.25 531.78 556.5 522.6C557.15 517.8 557.48 513.37 557.63 509.22C563.06 549.16 563.229 589.39 554.289 629.78C552.919 635.96 557.109 636.23 558.539 629.63C569.089 581.09 566.75 532.73 557.9 484.86C560.42 483.91 562.76 482.56 564.9 480.94C576.19 530.07 578.16 581.51 578.43 632.38C578.46 637.6 582.569 637.37 582.539 632.04C582.249 580.25 580.159 527.88 568.409 477.93C568.899 477.46 569.379 476.99 569.849 476.5C571.579 474.7 569.119 472.02 567.289 473.3C567.069 472.43 566.86 471.57 566.64 470.7C567.27 470.13 567.88 469.55 568.49 468.96C569.009 468.45 569.16 467.87 569.08 467.33C570.49 465.18 566.99 463.2 565.49 465.32C565.43 465.41 565.359 465.48 565.289 465.57C559.439 443.97 551.65 422.88 541.229 402.55C556.289 414.72 575.39 420.66 595.4 418.12C595.82 418.07 596.16 417.91 596.45 417.69C597.63 419.87 601 417.82 599.93 415.48C589.37 392.43 561.749 379.26 537.049 383.62C551.329 363.43 576.92 361.59 599.46 370.89ZM428.2 315.39C430.43 325.56 431.399 335.96 431.489 346.36C431.649 366.14 427.07 385.66 418.89 403.6C409.13 388.23 407.689 368.74 407.399 350.96C407.229 340.51 407.539 330.18 409.91 319.96C412.23 309.98 416.31 300.49 420.39 291.09C420.67 291.51 421.09 291.86 421.7 292C421.96 292.06 422.21 292.14 422.469 292.2C425.079 299.65 426.57 307.95 428.2 315.39ZM458.989 291.83C471.419 293.08 482.35 295.84 488.23 307.98C496.33 324.71 486.93 345.92 477.41 361.71C478.969 328.67 458.139 298.37 425.959 288.91C437.069 289.3 447.899 290.72 458.989 291.83ZM464.439 247.29C484.88 241.53 504.169 266.65 521.969 277.14C505.509 276.79 483.73 265.98 469.32 267.69C451.67 269.78 440.229 272.63 425.619 283.13C436.389 266.23 444.309 252.97 464.439 247.29ZM383.309 208.28C397.559 208.73 411.079 217.58 419.269 228.97C428.809 242.23 427.719 261.37 423.119 276.78C412.499 253.03 406.179 222.78 383.309 208.28ZM375.92 257.54C361.63 253.01 343.7 254.91 329.29 260.42C339.44 249.69 358.089 246.52 371.869 245.2C394.689 243.02 411.36 259.96 418.79 279.84C407.05 268.91 390.91 262.29 375.92 257.54ZM384.869 301.12C372.729 304.46 358.07 305.96 346.42 300.14C363.15 283.27 393.139 283.19 415.66 286.09C415.219 286.47 414.75 286.81 414.29 287.17C412.62 288.29 410.989 289.47 409.399 290.71C401.909 295.53 393.319 298.8 384.869 301.12ZM546.7 303.81C536.82 326.55 530.139 358.43 529.809 383.19C529.689 383.46 529.57 383.73 529.45 384C529.39 383.94 529.33 383.89 529.27 383.83C516.7 359.76 521.25 317.62 546.7 303.81ZM490.23 430.57C488.61 420.48 491.21 408.5 497.749 401.26C503.57 394.81 513.039 394.16 521.679 393.29C507.629 402.36 496.9 415.13 490.23 430.57ZM470.999 399.5C479.299 376.8 507.91 370.1 525.95 386.38C525.97 386.41 525.99 386.45 526.01 386.49C506.34 380.96 487.02 387.65 470.999 399.5ZM522.669 437.85C515.119 423.72 522.53 406.98 529.34 393.55C529.51 393.46 529.679 393.37 529.849 393.27C533.599 406.51 533.239 428.43 522.669 437.85ZM531.749 523.36C538.479 512.97 545.629 503.05 551.799 492.41C546.919 512.99 539.709 533.25 527.729 550.78C527.649 550.89 527.589 551.01 527.539 551.12C522.079 551.97 516.629 552.87 511.179 553.78C518.979 544.32 525.089 533.65 531.749 523.36ZM348.29 516.37C356.13 526.14 363.63 536.62 374.04 543.78C370.29 546.26 366.549 548.76 362.829 551.28C349.889 535.61 340.189 517.66 335.059 498.09C338.899 504.52 343.56 510.47 348.29 516.37ZM320.149 452.03C331.219 419.97 345.5 389.03 362.85 359.88C370.63 346.81 378.899 333.87 387.649 321.43C387.809 321.2 387.979 320.96 388.149 320.73C383.479 328.82 379.389 337.17 375.609 345.08C361.549 374.48 349.219 404.92 340.249 436.26C336.689 448.7 333.669 461.32 331.029 474.04C329.309 473.32 327.669 472.42 326.089 471.42C322.949 469.33 320.159 466.73 318.079 463.93C317.649 463.35 317.059 463.09 316.469 463.06C317.659 459.38 318.879 455.7 320.149 452.03ZM329.529 481.46C323.529 479.68 318.109 476.26 313.749 471.72C314.139 470.44 314.55 469.16 314.95 467.88C319.52 472.04 324.5 475.97 330.2 478.17C329.98 479.27 329.739 480.36 329.529 481.46ZM332.63 504.55C338.16 522.48 347.469 538.96 359.429 553.58C354.269 557.12 349.179 560.75 344.149 564.46C337.049 545.7 333.58 524.95 332.63 504.55ZM344.149 574.45C343.989 574.52 343.85 574.61 343.73 574.7C343.2 574.78 342.909 574.38 342.489 573.57C342.089 572.8 341.979 571.89 342.089 571.05C354.689 561.53 367.799 552.75 380.999 544.09C381.709 544.1 382.499 544.29 383.149 544.62C384.189 545.16 384.34 545.58 383.92 546.65C383.89 546.72 383.889 546.79 383.869 546.86C377.539 552.08 351.499 571.05 344.149 574.45ZM356.219 577.73C355.119 576.52 354.039 575.31 352.989 574.07C361.349 568.72 374.25 559.44 382.1 553.45C396.93 565.25 412.299 577.22 430.329 584.42C441.979 589.07 457.02 593.62 470.689 592.82C470.49 592.96 470.279 593.1 470.079 593.23C457.369 601.68 443.569 605.15 428.369 604.76C401.849 604.07 375.49 595.85 356.219 577.73ZM502.209 597.7C485.779 607.45 467.63 614.15 448.63 616.48C423.859 619.52 399.93 611.89 379.79 598.23C394.82 604.96 411.52 608.21 428.38 608.88C443.639 609.48 457.339 605.76 470.369 597.95C482.499 590.68 496.439 579.33 503.249 566.82C510.499 566.16 517.679 564.63 524.859 563.45C531.229 562.4 537.73 561.7 544.13 560.62C534.04 575.67 517.679 588.51 502.209 597.7ZM553.52 551.76C553.65 552.65 553.18 553.57 552.52 554.27C552.38 554.42 552.27 554.58 552.19 554.74C543.76 556.91 534.93 557.76 526.34 559.07C517.62 560.4 508.919 562.46 500.089 562.93C500.129 561.82 500.439 560.71 500.85 559.67C518.37 556.76 535.86 553.65 553.52 551.76ZM552.62 521.19C551.15 530.19 549.2 539.64 546.63 548.44C542.07 549 537.519 549.63 532.979 550.3C542.849 535.1 549.399 517.97 554.039 500.44C554.129 506.98 553.82 513.84 552.62 521.19ZM563.859 476.47C561.819 478.2 559.6 479.66 557.14 480.69C556.95 479.71 556.75 478.72 556.56 477.74C558.889 476.56 561.08 475.16 563.15 473.57C563.39 474.54 563.62 475.5 563.859 476.47ZM562 469.15C560.1 470.85 557.96 472.28 555.71 473.53C551.06 450.89 545.06 428.37 538.39 406.01C548.67 426.39 556.31 447.52 562 469.15ZM594.599 414.03C571.329 416.71 549.87 407.67 534.65 390.41C534.4 389.98 534.159 389.55 533.909 389.12C533.909 388.96 533.909 388.79 533.909 388.63C533.949 388.56 533.99 388.5 534.02 388.43C556.81 382.56 583.039 393.51 594.599 414.03ZM536.849 377.16C541.009 367.17 545.27 357.11 553.43 349.87C568.18 336.78 586.12 351.42 595.229 364.96C574.099 358 551.269 360.77 536.849 377.16Z" fill="#FF5B0D"/>
</svg>
