<svg width="724" height="465" viewBox="0 0 724 465" fill="none" xmlns="http://www.w3.org/2000/svg">
<path d="M123.767 401.819C120.478 386.731 104.987 378.209 93.3143 369.743C97.3583 358.869 103.245 348.24 101.748 336.385C101.635 335.467 100.874 334.995 100.138 334.963C99.8992 334.888 99.6225 334.869 99.3206 334.945C84.308 338.693 71.132 347.787 59.3269 357.718C51.3835 356.007 43.1571 355.385 35.0754 355.253C25.3081 355.095 14.8364 355.762 5.77983 359.724C4.68549 359.322 3.20121 360.573 3.9119 361.944C8.57856 370.976 17.7861 374.844 25.1949 381.127C13.9999 389.636 1.36472 399.643 0.00623288 413.586C-0.0818173 414.479 0.779825 414.995 1.52825 415.089C9.65403 416.07 16.6792 412.643 23.8049 409.209C30.6854 405.894 41.7609 401.158 47.1509 409.202C47.3961 409.573 47.6288 409.976 47.849 410.397C47.893 410.787 48.0565 411.089 48.2955 411.303C51.937 419.315 52.5659 434.366 62.2137 436.227C69.9558 437.718 74.9181 424.919 77.1382 419.731C79.5911 413.995 81.6036 408.058 83.3709 402.058C90.9558 403.542 119.346 413.309 122.528 403.68C123.295 403.504 123.987 402.812 123.767 401.819ZM119.924 401.731C119.861 401.888 119.811 402.051 119.799 402.24C119.383 408.63 90.7294 400.448 84.2011 399.139C84.7483 397.19 85.264 395.24 85.7735 393.284C84.7735 393.095 83.7546 393.007 82.7231 392.995C79.4904 404.907 68.7797 440.724 59.8364 431.341C54.4716 425.712 54.3835 416.127 50.7986 409.253C50.3458 403.498 47.5219 397.882 42.459 394.875C40.7798 393.882 39.2766 396.504 40.9496 397.492C43.5156 399.014 45.3647 401.378 46.4968 404.07C45.8867 403.624 45.22 403.215 44.4905 402.856C39.0628 400.202 31.9182 402.466 26.7421 404.561C18.893 407.743 11.8679 412.548 3.22008 412.183C4.60372 404.114 10.9811 397.624 16.7232 392.24C22.3396 386.976 28.5974 382.466 34.5911 377.655C36.1068 376.435 33.9433 374.328 32.4402 375.536C30.9307 376.749 29.3207 377.982 27.654 379.253C20.9496 373.466 12.4213 369.787 7.57226 362.215C16.1068 358.567 25.9559 358.215 35.0942 358.272C42.1823 358.309 49.4087 358.85 56.4276 360.19C55.6162 360.894 54.8049 361.599 54.0062 362.309C52.5471 363.605 54.7043 365.718 56.1571 364.435C68.5722 353.454 82.6351 342.624 98.8866 338.202C99.5722 349.095 94.1068 359.039 90.3332 369.158C90.1382 369.422 90.0124 369.75 89.9873 370.089C89.415 371.668 88.8929 373.259 88.4464 374.85C87.9181 376.731 90.8426 377.504 91.3646 375.63C91.6414 374.649 91.9432 373.668 92.2703 372.693C102.824 380.259 116.635 387.982 120.427 400.995C120.182 401.177 120.012 401.441 119.924 401.731Z" fill="#FF5B0D"/>
<path d="M30.8373 389.919C29.0134 388.699 26.8813 387.963 24.7178 388.667C22.5605 389.366 21.3656 391.429 20.5857 393.41C19.8687 395.221 22.7995 395.982 23.5039 394.196C23.9568 393.045 24.636 391.875 25.875 391.473C27.0763 391.083 28.3844 391.906 29.3341 392.542C30.9505 393.623 32.4473 390.995 30.8373 389.919Z" fill="#FF5B0D"/>
<path d="M41.0942 376.826C38.7672 376.606 37.2326 378.487 36.2577 380.354C35.3583 382.084 37.9747 383.594 38.8741 381.864C39.264 381.109 39.8112 379.858 40.8049 379.82C41.9495 379.776 43.2263 381.575 43.8237 382.336C45.0061 383.851 47.6225 382.329 46.4212 380.795C45.0879 379.084 43.4275 377.046 41.0942 376.826Z" fill="#FF5B0D"/>
<path d="M18.459 401.43C15.2766 400.883 12.3269 402.203 11.5911 405.549C11.176 407.449 14.0942 408.235 14.5093 406.335C14.8741 404.694 16.0313 404.065 17.6728 404.348C19.5848 404.681 20.3772 401.763 18.459 401.43Z" fill="#FF5B0D"/>
<path d="M22.3647 361.43C20.2452 360.795 18.1949 362.159 16.7546 363.556C15.3458 364.908 17.5031 367.027 18.9056 365.675C19.6037 365.002 20.5156 364.147 21.5785 364.348C22.7483 364.568 23.5345 365.927 24.0942 366.851C25.1005 368.518 27.7043 366.983 26.6917 365.31C25.6477 363.587 24.3521 362.027 22.3647 361.43Z" fill="#FF5B0D"/>
<path d="M38.2257 363.774C38.9993 363.315 39.0811 362.46 38.754 361.705C38.1628 360.328 37.188 359.183 35.6094 359.089C34.0308 358.995 32.8421 360.573 32.1188 361.749C31.0936 363.416 33.7226 364.913 34.7351 363.259C34.9553 362.9 35.1691 362.586 35.4584 362.29C35.4899 362.252 35.5339 362.227 35.5779 362.202C35.6094 362.227 35.6282 362.246 35.6723 362.29C35.8924 362.529 36.0245 362.957 36.1565 363.253C36.4773 364.001 37.5842 364.152 38.2257 363.774Z" fill="#FF5B0D"/>
<path d="M43.7803 368.184C42.0822 369.146 43.6231 371.744 45.3212 370.782C47.0885 369.782 48.73 369.92 50.0444 371.524C51.2771 373.033 53.3903 370.87 52.1639 369.373C50.0004 366.725 46.623 366.568 43.7803 368.184Z" fill="#FF5B0D"/>
<path d="M72.0693 357.273C68.8806 356.015 65.1888 356.751 64.1888 360.392C63.673 362.273 66.5913 363.053 67.107 361.179C67.6604 359.16 69.7422 359.581 71.2894 360.191C73.1007 360.908 73.8554 357.984 72.0693 357.273Z" fill="#FF5B0D"/>
<path d="M65.1318 368.906C62.1506 369.101 60.4965 371.956 59.7418 374.516C59.1947 376.39 62.1129 377.17 62.6601 375.302C63.0689 373.912 63.6915 372.353 65.2135 371.925C66.7921 371.478 68.2764 373.541 68.9619 374.61C70.0123 376.246 72.616 374.717 71.5594 373.07C70.1255 370.837 67.9997 368.724 65.1318 368.906Z" fill="#FF5B0D"/>
<path d="M65.087 386.964C62.8354 386.807 60.7159 388.524 59.2191 389.977C57.8165 391.335 59.9738 393.455 61.37 392.096C63.0178 390.505 65.3197 388.895 67.0492 391.253C68.1939 392.807 70.8039 391.285 69.6467 389.713C68.4706 388.109 67.1121 387.109 65.087 386.964Z" fill="#FF5B0D"/>
<path d="M63.4718 405.058C62.5347 404.102 61.887 402.856 60.7926 402.064C59.5033 401.127 57.8995 401.297 56.4404 401.693C55.8115 401.863 55.3146 402.492 55.3398 403.158C55.3712 404.095 55.4656 405.586 56.214 406.278C56.7046 406.724 57.4593 406.875 58.0442 406.498C58.7297 406.058 58.8555 405.404 58.8681 404.643C58.8681 404.586 58.8618 404.542 58.8555 404.485C59.0442 404.561 59.2266 404.674 59.409 404.869C60.1071 405.605 60.6291 406.479 61.3398 407.209C62.7108 408.605 64.8303 406.448 63.4718 405.058Z" fill="#FF5B0D"/>
<path d="M65.0185 416.259C63.5594 416.152 62.2763 417.058 61.4147 418.165C60.9116 418.813 60.7921 419.668 61.4273 420.297C61.9619 420.825 63.0562 420.938 63.5656 420.284C64.5468 419.026 65.0688 418.964 65.7292 420.467C66.0562 421.221 67.1568 421.379 67.7983 420.995C68.5719 420.536 68.66 419.68 68.3266 418.926C67.7229 417.548 66.5908 416.372 65.0185 416.259Z" fill="#FF5B0D"/>
<path d="M80.5848 366.491C81.7168 364 83.5784 363.554 85.7545 365.252C87.2703 366.44 89.4149 364.302 87.8803 363.101C86.2828 361.855 84.4778 360.881 82.3898 361.189C80.2766 361.503 78.8175 363.113 77.9684 364.981C77.1634 366.742 79.7797 368.264 80.5848 366.491Z" fill="#FF5B0D"/>
<path d="M85.0374 353.869C85.4084 353.247 86.05 352.064 86.9556 352.209C88.0122 352.379 88.8864 353.555 89.4776 354.347C90.6349 355.888 93.2512 354.366 92.0751 352.807C90.8613 351.19 89.2386 349.278 87.0311 349.196C84.8864 349.115 83.4336 350.649 82.4084 352.366C81.4147 354.039 84.0374 355.542 85.0374 353.869Z" fill="#FF5B0D"/>
<path d="M87.9996 382.24C86.4964 381.052 84.6222 379.888 82.6159 380.354C80.5782 380.819 79.509 382.605 78.943 384.479C78.3707 386.347 81.2952 387.121 81.8612 385.265C82.0813 384.536 82.3895 383.592 83.1883 383.322C84.0814 383.014 85.2386 383.888 85.8801 384.398C87.3895 385.586 89.5279 383.448 87.9996 382.24Z" fill="#FF5B0D"/>
<path d="M104.15 387.674C101.873 384.906 98.6974 386.063 96.4772 388.227C95.081 389.592 97.232 391.711 98.6282 390.353C99.2194 389.78 99.8232 389.252 100.628 389.019C101.245 388.837 101.691 389.416 102.031 389.831C103.27 391.334 105.377 389.164 104.15 387.674Z" fill="#FF5B0D"/>
<path d="M104.899 396.499C103.151 397.348 104.698 399.946 106.44 399.097C107.66 398.506 108.616 398.38 109.648 399.342C111.069 400.675 113.195 398.524 111.773 397.191C109.685 395.254 107.358 395.304 104.899 396.499Z" fill="#FF5B0D"/>
<path d="M723.591 119.536C724.1 117.085 722.848 114.112 719.866 110.699C718.488 105.628 716.456 100.663 714.329 95.6034C710.089 85.5416 703.797 75.9196 697.625 67.0204C686.331 50.7241 673.232 34.9431 654.017 29.8399C653.664 29.7457 653.312 29.7331 652.96 29.8085C649.99 27.3763 647.215 25.3149 644.459 23.5112C638.784 19.7907 631.41 15.5108 624.666 15.5108C624.338 15.5108 624.011 15.5233 623.69 15.5422C615.455 7.94393 606.74 3.35605 597.787 1.89171C595.283 1.4832 592.773 1.27582 590.332 1.27582C584.493 1.27582 578.856 2.41334 573.111 4.75755C572.985 4.62557 572.859 4.51245 572.715 4.4119C568.348 1.43922 562.484 0 554.783 0C551.543 0 548.322 0.251389 545.88 0.471355C533.832 1.54604 523.287 3.86514 513.654 7.56684C513.472 7.63598 513.296 7.71767 513.113 7.79309C512.994 7.84336 512.874 7.89993 512.748 7.9502C510.999 7.51027 509.13 7.29032 507.186 7.29032C501.14 7.29032 495.062 9.38943 489.356 11.5451C479.685 15.1902 463.553 25.0321 455.626 30.7324C446.49 37.2999 438.436 47.4246 431.767 56.4684C426.778 63.2307 422.418 71.7466 418.813 81.7707L418.794 81.821C418.712 82.0032 418.404 82.418 418.133 82.7825C417.8 83.235 417.454 83.7064 417.315 84.0018C412.924 93.3346 411.973 101.945 411.892 112.007C411.829 119.743 414.585 127.844 419.259 133.676C422.569 137.799 426.665 139.892 431.44 139.892C436.316 139.892 441.74 137.636 446.748 133.538C445.873 142.456 448.837 151.217 455.135 158.256C462.351 166.326 472.896 171.146 483.341 171.146C492.388 171.146 500.284 167.582 506.18 160.833C506.639 161.097 507.174 161.216 507.652 161.166C512.1 174.238 522.997 185.758 536.864 192.024L493.514 388.862C491.759 389.346 490.375 389.88 489.16 390.546C488.059 390.496 486.694 391.093 486.531 392.563C484.372 411.518 475.866 447.844 474.671 452.319C474.413 451.935 474.211 451.552 474.073 451.162C473.658 449.968 472.594 449.547 471.745 449.547C470.959 449.547 470.235 449.887 469.845 450.433C469.606 450.773 469.379 451.351 469.669 452.174C472.752 460.979 487.04 464.103 498.334 464.103C500.869 464.103 503.26 463.945 505.255 463.65C506.645 463.443 507.067 462.349 506.998 461.469C506.909 460.275 505.934 458.999 504.305 459.232C502.952 459.433 501.524 459.527 499.938 459.527H499.882C500.026 458.886 500.303 457.642 500.668 456.002C502.241 448.925 505.519 434.2 506.916 429.361C507.69 426.69 508.539 424 509.363 421.404C511.603 414.34 513.918 407.037 514.806 399.433C515.592 398.616 515.624 397.34 514.868 396.378C514.843 396.347 514.818 396.322 514.793 396.297L514.762 396.265C514.623 396.007 514.441 395.8 514.265 395.674C513.094 394.292 511.823 393.123 510.483 392.199L553.575 196.555C554.909 196.674 556.249 196.737 557.558 196.737C571.966 196.737 583.373 189.598 589.734 176.626C594.881 193.916 614.014 204.229 629.718 204.229C629.995 204.229 630.272 204.229 630.542 204.222C639.036 204.04 646.857 200.596 653.167 194.267C658.779 188.636 662.869 180.994 664.7 172.705C667.286 177.255 670.941 180.447 675.559 182.194C677.604 182.967 679.838 183.357 682.21 183.357C687.3 183.357 693.214 181.497 698.864 178.109C716.802 167.381 726.12 139.169 723.591 119.536ZM692.025 66.813C697.688 74.6941 702.822 82.9397 707.282 91.3172C709.434 95.3646 711.29 99.6948 712.794 104.195C710.699 102.548 708.748 101.165 707.421 100.235L707.05 99.9713C705.936 99.1857 704.741 98.3875 703.501 97.5894C698.222 77.0257 683.003 59.7553 669.148 45.1873C666.38 42.2774 663.983 39.8452 661.686 37.6204C674.584 44.1063 684.248 55.9782 692.025 66.813ZM699.701 101.297C699.657 102.246 699.581 103.315 699.525 104.176C699.462 105.049 699.43 105.514 699.443 105.609C697.537 115.363 688.665 119.73 680.725 119.73C674.396 119.73 668.267 117.173 663.926 112.717C656.961 105.584 653.784 94.0008 654.212 77.3148C657.358 78.666 660.503 80.055 663.555 81.4439C673.131 85.7992 682.6 91.0093 691.754 96.0559L694.114 97.3506C695.844 98.2996 697.625 99.3365 699.537 100.512C699.588 100.776 699.644 101.04 699.701 101.297ZM644.787 29.1612L645.743 29.8337C653.777 35.4648 660.692 42.7865 667.374 49.8694L668.928 51.516C679.335 62.5143 691.981 77.2708 697.725 94.1202C693.812 91.8891 689.747 89.7838 685.809 87.7475C682.977 86.2832 680.046 84.7622 677.214 83.2225C670.092 79.3448 662.422 75.6116 654.419 72.1236C654.52 56.0221 645.29 42.1392 635.827 29.2932C633.449 26.0628 630.995 23.065 628.516 20.3751C634.216 21.7201 640.301 26.0062 644.787 29.1612ZM590.313 5.79455C593.144 5.79455 596.019 6.09621 598.876 6.69326C613.303 9.7225 623.741 21.1041 631.228 30.6821C640.489 42.5288 649.134 55.5131 649.82 70.1628C629.774 61.8104 606.954 54.6521 581.982 48.8953C567.946 45.6586 553.871 43.5469 540.155 42.6294C542.684 34.4718 549.152 26.3142 559.924 17.6978C569.802 9.80421 580.026 5.79455 590.313 5.79455ZM547.277 146.767C547.013 146.767 546.755 146.774 546.491 146.78C546.371 146.095 546.503 145.498 546.887 145.02C547.693 144.015 549.668 143.437 552.304 143.437C554.085 143.437 555.941 143.713 556.923 144.115C558.816 144.901 564.391 147.98 564.636 150.457C564.705 151.135 564.366 151.714 563.604 152.223C563.548 152.26 563.497 152.304 563.447 152.348C558.961 148.854 552.934 146.767 547.277 146.767ZM558.281 154.234L557.747 156.678C554.853 155.095 552.355 154.177 549.932 153.8L550.429 151.544C553.248 151.977 555.96 152.908 558.281 154.234ZM469.555 53.8351C469.549 53.8099 469.543 53.7848 469.537 53.7596C469.543 53.7471 469.543 53.7345 469.549 53.7219C475.161 51.9999 481.39 50.5607 488.594 49.3289C499.674 47.4372 511.289 46.4756 523.104 46.4756C526.364 46.4756 529.704 46.5511 533.027 46.6956C519.757 69.239 506.4 82.3112 492.187 86.6539C490.035 87.3075 487.846 87.6469 485.681 87.6469C478.232 87.6469 472.575 83.7944 470.55 77.3462C468.731 71.5517 469.058 65.1224 469.379 58.9006C469.461 57.3357 469.543 55.7142 469.587 54.1619C469.599 54.0362 469.574 53.9293 469.555 53.8351ZM536.613 74.1033C532.718 82.1352 529.402 89.2244 526.477 95.7668C522.513 89.4506 518.524 83.323 514.623 77.5411L514.661 77.5033C514.881 77.296 515.101 77.0886 515.315 76.8812C522.073 70.433 528.471 62.4514 534.354 53.1438C533.838 60.8488 534.599 67.894 536.613 74.1033ZM538.89 79.7219C539.973 81.9404 541.225 84.0395 542.621 85.9626C543.282 91.9771 543.754 98.1173 544.213 104.063C544.874 112.685 545.56 121.584 546.837 130.295C541.13 120.026 535.247 109.977 529.346 100.405C532.152 94.0259 535.273 87.2636 538.89 79.7219ZM511.251 80.6017C523.394 98.6263 535.09 118.065 547.013 140.005C546.088 140.363 545.27 140.809 544.572 141.337C538.419 128.718 530.585 116.632 523.004 104.949C517.996 97.2249 513.258 89.9283 508.986 82.506C509.722 81.9027 510.483 81.2679 511.251 80.6017ZM546.912 90.9087C548.064 92.0211 549.335 93.0958 550.681 94.1077C550.933 97.6585 551.147 101.272 551.354 104.767C552.027 116.054 552.72 127.725 554.746 139.069C554.148 139.006 553.538 138.974 552.927 138.974C552.694 138.974 552.455 138.981 552.223 138.987C549.781 127.172 548.787 114.401 547.825 102.045C547.535 98.375 547.246 94.579 546.912 90.9087ZM573.526 107.236L572.979 106.91C569.877 105.031 566.366 102.9 562.868 102.862C563.025 102.316 563.208 101.725 563.409 101.084C566.719 102.385 570.381 103.516 574.3 104.459C574.03 105.389 573.772 106.325 573.526 107.236ZM575.345 118.939C576.364 114.483 577.415 109.87 578.736 105.414C583.285 106.294 587.96 106.859 592.634 107.098C592.408 111.296 592.181 115.488 591.942 119.686C582.807 127.379 575.546 133.337 570.349 137.416C572.507 131.382 573.948 125.06 575.345 118.939ZM570.959 110.888C571.444 111.196 571.922 111.498 572.381 111.78C571.997 113.377 571.62 114.998 571.243 116.632C567.6 114.363 563.982 112.912 560.471 112.308C560.849 110.724 561.226 109.134 561.622 107.557C562.006 107.463 562.415 107.419 562.83 107.419C565.492 107.412 568.399 109.26 570.959 110.888ZM570.167 121.327C569.764 123.068 569.361 124.758 568.971 126.355C565.706 124.834 561.918 123.25 558.036 123.25C557.879 123.25 557.715 123.25 557.552 123.256C557.589 123.168 557.621 123.074 557.652 122.98C558.225 121.17 558.766 119.228 559.401 116.689C562.812 117.21 566.335 118.731 570.167 121.327ZM556.243 110.347C556.073 107.783 555.91 105.232 555.752 102.711C555.639 100.87 555.519 99.0474 555.406 97.2374C556.633 97.9476 557.891 98.6201 559.169 99.2297C558.03 102.869 557.124 106.671 556.243 110.347ZM559.156 137.994C561.201 138.717 563.007 139.905 564.542 140.967L564.447 141.205C564.366 141.413 564.29 141.614 564.208 141.815C564.164 141.922 564.139 142.016 564.114 142.104C563.85 142.293 563.592 142.469 563.346 142.632C562.151 141.777 560.849 141.004 559.571 140.382C559.433 139.597 559.294 138.798 559.156 137.994ZM558.917 133.199C558.76 133.167 558.602 133.148 558.42 133.142C558.168 131.32 557.942 129.516 557.747 127.781C561.327 127.788 564.831 129.447 567.65 130.785C567.707 130.81 567.763 130.836 567.813 130.854C567.266 132.866 566.731 134.688 566.165 136.416C564.303 135.191 561.83 133.771 558.917 133.199ZM614.479 105.69C615.889 105.42 617.279 105.118 618.626 104.779C606.615 115.652 577.188 140.69 568.323 146.679C568.16 146.786 568.009 146.918 567.858 147.069C567.467 146.485 566.996 145.894 566.442 145.303C577.44 137.303 604.689 114.546 614.479 105.69ZM596.693 115.671C596.85 112.855 597.007 110.033 597.158 107.218C600.556 107.249 603.934 107.086 607.181 106.753L607.049 106.866C604.375 109.141 600.751 112.233 596.693 115.671ZM595.296 139.603L595.875 129.811C610.176 118.008 623.892 106.256 628.51 101.85C628.692 101.674 628.818 101.505 628.887 101.329C631.152 100.342 633.329 99.2234 635.355 97.9916C647.152 117.141 655.678 138.836 660.711 162.479C648.914 165.012 637.281 165.364 626.453 165.364C623.099 165.364 619.67 165.326 616.354 165.289L613.127 165.251C611.9 165.238 610.673 165.232 609.452 165.232C605.803 165.232 602.122 165.282 598.568 165.326C596.976 165.351 595.39 165.37 593.805 165.389C594.283 156.792 594.799 148.056 595.296 139.603ZM597.945 102.655C591.338 102.655 584.398 101.97 577.874 100.669C564.542 98.0168 554.242 92.5993 547.252 84.5737C544.647 81.5884 542.615 78.069 541.206 74.1473C541.174 73.9211 541.099 73.7199 541.011 73.5754C538.525 66.2851 538.035 57.3671 539.545 47.0601C552.732 47.9965 566.536 50.0579 580.586 53.194C603.016 58.1967 626.088 65.6001 649.159 75.1906C639.911 99.0851 613.114 102.655 597.945 102.655ZM513.226 12.6449C513.774 12.6324 514.29 12.4124 514.68 12.0227C523.916 8.1136 533.826 6.46073 541.432 5.44889C545.383 4.92726 549.976 4.3679 554.5 4.3679C560.194 4.3679 564.693 5.23521 568.248 7.02008C565.014 8.70438 561.792 10.7218 558.414 13.1854C551.512 18.2132 539.387 28.6773 535.568 42.378C531.661 42.1895 527.716 42.0952 523.847 42.0952C510.773 42.0952 497.755 43.1887 485.146 45.3381C480.61 46.1111 476.049 47.1481 471.575 48.4302C474.878 41.9695 480.799 36.2315 485.574 31.606L485.662 31.518C494.043 23.3918 503.059 17.2202 513.226 12.6449ZM431.421 64.2363C436.593 56.1604 445.42 44.961 453.474 38.1421C460.955 31.8133 476.351 22.38 484.605 18.4897C489.702 16.0827 497.308 12.5003 504.5 11.8342C496.767 16.0512 489.192 21.8018 481.365 29.3874C475.01 35.5465 468.738 42.334 465.919 50.1962C458.602 52.6975 451.769 55.865 445.609 59.6044C439.751 63.1616 432.352 67.9003 426.507 73.3052C428.043 69.968 429.659 66.989 431.421 64.2363ZM422.776 84.4166L422.846 84.3914L422.877 84.316C426.753 75.6305 441.079 67.3724 449.636 62.4389L451.058 61.6219C455.147 59.2588 459.514 57.2351 464.39 55.4565C462.993 59.2085 461.785 63.0799 460.621 66.8256C458.935 72.2556 457.186 77.8679 454.826 83.1722C452.09 89.325 448.466 93.9065 444.049 96.7849C442.054 98.0859 439.676 98.7772 437.178 98.7772C432.617 98.7772 427.848 96.4833 425.016 92.9324C422.94 90.3117 422.141 87.2887 422.776 84.4166ZM446.616 127.234C446.414 127.561 446.213 127.888 446.018 128.215C441.67 132.463 436.574 134.902 432.025 134.902C427.187 134.902 423.192 132.174 420.467 127.021C416.195 118.92 416.34 101.354 418.297 92.6119C419.19 95.5091 420.964 98.0607 423.582 100.223C424.047 100.606 424.601 100.958 425.331 101.335C428.546 109.832 435.63 118.115 446.974 126.65L446.616 127.234ZM430.729 102.862C431.648 102.969 432.61 103.019 433.611 103.019C439.393 103.019 445.773 101.241 449.12 98.6955C458.111 91.8703 461.697 80.2247 464.73 69.7166C464.95 73.7891 465.585 77.1011 466.712 80.0738C468.366 84.4354 471.191 87.6406 475.111 89.6015C466.353 98.1236 458.136 108.707 449.283 122.879C440.28 116.255 434.039 109.524 430.729 102.862ZM483.102 166.671C473.356 166.671 463.459 161.775 457.274 153.901C451.832 146.969 449.932 138.534 451.92 130.132C467.139 140.621 485.436 149.288 504.877 155.22C499.68 162.611 491.96 166.671 483.102 166.671ZM506.67 151.01C489.878 145.724 474.016 138.553 459.514 129.698C457.224 128.303 455.028 126.889 452.977 125.494C462.119 110.838 470.166 100.524 479.05 92.0588C479.308 91.8137 479.496 91.5309 479.616 91.2104C482.101 91.7948 484.939 92.0337 487.959 91.9205C493.716 91.7069 499.617 89.3689 505.991 84.7874C510.521 93.1649 515.8 101.272 520.833 108.864C514.573 124.061 509.942 137.849 506.67 151.01ZM523.853 113.433C530.9 124.086 537.154 133.796 542.238 144.511C541.772 146.013 541.917 147.723 542.659 149.589C542.854 150.086 543.169 150.444 543.59 150.658C543.93 151.098 544.427 151.33 545.044 151.33C545.113 151.33 545.182 151.33 545.251 151.324C545.415 151.311 545.585 151.305 545.755 151.305C545.786 151.305 545.818 151.305 545.849 151.305L543.779 160.701C534.631 158.765 525.017 156.333 512.648 152.82C512.314 152.725 511.987 152.625 511.66 152.524C511.44 152.455 511.219 152.386 510.993 152.323C514.038 140.093 518.247 127.366 523.853 113.433ZM511.131 157.068C522.45 160.317 532.825 162.913 542.829 165.012L537.865 187.555C524.507 181.101 514.541 169.738 511.131 157.068ZM504.594 421.806C503.946 423.817 503.273 425.898 502.644 427.946C500.586 434.633 499.127 441.635 497.711 448.403C496.969 451.96 496.201 455.637 495.352 459.219C495.345 459.238 495.345 459.263 495.339 459.282C493.25 459.062 491.004 458.704 488.292 458.17L488.072 458.126C485.492 457.61 481.61 456.837 478.509 455.323C483.919 438.442 486.694 420.688 489.374 403.524C489.739 401.173 490.111 398.829 490.482 396.479C494.578 399.257 500.542 400.979 506.142 400.979C507.52 400.979 508.86 400.872 510.118 400.671C509.086 407.917 506.803 414.975 504.594 421.806ZM504.946 396.403C502.197 396.271 499.416 395.681 496.88 394.694L548.957 158.224C551.839 158.595 554.393 159.909 556.727 161.291L504.946 396.403ZM557.602 192.376C556.595 192.376 555.57 192.332 554.538 192.25L559.848 168.129C570.173 169.656 580.095 169.902 587.651 169.939C582.574 184.413 571.909 192.376 557.602 192.376ZM590.911 137.133C590.363 146.403 589.797 155.993 589.268 165.427C588.803 165.427 588.343 165.427 587.878 165.427C581.165 165.427 572.293 165.27 563.17 164.069C562.51 163.981 561.843 163.881 561.182 163.78L560.823 163.724L562.296 157.043C563.114 157.382 564.12 157.181 564.819 156.565C565.127 156.521 565.429 156.408 565.725 156.213C568.046 154.661 569.204 152.851 569.173 150.821C569.317 150.758 569.449 150.683 569.581 150.595C572.992 148.288 580.636 142.299 591.118 133.72L590.911 137.133ZM628.875 199.741C628.661 199.748 628.447 199.748 628.233 199.748C612.265 199.748 596.328 187.216 593.408 172.378C593.459 171.567 593.503 170.75 593.547 169.933C595.969 169.914 598.391 169.889 600.826 169.858C604.595 169.814 608.496 169.763 612.372 169.763H612.9C614.328 169.763 615.75 169.77 617.166 169.77C618.89 169.776 620.607 169.776 622.319 169.776C634.72 169.776 647.92 169.556 661.07 166.923C659.509 182.967 647.989 199.327 628.875 199.741ZM665.109 161.43C659.943 137.177 651.198 114.992 639.105 95.4714C643.44 92.2474 647.026 88.4011 649.776 84.0332C650.644 102.963 656.961 115.664 668.557 121.779C672.357 123.784 676.352 124.796 680.442 124.796C688.086 124.796 695.246 121.17 699.713 115.061C700.022 124.488 700.821 133.651 706.238 142.173C706.439 142.488 706.647 142.764 706.842 143.034L706.855 143.053C706.263 143.474 705.678 143.902 705.093 144.323C700.928 147.333 696.995 150.18 692.251 152.128C683.412 155.748 675.062 158.652 666.713 161.002C666.286 161.122 665.858 161.235 665.43 161.342L665.109 161.43ZM700.947 171.02C695.316 176.054 688.143 178.889 681.304 178.713C672.281 178.493 668.217 170.555 666.575 165.697L666.663 165.672C667.009 165.59 667.361 165.502 667.707 165.408C676.138 163.177 684.374 160.079 692.025 157.068C698.399 154.561 703.507 150.928 708.918 147.088L710.126 146.233C711.743 147.201 713.411 147.402 714.977 146.818C712.083 156.924 707.113 165.509 700.947 171.02ZM718.066 137.994C717.192 140.376 716.053 141.583 714.675 141.583C711.253 141.583 706.943 134.091 705.854 130.892C703.916 125.173 703.954 118.574 703.986 112.189C703.998 109.687 704.011 107.324 703.91 105.049C703.986 104.578 704.055 104.063 704.118 103.472C705.294 104.27 706.332 105.012 707.295 105.722C709.428 107.306 717.658 114.03 718.897 117.952L718.903 118.002C720.13 124.067 718.293 137.34 718.066 137.994Z" fill="#FF5B0D"/>
<path d="M413.163 292.11C412.578 292.11 412.087 292.412 411.785 292.966C410.867 294.639 408.194 296.582 406.131 296.582C404.974 296.582 404.163 295.985 403.71 294.808C403.433 294.091 402.804 293.657 402.024 293.657C401.414 293.657 400.848 293.934 400.546 294.374C400.276 294.764 400.232 295.261 400.427 295.764C401.446 298.425 403.502 299.89 406.219 299.89C409.509 299.89 413.1 297.702 414.76 294.683C415.062 294.129 415.062 293.544 414.76 293.029C414.427 292.475 413.792 292.11 413.163 292.11Z" fill="#FF5B0D"/>
<path d="M382.119 328.687C382.219 327.963 381.886 327.108 380.917 326.838C379.238 326.366 377.993 325.052 376.678 323.655C375.54 322.448 374.37 321.202 372.861 320.504C371.779 320.001 370.584 319.769 369.1 319.769C367.936 319.769 366.735 319.913 365.578 320.058C364.024 320.247 362.351 320.423 361.006 320.284C359.899 320.177 359.37 320.957 359.333 321.737C359.289 322.605 359.836 323.586 360.955 323.706C361.414 323.756 361.886 323.781 362.402 323.781C363.465 323.781 364.528 323.674 365.553 323.574C366.572 323.473 367.534 323.379 368.496 323.379C370.1 323.379 372.182 323.618 374.094 325.467C374.565 325.919 374.987 326.385 375.402 326.838C376.678 328.228 377.886 329.548 380.018 330.14C380.188 330.184 380.351 330.209 380.515 330.209C381.427 330.215 382.018 329.448 382.119 328.687Z" fill="#FF5B0D"/>
<path d="M410.88 333.291C410.685 333.291 410.496 333.297 410.307 333.304C410.917 333.096 411.414 332.568 411.414 331.738V331.411C411.414 329.222 407.986 329.222 407.986 331.411V331.738C407.986 332.643 408.584 333.184 409.27 333.348C408.389 333.404 407.559 333.492 406.873 333.574C406.188 333.656 405.515 333.744 404.861 333.826C402.106 334.178 399.502 334.505 397.024 334.505C392.779 334.505 389.244 333.499 385.559 331.234C385.276 331.058 384.98 330.97 384.685 330.97C383.961 330.97 383.301 331.511 383.081 332.291C382.867 333.046 383.15 333.775 383.823 334.184C389.307 337.555 394.458 338.838 399.647 338.14C400.54 338.021 401.628 337.794 402.785 337.555C405.194 337.058 407.924 336.499 410.42 336.499C413.628 336.499 415.666 337.448 416.659 339.404C416.942 339.964 417.439 340.285 418.018 340.285C418.634 340.285 419.244 339.933 419.584 339.379C419.905 338.857 419.924 338.266 419.634 337.7C418.119 334.738 415.257 333.291 410.88 333.291Z" fill="#FF5B0D"/>
<path d="M236.603 314.687L236.288 314.762C235.251 315.001 234.225 315.24 233.207 315.467C232.364 315.656 231.873 316.335 231.968 317.196C232.056 317.983 232.685 318.825 233.678 318.825C233.81 318.825 233.949 318.807 234.087 318.781L234.854 318.612C241.339 317.165 248.043 315.662 254.785 315.662C255.968 315.662 257.137 315.706 258.269 315.8C259.917 315.932 261.596 316.134 263.219 316.335C266.024 316.674 268.93 317.027 271.791 317.027C273.785 317.027 275.584 316.857 277.282 316.511C278.125 316.341 278.615 315.681 278.527 314.825C278.439 313.92 277.653 312.951 276.401 313.196C275.905 313.297 275.37 313.385 274.729 313.461C273.898 310.731 273.32 307.97 272.76 305.291C271.232 297.951 269.785 291.02 263.439 285.517C262.213 284.448 260.81 283.586 259.269 282.939C259.018 282.209 258.301 281.517 257.244 281.687C256.766 281.769 256.307 281.857 255.873 281.958C254.968 281.8 254.037 281.719 253.118 281.719C248.515 281.719 244.163 283.649 241.188 287.014C240.722 287.542 240.615 288.241 240.898 288.876C241.194 289.53 241.829 289.976 242.477 289.976C242.911 289.976 243.307 289.781 243.634 289.417C244.791 288.108 246.081 287.096 247.483 286.391C240.276 293.052 238.257 304.932 236.615 314.586L236.603 314.687ZM255.615 285.599C259.464 286.58 263.087 289.266 265.565 292.976C268.207 296.926 269.03 301.882 269.835 306.668C270.225 309.008 270.634 311.423 271.244 313.674H271.219C268.213 313.674 265.125 313.272 262.137 312.888C259.898 312.599 257.578 312.297 255.339 312.171C254.722 312.14 254.081 312.121 253.439 312.121C248.898 312.121 244.402 312.951 240.2 313.876C241.961 303.341 244.458 289.152 255.615 285.599Z" fill="#FF5B0D"/>
<path d="M232.753 326.972C234.665 326.972 236.112 327.531 237.307 328.733C237.634 329.066 238.036 329.242 238.464 329.242C239.15 329.242 239.823 328.77 240.106 328.098C240.37 327.469 240.231 326.814 239.735 326.311C237.936 324.5 235.923 323.657 233.389 323.657C231.697 323.657 230.005 324.022 228.213 324.406C226.181 324.84 224.074 325.292 221.974 325.16C220.854 325.104 220.319 325.94 220.301 326.726C220.275 327.601 220.829 328.519 221.942 328.588C223.747 328.695 225.735 328.236 227.653 327.789C229.357 327.381 231.131 326.972 232.753 326.972Z" fill="#FF5B0D"/>
<path d="M266.49 325.643C263.986 324.675 261.402 323.675 258.71 323.102C258.037 322.958 257.339 322.882 256.641 322.882C253.735 322.882 251.037 324.128 248.427 325.329C247.263 325.863 246.056 326.417 244.867 326.845C243.898 327.191 243.597 328.102 243.729 328.851C243.905 329.882 244.836 330.486 245.81 330.134C247.012 329.706 248.163 329.184 249.282 328.681C251.829 327.536 254.238 326.455 256.986 326.455C257.71 326.455 258.439 326.53 259.156 326.687C261.515 327.191 263.81 328.128 266.037 329.027C267.917 329.794 269.861 330.58 271.842 331.115C272.005 331.159 272.163 331.178 272.32 331.178C273.257 331.178 273.854 330.404 273.955 329.637C274.049 328.914 273.716 328.071 272.747 327.813C270.615 327.241 268.515 326.429 266.49 325.643Z" fill="#FF5B0D"/>
<path d="M218.508 334.636C215.992 333.938 213.583 332.844 211.256 331.793C208.985 330.762 206.633 329.699 204.174 328.988C203.111 328.687 202.004 328.529 200.891 328.529C198.011 328.529 195.036 329.492 191.526 331.567C190.847 331.963 190.558 332.68 190.759 333.429C190.973 334.209 191.658 334.775 192.394 334.775C192.69 334.775 192.979 334.693 193.256 334.523C195.96 332.932 198.344 332.19 200.759 332.19C202.765 332.19 204.816 332.687 207.212 333.756C207.853 334.039 208.482 334.328 209.111 334.617C211.935 335.9 214.602 337.12 217.589 337.951C217.753 337.995 217.923 338.02 218.08 338.02C219.004 338.02 219.596 337.253 219.702 336.492C219.809 335.756 219.476 334.907 218.508 334.636Z" fill="#FF5B0D"/>
<path d="M235.691 332.468C234.175 332.468 232.521 332.77 230.898 333.342C229.93 333.682 229.628 334.587 229.76 335.336C229.936 336.373 230.867 336.977 231.848 336.631C234.798 335.587 237.181 335.644 238.949 336.782C239.238 336.971 239.54 337.065 239.842 337.065C240.54 337.065 241.187 336.537 241.414 335.776C241.64 335.009 241.364 334.267 240.697 333.839C239.282 332.933 237.603 332.468 235.691 332.468Z" fill="#FF5B0D"/>
<path d="M295.157 323.009C295.459 322.707 295.616 322.305 295.616 321.839C295.609 314.783 296.452 307.669 297.27 300.789C297.949 295.041 298.66 289.091 298.867 283.192C298.886 282.726 298.735 282.317 298.446 282.015C298.144 281.701 297.691 281.519 297.207 281.519C296.358 281.519 295.477 282.085 295.44 283.173C295.232 289.047 294.528 294.984 293.848 300.726C293.031 307.619 292.188 314.751 292.194 321.833C292.194 322.927 293.056 323.5 293.911 323.5C294.383 323.5 294.842 323.324 295.157 323.009Z" fill="#FF5B0D"/>
<path d="M306.061 331.607C308.42 331.607 310.822 331.456 313.143 331.305L313.867 331.261C317.697 331.016 321.131 330.676 324.363 330.211C326.804 329.865 329.194 329.305 331.212 328.796C331.948 328.613 332.816 328.23 333.728 327.827C335.055 327.242 336.426 326.632 337.426 326.632C338.521 326.632 339.093 325.771 339.093 324.922C339.093 324.073 338.521 323.211 337.426 323.211C336.024 323.211 334.357 323.903 332.747 324.576C331.866 324.941 331.036 325.286 330.3 325.5C325.917 326.746 321.275 327.268 316.911 327.639C316.269 327.695 315.615 327.752 314.955 327.815C312.131 328.073 309.212 328.337 306.307 328.337C302.024 328.337 298.709 327.758 295.873 326.519C295.634 326.412 295.389 326.362 295.137 326.362C294.194 326.362 293.464 327.129 293.313 327.878C293.162 328.588 293.495 329.198 294.2 329.507C297.495 330.94 301.263 331.607 306.061 331.607Z" fill="#FF5B0D"/>
<path d="M352.439 325.529C352.075 323.882 351.609 322.246 350.936 320.668C350.924 320.63 350.905 320.605 350.886 320.58C350.747 320.158 350.477 319.844 350.119 319.687C348.452 318.97 346.773 318.498 344.986 318.246C343.88 312.869 343.332 307.228 342.81 301.775C342.622 299.8 342.427 297.762 342.207 295.794L342.012 294.045C341.119 285.963 340.194 277.611 338.924 269.435C338.829 268.813 338.49 268.498 338.2 268.341C335.653 264.725 326.54 263.668 323.1 263.272L322.785 263.234C317.42 262.605 311.697 262.674 305.685 263.448C297.653 264.473 292.332 266.706 289.427 270.265C288.76 270.504 288.402 271.083 288.452 271.831C288.911 278.19 287.968 284.611 287.049 290.819C286.785 292.611 286.515 294.46 286.276 296.284L286.005 298.397C285.49 302.379 284.955 306.498 284.515 310.561C284.307 312.46 284.207 314.416 284.106 316.303C284.024 317.875 283.936 319.498 283.792 321.089C283.735 321.108 283.685 321.133 283.628 321.165C279.207 323.454 277.395 327.831 278.087 334.498C274.314 335.662 270.559 337.976 267.194 341.246C267.131 341.303 267.081 341.366 267.031 341.423C264.175 341.762 261.389 342.636 258.691 343.479C256.439 344.184 254.112 344.919 251.722 345.347C250.886 345.498 250.389 346.14 250.465 346.976C250.54 347.806 251.188 348.693 252.251 348.693C252.358 348.693 252.477 348.68 252.59 348.662C254.848 348.253 257.087 347.511 259.251 346.787C262.446 345.724 265.754 344.618 269.131 344.618C269.842 344.618 270.546 344.668 271.226 344.762C271.32 344.775 271.414 344.781 271.502 344.781C272.578 344.781 273.288 343.869 273.351 342.995C273.408 342.196 272.943 341.605 272.156 341.46C274.559 339.605 277.049 338.309 279.578 337.611C279.603 337.605 279.615 337.592 279.641 337.586C283.741 341.309 291.031 343.743 301.351 344.838C306.703 349.051 313.603 352.278 322.232 354.63C327.389 356.033 332.402 356.712 337.553 356.712C344.137 356.712 350.911 355.573 358.257 353.228H358.276C358.697 353.228 359.087 353.07 359.414 352.768C362.232 350.177 363.817 346.102 364.251 340.303C364.508 340.007 364.641 339.63 364.634 339.202C364.54 332.498 358.464 327.102 352.439 325.529ZM351.735 336.278C353.546 337.649 356.54 340.033 355.76 342.146C355.653 342.435 355.622 342.718 355.666 342.989C350.98 345.926 344.376 346.548 339.634 346.548C336.251 346.548 333.276 346.24 331.376 345.989C328.936 345.662 326.559 345.196 324.257 344.618C327.477 344.171 330.892 343.555 334.571 342.75C339.949 341.561 346.527 340.108 351.735 336.278ZM308.836 266.517C312.402 266.152 316.181 266.121 320.037 266.404C323.609 266.668 327.031 267.19 330.2 267.957C332.483 268.511 334.836 269.643 334.911 270.737C334.955 271.41 334.119 272.096 332.49 272.718C327.766 274.536 322.358 274.605 317.131 274.68C315.836 274.699 314.559 274.718 313.307 274.762C312.427 274.794 311.402 274.869 310.314 274.945C308.464 275.077 306.37 275.228 304.27 275.228C298.307 275.228 294.735 273.989 293.043 271.341C296.949 267.718 304.666 266.938 308.836 266.517ZM281.496 334.536C280.955 330.372 281.546 327.517 283.351 325.611C283.427 325.882 283.565 326.127 283.773 326.341C284.131 326.718 284.653 326.938 285.163 326.938C285.93 326.938 286.49 326.454 286.628 325.674C287.483 320.825 287.861 315.768 288.226 310.875C288.496 307.253 288.773 303.511 289.244 299.888C289.534 297.687 289.873 295.423 290.207 293.234C291.1 287.391 292.018 281.353 292.005 275.397C294.584 277.574 298.553 278.592 304.42 278.592C306.628 278.592 308.836 278.454 310.779 278.328C311.898 278.259 312.955 278.19 313.898 278.158C314.672 278.133 315.452 278.108 316.226 278.083C319.748 277.976 323.395 277.863 326.961 277.385L327.458 277.316C330.156 276.957 333.798 276.473 336.244 274.769C337.194 281.536 337.955 288.435 338.697 295.108L339.194 299.586C339.376 301.215 339.54 302.863 339.71 304.523C340.37 311.121 341.056 317.945 342.917 324.234C343.137 324.982 343.754 325.441 344.527 325.441C345.112 325.441 345.672 325.171 345.999 324.737C346.295 324.341 346.376 323.838 346.219 323.316C346.087 322.869 345.974 322.423 345.861 321.97L345.823 321.831C346.54 321.995 347.276 322.221 348.012 322.511C349.163 325.297 349.59 328.366 349.999 331.335C350.081 331.926 350.163 332.517 350.251 333.102C345.754 336.743 339.898 338.039 334.238 339.297L333.672 339.423C327.527 340.787 321.729 341.592 316.024 341.894C310.666 339.662 305.968 336.693 302.244 333.114C302.15 333.02 302.043 332.945 301.917 332.869C301.502 332.397 300.898 332.209 300.27 332.353C297.917 332.888 296.163 334.397 295.106 335.567C294.685 336.033 294.546 336.636 294.735 337.215C294.653 337.718 294.779 338.196 295.1 338.605C295.59 339.234 296.112 339.838 296.647 340.435C291.565 339.636 284.408 337.102 281.496 334.536ZM357.402 349.913C350.458 352.133 344.037 353.215 337.773 353.215C332.968 353.215 328.181 352.599 323.137 351.328C312.471 348.636 303.905 343.756 298.364 337.19C298.968 336.655 299.615 336.246 300.295 335.97C310.351 345.341 323.986 348.605 333.672 349.693C335.477 349.894 337.351 350.001 339.238 350.001C344.678 350.001 354.502 349.127 360.408 343.41C359.848 346.24 358.861 348.372 357.402 349.913ZM359.112 339.901C358.395 337.504 356.144 335.435 353.735 333.542C353.729 333.517 353.729 333.492 353.722 333.46C353.729 333.335 353.722 333.215 353.703 333.095C353.584 332.353 353.471 331.605 353.364 330.863C353.288 330.366 353.213 329.869 353.137 329.366C356.389 330.687 359.647 333.353 360.785 336.806C360.383 337.926 359.823 338.963 359.112 339.901Z" fill="#FF5B0D"/>
<path d="M301.685 233.222C302.54 234.574 303.754 235.291 305.188 235.291C307.163 235.291 309.559 233.926 311.609 231.637C313.314 229.731 314.383 227.63 314.591 225.901C314.704 225.681 314.779 225.429 314.779 225.127C314.785 224.442 314.88 223.24 314.993 221.718C315.553 214.209 316.597 200.234 312.603 195.932C311.622 194.876 310.377 194.467 308.93 194.718C303.71 195.637 302.804 203.102 302.263 207.561C302.207 208.001 302.157 208.417 302.106 208.794C300.899 217.851 300.792 225.253 301.76 231.404C301.704 231.473 301.641 231.542 301.597 231.618C301.32 232.121 301.352 232.693 301.685 233.222ZM304.98 214.674L305.012 214.234C305.037 213.832 305.062 213.322 305.087 212.744C305.282 208.404 305.685 199.373 309.389 198.09C309.578 198.027 309.741 198.071 309.911 198.247C311.37 199.75 311.867 208.259 311.402 223.536C311.396 223.674 311.396 223.8 311.389 223.926C311.226 224.203 311.157 224.53 311.194 224.901C311.396 226.674 309.955 228.391 308.679 229.687C307.955 230.423 306.308 231.819 305.276 231.819C305.263 231.819 305.257 231.813 305.245 231.813C305.245 231.712 305.238 231.611 305.219 231.511C304.245 226.071 304.622 220.278 304.98 214.674Z" fill="#FF5B0D"/>
<path d="M300.477 247.776C298.885 246.55 296.992 245.902 295.005 245.902C291.565 245.902 288.168 247.845 286.282 250.877C284.521 249.763 282.709 249.197 280.892 249.197C273.69 249.197 267.628 258.298 267.011 266.43C266.973 266.896 267.106 267.304 267.389 267.606C267.684 267.921 268.131 268.103 268.615 268.103C269.458 268.103 270.357 267.543 270.439 266.462C270.854 260.927 275.2 252.562 280.804 252.562C282.445 252.562 284.099 253.273 285.722 254.675C286.068 254.977 286.502 255.141 286.929 255.141C287.672 255.141 288.319 254.663 288.565 253.921C289.483 251.197 292.005 249.374 294.841 249.374C296.238 249.374 297.571 249.833 298.69 250.694C298.986 250.921 299.3 251.04 299.621 251.04C300.25 251.04 300.835 250.562 301.08 249.852C301.288 249.241 301.244 248.367 300.477 247.776Z" fill="#FF5B0D"/>
<path d="M172.993 335.404C172.421 335.982 172.169 336.536 172.169 337.265C172.169 337.731 172.32 338.14 172.622 338.435C172.93 338.75 173.389 338.926 173.867 338.926C174.578 338.926 175.364 338.523 175.553 337.636C176.075 336.951 176.018 335.995 175.421 335.398C174.779 334.762 173.628 334.762 172.993 335.404Z" fill="#FF5B0D"/>
<path d="M180.609 333.04V334.014C180.609 335.109 181.471 335.681 182.32 335.681C183.169 335.681 184.031 335.109 184.031 334.014V333.04C184.037 330.857 180.609 330.857 180.609 333.04Z" fill="#FF5B0D"/>
<path d="M174.854 327.43H174.206C173.111 327.43 172.539 328.292 172.539 329.141C172.539 329.99 173.111 330.852 174.206 330.852H174.854C175.948 330.852 176.52 329.99 176.52 329.141C176.52 328.292 175.948 327.43 174.854 327.43Z" fill="#FF5B0D"/>
<path d="M162.835 332.305H162.508C161.414 332.305 160.842 333.166 160.842 334.015C160.842 334.864 161.414 335.726 162.508 335.726H162.835C163.93 335.726 164.502 334.864 164.502 334.015C164.502 333.166 163.93 332.305 162.835 332.305Z" fill="#FF5B0D"/>
<path d="M168.597 333.688V334.015C168.597 335.109 169.458 335.681 170.307 335.681C171.156 335.681 172.018 335.109 172.018 334.015V333.688C172.018 331.505 168.597 331.505 168.597 333.688Z" fill="#FF5B0D"/>
<path d="M142.282 331.415V331.742C142.282 332.836 143.144 333.409 143.993 333.409C144.842 333.409 145.704 332.836 145.704 331.742V331.415C145.71 329.226 142.282 329.226 142.282 331.415Z" fill="#FF5B0D"/>
<path d="M161.156 324.305C160.924 323.62 160.345 323.211 159.59 323.211C158.377 323.217 157.559 324.035 157.553 325.249C157.553 325.714 157.704 326.123 158.006 326.425C158.32 326.739 158.773 326.922 159.257 326.922C159.811 326.922 160.32 326.689 160.634 326.293C161.188 325.84 161.402 325.029 161.156 324.305Z" fill="#FF5B0D"/>
<path d="M148.867 323.53C147.653 323.537 146.835 324.354 146.829 325.568C146.829 326.033 146.98 326.442 147.282 326.738C147.596 327.052 148.049 327.235 148.534 327.235C149.087 327.235 149.596 327.002 149.911 326.612C150.464 326.166 150.684 325.36 150.433 324.631C150.206 323.945 149.622 323.53 148.867 323.53Z" fill="#FF5B0D"/>
<path d="M155.691 327.756H155.276C154.182 327.756 153.609 328.618 153.609 329.467C153.609 330.316 154.182 331.178 155.276 331.178H155.691C156.785 331.178 157.358 330.316 157.358 329.467C157.358 328.618 156.785 327.756 155.691 327.756Z" fill="#FF5B0D"/>
<path d="M271.646 353.594H271.973C273.068 353.594 273.64 352.733 273.64 351.884C273.64 351.034 273.068 350.173 271.973 350.173H271.646C270.552 350.173 269.979 351.034 269.979 351.884C269.979 352.733 270.558 353.594 271.646 353.594Z" fill="#FF5B0D"/>
<path d="M281.068 350.164H280.653C279.559 350.164 278.986 351.026 278.986 351.875C278.986 352.724 279.559 353.585 280.653 353.585H281.068C282.162 353.585 282.735 352.724 282.735 351.875C282.735 351.026 282.162 350.164 281.068 350.164Z" fill="#FF5B0D"/>
<path d="M280.704 346.883C280.999 346.581 281.157 346.179 281.157 345.707C281.15 344.493 280.333 343.676 279.106 343.669C278.364 343.669 277.779 344.078 277.553 344.764C277.308 345.493 277.521 346.298 278.075 346.745C278.389 347.141 278.899 347.374 279.452 347.374C279.936 347.374 280.396 347.198 280.704 346.883Z" fill="#FF5B0D"/>
<path d="M256.054 354.566C257.149 354.566 257.721 353.705 257.721 352.856C257.721 352.007 257.149 351.145 256.054 351.145H255.727C254.633 351.145 254.061 352.007 254.061 352.856C254.061 353.705 254.633 354.566 255.727 354.566H256.054Z" fill="#FF5B0D"/>
<path d="M268.816 357.406V357.079C268.816 354.89 265.389 354.89 265.389 357.079V357.406C265.389 358.5 266.25 359.073 267.099 359.073C267.948 359.073 268.816 358.5 268.816 357.406Z" fill="#FF5B0D"/>
<path d="M263.855 351.317C264.776 351.317 265.522 350.551 265.522 349.606C265.522 348.661 264.776 347.896 263.855 347.896C262.935 347.896 262.188 348.661 262.188 349.606C262.188 350.551 262.935 351.317 263.855 351.317Z" fill="#FF5B0D"/>
<path d="M200.137 350.862C199.212 351.057 198.791 351.931 198.86 352.711C198.923 353.472 199.457 354.246 200.508 354.246H200.52C201.244 354.24 201.803 353.994 202.382 353.416C202.703 353.095 202.879 352.667 202.879 352.208C202.879 351.743 202.703 351.315 202.382 350.994C201.797 350.416 200.797 350.359 200.137 350.862Z" fill="#FF5B0D"/>
<path d="M209.521 352.857V353.184C209.521 354.278 210.383 354.85 211.232 354.85C212.081 354.85 212.943 354.278 212.943 353.184V352.857C212.949 350.668 209.521 350.668 209.521 352.857Z" fill="#FF5B0D"/>
<path d="M201.402 347.656V347.977C201.402 349.071 202.264 349.643 203.119 349.643C203.968 349.643 204.83 349.071 204.83 347.977V347.656C204.83 345.473 201.402 345.473 201.402 347.656Z" fill="#FF5B0D"/>
<path d="M189.47 346.266C188.376 346.266 187.804 347.128 187.804 347.977C187.804 348.826 188.376 349.687 189.47 349.687C190.565 349.687 191.137 348.826 191.137 347.977C191.137 347.128 190.565 346.266 189.47 346.266Z" fill="#FF5B0D"/>
<path d="M197.591 343.021H197.264C196.17 343.021 195.598 343.883 195.598 344.732C195.598 345.581 196.17 346.449 197.264 346.449H197.591C198.686 346.449 199.258 345.587 199.258 344.732C199.258 343.883 198.686 343.021 197.591 343.021Z" fill="#FF5B0D"/>
<path d="M394.754 345.944C393.659 345.944 393.087 346.806 393.087 347.655C393.087 348.504 393.659 349.366 394.754 349.366C395.848 349.366 396.42 348.504 396.42 347.655C396.42 346.806 395.848 345.944 394.754 345.944Z" fill="#FF5B0D"/>
<path d="M408.074 347.896C407.388 347.896 406.835 348.26 406.546 348.908L406.521 348.94C406.47 349.002 406.42 349.059 406.382 349.116C406.131 349.449 406.087 349.826 406.03 350.235C405.98 350.625 406.112 351.015 406.401 351.348C406.747 351.738 407.263 351.984 407.741 351.984C408.439 351.984 408.999 351.6 409.282 350.952C409.338 350.889 409.389 350.826 409.426 350.77C409.678 350.436 409.722 350.059 409.778 349.65C409.829 349.26 409.697 348.87 409.407 348.543C409.068 348.141 408.558 347.896 408.074 347.896Z" fill="#FF5B0D"/>
<path d="M425.935 346.921H425.52C424.426 346.921 423.854 347.783 423.854 348.632C423.854 349.481 424.426 350.343 425.52 350.343H425.935C427.03 350.343 427.602 349.481 427.602 348.632C427.602 347.783 427.03 346.921 425.935 346.921Z" fill="#FF5B0D"/>
<path d="M448.024 341.725H447.697C446.603 341.725 446.03 342.587 446.03 343.436C446.03 344.285 446.603 345.147 447.697 345.147H448.024C449.118 345.147 449.691 344.285 449.691 343.436C449.691 342.587 449.118 341.725 448.024 341.725Z" fill="#FF5B0D"/>
<path d="M439.346 340.511V339.863C439.346 337.675 435.918 337.675 435.918 339.863V340.511C435.918 341.605 436.78 342.178 437.629 342.178C438.484 342.178 439.346 341.605 439.346 340.511Z" fill="#FF5B0D"/>
<path d="M439.578 351.643C440.498 351.643 441.244 350.877 441.244 349.932C441.244 348.988 440.498 348.222 439.578 348.222C438.657 348.222 437.911 348.988 437.911 349.932C437.911 350.877 438.657 351.643 439.578 351.643Z" fill="#FF5B0D"/>
<path d="M441.207 343.021C440.112 343.021 439.54 343.883 439.54 344.732C439.54 345.581 440.112 346.449 441.207 346.449C442.301 346.449 442.873 345.587 442.873 344.732C442.873 343.883 442.301 343.021 441.207 343.021Z" fill="#FF5B0D"/>
<path d="M455.823 337.172H455.175C454.081 337.172 453.509 338.034 453.509 338.883C453.509 339.732 454.081 340.594 455.175 340.594H455.823C456.918 340.594 457.49 339.732 457.49 338.883C457.49 338.034 456.918 337.172 455.823 337.172Z" fill="#FF5B0D"/>
<path d="M448.395 332.393C448.395 331.544 447.823 330.682 446.728 330.682C445.634 330.682 445.062 331.544 445.062 332.393C445.062 333.242 445.634 334.103 446.728 334.103C447.823 334.103 448.395 333.242 448.395 332.393Z" fill="#FF5B0D"/>
<path d="M461.773 327.159C460.088 326.889 458.396 326.568 456.735 326.241C456.893 325.901 456.924 325.518 456.83 325.121C456.018 321.819 454.748 318.304 451.465 317.209C450.182 316.782 448.918 316.643 447.698 316.511C445.251 316.241 443.144 316.014 441.371 313.637C440.83 312.908 440.496 311.958 440.144 310.945C439.635 309.48 439.107 307.964 437.868 307.159C436.635 306.36 434.899 305.977 432.572 305.977C430.874 305.977 429.063 306.178 427.465 306.36C427.144 306.398 426.836 306.43 426.528 306.467C427.515 304.901 428.408 303.26 429.125 301.562C429.779 301.536 430.402 301.159 430.698 300.612C430.962 300.115 430.924 299.555 430.578 299.033C430.471 298.876 430.358 298.719 430.239 298.568L430.088 298.36C430.012 297.92 429.729 297.53 429.302 297.291C426.585 293.845 422.987 290.851 418.308 288.147C419.842 284.864 421.302 281.48 422.717 278.216C423.61 276.14 424.509 274.071 425.427 272.008C427.339 267.719 429.717 263.562 432.012 259.536C433 257.807 434.025 256.014 434.993 254.241C435.245 253.775 435.522 253.291 435.805 252.775C439.679 245.813 445.541 235.291 437.912 229.436C437 228.738 435.905 228.386 434.66 228.386C431.685 228.386 429.018 230.323 428.27 230.914C425.559 233.071 424.383 237.033 423.352 240.53C423.132 241.266 422.924 241.983 422.704 242.637C419.125 253.549 414.207 264.75 407.742 276.719C405.578 273.392 402.528 270.989 397.729 268.763C396.383 268.14 395.176 267.505 394.05 266.838L393.811 266.775L393.792 266.801C392.692 266.36 391.541 266.14 390.377 266.14C387.1 266.14 384.176 267.87 382.559 270.763C381.559 272.549 380.61 273.499 379.811 273.499C378.427 273.499 377.138 270.625 376.371 265.82C376.163 264.499 376.056 263.115 375.956 261.775C375.78 259.43 375.597 257.008 374.842 254.763C374.358 253.31 373.214 252.474 371.352 252.197C370.151 252.021 369.377 247.662 369.346 240.845L369.358 240.612C369.842 233.096 370.723 219.373 364.566 217.769C364.597 210.939 364.44 209.637 364.258 208.153C364.081 206.675 363.874 205.002 363.824 197.241C363.817 196.147 362.949 195.581 362.1 195.581C361.817 195.581 361.547 195.65 361.308 195.763C360.868 195.732 360.427 195.706 359.968 195.706C357.641 195.706 355.327 196.103 353.088 196.486C350.559 196.92 347.949 197.373 345.314 197.235H345.245C344.648 197.235 344.063 197.618 343.761 198.216C343.478 198.776 343.509 199.379 343.836 199.832C347.302 204.599 353.616 207.807 359.553 207.807C359.968 207.807 360.377 207.776 360.78 207.744C360.798 207.908 360.817 208.065 360.836 208.216C361.019 209.7 361.176 211.002 361.138 218.04C356.918 219.669 353.729 225.713 352.383 229.505C351.019 233.367 350.692 237.631 350.383 241.75C350.05 246.172 349.698 250.719 348.05 254.757C346.075 253.694 343.912 253.021 341.585 252.82C341.157 248.914 341.597 245.077 342.069 241.014C342.144 240.373 342.22 239.731 342.289 239.09C342.679 235.562 343.157 231.165 341.32 227.524C339.855 224.625 336.295 224.253 333.352 224.253C332.182 224.253 331.019 224.323 329.905 224.386C329.302 224.423 328.717 224.455 328.176 224.474C327.918 219.279 328.063 213.933 328.201 208.763C328.522 196.845 328.855 184.524 324.352 173.09C322.44 168.228 318.383 162.675 312.503 160.14C312.258 154.562 311.792 148.996 311.339 143.555C310.704 136.052 310.05 128.291 310 120.625C309.993 119.53 309.126 118.958 308.276 118.958C307.792 118.958 307.333 119.14 307.025 119.455C306.729 119.757 306.572 120.159 306.572 120.631C306.585 122.493 306.635 124.354 306.71 126.222C303.836 126.694 300.918 127.002 298.075 127.291C293.824 127.719 289.434 128.166 285.182 129.21C284.591 129.354 284.094 129.895 283.949 130.562C283.817 131.166 284 131.738 284.44 132.096C287.233 134.335 290.082 136.002 293.132 137.184C291.742 138.549 290.365 139.952 289.031 141.316C288.308 142.059 287.578 142.801 286.849 143.537C286.365 144.027 286.239 144.782 286.522 145.455C286.786 146.084 287.327 146.461 287.975 146.461C288.012 146.461 288.044 146.461 288.082 146.455C291.396 146.247 294.773 146.178 298.038 146.115C301.333 146.052 304.736 145.977 308.094 145.763C308.459 150.147 308.811 154.599 309.031 159.065C308.232 158.908 307.421 158.788 306.566 158.75C304.358 158.65 302.754 159.166 301.604 160.316C299.427 162.499 299.434 166.543 299.44 170.455C299.446 172.92 299.446 175.247 298.918 177.002C298.761 177.524 298.861 177.927 299 178.21L298.629 178.694C296.031 182.103 293.346 185.625 292.792 189.958C292.729 190.449 292.692 190.952 292.666 191.461C291.371 192.222 290.063 192.926 288.792 193.593C285.358 195.404 282.113 197.121 279.289 200.09C275.327 204.26 272.761 209.568 270.578 214.687C268.673 219.147 267.365 223.845 266.094 228.386L265.975 228.826C265.132 231.838 264.113 234.386 262.868 236.612C262.264 237.694 258.572 241.832 256.289 241.832C255.484 241.832 254.943 241.316 254.629 240.253C254.415 239.536 253.83 239.09 253.1 239.059C251.497 236.423 249.333 234.882 247.1 234.882C245.195 234.882 243.352 236.015 241.786 238.147C237.352 244.178 232.339 253.222 233.616 262.008C233.66 262.329 233.786 262.606 233.968 262.813C233.264 263.606 232.553 264.392 231.843 265.172C230.503 266.643 229.138 268.153 227.887 269.675C226.711 268.65 225.553 268.134 224.446 268.134C221.371 268.134 219.289 272.134 218.742 276.222C218.05 275.593 217.78 274.48 217.503 273.31C217.044 271.386 216.516 269.197 213.855 268.97C209.591 268.599 208.534 271.297 207.409 274.153C206.887 275.474 206.346 276.838 205.459 277.939C204.516 279.103 203.711 279.7 203.063 279.7C202.101 279.7 201.415 278.392 200.685 277.008C200.258 276.197 199.817 275.36 199.283 274.713C197.553 272.593 194.811 273.26 191.509 276.631C190.352 277.813 189.937 279.568 189.566 281.115C189.49 281.442 189.409 281.763 189.333 282.065C189.182 282.643 188.956 282.977 188.711 282.977C188.251 282.977 187.572 281.945 187.547 280.983C187.516 279.838 187.428 278.606 186.968 277.329C186.34 275.568 184.667 274.511 182.484 274.511C180.893 274.511 179.302 275.071 178.214 276.008C171.553 281.775 171.641 301.58 171.679 310.04V310.191C168.654 311.694 165.818 313.656 163.044 315.587C161.415 316.719 159.736 317.882 158.069 318.914C157.396 319.329 157.113 320.058 157.327 320.819C157.547 321.593 158.207 322.134 158.931 322.134C159.226 322.134 159.528 322.046 159.811 321.87C161.39 320.895 162.981 319.738 164.673 318.518C169.327 315.153 174.138 311.668 179.352 311.297C181.811 311.128 184.214 312.492 186.534 313.807C187.39 314.291 188.195 314.75 188.994 315.128C190.818 315.989 192.704 316.404 194.761 316.404C194.862 316.404 194.962 316.392 195.063 316.392C194.648 317.297 194.176 318.172 193.635 319.014C191.667 319.474 189.673 320.04 187.629 320.631C183.013 321.964 178.239 323.341 173.402 323.341C172.585 323.341 171.774 323.304 170.987 323.222C169.88 323.115 169.352 323.907 169.314 324.687C169.27 325.555 169.824 326.53 170.937 326.643C171.629 326.713 172.352 326.75 173.082 326.75C177.717 326.75 182.465 325.335 187.056 323.964C191.503 322.637 196.107 321.266 200.446 321.266C204.629 321.266 208.189 322.543 211.346 325.178C211.673 325.455 212.063 325.599 212.472 325.599C213.233 325.599 213.968 325.084 214.226 324.373C214.446 323.769 214.264 323.165 213.736 322.725C209.95 319.562 205.799 318.021 201.05 318.021C200.031 318.021 199.019 318.096 198.006 318.209C199.616 314.933 200.604 311.348 201.553 307.851C201.981 306.279 202.428 304.65 202.918 303.09C204.101 299.354 205.736 295.26 210.233 294.002C210.987 293.788 211.824 293.681 212.723 293.681C215.277 293.681 218.082 294.536 220.553 295.285C221.459 295.562 222.314 295.82 223.132 296.033C224.075 296.279 224.968 295.713 225.201 294.757C226.692 293.518 227.327 292.046 227.314 289.845C227.308 288.587 226.943 287.304 226.597 286.065C226.49 285.681 226.383 285.297 226.283 284.92C225.585 282.153 226.056 279.184 227.729 275.851C229.629 272.065 232.578 268.876 235.428 265.788C238.792 262.147 242.277 258.379 244.069 253.599C244.258 253.096 244.214 252.599 243.937 252.203C243.629 251.763 243.063 251.486 242.459 251.486C241.679 251.486 241.05 251.92 240.773 252.643C239.968 254.801 238.692 256.97 236.773 259.442C236.604 254.939 238.415 251.323 240.503 247.165L240.773 246.631C240.962 246.26 241.163 245.82 241.39 245.342C242.685 242.568 244.635 238.373 247.314 238.027C249.547 237.725 251.056 240.392 251.88 245.901L251.918 246.147L252.056 246.128C252.402 247.549 253.038 248.901 253.95 250.115C254.302 250.581 254.811 250.838 255.383 250.838C256.088 250.838 256.78 250.436 257.063 249.864C257.308 249.373 257.245 248.826 256.874 248.335C256.05 247.235 255.534 246.134 255.308 245.014C255.534 245.046 255.761 245.065 256 245.065C257.226 245.065 258.635 244.687 260.195 243.952C264.962 241.694 267.277 236.115 268.918 230.952C269.352 229.587 269.767 228.235 270.176 226.882C271.887 221.298 273.497 216.015 276.157 210.782C278.144 206.87 280.717 203.379 283.805 200.392C285.673 198.587 288.195 197.417 290.641 196.279C291.352 195.945 292.082 195.612 292.792 195.254L292.817 195.48L293.038 195.272C292.975 195.669 292.887 196.059 292.729 196.417C292.471 196.996 292.522 197.606 292.868 198.128C293.22 198.662 293.824 199.008 294.409 199.008C294.987 199.008 295.465 198.675 295.717 198.09C296.434 196.467 296.446 194.807 296.459 193.203C296.465 192.36 296.478 191.493 296.585 190.625C296.622 190.335 296.585 190.071 296.497 189.838C296.893 187.933 297.666 186.103 298.868 184.235C299.723 182.914 300.685 181.637 301.616 180.411C302.899 178.719 304.22 176.964 305.295 175.046C305.604 174.499 305.604 173.914 305.302 173.398C304.861 172.643 303.799 172.279 303.056 172.625C303.144 170.977 303.107 169.31 303.056 167.474C303.05 167.298 303.044 167.103 303.031 166.895C302.956 165.21 302.849 162.901 304.409 162.254C304.83 162.077 305.339 161.989 305.924 161.989C306.943 161.989 308.063 162.247 309.157 162.599C309.22 164.593 309.251 166.587 309.232 168.574C309.226 169.04 309.383 169.449 309.685 169.75C310 170.065 310.453 170.247 310.937 170.247C311.786 170.247 312.654 169.675 312.66 168.587C312.673 167.065 312.654 165.537 312.616 164.015C317.799 166.681 321.283 172.398 323.264 181.449C325.245 190.505 324.993 199.876 324.754 208.933C324.572 215.776 324.383 222.851 325.157 229.757C325.276 230.82 326.188 231.379 327.031 231.379C327.522 231.379 327.962 231.197 328.245 230.882C328.515 230.581 328.635 230.172 328.578 229.706C328.509 229.103 328.453 228.499 328.402 227.889C328.981 227.87 329.566 227.845 330.151 227.813C330.987 227.769 331.849 227.731 332.666 227.731C336.339 227.731 338.842 228.599 339.151 232.832C339.396 236.228 339.025 239.599 338.666 242.864C338.126 247.813 337.559 252.933 339.182 258.128C339.415 258.87 340.037 259.323 340.805 259.323C341.39 259.323 341.956 259.052 342.276 258.618C342.566 258.222 342.641 257.719 342.478 257.203C342.383 256.901 342.302 256.606 342.22 256.304C345.962 256.864 349.069 258.851 351.459 262.203C356.176 268.826 356.893 279.021 355.572 285.97C354.314 284.071 353.358 281.832 352.578 280.002L352.396 279.568C352.144 278.983 351.673 278.643 351.094 278.643C350.515 278.643 349.912 278.989 349.559 279.524C349.214 280.046 349.157 280.656 349.409 281.241C351.899 287.058 355.201 292.637 362.44 294.04C363.874 294.316 365.295 294.436 366.666 294.555C369.471 294.794 372.119 295.014 374.736 296.486C377.006 297.763 378.465 300.549 379.754 303.008L380.075 303.618C380.094 303.863 380.163 304.102 380.283 304.329C380.559 304.851 380.842 305.392 381.125 305.933C383.541 310.593 386.283 315.876 391.704 317.467C391.88 317.518 392.05 317.543 392.214 317.543C393.163 317.543 393.704 316.763 393.811 316.04C393.918 315.31 393.591 314.448 392.622 314.165C390.981 313.681 389.503 312.656 388.138 311.033C390.471 311.845 393.182 312.159 396.107 311.97L396.27 311.958C397.515 311.876 398.691 311.801 399.805 311.801C403.717 311.801 406.641 312.788 408.239 317.606L408.264 317.687C408.327 317.87 408.383 318.046 408.446 318.228C408.05 318.668 407.93 319.266 408.025 319.788C408.176 320.618 408.792 321.146 409.522 321.146C410.132 322.568 410.893 323.901 412.063 325.153C412.39 325.505 412.792 325.694 413.22 325.694C413.88 325.694 414.534 325.235 414.824 324.574C415.1 323.945 414.975 323.26 414.497 322.744C413.805 321.996 413.264 321.203 412.811 320.392C413.245 320.341 413.679 320.304 414.125 320.304C417.912 320.304 421.245 322.209 424.773 324.228C428.302 326.247 431.956 328.335 436.176 328.423H436.22C437.327 328.423 437.836 327.562 437.849 326.763C437.855 325.901 437.289 325.021 436.188 324.996C431.918 324.901 428.371 322.845 424.937 320.851C422.585 319.486 420.151 318.071 417.541 317.354C419.515 315.379 421.855 312.889 424.031 310.052C424.107 310.058 424.176 310.077 424.257 310.077H424.327C425.314 310.046 426.289 309.983 427.264 309.92C428.679 309.832 430.138 309.738 431.572 309.738C433.27 309.738 434.698 309.863 436.062 310.134C436.276 310.423 436.993 311.926 437.572 313.146C438.528 315.159 439.125 316.398 439.383 316.669C441.226 318.612 443.276 319.631 445.836 319.87C450.289 320.285 452.163 320.914 453.415 325.612C452.094 325.36 450.767 325.115 449.44 324.901C448.22 324.706 447.39 325.687 447.314 326.631C447.251 327.461 447.748 328.084 448.578 328.222C450.635 328.549 452.717 328.958 454.729 329.354C456.754 329.75 458.849 330.165 460.918 330.492C461.025 330.511 461.125 330.518 461.226 330.518C462.276 330.518 462.974 329.624 463.044 328.763C463.107 327.92 462.61 327.297 461.773 327.159ZM359.742 204.354C356.037 204.354 352.019 202.889 349.113 200.505C350.484 200.354 351.855 200.121 353.188 199.889C355.402 199.505 357.698 199.115 359.981 199.115C360.132 199.115 360.27 199.128 360.421 199.134C360.446 201.417 360.49 203.077 360.541 204.316C360.27 204.329 360.012 204.354 359.742 204.354ZM297.993 142.681C296.138 142.719 294.22 142.757 292.327 142.82C294.138 140.971 295.799 139.291 297.541 137.662C297.968 137.26 298.138 136.669 298 136.077C297.849 135.455 297.39 134.964 296.792 134.794C294.283 134.084 291.987 133.077 289.805 131.732C292.817 131.216 295.899 130.901 298.887 130.6C301.516 130.329 304.207 130.052 306.874 129.637C307.113 133.908 307.446 138.159 307.798 142.342C304.528 142.543 301.207 142.612 297.993 142.681ZM222.673 280.404C222.572 281.411 222.817 282.914 223.082 284.505C223.585 287.574 224.151 291.04 222.648 292.36C219.277 291.461 215.792 290.536 212.484 290.536C208.22 290.536 204.994 292.128 202.623 295.404C200.019 299.008 198.906 303.398 197.83 307.643C197.39 309.379 196.937 311.146 196.384 312.87C196.006 312.92 195.616 312.952 195.233 312.952C192.465 312.952 189.924 311.643 187.472 310.379C184.994 309.102 182.428 307.782 179.597 307.782C178.95 307.782 178.295 307.851 177.654 307.989C176.792 308.178 175.956 308.43 175.132 308.713C175.277 304.694 175.906 297.505 176.296 292.97C176.39 291.908 176.465 290.996 176.522 290.31C176.729 287.794 177.182 285.341 177.855 283.014C178.126 282.096 180.736 277.474 182.534 277.474C183.101 277.474 183.566 277.97 183.912 278.952C184.258 279.92 184.308 281.014 184.358 282.077C184.465 284.392 184.579 286.782 187.893 287.411C188.145 287.461 188.39 287.48 188.629 287.48C191.415 287.48 192.296 284.209 193.006 281.587C193.258 280.656 193.497 279.775 193.786 279.184C194.497 277.738 195.17 277.002 195.786 277.002C196.685 277.002 197.528 278.53 198.277 279.876C198.585 280.43 198.868 280.952 199.157 281.367C200.547 283.36 202.855 283.713 205.34 282.36C206.799 281.562 208.126 280.241 208.994 278.731C209.082 278.574 209.233 278.222 209.44 277.731C210.101 276.178 211.855 272.04 213.101 272.04C213.522 272.04 213.843 272.606 214.038 273.084C214.428 274.04 214.679 274.945 214.899 275.744C215.604 278.31 216.113 280.165 220.314 280.165C220.773 280.165 221.226 279.97 221.553 279.631C221.874 279.304 222.038 278.882 222.025 278.448C221.975 276.882 222.383 273.285 223.56 272.077C224.17 271.448 224.893 271.58 225.792 272.404C224.459 274.417 222.987 277.253 222.673 280.404ZM420.201 258.247L420.968 256.386C422.691 252.209 424.471 247.889 426 243.568C426.27 242.801 426.522 241.996 426.767 241.216C427.968 237.373 429.207 233.398 433.371 231.989C433.798 231.845 434.207 231.769 434.585 231.769C437.157 231.769 438.182 235.128 438.245 237.392C438.308 239.801 436.912 242.7 435.792 245.027C435.541 245.549 435.295 246.052 435.081 246.524C433.314 250.404 431.157 254.184 429.075 257.845C428.679 258.536 428.283 259.235 427.893 259.926C424.635 265.687 421.93 271.788 419.314 277.694C418.025 280.599 416.698 283.606 415.314 286.536C413.069 285.411 410.61 284.342 407.987 283.36C412.704 274.983 416.704 266.769 420.201 258.247ZM355.654 262.643C355.836 262.505 355.993 262.335 356.119 262.115C357.019 260.524 357.962 259.719 358.912 259.719C360.685 259.719 362.39 262.606 363.22 265.291C363.591 266.486 363.528 267.964 363.471 269.26C363.459 269.543 363.446 269.813 363.44 270.077C363.358 272.939 362.484 280.801 360.402 280.801C360.195 280.801 359.975 280.725 359.742 280.568C359.685 280.53 359.629 280.518 359.578 280.486C359.71 274.505 358.541 267.939 355.654 262.643ZM379.729 297.002C377.861 294.599 375.591 292.687 371.949 291.681C371.761 291.631 371.572 291.599 371.383 291.555C371.22 290.581 371.396 289.65 371.937 288.901C372.597 287.977 373.691 287.423 374.861 287.423C375.949 287.423 376.993 287.914 377.792 288.807C379.044 290.197 380.232 292.895 380.094 295.36C380.05 295.964 379.924 296.511 379.729 297.002ZM384.352 304.052C384.069 303.681 383.792 303.304 383.541 302.895C383.276 302.461 383.012 302.033 382.761 301.612C382.452 301.103 382.151 300.599 381.842 300.109C383.107 298.574 383.685 296.392 383.465 293.845C383.151 290.14 381.245 286.606 378.723 285.052C377.547 284.323 376.276 283.958 374.949 283.958C372.641 283.958 370.459 285.084 369.113 286.977C368.245 288.197 367.83 289.587 367.868 291.033C367.396 290.996 366.924 290.958 366.465 290.926C364.17 290.763 361.792 290.599 359.547 289.65C359.163 289.486 358.78 289.279 358.409 289.021C358.409 289.014 358.415 289.008 358.415 289.002C358.824 287.53 359.126 285.914 359.327 284.203C359.824 284.392 360.308 284.492 360.767 284.492C366.188 284.492 366.83 271.876 366.899 269.348C367.019 265.058 365.924 261.593 363.446 258.436C362.226 256.876 360.754 256.052 359.195 256.052C357.226 256.052 355.176 257.392 353.679 259.587C352.817 258.467 351.874 257.486 350.855 256.631C352.717 252.241 353.226 247.348 353.717 242.599C354.522 234.801 355.276 227.436 361.459 221.97C362.069 221.43 362.616 221.159 363.081 221.159C364.66 221.159 365.597 224.285 365.861 230.455L365.874 230.807C366.006 233.687 365.93 236.625 365.855 239.461C365.817 240.958 365.773 242.505 365.767 244.033C365.767 244.411 365.912 244.794 366.176 245.121C366.358 247.272 366.635 249.543 367.019 252.052C367.314 254.021 369.314 255.323 371.138 255.587C372.465 255.782 372.937 262.882 373.138 265.914C373.214 267.09 373.27 267.939 373.339 268.323C373.78 270.826 374.698 276.027 378.478 277.121C378.93 277.253 379.371 277.316 379.792 277.316C382.144 277.316 383.641 275.291 385.088 273.335C386.515 271.398 388 269.398 390.283 269.398C391.05 269.398 391.868 269.612 392.773 270.052C393 270.165 393.239 270.222 393.484 270.235C393.912 270.467 394.339 270.7 394.773 270.933C399.22 273.335 403.415 275.606 405.811 280.216C405.44 280.876 405.094 281.524 404.717 282.191C402.006 281.285 399.019 280.398 395.597 279.486C395.295 278.895 394.641 278.492 393.956 278.492C393.371 278.492 392.874 278.782 392.559 279.31C387.736 287.241 385.616 296.059 384.352 304.052ZM413.283 316.719C413.232 316.769 413.182 316.819 413.138 316.876C412.541 316.914 411.949 317.002 411.358 317.121C411.289 316.939 411.22 316.757 411.157 316.574C409.975 313.373 408.855 310.348 404.666 308.656C403.666 308.253 402.497 308.058 401.075 308.058C399.742 308.058 398.377 308.228 397.063 308.392C396.207 308.499 395.396 308.599 394.629 308.65C391.868 308.819 389.427 308.197 387.371 306.876C388.484 299.197 390.27 290.511 394.522 282.757C397.081 283.436 400.849 284.467 404.641 285.769C404.855 285.895 405.088 285.977 405.295 285.996C408.49 287.121 411.434 288.354 414.037 289.669C414.05 290.084 414.213 290.48 414.515 290.807C415.107 291.448 416.113 291.599 416.729 291.121C420.792 293.474 424.05 296.172 426.415 299.134C423.993 305.819 418.421 311.775 413.283 316.719Z" fill="#FF5B0D"/>
<path d="M369.98 349.283V349.61C369.98 350.705 370.842 351.277 371.691 351.277C372.54 351.277 373.402 350.705 373.402 349.61V349.283C373.408 347.094 369.98 347.094 369.98 349.283Z" fill="#FF5B0D"/>
<path d="M375.269 349.046C376.19 349.046 376.936 348.28 376.936 347.336C376.936 346.391 376.19 345.625 375.269 345.625C374.349 345.625 373.603 346.391 373.603 347.336C373.603 348.28 374.349 349.046 375.269 349.046Z" fill="#FF5B0D"/>
<path d="M371.087 342.787C371.087 341.938 370.515 341.077 369.421 341.077C368.326 341.077 367.754 341.938 367.754 342.787C367.754 343.636 368.326 344.498 369.421 344.498C370.515 344.498 371.087 343.636 371.087 342.787Z" fill="#FF5B0D"/>
<path d="M388.822 349.694C388.18 349.052 387.036 349.052 386.4 349.694C385.734 350.36 385.734 351.448 386.4 352.115L386.727 352.442C387.048 352.763 387.476 352.939 387.941 352.939C388.4 352.939 388.834 352.763 389.155 352.442C389.809 351.788 389.809 350.675 389.155 350.021L388.822 349.694Z" fill="#FF5B0D"/>
<path d="M381.759 336.851C380.665 336.851 380.093 337.712 380.093 338.561C380.093 339.41 380.665 340.272 381.759 340.272C382.854 340.272 383.426 339.41 383.426 338.561C383.426 337.712 382.854 336.851 381.759 336.851Z" fill="#FF5B0D"/>
<path d="M259.974 358.485C259.754 357.705 259.094 357.164 258.37 357.164C258.075 357.164 257.779 357.252 257.496 357.428C253.811 359.693 250.276 360.699 246.031 360.699C243.553 360.699 240.949 360.365 238.194 360.02C237.54 359.938 236.867 359.85 236.182 359.768C235.496 359.686 234.666 359.598 233.785 359.542C234.471 359.384 235.068 358.837 235.068 357.931V357.604C235.068 355.416 231.641 355.416 231.641 357.604V357.931C231.641 358.762 232.138 359.29 232.748 359.497C232.559 359.491 232.364 359.485 232.175 359.485C227.798 359.485 224.936 360.931 223.421 363.906C223.138 364.466 223.15 365.064 223.471 365.586C223.811 366.133 224.421 366.491 225.037 366.491C225.616 366.491 226.106 366.17 226.395 365.611C227.389 363.655 229.433 362.705 232.634 362.705C235.131 362.705 237.861 363.265 240.27 363.762C241.427 364.001 242.515 364.221 243.408 364.347C248.59 365.045 253.741 363.762 259.232 360.391C259.905 359.963 260.188 359.24 259.974 358.485Z" fill="#FF5B0D"/>
<path d="M248.295 372.134C247.2 372.134 246.628 372.996 246.628 373.845C246.628 374.694 247.2 375.556 248.295 375.556C249.389 375.556 249.961 374.694 249.961 373.845C249.961 372.996 249.389 372.134 248.295 372.134Z" fill="#FF5B0D"/>
<path d="M236.66 375.292C236.629 375.242 236.572 375.179 236.522 375.116L236.497 375.084C236.207 374.443 235.654 374.072 234.968 374.072C234.484 374.072 233.968 374.317 233.629 374.707C233.339 375.034 233.207 375.43 233.258 375.814C233.308 376.223 233.358 376.6 233.61 376.933C233.647 376.99 233.698 377.053 233.754 377.116C234.037 377.764 234.603 378.147 235.295 378.147C235.78 378.147 236.295 377.902 236.635 377.512C236.924 377.185 237.056 376.789 237.006 376.399C236.962 376.003 236.912 375.631 236.66 375.292Z" fill="#FF5B0D"/>
<path d="M269.641 375.468V375.795C269.641 376.89 270.502 377.462 271.351 377.462C272.2 377.462 273.062 376.89 273.062 375.795V375.468C273.068 373.286 269.641 373.286 269.641 375.468Z" fill="#FF5B0D"/>
<path d="M267.786 375.234C268.706 375.234 269.452 374.468 269.452 373.523C269.452 372.578 268.706 371.812 267.786 371.812C266.865 371.812 266.119 372.578 266.119 373.523C266.119 374.468 266.865 375.234 267.786 375.234Z" fill="#FF5B0D"/>
<path d="M273.629 367.26C272.534 367.26 271.962 368.121 271.962 368.97C271.962 369.819 272.534 370.681 273.629 370.681C274.723 370.681 275.295 369.819 275.295 368.97C275.295 368.121 274.723 367.26 273.629 367.26Z" fill="#FF5B0D"/>
<path d="M254.226 375.881L253.899 376.208C253.245 376.862 253.245 377.975 253.899 378.629C254.22 378.95 254.647 379.126 255.113 379.126C255.572 379.126 256.006 378.95 256.326 378.629L256.653 378.302C257.32 377.635 257.32 376.547 256.653 375.881C256.012 375.239 254.867 375.239 254.226 375.881Z" fill="#FF5B0D"/>
<path d="M261.289 363.04C260.194 363.04 259.622 363.902 259.622 364.751C259.622 365.6 260.194 366.461 261.289 366.461C262.383 366.461 262.955 365.6 262.955 364.751C262.955 363.902 262.377 363.04 261.289 363.04Z" fill="#FF5B0D"/>
<path d="M396.339 328.822C396.339 329.671 396.911 330.532 398.006 330.532C399.1 330.532 399.672 329.671 399.672 328.822C399.672 327.973 399.1 327.111 398.006 327.111C396.911 327.111 396.339 327.966 396.339 328.822Z" fill="#FF5B0D"/>
<path d="M401.665 322.65V322.323C401.665 320.134 398.237 320.134 398.237 322.323V322.65C398.237 323.745 399.099 324.317 399.948 324.317C400.803 324.311 401.665 323.738 401.665 322.65Z" fill="#FF5B0D"/>
<path d="M385.986 325.007C387.08 325.007 387.653 324.146 387.653 323.297C387.653 322.448 387.08 321.586 385.986 321.586C384.892 321.586 384.319 322.448 384.319 323.297C384.319 324.146 384.892 325.007 385.986 325.007Z" fill="#FF5B0D"/>
<path d="M427.238 330.675H426.911C425.816 330.675 425.244 331.537 425.244 332.386C425.244 333.235 425.816 334.097 426.911 334.097H427.238C428.332 334.097 428.904 333.235 428.904 332.386C428.904 331.537 428.332 330.675 427.238 330.675Z" fill="#FF5B0D"/>
</svg>
