<svg width="309" height="252" viewBox="0 0 309 252" fill="none" xmlns="http://www.w3.org/2000/svg">
<path d="M308.756 65.0483C309.026 63.7234 308.363 62.1164 306.782 60.2717C306.052 57.53 304.974 54.8462 303.847 52.1113C301.599 46.6722 298.265 41.4709 294.993 36.6603C289.007 27.851 282.063 19.3203 271.878 16.5617C271.691 16.5107 271.505 16.5039 271.318 16.5447C269.744 15.2299 268.273 14.1156 266.812 13.1406C263.804 11.1293 259.896 8.81577 256.321 8.81577C256.147 8.81577 255.974 8.82256 255.804 8.83276C251.438 4.72539 246.819 2.24533 242.074 1.45375C240.746 1.23292 239.416 1.12082 238.122 1.12082C235.027 1.12082 232.039 1.73573 228.994 3.00293C228.927 2.93159 228.86 2.87044 228.784 2.81608C226.469 1.20915 223.361 0.431152 219.279 0.431152C217.562 0.431152 215.854 0.567045 214.56 0.685952C208.174 1.26689 202.584 2.52052 197.478 4.52155C197.382 4.55892 197.288 4.60308 197.192 4.64385C197.128 4.67102 197.065 4.7016 196.998 4.72878C196.071 4.49097 195.081 4.37206 194.05 4.37206C190.845 4.37206 187.624 5.50678 184.599 6.67206C179.473 8.64251 170.922 13.9627 166.72 17.0441C161.878 20.5943 157.609 26.0674 154.074 30.9561C151.429 34.6117 149.118 39.2151 147.207 44.6338L147.197 44.661C147.154 44.7595 146.99 44.9837 146.847 45.1808C146.67 45.4254 146.487 45.6802 146.413 45.8398C144.086 50.8849 143.582 55.5392 143.539 60.9783C143.505 65.1604 144.966 69.5396 147.444 72.6923C149.198 74.921 151.369 76.0523 153.9 76.0523C156.485 76.0523 159.36 74.8326 162.014 72.6176C161.551 77.4384 163.122 82.1743 166.46 85.9793C170.285 90.3414 175.874 92.9472 181.411 92.9472C186.206 92.9472 190.392 91.0209 193.516 87.3722C193.76 87.5148 194.043 87.5794 194.297 87.5522C196.655 94.6186 202.431 100.846 209.781 104.233L186.803 210.637C185.873 210.899 185.139 211.188 184.495 211.548C183.912 211.521 183.188 211.843 183.101 212.638C181.957 222.885 177.449 242.521 176.815 244.94C176.678 244.733 176.571 244.526 176.498 244.315C176.278 243.67 175.714 243.442 175.264 243.442C174.847 243.442 174.464 243.625 174.257 243.921C174.13 244.104 174.01 244.417 174.164 244.862C175.798 249.622 183.372 251.31 189.358 251.31C190.702 251.31 191.969 251.225 193.026 251.066C193.763 250.953 193.987 250.362 193.95 249.887C193.903 249.241 193.386 248.552 192.523 248.677C191.806 248.786 191.049 248.837 190.208 248.837H190.178C190.255 248.49 190.402 247.818 190.595 246.931C191.429 243.106 193.166 235.146 193.907 232.53C194.317 231.086 194.767 229.632 195.204 228.229C196.391 224.41 197.618 220.462 198.089 216.352C198.506 215.91 198.522 215.22 198.122 214.701C198.109 214.684 198.095 214.67 198.082 214.656L198.065 214.639C197.992 214.5 197.895 214.388 197.802 214.32C197.182 213.573 196.508 212.941 195.798 212.441L218.639 106.683C219.346 106.747 220.056 106.781 220.75 106.781C228.387 106.781 234.433 102.922 237.805 95.9096C240.533 105.256 250.674 110.831 258.999 110.831C259.145 110.831 259.292 110.831 259.435 110.827C263.938 110.729 268.083 108.867 271.428 105.446C274.403 102.402 276.571 98.2708 277.541 93.7897C278.912 96.2494 280.849 97.9752 283.297 98.9197C284.381 99.3375 285.565 99.5482 286.822 99.5482C289.52 99.5482 292.655 98.5426 295.65 96.7114C305.158 90.9122 310.097 75.6616 308.756 65.0483ZM292.025 36.5482C295.026 40.8084 297.748 45.2657 300.112 49.7943C301.253 51.9822 302.236 54.323 303.034 56.7555C301.923 55.8654 300.889 55.1179 300.185 54.6151L299.989 54.4724C299.398 54.0478 298.765 53.6163 298.108 53.1849C295.31 42.0688 287.242 32.7329 279.899 24.8579C278.431 23.285 277.161 21.9702 275.944 20.7676C282.78 24.2736 287.903 30.6912 292.025 36.5482ZM296.093 55.1893C296.07 55.7023 296.03 56.2798 296 56.7453C295.967 57.2175 295.95 57.4689 295.957 57.5198C294.946 62.7925 290.244 65.1536 286.035 65.1536C282.68 65.1536 279.432 63.7709 277.131 61.3622C273.439 57.5063 271.755 51.245 271.982 42.2251C273.649 42.9555 275.317 43.7063 276.934 44.4571C282.01 46.8115 287.029 49.6279 291.881 52.3559L293.132 53.0558C294.049 53.5688 294.993 54.1293 296.007 54.7646C296.033 54.9073 296.063 55.05 296.093 55.1893ZM266.986 16.1948L267.493 16.5583C271.751 19.6023 275.417 23.5602 278.958 27.389L279.782 28.2791C285.298 34.2244 292.001 42.2013 295.046 51.3095C292.972 50.1035 290.818 48.9654 288.73 47.8647C287.229 47.0731 285.675 46.2509 284.174 45.4186C280.399 43.3224 276.334 41.3044 272.092 39.4189C272.145 30.7149 267.253 23.2102 262.237 16.2661C260.976 14.5199 259.676 12.8994 258.362 11.4453C261.383 12.1723 264.608 14.4893 266.986 16.1948ZM238.112 3.5635C239.612 3.5635 241.136 3.72657 242.651 4.04931C250.298 5.68683 255.83 11.8394 259.799 17.0169C264.708 23.4209 269.29 30.4397 269.654 38.3589C259.029 33.8439 246.933 29.9743 233.696 26.8624C226.256 25.1127 218.796 23.9712 211.525 23.4752C212.866 19.0655 216.294 14.6558 222.004 9.99804C227.24 5.73099 232.659 3.5635 238.112 3.5635ZM215.3 79.7689C215.16 79.7689 215.024 79.7723 214.884 79.7757C214.82 79.4054 214.89 79.0827 215.094 78.8245C215.521 78.2809 216.568 77.9684 217.965 77.9684C218.909 77.9684 219.893 78.1179 220.413 78.3353C221.417 78.7599 224.372 80.4246 224.502 81.7632C224.538 82.1301 224.358 82.4426 223.955 82.7178C223.925 82.7382 223.898 82.762 223.871 82.7858C221.494 80.8969 218.299 79.7689 215.3 79.7689ZM221.133 83.805L220.85 85.1265C219.316 84.2704 217.992 83.7744 216.708 83.5705L216.971 82.3509C218.465 82.5853 219.903 83.0881 221.133 83.805ZM174.104 29.5327C174.1 29.5191 174.097 29.5055 174.094 29.4919C174.097 29.4851 174.097 29.4783 174.1 29.4715C177.075 28.5407 180.377 27.7627 184.195 27.0968C190.068 26.0742 196.224 25.5544 202.488 25.5544C204.215 25.5544 205.986 25.5952 207.747 25.6733C200.713 37.8595 193.633 44.9259 186.1 47.2735C184.959 47.6268 183.798 47.8103 182.651 47.8103C178.703 47.8103 175.704 45.7277 174.631 42.2421C173.667 39.1097 173.84 35.6343 174.01 32.2709C174.054 31.425 174.097 30.5485 174.12 29.7093C174.127 29.6414 174.114 29.5836 174.104 29.5327ZM209.648 40.489C207.583 44.8308 205.826 48.663 204.275 52.1996C202.174 48.7853 200.06 45.4729 197.992 42.3474L198.012 42.327C198.129 42.2149 198.245 42.1028 198.359 41.9907C201.941 38.505 205.332 34.1904 208.45 29.159C208.177 33.3241 208.581 37.1325 209.648 40.489ZM210.855 43.5263C211.429 44.7255 212.092 45.8602 212.833 46.8998C213.183 50.151 213.433 53.4702 213.676 56.6841C214.027 61.3452 214.39 66.1558 215.067 70.8645C212.042 65.3133 208.924 59.881 205.796 54.7069C207.283 51.2586 208.937 47.6031 210.855 43.5263ZM196.204 44.0019C202.641 53.7454 208.841 64.2533 215.16 76.1134C214.67 76.3071 214.237 76.5483 213.866 76.8336C210.605 70.0118 206.453 63.4788 202.434 57.1631C199.78 52.9878 197.268 49.0435 195.004 45.0313C195.394 44.7051 195.798 44.362 196.204 44.0019ZM215.107 49.5735C215.717 50.1748 216.391 50.7558 217.105 51.3027C217.238 53.2222 217.351 55.1757 217.462 57.0646C217.818 63.1662 218.185 69.475 219.259 75.6072C218.942 75.5732 218.619 75.5562 218.295 75.5562C218.172 75.5562 218.045 75.5597 217.922 75.563C216.628 69.1761 216.101 62.2727 215.591 55.5936C215.437 53.6095 215.284 51.5575 215.107 49.5735ZM229.214 58.3997L228.924 58.2231C227.28 57.2073 225.419 56.0556 223.565 56.0352C223.648 55.7397 223.745 55.4203 223.851 55.0738C225.606 55.777 227.547 56.3885 229.624 56.8981C229.481 57.4009 229.344 57.9071 229.214 58.3997ZM230.178 64.7256C230.718 62.3169 231.275 59.8232 231.975 57.4145C234.386 57.8902 236.864 58.1959 239.342 58.325C239.222 60.5944 239.102 62.8604 238.975 65.1299C234.133 69.2882 230.285 72.5089 227.53 74.7137C228.674 71.4523 229.437 68.0346 230.178 64.7256ZM227.853 60.3736C228.11 60.5401 228.364 60.7031 228.607 60.856C228.404 61.7189 228.203 62.5954 228.003 63.4788C226.072 62.2523 224.155 61.4675 222.294 61.1414C222.494 60.2853 222.694 59.4257 222.904 58.573C223.108 58.5221 223.324 58.4983 223.545 58.4983C224.955 58.4949 226.496 59.4937 227.853 60.3736ZM227.433 66.0166C227.22 66.9576 227.006 67.8715 226.799 68.7344C225.069 67.9123 223.061 67.0562 221.003 67.0562C220.92 67.0562 220.833 67.0562 220.747 67.0595C220.767 67.012 220.783 66.961 220.8 66.9101C221.103 65.9316 221.39 64.8819 221.727 63.5093C223.535 63.7913 225.402 64.6135 227.433 66.0166ZM220.053 60.0814C219.963 58.6953 219.876 57.316 219.793 55.9537C219.733 54.9583 219.669 53.973 219.609 52.9946C220.26 53.3785 220.927 53.742 221.604 54.0716C221 56.0386 220.52 58.094 220.053 60.0814ZM221.597 75.0263C222.681 75.417 223.638 76.0591 224.452 76.6332L224.402 76.7623C224.358 76.8744 224.318 76.9831 224.275 77.0918C224.252 77.1496 224.238 77.2006 224.225 77.2481C224.085 77.3501 223.948 77.4452 223.818 77.5335C223.184 77.0715 222.494 76.6536 221.817 76.3173C221.744 75.8926 221.67 75.4611 221.597 75.0263ZM221.47 72.4341C221.387 72.4171 221.303 72.4069 221.207 72.4035C221.073 71.4183 220.953 70.4433 220.85 69.5056C222.747 69.509 224.605 70.4059 226.099 71.1295C226.129 71.1431 226.159 71.1567 226.186 71.1669C225.896 72.2541 225.612 73.2393 225.312 74.1736C224.325 73.5111 223.014 72.7433 221.47 72.4341ZM250.921 57.564C251.668 57.4179 252.405 57.2549 253.119 57.0714C246.753 62.9488 231.155 76.4837 226.456 79.7214C226.369 79.7791 226.289 79.8505 226.209 79.932C226.002 79.6161 225.752 79.2967 225.459 78.9774C231.288 74.6526 245.732 62.3508 250.921 57.564ZM241.493 62.959C241.577 61.437 241.66 59.9116 241.74 58.3896C243.541 58.4066 245.332 58.3182 247.053 58.1382L246.983 58.1993C245.565 59.4291 243.644 61.1006 241.493 62.959ZM240.753 75.896L241.06 70.603C248.64 64.2228 255.91 57.8698 258.358 55.4883C258.455 55.3931 258.522 55.3014 258.558 55.2063C259.759 54.6729 260.913 54.0682 261.987 53.4023C268.24 63.7539 272.759 75.4815 275.427 88.2623C269.174 89.6314 263.007 89.8216 257.268 89.8216C255.49 89.8216 253.673 89.8012 251.915 89.7809L250.204 89.7605C249.554 89.7537 248.904 89.7503 248.257 89.7503C246.322 89.7503 244.371 89.7775 242.487 89.8013C241.643 89.8148 240.803 89.825 239.963 89.8352C240.216 85.1877 240.49 80.4654 240.753 75.896ZM242.157 55.9231C238.655 55.9231 234.977 55.5528 231.518 54.8496C224.452 53.4159 218.992 50.4874 215.287 46.149C213.906 44.5353 212.829 42.6328 212.082 40.5128C212.066 40.3905 212.026 40.2818 211.979 40.2037C210.662 36.2628 210.401 31.442 211.202 25.8703C218.192 26.3765 225.509 27.4909 232.956 29.1861C244.845 31.8904 257.074 35.8925 269.304 41.0768C264.401 53.9934 250.198 55.9231 242.157 55.9231ZM197.252 7.26659C197.542 7.2598 197.815 7.14087 198.022 6.93024C202.918 4.8171 208.17 3.92362 212.202 3.37665C214.297 3.09467 216.731 2.7923 219.129 2.7923C222.147 2.7923 224.532 3.26114 226.416 4.22598C224.702 5.13647 222.994 6.22701 221.203 7.55876C217.545 10.2766 211.118 15.9332 209.094 23.3393C207.023 23.2374 204.932 23.1865 202.881 23.1865C195.951 23.1865 189.051 23.7776 182.368 24.9395C179.963 25.3573 177.545 25.9179 175.174 26.611C176.925 23.1185 180.063 20.0168 182.594 17.5163L182.641 17.4688C187.083 13.076 191.862 9.73985 197.252 7.26659ZM153.89 35.1552C156.632 30.7897 161.311 24.7356 165.579 21.0495C169.545 17.6284 177.705 12.529 182.081 10.4261C184.782 9.12493 188.814 7.18844 192.626 6.82832C188.527 9.10793 184.512 12.2165 180.363 16.3171C176.995 19.6464 173.67 23.3156 172.176 27.5656C168.297 28.9178 164.676 30.63 161.411 32.6514C158.306 34.5743 154.384 37.1359 151.286 40.0576C152.1 38.2536 152.957 36.6433 153.89 35.1552ZM149.308 46.0641L149.345 46.0505L149.361 46.0097C151.416 41.3146 159.01 36.8505 163.545 34.1836L164.299 33.742C166.467 32.4646 168.781 31.3706 171.366 30.4092C170.625 32.4374 169.985 34.5301 169.368 36.5549C168.474 39.4902 167.547 42.524 166.296 45.3914C164.846 48.7174 162.925 51.194 160.584 52.75C159.526 53.4532 158.266 53.827 156.942 53.827C154.524 53.827 151.996 52.5869 150.495 50.6674C149.395 49.2508 148.971 47.6166 149.308 46.0641ZM161.944 69.21C161.838 69.3867 161.731 69.5634 161.628 69.74C159.323 72.0366 156.622 73.3548 154.211 73.3548C151.646 73.3548 149.528 71.8804 148.084 69.0945C145.82 64.7154 145.896 55.2199 146.934 50.4942C147.407 52.0603 148.348 53.4397 149.735 54.6083C149.982 54.8156 150.275 55.0058 150.662 55.2097C152.366 59.8029 156.121 64.2805 162.134 68.8941L161.944 69.21ZM153.524 56.0352C154.01 56.093 154.521 56.1202 155.051 56.1202C158.116 56.1202 161.497 55.1587 163.272 53.7828C168.037 50.0933 169.938 43.798 171.546 38.1177C171.662 40.3192 171.999 42.1096 172.596 43.7165C173.473 46.0743 174.971 47.8069 177.048 48.8668C172.406 53.4736 168.051 59.1947 163.358 66.8557C158.586 63.2749 155.278 59.6364 153.524 56.0352ZM181.284 90.5283C176.118 90.5283 170.872 87.8818 167.594 83.6249C164.709 79.8776 163.702 75.3185 164.756 70.7762C172.823 76.4464 182.521 81.1313 192.826 84.3383C190.071 88.3336 185.979 90.5283 181.284 90.5283ZM193.777 82.0621C184.876 79.205 176.468 75.3286 168.781 70.5418C167.567 69.7876 166.403 69.0232 165.316 68.269C170.162 60.3464 174.427 54.7714 179.136 50.1952C179.273 50.0627 179.373 49.9098 179.436 49.7366C180.754 50.0525 182.258 50.1816 183.858 50.1205C186.91 50.005 190.038 48.7412 193.416 46.2645C195.818 50.7931 198.616 55.1757 201.284 59.2797C197.965 67.4944 195.511 74.9481 193.777 82.0621ZM202.884 61.7495C206.62 67.508 209.935 72.7569 212.629 78.5493C212.382 79.3613 212.459 80.2853 212.853 81.2943C212.956 81.5627 213.123 81.7564 213.346 81.8719C213.526 82.1097 213.79 82.2354 214.117 82.2354C214.153 82.2354 214.19 82.2354 214.227 82.232C214.313 82.2252 214.403 82.2218 214.493 82.2218C214.51 82.2218 214.527 82.2218 214.543 82.2218L213.446 87.3008C208.597 86.2544 203.501 84.9397 196.945 83.0406C196.768 82.9896 196.595 82.9352 196.421 82.8809C196.304 82.8435 196.188 82.8062 196.068 82.7722C197.682 76.161 199.913 69.2814 202.884 61.7495ZM196.141 85.3372C202.141 87.0936 207.64 88.4967 212.943 89.6314L210.311 101.818C203.231 98.3285 197.949 92.1862 196.141 85.3372ZM192.676 228.446C192.333 229.533 191.976 230.658 191.642 231.765C190.552 235.38 189.778 239.165 189.028 242.824C188.634 244.747 188.227 246.734 187.777 248.67C187.774 248.681 187.774 248.694 187.77 248.704C186.663 248.586 185.473 248.392 184.035 248.103L183.918 248.079C182.551 247.801 180.493 247.383 178.849 246.564C181.717 237.439 183.188 227.841 184.609 218.563C184.802 217.293 184.999 216.026 185.196 214.755C187.367 216.257 190.528 217.187 193.496 217.187C194.227 217.187 194.937 217.13 195.604 217.021C195.057 220.938 193.847 224.753 192.676 228.446ZM192.863 214.714C191.405 214.643 189.931 214.323 188.587 213.79L216.191 85.9623C217.718 86.1627 219.072 86.8727 220.31 87.6202L192.863 214.714ZM220.773 104.423C220.24 104.423 219.696 104.4 219.149 104.355L221.964 91.3165C227.436 92.142 232.696 92.2745 236.701 92.2949C234.01 100.119 228.357 104.423 220.773 104.423ZM238.429 74.5608C238.138 79.5719 237.838 84.7562 237.558 89.8556C237.311 89.8556 237.068 89.8556 236.821 89.8556C233.263 89.8556 228.56 89.7707 223.725 89.1218C223.374 89.0742 223.021 89.0199 222.671 88.9655L222.481 88.9349L223.261 85.3236C223.695 85.507 224.228 85.3983 224.598 85.0654C224.762 85.0416 224.922 84.9805 225.079 84.8751C226.309 84.036 226.923 83.0576 226.906 81.9602C226.983 81.9262 227.053 81.8855 227.123 81.8379C228.931 80.5911 232.982 77.3534 238.539 72.7161L238.429 74.5608ZM258.552 108.405C258.438 108.408 258.325 108.408 258.212 108.408C249.747 108.408 241.3 101.634 239.752 93.6131C239.779 93.1748 239.802 92.7331 239.826 92.2915C241.11 92.2813 242.394 92.2677 243.684 92.2507C245.682 92.2269 247.75 92.1998 249.804 92.1998H250.084C250.841 92.1998 251.595 92.2031 252.345 92.2031C253.259 92.2066 254.17 92.2066 255.077 92.2066C261.65 92.2066 268.647 92.0877 275.617 90.6642C274.79 99.3375 268.683 108.181 258.552 108.405ZM277.758 87.6949C275.02 74.5846 270.384 62.5921 263.974 52.04C266.272 50.2971 268.173 48.218 269.63 45.8568C270.091 56.0896 273.439 62.9556 279.585 66.2612C281.6 67.3449 283.717 67.8919 285.885 67.8919C289.937 67.8919 293.732 65.9316 296.1 62.6294C296.264 67.7254 296.687 72.6787 299.558 77.2855C299.665 77.4554 299.775 77.6048 299.879 77.7509L299.885 77.7611C299.572 77.9888 299.262 78.2198 298.952 78.4474C296.744 80.0747 294.659 81.6137 292.145 82.6669C287.459 84.6237 283.034 86.1933 278.608 87.4639C278.381 87.5284 278.155 87.5896 277.928 87.6473L277.758 87.6949ZM296.754 92.8792C293.769 95.6005 289.967 97.1327 286.342 97.0376C281.56 96.9187 279.405 92.6278 278.535 90.0017L278.581 89.9881C278.765 89.9439 278.952 89.8964 279.135 89.8454C283.604 88.6394 287.969 86.9645 292.025 85.3372C295.403 83.9816 298.111 82.018 300.979 79.9422L301.619 79.4802C302.477 80.0034 303.36 80.1121 304.191 79.7961C302.657 85.259 300.022 89.8998 296.754 92.8792ZM305.828 75.0263C305.365 76.3139 304.761 76.9661 304.031 76.9661C302.216 76.9661 299.932 72.9165 299.355 71.1873C298.328 68.0957 298.348 64.5285 298.365 61.0768C298.371 59.7247 298.378 58.4473 298.325 57.2175C298.365 56.9627 298.401 56.6841 298.435 56.3647C299.058 56.7962 299.609 57.1971 300.119 57.581C301.249 58.4371 305.611 62.0723 306.268 64.1922L306.272 64.2194C306.922 67.4978 305.948 74.6729 305.828 75.0263Z" fill="#FF5B0D"/>
<path d="M144.215 158.337C143.905 158.337 143.645 158.5 143.485 158.799C142.998 159.704 141.581 160.754 140.488 160.754C139.874 160.754 139.444 160.431 139.204 159.795C139.058 159.408 138.724 159.173 138.311 159.173C137.987 159.173 137.687 159.323 137.527 159.561C137.384 159.772 137.361 160.04 137.464 160.312C138.004 161.75 139.094 162.542 140.534 162.542C142.278 162.542 144.181 161.359 145.062 159.727C145.222 159.428 145.222 159.112 145.062 158.833C144.885 158.534 144.548 158.337 144.215 158.337Z" fill="#FF5B0D"/>
<path d="M127.759 178.109C127.812 177.718 127.636 177.256 127.122 177.109C126.232 176.854 125.572 176.144 124.875 175.389C124.272 174.736 123.652 174.063 122.852 173.686C122.278 173.414 121.645 173.288 120.858 173.288C120.241 173.288 119.605 173.366 118.991 173.444C118.168 173.546 117.281 173.642 116.568 173.567C115.981 173.509 115.701 173.931 115.681 174.352C115.658 174.821 115.948 175.352 116.541 175.416C116.784 175.444 117.034 175.457 117.308 175.457C117.871 175.457 118.435 175.399 118.978 175.345C119.518 175.291 120.028 175.24 120.538 175.24C121.388 175.24 122.492 175.369 123.505 176.368C123.755 176.613 123.979 176.865 124.199 177.109C124.875 177.861 125.515 178.575 126.645 178.894C126.735 178.918 126.822 178.932 126.909 178.932C127.392 178.935 127.706 178.52 127.759 178.109Z" fill="#FF5B0D"/>
<path d="M143.003 180.598C142.9 180.598 142.8 180.601 142.7 180.605C143.023 180.492 143.287 180.207 143.287 179.758V179.581C143.287 178.398 141.47 178.398 141.47 179.581V179.758C141.47 180.248 141.787 180.54 142.15 180.628C141.683 180.659 141.243 180.707 140.88 180.751C140.517 180.795 140.16 180.843 139.813 180.887C138.353 181.077 136.973 181.254 135.659 181.254C133.409 181.254 131.536 180.71 129.582 179.486C129.432 179.391 129.275 179.343 129.119 179.343C128.735 179.343 128.385 179.636 128.269 180.057C128.155 180.465 128.305 180.859 128.662 181.08C131.569 182.903 134.299 183.596 137.05 183.219C137.523 183.154 138.1 183.032 138.713 182.903C139.99 182.634 141.437 182.332 142.76 182.332C144.46 182.332 145.54 182.845 146.067 183.902C146.217 184.205 146.481 184.378 146.787 184.378C147.114 184.378 147.437 184.188 147.617 183.889C147.787 183.607 147.797 183.287 147.644 182.981C146.841 181.38 145.324 180.598 143.003 180.598Z" fill="#FF5B0D"/>
<path d="M50.6281 170.541L50.4614 170.582C49.9113 170.711 49.3679 170.84 48.8279 170.962C48.3812 171.064 48.1211 171.431 48.1712 171.897C48.2178 172.322 48.5512 172.778 49.0779 172.778C49.1479 172.778 49.2213 172.768 49.2946 172.754L49.7013 172.662C53.1383 171.88 56.692 171.068 60.2657 171.068C60.8925 171.068 61.5125 171.092 62.1126 171.143C62.986 171.214 63.8761 171.323 64.7362 171.431C66.223 171.615 67.7632 171.805 69.28 171.805C70.3368 171.805 71.2902 171.714 72.1903 171.527C72.637 171.435 72.897 171.078 72.8504 170.616C72.8037 170.126 72.387 169.602 71.7236 169.735C71.4602 169.789 71.1769 169.837 70.8368 169.878C70.3968 168.402 70.0901 166.91 69.7934 165.461C68.9833 161.494 68.2165 157.747 64.8529 154.772C64.2028 154.195 63.4594 153.729 62.6426 153.379C62.5093 152.984 62.1293 152.61 61.5692 152.702C61.3158 152.746 61.0725 152.794 60.8424 152.848C60.3624 152.763 59.869 152.719 59.3823 152.719C56.942 152.719 54.6351 153.763 53.0583 155.582C52.8116 155.867 52.7549 156.245 52.905 156.588C53.0616 156.942 53.3983 157.183 53.7417 157.183C53.9717 157.183 54.1818 157.078 54.3551 156.88C54.9685 156.173 55.6519 155.626 56.3953 155.245C52.5749 158.845 51.5048 165.268 50.6347 170.486L50.6281 170.541ZM60.7058 154.817C62.746 155.347 64.6662 156.799 65.9797 158.805C67.3798 160.94 67.8165 163.619 68.2432 166.206C68.4499 167.471 68.6666 168.776 68.99 169.993H68.9766C67.3831 169.993 65.7463 169.776 64.1628 169.568C62.976 169.412 61.7459 169.249 60.5591 169.181C60.2324 169.164 59.8923 169.154 59.5523 169.154C57.1454 169.154 54.7618 169.602 52.5349 170.102C53.4684 164.408 54.7918 156.738 60.7058 154.817Z" fill="#FF5B0D"/>
<path d="M48.5855 177.181C49.5989 177.181 50.3657 177.484 50.9991 178.133C51.1724 178.313 51.3858 178.409 51.6125 178.409C51.9758 178.409 52.3326 178.154 52.4826 177.79C52.6226 177.45 52.5492 177.096 52.2859 176.824C51.3324 175.845 50.2657 175.39 48.9222 175.39C48.0254 175.39 47.1287 175.587 46.1786 175.794C45.1018 176.029 43.985 176.274 42.8716 176.202C42.2782 176.172 41.9948 176.624 41.9848 177.049C41.9715 177.521 42.2649 178.018 42.8549 178.055C43.8117 178.113 44.8651 177.865 45.8819 177.623C46.7853 177.402 47.7254 177.181 48.5855 177.181Z" fill="#FF5B0D"/>
<path d="M66.4688 176.464C65.142 175.941 63.7719 175.4 62.3451 175.091C61.9884 175.012 61.6183 174.972 61.2483 174.972C59.7081 174.972 58.278 175.645 56.8945 176.294C56.2778 176.583 55.6377 176.882 55.0076 177.114C54.4943 177.301 54.3342 177.794 54.4042 178.198C54.4976 178.756 54.991 179.082 55.5077 178.892C56.1444 178.66 56.7545 178.378 57.3479 178.106C58.698 177.488 59.9748 176.903 61.4316 176.903C61.815 176.903 62.2017 176.944 62.5818 177.029C63.8319 177.301 65.0487 177.807 66.2288 178.293C67.2256 178.708 68.2557 179.133 69.3058 179.422C69.3925 179.446 69.4758 179.456 69.5591 179.456C70.0559 179.456 70.3726 179.038 70.4259 178.623C70.4759 178.232 70.2992 177.776 69.7858 177.637C68.6557 177.328 67.5423 176.889 66.4688 176.464Z" fill="#FF5B0D"/>
<path d="M41.0364 181.327C39.7029 180.949 38.4261 180.358 37.1927 179.79C35.9892 179.232 34.7424 178.658 33.439 178.274C32.8756 178.11 32.2888 178.025 31.6988 178.025C30.1719 178.025 28.5951 178.546 26.7349 179.668C26.3749 179.882 26.2215 180.269 26.3282 180.674C26.4416 181.095 26.8049 181.401 27.195 181.401C27.3517 181.401 27.505 181.357 27.6517 181.265C29.0852 180.405 30.3486 180.004 31.6288 180.004C32.6922 180.004 33.779 180.273 35.0491 180.851C35.3891 181.004 35.7225 181.16 36.0559 181.316C37.5527 182.01 38.9662 182.67 40.5497 183.118C40.6364 183.142 40.7264 183.156 40.8097 183.156C41.2998 183.156 41.6131 182.741 41.6698 182.33C41.7265 181.932 41.5498 181.473 41.0364 181.327Z" fill="#FF5B0D"/>
<path d="M50.1436 180.152C49.3402 180.152 48.4634 180.315 47.6033 180.624C47.09 180.808 46.9299 181.298 46.9999 181.702C47.0933 182.263 47.5867 182.59 48.1067 182.403C49.6702 181.838 50.9337 181.869 51.8704 182.484C52.0238 182.586 52.1838 182.637 52.3438 182.637C52.7139 182.637 53.0572 182.352 53.1772 181.94C53.2973 181.525 53.1506 181.124 52.7972 180.893C52.0471 180.403 51.157 180.152 50.1436 180.152Z" fill="#FF5B0D"/>
<path d="M81.6639 175.038C81.824 174.875 81.9073 174.657 81.9073 174.405C81.904 170.591 82.3507 166.746 82.784 163.026C83.1441 159.919 83.5208 156.703 83.6308 153.514C83.6408 153.262 83.5608 153.041 83.4074 152.878C83.2474 152.708 83.0074 152.609 82.7507 152.609C82.3007 152.609 81.834 152.915 81.814 153.504C81.7039 156.679 81.3306 159.888 80.9705 162.992C80.5371 166.719 80.0904 170.574 80.0938 174.402C80.0938 174.994 80.5505 175.303 81.0039 175.303C81.2539 175.303 81.4973 175.208 81.6639 175.038Z" fill="#FF5B0D"/>
<path d="M87.4443 179.688C88.6944 179.688 89.9679 179.607 91.198 179.525L91.5814 179.501C93.6116 179.369 95.4318 179.185 97.1453 178.933C98.4387 178.746 99.7055 178.444 100.776 178.168C101.166 178.07 101.626 177.862 102.109 177.645C102.813 177.329 103.539 176.999 104.069 176.999C104.649 176.999 104.953 176.533 104.953 176.074C104.953 175.615 104.649 175.149 104.069 175.149C103.326 175.149 102.442 175.523 101.589 175.887C101.122 176.084 100.682 176.271 100.292 176.387C97.9687 177.06 95.5084 177.342 93.1949 177.543C92.8548 177.573 92.5081 177.604 92.1581 177.638C90.6613 177.777 89.1144 177.92 87.5743 177.92C85.304 177.92 83.5472 177.607 82.0437 176.938C81.917 176.88 81.787 176.853 81.6537 176.853C81.1536 176.853 80.7669 177.268 80.6869 177.672C80.6069 178.056 80.7836 178.386 81.1569 178.553C82.9038 179.328 84.9007 179.688 87.4443 179.688Z" fill="#FF5B0D"/>
<path d="M112.026 176.402C111.833 175.511 111.586 174.627 111.229 173.774C111.223 173.753 111.213 173.74 111.203 173.726C111.129 173.499 110.986 173.329 110.796 173.244C109.912 172.856 109.022 172.601 108.076 172.465C107.489 169.558 107.199 166.509 106.922 163.561C106.822 162.493 106.719 161.392 106.602 160.328L106.499 159.383C106.025 155.014 105.535 150.499 104.862 146.079C104.812 145.743 104.632 145.573 104.479 145.488C103.128 143.533 98.2979 142.962 96.4744 142.747L96.3077 142.727C93.464 142.387 90.4304 142.424 87.2434 142.843C82.9863 143.397 80.166 144.604 78.6259 146.528C78.2725 146.657 78.0825 146.97 78.1091 147.374C78.3525 150.812 77.8524 154.283 77.3657 157.638C77.2257 158.607 77.0824 159.607 76.9557 160.593L76.8123 161.735C76.539 163.887 76.2556 166.114 76.0223 168.31C75.9122 169.337 75.8589 170.395 75.8056 171.414C75.7622 172.264 75.7155 173.142 75.6389 174.002C75.6089 174.012 75.5822 174.025 75.5522 174.042C73.2086 175.28 72.2485 177.646 72.6152 181.25C70.615 181.879 68.6248 183.13 66.8413 184.898C66.808 184.929 66.7813 184.963 66.7546 184.993C65.2411 185.177 63.7643 185.649 62.3342 186.105C61.1407 186.486 59.9073 186.883 58.6405 187.115C58.1971 187.196 57.9337 187.543 57.9737 187.995C58.0137 188.444 58.3571 188.923 58.9205 188.923C58.9772 188.923 59.0405 188.917 59.1005 188.906C60.2973 188.685 61.4841 188.284 62.6309 187.893C64.3244 187.319 66.0779 186.72 67.8681 186.72C68.2448 186.72 68.6182 186.748 68.9782 186.799C69.0282 186.805 69.0782 186.809 69.1249 186.809C69.6949 186.809 70.0716 186.316 70.105 185.843C70.135 185.411 69.8883 185.092 69.4716 185.014C70.745 184.011 72.0652 183.31 73.4053 182.933C73.4186 182.93 73.4253 182.923 73.4387 182.919C75.6122 184.932 79.4759 186.248 84.9465 186.839C87.7835 189.117 91.4405 190.861 96.0143 192.133C98.7479 192.891 101.405 193.258 104.135 193.258C107.625 193.258 111.216 192.643 115.11 191.375H115.12C115.343 191.375 115.55 191.29 115.723 191.126C117.216 189.726 118.057 187.523 118.287 184.388C118.423 184.228 118.493 184.024 118.49 183.793C118.44 180.169 115.22 177.252 112.026 176.402ZM111.653 182.212C112.613 182.953 114.2 184.242 113.786 185.384C113.729 185.541 113.713 185.694 113.736 185.84C111.253 187.427 107.752 187.764 105.239 187.764C103.445 187.764 101.868 187.597 100.861 187.461C99.568 187.285 98.3079 187.033 97.0878 186.72C98.7946 186.479 100.605 186.146 102.555 185.711C105.405 185.068 108.892 184.283 111.653 182.212ZM88.9136 144.502C90.8038 144.304 92.8073 144.287 94.8509 144.44C96.7444 144.583 98.5579 144.865 100.238 145.28C101.448 145.579 102.695 146.191 102.735 146.783C102.758 147.147 102.315 147.517 101.452 147.854C98.9479 148.836 96.081 148.874 93.3107 148.915C92.624 148.925 91.9472 148.935 91.2838 148.959C90.8171 148.976 90.2737 149.017 89.697 149.057C88.7169 149.129 87.6068 149.21 86.4933 149.21C83.333 149.21 81.4395 148.541 80.5427 147.109C82.6129 145.151 86.7034 144.729 88.9136 144.502ZM74.4221 181.27C74.1354 179.02 74.4487 177.476 75.4055 176.446C75.4455 176.592 75.5189 176.725 75.6289 176.841C75.8189 177.045 76.0956 177.163 76.3656 177.163C76.7723 177.163 77.069 176.902 77.1424 176.48C77.5957 173.859 77.7958 171.125 77.9891 168.48C78.1325 166.522 78.2791 164.499 78.5292 162.541C78.6825 161.351 78.8625 160.127 79.0392 158.944C79.5126 155.786 79.9993 152.522 79.9927 149.302C81.3595 150.478 83.463 151.029 86.5733 151.029C87.7435 151.029 88.9136 150.954 89.9437 150.886C90.5371 150.849 91.0971 150.812 91.5972 150.795C92.0072 150.781 92.4206 150.767 92.8307 150.754C94.6975 150.696 96.631 150.635 98.5212 150.377L98.7846 150.339C100.215 150.145 102.145 149.884 103.442 148.962C103.945 152.62 104.348 156.35 104.742 159.957L105.005 162.378C105.102 163.258 105.189 164.149 105.279 165.047C105.629 168.613 105.992 172.302 106.979 175.702C107.095 176.106 107.422 176.354 107.832 176.354C108.142 176.354 108.439 176.208 108.612 175.974C108.769 175.759 108.812 175.487 108.729 175.205C108.659 174.964 108.599 174.722 108.539 174.478L108.519 174.403C108.899 174.491 109.289 174.614 109.679 174.77C110.289 176.276 110.516 177.935 110.733 179.54C110.776 179.86 110.819 180.179 110.866 180.495C108.482 182.464 105.379 183.164 102.378 183.844L102.078 183.912C98.8213 184.65 95.7476 185.085 92.724 185.248C89.8837 184.041 87.3934 182.437 85.4199 180.502C85.3699 180.451 85.3132 180.41 85.2465 180.37C85.0265 180.115 84.7065 180.013 84.3731 180.091C83.1263 180.38 82.1962 181.196 81.6362 181.828C81.4128 182.08 81.3395 182.406 81.4395 182.719C81.3961 182.991 81.4628 183.249 81.6328 183.47C81.8928 183.81 82.1695 184.136 82.4529 184.459C79.7593 184.028 75.9656 182.658 74.4221 181.27ZM114.656 189.583C110.976 190.783 107.572 191.368 104.252 191.368C101.705 191.368 99.168 191.035 96.4944 190.348C90.8404 188.893 86.3 186.255 83.363 182.705C83.683 182.416 84.0264 182.195 84.3864 182.046C89.717 187.111 96.9444 188.876 102.078 189.464C103.035 189.573 104.028 189.631 105.029 189.631C107.912 189.631 113.119 189.158 116.25 186.068C115.953 187.597 115.43 188.75 114.656 189.583ZM115.563 184.17C115.183 182.875 113.99 181.757 112.713 180.733C112.709 180.72 112.709 180.706 112.706 180.689C112.709 180.621 112.706 180.556 112.696 180.492C112.633 180.091 112.573 179.686 112.516 179.285C112.476 179.016 112.436 178.748 112.396 178.476C114.12 179.19 115.846 180.631 116.45 182.498C116.236 183.103 115.94 183.664 115.563 184.17Z" fill="#FF5B0D"/>
<path d="M85.1239 126.503C85.5773 127.234 86.2207 127.622 86.9808 127.622C88.0275 127.622 89.2977 126.884 90.3844 125.647C91.2879 124.616 91.8546 123.481 91.9646 122.546C92.0246 122.427 92.0646 122.291 92.0646 122.128C92.068 121.757 92.118 121.108 92.178 120.285C92.4747 116.226 93.0281 108.671 90.9112 106.346C90.3911 105.775 89.7311 105.554 88.9643 105.69C86.1974 106.186 85.7173 110.222 85.4306 112.632C85.4006 112.87 85.3739 113.095 85.3473 113.299C84.7072 118.194 84.6505 122.196 85.1639 125.521C85.1339 125.558 85.1006 125.596 85.0772 125.636C84.9306 125.908 84.9472 126.218 85.1239 126.503ZM86.8708 116.477L86.8874 116.239C86.9008 116.022 86.9141 115.746 86.9274 115.434C87.0308 113.088 87.2441 108.206 89.2077 107.512C89.3077 107.478 89.3944 107.502 89.4844 107.597C90.2578 108.41 90.5211 113.01 90.2744 121.268C90.2711 121.342 90.2711 121.41 90.2678 121.478C90.1811 121.628 90.1444 121.805 90.1644 122.005C90.2711 122.964 89.5077 123.892 88.831 124.593C88.4476 124.99 87.5742 125.745 87.0274 125.745C87.0208 125.745 87.0174 125.742 87.0108 125.742C87.0108 125.687 87.0074 125.633 86.9974 125.579C86.4807 122.638 86.6807 119.507 86.8708 116.477Z" fill="#FF5B0D"/>
<path d="M84.4831 134.371C83.6396 133.708 82.6362 133.358 81.5828 133.358C79.7592 133.358 77.9591 134.408 76.959 136.047C76.0255 135.445 75.0654 135.139 74.102 135.139C70.2849 135.139 67.0713 140.059 66.7446 144.455C66.7246 144.706 66.7946 144.927 66.9446 145.091C67.1013 145.261 67.3379 145.359 67.5946 145.359C68.0414 145.359 68.5181 145.057 68.5614 144.472C68.7814 141.48 71.085 136.958 74.0553 136.958C74.9254 136.958 75.8022 137.342 76.6622 138.101C76.8456 138.264 77.0756 138.352 77.3023 138.352C77.6957 138.352 78.0391 138.094 78.1691 137.693C78.6558 136.221 79.9926 135.235 81.4961 135.235C82.2362 135.235 82.9429 135.483 83.5363 135.949C83.693 136.071 83.8597 136.136 84.0297 136.136C84.363 136.136 84.6731 135.877 84.8031 135.493C84.9131 135.163 84.8898 134.691 84.4831 134.371Z" fill="#FF5B0D"/>
<path d="M16.9113 181.741C16.608 182.054 16.4746 182.353 16.4746 182.747C16.4746 182.999 16.5546 183.22 16.7146 183.38C16.878 183.55 17.1213 183.645 17.3747 183.645C17.7514 183.645 18.1681 183.427 18.2681 182.948C18.5448 182.577 18.5148 182.061 18.1981 181.738C17.8581 181.394 17.248 181.394 16.9113 181.741Z" fill="#FF5B0D"/>
<path d="M20.9473 180.462V180.989C20.9473 181.581 21.404 181.89 21.854 181.89C22.3041 181.89 22.7608 181.581 22.7608 180.989V180.462C22.7641 179.283 20.9473 179.283 20.9473 180.462Z" fill="#FF5B0D"/>
<path d="M17.8967 177.431H17.5534C16.9733 177.431 16.6699 177.896 16.6699 178.355C16.6699 178.814 16.9733 179.28 17.5534 179.28H17.8967C18.4768 179.28 18.7801 178.814 18.7801 178.355C18.7801 177.896 18.4768 177.431 17.8967 177.431Z" fill="#FF5B0D"/>
<path d="M11.5255 180.065H11.3522C10.7721 180.065 10.4688 180.531 10.4688 180.99C10.4688 181.449 10.7721 181.915 11.3522 181.915H11.5255C12.1056 181.915 12.409 181.449 12.409 180.99C12.409 180.531 12.1056 180.065 11.5255 180.065Z" fill="#FF5B0D"/>
<path d="M14.5791 180.813V180.99C14.5791 181.581 15.0358 181.891 15.4859 181.891C15.9359 181.891 16.3926 181.581 16.3926 180.99V180.813C16.3926 179.633 14.5791 179.633 14.5791 180.813Z" fill="#FF5B0D"/>
<path d="M0.631836 179.582V179.759C0.631836 180.35 1.08856 180.66 1.53861 180.66C1.98865 180.66 2.44536 180.35 2.44536 179.759V179.582C2.44869 178.399 0.631836 178.399 0.631836 179.582Z" fill="#FF5B0D"/>
<path d="M10.6348 175.741C10.5115 175.37 10.2048 175.149 9.80472 175.149C9.16132 175.153 8.72794 175.595 8.72461 176.251C8.72461 176.503 8.80461 176.724 8.96462 176.887C9.13131 177.057 9.37133 177.155 9.62802 177.155C9.92139 177.155 10.1914 177.03 10.3581 176.815C10.6515 176.571 10.7648 176.132 10.6348 175.741Z" fill="#FF5B0D"/>
<path d="M4.12212 175.321C3.47872 175.325 3.04533 175.767 3.04199 176.423C3.04199 176.674 3.12201 176.895 3.28203 177.055C3.44871 177.225 3.68873 177.324 3.94543 177.324C4.23879 177.324 4.50882 177.198 4.6755 176.987C4.96887 176.746 5.08555 176.311 4.9522 175.916C4.83219 175.546 4.52216 175.321 4.12212 175.321Z" fill="#FF5B0D"/>
<path d="M7.73919 177.605H7.51917C6.93911 177.605 6.63574 178.071 6.63574 178.53C6.63574 178.989 6.93911 179.455 7.51917 179.455H7.73919C8.31925 179.455 8.62262 178.989 8.62262 178.53C8.62262 178.071 8.31925 177.605 7.73919 177.605Z" fill="#FF5B0D"/>
<path d="M69.2027 191.573H69.3761C69.9562 191.573 70.2595 191.107 70.2595 190.648C70.2595 190.189 69.9562 189.723 69.3761 189.723H69.2027C68.6227 189.723 68.3193 190.189 68.3193 190.648C68.3193 191.107 68.626 191.573 69.2027 191.573Z" fill="#FF5B0D"/>
<path d="M74.1962 189.719H73.9762C73.3961 189.719 73.0928 190.185 73.0928 190.643C73.0928 191.102 73.3961 191.568 73.9762 191.568H74.1962C74.7763 191.568 75.0797 191.102 75.0797 190.643C75.0797 190.185 74.7763 189.719 74.1962 189.719Z" fill="#FF5B0D"/>
<path d="M74.0028 187.944C74.1595 187.781 74.2429 187.563 74.2429 187.308C74.2395 186.652 73.8061 186.21 73.1561 186.207C72.7627 186.207 72.4527 186.428 72.3327 186.798C72.2027 187.192 72.316 187.628 72.6094 187.869C72.7761 188.083 73.0461 188.209 73.3394 188.209C73.5961 188.209 73.8395 188.114 74.0028 187.944Z" fill="#FF5B0D"/>
<path d="M60.9376 192.099C61.5177 192.099 61.8211 191.634 61.8211 191.175C61.8211 190.716 61.5177 190.25 60.9376 190.25H60.7643C60.1842 190.25 59.8809 190.716 59.8809 191.175C59.8809 191.634 60.1842 192.099 60.7643 192.099H60.9376Z" fill="#FF5B0D"/>
<path d="M67.7016 193.635V193.458C67.7016 192.275 65.8848 192.275 65.8848 193.458V193.635C65.8848 194.227 66.3415 194.536 66.7915 194.536C67.2416 194.536 67.7016 194.227 67.7016 193.635Z" fill="#FF5B0D"/>
<path d="M65.0719 190.345C65.5598 190.345 65.9553 189.931 65.9553 189.42C65.9553 188.909 65.5598 188.495 65.0719 188.495C64.584 188.495 64.1885 188.909 64.1885 189.42C64.1885 189.931 64.584 190.345 65.0719 190.345Z" fill="#FF5B0D"/>
<path d="M31.2988 190.097C30.8087 190.202 30.5854 190.675 30.622 191.096C30.6554 191.508 30.9387 191.926 31.4955 191.926H31.5021C31.8855 191.923 32.1822 191.79 32.4889 191.477C32.6589 191.304 32.7523 191.073 32.7523 190.824C32.7523 190.573 32.6589 190.342 32.4889 190.168C32.1789 189.855 31.6488 189.825 31.2988 190.097Z" fill="#FF5B0D"/>
<path d="M36.2734 191.175V191.352C36.2734 191.944 36.7301 192.253 37.1802 192.253C37.6302 192.253 38.087 191.944 38.087 191.352V191.175C38.0903 189.992 36.2734 189.992 36.2734 191.175Z" fill="#FF5B0D"/>
<path d="M31.9688 188.363V188.536C31.9688 189.128 32.4255 189.437 32.8788 189.437C33.3289 189.437 33.7856 189.128 33.7856 188.536V188.363C33.7856 187.183 31.9688 187.183 31.9688 188.363Z" fill="#FF5B0D"/>
<path d="M25.6442 187.611C25.0641 187.611 24.7607 188.077 24.7607 188.536C24.7607 188.995 25.0641 189.461 25.6442 189.461C26.2242 189.461 26.5276 188.995 26.5276 188.536C26.5276 188.077 26.2242 187.611 25.6442 187.611Z" fill="#FF5B0D"/>
<path d="M29.9484 185.856H29.775C29.195 185.856 28.8916 186.322 28.8916 186.781C28.8916 187.24 29.195 187.709 29.775 187.709H29.9484C30.5284 187.709 30.8318 187.243 30.8318 186.781C30.8318 186.322 30.5284 185.856 29.9484 185.856Z" fill="#FF5B0D"/>
<path d="M134.457 187.438C133.877 187.438 133.573 187.904 133.573 188.363C133.573 188.822 133.877 189.288 134.457 189.288C135.037 189.288 135.34 188.822 135.34 188.363C135.34 187.904 135.037 187.438 134.457 187.438Z" fill="#FF5B0D"/>
<path d="M141.517 188.495C141.153 188.495 140.86 188.692 140.707 189.042L140.693 189.059C140.667 189.093 140.64 189.124 140.62 189.155C140.487 189.335 140.463 189.539 140.433 189.76C140.407 189.971 140.477 190.181 140.63 190.362C140.813 190.572 141.087 190.705 141.34 190.705C141.71 190.705 142.007 190.498 142.157 190.147C142.187 190.113 142.213 190.079 142.233 190.049C142.367 189.869 142.39 189.665 142.42 189.444C142.447 189.233 142.377 189.022 142.223 188.845C142.043 188.628 141.773 188.495 141.517 188.495Z" fill="#FF5B0D"/>
<path d="M150.983 187.966H150.763C150.183 187.966 149.88 188.432 149.88 188.891C149.88 189.35 150.183 189.815 150.763 189.815H150.983C151.563 189.815 151.867 189.35 151.867 188.891C151.867 188.432 151.563 187.966 150.983 187.966Z" fill="#FF5B0D"/>
<path d="M162.692 185.157H162.518C161.938 185.157 161.635 185.623 161.635 186.082C161.635 186.541 161.938 187.007 162.518 187.007H162.692C163.272 187.007 163.575 186.541 163.575 186.082C163.575 185.623 163.272 185.157 162.692 185.157Z" fill="#FF5B0D"/>
<path d="M158.091 184.501V184.151C158.091 182.968 156.274 182.968 156.274 184.151V184.501C156.274 185.093 156.731 185.402 157.181 185.402C157.635 185.402 158.091 185.093 158.091 184.501Z" fill="#FF5B0D"/>
<path d="M158.214 190.518C158.702 190.518 159.098 190.104 159.098 189.593C159.098 189.082 158.702 188.668 158.214 188.668C157.727 188.668 157.331 189.082 157.331 189.593C157.331 190.104 157.727 190.518 158.214 190.518Z" fill="#FF5B0D"/>
<path d="M159.078 185.856C158.498 185.856 158.194 186.322 158.194 186.781C158.194 187.24 158.498 187.709 159.078 187.709C159.658 187.709 159.961 187.243 159.961 186.781C159.961 186.322 159.658 185.856 159.078 185.856Z" fill="#FF5B0D"/>
<path d="M166.824 182.695H166.481C165.901 182.695 165.598 183.161 165.598 183.62C165.598 184.079 165.901 184.545 166.481 184.545H166.824C167.405 184.545 167.708 184.079 167.708 183.62C167.708 183.161 167.405 182.695 166.824 182.695Z" fill="#FF5B0D"/>
<path d="M162.888 180.113C162.888 179.654 162.585 179.188 162.005 179.188C161.424 179.188 161.121 179.654 161.121 180.113C161.121 180.572 161.424 181.037 162.005 181.037C162.585 181.037 162.888 180.572 162.888 180.113Z" fill="#FF5B0D"/>
<path d="M169.98 177.283C169.086 177.137 168.19 176.964 167.31 176.787C167.393 176.603 167.41 176.396 167.36 176.182C166.93 174.397 166.256 172.496 164.516 171.905C163.836 171.674 163.166 171.599 162.519 171.527C161.222 171.381 160.105 171.259 159.165 169.974C158.879 169.579 158.702 169.066 158.515 168.519C158.245 167.726 157.965 166.907 157.309 166.472C156.655 166.04 155.735 165.833 154.502 165.833C153.601 165.833 152.641 165.941 151.795 166.04C151.625 166.06 151.461 166.077 151.298 166.098C151.821 165.251 152.295 164.364 152.675 163.446C153.021 163.432 153.351 163.228 153.508 162.933C153.648 162.664 153.628 162.361 153.445 162.079C153.388 161.994 153.328 161.909 153.265 161.828L153.185 161.716C153.145 161.478 152.995 161.267 152.768 161.138C151.328 159.274 149.421 157.656 146.941 156.194C147.754 154.42 148.528 152.59 149.278 150.826C149.751 149.704 150.228 148.585 150.714 147.47C151.728 145.152 152.988 142.904 154.205 140.729C154.728 139.794 155.272 138.825 155.785 137.866C155.918 137.614 156.065 137.353 156.215 137.074C158.269 133.31 161.376 127.622 157.332 124.457C156.848 124.08 156.268 123.889 155.608 123.889C154.032 123.889 152.618 124.937 152.221 125.256C150.785 126.422 150.161 128.564 149.614 130.454C149.498 130.852 149.388 131.24 149.271 131.593C147.374 137.492 144.767 143.547 141.34 150.017C140.193 148.218 138.577 146.92 136.033 145.716C135.32 145.379 134.68 145.036 134.083 144.676L133.956 144.642L133.946 144.655C133.363 144.417 132.753 144.298 132.136 144.298C130.399 144.298 128.849 145.233 127.992 146.797C127.462 147.763 126.959 148.276 126.535 148.276C125.802 148.276 125.119 146.722 124.712 144.125C124.602 143.411 124.545 142.663 124.492 141.939C124.398 140.671 124.302 139.362 123.902 138.148C123.645 137.363 123.038 136.911 122.052 136.761C121.415 136.666 121.005 134.31 120.988 130.624L120.995 130.499C121.251 126.436 121.718 119.017 118.455 118.151C118.471 114.458 118.388 113.755 118.291 112.952C118.198 112.153 118.088 111.249 118.061 107.054C118.058 106.462 117.598 106.156 117.148 106.156C116.998 106.156 116.854 106.193 116.728 106.255C116.494 106.238 116.261 106.224 116.018 106.224C114.784 106.224 113.557 106.438 112.371 106.646C111.03 106.88 109.647 107.125 108.25 107.05H108.213C107.897 107.05 107.587 107.258 107.427 107.581C107.277 107.883 107.293 108.21 107.467 108.454C109.304 111.031 112.651 112.765 115.798 112.765C116.018 112.765 116.234 112.748 116.448 112.731C116.458 112.82 116.468 112.905 116.478 112.986C116.574 113.789 116.658 114.492 116.638 118.297C114.401 119.177 112.711 122.444 111.997 124.495C111.274 126.582 111.1 128.887 110.937 131.114C110.76 133.504 110.574 135.962 109.7 138.145C108.653 137.57 107.507 137.206 106.273 137.098C106.047 134.986 106.28 132.912 106.53 130.716C106.57 130.369 106.61 130.023 106.647 129.676C106.853 127.769 107.107 125.392 106.133 123.424C105.356 121.856 103.47 121.656 101.909 121.656C101.289 121.656 100.673 121.693 100.083 121.727C99.7626 121.748 99.4526 121.765 99.1659 121.775C99.0292 118.966 99.1058 116.077 99.1792 113.282C99.3492 106.839 99.5259 100.179 97.139 93.9984C96.1255 91.3703 93.9753 88.3683 90.8583 86.9982C90.7283 83.9826 90.4816 80.9737 90.2416 78.0329C89.9049 73.977 89.5582 69.7816 89.5315 65.6373C89.5282 65.0457 89.0681 64.7363 88.6181 64.7363C88.3614 64.7363 88.118 64.8349 87.9547 65.0049C87.798 65.1681 87.7147 65.3857 87.7147 65.6407C87.7214 66.647 87.748 67.6533 87.788 68.6631C86.2645 68.9181 84.7177 69.0847 83.2109 69.2411C80.9573 69.4722 78.6304 69.7136 76.3768 70.278C76.0635 70.3562 75.8001 70.6486 75.7234 71.009C75.6534 71.3353 75.7501 71.6447 75.9835 71.8385C77.4636 73.0488 78.9738 73.9498 80.5906 74.5889C79.8539 75.3267 79.1238 76.0848 78.4171 76.8226C78.0337 77.2238 77.647 77.625 77.2603 78.0227C77.0036 78.2879 76.9369 78.6959 77.0869 79.0597C77.2269 79.3996 77.5136 79.6036 77.857 79.6036C77.877 79.6036 77.8937 79.6036 77.9137 79.6002C79.6705 79.488 81.4607 79.4506 83.1909 79.4166C84.9377 79.3826 86.7412 79.3418 88.5214 79.2263C88.7148 81.5959 88.9015 84.003 89.0181 86.4168C88.5948 86.3318 88.1647 86.2672 87.7113 86.2468C86.5412 86.1924 85.6911 86.4712 85.0811 87.0934C83.9276 88.2731 83.931 90.4592 83.9343 92.5739C83.9376 93.9066 83.9376 95.1645 83.6576 96.113C83.5742 96.3952 83.6276 96.6128 83.7009 96.7658L83.5042 97.0276C82.1274 98.8703 80.7039 100.774 80.4106 103.117C80.3773 103.382 80.3572 103.654 80.3439 103.929C79.6572 104.341 78.9638 104.721 78.2904 105.082C76.4702 106.061 74.75 106.989 73.2532 108.594C71.153 110.848 69.7928 113.717 68.636 116.485C67.6259 118.895 66.9325 121.435 66.2591 123.889L66.1958 124.127C65.7491 125.756 65.209 127.133 64.5489 128.336C64.2289 128.921 62.2721 131.158 61.0619 131.158C60.6352 131.158 60.3485 130.879 60.1818 130.305C60.0685 129.917 59.7585 129.676 59.3718 129.659C58.5217 128.234 57.3749 127.401 56.1914 127.401C55.1813 127.401 54.2046 128.013 53.3745 129.166C51.0242 132.426 48.3673 137.315 49.044 142.065C49.0674 142.238 49.134 142.388 49.2307 142.5C48.8573 142.928 48.4806 143.353 48.1039 143.775C47.3939 144.57 46.6704 145.386 46.007 146.209C45.3836 145.655 44.7702 145.376 44.1835 145.376C42.5534 145.376 41.4499 147.538 41.1599 149.748C40.7932 149.408 40.6498 148.806 40.5031 148.174C40.2598 147.134 39.9797 145.951 38.5696 145.828C36.3094 145.628 35.7493 147.086 35.1526 148.63C34.8759 149.344 34.5892 150.081 34.1191 150.676C33.6191 151.305 33.1924 151.628 32.849 151.628C32.339 151.628 31.9756 150.921 31.5889 150.173C31.3622 149.735 31.1288 149.282 30.8455 148.932C29.9287 147.787 28.4752 148.147 26.7251 149.969C26.1117 150.608 25.8916 151.557 25.6949 152.393C25.6549 152.57 25.6116 152.743 25.5716 152.907C25.4916 153.219 25.3716 153.4 25.2416 153.4C24.9982 153.4 24.6382 152.842 24.6248 152.322C24.6082 151.703 24.5615 151.037 24.3181 150.347C23.9848 149.395 23.098 148.823 21.9412 148.823C21.0978 148.823 20.2544 149.126 19.6777 149.633C16.1473 152.75 16.194 163.456 16.214 168.029V168.111C14.6105 168.923 13.107 169.984 11.6368 171.028C10.7734 171.64 9.88332 172.268 8.9999 172.826C8.64319 173.05 8.49316 173.445 8.60651 173.856C8.72318 174.274 9.07324 174.567 9.45661 174.567C9.61329 174.567 9.7733 174.519 9.92331 174.424C10.7601 173.897 11.6035 173.271 12.5003 172.612C14.9672 170.793 17.5174 168.909 20.281 168.709C21.5845 168.617 22.858 169.355 24.0881 170.065C24.5415 170.327 24.9682 170.575 25.3916 170.779C26.3583 171.245 27.3584 171.469 28.4486 171.469C28.5019 171.469 28.5552 171.463 28.6086 171.463C28.3885 171.952 28.1385 172.425 27.8518 172.88C26.8084 173.129 25.7516 173.435 24.6682 173.754C22.2213 174.475 19.691 175.219 17.1274 175.219C16.694 175.219 16.264 175.199 15.8473 175.155C15.2605 175.097 14.9805 175.525 14.9605 175.947C14.9372 176.416 15.2305 176.943 15.8206 177.004C16.1873 177.042 16.5707 177.062 16.9574 177.062C19.4143 177.062 21.9312 176.297 24.3648 175.556C26.7217 174.839 29.162 174.098 31.4622 174.098C33.6791 174.098 35.566 174.788 37.2395 176.212C37.4128 176.362 37.6195 176.44 37.8362 176.44C38.2396 176.44 38.6296 176.161 38.7663 175.777C38.883 175.451 38.7863 175.124 38.5063 174.886C36.4994 173.176 34.2992 172.343 31.7822 172.343C31.2422 172.343 30.7055 172.384 30.1687 172.445C31.0222 170.674 31.5455 168.736 32.0489 166.846C32.2756 165.996 32.5123 165.115 32.7723 164.272C33.3991 162.253 34.2658 160.039 36.6494 159.359C37.0495 159.244 37.4928 159.186 37.9695 159.186C39.323 159.186 40.8098 159.648 42.12 160.053C42.6 160.203 43.0534 160.342 43.4868 160.458C43.9868 160.59 44.4602 160.284 44.5836 159.767C45.3736 159.098 45.7103 158.302 45.7037 157.112C45.7003 156.432 45.507 155.739 45.3236 155.069C45.267 154.862 45.2103 154.654 45.1569 154.45C44.7869 152.954 45.0369 151.35 45.9237 149.548C46.9305 147.501 48.494 145.777 50.0041 144.108C51.7876 142.139 53.6345 140.103 54.5846 137.519C54.6846 137.247 54.6613 136.979 54.5146 136.764C54.3512 136.526 54.0512 136.377 53.7312 136.377C53.3178 136.377 52.9844 136.611 52.8378 137.002C52.411 138.169 51.7343 139.341 50.7175 140.678C50.6275 138.243 51.5876 136.288 52.6944 134.041L52.8378 133.752C52.9378 133.552 53.0444 133.314 53.1644 133.055C53.8512 131.556 54.8846 129.288 56.3048 129.101C57.4882 128.938 58.2883 130.38 58.725 133.358L58.745 133.49L58.8184 133.48C59.0017 134.249 59.3384 134.979 59.8218 135.636C60.0085 135.887 60.2785 136.027 60.5819 136.027C60.9553 136.027 61.3219 135.809 61.472 135.5C61.602 135.234 61.5686 134.939 61.372 134.674C60.9352 134.079 60.6619 133.484 60.5419 132.878C60.6619 132.895 60.7819 132.906 60.9086 132.906C61.5586 132.906 62.3054 132.702 63.1321 132.304C65.6591 131.083 66.8859 128.068 67.756 125.276C67.986 124.539 68.206 123.808 68.4227 123.077C69.3295 120.058 70.1829 117.202 71.593 114.373C72.6464 112.259 74.0099 110.372 75.6468 108.757C76.6369 107.781 77.9737 107.149 79.2705 106.533C79.6472 106.353 80.0339 106.173 80.4106 105.979L80.4239 106.102L80.5406 105.989C80.5073 106.204 80.4606 106.414 80.3773 106.608C80.2406 106.921 80.2672 107.251 80.4506 107.533C80.6373 107.822 80.9573 108.009 81.2673 108.009C81.574 108.009 81.8274 107.829 81.9608 107.513C82.3408 106.635 82.3475 105.738 82.3541 104.871C82.3575 104.415 82.3641 103.946 82.4208 103.477C82.4408 103.321 82.4208 103.178 82.3741 103.052C82.5842 102.022 82.9942 101.033 83.6309 100.023C84.0843 99.3088 84.5944 98.6187 85.0877 97.9557C85.7678 97.0412 86.4679 96.0926 87.0379 95.0557C87.2013 94.7599 87.2013 94.4437 87.0413 94.165C86.8079 93.757 86.2445 93.5598 85.8512 93.7468C85.8978 92.856 85.8778 91.9551 85.8512 90.9624C85.8478 90.8672 85.8445 90.7618 85.8378 90.6496C85.7978 89.7384 85.7411 88.4907 86.5679 88.1405C86.7913 88.0453 87.0613 87.9977 87.3713 87.9977C87.9114 87.9977 88.5048 88.1371 89.0848 88.3275C89.1182 89.4053 89.1348 90.483 89.1248 91.5573C89.1215 91.8089 89.2048 92.0299 89.3648 92.1931C89.5315 92.3631 89.7716 92.4617 90.0283 92.4617C90.4783 92.4617 90.9383 92.1523 90.9417 91.5641C90.9483 90.7414 90.9383 89.9152 90.9183 89.0925C93.6653 90.534 95.5121 93.6244 96.5623 98.5167C97.6124 103.412 97.479 108.478 97.3523 113.374C97.2557 117.073 97.1556 120.898 97.5657 124.631C97.629 125.205 98.1124 125.508 98.5591 125.508C98.8191 125.508 99.0525 125.409 99.2025 125.239C99.3459 125.076 99.4092 124.855 99.3792 124.603C99.3425 124.277 99.3125 123.951 99.2859 123.621C99.5926 123.611 99.9026 123.597 100.213 123.58C100.656 123.556 101.113 123.536 101.546 123.536C103.493 123.536 104.82 124.005 104.983 126.293C105.113 128.129 104.916 129.951 104.726 131.716C104.44 134.391 104.14 137.159 105 139.967C105.123 140.368 105.453 140.613 105.86 140.613C106.17 140.613 106.47 140.467 106.64 140.232C106.793 140.018 106.833 139.746 106.747 139.467C106.697 139.304 106.653 139.144 106.61 138.981C108.593 139.284 110.24 140.358 111.507 142.17C114.007 145.75 114.387 151.261 113.687 155.018C113.021 153.991 112.514 152.781 112.101 151.792L112.004 151.557C111.87 151.241 111.62 151.057 111.314 151.057C111.007 151.057 110.687 151.244 110.5 151.533C110.317 151.815 110.287 152.145 110.42 152.461C111.74 155.606 113.491 158.622 117.328 159.38C118.088 159.529 118.841 159.594 119.568 159.659C121.055 159.788 122.458 159.907 123.845 160.702C125.049 161.393 125.822 162.899 126.505 164.228L126.675 164.558C126.685 164.69 126.722 164.82 126.785 164.942C126.932 165.224 127.082 165.516 127.232 165.809C128.512 168.328 129.966 171.184 132.839 172.044C132.933 172.071 133.023 172.085 133.109 172.085C133.613 172.085 133.899 171.663 133.956 171.272C134.013 170.878 133.839 170.412 133.326 170.259C132.456 169.997 131.673 169.443 130.949 168.566C132.186 169.005 133.623 169.175 135.173 169.073L135.26 169.066C135.92 169.022 136.543 168.981 137.133 168.981C139.207 168.981 140.757 169.515 141.604 172.119L141.617 172.163C141.65 172.262 141.68 172.357 141.714 172.455C141.504 172.693 141.44 173.016 141.49 173.299C141.57 173.747 141.897 174.033 142.284 174.033C142.607 174.801 143.01 175.522 143.63 176.199C143.804 176.389 144.017 176.491 144.244 176.491C144.594 176.491 144.941 176.243 145.094 175.886C145.241 175.546 145.174 175.175 144.921 174.897C144.554 174.492 144.267 174.064 144.027 173.625C144.257 173.598 144.487 173.577 144.724 173.577C146.731 173.577 148.498 174.608 150.368 175.699C152.238 176.79 154.175 177.919 156.412 177.967H156.435C157.022 177.967 157.292 177.501 157.299 177.069C157.302 176.603 157.002 176.127 156.418 176.114C154.155 176.063 152.275 174.951 150.454 173.873C149.208 173.135 147.918 172.37 146.534 171.983C147.581 170.915 148.821 169.569 149.974 168.036C150.014 168.039 150.051 168.049 150.094 168.049H150.131C150.654 168.032 151.171 167.998 151.688 167.964C152.438 167.917 153.211 167.866 153.971 167.866C154.872 167.866 155.628 167.934 156.352 168.08C156.465 168.236 156.845 169.049 157.152 169.708C157.659 170.796 157.975 171.466 158.112 171.612C159.089 172.663 160.175 173.214 161.532 173.343C163.893 173.567 164.886 173.907 165.549 176.447C164.849 176.311 164.146 176.178 163.442 176.063C162.796 175.957 162.356 176.488 162.316 176.998C162.282 177.446 162.546 177.783 162.986 177.858C164.076 178.035 165.179 178.256 166.246 178.47C167.32 178.684 168.43 178.908 169.526 179.085C169.583 179.095 169.636 179.099 169.69 179.099C170.247 179.099 170.617 178.616 170.653 178.15C170.687 177.695 170.423 177.358 169.98 177.283ZM115.898 110.899C113.934 110.899 111.804 110.107 110.264 108.818C110.99 108.736 111.717 108.611 112.424 108.485C113.597 108.278 114.814 108.067 116.024 108.067C116.104 108.067 116.178 108.074 116.258 108.077C116.271 109.311 116.294 110.209 116.321 110.878C116.178 110.885 116.041 110.899 115.898 110.899ZM83.1675 77.5603C82.1841 77.5807 81.1673 77.6012 80.1639 77.6352C81.124 76.6356 82.0041 75.7279 82.9275 74.8473C83.1542 74.6297 83.2442 74.3101 83.1709 73.9906C83.0909 73.654 82.8475 73.3888 82.5308 73.297C81.2007 72.9128 79.9839 72.3689 78.8271 71.6413C80.4239 71.3625 82.0574 71.1925 83.6409 71.0294C85.0344 70.8832 86.4612 70.7336 87.8747 70.5092C88.0014 72.8176 88.178 75.1159 88.3647 77.3768C86.6312 77.4856 84.8711 77.523 83.1675 77.5603ZM43.2434 152.009C43.1901 152.553 43.3201 153.366 43.4601 154.226C43.7268 155.885 44.0268 157.758 43.2301 158.472C41.4432 157.986 39.5964 157.486 37.8429 157.486C35.5826 157.486 33.8725 158.346 32.6157 160.118C31.2355 162.066 30.6455 164.439 30.0754 166.734C29.842 167.672 29.602 168.627 29.3087 169.559C29.1086 169.586 28.9019 169.603 28.6986 169.603C27.2318 169.603 25.885 168.896 24.5848 168.213C23.2714 167.522 21.9112 166.808 20.4111 166.808C20.0677 166.808 19.721 166.846 19.381 166.921C18.9242 167.023 18.4809 167.159 18.0441 167.312C18.1208 165.139 18.4542 161.253 18.6609 158.802C18.7109 158.227 18.7509 157.734 18.7809 157.364C18.8909 156.004 19.1309 154.678 19.4876 153.42C19.631 152.924 21.0145 150.425 21.9679 150.425C22.2679 150.425 22.5146 150.693 22.698 151.224C22.8813 151.747 22.908 152.339 22.9347 152.913C22.9913 154.165 23.0513 155.456 24.8082 155.796C24.9415 155.824 25.0715 155.834 25.1982 155.834C26.675 155.834 27.1418 154.066 27.5185 152.648C27.6518 152.145 27.7785 151.669 27.9318 151.35C28.3085 150.568 28.6653 150.17 28.992 150.17C29.4687 150.17 29.9154 150.996 30.3121 151.724C30.4754 152.023 30.6254 152.305 30.7788 152.529C31.5155 153.607 32.739 153.797 34.0558 153.066C34.8292 152.635 35.5326 151.921 35.9927 151.105C36.0393 151.02 36.1194 150.829 36.2294 150.564C36.5794 149.724 37.5095 147.487 38.1696 147.487C38.3929 147.487 38.5629 147.793 38.6663 148.052C38.873 148.569 39.0063 149.058 39.123 149.49C39.4964 150.877 39.7664 151.88 41.9933 151.88C42.2366 151.88 42.4767 151.774 42.65 151.591C42.8201 151.414 42.9067 151.186 42.9001 150.952C42.8734 150.105 43.0901 148.161 43.7135 147.508C44.0368 147.168 44.4202 147.239 44.8969 147.685C44.1902 148.772 43.4101 150.306 43.2434 152.009ZM147.944 140.032L148.351 139.025C149.264 136.768 150.208 134.432 151.018 132.096C151.161 131.682 151.295 131.247 151.425 130.825C152.061 128.748 152.718 126.599 154.925 125.837C155.152 125.759 155.368 125.718 155.568 125.718C156.932 125.718 157.475 127.534 157.509 128.758C157.542 130.06 156.802 131.627 156.208 132.885C156.075 133.167 155.945 133.439 155.832 133.694C154.895 135.792 153.751 137.835 152.648 139.814C152.438 140.188 152.228 140.565 152.021 140.939C150.294 144.054 148.861 147.351 147.474 150.544C146.791 152.114 146.087 153.74 145.354 155.324C144.164 154.715 142.86 154.137 141.47 153.607C143.97 149.078 146.091 144.638 147.944 140.032ZM113.731 142.408C113.827 142.333 113.911 142.241 113.977 142.122C114.454 141.262 114.954 140.827 115.458 140.827C116.398 140.827 117.301 142.388 117.741 143.839C117.938 144.485 117.904 145.284 117.874 145.985C117.868 146.138 117.861 146.284 117.858 146.427C117.814 147.974 117.351 152.223 116.248 152.223C116.138 152.223 116.021 152.182 115.898 152.097C115.868 152.077 115.838 152.07 115.811 152.053C115.881 148.82 115.261 145.271 113.731 142.408ZM126.492 160.981C125.502 159.682 124.298 158.649 122.368 158.105C122.268 158.078 122.168 158.061 122.068 158.037C121.982 157.51 122.075 157.007 122.362 156.602C122.712 156.102 123.292 155.803 123.912 155.803C124.488 155.803 125.042 156.068 125.465 156.551C126.129 157.303 126.759 158.761 126.685 160.094C126.662 160.42 126.595 160.716 126.492 160.981ZM128.942 164.792C128.792 164.592 128.646 164.388 128.512 164.167C128.372 163.932 128.232 163.701 128.099 163.473C127.935 163.198 127.775 162.926 127.612 162.661C128.282 161.831 128.589 160.651 128.472 159.274C128.306 157.272 127.295 155.361 125.959 154.522C125.335 154.127 124.662 153.93 123.958 153.93C122.735 153.93 121.578 154.539 120.865 155.562C120.405 156.221 120.185 156.973 120.205 157.755C119.955 157.734 119.705 157.714 119.461 157.697C118.244 157.609 116.984 157.52 115.794 157.007C115.591 156.918 115.388 156.806 115.191 156.667C115.191 156.663 115.194 156.66 115.194 156.657C115.411 155.861 115.571 154.987 115.678 154.063C115.941 154.165 116.198 154.219 116.441 154.219C119.315 154.219 119.655 147.399 119.691 146.032C119.755 143.714 119.175 141.84 117.861 140.134C117.214 139.29 116.434 138.845 115.608 138.845C114.564 138.845 113.477 139.569 112.684 140.756C112.227 140.151 111.727 139.62 111.187 139.158C112.174 136.785 112.444 134.14 112.704 131.573C113.131 127.357 113.531 123.376 116.808 120.422C117.131 120.129 117.421 119.983 117.668 119.983C118.505 119.983 119.001 121.673 119.141 125.008L119.148 125.198C119.218 126.755 119.178 128.343 119.138 129.876C119.118 130.686 119.095 131.522 119.091 132.348C119.091 132.552 119.168 132.759 119.308 132.936C119.405 134.099 119.551 135.326 119.755 136.683C119.911 137.747 120.971 138.451 121.938 138.593C122.642 138.699 122.892 142.537 122.998 144.176C123.038 144.812 123.068 145.271 123.105 145.478C123.338 146.831 123.825 149.643 125.829 150.234C126.069 150.306 126.302 150.34 126.525 150.34C127.772 150.34 128.566 149.245 129.332 148.188C130.089 147.141 130.876 146.059 132.086 146.059C132.493 146.059 132.926 146.175 133.406 146.413C133.526 146.474 133.653 146.505 133.783 146.512C134.009 146.637 134.236 146.763 134.466 146.889C136.823 148.188 139.047 149.415 140.317 151.907C140.12 152.264 139.937 152.614 139.737 152.975C138.3 152.485 136.716 152.006 134.903 151.513C134.743 151.193 134.396 150.976 134.033 150.976C133.723 150.976 133.459 151.132 133.293 151.418C130.736 155.705 129.612 160.471 128.942 164.792ZM144.277 171.639C144.251 171.667 144.224 171.694 144.201 171.724C143.884 171.745 143.57 171.792 143.257 171.857C143.22 171.758 143.184 171.66 143.15 171.561C142.524 169.831 141.93 168.196 139.71 167.281C139.18 167.063 138.56 166.958 137.807 166.958C137.1 166.958 136.376 167.05 135.68 167.138C135.226 167.196 134.796 167.25 134.389 167.278C132.926 167.369 131.633 167.033 130.542 166.319C131.132 162.168 132.079 157.473 134.333 153.281C135.69 153.648 137.687 154.205 139.697 154.909C139.81 154.977 139.933 155.021 140.043 155.031C141.737 155.64 143.297 156.306 144.677 157.017C144.684 157.241 144.771 157.456 144.931 157.632C145.244 157.979 145.777 158.061 146.104 157.802C148.258 159.074 149.984 160.532 151.238 162.134C149.954 165.748 147.001 168.967 144.277 171.639Z" fill="#FF5B0D"/>
<path d="M121.324 189.243V189.42C121.324 190.011 121.781 190.321 122.231 190.321C122.681 190.321 123.138 190.011 123.138 189.42V189.243C123.141 188.06 121.324 188.06 121.324 189.243Z" fill="#FF5B0D"/>
<path d="M124.128 189.116C124.615 189.116 125.011 188.702 125.011 188.191C125.011 187.68 124.615 187.266 124.128 187.266C123.64 187.266 123.244 187.68 123.244 188.191C123.244 188.702 123.64 189.116 124.128 189.116Z" fill="#FF5B0D"/>
<path d="M121.909 185.73C121.909 185.271 121.606 184.806 121.026 184.806C120.446 184.806 120.143 185.271 120.143 185.73C120.143 186.189 120.446 186.655 121.026 186.655C121.606 186.655 121.909 186.189 121.909 185.73Z" fill="#FF5B0D"/>
<path d="M131.311 189.464C130.971 189.117 130.364 189.117 130.028 189.464C129.674 189.824 129.674 190.412 130.028 190.773L130.201 190.949C130.371 191.123 130.598 191.218 130.844 191.218C131.088 191.218 131.318 191.123 131.488 190.949C131.835 190.596 131.835 189.994 131.488 189.64L131.311 189.464Z" fill="#FF5B0D"/>
<path d="M127.568 182.521C126.988 182.521 126.685 182.987 126.685 183.446C126.685 183.905 126.988 184.371 127.568 184.371C128.148 184.371 128.451 183.905 128.451 183.446C128.451 182.987 128.148 182.521 127.568 182.521Z" fill="#FF5B0D"/>
<path d="M63.0146 194.217C62.8979 193.795 62.5478 193.503 62.1645 193.503C62.0078 193.503 61.8511 193.551 61.7011 193.646C59.7476 194.87 57.874 195.414 55.6238 195.414C54.3103 195.414 52.9302 195.233 51.47 195.046C51.1233 195.002 50.7666 194.955 50.4033 194.91C50.0399 194.866 49.5998 194.819 49.1331 194.788C49.4965 194.703 49.8132 194.407 49.8132 193.918V193.741C49.8132 192.558 47.9963 192.558 47.9963 193.741V193.918C47.9963 194.366 48.2597 194.652 48.5831 194.764C48.4831 194.761 48.3797 194.757 48.2797 194.757C45.9595 194.757 44.4426 195.539 43.6392 197.147C43.4892 197.45 43.4959 197.773 43.6659 198.055C43.8459 198.351 44.1693 198.545 44.496 198.545C44.8027 198.545 45.0627 198.371 45.2161 198.069C45.7428 197.012 46.8262 196.498 48.5231 196.498C49.8465 196.498 51.2933 196.801 52.5701 197.069C53.1835 197.198 53.7603 197.317 54.2337 197.385C56.9806 197.763 59.7109 197.069 62.6212 195.247C62.9779 195.016 63.1279 194.625 63.0146 194.217Z" fill="#FF5B0D"/>
<path d="M56.8229 201.593C56.2428 201.593 55.9395 202.059 55.9395 202.518C55.9395 202.977 56.2428 203.443 56.8229 203.443C57.4029 203.443 57.7063 202.977 57.7063 202.518C57.7063 202.059 57.4029 201.593 56.8229 201.593Z" fill="#FF5B0D"/>
<path d="M50.6577 203.302C50.641 203.275 50.611 203.241 50.5844 203.207L50.571 203.19C50.4177 202.843 50.1243 202.643 49.7609 202.643C49.5042 202.643 49.2309 202.775 49.0509 202.986C48.8975 203.163 48.8275 203.377 48.8542 203.584C48.8809 203.805 48.9075 204.009 49.0409 204.19C49.0609 204.22 49.0875 204.254 49.1175 204.288C49.2676 204.638 49.5676 204.846 49.9343 204.846C50.191 204.846 50.4644 204.713 50.6444 204.502C50.7977 204.325 50.8677 204.111 50.841 203.9C50.8177 203.686 50.791 203.486 50.6577 203.302Z" fill="#FF5B0D"/>
<path d="M68.1387 203.397V203.574C68.1387 204.165 68.5954 204.475 69.0454 204.475C69.4955 204.475 69.9522 204.165 69.9522 203.574V203.397C69.9555 202.217 68.1387 202.217 68.1387 203.397Z" fill="#FF5B0D"/>
<path d="M67.1549 203.27C67.6428 203.27 68.0383 202.856 68.0383 202.346C68.0383 201.835 67.6428 201.421 67.1549 201.421C66.667 201.421 66.2715 201.835 66.2715 202.346C66.2715 202.856 66.667 203.27 67.1549 203.27Z" fill="#FF5B0D"/>
<path d="M70.2526 198.96C69.6725 198.96 69.3691 199.426 69.3691 199.885C69.3691 200.344 69.6725 200.81 70.2526 200.81C70.8326 200.81 71.136 200.344 71.136 199.885C71.136 199.426 70.8326 198.96 70.2526 198.96Z" fill="#FF5B0D"/>
<path d="M59.9685 203.62L59.7952 203.797C59.4485 204.151 59.4485 204.753 59.7952 205.106C59.9652 205.28 60.1919 205.375 60.4386 205.375C60.6819 205.375 60.912 205.28 61.082 205.106L61.2553 204.929C61.6087 204.569 61.6087 203.981 61.2553 203.62C60.9153 203.274 60.3086 203.274 59.9685 203.62Z" fill="#FF5B0D"/>
<path d="M63.7116 196.681C63.1315 196.681 62.8281 197.147 62.8281 197.606C62.8281 198.065 63.1315 198.531 63.7116 198.531C64.2916 198.531 64.595 198.065 64.595 197.606C64.595 197.147 64.2883 196.681 63.7116 196.681Z" fill="#FF5B0D"/>
<path d="M135.296 178.182C135.296 178.641 135.599 179.107 136.179 179.107C136.759 179.107 137.063 178.641 137.063 178.182C137.063 177.723 136.759 177.257 136.179 177.257C135.599 177.257 135.296 177.72 135.296 178.182Z" fill="#FF5B0D"/>
<path d="M138.119 174.846V174.669C138.119 173.486 136.302 173.486 136.302 174.669V174.846C136.302 175.437 136.758 175.747 137.209 175.747C137.662 175.743 138.119 175.434 138.119 174.846Z" fill="#FF5B0D"/>
<path d="M129.807 176.12C130.387 176.12 130.691 175.655 130.691 175.196C130.691 174.737 130.387 174.271 129.807 174.271C129.227 174.271 128.924 174.737 128.924 175.196C128.924 175.655 129.227 176.12 129.807 176.12Z" fill="#FF5B0D"/>
<path d="M151.675 179.184H151.502C150.922 179.184 150.618 179.65 150.618 180.109C150.618 180.568 150.922 181.034 151.502 181.034H151.675C152.255 181.034 152.558 180.568 152.558 180.109C152.558 179.65 152.255 179.184 151.675 179.184Z" fill="#FF5B0D"/>
</svg>
