<?xml version="1.0" standalone="no"?>
<!DOCTYPE svg PUBLIC "-//W3C//DTD SVG 20010904//EN"
 "http://www.w3.org/TR/2001/REC-SVG-20010904/DTD/svg10.dtd">
<svg version="1.0" xmlns="http://www.w3.org/2000/svg"
 width="1920.000000pt" height="1920.000000pt" viewBox="0 0 1920.000000 1920.000000"
 preserveAspectRatio="xMidYMid meet">
<metadata>
Created by potrace 1.14, written by Peter Selinger 2001-2017
</metadata>
<g transform="translate(0.000000,1920.000000) scale(0.100000,-0.100000)"
fill="#000000" stroke="none">
<path d="M9667 12022 c-2 -4 -5 -95 -6 -202 -2 -107 -4 -296 -6 -420 -5 -384
-7 -622 -3 -625 2 -1 56 -5 120 -7 l116 -4 7 70 c13 153 15 184 20 261 3 44 7
103 9 130 3 28 8 93 12 145 3 52 8 111 10 130 1 19 5 76 9 125 3 50 8 106 10
125 1 19 6 78 10 130 4 52 9 97 10 100 13 22 -22 31 -141 36 -71 3 -139 7
-151 9 -13 2 -24 1 -26 -3z"/>
<path d="M9235 12010 l-60 -5 2 -35 c1 -43 10 -152 27 -350 8 -87 14 -159 21
-255 3 -44 8 -98 10 -120 3 -22 7 -76 10 -120 3 -44 7 -96 10 -115 5 -42 17
-172 19 -215 1 -33 -9 -32 178 -25 l67 3 -4 146 c-3 129 -14 642 -19 976 l-2
120 -100 0 c-54 0 -126 -2 -159 -5z"/>
<path d="M8970 11986 c-3 -2 -34 -7 -70 -11 -36 -3 -72 -8 -80 -10 -8 -2 -31
-7 -50 -10 -19 -3 -47 -8 -61 -11 l-25 -5 43 -232 c24 -128 45 -243 47 -257 3
-23 20 -112 31 -170 5 -24 10 -54 55 -300 11 -58 21 -116 24 -130 3 -13 8 -42
11 -65 10 -71 14 -77 43 -70 44 9 64 12 122 20 87 10 89 12 85 48 -3 18 -7 57
-10 87 -7 63 -13 114 -20 150 -2 14 -7 56 -10 93 -4 37 -8 76 -10 85 -1 9 -6
49 -9 87 -4 39 -9 77 -11 85 -2 8 -6 42 -10 75 -8 77 -15 142 -20 180 -2 17
-7 57 -10 90 -3 33 -8 71 -10 85 -4 28 -17 134 -20 165 -1 18 -24 32 -35 21z"/>
<path d="M10149 11964 c0 -16 -2 -38 -3 -49 -2 -11 -6 -52 -10 -92 -4 -40 -9
-85 -11 -100 -2 -15 -6 -55 -10 -88 -3 -33 -8 -78 -11 -100 -9 -73 -13 -109
-20 -175 -3 -36 -8 -78 -10 -95 -2 -16 -6 -58 -10 -93 -3 -35 -7 -71 -9 -81
-2 -9 -6 -51 -10 -92 -3 -41 -8 -81 -10 -89 -2 -8 -7 -47 -10 -87 l-6 -71 38
-6 c21 -3 54 -7 73 -10 19 -3 56 -8 81 -11 l46 -7 12 64 c6 34 34 191 61 348
57 325 61 350 74 425 22 122 27 148 30 167 14 84 19 115 22 133 16 83 16 95 0
96 -9 1 -19 2 -23 3 -5 1 -33 6 -63 10 -30 5 -63 10 -72 11 -9 2 -46 7 -82 10
l-66 7 -1 -28z"/>
<path d="M10622 11821 c-12 -53 -23 -107 -26 -121 -2 -14 -9 -45 -15 -70 -11
-50 -17 -80 -26 -125 -5 -27 -17 -81 -20 -95 -1 -4 -8 -36 -21 -100 -17 -89
-87 -413 -94 -440 -5 -19 -11 -51 -14 -70 -4 -19 -10 -51 -14 -70 l-8 -35 115
-30 116 -30 18 55 c10 30 19 62 22 70 8 33 81 296 180 650 42 151 78 282 80
290 3 8 11 41 20 74 9 32 14 60 11 63 -5 5 -108 33 -227 61 l-76 19 -21 -96z"/>
<path d="M8475 11899 c-16 -5 -85 -23 -152 -40 -68 -17 -121 -35 -118 -39 4
-6 25 -81 40 -140 6 -25 47 -164 53 -180 3 -8 6 -19 7 -25 2 -5 55 -192 119
-414 64 -222 116 -410 116 -417 0 -18 -1 -18 114 11 54 14 107 25 118 25 11 0
16 5 13 11 -6 9 -27 100 -41 174 -3 17 -10 50 -15 75 -6 25 -12 54 -15 65 -2
11 -24 112 -50 225 -25 113 -48 216 -50 230 -3 14 -9 41 -14 60 -7 29 -22 97
-46 215 -18 92 -37 166 -43 168 -3 2 -19 0 -36 -4z"/>
<path d="M11116 11779 c-3 -8 -13 -41 -24 -74 -24 -72 -104 -326 -108 -340 -4
-16 -73 -235 -90 -285 -9 -25 -17 -52 -19 -60 -3 -15 -66 -212 -110 -348 -17
-53 -21 -74 -12 -77 139 -50 213 -72 218 -67 4 4 29 66 56 137 28 72 126 324
218 560 92 237 169 437 172 445 3 12 -13 22 -64 39 -37 12 -77 27 -88 31 -11
5 -40 16 -65 24 -25 8 -53 17 -62 21 -11 4 -19 2 -22 -6z"/>
<path d="M7893 11727 c-78 -29 -144 -55 -148 -58 -5 -5 124 -344 180 -474 7
-16 34 -84 60 -150 26 -66 51 -129 56 -140 5 -11 41 -101 80 -200 39 -99 74
-184 78 -188 4 -4 32 2 62 14 30 11 76 28 102 36 26 8 50 20 53 27 4 11 -44
170 -131 431 -83 251 -235 724 -235 733 0 23 -19 19 -157 -31z"/>
<path d="M11530 11497 c-29 -67 -61 -140 -70 -162 -13 -29 -311 -721 -367
-852 -6 -14 207 -117 218 -106 4 5 107 206 229 448 123 242 247 487 277 544
29 58 53 107 53 111 0 4 -30 20 -67 37 -38 17 -102 47 -145 66 l-76 36 -52
-122z"/>
<path d="M7430 11534 c-74 -36 -136 -67 -138 -69 -2 -2 21 -50 51 -107 30 -56
92 -175 137 -263 45 -88 113 -218 150 -290 37 -71 102 -197 145 -280 43 -82
81 -154 86 -160 6 -6 48 10 112 40 56 27 103 50 105 51 3 1 -19 54 -63 154
-18 41 -115 262 -215 490 -225 514 -219 500 -228 500 -4 -1 -68 -30 -142 -66z"/>
<path d="M11997 11352 c-14 -27 -34 -64 -44 -83 -11 -19 -94 -169 -185 -334
-91 -165 -206 -373 -256 -463 -90 -161 -91 -162 -69 -176 140 -86 175 -106
183 -106 5 1 133 195 284 432 151 237 296 463 321 502 80 124 84 106 -38 179
-60 36 -122 72 -140 81 l-31 16 -25 -48z"/>
<path d="M7085 11353 c-22 -15 -49 -31 -60 -37 -11 -6 -52 -31 -91 -55 l-71
-44 121 -186 c66 -102 135 -208 153 -236 18 -27 36 -54 41 -60 4 -5 11 -17 15
-25 4 -8 41 -67 82 -130 42 -63 119 -181 172 -262 107 -166 88 -157 190 -91
28 18 56 33 60 33 4 0 18 8 30 18 19 15 21 20 10 39 -6 12 -33 59 -58 105 -26
46 -55 99 -66 118 -103 183 -205 365 -230 410 -125 225 -241 424 -249 426 -5
2 -27 -9 -49 -23z"/>
<path d="M12252 10862 c-105 -152 -219 -317 -253 -367 -34 -49 -100 -146 -147
-215 -47 -69 -92 -133 -100 -143 -19 -22 -19 -22 96 -106 77 -57 83 -60 97
-44 8 10 62 79 120 153 110 140 139 177 190 239 17 21 44 55 60 76 98 126 320
408 330 419 31 35 56 79 49 86 -19 16 -217 161 -234 170 -15 8 -43 -27 -208
-268z"/>
<path d="M6593 11027 c-68 -51 -123 -95 -123 -100 0 -6 680 -862 750 -943 l26
-31 96 72 95 72 -219 314 c-121 173 -230 330 -243 349 -14 19 -37 53 -53 75
-57 81 -135 191 -165 237 -18 26 -34 48 -37 47 -3 0 -60 -41 -127 -92z"/>
<path d="M12803 10802 c-17 -20 -41 -48 -53 -62 -11 -14 -29 -34 -38 -45 -9
-11 -114 -135 -233 -275 -232 -275 -375 -444 -399 -473 -8 -10 -23 -28 -32
-39 -17 -20 -16 -22 29 -62 26 -22 55 -48 64 -56 8 -8 28 -26 43 -40 l27 -24
85 89 c47 50 172 179 277 289 106 109 209 217 231 240 21 22 90 93 152 157 63
64 114 121 114 125 0 5 -24 30 -53 56 -28 26 -74 67 -102 93 -75 69 -77 70
-112 27z"/>
<path d="M6309 10797 c-62 -50 -209 -191 -207 -198 3 -7 152 -161 686 -708
l180 -184 48 45 c27 25 66 61 87 79 41 36 43 41 24 61 -6 7 -50 58 -97 113
-47 55 -94 111 -106 125 -27 31 -297 344 -332 385 -14 17 -39 46 -56 65 -17
20 -51 60 -76 90 -25 29 -49 58 -55 64 -5 6 -24 27 -41 47 l-31 36 -24 -20z"/>
<path d="M9389 10516 c-2 -2 -44 -7 -94 -10 -49 -4 -106 -9 -125 -12 -118 -17
-224 -35 -285 -49 -38 -8 -81 -18 -94 -21 -63 -13 -187 -49 -295 -85 -589
-196 -1144 -576 -1547 -1059 -104 -125 -229 -294 -229 -310 0 -5 -4 -10 -9
-10 -5 0 -13 -9 -16 -20 -3 -11 -12 -26 -18 -32 -24 -25 -130 -214 -192 -343
-112 -232 -227 -560 -259 -735 -2 -14 -7 -32 -10 -40 -3 -8 -7 -28 -10 -45 -8
-50 -27 -158 -32 -190 -3 -16 -7 -46 -9 -66 -2 -20 -6 -63 -9 -95 -4 -32 -9
-93 -11 -134 l-5 -75 3463 0 3462 0 -1 40 c-3 69 -14 220 -19 246 -3 13 -7 47
-11 74 -9 87 -44 255 -79 390 -117 450 -324 869 -614 1245 -36 47 -70 90 -76
96 -5 6 -30 34 -54 63 -108 126 -288 298 -441 421 -318 254 -671 448 -1055
578 -101 35 -309 93 -380 106 -143 28 -218 40 -315 51 -30 4 -66 9 -80 12 -29
5 -545 14 -551 9z"/>
<path d="M13118 10428 c-67 -64 -226 -218 -695 -674 l-122 -119 74 -80 c41
-44 75 -83 75 -87 0 -5 4 -8 9 -8 5 0 109 86 232 191 123 105 236 200 250 212
29 24 116 99 193 166 78 67 95 81 189 160 48 40 87 75 87 78 0 3 -17 24 -37
47 -110 123 -169 186 -174 186 -3 0 -40 -33 -81 -72z"/>
<path d="M5909 10409 c-35 -40 -83 -93 -106 -118 -23 -25 -42 -48 -42 -51 0
-4 285 -244 447 -377 15 -13 34 -28 42 -35 8 -7 32 -28 55 -47 47 -39 105 -88
194 -162 143 -119 216 -179 221 -178 5 1 127 139 145 165 8 11 -6 30 -60 80
-62 59 -193 184 -544 519 -57 55 -119 114 -136 130 -17 17 -58 56 -91 88 l-60
58 -65 -72z"/>
<path d="M13460 10076 c-78 -63 -364 -291 -410 -326 -18 -14 -58 -45 -89 -70
-31 -25 -72 -57 -91 -72 -75 -58 -266 -211 -294 -233 l-29 -24 39 -49 c22 -28
48 -62 59 -78 52 -72 17 -86 360 151 171 117 374 258 453 312 79 54 170 117
202 141 l60 42 -47 65 c-25 35 -51 61 -56 58 -6 -3 -7 -1 -3 5 4 6 -14 38 -40
72 -26 33 -48 60 -48 59 -1 0 -30 -24 -66 -53z"/>
<path d="M5614 10057 c-73 -98 -153 -211 -150 -214 1 -1 77 -53 169 -115 91
-62 271 -184 399 -271 128 -87 285 -194 348 -237 l115 -78 20 28 c11 16 27 38
35 50 8 12 30 41 47 64 33 41 40 62 24 68 -4 2 -23 15 -42 30 -30 24 -472 369
-783 611 -65 50 -124 97 -131 104 -9 9 -21 0 -51 -40z"/>
<path d="M13780 9706 c-8 -7 -123 -82 -255 -166 -391 -250 -626 -400 -697
-446 l-67 -44 54 -87 c30 -49 59 -95 63 -102 7 -12 34 -1 143 59 74 41 152 83
174 95 22 11 51 28 65 36 14 9 131 74 260 144 243 133 254 139 355 195 33 19
70 39 82 45 20 10 21 14 9 36 -65 122 -147 249 -160 249 -6 0 -18 -6 -26 -14z"/>
<path d="M5318 9621 c-62 -103 -108 -187 -108 -198 0 -4 17 -16 38 -25 20 -10
48 -24 62 -32 14 -8 70 -39 125 -69 55 -30 125 -68 155 -84 30 -17 84 -46 120
-65 36 -20 90 -49 120 -65 30 -17 91 -49 135 -73 44 -23 93 -50 110 -60 107
-60 227 -122 229 -119 2 2 22 37 44 77 23 40 48 83 57 95 8 12 15 25 15 28 0
6 -465 305 -605 389 -54 33 -313 196 -365 230 -86 56 -81 57 -132 -29z"/>
<path d="M13932 9232 c-802 -406 -982 -498 -982 -503 0 -3 22 -54 50 -112 l49
-106 28 14 c15 7 109 48 208 90 99 42 194 82 210 90 17 7 59 25 95 40 36 14
83 34 105 44 22 10 139 60 260 111 121 51 224 97 229 101 14 12 -110 289 -129
288 -5 0 -61 -25 -123 -57z"/>
<path d="M5083 9183 c-71 -154 -94 -205 -91 -208 8 -6 1139 -475 1147 -475 5
0 14 15 22 33 7 17 27 63 46 101 18 38 30 73 27 78 -4 7 -977 496 -1104 556
-4 1 -25 -37 -47 -85z"/>
<path d="M14205 8823 c-22 -8 -69 -26 -105 -40 -36 -13 -74 -28 -85 -33 -11
-5 -81 -33 -155 -61 -74 -28 -162 -61 -195 -74 -33 -13 -139 -53 -235 -90 -96
-36 -184 -70 -195 -75 -11 -5 -46 -19 -77 -30 -32 -12 -58 -27 -58 -35 0 -7 9
-34 20 -59 11 -26 20 -50 21 -54 2 -8 4 -15 19 -64 6 -21 13 -38 14 -38 2 0
77 23 167 51 174 54 385 119 484 149 153 46 463 142 485 149 14 5 32 11 42 14
14 5 10 23 -33 147 -26 77 -51 145 -54 150 -8 13 -12 12 -60 -7z"/>
<path d="M4877 8673 c-26 -76 -47 -145 -47 -153 0 -14 250 -93 850 -270 52
-16 148 -44 212 -64 65 -20 120 -36 122 -36 5 0 25 50 30 75 3 11 16 49 29 85
l25 66 -567 212 c-312 117 -576 215 -587 218 -19 5 -25 -9 -67 -133z"/>
<path d="M14275 8335 c-154 -42 -847 -230 -925 -250 -136 -36 -141 -38 -138
-54 3 -9 15 -61 28 -117 l24 -101 45 9 c25 5 55 10 66 12 33 7 679 137 696
141 9 2 32 6 50 9 62 11 94 17 111 22 9 3 27 7 40 9 130 24 198 39 206 44 7 4
0 50 -19 131 -16 69 -32 137 -35 153 -4 15 -12 27 -18 26 -6 0 -65 -16 -131
-34z"/>
<path d="M4767 8313 c-2 -16 -16 -81 -31 -146 -14 -65 -27 -123 -29 -129 -2
-10 36 -20 168 -43 17 -3 41 -8 55 -11 14 -3 36 -8 50 -10 14 -3 117 -23 230
-44 113 -22 216 -41 230 -44 14 -2 59 -11 100 -19 41 -9 127 -25 190 -37 63
-11 132 -25 153 -31 22 -6 41 -8 43 -6 6 5 54 204 54 221 0 10 -54 28 -195 63
-15 3 -404 106 -520 137 -55 15 -167 45 -250 66 -82 22 -166 44 -185 50 -51
15 -57 13 -63 -17z"/>
<path d="M14477 7884 c-2 -2 -148 -27 -232 -40 -16 -3 -37 -7 -45 -9 -8 -2
-35 -6 -60 -9 -25 -3 -55 -8 -66 -10 -12 -2 -37 -7 -55 -10 -117 -19 -358 -58
-379 -62 -45 -8 -155 -26 -175 -28 -114 -16 -175 -30 -175 -42 0 -7 4 -46 10
-86 5 -40 11 -86 13 -103 3 -27 7 -30 38 -30 31 1 167 11 244 19 17 2 64 7
105 10 41 4 86 9 100 11 14 2 59 7 100 10 86 8 132 12 210 20 30 3 80 7 110
10 30 3 75 7 100 10 25 2 74 7 110 11 36 3 74 7 85 9 11 1 26 3 33 4 13 1 13
26 -4 146 -3 22 -7 51 -9 65 -14 100 -16 109 -36 107 -11 -1 -21 -2 -22 -3z"/>
<path d="M4675 7848 c-8 -23 -41 -308 -35 -309 3 0 12 -2 20 -3 8 -2 53 -6
100 -10 47 -4 101 -8 120 -11 19 -2 69 -6 110 -10 84 -6 381 -33 450 -40 25
-2 83 -7 130 -10 47 -4 95 -8 108 -10 63 -10 202 -16 203 -9 0 5 2 16 4 24 1
8 6 47 9 85 4 39 9 82 11 96 l5 26 -153 23 c-83 12 -159 24 -167 25 -60 10
-103 17 -123 20 -41 5 -111 16 -199 31 -48 8 -106 17 -130 20 -24 3 -54 7 -68
10 -14 2 -70 11 -125 20 -55 8 -111 17 -125 20 -14 2 -47 7 -75 10 -27 4 -53
8 -58 11 -4 2 -9 -2 -12 -9z"/>
<path d="M14507 7394 c-1 -1 -52 -5 -112 -8 -61 -4 -144 -9 -185 -11 -41 -3
-115 -7 -165 -10 -49 -3 -124 -7 -165 -10 -41 -2 -111 -7 -155 -10 -44 -2
-132 -7 -195 -11 -63 -3 -133 -7 -155 -9 l-40 -2 -1 -72 c-1 -47 2 -71 10 -72
6 -1 287 -2 623 -3 539 -1 613 1 614 14 1 20 -2 137 -5 175 -2 27 -6 30 -34
31 -18 0 -33 -1 -35 -2z"/>
<path d="M4626 7351 c-8 -26 -10 -161 -2 -168 4 -4 286 -7 626 -8 l620 0 0 63
0 62 -37 1 c-21 1 -51 2 -68 4 -16 1 -100 6 -185 10 -230 11 -245 12 -375 19
-66 4 -149 9 -185 11 -36 2 -121 7 -190 10 -69 3 -142 8 -162 9 -28 2 -39 -1
-42 -13z"/>
</g>
</svg>
